G04 #@! TF.GenerationSoftware,KiCad,Pcbnew,8.0.7*
G04 #@! TF.CreationDate,2025-01-01T13:35:18+11:00*
G04 #@! TF.ProjectId,Mainpcb,4d61696e-7063-4622-9e6b-696361645f70,rev?*
G04 #@! TF.SameCoordinates,Original*
G04 #@! TF.FileFunction,Legend,Top*
G04 #@! TF.FilePolarity,Positive*
%FSLAX46Y46*%
G04 Gerber Fmt 4.6, Leading zero omitted, Abs format (unit mm)*
G04 Created by KiCad (PCBNEW 8.0.7) date 2025-01-01 13:35:18*
%MOMM*%
%LPD*%
G01*
G04 APERTURE LIST*
G04 Aperture macros list*
%AMRoundRect*
0 Rectangle with rounded corners*
0 $1 Rounding radius*
0 $2 $3 $4 $5 $6 $7 $8 $9 X,Y pos of 4 corners*
0 Add a 4 corners polygon primitive as box body*
4,1,4,$2,$3,$4,$5,$6,$7,$8,$9,$2,$3,0*
0 Add four circle primitives for the rounded corners*
1,1,$1+$1,$2,$3*
1,1,$1+$1,$4,$5*
1,1,$1+$1,$6,$7*
1,1,$1+$1,$8,$9*
0 Add four rect primitives between the rounded corners*
20,1,$1+$1,$2,$3,$4,$5,0*
20,1,$1+$1,$4,$5,$6,$7,0*
20,1,$1+$1,$6,$7,$8,$9,0*
20,1,$1+$1,$8,$9,$2,$3,0*%
G04 Aperture macros list end*
%ADD10C,0.150000*%
%ADD11C,0.254000*%
%ADD12C,0.200000*%
%ADD13C,0.120000*%
%ADD14C,3.000000*%
%ADD15C,2.500000*%
%ADD16R,1.752600X1.752600*%
%ADD17C,1.752600*%
%ADD18C,1.701800*%
%ADD19C,3.987800*%
%ADD20R,1.600000X1.600000*%
%ADD21R,1.200000X1.200000*%
%ADD22C,1.600000*%
%ADD23R,2.000000X2.000000*%
%ADD24C,2.000000*%
%ADD25R,3.200000X2.000000*%
%ADD26C,2.200000*%
%ADD27C,5.300000*%
%ADD28C,3.048000*%
%ADD29RoundRect,0.250000X-0.350000X-0.625000X0.350000X-0.625000X0.350000X0.625000X-0.350000X0.625000X0*%
%ADD30O,1.200000X1.750000*%
%ADD31O,1.700000X1.700000*%
%ADD32R,1.700000X1.700000*%
%ADD33C,3.500000*%
G04 APERTURE END LIST*
D10*
X27957143Y-23662295D02*
X27957143Y-22862295D01*
X27957143Y-22862295D02*
X28261905Y-22862295D01*
X28261905Y-22862295D02*
X28338095Y-22900390D01*
X28338095Y-22900390D02*
X28376190Y-22938485D01*
X28376190Y-22938485D02*
X28414286Y-23014676D01*
X28414286Y-23014676D02*
X28414286Y-23128961D01*
X28414286Y-23128961D02*
X28376190Y-23205152D01*
X28376190Y-23205152D02*
X28338095Y-23243247D01*
X28338095Y-23243247D02*
X28261905Y-23281342D01*
X28261905Y-23281342D02*
X27957143Y-23281342D01*
X28909524Y-22862295D02*
X28985714Y-22862295D01*
X28985714Y-22862295D02*
X29061905Y-22900390D01*
X29061905Y-22900390D02*
X29100000Y-22938485D01*
X29100000Y-22938485D02*
X29138095Y-23014676D01*
X29138095Y-23014676D02*
X29176190Y-23167057D01*
X29176190Y-23167057D02*
X29176190Y-23357533D01*
X29176190Y-23357533D02*
X29138095Y-23509914D01*
X29138095Y-23509914D02*
X29100000Y-23586104D01*
X29100000Y-23586104D02*
X29061905Y-23624200D01*
X29061905Y-23624200D02*
X28985714Y-23662295D01*
X28985714Y-23662295D02*
X28909524Y-23662295D01*
X28909524Y-23662295D02*
X28833333Y-23624200D01*
X28833333Y-23624200D02*
X28795238Y-23586104D01*
X28795238Y-23586104D02*
X28757143Y-23509914D01*
X28757143Y-23509914D02*
X28719047Y-23357533D01*
X28719047Y-23357533D02*
X28719047Y-23167057D01*
X28719047Y-23167057D02*
X28757143Y-23014676D01*
X28757143Y-23014676D02*
X28795238Y-22938485D01*
X28795238Y-22938485D02*
X28833333Y-22900390D01*
X28833333Y-22900390D02*
X28909524Y-22862295D01*
X29519048Y-23586104D02*
X29557143Y-23624200D01*
X29557143Y-23624200D02*
X29519048Y-23662295D01*
X29519048Y-23662295D02*
X29480952Y-23624200D01*
X29480952Y-23624200D02*
X29519048Y-23586104D01*
X29519048Y-23586104D02*
X29519048Y-23662295D01*
X30052381Y-22862295D02*
X30128571Y-22862295D01*
X30128571Y-22862295D02*
X30204762Y-22900390D01*
X30204762Y-22900390D02*
X30242857Y-22938485D01*
X30242857Y-22938485D02*
X30280952Y-23014676D01*
X30280952Y-23014676D02*
X30319047Y-23167057D01*
X30319047Y-23167057D02*
X30319047Y-23357533D01*
X30319047Y-23357533D02*
X30280952Y-23509914D01*
X30280952Y-23509914D02*
X30242857Y-23586104D01*
X30242857Y-23586104D02*
X30204762Y-23624200D01*
X30204762Y-23624200D02*
X30128571Y-23662295D01*
X30128571Y-23662295D02*
X30052381Y-23662295D01*
X30052381Y-23662295D02*
X29976190Y-23624200D01*
X29976190Y-23624200D02*
X29938095Y-23586104D01*
X29938095Y-23586104D02*
X29900000Y-23509914D01*
X29900000Y-23509914D02*
X29861904Y-23357533D01*
X29861904Y-23357533D02*
X29861904Y-23167057D01*
X29861904Y-23167057D02*
X29900000Y-23014676D01*
X29900000Y-23014676D02*
X29938095Y-22938485D01*
X29938095Y-22938485D02*
X29976190Y-22900390D01*
X29976190Y-22900390D02*
X30052381Y-22862295D01*
X31004762Y-22862295D02*
X30852381Y-22862295D01*
X30852381Y-22862295D02*
X30776190Y-22900390D01*
X30776190Y-22900390D02*
X30738095Y-22938485D01*
X30738095Y-22938485D02*
X30661905Y-23052771D01*
X30661905Y-23052771D02*
X30623809Y-23205152D01*
X30623809Y-23205152D02*
X30623809Y-23509914D01*
X30623809Y-23509914D02*
X30661905Y-23586104D01*
X30661905Y-23586104D02*
X30700000Y-23624200D01*
X30700000Y-23624200D02*
X30776190Y-23662295D01*
X30776190Y-23662295D02*
X30928571Y-23662295D01*
X30928571Y-23662295D02*
X31004762Y-23624200D01*
X31004762Y-23624200D02*
X31042857Y-23586104D01*
X31042857Y-23586104D02*
X31080952Y-23509914D01*
X31080952Y-23509914D02*
X31080952Y-23319438D01*
X31080952Y-23319438D02*
X31042857Y-23243247D01*
X31042857Y-23243247D02*
X31004762Y-23205152D01*
X31004762Y-23205152D02*
X30928571Y-23167057D01*
X30928571Y-23167057D02*
X30776190Y-23167057D01*
X30776190Y-23167057D02*
X30700000Y-23205152D01*
X30700000Y-23205152D02*
X30661905Y-23243247D01*
X30661905Y-23243247D02*
X30623809Y-23319438D01*
X38851476Y-25440390D02*
X38775286Y-25402295D01*
X38775286Y-25402295D02*
X38661000Y-25402295D01*
X38661000Y-25402295D02*
X38546714Y-25440390D01*
X38546714Y-25440390D02*
X38470524Y-25516580D01*
X38470524Y-25516580D02*
X38432429Y-25592771D01*
X38432429Y-25592771D02*
X38394333Y-25745152D01*
X38394333Y-25745152D02*
X38394333Y-25859438D01*
X38394333Y-25859438D02*
X38432429Y-26011819D01*
X38432429Y-26011819D02*
X38470524Y-26088009D01*
X38470524Y-26088009D02*
X38546714Y-26164200D01*
X38546714Y-26164200D02*
X38661000Y-26202295D01*
X38661000Y-26202295D02*
X38737191Y-26202295D01*
X38737191Y-26202295D02*
X38851476Y-26164200D01*
X38851476Y-26164200D02*
X38889572Y-26126104D01*
X38889572Y-26126104D02*
X38889572Y-25859438D01*
X38889572Y-25859438D02*
X38737191Y-25859438D01*
X39232429Y-26202295D02*
X39232429Y-25402295D01*
X39232429Y-25402295D02*
X39689572Y-26202295D01*
X39689572Y-26202295D02*
X39689572Y-25402295D01*
X40070524Y-26202295D02*
X40070524Y-25402295D01*
X40070524Y-25402295D02*
X40261000Y-25402295D01*
X40261000Y-25402295D02*
X40375286Y-25440390D01*
X40375286Y-25440390D02*
X40451476Y-25516580D01*
X40451476Y-25516580D02*
X40489571Y-25592771D01*
X40489571Y-25592771D02*
X40527667Y-25745152D01*
X40527667Y-25745152D02*
X40527667Y-25859438D01*
X40527667Y-25859438D02*
X40489571Y-26011819D01*
X40489571Y-26011819D02*
X40451476Y-26088009D01*
X40451476Y-26088009D02*
X40375286Y-26164200D01*
X40375286Y-26164200D02*
X40261000Y-26202295D01*
X40261000Y-26202295D02*
X40070524Y-26202295D01*
X27957143Y-33822295D02*
X27957143Y-33022295D01*
X27957143Y-33022295D02*
X28261905Y-33022295D01*
X28261905Y-33022295D02*
X28338095Y-33060390D01*
X28338095Y-33060390D02*
X28376190Y-33098485D01*
X28376190Y-33098485D02*
X28414286Y-33174676D01*
X28414286Y-33174676D02*
X28414286Y-33288961D01*
X28414286Y-33288961D02*
X28376190Y-33365152D01*
X28376190Y-33365152D02*
X28338095Y-33403247D01*
X28338095Y-33403247D02*
X28261905Y-33441342D01*
X28261905Y-33441342D02*
X27957143Y-33441342D01*
X28909524Y-33022295D02*
X28985714Y-33022295D01*
X28985714Y-33022295D02*
X29061905Y-33060390D01*
X29061905Y-33060390D02*
X29100000Y-33098485D01*
X29100000Y-33098485D02*
X29138095Y-33174676D01*
X29138095Y-33174676D02*
X29176190Y-33327057D01*
X29176190Y-33327057D02*
X29176190Y-33517533D01*
X29176190Y-33517533D02*
X29138095Y-33669914D01*
X29138095Y-33669914D02*
X29100000Y-33746104D01*
X29100000Y-33746104D02*
X29061905Y-33784200D01*
X29061905Y-33784200D02*
X28985714Y-33822295D01*
X28985714Y-33822295D02*
X28909524Y-33822295D01*
X28909524Y-33822295D02*
X28833333Y-33784200D01*
X28833333Y-33784200D02*
X28795238Y-33746104D01*
X28795238Y-33746104D02*
X28757143Y-33669914D01*
X28757143Y-33669914D02*
X28719047Y-33517533D01*
X28719047Y-33517533D02*
X28719047Y-33327057D01*
X28719047Y-33327057D02*
X28757143Y-33174676D01*
X28757143Y-33174676D02*
X28795238Y-33098485D01*
X28795238Y-33098485D02*
X28833333Y-33060390D01*
X28833333Y-33060390D02*
X28909524Y-33022295D01*
X29519048Y-33746104D02*
X29557143Y-33784200D01*
X29557143Y-33784200D02*
X29519048Y-33822295D01*
X29519048Y-33822295D02*
X29480952Y-33784200D01*
X29480952Y-33784200D02*
X29519048Y-33746104D01*
X29519048Y-33746104D02*
X29519048Y-33822295D01*
X30319047Y-33822295D02*
X29861904Y-33822295D01*
X30090476Y-33822295D02*
X30090476Y-33022295D01*
X30090476Y-33022295D02*
X30014285Y-33136580D01*
X30014285Y-33136580D02*
X29938095Y-33212771D01*
X29938095Y-33212771D02*
X29861904Y-33250866D01*
X30585714Y-33022295D02*
X31119048Y-33022295D01*
X31119048Y-33022295D02*
X30776190Y-33822295D01*
X27957143Y-38902295D02*
X27957143Y-38102295D01*
X27957143Y-38102295D02*
X28261905Y-38102295D01*
X28261905Y-38102295D02*
X28338095Y-38140390D01*
X28338095Y-38140390D02*
X28376190Y-38178485D01*
X28376190Y-38178485D02*
X28414286Y-38254676D01*
X28414286Y-38254676D02*
X28414286Y-38368961D01*
X28414286Y-38368961D02*
X28376190Y-38445152D01*
X28376190Y-38445152D02*
X28338095Y-38483247D01*
X28338095Y-38483247D02*
X28261905Y-38521342D01*
X28261905Y-38521342D02*
X27957143Y-38521342D01*
X28909524Y-38102295D02*
X28985714Y-38102295D01*
X28985714Y-38102295D02*
X29061905Y-38140390D01*
X29061905Y-38140390D02*
X29100000Y-38178485D01*
X29100000Y-38178485D02*
X29138095Y-38254676D01*
X29138095Y-38254676D02*
X29176190Y-38407057D01*
X29176190Y-38407057D02*
X29176190Y-38597533D01*
X29176190Y-38597533D02*
X29138095Y-38749914D01*
X29138095Y-38749914D02*
X29100000Y-38826104D01*
X29100000Y-38826104D02*
X29061905Y-38864200D01*
X29061905Y-38864200D02*
X28985714Y-38902295D01*
X28985714Y-38902295D02*
X28909524Y-38902295D01*
X28909524Y-38902295D02*
X28833333Y-38864200D01*
X28833333Y-38864200D02*
X28795238Y-38826104D01*
X28795238Y-38826104D02*
X28757143Y-38749914D01*
X28757143Y-38749914D02*
X28719047Y-38597533D01*
X28719047Y-38597533D02*
X28719047Y-38407057D01*
X28719047Y-38407057D02*
X28757143Y-38254676D01*
X28757143Y-38254676D02*
X28795238Y-38178485D01*
X28795238Y-38178485D02*
X28833333Y-38140390D01*
X28833333Y-38140390D02*
X28909524Y-38102295D01*
X29519048Y-38826104D02*
X29557143Y-38864200D01*
X29557143Y-38864200D02*
X29519048Y-38902295D01*
X29519048Y-38902295D02*
X29480952Y-38864200D01*
X29480952Y-38864200D02*
X29519048Y-38826104D01*
X29519048Y-38826104D02*
X29519048Y-38902295D01*
X29861904Y-38178485D02*
X29900000Y-38140390D01*
X29900000Y-38140390D02*
X29976190Y-38102295D01*
X29976190Y-38102295D02*
X30166666Y-38102295D01*
X30166666Y-38102295D02*
X30242857Y-38140390D01*
X30242857Y-38140390D02*
X30280952Y-38178485D01*
X30280952Y-38178485D02*
X30319047Y-38254676D01*
X30319047Y-38254676D02*
X30319047Y-38330866D01*
X30319047Y-38330866D02*
X30280952Y-38445152D01*
X30280952Y-38445152D02*
X29823809Y-38902295D01*
X29823809Y-38902295D02*
X30319047Y-38902295D01*
X30623809Y-38178485D02*
X30661905Y-38140390D01*
X30661905Y-38140390D02*
X30738095Y-38102295D01*
X30738095Y-38102295D02*
X30928571Y-38102295D01*
X30928571Y-38102295D02*
X31004762Y-38140390D01*
X31004762Y-38140390D02*
X31042857Y-38178485D01*
X31042857Y-38178485D02*
X31080952Y-38254676D01*
X31080952Y-38254676D02*
X31080952Y-38330866D01*
X31080952Y-38330866D02*
X31042857Y-38445152D01*
X31042857Y-38445152D02*
X30585714Y-38902295D01*
X30585714Y-38902295D02*
X31080952Y-38902295D01*
X36957143Y-33822295D02*
X36957143Y-33022295D01*
X36957143Y-33022295D02*
X37261905Y-33022295D01*
X37261905Y-33022295D02*
X37338095Y-33060390D01*
X37338095Y-33060390D02*
X37376190Y-33098485D01*
X37376190Y-33098485D02*
X37414286Y-33174676D01*
X37414286Y-33174676D02*
X37414286Y-33288961D01*
X37414286Y-33288961D02*
X37376190Y-33365152D01*
X37376190Y-33365152D02*
X37338095Y-33403247D01*
X37338095Y-33403247D02*
X37261905Y-33441342D01*
X37261905Y-33441342D02*
X36957143Y-33441342D01*
X37909524Y-33022295D02*
X37985714Y-33022295D01*
X37985714Y-33022295D02*
X38061905Y-33060390D01*
X38061905Y-33060390D02*
X38100000Y-33098485D01*
X38100000Y-33098485D02*
X38138095Y-33174676D01*
X38138095Y-33174676D02*
X38176190Y-33327057D01*
X38176190Y-33327057D02*
X38176190Y-33517533D01*
X38176190Y-33517533D02*
X38138095Y-33669914D01*
X38138095Y-33669914D02*
X38100000Y-33746104D01*
X38100000Y-33746104D02*
X38061905Y-33784200D01*
X38061905Y-33784200D02*
X37985714Y-33822295D01*
X37985714Y-33822295D02*
X37909524Y-33822295D01*
X37909524Y-33822295D02*
X37833333Y-33784200D01*
X37833333Y-33784200D02*
X37795238Y-33746104D01*
X37795238Y-33746104D02*
X37757143Y-33669914D01*
X37757143Y-33669914D02*
X37719047Y-33517533D01*
X37719047Y-33517533D02*
X37719047Y-33327057D01*
X37719047Y-33327057D02*
X37757143Y-33174676D01*
X37757143Y-33174676D02*
X37795238Y-33098485D01*
X37795238Y-33098485D02*
X37833333Y-33060390D01*
X37833333Y-33060390D02*
X37909524Y-33022295D01*
X38519048Y-33746104D02*
X38557143Y-33784200D01*
X38557143Y-33784200D02*
X38519048Y-33822295D01*
X38519048Y-33822295D02*
X38480952Y-33784200D01*
X38480952Y-33784200D02*
X38519048Y-33746104D01*
X38519048Y-33746104D02*
X38519048Y-33822295D01*
X38823809Y-33022295D02*
X39319047Y-33022295D01*
X39319047Y-33022295D02*
X39052381Y-33327057D01*
X39052381Y-33327057D02*
X39166666Y-33327057D01*
X39166666Y-33327057D02*
X39242857Y-33365152D01*
X39242857Y-33365152D02*
X39280952Y-33403247D01*
X39280952Y-33403247D02*
X39319047Y-33479438D01*
X39319047Y-33479438D02*
X39319047Y-33669914D01*
X39319047Y-33669914D02*
X39280952Y-33746104D01*
X39280952Y-33746104D02*
X39242857Y-33784200D01*
X39242857Y-33784200D02*
X39166666Y-33822295D01*
X39166666Y-33822295D02*
X38938095Y-33822295D01*
X38938095Y-33822295D02*
X38861904Y-33784200D01*
X38861904Y-33784200D02*
X38823809Y-33746104D01*
X40080952Y-33822295D02*
X39623809Y-33822295D01*
X39852381Y-33822295D02*
X39852381Y-33022295D01*
X39852381Y-33022295D02*
X39776190Y-33136580D01*
X39776190Y-33136580D02*
X39700000Y-33212771D01*
X39700000Y-33212771D02*
X39623809Y-33250866D01*
X27957143Y-41442295D02*
X27957143Y-40642295D01*
X27957143Y-40642295D02*
X28261905Y-40642295D01*
X28261905Y-40642295D02*
X28338095Y-40680390D01*
X28338095Y-40680390D02*
X28376190Y-40718485D01*
X28376190Y-40718485D02*
X28414286Y-40794676D01*
X28414286Y-40794676D02*
X28414286Y-40908961D01*
X28414286Y-40908961D02*
X28376190Y-40985152D01*
X28376190Y-40985152D02*
X28338095Y-41023247D01*
X28338095Y-41023247D02*
X28261905Y-41061342D01*
X28261905Y-41061342D02*
X27957143Y-41061342D01*
X28909524Y-40642295D02*
X28985714Y-40642295D01*
X28985714Y-40642295D02*
X29061905Y-40680390D01*
X29061905Y-40680390D02*
X29100000Y-40718485D01*
X29100000Y-40718485D02*
X29138095Y-40794676D01*
X29138095Y-40794676D02*
X29176190Y-40947057D01*
X29176190Y-40947057D02*
X29176190Y-41137533D01*
X29176190Y-41137533D02*
X29138095Y-41289914D01*
X29138095Y-41289914D02*
X29100000Y-41366104D01*
X29100000Y-41366104D02*
X29061905Y-41404200D01*
X29061905Y-41404200D02*
X28985714Y-41442295D01*
X28985714Y-41442295D02*
X28909524Y-41442295D01*
X28909524Y-41442295D02*
X28833333Y-41404200D01*
X28833333Y-41404200D02*
X28795238Y-41366104D01*
X28795238Y-41366104D02*
X28757143Y-41289914D01*
X28757143Y-41289914D02*
X28719047Y-41137533D01*
X28719047Y-41137533D02*
X28719047Y-40947057D01*
X28719047Y-40947057D02*
X28757143Y-40794676D01*
X28757143Y-40794676D02*
X28795238Y-40718485D01*
X28795238Y-40718485D02*
X28833333Y-40680390D01*
X28833333Y-40680390D02*
X28909524Y-40642295D01*
X29519048Y-41366104D02*
X29557143Y-41404200D01*
X29557143Y-41404200D02*
X29519048Y-41442295D01*
X29519048Y-41442295D02*
X29480952Y-41404200D01*
X29480952Y-41404200D02*
X29519048Y-41366104D01*
X29519048Y-41366104D02*
X29519048Y-41442295D01*
X29861904Y-40718485D02*
X29900000Y-40680390D01*
X29900000Y-40680390D02*
X29976190Y-40642295D01*
X29976190Y-40642295D02*
X30166666Y-40642295D01*
X30166666Y-40642295D02*
X30242857Y-40680390D01*
X30242857Y-40680390D02*
X30280952Y-40718485D01*
X30280952Y-40718485D02*
X30319047Y-40794676D01*
X30319047Y-40794676D02*
X30319047Y-40870866D01*
X30319047Y-40870866D02*
X30280952Y-40985152D01*
X30280952Y-40985152D02*
X29823809Y-41442295D01*
X29823809Y-41442295D02*
X30319047Y-41442295D01*
X31004762Y-40908961D02*
X31004762Y-41442295D01*
X30814286Y-40604200D02*
X30623809Y-41175628D01*
X30623809Y-41175628D02*
X31119048Y-41175628D01*
X36957143Y-41442295D02*
X36957143Y-40642295D01*
X36957143Y-40642295D02*
X37261905Y-40642295D01*
X37261905Y-40642295D02*
X37338095Y-40680390D01*
X37338095Y-40680390D02*
X37376190Y-40718485D01*
X37376190Y-40718485D02*
X37414286Y-40794676D01*
X37414286Y-40794676D02*
X37414286Y-40908961D01*
X37414286Y-40908961D02*
X37376190Y-40985152D01*
X37376190Y-40985152D02*
X37338095Y-41023247D01*
X37338095Y-41023247D02*
X37261905Y-41061342D01*
X37261905Y-41061342D02*
X36957143Y-41061342D01*
X38176190Y-41442295D02*
X37719047Y-41442295D01*
X37947619Y-41442295D02*
X37947619Y-40642295D01*
X37947619Y-40642295D02*
X37871428Y-40756580D01*
X37871428Y-40756580D02*
X37795238Y-40832771D01*
X37795238Y-40832771D02*
X37719047Y-40870866D01*
X38519048Y-41366104D02*
X38557143Y-41404200D01*
X38557143Y-41404200D02*
X38519048Y-41442295D01*
X38519048Y-41442295D02*
X38480952Y-41404200D01*
X38480952Y-41404200D02*
X38519048Y-41366104D01*
X38519048Y-41366104D02*
X38519048Y-41442295D01*
X39319047Y-41442295D02*
X38861904Y-41442295D01*
X39090476Y-41442295D02*
X39090476Y-40642295D01*
X39090476Y-40642295D02*
X39014285Y-40756580D01*
X39014285Y-40756580D02*
X38938095Y-40832771D01*
X38938095Y-40832771D02*
X38861904Y-40870866D01*
X40042857Y-40642295D02*
X39661905Y-40642295D01*
X39661905Y-40642295D02*
X39623809Y-41023247D01*
X39623809Y-41023247D02*
X39661905Y-40985152D01*
X39661905Y-40985152D02*
X39738095Y-40947057D01*
X39738095Y-40947057D02*
X39928571Y-40947057D01*
X39928571Y-40947057D02*
X40004762Y-40985152D01*
X40004762Y-40985152D02*
X40042857Y-41023247D01*
X40042857Y-41023247D02*
X40080952Y-41099438D01*
X40080952Y-41099438D02*
X40080952Y-41289914D01*
X40080952Y-41289914D02*
X40042857Y-41366104D01*
X40042857Y-41366104D02*
X40004762Y-41404200D01*
X40004762Y-41404200D02*
X39928571Y-41442295D01*
X39928571Y-41442295D02*
X39738095Y-41442295D01*
X39738095Y-41442295D02*
X39661905Y-41404200D01*
X39661905Y-41404200D02*
X39623809Y-41366104D01*
X28561904Y-20703247D02*
X28676190Y-20741342D01*
X28676190Y-20741342D02*
X28714285Y-20779438D01*
X28714285Y-20779438D02*
X28752381Y-20855628D01*
X28752381Y-20855628D02*
X28752381Y-20969914D01*
X28752381Y-20969914D02*
X28714285Y-21046104D01*
X28714285Y-21046104D02*
X28676190Y-21084200D01*
X28676190Y-21084200D02*
X28600000Y-21122295D01*
X28600000Y-21122295D02*
X28295238Y-21122295D01*
X28295238Y-21122295D02*
X28295238Y-20322295D01*
X28295238Y-20322295D02*
X28561904Y-20322295D01*
X28561904Y-20322295D02*
X28638095Y-20360390D01*
X28638095Y-20360390D02*
X28676190Y-20398485D01*
X28676190Y-20398485D02*
X28714285Y-20474676D01*
X28714285Y-20474676D02*
X28714285Y-20550866D01*
X28714285Y-20550866D02*
X28676190Y-20627057D01*
X28676190Y-20627057D02*
X28638095Y-20665152D01*
X28638095Y-20665152D02*
X28561904Y-20703247D01*
X28561904Y-20703247D02*
X28295238Y-20703247D01*
X29095238Y-20817533D02*
X29704762Y-20817533D01*
X36957143Y-36362295D02*
X36957143Y-35562295D01*
X36957143Y-35562295D02*
X37261905Y-35562295D01*
X37261905Y-35562295D02*
X37338095Y-35600390D01*
X37338095Y-35600390D02*
X37376190Y-35638485D01*
X37376190Y-35638485D02*
X37414286Y-35714676D01*
X37414286Y-35714676D02*
X37414286Y-35828961D01*
X37414286Y-35828961D02*
X37376190Y-35905152D01*
X37376190Y-35905152D02*
X37338095Y-35943247D01*
X37338095Y-35943247D02*
X37261905Y-35981342D01*
X37261905Y-35981342D02*
X36957143Y-35981342D01*
X37909524Y-35562295D02*
X37985714Y-35562295D01*
X37985714Y-35562295D02*
X38061905Y-35600390D01*
X38061905Y-35600390D02*
X38100000Y-35638485D01*
X38100000Y-35638485D02*
X38138095Y-35714676D01*
X38138095Y-35714676D02*
X38176190Y-35867057D01*
X38176190Y-35867057D02*
X38176190Y-36057533D01*
X38176190Y-36057533D02*
X38138095Y-36209914D01*
X38138095Y-36209914D02*
X38100000Y-36286104D01*
X38100000Y-36286104D02*
X38061905Y-36324200D01*
X38061905Y-36324200D02*
X37985714Y-36362295D01*
X37985714Y-36362295D02*
X37909524Y-36362295D01*
X37909524Y-36362295D02*
X37833333Y-36324200D01*
X37833333Y-36324200D02*
X37795238Y-36286104D01*
X37795238Y-36286104D02*
X37757143Y-36209914D01*
X37757143Y-36209914D02*
X37719047Y-36057533D01*
X37719047Y-36057533D02*
X37719047Y-35867057D01*
X37719047Y-35867057D02*
X37757143Y-35714676D01*
X37757143Y-35714676D02*
X37795238Y-35638485D01*
X37795238Y-35638485D02*
X37833333Y-35600390D01*
X37833333Y-35600390D02*
X37909524Y-35562295D01*
X38519048Y-36286104D02*
X38557143Y-36324200D01*
X38557143Y-36324200D02*
X38519048Y-36362295D01*
X38519048Y-36362295D02*
X38480952Y-36324200D01*
X38480952Y-36324200D02*
X38519048Y-36286104D01*
X38519048Y-36286104D02*
X38519048Y-36362295D01*
X38861904Y-35638485D02*
X38900000Y-35600390D01*
X38900000Y-35600390D02*
X38976190Y-35562295D01*
X38976190Y-35562295D02*
X39166666Y-35562295D01*
X39166666Y-35562295D02*
X39242857Y-35600390D01*
X39242857Y-35600390D02*
X39280952Y-35638485D01*
X39280952Y-35638485D02*
X39319047Y-35714676D01*
X39319047Y-35714676D02*
X39319047Y-35790866D01*
X39319047Y-35790866D02*
X39280952Y-35905152D01*
X39280952Y-35905152D02*
X38823809Y-36362295D01*
X38823809Y-36362295D02*
X39319047Y-36362295D01*
X39700000Y-36362295D02*
X39852381Y-36362295D01*
X39852381Y-36362295D02*
X39928571Y-36324200D01*
X39928571Y-36324200D02*
X39966667Y-36286104D01*
X39966667Y-36286104D02*
X40042857Y-36171819D01*
X40042857Y-36171819D02*
X40080952Y-36019438D01*
X40080952Y-36019438D02*
X40080952Y-35714676D01*
X40080952Y-35714676D02*
X40042857Y-35638485D01*
X40042857Y-35638485D02*
X40004762Y-35600390D01*
X40004762Y-35600390D02*
X39928571Y-35562295D01*
X39928571Y-35562295D02*
X39776190Y-35562295D01*
X39776190Y-35562295D02*
X39700000Y-35600390D01*
X39700000Y-35600390D02*
X39661905Y-35638485D01*
X39661905Y-35638485D02*
X39623809Y-35714676D01*
X39623809Y-35714676D02*
X39623809Y-35905152D01*
X39623809Y-35905152D02*
X39661905Y-35981342D01*
X39661905Y-35981342D02*
X39700000Y-36019438D01*
X39700000Y-36019438D02*
X39776190Y-36057533D01*
X39776190Y-36057533D02*
X39928571Y-36057533D01*
X39928571Y-36057533D02*
X40004762Y-36019438D01*
X40004762Y-36019438D02*
X40042857Y-35981342D01*
X40042857Y-35981342D02*
X40080952Y-35905152D01*
X36957143Y-38902295D02*
X36957143Y-38102295D01*
X36957143Y-38102295D02*
X37261905Y-38102295D01*
X37261905Y-38102295D02*
X37338095Y-38140390D01*
X37338095Y-38140390D02*
X37376190Y-38178485D01*
X37376190Y-38178485D02*
X37414286Y-38254676D01*
X37414286Y-38254676D02*
X37414286Y-38368961D01*
X37414286Y-38368961D02*
X37376190Y-38445152D01*
X37376190Y-38445152D02*
X37338095Y-38483247D01*
X37338095Y-38483247D02*
X37261905Y-38521342D01*
X37261905Y-38521342D02*
X36957143Y-38521342D01*
X37909524Y-38102295D02*
X37985714Y-38102295D01*
X37985714Y-38102295D02*
X38061905Y-38140390D01*
X38061905Y-38140390D02*
X38100000Y-38178485D01*
X38100000Y-38178485D02*
X38138095Y-38254676D01*
X38138095Y-38254676D02*
X38176190Y-38407057D01*
X38176190Y-38407057D02*
X38176190Y-38597533D01*
X38176190Y-38597533D02*
X38138095Y-38749914D01*
X38138095Y-38749914D02*
X38100000Y-38826104D01*
X38100000Y-38826104D02*
X38061905Y-38864200D01*
X38061905Y-38864200D02*
X37985714Y-38902295D01*
X37985714Y-38902295D02*
X37909524Y-38902295D01*
X37909524Y-38902295D02*
X37833333Y-38864200D01*
X37833333Y-38864200D02*
X37795238Y-38826104D01*
X37795238Y-38826104D02*
X37757143Y-38749914D01*
X37757143Y-38749914D02*
X37719047Y-38597533D01*
X37719047Y-38597533D02*
X37719047Y-38407057D01*
X37719047Y-38407057D02*
X37757143Y-38254676D01*
X37757143Y-38254676D02*
X37795238Y-38178485D01*
X37795238Y-38178485D02*
X37833333Y-38140390D01*
X37833333Y-38140390D02*
X37909524Y-38102295D01*
X38519048Y-38826104D02*
X38557143Y-38864200D01*
X38557143Y-38864200D02*
X38519048Y-38902295D01*
X38519048Y-38902295D02*
X38480952Y-38864200D01*
X38480952Y-38864200D02*
X38519048Y-38826104D01*
X38519048Y-38826104D02*
X38519048Y-38902295D01*
X39052381Y-38102295D02*
X39128571Y-38102295D01*
X39128571Y-38102295D02*
X39204762Y-38140390D01*
X39204762Y-38140390D02*
X39242857Y-38178485D01*
X39242857Y-38178485D02*
X39280952Y-38254676D01*
X39280952Y-38254676D02*
X39319047Y-38407057D01*
X39319047Y-38407057D02*
X39319047Y-38597533D01*
X39319047Y-38597533D02*
X39280952Y-38749914D01*
X39280952Y-38749914D02*
X39242857Y-38826104D01*
X39242857Y-38826104D02*
X39204762Y-38864200D01*
X39204762Y-38864200D02*
X39128571Y-38902295D01*
X39128571Y-38902295D02*
X39052381Y-38902295D01*
X39052381Y-38902295D02*
X38976190Y-38864200D01*
X38976190Y-38864200D02*
X38938095Y-38826104D01*
X38938095Y-38826104D02*
X38900000Y-38749914D01*
X38900000Y-38749914D02*
X38861904Y-38597533D01*
X38861904Y-38597533D02*
X38861904Y-38407057D01*
X38861904Y-38407057D02*
X38900000Y-38254676D01*
X38900000Y-38254676D02*
X38938095Y-38178485D01*
X38938095Y-38178485D02*
X38976190Y-38140390D01*
X38976190Y-38140390D02*
X39052381Y-38102295D01*
X39623809Y-38178485D02*
X39661905Y-38140390D01*
X39661905Y-38140390D02*
X39738095Y-38102295D01*
X39738095Y-38102295D02*
X39928571Y-38102295D01*
X39928571Y-38102295D02*
X40004762Y-38140390D01*
X40004762Y-38140390D02*
X40042857Y-38178485D01*
X40042857Y-38178485D02*
X40080952Y-38254676D01*
X40080952Y-38254676D02*
X40080952Y-38330866D01*
X40080952Y-38330866D02*
X40042857Y-38445152D01*
X40042857Y-38445152D02*
X39585714Y-38902295D01*
X39585714Y-38902295D02*
X40080952Y-38902295D01*
X27957143Y-36362295D02*
X27957143Y-35562295D01*
X27957143Y-35562295D02*
X28261905Y-35562295D01*
X28261905Y-35562295D02*
X28338095Y-35600390D01*
X28338095Y-35600390D02*
X28376190Y-35638485D01*
X28376190Y-35638485D02*
X28414286Y-35714676D01*
X28414286Y-35714676D02*
X28414286Y-35828961D01*
X28414286Y-35828961D02*
X28376190Y-35905152D01*
X28376190Y-35905152D02*
X28338095Y-35943247D01*
X28338095Y-35943247D02*
X28261905Y-35981342D01*
X28261905Y-35981342D02*
X27957143Y-35981342D01*
X28909524Y-35562295D02*
X28985714Y-35562295D01*
X28985714Y-35562295D02*
X29061905Y-35600390D01*
X29061905Y-35600390D02*
X29100000Y-35638485D01*
X29100000Y-35638485D02*
X29138095Y-35714676D01*
X29138095Y-35714676D02*
X29176190Y-35867057D01*
X29176190Y-35867057D02*
X29176190Y-36057533D01*
X29176190Y-36057533D02*
X29138095Y-36209914D01*
X29138095Y-36209914D02*
X29100000Y-36286104D01*
X29100000Y-36286104D02*
X29061905Y-36324200D01*
X29061905Y-36324200D02*
X28985714Y-36362295D01*
X28985714Y-36362295D02*
X28909524Y-36362295D01*
X28909524Y-36362295D02*
X28833333Y-36324200D01*
X28833333Y-36324200D02*
X28795238Y-36286104D01*
X28795238Y-36286104D02*
X28757143Y-36209914D01*
X28757143Y-36209914D02*
X28719047Y-36057533D01*
X28719047Y-36057533D02*
X28719047Y-35867057D01*
X28719047Y-35867057D02*
X28757143Y-35714676D01*
X28757143Y-35714676D02*
X28795238Y-35638485D01*
X28795238Y-35638485D02*
X28833333Y-35600390D01*
X28833333Y-35600390D02*
X28909524Y-35562295D01*
X29519048Y-36286104D02*
X29557143Y-36324200D01*
X29557143Y-36324200D02*
X29519048Y-36362295D01*
X29519048Y-36362295D02*
X29480952Y-36324200D01*
X29480952Y-36324200D02*
X29519048Y-36286104D01*
X29519048Y-36286104D02*
X29519048Y-36362295D01*
X29861904Y-35638485D02*
X29900000Y-35600390D01*
X29900000Y-35600390D02*
X29976190Y-35562295D01*
X29976190Y-35562295D02*
X30166666Y-35562295D01*
X30166666Y-35562295D02*
X30242857Y-35600390D01*
X30242857Y-35600390D02*
X30280952Y-35638485D01*
X30280952Y-35638485D02*
X30319047Y-35714676D01*
X30319047Y-35714676D02*
X30319047Y-35790866D01*
X30319047Y-35790866D02*
X30280952Y-35905152D01*
X30280952Y-35905152D02*
X29823809Y-36362295D01*
X29823809Y-36362295D02*
X30319047Y-36362295D01*
X30814286Y-35562295D02*
X30890476Y-35562295D01*
X30890476Y-35562295D02*
X30966667Y-35600390D01*
X30966667Y-35600390D02*
X31004762Y-35638485D01*
X31004762Y-35638485D02*
X31042857Y-35714676D01*
X31042857Y-35714676D02*
X31080952Y-35867057D01*
X31080952Y-35867057D02*
X31080952Y-36057533D01*
X31080952Y-36057533D02*
X31042857Y-36209914D01*
X31042857Y-36209914D02*
X31004762Y-36286104D01*
X31004762Y-36286104D02*
X30966667Y-36324200D01*
X30966667Y-36324200D02*
X30890476Y-36362295D01*
X30890476Y-36362295D02*
X30814286Y-36362295D01*
X30814286Y-36362295D02*
X30738095Y-36324200D01*
X30738095Y-36324200D02*
X30700000Y-36286104D01*
X30700000Y-36286104D02*
X30661905Y-36209914D01*
X30661905Y-36209914D02*
X30623809Y-36057533D01*
X30623809Y-36057533D02*
X30623809Y-35867057D01*
X30623809Y-35867057D02*
X30661905Y-35714676D01*
X30661905Y-35714676D02*
X30700000Y-35638485D01*
X30700000Y-35638485D02*
X30738095Y-35600390D01*
X30738095Y-35600390D02*
X30814286Y-35562295D01*
X28390476Y-30520390D02*
X28314286Y-30482295D01*
X28314286Y-30482295D02*
X28200000Y-30482295D01*
X28200000Y-30482295D02*
X28085714Y-30520390D01*
X28085714Y-30520390D02*
X28009524Y-30596580D01*
X28009524Y-30596580D02*
X27971429Y-30672771D01*
X27971429Y-30672771D02*
X27933333Y-30825152D01*
X27933333Y-30825152D02*
X27933333Y-30939438D01*
X27933333Y-30939438D02*
X27971429Y-31091819D01*
X27971429Y-31091819D02*
X28009524Y-31168009D01*
X28009524Y-31168009D02*
X28085714Y-31244200D01*
X28085714Y-31244200D02*
X28200000Y-31282295D01*
X28200000Y-31282295D02*
X28276191Y-31282295D01*
X28276191Y-31282295D02*
X28390476Y-31244200D01*
X28390476Y-31244200D02*
X28428572Y-31206104D01*
X28428572Y-31206104D02*
X28428572Y-30939438D01*
X28428572Y-30939438D02*
X28276191Y-30939438D01*
X28771429Y-31282295D02*
X28771429Y-30482295D01*
X28771429Y-30482295D02*
X29228572Y-31282295D01*
X29228572Y-31282295D02*
X29228572Y-30482295D01*
X29609524Y-31282295D02*
X29609524Y-30482295D01*
X29609524Y-30482295D02*
X29800000Y-30482295D01*
X29800000Y-30482295D02*
X29914286Y-30520390D01*
X29914286Y-30520390D02*
X29990476Y-30596580D01*
X29990476Y-30596580D02*
X30028571Y-30672771D01*
X30028571Y-30672771D02*
X30066667Y-30825152D01*
X30066667Y-30825152D02*
X30066667Y-30939438D01*
X30066667Y-30939438D02*
X30028571Y-31091819D01*
X30028571Y-31091819D02*
X29990476Y-31168009D01*
X29990476Y-31168009D02*
X29914286Y-31244200D01*
X29914286Y-31244200D02*
X29800000Y-31282295D01*
X29800000Y-31282295D02*
X29609524Y-31282295D01*
X39061904Y-20713247D02*
X39176190Y-20751342D01*
X39176190Y-20751342D02*
X39214285Y-20789438D01*
X39214285Y-20789438D02*
X39252381Y-20865628D01*
X39252381Y-20865628D02*
X39252381Y-20979914D01*
X39252381Y-20979914D02*
X39214285Y-21056104D01*
X39214285Y-21056104D02*
X39176190Y-21094200D01*
X39176190Y-21094200D02*
X39100000Y-21132295D01*
X39100000Y-21132295D02*
X38795238Y-21132295D01*
X38795238Y-21132295D02*
X38795238Y-20332295D01*
X38795238Y-20332295D02*
X39061904Y-20332295D01*
X39061904Y-20332295D02*
X39138095Y-20370390D01*
X39138095Y-20370390D02*
X39176190Y-20408485D01*
X39176190Y-20408485D02*
X39214285Y-20484676D01*
X39214285Y-20484676D02*
X39214285Y-20560866D01*
X39214285Y-20560866D02*
X39176190Y-20637057D01*
X39176190Y-20637057D02*
X39138095Y-20675152D01*
X39138095Y-20675152D02*
X39061904Y-20713247D01*
X39061904Y-20713247D02*
X38795238Y-20713247D01*
X39595238Y-20827533D02*
X40204762Y-20827533D01*
X39900000Y-21132295D02*
X39900000Y-20522771D01*
X36957143Y-46522295D02*
X36957143Y-45722295D01*
X36957143Y-45722295D02*
X37261905Y-45722295D01*
X37261905Y-45722295D02*
X37338095Y-45760390D01*
X37338095Y-45760390D02*
X37376190Y-45798485D01*
X37376190Y-45798485D02*
X37414286Y-45874676D01*
X37414286Y-45874676D02*
X37414286Y-45988961D01*
X37414286Y-45988961D02*
X37376190Y-46065152D01*
X37376190Y-46065152D02*
X37338095Y-46103247D01*
X37338095Y-46103247D02*
X37261905Y-46141342D01*
X37261905Y-46141342D02*
X36957143Y-46141342D01*
X38176190Y-46522295D02*
X37719047Y-46522295D01*
X37947619Y-46522295D02*
X37947619Y-45722295D01*
X37947619Y-45722295D02*
X37871428Y-45836580D01*
X37871428Y-45836580D02*
X37795238Y-45912771D01*
X37795238Y-45912771D02*
X37719047Y-45950866D01*
X38519048Y-46446104D02*
X38557143Y-46484200D01*
X38557143Y-46484200D02*
X38519048Y-46522295D01*
X38519048Y-46522295D02*
X38480952Y-46484200D01*
X38480952Y-46484200D02*
X38519048Y-46446104D01*
X38519048Y-46446104D02*
X38519048Y-46522295D01*
X39319047Y-46522295D02*
X38861904Y-46522295D01*
X39090476Y-46522295D02*
X39090476Y-45722295D01*
X39090476Y-45722295D02*
X39014285Y-45836580D01*
X39014285Y-45836580D02*
X38938095Y-45912771D01*
X38938095Y-45912771D02*
X38861904Y-45950866D01*
X40080952Y-46522295D02*
X39623809Y-46522295D01*
X39852381Y-46522295D02*
X39852381Y-45722295D01*
X39852381Y-45722295D02*
X39776190Y-45836580D01*
X39776190Y-45836580D02*
X39700000Y-45912771D01*
X39700000Y-45912771D02*
X39623809Y-45950866D01*
X39199786Y-28674200D02*
X39314072Y-28712295D01*
X39314072Y-28712295D02*
X39504548Y-28712295D01*
X39504548Y-28712295D02*
X39580739Y-28674200D01*
X39580739Y-28674200D02*
X39618834Y-28636104D01*
X39618834Y-28636104D02*
X39656929Y-28559914D01*
X39656929Y-28559914D02*
X39656929Y-28483723D01*
X39656929Y-28483723D02*
X39618834Y-28407533D01*
X39618834Y-28407533D02*
X39580739Y-28369438D01*
X39580739Y-28369438D02*
X39504548Y-28331342D01*
X39504548Y-28331342D02*
X39352167Y-28293247D01*
X39352167Y-28293247D02*
X39275977Y-28255152D01*
X39275977Y-28255152D02*
X39237882Y-28217057D01*
X39237882Y-28217057D02*
X39199786Y-28140866D01*
X39199786Y-28140866D02*
X39199786Y-28064676D01*
X39199786Y-28064676D02*
X39237882Y-27988485D01*
X39237882Y-27988485D02*
X39275977Y-27950390D01*
X39275977Y-27950390D02*
X39352167Y-27912295D01*
X39352167Y-27912295D02*
X39542644Y-27912295D01*
X39542644Y-27912295D02*
X39656929Y-27950390D01*
X39885501Y-27912295D02*
X40342644Y-27912295D01*
X40114072Y-28712295D02*
X40114072Y-27912295D01*
X36957143Y-43982295D02*
X36957143Y-43182295D01*
X36957143Y-43182295D02*
X37261905Y-43182295D01*
X37261905Y-43182295D02*
X37338095Y-43220390D01*
X37338095Y-43220390D02*
X37376190Y-43258485D01*
X37376190Y-43258485D02*
X37414286Y-43334676D01*
X37414286Y-43334676D02*
X37414286Y-43448961D01*
X37414286Y-43448961D02*
X37376190Y-43525152D01*
X37376190Y-43525152D02*
X37338095Y-43563247D01*
X37338095Y-43563247D02*
X37261905Y-43601342D01*
X37261905Y-43601342D02*
X36957143Y-43601342D01*
X38176190Y-43982295D02*
X37719047Y-43982295D01*
X37947619Y-43982295D02*
X37947619Y-43182295D01*
X37947619Y-43182295D02*
X37871428Y-43296580D01*
X37871428Y-43296580D02*
X37795238Y-43372771D01*
X37795238Y-43372771D02*
X37719047Y-43410866D01*
X38519048Y-43906104D02*
X38557143Y-43944200D01*
X38557143Y-43944200D02*
X38519048Y-43982295D01*
X38519048Y-43982295D02*
X38480952Y-43944200D01*
X38480952Y-43944200D02*
X38519048Y-43906104D01*
X38519048Y-43906104D02*
X38519048Y-43982295D01*
X39319047Y-43982295D02*
X38861904Y-43982295D01*
X39090476Y-43982295D02*
X39090476Y-43182295D01*
X39090476Y-43182295D02*
X39014285Y-43296580D01*
X39014285Y-43296580D02*
X38938095Y-43372771D01*
X38938095Y-43372771D02*
X38861904Y-43410866D01*
X39585714Y-43182295D02*
X40080952Y-43182295D01*
X40080952Y-43182295D02*
X39814286Y-43487057D01*
X39814286Y-43487057D02*
X39928571Y-43487057D01*
X39928571Y-43487057D02*
X40004762Y-43525152D01*
X40004762Y-43525152D02*
X40042857Y-43563247D01*
X40042857Y-43563247D02*
X40080952Y-43639438D01*
X40080952Y-43639438D02*
X40080952Y-43829914D01*
X40080952Y-43829914D02*
X40042857Y-43906104D01*
X40042857Y-43906104D02*
X40004762Y-43944200D01*
X40004762Y-43944200D02*
X39928571Y-43982295D01*
X39928571Y-43982295D02*
X39700000Y-43982295D01*
X39700000Y-43982295D02*
X39623809Y-43944200D01*
X39623809Y-43944200D02*
X39585714Y-43906104D01*
X27957143Y-46522295D02*
X27957143Y-45722295D01*
X27957143Y-45722295D02*
X28261905Y-45722295D01*
X28261905Y-45722295D02*
X28338095Y-45760390D01*
X28338095Y-45760390D02*
X28376190Y-45798485D01*
X28376190Y-45798485D02*
X28414286Y-45874676D01*
X28414286Y-45874676D02*
X28414286Y-45988961D01*
X28414286Y-45988961D02*
X28376190Y-46065152D01*
X28376190Y-46065152D02*
X28338095Y-46103247D01*
X28338095Y-46103247D02*
X28261905Y-46141342D01*
X28261905Y-46141342D02*
X27957143Y-46141342D01*
X28909524Y-45722295D02*
X28985714Y-45722295D01*
X28985714Y-45722295D02*
X29061905Y-45760390D01*
X29061905Y-45760390D02*
X29100000Y-45798485D01*
X29100000Y-45798485D02*
X29138095Y-45874676D01*
X29138095Y-45874676D02*
X29176190Y-46027057D01*
X29176190Y-46027057D02*
X29176190Y-46217533D01*
X29176190Y-46217533D02*
X29138095Y-46369914D01*
X29138095Y-46369914D02*
X29100000Y-46446104D01*
X29100000Y-46446104D02*
X29061905Y-46484200D01*
X29061905Y-46484200D02*
X28985714Y-46522295D01*
X28985714Y-46522295D02*
X28909524Y-46522295D01*
X28909524Y-46522295D02*
X28833333Y-46484200D01*
X28833333Y-46484200D02*
X28795238Y-46446104D01*
X28795238Y-46446104D02*
X28757143Y-46369914D01*
X28757143Y-46369914D02*
X28719047Y-46217533D01*
X28719047Y-46217533D02*
X28719047Y-46027057D01*
X28719047Y-46027057D02*
X28757143Y-45874676D01*
X28757143Y-45874676D02*
X28795238Y-45798485D01*
X28795238Y-45798485D02*
X28833333Y-45760390D01*
X28833333Y-45760390D02*
X28909524Y-45722295D01*
X29519048Y-46446104D02*
X29557143Y-46484200D01*
X29557143Y-46484200D02*
X29519048Y-46522295D01*
X29519048Y-46522295D02*
X29480952Y-46484200D01*
X29480952Y-46484200D02*
X29519048Y-46446104D01*
X29519048Y-46446104D02*
X29519048Y-46522295D01*
X30319047Y-46522295D02*
X29861904Y-46522295D01*
X30090476Y-46522295D02*
X30090476Y-45722295D01*
X30090476Y-45722295D02*
X30014285Y-45836580D01*
X30014285Y-45836580D02*
X29938095Y-45912771D01*
X29938095Y-45912771D02*
X29861904Y-45950866D01*
X31080952Y-46522295D02*
X30623809Y-46522295D01*
X30852381Y-46522295D02*
X30852381Y-45722295D01*
X30852381Y-45722295D02*
X30776190Y-45836580D01*
X30776190Y-45836580D02*
X30700000Y-45912771D01*
X30700000Y-45912771D02*
X30623809Y-45950866D01*
X27957143Y-26202295D02*
X27957143Y-25402295D01*
X27957143Y-25402295D02*
X28261905Y-25402295D01*
X28261905Y-25402295D02*
X28338095Y-25440390D01*
X28338095Y-25440390D02*
X28376190Y-25478485D01*
X28376190Y-25478485D02*
X28414286Y-25554676D01*
X28414286Y-25554676D02*
X28414286Y-25668961D01*
X28414286Y-25668961D02*
X28376190Y-25745152D01*
X28376190Y-25745152D02*
X28338095Y-25783247D01*
X28338095Y-25783247D02*
X28261905Y-25821342D01*
X28261905Y-25821342D02*
X27957143Y-25821342D01*
X28909524Y-25402295D02*
X28985714Y-25402295D01*
X28985714Y-25402295D02*
X29061905Y-25440390D01*
X29061905Y-25440390D02*
X29100000Y-25478485D01*
X29100000Y-25478485D02*
X29138095Y-25554676D01*
X29138095Y-25554676D02*
X29176190Y-25707057D01*
X29176190Y-25707057D02*
X29176190Y-25897533D01*
X29176190Y-25897533D02*
X29138095Y-26049914D01*
X29138095Y-26049914D02*
X29100000Y-26126104D01*
X29100000Y-26126104D02*
X29061905Y-26164200D01*
X29061905Y-26164200D02*
X28985714Y-26202295D01*
X28985714Y-26202295D02*
X28909524Y-26202295D01*
X28909524Y-26202295D02*
X28833333Y-26164200D01*
X28833333Y-26164200D02*
X28795238Y-26126104D01*
X28795238Y-26126104D02*
X28757143Y-26049914D01*
X28757143Y-26049914D02*
X28719047Y-25897533D01*
X28719047Y-25897533D02*
X28719047Y-25707057D01*
X28719047Y-25707057D02*
X28757143Y-25554676D01*
X28757143Y-25554676D02*
X28795238Y-25478485D01*
X28795238Y-25478485D02*
X28833333Y-25440390D01*
X28833333Y-25440390D02*
X28909524Y-25402295D01*
X29519048Y-26126104D02*
X29557143Y-26164200D01*
X29557143Y-26164200D02*
X29519048Y-26202295D01*
X29519048Y-26202295D02*
X29480952Y-26164200D01*
X29480952Y-26164200D02*
X29519048Y-26126104D01*
X29519048Y-26126104D02*
X29519048Y-26202295D01*
X30052381Y-25402295D02*
X30128571Y-25402295D01*
X30128571Y-25402295D02*
X30204762Y-25440390D01*
X30204762Y-25440390D02*
X30242857Y-25478485D01*
X30242857Y-25478485D02*
X30280952Y-25554676D01*
X30280952Y-25554676D02*
X30319047Y-25707057D01*
X30319047Y-25707057D02*
X30319047Y-25897533D01*
X30319047Y-25897533D02*
X30280952Y-26049914D01*
X30280952Y-26049914D02*
X30242857Y-26126104D01*
X30242857Y-26126104D02*
X30204762Y-26164200D01*
X30204762Y-26164200D02*
X30128571Y-26202295D01*
X30128571Y-26202295D02*
X30052381Y-26202295D01*
X30052381Y-26202295D02*
X29976190Y-26164200D01*
X29976190Y-26164200D02*
X29938095Y-26126104D01*
X29938095Y-26126104D02*
X29900000Y-26049914D01*
X29900000Y-26049914D02*
X29861904Y-25897533D01*
X29861904Y-25897533D02*
X29861904Y-25707057D01*
X29861904Y-25707057D02*
X29900000Y-25554676D01*
X29900000Y-25554676D02*
X29938095Y-25478485D01*
X29938095Y-25478485D02*
X29976190Y-25440390D01*
X29976190Y-25440390D02*
X30052381Y-25402295D01*
X30776190Y-25745152D02*
X30700000Y-25707057D01*
X30700000Y-25707057D02*
X30661905Y-25668961D01*
X30661905Y-25668961D02*
X30623809Y-25592771D01*
X30623809Y-25592771D02*
X30623809Y-25554676D01*
X30623809Y-25554676D02*
X30661905Y-25478485D01*
X30661905Y-25478485D02*
X30700000Y-25440390D01*
X30700000Y-25440390D02*
X30776190Y-25402295D01*
X30776190Y-25402295D02*
X30928571Y-25402295D01*
X30928571Y-25402295D02*
X31004762Y-25440390D01*
X31004762Y-25440390D02*
X31042857Y-25478485D01*
X31042857Y-25478485D02*
X31080952Y-25554676D01*
X31080952Y-25554676D02*
X31080952Y-25592771D01*
X31080952Y-25592771D02*
X31042857Y-25668961D01*
X31042857Y-25668961D02*
X31004762Y-25707057D01*
X31004762Y-25707057D02*
X30928571Y-25745152D01*
X30928571Y-25745152D02*
X30776190Y-25745152D01*
X30776190Y-25745152D02*
X30700000Y-25783247D01*
X30700000Y-25783247D02*
X30661905Y-25821342D01*
X30661905Y-25821342D02*
X30623809Y-25897533D01*
X30623809Y-25897533D02*
X30623809Y-26049914D01*
X30623809Y-26049914D02*
X30661905Y-26126104D01*
X30661905Y-26126104D02*
X30700000Y-26164200D01*
X30700000Y-26164200D02*
X30776190Y-26202295D01*
X30776190Y-26202295D02*
X30928571Y-26202295D01*
X30928571Y-26202295D02*
X31004762Y-26164200D01*
X31004762Y-26164200D02*
X31042857Y-26126104D01*
X31042857Y-26126104D02*
X31080952Y-26049914D01*
X31080952Y-26049914D02*
X31080952Y-25897533D01*
X31080952Y-25897533D02*
X31042857Y-25821342D01*
X31042857Y-25821342D02*
X31004762Y-25783247D01*
X31004762Y-25783247D02*
X30928571Y-25745152D01*
X27957143Y-51602295D02*
X27957143Y-50802295D01*
X27957143Y-50802295D02*
X28261905Y-50802295D01*
X28261905Y-50802295D02*
X28338095Y-50840390D01*
X28338095Y-50840390D02*
X28376190Y-50878485D01*
X28376190Y-50878485D02*
X28414286Y-50954676D01*
X28414286Y-50954676D02*
X28414286Y-51068961D01*
X28414286Y-51068961D02*
X28376190Y-51145152D01*
X28376190Y-51145152D02*
X28338095Y-51183247D01*
X28338095Y-51183247D02*
X28261905Y-51221342D01*
X28261905Y-51221342D02*
X27957143Y-51221342D01*
X29176190Y-51602295D02*
X28719047Y-51602295D01*
X28947619Y-51602295D02*
X28947619Y-50802295D01*
X28947619Y-50802295D02*
X28871428Y-50916580D01*
X28871428Y-50916580D02*
X28795238Y-50992771D01*
X28795238Y-50992771D02*
X28719047Y-51030866D01*
X29519048Y-51526104D02*
X29557143Y-51564200D01*
X29557143Y-51564200D02*
X29519048Y-51602295D01*
X29519048Y-51602295D02*
X29480952Y-51564200D01*
X29480952Y-51564200D02*
X29519048Y-51526104D01*
X29519048Y-51526104D02*
X29519048Y-51602295D01*
X30052381Y-50802295D02*
X30128571Y-50802295D01*
X30128571Y-50802295D02*
X30204762Y-50840390D01*
X30204762Y-50840390D02*
X30242857Y-50878485D01*
X30242857Y-50878485D02*
X30280952Y-50954676D01*
X30280952Y-50954676D02*
X30319047Y-51107057D01*
X30319047Y-51107057D02*
X30319047Y-51297533D01*
X30319047Y-51297533D02*
X30280952Y-51449914D01*
X30280952Y-51449914D02*
X30242857Y-51526104D01*
X30242857Y-51526104D02*
X30204762Y-51564200D01*
X30204762Y-51564200D02*
X30128571Y-51602295D01*
X30128571Y-51602295D02*
X30052381Y-51602295D01*
X30052381Y-51602295D02*
X29976190Y-51564200D01*
X29976190Y-51564200D02*
X29938095Y-51526104D01*
X29938095Y-51526104D02*
X29900000Y-51449914D01*
X29900000Y-51449914D02*
X29861904Y-51297533D01*
X29861904Y-51297533D02*
X29861904Y-51107057D01*
X29861904Y-51107057D02*
X29900000Y-50954676D01*
X29900000Y-50954676D02*
X29938095Y-50878485D01*
X29938095Y-50878485D02*
X29976190Y-50840390D01*
X29976190Y-50840390D02*
X30052381Y-50802295D01*
X31004762Y-50802295D02*
X30852381Y-50802295D01*
X30852381Y-50802295D02*
X30776190Y-50840390D01*
X30776190Y-50840390D02*
X30738095Y-50878485D01*
X30738095Y-50878485D02*
X30661905Y-50992771D01*
X30661905Y-50992771D02*
X30623809Y-51145152D01*
X30623809Y-51145152D02*
X30623809Y-51449914D01*
X30623809Y-51449914D02*
X30661905Y-51526104D01*
X30661905Y-51526104D02*
X30700000Y-51564200D01*
X30700000Y-51564200D02*
X30776190Y-51602295D01*
X30776190Y-51602295D02*
X30928571Y-51602295D01*
X30928571Y-51602295D02*
X31004762Y-51564200D01*
X31004762Y-51564200D02*
X31042857Y-51526104D01*
X31042857Y-51526104D02*
X31080952Y-51449914D01*
X31080952Y-51449914D02*
X31080952Y-51259438D01*
X31080952Y-51259438D02*
X31042857Y-51183247D01*
X31042857Y-51183247D02*
X31004762Y-51145152D01*
X31004762Y-51145152D02*
X30928571Y-51107057D01*
X30928571Y-51107057D02*
X30776190Y-51107057D01*
X30776190Y-51107057D02*
X30700000Y-51145152D01*
X30700000Y-51145152D02*
X30661905Y-51183247D01*
X30661905Y-51183247D02*
X30623809Y-51259438D01*
X38394333Y-30482295D02*
X38661000Y-31282295D01*
X38661000Y-31282295D02*
X38927666Y-30482295D01*
X39651476Y-31206104D02*
X39613380Y-31244200D01*
X39613380Y-31244200D02*
X39499095Y-31282295D01*
X39499095Y-31282295D02*
X39422904Y-31282295D01*
X39422904Y-31282295D02*
X39308618Y-31244200D01*
X39308618Y-31244200D02*
X39232428Y-31168009D01*
X39232428Y-31168009D02*
X39194333Y-31091819D01*
X39194333Y-31091819D02*
X39156237Y-30939438D01*
X39156237Y-30939438D02*
X39156237Y-30825152D01*
X39156237Y-30825152D02*
X39194333Y-30672771D01*
X39194333Y-30672771D02*
X39232428Y-30596580D01*
X39232428Y-30596580D02*
X39308618Y-30520390D01*
X39308618Y-30520390D02*
X39422904Y-30482295D01*
X39422904Y-30482295D02*
X39499095Y-30482295D01*
X39499095Y-30482295D02*
X39613380Y-30520390D01*
X39613380Y-30520390D02*
X39651476Y-30558485D01*
X40451476Y-31206104D02*
X40413380Y-31244200D01*
X40413380Y-31244200D02*
X40299095Y-31282295D01*
X40299095Y-31282295D02*
X40222904Y-31282295D01*
X40222904Y-31282295D02*
X40108618Y-31244200D01*
X40108618Y-31244200D02*
X40032428Y-31168009D01*
X40032428Y-31168009D02*
X39994333Y-31091819D01*
X39994333Y-31091819D02*
X39956237Y-30939438D01*
X39956237Y-30939438D02*
X39956237Y-30825152D01*
X39956237Y-30825152D02*
X39994333Y-30672771D01*
X39994333Y-30672771D02*
X40032428Y-30596580D01*
X40032428Y-30596580D02*
X40108618Y-30520390D01*
X40108618Y-30520390D02*
X40222904Y-30482295D01*
X40222904Y-30482295D02*
X40299095Y-30482295D01*
X40299095Y-30482295D02*
X40413380Y-30520390D01*
X40413380Y-30520390D02*
X40451476Y-30558485D01*
X27957143Y-50132295D02*
X27957143Y-49332295D01*
X27957143Y-49332295D02*
X28261905Y-49332295D01*
X28261905Y-49332295D02*
X28338095Y-49370390D01*
X28338095Y-49370390D02*
X28376190Y-49408485D01*
X28376190Y-49408485D02*
X28414286Y-49484676D01*
X28414286Y-49484676D02*
X28414286Y-49598961D01*
X28414286Y-49598961D02*
X28376190Y-49675152D01*
X28376190Y-49675152D02*
X28338095Y-49713247D01*
X28338095Y-49713247D02*
X28261905Y-49751342D01*
X28261905Y-49751342D02*
X27957143Y-49751342D01*
X29176190Y-50132295D02*
X28719047Y-50132295D01*
X28947619Y-50132295D02*
X28947619Y-49332295D01*
X28947619Y-49332295D02*
X28871428Y-49446580D01*
X28871428Y-49446580D02*
X28795238Y-49522771D01*
X28795238Y-49522771D02*
X28719047Y-49560866D01*
X29519048Y-50056104D02*
X29557143Y-50094200D01*
X29557143Y-50094200D02*
X29519048Y-50132295D01*
X29519048Y-50132295D02*
X29480952Y-50094200D01*
X29480952Y-50094200D02*
X29519048Y-50056104D01*
X29519048Y-50056104D02*
X29519048Y-50132295D01*
X30052381Y-49332295D02*
X30128571Y-49332295D01*
X30128571Y-49332295D02*
X30204762Y-49370390D01*
X30204762Y-49370390D02*
X30242857Y-49408485D01*
X30242857Y-49408485D02*
X30280952Y-49484676D01*
X30280952Y-49484676D02*
X30319047Y-49637057D01*
X30319047Y-49637057D02*
X30319047Y-49827533D01*
X30319047Y-49827533D02*
X30280952Y-49979914D01*
X30280952Y-49979914D02*
X30242857Y-50056104D01*
X30242857Y-50056104D02*
X30204762Y-50094200D01*
X30204762Y-50094200D02*
X30128571Y-50132295D01*
X30128571Y-50132295D02*
X30052381Y-50132295D01*
X30052381Y-50132295D02*
X29976190Y-50094200D01*
X29976190Y-50094200D02*
X29938095Y-50056104D01*
X29938095Y-50056104D02*
X29900000Y-49979914D01*
X29900000Y-49979914D02*
X29861904Y-49827533D01*
X29861904Y-49827533D02*
X29861904Y-49637057D01*
X29861904Y-49637057D02*
X29900000Y-49484676D01*
X29900000Y-49484676D02*
X29938095Y-49408485D01*
X29938095Y-49408485D02*
X29976190Y-49370390D01*
X29976190Y-49370390D02*
X30052381Y-49332295D01*
X31004762Y-49598961D02*
X31004762Y-50132295D01*
X30814286Y-49294200D02*
X30623809Y-49865628D01*
X30623809Y-49865628D02*
X31119048Y-49865628D01*
X36957143Y-51602295D02*
X36957143Y-50802295D01*
X36957143Y-50802295D02*
X37261905Y-50802295D01*
X37261905Y-50802295D02*
X37338095Y-50840390D01*
X37338095Y-50840390D02*
X37376190Y-50878485D01*
X37376190Y-50878485D02*
X37414286Y-50954676D01*
X37414286Y-50954676D02*
X37414286Y-51068961D01*
X37414286Y-51068961D02*
X37376190Y-51145152D01*
X37376190Y-51145152D02*
X37338095Y-51183247D01*
X37338095Y-51183247D02*
X37261905Y-51221342D01*
X37261905Y-51221342D02*
X36957143Y-51221342D01*
X37909524Y-50802295D02*
X37985714Y-50802295D01*
X37985714Y-50802295D02*
X38061905Y-50840390D01*
X38061905Y-50840390D02*
X38100000Y-50878485D01*
X38100000Y-50878485D02*
X38138095Y-50954676D01*
X38138095Y-50954676D02*
X38176190Y-51107057D01*
X38176190Y-51107057D02*
X38176190Y-51297533D01*
X38176190Y-51297533D02*
X38138095Y-51449914D01*
X38138095Y-51449914D02*
X38100000Y-51526104D01*
X38100000Y-51526104D02*
X38061905Y-51564200D01*
X38061905Y-51564200D02*
X37985714Y-51602295D01*
X37985714Y-51602295D02*
X37909524Y-51602295D01*
X37909524Y-51602295D02*
X37833333Y-51564200D01*
X37833333Y-51564200D02*
X37795238Y-51526104D01*
X37795238Y-51526104D02*
X37757143Y-51449914D01*
X37757143Y-51449914D02*
X37719047Y-51297533D01*
X37719047Y-51297533D02*
X37719047Y-51107057D01*
X37719047Y-51107057D02*
X37757143Y-50954676D01*
X37757143Y-50954676D02*
X37795238Y-50878485D01*
X37795238Y-50878485D02*
X37833333Y-50840390D01*
X37833333Y-50840390D02*
X37909524Y-50802295D01*
X38519048Y-51526104D02*
X38557143Y-51564200D01*
X38557143Y-51564200D02*
X38519048Y-51602295D01*
X38519048Y-51602295D02*
X38480952Y-51564200D01*
X38480952Y-51564200D02*
X38519048Y-51526104D01*
X38519048Y-51526104D02*
X38519048Y-51602295D01*
X39052381Y-50802295D02*
X39128571Y-50802295D01*
X39128571Y-50802295D02*
X39204762Y-50840390D01*
X39204762Y-50840390D02*
X39242857Y-50878485D01*
X39242857Y-50878485D02*
X39280952Y-50954676D01*
X39280952Y-50954676D02*
X39319047Y-51107057D01*
X39319047Y-51107057D02*
X39319047Y-51297533D01*
X39319047Y-51297533D02*
X39280952Y-51449914D01*
X39280952Y-51449914D02*
X39242857Y-51526104D01*
X39242857Y-51526104D02*
X39204762Y-51564200D01*
X39204762Y-51564200D02*
X39128571Y-51602295D01*
X39128571Y-51602295D02*
X39052381Y-51602295D01*
X39052381Y-51602295D02*
X38976190Y-51564200D01*
X38976190Y-51564200D02*
X38938095Y-51526104D01*
X38938095Y-51526104D02*
X38900000Y-51449914D01*
X38900000Y-51449914D02*
X38861904Y-51297533D01*
X38861904Y-51297533D02*
X38861904Y-51107057D01*
X38861904Y-51107057D02*
X38900000Y-50954676D01*
X38900000Y-50954676D02*
X38938095Y-50878485D01*
X38938095Y-50878485D02*
X38976190Y-50840390D01*
X38976190Y-50840390D02*
X39052381Y-50802295D01*
X39700000Y-51602295D02*
X39852381Y-51602295D01*
X39852381Y-51602295D02*
X39928571Y-51564200D01*
X39928571Y-51564200D02*
X39966667Y-51526104D01*
X39966667Y-51526104D02*
X40042857Y-51411819D01*
X40042857Y-51411819D02*
X40080952Y-51259438D01*
X40080952Y-51259438D02*
X40080952Y-50954676D01*
X40080952Y-50954676D02*
X40042857Y-50878485D01*
X40042857Y-50878485D02*
X40004762Y-50840390D01*
X40004762Y-50840390D02*
X39928571Y-50802295D01*
X39928571Y-50802295D02*
X39776190Y-50802295D01*
X39776190Y-50802295D02*
X39700000Y-50840390D01*
X39700000Y-50840390D02*
X39661905Y-50878485D01*
X39661905Y-50878485D02*
X39623809Y-50954676D01*
X39623809Y-50954676D02*
X39623809Y-51145152D01*
X39623809Y-51145152D02*
X39661905Y-51221342D01*
X39661905Y-51221342D02*
X39700000Y-51259438D01*
X39700000Y-51259438D02*
X39776190Y-51297533D01*
X39776190Y-51297533D02*
X39928571Y-51297533D01*
X39928571Y-51297533D02*
X40004762Y-51259438D01*
X40004762Y-51259438D02*
X40042857Y-51221342D01*
X40042857Y-51221342D02*
X40080952Y-51145152D01*
X27957143Y-43982295D02*
X27957143Y-43182295D01*
X27957143Y-43182295D02*
X28261905Y-43182295D01*
X28261905Y-43182295D02*
X28338095Y-43220390D01*
X28338095Y-43220390D02*
X28376190Y-43258485D01*
X28376190Y-43258485D02*
X28414286Y-43334676D01*
X28414286Y-43334676D02*
X28414286Y-43448961D01*
X28414286Y-43448961D02*
X28376190Y-43525152D01*
X28376190Y-43525152D02*
X28338095Y-43563247D01*
X28338095Y-43563247D02*
X28261905Y-43601342D01*
X28261905Y-43601342D02*
X27957143Y-43601342D01*
X29176190Y-43982295D02*
X28719047Y-43982295D01*
X28947619Y-43982295D02*
X28947619Y-43182295D01*
X28947619Y-43182295D02*
X28871428Y-43296580D01*
X28871428Y-43296580D02*
X28795238Y-43372771D01*
X28795238Y-43372771D02*
X28719047Y-43410866D01*
X29519048Y-43906104D02*
X29557143Y-43944200D01*
X29557143Y-43944200D02*
X29519048Y-43982295D01*
X29519048Y-43982295D02*
X29480952Y-43944200D01*
X29480952Y-43944200D02*
X29519048Y-43906104D01*
X29519048Y-43906104D02*
X29519048Y-43982295D01*
X30052381Y-43182295D02*
X30128571Y-43182295D01*
X30128571Y-43182295D02*
X30204762Y-43220390D01*
X30204762Y-43220390D02*
X30242857Y-43258485D01*
X30242857Y-43258485D02*
X30280952Y-43334676D01*
X30280952Y-43334676D02*
X30319047Y-43487057D01*
X30319047Y-43487057D02*
X30319047Y-43677533D01*
X30319047Y-43677533D02*
X30280952Y-43829914D01*
X30280952Y-43829914D02*
X30242857Y-43906104D01*
X30242857Y-43906104D02*
X30204762Y-43944200D01*
X30204762Y-43944200D02*
X30128571Y-43982295D01*
X30128571Y-43982295D02*
X30052381Y-43982295D01*
X30052381Y-43982295D02*
X29976190Y-43944200D01*
X29976190Y-43944200D02*
X29938095Y-43906104D01*
X29938095Y-43906104D02*
X29900000Y-43829914D01*
X29900000Y-43829914D02*
X29861904Y-43677533D01*
X29861904Y-43677533D02*
X29861904Y-43487057D01*
X29861904Y-43487057D02*
X29900000Y-43334676D01*
X29900000Y-43334676D02*
X29938095Y-43258485D01*
X29938095Y-43258485D02*
X29976190Y-43220390D01*
X29976190Y-43220390D02*
X30052381Y-43182295D01*
X30814286Y-43182295D02*
X30890476Y-43182295D01*
X30890476Y-43182295D02*
X30966667Y-43220390D01*
X30966667Y-43220390D02*
X31004762Y-43258485D01*
X31004762Y-43258485D02*
X31042857Y-43334676D01*
X31042857Y-43334676D02*
X31080952Y-43487057D01*
X31080952Y-43487057D02*
X31080952Y-43677533D01*
X31080952Y-43677533D02*
X31042857Y-43829914D01*
X31042857Y-43829914D02*
X31004762Y-43906104D01*
X31004762Y-43906104D02*
X30966667Y-43944200D01*
X30966667Y-43944200D02*
X30890476Y-43982295D01*
X30890476Y-43982295D02*
X30814286Y-43982295D01*
X30814286Y-43982295D02*
X30738095Y-43944200D01*
X30738095Y-43944200D02*
X30700000Y-43906104D01*
X30700000Y-43906104D02*
X30661905Y-43829914D01*
X30661905Y-43829914D02*
X30623809Y-43677533D01*
X30623809Y-43677533D02*
X30623809Y-43487057D01*
X30623809Y-43487057D02*
X30661905Y-43334676D01*
X30661905Y-43334676D02*
X30700000Y-43258485D01*
X30700000Y-43258485D02*
X30738095Y-43220390D01*
X30738095Y-43220390D02*
X30814286Y-43182295D01*
X38908619Y-23662295D02*
X38641952Y-23281342D01*
X38451476Y-23662295D02*
X38451476Y-22862295D01*
X38451476Y-22862295D02*
X38756238Y-22862295D01*
X38756238Y-22862295D02*
X38832428Y-22900390D01*
X38832428Y-22900390D02*
X38870523Y-22938485D01*
X38870523Y-22938485D02*
X38908619Y-23014676D01*
X38908619Y-23014676D02*
X38908619Y-23128961D01*
X38908619Y-23128961D02*
X38870523Y-23205152D01*
X38870523Y-23205152D02*
X38832428Y-23243247D01*
X38832428Y-23243247D02*
X38756238Y-23281342D01*
X38756238Y-23281342D02*
X38451476Y-23281342D01*
X39213380Y-23433723D02*
X39594333Y-23433723D01*
X39137190Y-23662295D02*
X39403857Y-22862295D01*
X39403857Y-22862295D02*
X39670523Y-23662295D01*
X39860999Y-22862295D02*
X40051475Y-23662295D01*
X40051475Y-23662295D02*
X40203856Y-23090866D01*
X40203856Y-23090866D02*
X40356237Y-23662295D01*
X40356237Y-23662295D02*
X40546714Y-22862295D01*
X28390476Y-27980390D02*
X28314286Y-27942295D01*
X28314286Y-27942295D02*
X28200000Y-27942295D01*
X28200000Y-27942295D02*
X28085714Y-27980390D01*
X28085714Y-27980390D02*
X28009524Y-28056580D01*
X28009524Y-28056580D02*
X27971429Y-28132771D01*
X27971429Y-28132771D02*
X27933333Y-28285152D01*
X27933333Y-28285152D02*
X27933333Y-28399438D01*
X27933333Y-28399438D02*
X27971429Y-28551819D01*
X27971429Y-28551819D02*
X28009524Y-28628009D01*
X28009524Y-28628009D02*
X28085714Y-28704200D01*
X28085714Y-28704200D02*
X28200000Y-28742295D01*
X28200000Y-28742295D02*
X28276191Y-28742295D01*
X28276191Y-28742295D02*
X28390476Y-28704200D01*
X28390476Y-28704200D02*
X28428572Y-28666104D01*
X28428572Y-28666104D02*
X28428572Y-28399438D01*
X28428572Y-28399438D02*
X28276191Y-28399438D01*
X28771429Y-28742295D02*
X28771429Y-27942295D01*
X28771429Y-27942295D02*
X29228572Y-28742295D01*
X29228572Y-28742295D02*
X29228572Y-27942295D01*
X29609524Y-28742295D02*
X29609524Y-27942295D01*
X29609524Y-27942295D02*
X29800000Y-27942295D01*
X29800000Y-27942295D02*
X29914286Y-27980390D01*
X29914286Y-27980390D02*
X29990476Y-28056580D01*
X29990476Y-28056580D02*
X30028571Y-28132771D01*
X30028571Y-28132771D02*
X30066667Y-28285152D01*
X30066667Y-28285152D02*
X30066667Y-28399438D01*
X30066667Y-28399438D02*
X30028571Y-28551819D01*
X30028571Y-28551819D02*
X29990476Y-28628009D01*
X29990476Y-28628009D02*
X29914286Y-28704200D01*
X29914286Y-28704200D02*
X29800000Y-28742295D01*
X29800000Y-28742295D02*
X29609524Y-28742295D01*
X36957143Y-49062295D02*
X36957143Y-48262295D01*
X36957143Y-48262295D02*
X37261905Y-48262295D01*
X37261905Y-48262295D02*
X37338095Y-48300390D01*
X37338095Y-48300390D02*
X37376190Y-48338485D01*
X37376190Y-48338485D02*
X37414286Y-48414676D01*
X37414286Y-48414676D02*
X37414286Y-48528961D01*
X37414286Y-48528961D02*
X37376190Y-48605152D01*
X37376190Y-48605152D02*
X37338095Y-48643247D01*
X37338095Y-48643247D02*
X37261905Y-48681342D01*
X37261905Y-48681342D02*
X36957143Y-48681342D01*
X37909524Y-48262295D02*
X37985714Y-48262295D01*
X37985714Y-48262295D02*
X38061905Y-48300390D01*
X38061905Y-48300390D02*
X38100000Y-48338485D01*
X38100000Y-48338485D02*
X38138095Y-48414676D01*
X38138095Y-48414676D02*
X38176190Y-48567057D01*
X38176190Y-48567057D02*
X38176190Y-48757533D01*
X38176190Y-48757533D02*
X38138095Y-48909914D01*
X38138095Y-48909914D02*
X38100000Y-48986104D01*
X38100000Y-48986104D02*
X38061905Y-49024200D01*
X38061905Y-49024200D02*
X37985714Y-49062295D01*
X37985714Y-49062295D02*
X37909524Y-49062295D01*
X37909524Y-49062295D02*
X37833333Y-49024200D01*
X37833333Y-49024200D02*
X37795238Y-48986104D01*
X37795238Y-48986104D02*
X37757143Y-48909914D01*
X37757143Y-48909914D02*
X37719047Y-48757533D01*
X37719047Y-48757533D02*
X37719047Y-48567057D01*
X37719047Y-48567057D02*
X37757143Y-48414676D01*
X37757143Y-48414676D02*
X37795238Y-48338485D01*
X37795238Y-48338485D02*
X37833333Y-48300390D01*
X37833333Y-48300390D02*
X37909524Y-48262295D01*
X38519048Y-48986104D02*
X38557143Y-49024200D01*
X38557143Y-49024200D02*
X38519048Y-49062295D01*
X38519048Y-49062295D02*
X38480952Y-49024200D01*
X38480952Y-49024200D02*
X38519048Y-48986104D01*
X38519048Y-48986104D02*
X38519048Y-49062295D01*
X39319047Y-49062295D02*
X38861904Y-49062295D01*
X39090476Y-49062295D02*
X39090476Y-48262295D01*
X39090476Y-48262295D02*
X39014285Y-48376580D01*
X39014285Y-48376580D02*
X38938095Y-48452771D01*
X38938095Y-48452771D02*
X38861904Y-48490866D01*
X39814286Y-48262295D02*
X39890476Y-48262295D01*
X39890476Y-48262295D02*
X39966667Y-48300390D01*
X39966667Y-48300390D02*
X40004762Y-48338485D01*
X40004762Y-48338485D02*
X40042857Y-48414676D01*
X40042857Y-48414676D02*
X40080952Y-48567057D01*
X40080952Y-48567057D02*
X40080952Y-48757533D01*
X40080952Y-48757533D02*
X40042857Y-48909914D01*
X40042857Y-48909914D02*
X40004762Y-48986104D01*
X40004762Y-48986104D02*
X39966667Y-49024200D01*
X39966667Y-49024200D02*
X39890476Y-49062295D01*
X39890476Y-49062295D02*
X39814286Y-49062295D01*
X39814286Y-49062295D02*
X39738095Y-49024200D01*
X39738095Y-49024200D02*
X39700000Y-48986104D01*
X39700000Y-48986104D02*
X39661905Y-48909914D01*
X39661905Y-48909914D02*
X39623809Y-48757533D01*
X39623809Y-48757533D02*
X39623809Y-48567057D01*
X39623809Y-48567057D02*
X39661905Y-48414676D01*
X39661905Y-48414676D02*
X39700000Y-48338485D01*
X39700000Y-48338485D02*
X39738095Y-48300390D01*
X39738095Y-48300390D02*
X39814286Y-48262295D01*
X43437295Y-69276190D02*
X42637295Y-69276190D01*
X42637295Y-69276190D02*
X42637295Y-69085714D01*
X42637295Y-69085714D02*
X42675390Y-68971428D01*
X42675390Y-68971428D02*
X42751580Y-68895238D01*
X42751580Y-68895238D02*
X42827771Y-68857143D01*
X42827771Y-68857143D02*
X42980152Y-68819047D01*
X42980152Y-68819047D02*
X43094438Y-68819047D01*
X43094438Y-68819047D02*
X43246819Y-68857143D01*
X43246819Y-68857143D02*
X43323009Y-68895238D01*
X43323009Y-68895238D02*
X43399200Y-68971428D01*
X43399200Y-68971428D02*
X43437295Y-69085714D01*
X43437295Y-69085714D02*
X43437295Y-69276190D01*
X43513485Y-68666667D02*
X43513485Y-68057143D01*
X42637295Y-67485714D02*
X42637295Y-67866666D01*
X42637295Y-67866666D02*
X43018247Y-67904762D01*
X43018247Y-67904762D02*
X42980152Y-67866666D01*
X42980152Y-67866666D02*
X42942057Y-67790476D01*
X42942057Y-67790476D02*
X42942057Y-67600000D01*
X42942057Y-67600000D02*
X42980152Y-67523809D01*
X42980152Y-67523809D02*
X43018247Y-67485714D01*
X43018247Y-67485714D02*
X43094438Y-67447619D01*
X43094438Y-67447619D02*
X43284914Y-67447619D01*
X43284914Y-67447619D02*
X43361104Y-67485714D01*
X43361104Y-67485714D02*
X43399200Y-67523809D01*
X43399200Y-67523809D02*
X43437295Y-67600000D01*
X43437295Y-67600000D02*
X43437295Y-67790476D01*
X43437295Y-67790476D02*
X43399200Y-67866666D01*
X43399200Y-67866666D02*
X43361104Y-67904762D01*
X43437295Y-67066666D02*
X43437295Y-66914285D01*
X43437295Y-66914285D02*
X43399200Y-66838095D01*
X43399200Y-66838095D02*
X43361104Y-66799999D01*
X43361104Y-66799999D02*
X43246819Y-66723809D01*
X43246819Y-66723809D02*
X43094438Y-66685714D01*
X43094438Y-66685714D02*
X42789676Y-66685714D01*
X42789676Y-66685714D02*
X42713485Y-66723809D01*
X42713485Y-66723809D02*
X42675390Y-66761904D01*
X42675390Y-66761904D02*
X42637295Y-66838095D01*
X42637295Y-66838095D02*
X42637295Y-66990476D01*
X42637295Y-66990476D02*
X42675390Y-67066666D01*
X42675390Y-67066666D02*
X42713485Y-67104761D01*
X42713485Y-67104761D02*
X42789676Y-67142857D01*
X42789676Y-67142857D02*
X42980152Y-67142857D01*
X42980152Y-67142857D02*
X43056342Y-67104761D01*
X43056342Y-67104761D02*
X43094438Y-67066666D01*
X43094438Y-67066666D02*
X43132533Y-66990476D01*
X43132533Y-66990476D02*
X43132533Y-66838095D01*
X43132533Y-66838095D02*
X43094438Y-66761904D01*
X43094438Y-66761904D02*
X43056342Y-66723809D01*
X43056342Y-66723809D02*
X42980152Y-66685714D01*
X242116645Y-113073519D02*
X242116645Y-112073519D01*
X242116645Y-112549709D02*
X242688073Y-112549709D01*
X242688073Y-113073519D02*
X242688073Y-112073519D01*
X243688073Y-113073519D02*
X243116645Y-113073519D01*
X243402359Y-113073519D02*
X243402359Y-112073519D01*
X243402359Y-112073519D02*
X243307121Y-112216376D01*
X243307121Y-112216376D02*
X243211883Y-112311614D01*
X243211883Y-112311614D02*
X243116645Y-112359233D01*
X244164264Y-113073519D02*
X244354740Y-113073519D01*
X244354740Y-113073519D02*
X244449978Y-113025900D01*
X244449978Y-113025900D02*
X244497597Y-112978280D01*
X244497597Y-112978280D02*
X244592835Y-112835423D01*
X244592835Y-112835423D02*
X244640454Y-112644947D01*
X244640454Y-112644947D02*
X244640454Y-112263995D01*
X244640454Y-112263995D02*
X244592835Y-112168757D01*
X244592835Y-112168757D02*
X244545216Y-112121138D01*
X244545216Y-112121138D02*
X244449978Y-112073519D01*
X244449978Y-112073519D02*
X244259502Y-112073519D01*
X244259502Y-112073519D02*
X244164264Y-112121138D01*
X244164264Y-112121138D02*
X244116645Y-112168757D01*
X244116645Y-112168757D02*
X244069026Y-112263995D01*
X244069026Y-112263995D02*
X244069026Y-112502090D01*
X244069026Y-112502090D02*
X244116645Y-112597328D01*
X244116645Y-112597328D02*
X244164264Y-112644947D01*
X244164264Y-112644947D02*
X244259502Y-112692566D01*
X244259502Y-112692566D02*
X244449978Y-112692566D01*
X244449978Y-112692566D02*
X244545216Y-112644947D01*
X244545216Y-112644947D02*
X244592835Y-112597328D01*
X244592835Y-112597328D02*
X244640454Y-112502090D01*
X21143205Y-54804819D02*
X21143205Y-53804819D01*
X21143205Y-54281009D02*
X21714633Y-54281009D01*
X21714633Y-54804819D02*
X21714633Y-53804819D01*
X22714633Y-54804819D02*
X22143205Y-54804819D01*
X22428919Y-54804819D02*
X22428919Y-53804819D01*
X22428919Y-53804819D02*
X22333681Y-53947676D01*
X22333681Y-53947676D02*
X22238443Y-54042914D01*
X22238443Y-54042914D02*
X22143205Y-54090533D01*
X23286062Y-54233390D02*
X23190824Y-54185771D01*
X23190824Y-54185771D02*
X23143205Y-54138152D01*
X23143205Y-54138152D02*
X23095586Y-54042914D01*
X23095586Y-54042914D02*
X23095586Y-53995295D01*
X23095586Y-53995295D02*
X23143205Y-53900057D01*
X23143205Y-53900057D02*
X23190824Y-53852438D01*
X23190824Y-53852438D02*
X23286062Y-53804819D01*
X23286062Y-53804819D02*
X23476538Y-53804819D01*
X23476538Y-53804819D02*
X23571776Y-53852438D01*
X23571776Y-53852438D02*
X23619395Y-53900057D01*
X23619395Y-53900057D02*
X23667014Y-53995295D01*
X23667014Y-53995295D02*
X23667014Y-54042914D01*
X23667014Y-54042914D02*
X23619395Y-54138152D01*
X23619395Y-54138152D02*
X23571776Y-54185771D01*
X23571776Y-54185771D02*
X23476538Y-54233390D01*
X23476538Y-54233390D02*
X23286062Y-54233390D01*
X23286062Y-54233390D02*
X23190824Y-54281009D01*
X23190824Y-54281009D02*
X23143205Y-54328628D01*
X23143205Y-54328628D02*
X23095586Y-54423866D01*
X23095586Y-54423866D02*
X23095586Y-54614342D01*
X23095586Y-54614342D02*
X23143205Y-54709580D01*
X23143205Y-54709580D02*
X23190824Y-54757200D01*
X23190824Y-54757200D02*
X23286062Y-54804819D01*
X23286062Y-54804819D02*
X23476538Y-54804819D01*
X23476538Y-54804819D02*
X23571776Y-54757200D01*
X23571776Y-54757200D02*
X23619395Y-54709580D01*
X23619395Y-54709580D02*
X23667014Y-54614342D01*
X23667014Y-54614342D02*
X23667014Y-54423866D01*
X23667014Y-54423866D02*
X23619395Y-54328628D01*
X23619395Y-54328628D02*
X23571776Y-54281009D01*
X23571776Y-54281009D02*
X23476538Y-54233390D01*
X220686905Y-17636119D02*
X220686905Y-16636119D01*
X220686905Y-17112309D02*
X221258333Y-17112309D01*
X221258333Y-17636119D02*
X221258333Y-16636119D01*
X222258333Y-17636119D02*
X221686905Y-17636119D01*
X221972619Y-17636119D02*
X221972619Y-16636119D01*
X221972619Y-16636119D02*
X221877381Y-16778976D01*
X221877381Y-16778976D02*
X221782143Y-16874214D01*
X221782143Y-16874214D02*
X221686905Y-16921833D01*
X222639286Y-16731357D02*
X222686905Y-16683738D01*
X222686905Y-16683738D02*
X222782143Y-16636119D01*
X222782143Y-16636119D02*
X223020238Y-16636119D01*
X223020238Y-16636119D02*
X223115476Y-16683738D01*
X223115476Y-16683738D02*
X223163095Y-16731357D01*
X223163095Y-16731357D02*
X223210714Y-16826595D01*
X223210714Y-16826595D02*
X223210714Y-16921833D01*
X223210714Y-16921833D02*
X223163095Y-17064690D01*
X223163095Y-17064690D02*
X222591667Y-17636119D01*
X222591667Y-17636119D02*
X223210714Y-17636119D01*
X177825040Y-73854819D02*
X177825040Y-72854819D01*
X177825040Y-73331009D02*
X178396468Y-73331009D01*
X178396468Y-73854819D02*
X178396468Y-72854819D01*
X179396468Y-73854819D02*
X178825040Y-73854819D01*
X179110754Y-73854819D02*
X179110754Y-72854819D01*
X179110754Y-72854819D02*
X179015516Y-72997676D01*
X179015516Y-72997676D02*
X178920278Y-73092914D01*
X178920278Y-73092914D02*
X178825040Y-73140533D01*
X180301230Y-72854819D02*
X179825040Y-72854819D01*
X179825040Y-72854819D02*
X179777421Y-73331009D01*
X179777421Y-73331009D02*
X179825040Y-73283390D01*
X179825040Y-73283390D02*
X179920278Y-73235771D01*
X179920278Y-73235771D02*
X180158373Y-73235771D01*
X180158373Y-73235771D02*
X180253611Y-73283390D01*
X180253611Y-73283390D02*
X180301230Y-73331009D01*
X180301230Y-73331009D02*
X180348849Y-73426247D01*
X180348849Y-73426247D02*
X180348849Y-73664342D01*
X180348849Y-73664342D02*
X180301230Y-73759580D01*
X180301230Y-73759580D02*
X180253611Y-73807200D01*
X180253611Y-73807200D02*
X180158373Y-73854819D01*
X180158373Y-73854819D02*
X179920278Y-73854819D01*
X179920278Y-73854819D02*
X179825040Y-73807200D01*
X179825040Y-73807200D02*
X179777421Y-73759580D01*
X32991905Y-54604819D02*
X32991905Y-53604819D01*
X32991905Y-53604819D02*
X33372857Y-53604819D01*
X33372857Y-53604819D02*
X33468095Y-53652438D01*
X33468095Y-53652438D02*
X33515714Y-53700057D01*
X33515714Y-53700057D02*
X33563333Y-53795295D01*
X33563333Y-53795295D02*
X33563333Y-53938152D01*
X33563333Y-53938152D02*
X33515714Y-54033390D01*
X33515714Y-54033390D02*
X33468095Y-54081009D01*
X33468095Y-54081009D02*
X33372857Y-54128628D01*
X33372857Y-54128628D02*
X32991905Y-54128628D01*
X34515714Y-54604819D02*
X33944286Y-54604819D01*
X34230000Y-54604819D02*
X34230000Y-53604819D01*
X34230000Y-53604819D02*
X34134762Y-53747676D01*
X34134762Y-53747676D02*
X34039524Y-53842914D01*
X34039524Y-53842914D02*
X33944286Y-53890533D01*
X144486905Y-17636119D02*
X144486905Y-16636119D01*
X144486905Y-17112309D02*
X145058333Y-17112309D01*
X145058333Y-17636119D02*
X145058333Y-16636119D01*
X146058333Y-17636119D02*
X145486905Y-17636119D01*
X145772619Y-17636119D02*
X145772619Y-16636119D01*
X145772619Y-16636119D02*
X145677381Y-16778976D01*
X145677381Y-16778976D02*
X145582143Y-16874214D01*
X145582143Y-16874214D02*
X145486905Y-16921833D01*
X146391667Y-16636119D02*
X147010714Y-16636119D01*
X147010714Y-16636119D02*
X146677381Y-17017071D01*
X146677381Y-17017071D02*
X146820238Y-17017071D01*
X146820238Y-17017071D02*
X146915476Y-17064690D01*
X146915476Y-17064690D02*
X146963095Y-17112309D01*
X146963095Y-17112309D02*
X147010714Y-17207547D01*
X147010714Y-17207547D02*
X147010714Y-17445642D01*
X147010714Y-17445642D02*
X146963095Y-17540880D01*
X146963095Y-17540880D02*
X146915476Y-17588500D01*
X146915476Y-17588500D02*
X146820238Y-17636119D01*
X146820238Y-17636119D02*
X146534524Y-17636119D01*
X146534524Y-17636119D02*
X146439286Y-17588500D01*
X146439286Y-17588500D02*
X146391667Y-17540880D01*
X377847995Y-54804819D02*
X377847995Y-53804819D01*
X377847995Y-54281009D02*
X378419423Y-54281009D01*
X378419423Y-54804819D02*
X378419423Y-53804819D01*
X378847995Y-53900057D02*
X378895614Y-53852438D01*
X378895614Y-53852438D02*
X378990852Y-53804819D01*
X378990852Y-53804819D02*
X379228947Y-53804819D01*
X379228947Y-53804819D02*
X379324185Y-53852438D01*
X379324185Y-53852438D02*
X379371804Y-53900057D01*
X379371804Y-53900057D02*
X379419423Y-53995295D01*
X379419423Y-53995295D02*
X379419423Y-54090533D01*
X379419423Y-54090533D02*
X379371804Y-54233390D01*
X379371804Y-54233390D02*
X378800376Y-54804819D01*
X378800376Y-54804819D02*
X379419423Y-54804819D01*
X380038471Y-53804819D02*
X380133709Y-53804819D01*
X380133709Y-53804819D02*
X380228947Y-53852438D01*
X380228947Y-53852438D02*
X380276566Y-53900057D01*
X380276566Y-53900057D02*
X380324185Y-53995295D01*
X380324185Y-53995295D02*
X380371804Y-54185771D01*
X380371804Y-54185771D02*
X380371804Y-54423866D01*
X380371804Y-54423866D02*
X380324185Y-54614342D01*
X380324185Y-54614342D02*
X380276566Y-54709580D01*
X380276566Y-54709580D02*
X380228947Y-54757200D01*
X380228947Y-54757200D02*
X380133709Y-54804819D01*
X380133709Y-54804819D02*
X380038471Y-54804819D01*
X380038471Y-54804819D02*
X379943233Y-54757200D01*
X379943233Y-54757200D02*
X379895614Y-54709580D01*
X379895614Y-54709580D02*
X379847995Y-54614342D01*
X379847995Y-54614342D02*
X379800376Y-54423866D01*
X379800376Y-54423866D02*
X379800376Y-54185771D01*
X379800376Y-54185771D02*
X379847995Y-53995295D01*
X379847995Y-53995295D02*
X379895614Y-53900057D01*
X379895614Y-53900057D02*
X379943233Y-53852438D01*
X379943233Y-53852438D02*
X380038471Y-53804819D01*
X211161825Y-54804819D02*
X211161825Y-53804819D01*
X211161825Y-54281009D02*
X211733253Y-54281009D01*
X211733253Y-54804819D02*
X211733253Y-53804819D01*
X212733253Y-54804819D02*
X212161825Y-54804819D01*
X212447539Y-54804819D02*
X212447539Y-53804819D01*
X212447539Y-53804819D02*
X212352301Y-53947676D01*
X212352301Y-53947676D02*
X212257063Y-54042914D01*
X212257063Y-54042914D02*
X212161825Y-54090533D01*
X213590396Y-53804819D02*
X213399920Y-53804819D01*
X213399920Y-53804819D02*
X213304682Y-53852438D01*
X213304682Y-53852438D02*
X213257063Y-53900057D01*
X213257063Y-53900057D02*
X213161825Y-54042914D01*
X213161825Y-54042914D02*
X213114206Y-54233390D01*
X213114206Y-54233390D02*
X213114206Y-54614342D01*
X213114206Y-54614342D02*
X213161825Y-54709580D01*
X213161825Y-54709580D02*
X213209444Y-54757200D01*
X213209444Y-54757200D02*
X213304682Y-54804819D01*
X213304682Y-54804819D02*
X213495158Y-54804819D01*
X213495158Y-54804819D02*
X213590396Y-54757200D01*
X213590396Y-54757200D02*
X213638015Y-54709580D01*
X213638015Y-54709580D02*
X213685634Y-54614342D01*
X213685634Y-54614342D02*
X213685634Y-54376247D01*
X213685634Y-54376247D02*
X213638015Y-54281009D01*
X213638015Y-54281009D02*
X213590396Y-54233390D01*
X213590396Y-54233390D02*
X213495158Y-54185771D01*
X213495158Y-54185771D02*
X213304682Y-54185771D01*
X213304682Y-54185771D02*
X213209444Y-54233390D01*
X213209444Y-54233390D02*
X213161825Y-54281009D01*
X213161825Y-54281009D02*
X213114206Y-54376247D01*
X27314819Y-86833333D02*
X28029104Y-86833333D01*
X28029104Y-86833333D02*
X28171961Y-86880952D01*
X28171961Y-86880952D02*
X28267200Y-86976190D01*
X28267200Y-86976190D02*
X28314819Y-87119047D01*
X28314819Y-87119047D02*
X28314819Y-87214285D01*
X27314819Y-86452380D02*
X27314819Y-85833333D01*
X27314819Y-85833333D02*
X27695771Y-86166666D01*
X27695771Y-86166666D02*
X27695771Y-86023809D01*
X27695771Y-86023809D02*
X27743390Y-85928571D01*
X27743390Y-85928571D02*
X27791009Y-85880952D01*
X27791009Y-85880952D02*
X27886247Y-85833333D01*
X27886247Y-85833333D02*
X28124342Y-85833333D01*
X28124342Y-85833333D02*
X28219580Y-85880952D01*
X28219580Y-85880952D02*
X28267200Y-85928571D01*
X28267200Y-85928571D02*
X28314819Y-86023809D01*
X28314819Y-86023809D02*
X28314819Y-86309523D01*
X28314819Y-86309523D02*
X28267200Y-86404761D01*
X28267200Y-86404761D02*
X28219580Y-86452380D01*
X49143205Y-54804819D02*
X49143205Y-53804819D01*
X49143205Y-54281009D02*
X49714633Y-54281009D01*
X49714633Y-54804819D02*
X49714633Y-53804819D01*
X50714633Y-54804819D02*
X50143205Y-54804819D01*
X50428919Y-54804819D02*
X50428919Y-53804819D01*
X50428919Y-53804819D02*
X50333681Y-53947676D01*
X50333681Y-53947676D02*
X50238443Y-54042914D01*
X50238443Y-54042914D02*
X50143205Y-54090533D01*
X51047967Y-53804819D02*
X51714633Y-53804819D01*
X51714633Y-53804819D02*
X51286062Y-54804819D01*
X134961825Y-54804819D02*
X134961825Y-53804819D01*
X134961825Y-54281009D02*
X135533253Y-54281009D01*
X135533253Y-54804819D02*
X135533253Y-53804819D01*
X136533253Y-54804819D02*
X135961825Y-54804819D01*
X136247539Y-54804819D02*
X136247539Y-53804819D01*
X136247539Y-53804819D02*
X136152301Y-53947676D01*
X136152301Y-53947676D02*
X136057063Y-54042914D01*
X136057063Y-54042914D02*
X135961825Y-54090533D01*
X137390396Y-54138152D02*
X137390396Y-54804819D01*
X137152301Y-53757200D02*
X136914206Y-54471485D01*
X136914206Y-54471485D02*
X137533253Y-54471485D01*
X296886905Y-17636119D02*
X296886905Y-16636119D01*
X296886905Y-17112309D02*
X297458333Y-17112309D01*
X297458333Y-17636119D02*
X297458333Y-16636119D01*
X298458333Y-17636119D02*
X297886905Y-17636119D01*
X298172619Y-17636119D02*
X298172619Y-16636119D01*
X298172619Y-16636119D02*
X298077381Y-16778976D01*
X298077381Y-16778976D02*
X297982143Y-16874214D01*
X297982143Y-16874214D02*
X297886905Y-16921833D01*
X299410714Y-17636119D02*
X298839286Y-17636119D01*
X299125000Y-17636119D02*
X299125000Y-16636119D01*
X299125000Y-16636119D02*
X299029762Y-16778976D01*
X299029762Y-16778976D02*
X298934524Y-16874214D01*
X298934524Y-16874214D02*
X298839286Y-16921833D01*
X348204166Y-60454819D02*
X348204166Y-61169104D01*
X348204166Y-61169104D02*
X348156547Y-61311961D01*
X348156547Y-61311961D02*
X348061309Y-61407200D01*
X348061309Y-61407200D02*
X347918452Y-61454819D01*
X347918452Y-61454819D02*
X347823214Y-61454819D01*
X348632738Y-60550057D02*
X348680357Y-60502438D01*
X348680357Y-60502438D02*
X348775595Y-60454819D01*
X348775595Y-60454819D02*
X349013690Y-60454819D01*
X349013690Y-60454819D02*
X349108928Y-60502438D01*
X349108928Y-60502438D02*
X349156547Y-60550057D01*
X349156547Y-60550057D02*
X349204166Y-60645295D01*
X349204166Y-60645295D02*
X349204166Y-60740533D01*
X349204166Y-60740533D02*
X349156547Y-60883390D01*
X349156547Y-60883390D02*
X348585119Y-61454819D01*
X348585119Y-61454819D02*
X349204166Y-61454819D01*
X28240000Y-81750000D02*
X39750000Y-81750000D01*
X28250000Y-76250000D02*
X28250000Y-81750000D01*
X28250000Y-76250000D02*
X39750000Y-76250000D01*
X39750000Y-81750000D02*
X39750000Y-76250000D01*
D11*
X42890000Y-19490000D02*
X25110000Y-19490000D01*
X25110000Y-19490000D02*
X25110000Y-22030000D01*
X27650000Y-19500000D02*
X25110000Y-19500000D01*
X27650000Y-19500000D02*
X27650000Y-22040000D01*
X25110000Y-22030000D02*
X25110000Y-52510000D01*
X27650000Y-22040000D02*
X25110000Y-22040000D01*
X42890000Y-52510000D02*
X42890000Y-19490000D01*
X25110000Y-52510000D02*
X42890000Y-52510000D01*
D10*
X38931568Y-28009360D02*
X38431568Y-28009360D01*
X38431568Y-27909360D01*
X38931568Y-27909360D01*
X38931568Y-28009360D01*
G36*
X38931568Y-28009360D02*
G01*
X38431568Y-28009360D01*
X38431568Y-27909360D01*
X38931568Y-27909360D01*
X38931568Y-28009360D01*
G37*
X38931568Y-28209360D02*
X38831568Y-28209360D01*
X38831568Y-27909360D01*
X38931568Y-27909360D01*
X38931568Y-28209360D01*
G36*
X38931568Y-28209360D02*
G01*
X38831568Y-28209360D01*
X38831568Y-27909360D01*
X38931568Y-27909360D01*
X38931568Y-28209360D01*
G37*
X38531568Y-28709360D02*
X38431568Y-28709360D01*
X38431568Y-27909360D01*
X38531568Y-27909360D01*
X38531568Y-28709360D01*
G36*
X38531568Y-28709360D02*
G01*
X38431568Y-28709360D01*
X38431568Y-27909360D01*
X38531568Y-27909360D01*
X38531568Y-28709360D01*
G37*
X38731568Y-28409360D02*
X38631568Y-28409360D01*
X38631568Y-28309360D01*
X38731568Y-28309360D01*
X38731568Y-28409360D01*
G36*
X38731568Y-28409360D02*
G01*
X38631568Y-28409360D01*
X38631568Y-28309360D01*
X38731568Y-28309360D01*
X38731568Y-28409360D01*
G37*
X38931568Y-28709360D02*
X38831568Y-28709360D01*
X38831568Y-28509360D01*
X38931568Y-28509360D01*
X38931568Y-28709360D01*
G36*
X38931568Y-28709360D02*
G01*
X38831568Y-28709360D01*
X38831568Y-28509360D01*
X38931568Y-28509360D01*
X38931568Y-28709360D01*
G37*
X53000000Y-24000000D02*
X53000000Y-23000000D01*
X53000000Y-37000000D02*
X53000000Y-36000000D01*
X53000000Y-37000000D02*
X54000000Y-37000000D01*
X54000000Y-23000000D02*
X53000000Y-23000000D01*
X66000000Y-37000000D02*
X67000000Y-37000000D01*
X67000000Y-23000000D02*
X66000000Y-23000000D01*
X67000000Y-23000000D02*
X67000000Y-24000000D01*
X67000000Y-36000000D02*
X67000000Y-37000000D01*
D12*
X43800000Y-64975000D02*
X46200000Y-64975000D01*
X43800000Y-70800000D02*
X43800000Y-65000000D01*
X46200000Y-65000000D02*
X46200000Y-70800000D01*
X46200000Y-65075000D02*
X43800000Y-65075000D01*
X46200000Y-65200000D02*
X43800000Y-65200000D01*
X46200000Y-65375000D02*
X43800000Y-65375000D01*
X46200000Y-65550000D02*
X43800000Y-65550000D01*
X46200000Y-65725000D02*
X43800000Y-65725000D01*
X46200000Y-70800000D02*
X43800000Y-70800000D01*
D13*
X26200000Y-63900000D02*
X26800000Y-63900000D01*
X26500000Y-64200000D02*
X26200000Y-63900000D01*
X26800000Y-63900000D02*
X26500000Y-64200000D01*
X27900000Y-62100000D02*
X27900000Y-73900000D01*
X32000000Y-62100000D02*
X27900000Y-62100000D01*
X32000000Y-73900000D02*
X27900000Y-73900000D01*
X33500000Y-68000000D02*
X34500000Y-68000000D01*
X34000000Y-67500000D02*
X34000000Y-68500000D01*
X36000000Y-62100000D02*
X40100000Y-62100000D01*
X40100000Y-62100000D02*
X40100000Y-64500000D01*
X40100000Y-66700000D02*
X40100000Y-69300000D01*
X40100000Y-71500000D02*
X40100000Y-73900000D01*
X40100000Y-73900000D02*
X36000000Y-73900000D01*
X37000000Y-68000000D02*
G75*
G02*
X31000000Y-68000000I-3000000J0D01*
G01*
X31000000Y-68000000D02*
G75*
G02*
X37000000Y-68000000I3000000J0D01*
G01*
D10*
X324460240Y-100200000D02*
X324460240Y-99200000D01*
X324460240Y-113200000D02*
X324460240Y-112200000D01*
X324460240Y-113200000D02*
X325460240Y-113200000D01*
X325460240Y-99200000D02*
X324460240Y-99200000D01*
X337460240Y-113200000D02*
X338460240Y-113200000D01*
X338460240Y-99200000D02*
X337460240Y-99200000D01*
X338460240Y-99200000D02*
X338460240Y-100200000D01*
X338460240Y-112200000D02*
X338460240Y-113200000D01*
X79192995Y-100200000D02*
X79192995Y-99200000D01*
X79192995Y-113200000D02*
X79192995Y-112200000D01*
X79192995Y-113200000D02*
X80192995Y-113200000D01*
X80192995Y-99200000D02*
X79192995Y-99200000D01*
X92192995Y-113200000D02*
X93192995Y-113200000D01*
X93192995Y-99200000D02*
X92192995Y-99200000D01*
X93192995Y-99200000D02*
X93192995Y-100200000D01*
X93192995Y-112200000D02*
X93192995Y-113200000D01*
X200638135Y-62100000D02*
X200638135Y-61100000D01*
X200638135Y-75100000D02*
X200638135Y-74100000D01*
X200638135Y-75100000D02*
X201638135Y-75100000D01*
X201638135Y-61100000D02*
X200638135Y-61100000D01*
X213638135Y-75100000D02*
X214638135Y-75100000D01*
X214638135Y-61100000D02*
X213638135Y-61100000D01*
X214638135Y-61100000D02*
X214638135Y-62100000D01*
X214638135Y-74100000D02*
X214638135Y-75100000D01*
X191112450Y-81150000D02*
X191112450Y-80150000D01*
X191112450Y-94150000D02*
X191112450Y-93150000D01*
X191112450Y-94150000D02*
X192112450Y-94150000D01*
X192112450Y-80150000D02*
X191112450Y-80150000D01*
X204112450Y-94150000D02*
X205112450Y-94150000D01*
X205112450Y-80150000D02*
X204112450Y-80150000D01*
X205112450Y-80150000D02*
X205112450Y-81150000D01*
X205112450Y-93150000D02*
X205112450Y-94150000D01*
X176824920Y-43050000D02*
X176824920Y-42050000D01*
X176824920Y-56050000D02*
X176824920Y-55050000D01*
X176824920Y-56050000D02*
X177824920Y-56050000D01*
X177824920Y-42050000D02*
X176824920Y-42050000D01*
X189824920Y-56050000D02*
X190824920Y-56050000D01*
X190824920Y-42050000D02*
X189824920Y-42050000D01*
X190824920Y-42050000D02*
X190824920Y-43050000D01*
X190824920Y-55050000D02*
X190824920Y-56050000D01*
X91100000Y-24000000D02*
X91100000Y-23000000D01*
X91100000Y-37000000D02*
X91100000Y-36000000D01*
X91100000Y-37000000D02*
X92100000Y-37000000D01*
X92100000Y-23000000D02*
X91100000Y-23000000D01*
X104100000Y-37000000D02*
X105100000Y-37000000D01*
X105100000Y-23000000D02*
X104100000Y-23000000D01*
X105100000Y-23000000D02*
X105100000Y-24000000D01*
X105100000Y-36000000D02*
X105100000Y-37000000D01*
X148250000Y-24000000D02*
X148250000Y-23000000D01*
X148250000Y-37000000D02*
X148250000Y-36000000D01*
X148250000Y-37000000D02*
X149250000Y-37000000D01*
X149250000Y-23000000D02*
X148250000Y-23000000D01*
X161250000Y-37000000D02*
X162250000Y-37000000D01*
X162250000Y-23000000D02*
X161250000Y-23000000D01*
X162250000Y-23000000D02*
X162250000Y-24000000D01*
X162250000Y-36000000D02*
X162250000Y-37000000D01*
X281600000Y-24000000D02*
X281600000Y-23000000D01*
X281600000Y-37000000D02*
X281600000Y-36000000D01*
X281600000Y-37000000D02*
X282600000Y-37000000D01*
X282600000Y-23000000D02*
X281600000Y-23000000D01*
X294600000Y-37000000D02*
X295600000Y-37000000D01*
X295600000Y-23000000D02*
X294600000Y-23000000D01*
X295600000Y-23000000D02*
X295600000Y-24000000D01*
X295600000Y-36000000D02*
X295600000Y-37000000D01*
X55381250Y-100200000D02*
X55381250Y-99200000D01*
X55381250Y-113200000D02*
X55381250Y-112200000D01*
X55381250Y-113200000D02*
X56381250Y-113200000D01*
X56381250Y-99200000D02*
X55381250Y-99200000D01*
X68381250Y-113200000D02*
X69381250Y-113200000D01*
X69381250Y-99200000D02*
X68381250Y-99200000D01*
X69381250Y-99200000D02*
X69381250Y-100200000D01*
X69381250Y-112200000D02*
X69381250Y-113200000D01*
X343511090Y-100200000D02*
X343511090Y-99200000D01*
X343511090Y-113200000D02*
X343511090Y-112200000D01*
X343511090Y-113200000D02*
X344511090Y-113200000D01*
X344511090Y-99200000D02*
X343511090Y-99200000D01*
X356511090Y-113200000D02*
X357511090Y-113200000D01*
X357511090Y-99200000D02*
X356511090Y-99200000D01*
X357511090Y-99200000D02*
X357511090Y-100200000D01*
X357511090Y-112200000D02*
X357511090Y-113200000D01*
X210162450Y-81150000D02*
X210162450Y-80150000D01*
X210162450Y-94150000D02*
X210162450Y-93150000D01*
X210162450Y-94150000D02*
X211162450Y-94150000D01*
X211162450Y-80150000D02*
X210162450Y-80150000D01*
X223162450Y-94150000D02*
X224162450Y-94150000D01*
X224162450Y-80150000D02*
X223162450Y-80150000D01*
X224162450Y-80150000D02*
X224162450Y-81150000D01*
X224162450Y-93150000D02*
X224162450Y-94150000D01*
X307793635Y-62100000D02*
X307793635Y-61100000D01*
X307793635Y-75100000D02*
X307793635Y-74100000D01*
X307793635Y-75100000D02*
X308793635Y-75100000D01*
X308793635Y-61100000D02*
X307793635Y-61100000D01*
X320793635Y-75100000D02*
X321793635Y-75100000D01*
X321793635Y-61100000D02*
X320793635Y-61100000D01*
X321793635Y-61100000D02*
X321793635Y-62100000D01*
X321793635Y-74100000D02*
X321793635Y-75100000D01*
X229212450Y-81150000D02*
X229212450Y-80150000D01*
X229212450Y-94150000D02*
X229212450Y-93150000D01*
X229212450Y-94150000D02*
X230212450Y-94150000D01*
X230212450Y-80150000D02*
X229212450Y-80150000D01*
X242212450Y-94150000D02*
X243212450Y-94150000D01*
X243212450Y-80150000D02*
X242212450Y-80150000D01*
X243212450Y-80150000D02*
X243212450Y-81150000D01*
X243212450Y-93150000D02*
X243212450Y-94150000D01*
X362562500Y-43050000D02*
X362562500Y-42050000D01*
X362562500Y-56050000D02*
X362562500Y-55050000D01*
X362562500Y-56050000D02*
X363562500Y-56050000D01*
X363562500Y-42050000D02*
X362562500Y-42050000D01*
X375562500Y-56050000D02*
X376562500Y-56050000D01*
X376562500Y-42050000D02*
X375562500Y-42050000D01*
X376562500Y-42050000D02*
X376562500Y-43050000D01*
X376562500Y-55050000D02*
X376562500Y-56050000D01*
X95862450Y-81150000D02*
X95862450Y-80150000D01*
X95862450Y-94150000D02*
X95862450Y-93150000D01*
X95862450Y-94150000D02*
X96862450Y-94150000D01*
X96862450Y-80150000D02*
X95862450Y-80150000D01*
X108862450Y-94150000D02*
X109862450Y-94150000D01*
X109862450Y-80150000D02*
X108862450Y-80150000D01*
X109862450Y-80150000D02*
X109862450Y-81150000D01*
X109862450Y-93150000D02*
X109862450Y-94150000D01*
X293503740Y-100200000D02*
X293503740Y-99200000D01*
X293503740Y-113200000D02*
X293503740Y-112200000D01*
X293503740Y-113200000D02*
X294503740Y-113200000D01*
X294503740Y-99200000D02*
X293503740Y-99200000D01*
X306503740Y-113200000D02*
X307503740Y-113200000D01*
X307503740Y-99200000D02*
X306503740Y-99200000D01*
X307503740Y-99200000D02*
X307503740Y-100200000D01*
X307503740Y-112200000D02*
X307503740Y-113200000D01*
X57762500Y-43050000D02*
X57762500Y-42050000D01*
X57762500Y-56050000D02*
X57762500Y-55050000D01*
X57762500Y-56050000D02*
X58762500Y-56050000D01*
X58762500Y-42050000D02*
X57762500Y-42050000D01*
X70762500Y-56050000D02*
X71762500Y-56050000D01*
X71762500Y-42050000D02*
X70762500Y-42050000D01*
X71762500Y-42050000D02*
X71762500Y-43050000D01*
X71762500Y-55050000D02*
X71762500Y-56050000D01*
X257788135Y-62100000D02*
X257788135Y-61100000D01*
X257788135Y-75100000D02*
X257788135Y-74100000D01*
X257788135Y-75100000D02*
X258788135Y-75100000D01*
X258788135Y-61100000D02*
X257788135Y-61100000D01*
X270788135Y-75100000D02*
X271788135Y-75100000D01*
X271788135Y-61100000D02*
X270788135Y-61100000D01*
X271788135Y-61100000D02*
X271788135Y-62100000D01*
X271788135Y-74100000D02*
X271788135Y-75100000D01*
X129200000Y-24000000D02*
X129200000Y-23000000D01*
X129200000Y-37000000D02*
X129200000Y-36000000D01*
X129200000Y-37000000D02*
X130200000Y-37000000D01*
X130200000Y-23000000D02*
X129200000Y-23000000D01*
X142200000Y-37000000D02*
X143200000Y-37000000D01*
X143200000Y-23000000D02*
X142200000Y-23000000D01*
X143200000Y-23000000D02*
X143200000Y-24000000D01*
X143200000Y-36000000D02*
X143200000Y-37000000D01*
X81574920Y-43050000D02*
X81574920Y-42050000D01*
X81574920Y-56050000D02*
X81574920Y-55050000D01*
X81574920Y-56050000D02*
X82574920Y-56050000D01*
X82574920Y-42050000D02*
X81574920Y-42050000D01*
X94574920Y-56050000D02*
X95574920Y-56050000D01*
X95574920Y-42050000D02*
X94574920Y-42050000D01*
X95574920Y-42050000D02*
X95574920Y-43050000D01*
X95574920Y-55050000D02*
X95574920Y-56050000D01*
X262550000Y-24000000D02*
X262550000Y-23000000D01*
X262550000Y-37000000D02*
X262550000Y-36000000D01*
X262550000Y-37000000D02*
X263550000Y-37000000D01*
X263550000Y-23000000D02*
X262550000Y-23000000D01*
X275550000Y-37000000D02*
X276550000Y-37000000D01*
X276550000Y-23000000D02*
X275550000Y-23000000D01*
X276550000Y-23000000D02*
X276550000Y-24000000D01*
X276550000Y-36000000D02*
X276550000Y-37000000D01*
X276838135Y-62100000D02*
X276838135Y-61100000D01*
X276838135Y-75100000D02*
X276838135Y-74100000D01*
X276838135Y-75100000D02*
X277838135Y-75100000D01*
X277838135Y-61100000D02*
X276838135Y-61100000D01*
X289838135Y-75100000D02*
X290838135Y-75100000D01*
X290838135Y-61100000D02*
X289838135Y-61100000D01*
X290838135Y-61100000D02*
X290838135Y-62100000D01*
X290838135Y-74100000D02*
X290838135Y-75100000D01*
X314937420Y-43050000D02*
X314937420Y-42050000D01*
X314937420Y-56050000D02*
X314937420Y-55050000D01*
X314937420Y-56050000D02*
X315937420Y-56050000D01*
X315937420Y-42050000D02*
X314937420Y-42050000D01*
X327937420Y-56050000D02*
X328937420Y-56050000D01*
X328937420Y-42050000D02*
X327937420Y-42050000D01*
X328937420Y-42050000D02*
X328937420Y-43050000D01*
X328937420Y-55050000D02*
X328937420Y-56050000D01*
X162538135Y-62100000D02*
X162538135Y-61100000D01*
X162538135Y-75100000D02*
X162538135Y-74100000D01*
X162538135Y-75100000D02*
X163538135Y-75100000D01*
X163538135Y-61100000D02*
X162538135Y-61100000D01*
X175538135Y-75100000D02*
X176538135Y-75100000D01*
X176538135Y-61100000D02*
X175538135Y-61100000D01*
X176538135Y-61100000D02*
X176538135Y-62100000D01*
X176538135Y-74100000D02*
X176538135Y-75100000D01*
X72050000Y-24000000D02*
X72050000Y-23000000D01*
X72050000Y-37000000D02*
X72050000Y-36000000D01*
X72050000Y-37000000D02*
X73050000Y-37000000D01*
X73050000Y-23000000D02*
X72050000Y-23000000D01*
X85050000Y-37000000D02*
X86050000Y-37000000D01*
X86050000Y-23000000D02*
X85050000Y-23000000D01*
X86050000Y-23000000D02*
X86050000Y-24000000D01*
X86050000Y-36000000D02*
X86050000Y-37000000D01*
D13*
X30370000Y-54940000D02*
X30370000Y-56190000D01*
X30670000Y-55240000D02*
X30670000Y-59960000D01*
X30670000Y-56550000D02*
X31280000Y-56550000D01*
X30670000Y-57850000D02*
X31280000Y-57850000D01*
X30670000Y-59960000D02*
X36790000Y-59960000D01*
X31280000Y-55850000D02*
X31280000Y-59350000D01*
X31280000Y-59350000D02*
X36180000Y-59350000D01*
X31620000Y-54940000D02*
X30370000Y-54940000D01*
X32130000Y-55040000D02*
X32130000Y-55240000D01*
X32430000Y-55040000D02*
X32130000Y-55040000D01*
X32430000Y-55140000D02*
X32130000Y-55140000D01*
X32430000Y-55240000D02*
X32430000Y-55040000D01*
X33230000Y-55240000D02*
X33230000Y-55850000D01*
X33230000Y-55850000D02*
X31280000Y-55850000D01*
X33630000Y-58850000D02*
X33830000Y-58850000D01*
X33630000Y-59350000D02*
X33630000Y-58850000D01*
X33730000Y-59350000D02*
X33730000Y-58850000D01*
X33830000Y-58850000D02*
X33830000Y-59350000D01*
X34230000Y-55850000D02*
X34230000Y-55240000D01*
X36180000Y-55850000D02*
X34230000Y-55850000D01*
X36180000Y-59350000D02*
X36180000Y-55850000D01*
X36790000Y-55240000D02*
X30670000Y-55240000D01*
X36790000Y-56550000D02*
X36180000Y-56550000D01*
X36790000Y-57850000D02*
X36180000Y-57850000D01*
X36790000Y-59960000D02*
X36790000Y-55240000D01*
D10*
X343511090Y-81150000D02*
X343511090Y-80150000D01*
X343511090Y-94150000D02*
X343511090Y-93150000D01*
X343511090Y-94150000D02*
X344511090Y-94150000D01*
X344511090Y-80150000D02*
X343511090Y-80150000D01*
X356511090Y-94150000D02*
X357511090Y-94150000D01*
X357511090Y-80150000D02*
X356511090Y-80150000D01*
X357511090Y-80150000D02*
X357511090Y-81150000D01*
X357511090Y-93150000D02*
X357511090Y-94150000D01*
X343512500Y-43050000D02*
X343512500Y-42050000D01*
X343512500Y-56050000D02*
X343512500Y-55050000D01*
X343512500Y-56050000D02*
X344512500Y-56050000D01*
X344512500Y-42050000D02*
X343512500Y-42050000D01*
X356512500Y-56050000D02*
X357512500Y-56050000D01*
X357512500Y-42050000D02*
X356512500Y-42050000D01*
X357512500Y-42050000D02*
X357512500Y-43050000D01*
X357512500Y-55050000D02*
X357512500Y-56050000D01*
X362562500Y-24000000D02*
X362562500Y-23000000D01*
X362562500Y-37000000D02*
X362562500Y-36000000D01*
X362562500Y-37000000D02*
X363562500Y-37000000D01*
X363562500Y-23000000D02*
X362562500Y-23000000D01*
X375562500Y-37000000D02*
X376562500Y-37000000D01*
X376562500Y-23000000D02*
X375562500Y-23000000D01*
X376562500Y-23000000D02*
X376562500Y-24000000D01*
X376562500Y-36000000D02*
X376562500Y-37000000D01*
X310175000Y-24000000D02*
X310175000Y-23000000D01*
X310175000Y-37000000D02*
X310175000Y-36000000D01*
X310175000Y-37000000D02*
X311175000Y-37000000D01*
X311175000Y-23000000D02*
X310175000Y-23000000D01*
X323175000Y-37000000D02*
X324175000Y-37000000D01*
X324175000Y-23000000D02*
X323175000Y-23000000D01*
X324175000Y-23000000D02*
X324175000Y-24000000D01*
X324175000Y-36000000D02*
X324175000Y-37000000D01*
X143488135Y-62100000D02*
X143488135Y-61100000D01*
X143488135Y-75100000D02*
X143488135Y-74100000D01*
X143488135Y-75100000D02*
X144488135Y-75100000D01*
X144488135Y-61100000D02*
X143488135Y-61100000D01*
X156488135Y-75100000D02*
X157488135Y-75100000D01*
X157488135Y-61100000D02*
X156488135Y-61100000D01*
X157488135Y-61100000D02*
X157488135Y-62100000D01*
X157488135Y-74100000D02*
X157488135Y-75100000D01*
X219688135Y-62100000D02*
X219688135Y-61100000D01*
X219688135Y-75100000D02*
X219688135Y-74100000D01*
X219688135Y-75100000D02*
X220688135Y-75100000D01*
X220688135Y-61100000D02*
X219688135Y-61100000D01*
X232688135Y-75100000D02*
X233688135Y-75100000D01*
X233688135Y-61100000D02*
X232688135Y-61100000D01*
X233688135Y-61100000D02*
X233688135Y-62100000D01*
X233688135Y-74100000D02*
X233688135Y-75100000D01*
X233974920Y-43050000D02*
X233974920Y-42050000D01*
X233974920Y-56050000D02*
X233974920Y-55050000D01*
X233974920Y-56050000D02*
X234974920Y-56050000D01*
X234974920Y-42050000D02*
X233974920Y-42050000D01*
X246974920Y-56050000D02*
X247974920Y-56050000D01*
X247974920Y-42050000D02*
X246974920Y-42050000D01*
X247974920Y-42050000D02*
X247974920Y-43050000D01*
X247974920Y-55050000D02*
X247974920Y-56050000D01*
X153012450Y-81150000D02*
X153012450Y-80150000D01*
X153012450Y-94150000D02*
X153012450Y-93150000D01*
X153012450Y-94150000D02*
X154012450Y-94150000D01*
X154012450Y-80150000D02*
X153012450Y-80150000D01*
X166012450Y-94150000D02*
X167012450Y-94150000D01*
X167012450Y-80150000D02*
X166012450Y-80150000D01*
X167012450Y-80150000D02*
X167012450Y-81150000D01*
X167012450Y-93150000D02*
X167012450Y-94150000D01*
X195874920Y-43050000D02*
X195874920Y-42050000D01*
X195874920Y-56050000D02*
X195874920Y-55050000D01*
X195874920Y-56050000D02*
X196874920Y-56050000D01*
X196874920Y-42050000D02*
X195874920Y-42050000D01*
X208874920Y-56050000D02*
X209874920Y-56050000D01*
X209874920Y-42050000D02*
X208874920Y-42050000D01*
X209874920Y-42050000D02*
X209874920Y-43050000D01*
X209874920Y-55050000D02*
X209874920Y-56050000D01*
X238738135Y-62100000D02*
X238738135Y-61100000D01*
X238738135Y-75100000D02*
X238738135Y-74100000D01*
X238738135Y-75100000D02*
X239738135Y-75100000D01*
X239738135Y-61100000D02*
X238738135Y-61100000D01*
X251738135Y-75100000D02*
X252738135Y-75100000D01*
X252738135Y-61100000D02*
X251738135Y-61100000D01*
X252738135Y-61100000D02*
X252738135Y-62100000D01*
X252738135Y-74100000D02*
X252738135Y-75100000D01*
X243500000Y-24000000D02*
X243500000Y-23000000D01*
X243500000Y-37000000D02*
X243500000Y-36000000D01*
X243500000Y-37000000D02*
X244500000Y-37000000D01*
X244500000Y-23000000D02*
X243500000Y-23000000D01*
X256500000Y-37000000D02*
X257500000Y-37000000D01*
X257500000Y-23000000D02*
X256500000Y-23000000D01*
X257500000Y-23000000D02*
X257500000Y-24000000D01*
X257500000Y-36000000D02*
X257500000Y-37000000D01*
X291124920Y-43050000D02*
X291124920Y-42050000D01*
X291124920Y-56050000D02*
X291124920Y-55050000D01*
X291124920Y-56050000D02*
X292124920Y-56050000D01*
X292124920Y-42050000D02*
X291124920Y-42050000D01*
X304124920Y-56050000D02*
X305124920Y-56050000D01*
X305124920Y-42050000D02*
X304124920Y-42050000D01*
X305124920Y-42050000D02*
X305124920Y-43050000D01*
X305124920Y-55050000D02*
X305124920Y-56050000D01*
X343512500Y-24000000D02*
X343512500Y-23000000D01*
X343512500Y-37000000D02*
X343512500Y-36000000D01*
X343512500Y-37000000D02*
X344512500Y-37000000D01*
X344512500Y-23000000D02*
X343512500Y-23000000D01*
X356512500Y-37000000D02*
X357512500Y-37000000D01*
X357512500Y-23000000D02*
X356512500Y-23000000D01*
X357512500Y-23000000D02*
X357512500Y-24000000D01*
X357512500Y-36000000D02*
X357512500Y-37000000D01*
X245879740Y-100200000D02*
X245879740Y-99200000D01*
X245879740Y-113200000D02*
X245879740Y-112200000D01*
X245879740Y-113200000D02*
X246879740Y-113200000D01*
X246879740Y-99200000D02*
X245879740Y-99200000D01*
X258879740Y-113200000D02*
X259879740Y-113200000D01*
X259879740Y-99200000D02*
X258879740Y-99200000D01*
X259879740Y-99200000D02*
X259879740Y-100200000D01*
X259879740Y-112200000D02*
X259879740Y-113200000D01*
X174441740Y-100200000D02*
X174441740Y-99200000D01*
X174441740Y-113200000D02*
X174441740Y-112200000D01*
X174441740Y-113200000D02*
X175441740Y-113200000D01*
X175441740Y-99200000D02*
X174441740Y-99200000D01*
X187441740Y-113200000D02*
X188441740Y-113200000D01*
X188441740Y-99200000D02*
X187441740Y-99200000D01*
X188441740Y-99200000D02*
X188441740Y-100200000D01*
X188441740Y-112200000D02*
X188441740Y-113200000D01*
X267312450Y-81150000D02*
X267312450Y-80150000D01*
X267312450Y-94150000D02*
X267312450Y-93150000D01*
X267312450Y-94150000D02*
X268312450Y-94150000D01*
X268312450Y-80150000D02*
X267312450Y-80150000D01*
X280312450Y-94150000D02*
X281312450Y-94150000D01*
X281312450Y-80150000D02*
X280312450Y-80150000D01*
X281312450Y-80150000D02*
X281312450Y-81150000D01*
X281312450Y-93150000D02*
X281312450Y-94150000D01*
X303030450Y-81150000D02*
X303030450Y-80150000D01*
X303030450Y-94150000D02*
X303030450Y-93150000D01*
X303030450Y-94150000D02*
X304030450Y-94150000D01*
X304030450Y-80150000D02*
X303030450Y-80150000D01*
X316030450Y-94150000D02*
X317030450Y-94150000D01*
X317030450Y-80150000D02*
X316030450Y-80150000D01*
X317030450Y-80150000D02*
X317030450Y-81150000D01*
X317030450Y-93150000D02*
X317030450Y-94150000D01*
X248262450Y-81150000D02*
X248262450Y-80150000D01*
X248262450Y-94150000D02*
X248262450Y-93150000D01*
X248262450Y-94150000D02*
X249262450Y-94150000D01*
X249262450Y-80150000D02*
X248262450Y-80150000D01*
X261262450Y-94150000D02*
X262262450Y-94150000D01*
X262262450Y-80150000D02*
X261262450Y-80150000D01*
X262262450Y-80150000D02*
X262262450Y-81150000D01*
X262262450Y-93150000D02*
X262262450Y-94150000D01*
X100624920Y-43050000D02*
X100624920Y-42050000D01*
X100624920Y-56050000D02*
X100624920Y-55050000D01*
X100624920Y-56050000D02*
X101624920Y-56050000D01*
X101624920Y-42050000D02*
X100624920Y-42050000D01*
X113624920Y-56050000D02*
X114624920Y-56050000D01*
X114624920Y-42050000D02*
X113624920Y-42050000D01*
X114624920Y-42050000D02*
X114624920Y-43050000D01*
X114624920Y-55050000D02*
X114624920Y-56050000D01*
X110150000Y-24000000D02*
X110150000Y-23000000D01*
X110150000Y-37000000D02*
X110150000Y-36000000D01*
X110150000Y-37000000D02*
X111150000Y-37000000D01*
X111150000Y-23000000D02*
X110150000Y-23000000D01*
X123150000Y-37000000D02*
X124150000Y-37000000D01*
X124150000Y-23000000D02*
X123150000Y-23000000D01*
X124150000Y-23000000D02*
X124150000Y-24000000D01*
X124150000Y-36000000D02*
X124150000Y-37000000D01*
X133962450Y-81150000D02*
X133962450Y-80150000D01*
X133962450Y-94150000D02*
X133962450Y-93150000D01*
X133962450Y-94150000D02*
X134962450Y-94150000D01*
X134962450Y-80150000D02*
X133962450Y-80150000D01*
X146962450Y-94150000D02*
X147962450Y-94150000D01*
X147962450Y-80150000D02*
X146962450Y-80150000D01*
X147962450Y-80150000D02*
X147962450Y-81150000D01*
X147962450Y-93150000D02*
X147962450Y-94150000D01*
X138724920Y-43050000D02*
X138724920Y-42050000D01*
X138724920Y-56050000D02*
X138724920Y-55050000D01*
X138724920Y-56050000D02*
X139724920Y-56050000D01*
X139724920Y-42050000D02*
X138724920Y-42050000D01*
X151724920Y-56050000D02*
X152724920Y-56050000D01*
X152724920Y-42050000D02*
X151724920Y-42050000D01*
X152724920Y-42050000D02*
X152724920Y-43050000D01*
X152724920Y-55050000D02*
X152724920Y-56050000D01*
X119674920Y-43050000D02*
X119674920Y-42050000D01*
X119674920Y-56050000D02*
X119674920Y-55050000D01*
X119674920Y-56050000D02*
X120674920Y-56050000D01*
X120674920Y-42050000D02*
X119674920Y-42050000D01*
X132674920Y-56050000D02*
X133674920Y-56050000D01*
X133674920Y-42050000D02*
X132674920Y-42050000D01*
X133674920Y-42050000D02*
X133674920Y-43050000D01*
X133674920Y-55050000D02*
X133674920Y-56050000D01*
X124438135Y-62100000D02*
X124438135Y-61100000D01*
X124438135Y-75100000D02*
X124438135Y-74100000D01*
X124438135Y-75100000D02*
X125438135Y-75100000D01*
X125438135Y-61100000D02*
X124438135Y-61100000D01*
X137438135Y-75100000D02*
X138438135Y-75100000D01*
X138438135Y-61100000D02*
X137438135Y-61100000D01*
X138438135Y-61100000D02*
X138438135Y-62100000D01*
X138438135Y-74100000D02*
X138438135Y-75100000D01*
X64906250Y-81150000D02*
X64906250Y-80150000D01*
X64906250Y-94150000D02*
X64906250Y-93150000D01*
X64906250Y-94150000D02*
X65906250Y-94150000D01*
X65906250Y-80150000D02*
X64906250Y-80150000D01*
X77906250Y-94150000D02*
X78906250Y-94150000D01*
X78906250Y-80150000D02*
X77906250Y-80150000D01*
X78906250Y-80150000D02*
X78906250Y-81150000D01*
X78906250Y-93150000D02*
X78906250Y-94150000D01*
X269691740Y-100200000D02*
X269691740Y-99200000D01*
X269691740Y-113200000D02*
X269691740Y-112200000D01*
X269691740Y-113200000D02*
X270691740Y-113200000D01*
X270691740Y-99200000D02*
X269691740Y-99200000D01*
X282691740Y-113200000D02*
X283691740Y-113200000D01*
X283691740Y-99200000D02*
X282691740Y-99200000D01*
X283691740Y-99200000D02*
X283691740Y-100200000D01*
X283691740Y-112200000D02*
X283691740Y-113200000D01*
X86338135Y-62100000D02*
X86338135Y-61100000D01*
X86338135Y-75100000D02*
X86338135Y-74100000D01*
X86338135Y-75100000D02*
X87338135Y-75100000D01*
X87338135Y-61100000D02*
X86338135Y-61100000D01*
X99338135Y-75100000D02*
X100338135Y-75100000D01*
X100338135Y-61100000D02*
X99338135Y-61100000D01*
X100338135Y-61100000D02*
X100338135Y-62100000D01*
X100338135Y-74100000D02*
X100338135Y-75100000D01*
X103004740Y-100200000D02*
X103004740Y-99200000D01*
X103004740Y-113200000D02*
X103004740Y-112200000D01*
X103004740Y-113200000D02*
X104004740Y-113200000D01*
X104004740Y-99200000D02*
X103004740Y-99200000D01*
X116004740Y-113200000D02*
X117004740Y-113200000D01*
X117004740Y-99200000D02*
X116004740Y-99200000D01*
X117004740Y-99200000D02*
X117004740Y-100200000D01*
X117004740Y-112200000D02*
X117004740Y-113200000D01*
D13*
X39140000Y-87830000D02*
X39140000Y-85170000D01*
X31460000Y-87830000D02*
X39140000Y-87830000D01*
X31460000Y-87830000D02*
X31460000Y-85170000D01*
X31460000Y-85170000D02*
X39140000Y-85170000D01*
X30190000Y-87830000D02*
X28860000Y-87830000D01*
X28860000Y-87830000D02*
X28860000Y-86500000D01*
D10*
X181588135Y-62100000D02*
X181588135Y-61100000D01*
X181588135Y-75100000D02*
X181588135Y-74100000D01*
X181588135Y-75100000D02*
X182588135Y-75100000D01*
X182588135Y-61100000D02*
X181588135Y-61100000D01*
X194588135Y-75100000D02*
X195588135Y-75100000D01*
X195588135Y-61100000D02*
X194588135Y-61100000D01*
X195588135Y-61100000D02*
X195588135Y-62100000D01*
X195588135Y-74100000D02*
X195588135Y-75100000D01*
X167300000Y-24000000D02*
X167300000Y-23000000D01*
X167300000Y-37000000D02*
X167300000Y-36000000D01*
X167300000Y-37000000D02*
X168300000Y-37000000D01*
X168300000Y-23000000D02*
X167300000Y-23000000D01*
X180300000Y-37000000D02*
X181300000Y-37000000D01*
X181300000Y-23000000D02*
X180300000Y-23000000D01*
X181300000Y-23000000D02*
X181300000Y-24000000D01*
X181300000Y-36000000D02*
X181300000Y-37000000D01*
X60143750Y-62100000D02*
X60143750Y-61100000D01*
X60143750Y-75100000D02*
X60143750Y-74100000D01*
X60143750Y-75100000D02*
X61143750Y-75100000D01*
X61143750Y-61100000D02*
X60143750Y-61100000D01*
X73143750Y-75100000D02*
X74143750Y-75100000D01*
X74143750Y-61100000D02*
X73143750Y-61100000D01*
X74143750Y-61100000D02*
X74143750Y-62100000D01*
X74143750Y-74100000D02*
X74143750Y-75100000D01*
X114912450Y-81150000D02*
X114912450Y-80150000D01*
X114912450Y-94150000D02*
X114912450Y-93150000D01*
X114912450Y-94150000D02*
X115912450Y-94150000D01*
X115912450Y-80150000D02*
X114912450Y-80150000D01*
X127912450Y-94150000D02*
X128912450Y-94150000D01*
X128912450Y-80150000D02*
X127912450Y-80150000D01*
X128912450Y-80150000D02*
X128912450Y-81150000D01*
X128912450Y-93150000D02*
X128912450Y-94150000D01*
X157774920Y-43050000D02*
X157774920Y-42050000D01*
X157774920Y-56050000D02*
X157774920Y-55050000D01*
X157774920Y-56050000D02*
X158774920Y-56050000D01*
X158774920Y-42050000D02*
X157774920Y-42050000D01*
X170774920Y-56050000D02*
X171774920Y-56050000D01*
X171774920Y-42050000D02*
X170774920Y-42050000D01*
X171774920Y-42050000D02*
X171774920Y-43050000D01*
X171774920Y-55050000D02*
X171774920Y-56050000D01*
X105388135Y-62100000D02*
X105388135Y-61100000D01*
X105388135Y-75100000D02*
X105388135Y-74100000D01*
X105388135Y-75100000D02*
X106388135Y-75100000D01*
X106388135Y-61100000D02*
X105388135Y-61100000D01*
X118388135Y-75100000D02*
X119388135Y-75100000D01*
X119388135Y-61100000D02*
X118388135Y-61100000D01*
X119388135Y-61100000D02*
X119388135Y-62100000D01*
X119388135Y-74100000D02*
X119388135Y-75100000D01*
X205400000Y-24000000D02*
X205400000Y-23000000D01*
X205400000Y-37000000D02*
X205400000Y-36000000D01*
X205400000Y-37000000D02*
X206400000Y-37000000D01*
X206400000Y-23000000D02*
X205400000Y-23000000D01*
X218400000Y-37000000D02*
X219400000Y-37000000D01*
X219400000Y-23000000D02*
X218400000Y-23000000D01*
X219400000Y-23000000D02*
X219400000Y-24000000D01*
X219400000Y-36000000D02*
X219400000Y-37000000D01*
X214924920Y-43050000D02*
X214924920Y-42050000D01*
X214924920Y-56050000D02*
X214924920Y-55050000D01*
X214924920Y-56050000D02*
X215924920Y-56050000D01*
X215924920Y-42050000D02*
X214924920Y-42050000D01*
X227924920Y-56050000D02*
X228924920Y-56050000D01*
X228924920Y-42050000D02*
X227924920Y-42050000D01*
X228924920Y-42050000D02*
X228924920Y-43050000D01*
X228924920Y-55050000D02*
X228924920Y-56050000D01*
X362561090Y-100200000D02*
X362561090Y-99200000D01*
X362561090Y-113200000D02*
X362561090Y-112200000D01*
X362561090Y-113200000D02*
X363561090Y-113200000D01*
X363561090Y-99200000D02*
X362561090Y-99200000D01*
X375561090Y-113200000D02*
X376561090Y-113200000D01*
X376561090Y-99200000D02*
X375561090Y-99200000D01*
X376561090Y-99200000D02*
X376561090Y-100200000D01*
X376561090Y-112200000D02*
X376561090Y-113200000D01*
X172062450Y-81150000D02*
X172062450Y-80150000D01*
X172062450Y-94150000D02*
X172062450Y-93150000D01*
X172062450Y-94150000D02*
X173062450Y-94150000D01*
X173062450Y-80150000D02*
X172062450Y-80150000D01*
X185062450Y-94150000D02*
X186062450Y-94150000D01*
X186062450Y-80150000D02*
X185062450Y-80150000D01*
X186062450Y-80150000D02*
X186062450Y-81150000D01*
X186062450Y-93150000D02*
X186062450Y-94150000D01*
X272074920Y-43050000D02*
X272074920Y-42050000D01*
X272074920Y-56050000D02*
X272074920Y-55050000D01*
X272074920Y-56050000D02*
X273074920Y-56050000D01*
X273074920Y-42050000D02*
X272074920Y-42050000D01*
X285074920Y-56050000D02*
X286074920Y-56050000D01*
X286074920Y-42050000D02*
X285074920Y-42050000D01*
X286074920Y-42050000D02*
X286074920Y-43050000D01*
X286074920Y-55050000D02*
X286074920Y-56050000D01*
X253024920Y-43050000D02*
X253024920Y-42050000D01*
X253024920Y-56050000D02*
X253024920Y-55050000D01*
X253024920Y-56050000D02*
X254024920Y-56050000D01*
X254024920Y-42050000D02*
X253024920Y-42050000D01*
X266024920Y-56050000D02*
X267024920Y-56050000D01*
X267024920Y-42050000D02*
X266024920Y-42050000D01*
X267024920Y-42050000D02*
X267024920Y-43050000D01*
X267024920Y-55050000D02*
X267024920Y-56050000D01*
D13*
X341037500Y-74100000D02*
X341037500Y-62100000D01*
X379037500Y-62100000D02*
X341037500Y-62100000D01*
X379037500Y-74100000D02*
X341037500Y-74100000D01*
X379037500Y-74100000D02*
X379037500Y-62100000D01*
D10*
X186350000Y-24000000D02*
X186350000Y-23000000D01*
X186350000Y-37000000D02*
X186350000Y-36000000D01*
X186350000Y-37000000D02*
X187350000Y-37000000D01*
X187350000Y-23000000D02*
X186350000Y-23000000D01*
X199350000Y-37000000D02*
X200350000Y-37000000D01*
X200350000Y-23000000D02*
X199350000Y-23000000D01*
X200350000Y-23000000D02*
X200350000Y-24000000D01*
X200350000Y-36000000D02*
X200350000Y-37000000D01*
X224450000Y-24000000D02*
X224450000Y-23000000D01*
X224450000Y-37000000D02*
X224450000Y-36000000D01*
X224450000Y-37000000D02*
X225450000Y-37000000D01*
X225450000Y-23000000D02*
X224450000Y-23000000D01*
X237450000Y-37000000D02*
X238450000Y-37000000D01*
X238450000Y-23000000D02*
X237450000Y-23000000D01*
X238450000Y-23000000D02*
X238450000Y-24000000D01*
X238450000Y-36000000D02*
X238450000Y-37000000D01*
%LPC*%
D14*
X26500000Y-79000000D03*
X41500000Y-79000000D03*
D15*
X31000000Y-78950000D03*
X34000000Y-79000000D03*
X37000000Y-79000000D03*
D16*
X26380000Y-20760000D03*
D17*
X26380000Y-23300000D03*
X26380000Y-25840000D03*
X26380000Y-28380000D03*
X26380000Y-30920000D03*
X26380000Y-33460000D03*
X26380000Y-36000000D03*
X26380000Y-38540000D03*
X26380000Y-41080000D03*
X26380000Y-43620000D03*
X26380000Y-46160000D03*
X26380000Y-48700000D03*
X26380000Y-51240000D03*
X41620000Y-51240000D03*
X41620000Y-48700000D03*
X41620000Y-46160000D03*
X41620000Y-43620000D03*
X41620000Y-41080000D03*
X41620000Y-38540000D03*
X41620000Y-36000000D03*
X41620000Y-33460000D03*
X41620000Y-30920000D03*
X41620000Y-28380000D03*
X41620000Y-25840000D03*
X41620000Y-23300000D03*
X41620000Y-20760000D03*
X29460000Y-48145000D03*
X32000000Y-48145000D03*
X34540000Y-48145000D03*
D18*
X54920000Y-30000000D03*
D14*
X56190000Y-27460000D03*
D19*
X60000000Y-30000000D03*
D14*
X62540000Y-24920000D03*
D18*
X65080000Y-30000000D03*
D20*
X45000000Y-64100000D03*
D21*
X45000000Y-66425000D03*
X45000000Y-69575000D03*
D22*
X45000000Y-71900000D03*
D23*
X26500000Y-65500000D03*
D24*
X26500000Y-70500000D03*
X26500000Y-68000000D03*
D25*
X34000000Y-62400000D03*
X34000000Y-73600000D03*
D24*
X41000000Y-70500000D03*
X41000000Y-65500000D03*
D26*
X22381300Y-20381300D03*
X22381300Y-115818700D03*
X379086090Y-115725000D03*
X379086090Y-20475000D03*
X50381300Y-20381300D03*
X50381300Y-115818700D03*
X119529740Y-115818700D03*
X255263135Y-76600000D03*
X310028740Y-115818700D03*
X288599920Y-57550000D03*
D27*
X34000000Y-42000000D03*
D18*
X326380240Y-106200000D03*
D14*
X327650240Y-103660000D03*
D19*
X331460240Y-106200000D03*
D14*
X334000240Y-101120000D03*
D18*
X336540240Y-106200000D03*
D26*
X243354740Y-115818700D03*
D18*
X81112995Y-106200000D03*
D14*
X82382995Y-103660000D03*
D19*
X86192995Y-106200000D03*
D14*
X88732995Y-101120000D03*
D18*
X91272995Y-106200000D03*
X202558135Y-68100000D03*
D14*
X203828135Y-65560000D03*
D19*
X207638135Y-68100000D03*
D14*
X210178135Y-63020000D03*
D18*
X212718135Y-68100000D03*
X193032450Y-87150000D03*
D14*
X194302450Y-84610000D03*
D19*
X198112450Y-87150000D03*
D14*
X200652450Y-82070000D03*
D18*
X203192450Y-87150000D03*
X178744920Y-49050000D03*
D14*
X180014920Y-46510000D03*
D19*
X183824920Y-49050000D03*
D14*
X186364920Y-43970000D03*
D18*
X188904920Y-49050000D03*
X93020000Y-30000000D03*
D14*
X94290000Y-27460000D03*
D19*
X98100000Y-30000000D03*
D14*
X100640000Y-24920000D03*
D18*
X103180000Y-30000000D03*
X150170000Y-30000000D03*
D14*
X151440000Y-27460000D03*
D19*
X155250000Y-30000000D03*
D14*
X157790000Y-24920000D03*
D18*
X160330000Y-30000000D03*
D26*
X22381300Y-57550000D03*
D18*
X283520000Y-30000000D03*
D14*
X284790000Y-27460000D03*
D19*
X288600000Y-30000000D03*
D14*
X291140000Y-24920000D03*
D18*
X293680000Y-30000000D03*
X57301250Y-106200000D03*
D14*
X58571250Y-103660000D03*
D19*
X62381250Y-106200000D03*
D14*
X64921250Y-101120000D03*
D18*
X67461250Y-106200000D03*
X345431090Y-106200000D03*
D14*
X346701090Y-103660000D03*
D19*
X350511090Y-106200000D03*
D14*
X353051090Y-101120000D03*
D18*
X355591090Y-106200000D03*
X212082450Y-87150000D03*
D14*
X213352450Y-84610000D03*
D19*
X217162450Y-87150000D03*
D14*
X219702450Y-82070000D03*
D18*
X222242450Y-87150000D03*
X309713635Y-68100000D03*
D14*
X310983635Y-65560000D03*
D19*
X314793635Y-68100000D03*
D14*
X317333635Y-63020000D03*
D18*
X319873635Y-68100000D03*
X231132450Y-87150000D03*
D14*
X232402450Y-84610000D03*
D19*
X236212450Y-87150000D03*
D14*
X238752450Y-82070000D03*
D18*
X241292450Y-87150000D03*
X364482500Y-49050000D03*
D14*
X365752500Y-46510000D03*
D19*
X369562500Y-49050000D03*
D14*
X372102500Y-43970000D03*
D18*
X374642500Y-49050000D03*
D28*
X60006250Y-80165000D03*
D19*
X60006250Y-95405000D03*
D28*
X83806250Y-80165000D03*
D19*
X83806250Y-95405000D03*
D18*
X97782450Y-87150000D03*
D14*
X99052450Y-84610000D03*
D19*
X102862450Y-87150000D03*
D14*
X105402450Y-82070000D03*
D18*
X107942450Y-87150000D03*
X295423740Y-106200000D03*
D14*
X296693740Y-103660000D03*
D19*
X300503740Y-106200000D03*
D14*
X303043740Y-101120000D03*
D18*
X305583740Y-106200000D03*
X59682500Y-49050000D03*
D14*
X60952500Y-46510000D03*
D19*
X64762500Y-49050000D03*
D14*
X67302500Y-43970000D03*
D18*
X69842500Y-49050000D03*
X259708135Y-68100000D03*
D14*
X260978135Y-65560000D03*
D19*
X264788135Y-68100000D03*
D14*
X267328135Y-63020000D03*
D18*
X269868135Y-68100000D03*
X131120000Y-30000000D03*
D14*
X132390000Y-27460000D03*
D19*
X136200000Y-30000000D03*
D14*
X138740000Y-24920000D03*
D18*
X141280000Y-30000000D03*
X83494920Y-49050000D03*
D14*
X84764920Y-46510000D03*
D19*
X88574920Y-49050000D03*
D14*
X91114920Y-43970000D03*
D18*
X93654920Y-49050000D03*
X264470000Y-30000000D03*
D14*
X265740000Y-27460000D03*
D19*
X269550000Y-30000000D03*
D14*
X272090000Y-24920000D03*
D18*
X274630000Y-30000000D03*
X278758135Y-68100000D03*
D14*
X280028135Y-65560000D03*
D19*
X283838135Y-68100000D03*
D14*
X286378135Y-63020000D03*
D18*
X288918135Y-68100000D03*
X316857420Y-49050000D03*
D14*
X318127420Y-46510000D03*
D19*
X321937420Y-49050000D03*
D14*
X324477420Y-43970000D03*
D18*
X327017420Y-49050000D03*
X164458135Y-68100000D03*
D14*
X165728135Y-65560000D03*
D19*
X169538135Y-68100000D03*
D14*
X172078135Y-63020000D03*
D18*
X174618135Y-68100000D03*
D26*
X221925000Y-20381300D03*
D18*
X73970000Y-30000000D03*
D14*
X75240000Y-27460000D03*
D19*
X79050000Y-30000000D03*
D14*
X81590000Y-24920000D03*
D18*
X84130000Y-30000000D03*
D26*
X179063135Y-76600000D03*
D29*
X32730000Y-57050000D03*
D30*
X34730000Y-57050000D03*
D18*
X345431090Y-87150000D03*
D14*
X346701090Y-84610000D03*
D19*
X350511090Y-87150000D03*
D14*
X353051090Y-82070000D03*
D18*
X355591090Y-87150000D03*
X345432500Y-49050000D03*
D14*
X346702500Y-46510000D03*
D19*
X350512500Y-49050000D03*
D14*
X353052500Y-43970000D03*
D18*
X355592500Y-49050000D03*
D26*
X145725000Y-20381300D03*
D18*
X364482500Y-30000000D03*
D14*
X365752500Y-27460000D03*
D19*
X369562500Y-30000000D03*
D14*
X372102500Y-24920000D03*
D18*
X374642500Y-30000000D03*
X312095000Y-30000000D03*
D14*
X313365000Y-27460000D03*
D19*
X317175000Y-30000000D03*
D14*
X319715000Y-24920000D03*
D18*
X322255000Y-30000000D03*
X145408135Y-68100000D03*
D14*
X146678135Y-65560000D03*
D19*
X150488135Y-68100000D03*
D14*
X153028135Y-63020000D03*
D18*
X155568135Y-68100000D03*
D28*
X133816590Y-99215000D03*
D19*
X133816590Y-114455000D03*
D28*
X229066590Y-99215000D03*
D19*
X229066590Y-114455000D03*
D18*
X221608135Y-68100000D03*
D14*
X222878135Y-65560000D03*
D19*
X226688135Y-68100000D03*
D14*
X229228135Y-63020000D03*
D18*
X231768135Y-68100000D03*
X235894920Y-49050000D03*
D14*
X237164920Y-46510000D03*
D19*
X240974920Y-49050000D03*
D14*
X243514920Y-43970000D03*
D18*
X246054920Y-49050000D03*
X154932450Y-87150000D03*
D14*
X156202450Y-84610000D03*
D19*
X160012450Y-87150000D03*
D14*
X162552450Y-82070000D03*
D18*
X165092450Y-87150000D03*
X197794920Y-49050000D03*
D14*
X199064920Y-46510000D03*
D19*
X202874920Y-49050000D03*
D14*
X205414920Y-43970000D03*
D18*
X207954920Y-49050000D03*
X240658135Y-68100000D03*
D14*
X241928135Y-65560000D03*
D19*
X245738135Y-68100000D03*
D14*
X248278135Y-63020000D03*
D18*
X250818135Y-68100000D03*
X245420000Y-30000000D03*
D14*
X246690000Y-27460000D03*
D19*
X250500000Y-30000000D03*
D14*
X253040000Y-24920000D03*
D18*
X255580000Y-30000000D03*
X293044920Y-49050000D03*
D14*
X294314920Y-46510000D03*
D19*
X298124920Y-49050000D03*
D14*
X300664920Y-43970000D03*
D18*
X303204920Y-49050000D03*
D26*
X379086090Y-57550000D03*
D18*
X345432500Y-30000000D03*
D14*
X346702500Y-27460000D03*
D19*
X350512500Y-30000000D03*
D14*
X353052500Y-24920000D03*
D18*
X355592500Y-30000000D03*
X247799740Y-106200000D03*
D14*
X249069740Y-103660000D03*
D19*
X252879740Y-106200000D03*
D14*
X255419740Y-101120000D03*
D18*
X257959740Y-106200000D03*
X176361740Y-106200000D03*
D14*
X177631740Y-103660000D03*
D19*
X181441740Y-106200000D03*
D14*
X183981740Y-101120000D03*
D18*
X186521740Y-106200000D03*
X269232450Y-87150000D03*
D14*
X270502450Y-84610000D03*
D19*
X274312450Y-87150000D03*
D14*
X276852450Y-82070000D03*
D18*
X279392450Y-87150000D03*
X304950450Y-87150000D03*
D14*
X306220450Y-84610000D03*
D19*
X310030450Y-87150000D03*
D14*
X312570450Y-82070000D03*
D18*
X315110450Y-87150000D03*
X250182450Y-87150000D03*
D14*
X251452450Y-84610000D03*
D19*
X255262450Y-87150000D03*
D14*
X257802450Y-82070000D03*
D18*
X260342450Y-87150000D03*
X102544920Y-49050000D03*
D14*
X103814920Y-46510000D03*
D19*
X107624920Y-49050000D03*
D14*
X110164920Y-43970000D03*
D18*
X112704920Y-49050000D03*
X112070000Y-30000000D03*
D14*
X113340000Y-27460000D03*
D19*
X117150000Y-30000000D03*
D14*
X119690000Y-24920000D03*
D18*
X122230000Y-30000000D03*
D28*
X298130450Y-80165000D03*
D19*
X298130450Y-95405000D03*
D28*
X321930450Y-80165000D03*
D19*
X321930450Y-95405000D03*
D18*
X135882450Y-87150000D03*
D14*
X137152450Y-84610000D03*
D19*
X140962450Y-87150000D03*
D14*
X143502450Y-82070000D03*
D18*
X146042450Y-87150000D03*
X140644920Y-49050000D03*
D14*
X141914920Y-46510000D03*
D19*
X145724920Y-49050000D03*
D14*
X148264920Y-43970000D03*
D18*
X150804920Y-49050000D03*
X121594920Y-49050000D03*
D14*
X122864920Y-46510000D03*
D19*
X126674920Y-49050000D03*
D14*
X129214920Y-43970000D03*
D18*
X131754920Y-49050000D03*
D28*
X305275000Y-23015000D03*
D19*
X305275000Y-38255000D03*
D28*
X329075000Y-23015000D03*
D19*
X329075000Y-38255000D03*
D18*
X126358135Y-68100000D03*
D14*
X127628135Y-65560000D03*
D19*
X131438135Y-68100000D03*
D14*
X133978135Y-63020000D03*
D18*
X136518135Y-68100000D03*
X66826250Y-87150000D03*
D14*
X68096250Y-84610000D03*
D19*
X71906250Y-87150000D03*
D14*
X74446250Y-82070000D03*
D18*
X76986250Y-87150000D03*
X271611740Y-106200000D03*
D14*
X272881740Y-103660000D03*
D19*
X276691740Y-106200000D03*
D14*
X279231740Y-101120000D03*
D18*
X281771740Y-106200000D03*
X88258135Y-68100000D03*
D14*
X89528135Y-65560000D03*
D19*
X93338135Y-68100000D03*
D14*
X95878135Y-63020000D03*
D18*
X98418135Y-68100000D03*
X104924740Y-106200000D03*
D14*
X106194740Y-103660000D03*
D19*
X110004740Y-106200000D03*
D14*
X112544740Y-101120000D03*
D18*
X115084740Y-106200000D03*
D26*
X212399920Y-57550000D03*
D31*
X37810000Y-86500000D03*
X35270000Y-86500000D03*
X32730000Y-86500000D03*
D32*
X30190000Y-86500000D03*
D33*
X23750000Y-109500000D03*
X44250000Y-109500000D03*
X23750000Y-86500000D03*
X44250000Y-86500000D03*
D18*
X183508135Y-68100000D03*
D14*
X184778135Y-65560000D03*
D19*
X188588135Y-68100000D03*
D14*
X191128135Y-63020000D03*
D18*
X193668135Y-68100000D03*
X169220000Y-30000000D03*
D14*
X170490000Y-27460000D03*
D19*
X174300000Y-30000000D03*
D14*
X176840000Y-24920000D03*
D18*
X179380000Y-30000000D03*
X62063750Y-68100000D03*
D14*
X63333750Y-65560000D03*
D19*
X67143750Y-68100000D03*
D14*
X69683750Y-63020000D03*
D18*
X72223750Y-68100000D03*
X116832450Y-87150000D03*
D14*
X118102450Y-84610000D03*
D19*
X121912450Y-87150000D03*
D14*
X124452450Y-82070000D03*
D18*
X126992450Y-87150000D03*
X159694920Y-49050000D03*
D14*
X160964920Y-46510000D03*
D19*
X164774920Y-49050000D03*
D14*
X167314920Y-43970000D03*
D18*
X169854920Y-49050000D03*
X107308135Y-68100000D03*
D14*
X108578135Y-65560000D03*
D19*
X112388135Y-68100000D03*
D14*
X114928135Y-63020000D03*
D18*
X117468135Y-68100000D03*
X207320000Y-30000000D03*
D14*
X208590000Y-27460000D03*
D19*
X212400000Y-30000000D03*
D14*
X214940000Y-24920000D03*
D18*
X217480000Y-30000000D03*
D28*
X302893635Y-61115000D03*
D19*
X302893635Y-76355000D03*
D28*
X326693635Y-61115000D03*
D19*
X326693635Y-76355000D03*
D26*
X50381300Y-57550000D03*
D18*
X216844920Y-49050000D03*
D14*
X218114920Y-46510000D03*
D19*
X221924920Y-49050000D03*
D14*
X224464920Y-43970000D03*
D18*
X227004920Y-49050000D03*
X364481090Y-106200000D03*
D14*
X365751090Y-103660000D03*
D19*
X369561090Y-106200000D03*
D14*
X372101090Y-101120000D03*
D18*
X374641090Y-106200000D03*
D26*
X136199920Y-57550000D03*
D18*
X173982450Y-87150000D03*
D14*
X175252450Y-84610000D03*
D19*
X179062450Y-87150000D03*
D14*
X181602450Y-82070000D03*
D18*
X184142450Y-87150000D03*
X273994920Y-49050000D03*
D14*
X275264920Y-46510000D03*
D19*
X279074920Y-49050000D03*
D14*
X281614920Y-43970000D03*
D18*
X284154920Y-49050000D03*
D26*
X298125000Y-20381300D03*
D18*
X254944920Y-49050000D03*
D14*
X256214920Y-46510000D03*
D19*
X260024920Y-49050000D03*
D14*
X262564920Y-43970000D03*
D18*
X265104920Y-49050000D03*
D32*
X342537500Y-71910000D03*
D31*
X342537500Y-69370000D03*
X342537500Y-66830000D03*
X342537500Y-64290000D03*
D18*
X188270000Y-30000000D03*
D14*
X189540000Y-27460000D03*
D19*
X193350000Y-30000000D03*
D14*
X195890000Y-24920000D03*
D18*
X198430000Y-30000000D03*
X226370000Y-30000000D03*
D14*
X227640000Y-27460000D03*
D19*
X231450000Y-30000000D03*
D14*
X233990000Y-24920000D03*
D18*
X236530000Y-30000000D03*
D20*
X151350000Y-38500000D03*
D22*
X159150000Y-38500000D03*
D20*
X346612500Y-57550000D03*
D22*
X354412500Y-57550000D03*
D20*
X170400000Y-38500000D03*
D22*
X178200000Y-38500000D03*
D20*
X208500000Y-38500000D03*
D22*
X216300000Y-38500000D03*
D20*
X194212450Y-95650000D03*
D22*
X202012450Y-95650000D03*
D20*
X89438135Y-76600000D03*
D22*
X97238135Y-76600000D03*
D20*
X175162450Y-95650000D03*
D22*
X182962450Y-95650000D03*
D20*
X346611090Y-95650000D03*
D22*
X354411090Y-95650000D03*
D20*
X296604590Y-114700000D03*
D22*
X304404590Y-114700000D03*
D20*
X227550000Y-38500000D03*
D22*
X235350000Y-38500000D03*
D20*
X284700000Y-38500000D03*
D22*
X292500000Y-38500000D03*
D20*
X184688135Y-76600000D03*
D22*
X192488135Y-76600000D03*
D20*
X213262450Y-95650000D03*
D22*
X221062450Y-95650000D03*
D20*
X122774920Y-57550000D03*
D22*
X130574920Y-57550000D03*
D20*
X141824920Y-57550000D03*
D22*
X149624920Y-57550000D03*
D20*
X365661090Y-114700000D03*
D22*
X373461090Y-114700000D03*
D20*
X63243750Y-76600000D03*
D22*
X71043750Y-76600000D03*
D20*
X275174920Y-57550000D03*
D22*
X282974920Y-57550000D03*
D20*
X177541590Y-114700000D03*
D22*
X185341590Y-114700000D03*
D20*
X56100000Y-38500000D03*
D22*
X63900000Y-38500000D03*
D20*
X294224920Y-57550000D03*
D22*
X302024920Y-57550000D03*
D20*
X365662500Y-38500000D03*
D22*
X373462500Y-38500000D03*
D20*
X232312450Y-95650000D03*
D22*
X240112450Y-95650000D03*
D20*
X248979590Y-114700000D03*
D22*
X256779590Y-114700000D03*
D20*
X265650000Y-38500000D03*
D22*
X273450000Y-38500000D03*
D20*
X160874920Y-57550000D03*
D22*
X168674920Y-57550000D03*
D20*
X270412450Y-95650000D03*
D22*
X278212450Y-95650000D03*
D20*
X260888135Y-76600000D03*
D22*
X268688135Y-76600000D03*
D20*
X310893635Y-76600000D03*
D22*
X318693635Y-76600000D03*
D20*
X203738135Y-76600000D03*
D22*
X211538135Y-76600000D03*
D20*
X246600000Y-38500000D03*
D22*
X254400000Y-38500000D03*
D20*
X58481250Y-114700000D03*
D22*
X66281250Y-114700000D03*
D20*
X218024920Y-57550000D03*
D22*
X225824920Y-57550000D03*
D20*
X306130450Y-95650000D03*
D22*
X313930450Y-95650000D03*
D20*
X82292995Y-114700000D03*
D22*
X90092995Y-114700000D03*
D20*
X75150000Y-38500000D03*
D22*
X82950000Y-38500000D03*
D20*
X346611090Y-114700000D03*
D22*
X354411090Y-114700000D03*
D20*
X118012450Y-95650000D03*
D22*
X125812450Y-95650000D03*
D20*
X113250000Y-38500000D03*
D22*
X121050000Y-38500000D03*
D20*
X327561090Y-114700000D03*
D22*
X335361090Y-114700000D03*
D20*
X106104740Y-114700000D03*
D22*
X113904740Y-114700000D03*
D20*
X222788135Y-76600000D03*
D22*
X230588135Y-76600000D03*
D20*
X179924920Y-57550000D03*
D22*
X187724920Y-57550000D03*
D20*
X251362450Y-95650000D03*
D22*
X259162450Y-95650000D03*
D20*
X60862500Y-57550000D03*
D22*
X68662500Y-57550000D03*
D20*
X279938135Y-76600000D03*
D22*
X287738135Y-76600000D03*
D20*
X198974920Y-57550000D03*
D22*
X206774920Y-57550000D03*
D20*
X132300000Y-38500000D03*
D22*
X140100000Y-38500000D03*
D20*
X237074920Y-57550000D03*
D22*
X244874920Y-57550000D03*
D20*
X108488135Y-76600000D03*
D22*
X116288135Y-76600000D03*
D20*
X103724920Y-57550000D03*
D22*
X111524920Y-57550000D03*
D20*
X272791590Y-114700000D03*
D22*
X280591590Y-114700000D03*
D20*
X313275000Y-38500000D03*
D22*
X321075000Y-38500000D03*
D20*
X165638135Y-76600000D03*
D22*
X173438135Y-76600000D03*
D20*
X318037420Y-57550000D03*
D22*
X325837420Y-57550000D03*
D20*
X189450000Y-38500000D03*
D22*
X197250000Y-38500000D03*
D20*
X127538135Y-76600000D03*
D22*
X135338135Y-76600000D03*
D20*
X156112450Y-95650000D03*
D22*
X163912450Y-95650000D03*
D20*
X98962450Y-95650000D03*
D22*
X106762450Y-95650000D03*
D20*
X241838135Y-76600000D03*
D22*
X249638135Y-76600000D03*
D20*
X68006250Y-95650000D03*
D22*
X75806250Y-95650000D03*
D20*
X256124920Y-57550000D03*
D22*
X263924920Y-57550000D03*
D20*
X146588135Y-76600000D03*
D22*
X154388135Y-76600000D03*
D20*
X365662500Y-57550000D03*
D22*
X373462500Y-57550000D03*
D20*
X94200000Y-38500000D03*
D22*
X102000000Y-38500000D03*
D20*
X84674920Y-57550000D03*
D22*
X92474920Y-57550000D03*
D20*
X137062450Y-95650000D03*
D22*
X144862450Y-95650000D03*
D20*
X346612500Y-38500000D03*
D22*
X354412500Y-38500000D03*
%LPD*%
M02*
