M48
; DRILL file {KiCad 8.0.7} date 2025-01-01T13:30:49+1100
; FORMAT={-:-/ absolute / metric / decimal}
; #@! TF.CreationDate,2025-01-01T13:30:49+11:00
; #@! TF.GenerationSoftware,Kicad,Pcbnew,8.0.7
; #@! TF.FileFunction,NonPlated,1,2,NPTH
FMAT,2
METRIC
; #@! TA.AperFunction,NonPlated,NPTH,ComponentDrill
T1C1.702
; #@! TA.AperFunction,NonPlated,NPTH,ComponentDrill
T2C2.200
; #@! TA.AperFunction,NonPlated,NPTH,ComponentDrill
T3C3.000
; #@! TA.AperFunction,NonPlated,NPTH,ComponentDrill
T4C3.048
; #@! TA.AperFunction,NonPlated,NPTH,ComponentDrill
T5C3.988
; #@! TA.AperFunction,NonPlated,NPTH,ComponentDrill
T6C5.300
%
G90
G05
T1
X54.92Y-30.0
X57.301Y-106.2
X59.682Y-49.05
X62.064Y-68.1
X65.08Y-30.0
X66.826Y-87.15
X67.461Y-106.2
X69.843Y-49.05
X72.224Y-68.1
X73.97Y-30.0
X76.986Y-87.15
X81.113Y-106.2
X83.495Y-49.05
X84.13Y-30.0
X88.258Y-68.1
X91.273Y-106.2
X93.02Y-30.0
X93.655Y-49.05
X97.782Y-87.15
X98.418Y-68.1
X102.545Y-49.05
X103.18Y-30.0
X104.925Y-106.2
X107.308Y-68.1
X107.942Y-87.15
X112.07Y-30.0
X112.705Y-49.05
X115.085Y-106.2
X116.832Y-87.15
X117.468Y-68.1
X121.595Y-49.05
X122.23Y-30.0
X126.358Y-68.1
X126.992Y-87.15
X131.12Y-30.0
X131.755Y-49.05
X135.882Y-87.15
X136.518Y-68.1
X140.645Y-49.05
X141.28Y-30.0
X145.408Y-68.1
X146.042Y-87.15
X150.17Y-30.0
X150.805Y-49.05
X154.932Y-87.15
X155.568Y-68.1
X159.695Y-49.05
X160.33Y-30.0
X164.458Y-68.1
X165.092Y-87.15
X169.22Y-30.0
X169.855Y-49.05
X173.982Y-87.15
X174.618Y-68.1
X176.362Y-106.2
X178.745Y-49.05
X179.38Y-30.0
X183.508Y-68.1
X184.142Y-87.15
X186.522Y-106.2
X188.27Y-30.0
X188.905Y-49.05
X193.032Y-87.15
X193.668Y-68.1
X197.795Y-49.05
X198.43Y-30.0
X202.558Y-68.1
X203.192Y-87.15
X207.32Y-30.0
X207.955Y-49.05
X212.082Y-87.15
X212.718Y-68.1
X216.845Y-49.05
X217.48Y-30.0
X221.608Y-68.1
X222.242Y-87.15
X226.37Y-30.0
X227.005Y-49.05
X231.132Y-87.15
X231.768Y-68.1
X235.895Y-49.05
X236.53Y-30.0
X240.658Y-68.1
X241.292Y-87.15
X245.42Y-30.0
X246.055Y-49.05
X247.8Y-106.2
X250.182Y-87.15
X250.818Y-68.1
X254.945Y-49.05
X255.58Y-30.0
X257.96Y-106.2
X259.708Y-68.1
X260.342Y-87.15
X264.47Y-30.0
X265.105Y-49.05
X269.232Y-87.15
X269.868Y-68.1
X271.612Y-106.2
X273.995Y-49.05
X274.63Y-30.0
X278.758Y-68.1
X279.392Y-87.15
X281.772Y-106.2
X283.52Y-30.0
X284.155Y-49.05
X288.918Y-68.1
X293.045Y-49.05
X293.68Y-30.0
X295.424Y-106.2
X303.205Y-49.05
X304.95Y-87.15
X305.584Y-106.2
X309.714Y-68.1
X312.095Y-30.0
X315.11Y-87.15
X316.857Y-49.05
X319.874Y-68.1
X322.255Y-30.0
X326.38Y-106.2
X327.017Y-49.05
X336.54Y-106.2
X345.431Y-87.15
X345.431Y-106.2
X345.433Y-30.0
X345.433Y-49.05
X355.591Y-87.15
X355.591Y-106.2
X355.592Y-30.0
X355.592Y-49.05
X364.481Y-106.2
X364.482Y-30.0
X364.482Y-49.05
X374.641Y-106.2
X374.642Y-30.0
X374.642Y-49.05
T2
X22.381Y-20.381
X22.381Y-57.55
X22.381Y-115.819
X50.381Y-20.381
X50.381Y-57.55
X50.381Y-115.819
X119.53Y-115.819
X136.2Y-57.55
X145.725Y-20.381
X179.063Y-76.6
X212.4Y-57.55
X221.925Y-20.381
X243.355Y-115.819
X255.263Y-76.6
X288.6Y-57.55
X298.125Y-20.381
X310.029Y-115.819
X379.086Y-20.475
X379.086Y-57.55
X379.086Y-115.725
T3
X56.19Y-27.46
X58.571Y-103.66
X60.953Y-46.51
X62.54Y-24.92
X63.334Y-65.56
X64.921Y-101.12
X67.302Y-43.97
X68.096Y-84.61
X69.684Y-63.02
X74.446Y-82.07
X75.24Y-27.46
X81.59Y-24.92
X82.383Y-103.66
X84.765Y-46.51
X88.733Y-101.12
X89.528Y-65.56
X91.115Y-43.97
X94.29Y-27.46
X95.878Y-63.02
X99.052Y-84.61
X100.64Y-24.92
X103.815Y-46.51
X105.402Y-82.07
X106.195Y-103.66
X108.578Y-65.56
X110.165Y-43.97
X112.545Y-101.12
X113.34Y-27.46
X114.928Y-63.02
X118.102Y-84.61
X119.69Y-24.92
X122.865Y-46.51
X124.452Y-82.07
X127.628Y-65.56
X129.215Y-43.97
X132.39Y-27.46
X133.978Y-63.02
X137.152Y-84.61
X138.74Y-24.92
X141.915Y-46.51
X143.502Y-82.07
X146.678Y-65.56
X148.265Y-43.97
X151.44Y-27.46
X153.028Y-63.02
X156.202Y-84.61
X157.79Y-24.92
X160.965Y-46.51
X162.552Y-82.07
X165.728Y-65.56
X167.315Y-43.97
X170.49Y-27.46
X172.078Y-63.02
X175.252Y-84.61
X176.84Y-24.92
X177.632Y-103.66
X180.015Y-46.51
X181.602Y-82.07
X183.982Y-101.12
X184.778Y-65.56
X186.365Y-43.97
X189.54Y-27.46
X191.128Y-63.02
X194.302Y-84.61
X195.89Y-24.92
X199.065Y-46.51
X200.652Y-82.07
X203.828Y-65.56
X205.415Y-43.97
X208.59Y-27.46
X210.178Y-63.02
X213.352Y-84.61
X214.94Y-24.92
X218.115Y-46.51
X219.702Y-82.07
X222.878Y-65.56
X224.465Y-43.97
X227.64Y-27.46
X229.228Y-63.02
X232.402Y-84.61
X233.99Y-24.92
X237.165Y-46.51
X238.752Y-82.07
X241.928Y-65.56
X243.515Y-43.97
X246.69Y-27.46
X248.278Y-63.02
X249.07Y-103.66
X251.452Y-84.61
X253.04Y-24.92
X255.42Y-101.12
X256.215Y-46.51
X257.802Y-82.07
X260.978Y-65.56
X262.565Y-43.97
X265.74Y-27.46
X267.328Y-63.02
X270.502Y-84.61
X272.09Y-24.92
X272.882Y-103.66
X275.265Y-46.51
X276.852Y-82.07
X279.232Y-101.12
X280.028Y-65.56
X281.615Y-43.97
X284.79Y-27.46
X286.378Y-63.02
X291.14Y-24.92
X294.315Y-46.51
X296.694Y-103.66
X300.665Y-43.97
X303.044Y-101.12
X306.22Y-84.61
X310.984Y-65.56
X312.57Y-82.07
X313.365Y-27.46
X317.334Y-63.02
X318.127Y-46.51
X319.715Y-24.92
X324.477Y-43.97
X327.65Y-103.66
X334.0Y-101.12
X346.701Y-84.61
X346.701Y-103.66
X346.702Y-27.46
X346.702Y-46.51
X353.051Y-82.07
X353.051Y-101.12
X353.053Y-24.92
X353.053Y-43.97
X365.751Y-103.66
X365.752Y-27.46
X365.752Y-46.51
X372.101Y-101.12
X372.102Y-24.92
X372.102Y-43.97
T4
X60.006Y-80.165
X83.806Y-80.165
X133.817Y-99.215
X229.067Y-99.215
X298.13Y-80.165
X302.894Y-61.115
X305.275Y-23.015
X321.93Y-80.165
X326.694Y-61.115
X329.075Y-23.015
T5
X60.0Y-30.0
X60.006Y-95.405
X62.381Y-106.2
X64.763Y-49.05
X67.144Y-68.1
X71.906Y-87.15
X79.05Y-30.0
X83.806Y-95.405
X86.193Y-106.2
X88.575Y-49.05
X93.338Y-68.1
X98.1Y-30.0
X102.862Y-87.15
X107.625Y-49.05
X110.005Y-106.2
X112.388Y-68.1
X117.15Y-30.0
X121.912Y-87.15
X126.675Y-49.05
X131.438Y-68.1
X133.817Y-114.455
X136.2Y-30.0
X140.962Y-87.15
X145.725Y-49.05
X150.488Y-68.1
X155.25Y-30.0
X160.012Y-87.15
X164.775Y-49.05
X169.538Y-68.1
X174.3Y-30.0
X179.062Y-87.15
X181.442Y-106.2
X183.825Y-49.05
X188.588Y-68.1
X193.35Y-30.0
X198.112Y-87.15
X202.875Y-49.05
X207.638Y-68.1
X212.4Y-30.0
X217.162Y-87.15
X221.925Y-49.05
X226.688Y-68.1
X229.067Y-114.455
X231.45Y-30.0
X236.212Y-87.15
X240.975Y-49.05
X245.738Y-68.1
X250.5Y-30.0
X252.88Y-106.2
X255.262Y-87.15
X260.025Y-49.05
X264.788Y-68.1
X269.55Y-30.0
X274.312Y-87.15
X276.692Y-106.2
X279.075Y-49.05
X283.838Y-68.1
X288.6Y-30.0
X298.125Y-49.05
X298.13Y-95.405
X300.504Y-106.2
X302.894Y-76.355
X305.275Y-38.255
X310.03Y-87.15
X314.794Y-68.1
X317.175Y-30.0
X321.93Y-95.405
X321.937Y-49.05
X326.694Y-76.355
X329.075Y-38.255
X331.46Y-106.2
X350.511Y-87.15
X350.511Y-106.2
X350.512Y-30.0
X350.512Y-49.05
X369.561Y-106.2
X369.562Y-30.0
X369.562Y-49.05
T6
X34.0Y-42.0
M30
