%TF.GenerationSoftware,KiCad,Pcbnew,8.0.7*%
%TF.CreationDate,2025-01-01T13:31:27+11:00*%
%TF.ProjectId,Mainpcb,4d61696e-7063-4622-9e6b-696361645f70,rev?*%
%TF.SameCoordinates,Original*%
%TF.FileFunction,Drillmap*%
%TF.FilePolarity,Positive*%
%FSLAX45Y45*%
G04 Gerber Fmt 4.5, Leading zero omitted, Abs format (unit mm)*
G04 Created by KiCad (PCBNEW 8.0.7) date 2025-01-01 13:31:27*
%MOMM*%
%LPD*%
G01*
G04 APERTURE LIST*
%ADD10C,0.100000*%
%ADD11C,0.200000*%
%ADD12C,0.109220*%
%ADD13C,0.150000*%
%ADD14C,0.220000*%
%ADD15C,0.280000*%
G04 APERTURE END LIST*
D10*
X2000000Y-2038130D02*
X2000000Y-11581870D01*
X38156109Y-2047500D02*
X38156109Y-11572500D01*
X37908609Y-1800000D02*
X2238130Y-1800000D01*
X37908609Y-11820000D02*
X2238130Y-11820000D01*
X2238130Y-11820000D02*
G75*
G02*
X2000000Y-11581870I0J238130D01*
G01*
X37908609Y-1800000D02*
G75*
G02*
X38156110Y-2047500I1J-247500D01*
G01*
X38156109Y-11572500D02*
G75*
G02*
X37908609Y-11819999I-247499J0D01*
G01*
X2000000Y-2038130D02*
G75*
G02*
X2238130Y-1800000I238130J0D01*
G01*
D11*
D10*
X2702500Y-8578735D02*
X2742500Y-8618735D01*
X2742500Y-8578735D02*
X2702500Y-8618735D01*
X4578735Y-5978735D02*
X4618735Y-6018735D01*
X4618735Y-5978735D02*
X4578735Y-6018735D01*
X6883500Y-3602500D02*
X6923500Y-3642500D01*
X6923500Y-3602500D02*
X6883500Y-3642500D01*
X9030000Y-9030000D02*
X9070000Y-9070000D01*
X9070000Y-9030000D02*
X9030000Y-9070000D01*
X10680000Y-3530000D02*
X10720000Y-3570000D01*
X10720000Y-3530000D02*
X10680000Y-3570000D01*
X14530000Y-3452500D02*
X14570000Y-3492500D01*
X14570000Y-3452500D02*
X14530000Y-3492500D01*
X18134500Y-3380000D02*
X18174500Y-3420000D01*
X18174500Y-3380000D02*
X18134500Y-3420000D01*
X21730000Y-3280000D02*
X21770000Y-3320000D01*
X21770000Y-3280000D02*
X21730000Y-3320000D01*
X25373500Y-2186500D02*
X25413500Y-2226500D01*
X25413500Y-2186500D02*
X25373500Y-2226500D01*
X29077000Y-2080000D02*
X29117000Y-2120000D01*
X29117000Y-2080000D02*
X29077000Y-2120000D01*
X32630000Y-6545500D02*
X32670000Y-6585500D01*
X32670000Y-6545500D02*
X32630000Y-6585500D01*
X4535000Y-6410000D02*
G75*
G02*
X4465000Y-6410000I-35000J0D01*
G01*
X4465000Y-6410000D02*
G75*
G02*
X4535000Y-6410000I35000J0D01*
G01*
X4535000Y-7190000D02*
G75*
G02*
X4465000Y-7190000I-35000J0D01*
G01*
X4465000Y-7190000D02*
G75*
G02*
X4535000Y-7190000I35000J0D01*
G01*
X5645000Y-3850000D02*
G75*
G02*
X5575000Y-3850000I-35000J0D01*
G01*
X5575000Y-3850000D02*
G75*
G02*
X5645000Y-3850000I35000J0D01*
G01*
X5883125Y-11470000D02*
G75*
G02*
X5813125Y-11470000I-35000J0D01*
G01*
X5813125Y-11470000D02*
G75*
G02*
X5883125Y-11470000I35000J0D01*
G01*
X6121250Y-5755000D02*
G75*
G02*
X6051250Y-5755000I-35000J0D01*
G01*
X6051250Y-5755000D02*
G75*
G02*
X6121250Y-5755000I35000J0D01*
G01*
X6359375Y-7660000D02*
G75*
G02*
X6289375Y-7660000I-35000J0D01*
G01*
X6289375Y-7660000D02*
G75*
G02*
X6359375Y-7660000I35000J0D01*
G01*
X6425000Y-3850000D02*
G75*
G02*
X6355000Y-3850000I-35000J0D01*
G01*
X6355000Y-3850000D02*
G75*
G02*
X6425000Y-3850000I35000J0D01*
G01*
X6663125Y-11470000D02*
G75*
G02*
X6593125Y-11470000I-35000J0D01*
G01*
X6593125Y-11470000D02*
G75*
G02*
X6663125Y-11470000I35000J0D01*
G01*
X6835625Y-9565000D02*
G75*
G02*
X6765625Y-9565000I-35000J0D01*
G01*
X6765625Y-9565000D02*
G75*
G02*
X6835625Y-9565000I35000J0D01*
G01*
X6901250Y-5755000D02*
G75*
G02*
X6831250Y-5755000I-35000J0D01*
G01*
X6831250Y-5755000D02*
G75*
G02*
X6901250Y-5755000I35000J0D01*
G01*
X7139375Y-7660000D02*
G75*
G02*
X7069375Y-7660000I-35000J0D01*
G01*
X7069375Y-7660000D02*
G75*
G02*
X7139375Y-7660000I35000J0D01*
G01*
X7550000Y-3850000D02*
G75*
G02*
X7480000Y-3850000I-35000J0D01*
G01*
X7480000Y-3850000D02*
G75*
G02*
X7550000Y-3850000I35000J0D01*
G01*
X7615625Y-9565000D02*
G75*
G02*
X7545625Y-9565000I-35000J0D01*
G01*
X7545625Y-9565000D02*
G75*
G02*
X7615625Y-9565000I35000J0D01*
G01*
X8264299Y-11470000D02*
G75*
G02*
X8194299Y-11470000I-35000J0D01*
G01*
X8194299Y-11470000D02*
G75*
G02*
X8264299Y-11470000I35000J0D01*
G01*
X8330000Y-3850000D02*
G75*
G02*
X8260000Y-3850000I-35000J0D01*
G01*
X8260000Y-3850000D02*
G75*
G02*
X8330000Y-3850000I35000J0D01*
G01*
X8502492Y-5755000D02*
G75*
G02*
X8432492Y-5755000I-35000J0D01*
G01*
X8432492Y-5755000D02*
G75*
G02*
X8502492Y-5755000I35000J0D01*
G01*
X8978814Y-7660000D02*
G75*
G02*
X8908814Y-7660000I-35000J0D01*
G01*
X8908814Y-7660000D02*
G75*
G02*
X8978814Y-7660000I35000J0D01*
G01*
X9044300Y-11470000D02*
G75*
G02*
X8974300Y-11470000I-35000J0D01*
G01*
X8974300Y-11470000D02*
G75*
G02*
X9044300Y-11470000I35000J0D01*
G01*
X9282492Y-5755000D02*
G75*
G02*
X9212492Y-5755000I-35000J0D01*
G01*
X9212492Y-5755000D02*
G75*
G02*
X9282492Y-5755000I35000J0D01*
G01*
X9455000Y-3850000D02*
G75*
G02*
X9385000Y-3850000I-35000J0D01*
G01*
X9385000Y-3850000D02*
G75*
G02*
X9455000Y-3850000I35000J0D01*
G01*
X9758814Y-7660000D02*
G75*
G02*
X9688814Y-7660000I-35000J0D01*
G01*
X9688814Y-7660000D02*
G75*
G02*
X9758814Y-7660000I35000J0D01*
G01*
X9931245Y-9565000D02*
G75*
G02*
X9861245Y-9565000I-35000J0D01*
G01*
X9861245Y-9565000D02*
G75*
G02*
X9931245Y-9565000I35000J0D01*
G01*
X10235000Y-3850000D02*
G75*
G02*
X10165000Y-3850000I-35000J0D01*
G01*
X10165000Y-3850000D02*
G75*
G02*
X10235000Y-3850000I35000J0D01*
G01*
X10407492Y-5755000D02*
G75*
G02*
X10337492Y-5755000I-35000J0D01*
G01*
X10337492Y-5755000D02*
G75*
G02*
X10407492Y-5755000I35000J0D01*
G01*
X10645474Y-11470000D02*
G75*
G02*
X10575474Y-11470000I-35000J0D01*
G01*
X10575474Y-11470000D02*
G75*
G02*
X10645474Y-11470000I35000J0D01*
G01*
X10711245Y-9565000D02*
G75*
G02*
X10641245Y-9565000I-35000J0D01*
G01*
X10641245Y-9565000D02*
G75*
G02*
X10711245Y-9565000I35000J0D01*
G01*
X10883814Y-7660000D02*
G75*
G02*
X10813814Y-7660000I-35000J0D01*
G01*
X10813814Y-7660000D02*
G75*
G02*
X10883814Y-7660000I35000J0D01*
G01*
X11187492Y-5755000D02*
G75*
G02*
X11117492Y-5755000I-35000J0D01*
G01*
X11117492Y-5755000D02*
G75*
G02*
X11187492Y-5755000I35000J0D01*
G01*
X11360000Y-3850000D02*
G75*
G02*
X11290000Y-3850000I-35000J0D01*
G01*
X11290000Y-3850000D02*
G75*
G02*
X11360000Y-3850000I35000J0D01*
G01*
X11425474Y-11470000D02*
G75*
G02*
X11355474Y-11470000I-35000J0D01*
G01*
X11355474Y-11470000D02*
G75*
G02*
X11425474Y-11470000I35000J0D01*
G01*
X11663813Y-7660000D02*
G75*
G02*
X11593813Y-7660000I-35000J0D01*
G01*
X11593813Y-7660000D02*
G75*
G02*
X11663813Y-7660000I35000J0D01*
G01*
X11836245Y-9565000D02*
G75*
G02*
X11766245Y-9565000I-35000J0D01*
G01*
X11766245Y-9565000D02*
G75*
G02*
X11836245Y-9565000I35000J0D01*
G01*
X12140000Y-3850000D02*
G75*
G02*
X12070000Y-3850000I-35000J0D01*
G01*
X12070000Y-3850000D02*
G75*
G02*
X12140000Y-3850000I35000J0D01*
G01*
X12312492Y-5755000D02*
G75*
G02*
X12242492Y-5755000I-35000J0D01*
G01*
X12242492Y-5755000D02*
G75*
G02*
X12312492Y-5755000I35000J0D01*
G01*
X12616245Y-9565000D02*
G75*
G02*
X12546245Y-9565000I-35000J0D01*
G01*
X12546245Y-9565000D02*
G75*
G02*
X12616245Y-9565000I35000J0D01*
G01*
X12788813Y-7660000D02*
G75*
G02*
X12718813Y-7660000I-35000J0D01*
G01*
X12718813Y-7660000D02*
G75*
G02*
X12788813Y-7660000I35000J0D01*
G01*
X13092492Y-5755000D02*
G75*
G02*
X13022492Y-5755000I-35000J0D01*
G01*
X13022492Y-5755000D02*
G75*
G02*
X13092492Y-5755000I35000J0D01*
G01*
X13265000Y-3850000D02*
G75*
G02*
X13195000Y-3850000I-35000J0D01*
G01*
X13195000Y-3850000D02*
G75*
G02*
X13265000Y-3850000I35000J0D01*
G01*
X13568813Y-7660000D02*
G75*
G02*
X13498813Y-7660000I-35000J0D01*
G01*
X13498813Y-7660000D02*
G75*
G02*
X13568813Y-7660000I35000J0D01*
G01*
X13741245Y-9565000D02*
G75*
G02*
X13671245Y-9565000I-35000J0D01*
G01*
X13671245Y-9565000D02*
G75*
G02*
X13741245Y-9565000I35000J0D01*
G01*
X14045000Y-3850000D02*
G75*
G02*
X13975000Y-3850000I-35000J0D01*
G01*
X13975000Y-3850000D02*
G75*
G02*
X14045000Y-3850000I35000J0D01*
G01*
X14217492Y-5755000D02*
G75*
G02*
X14147492Y-5755000I-35000J0D01*
G01*
X14147492Y-5755000D02*
G75*
G02*
X14217492Y-5755000I35000J0D01*
G01*
X14521245Y-9565000D02*
G75*
G02*
X14451245Y-9565000I-35000J0D01*
G01*
X14451245Y-9565000D02*
G75*
G02*
X14521245Y-9565000I35000J0D01*
G01*
X14693813Y-7660000D02*
G75*
G02*
X14623813Y-7660000I-35000J0D01*
G01*
X14623813Y-7660000D02*
G75*
G02*
X14693813Y-7660000I35000J0D01*
G01*
X14997492Y-5755000D02*
G75*
G02*
X14927492Y-5755000I-35000J0D01*
G01*
X14927492Y-5755000D02*
G75*
G02*
X14997492Y-5755000I35000J0D01*
G01*
X15170000Y-3850000D02*
G75*
G02*
X15100000Y-3850000I-35000J0D01*
G01*
X15100000Y-3850000D02*
G75*
G02*
X15170000Y-3850000I35000J0D01*
G01*
X15473813Y-7660000D02*
G75*
G02*
X15403813Y-7660000I-35000J0D01*
G01*
X15403813Y-7660000D02*
G75*
G02*
X15473813Y-7660000I35000J0D01*
G01*
X15646245Y-9565000D02*
G75*
G02*
X15576245Y-9565000I-35000J0D01*
G01*
X15576245Y-9565000D02*
G75*
G02*
X15646245Y-9565000I35000J0D01*
G01*
X15950000Y-3850000D02*
G75*
G02*
X15880000Y-3850000I-35000J0D01*
G01*
X15880000Y-3850000D02*
G75*
G02*
X15950000Y-3850000I35000J0D01*
G01*
X16122492Y-5755000D02*
G75*
G02*
X16052492Y-5755000I-35000J0D01*
G01*
X16052492Y-5755000D02*
G75*
G02*
X16122492Y-5755000I35000J0D01*
G01*
X16426245Y-9565000D02*
G75*
G02*
X16356245Y-9565000I-35000J0D01*
G01*
X16356245Y-9565000D02*
G75*
G02*
X16426245Y-9565000I35000J0D01*
G01*
X16598813Y-7660000D02*
G75*
G02*
X16528813Y-7660000I-35000J0D01*
G01*
X16528813Y-7660000D02*
G75*
G02*
X16598813Y-7660000I35000J0D01*
G01*
X16902492Y-5755000D02*
G75*
G02*
X16832492Y-5755000I-35000J0D01*
G01*
X16832492Y-5755000D02*
G75*
G02*
X16902492Y-5755000I35000J0D01*
G01*
X17075000Y-3850000D02*
G75*
G02*
X17005000Y-3850000I-35000J0D01*
G01*
X17005000Y-3850000D02*
G75*
G02*
X17075000Y-3850000I35000J0D01*
G01*
X17378814Y-7660000D02*
G75*
G02*
X17308814Y-7660000I-35000J0D01*
G01*
X17308814Y-7660000D02*
G75*
G02*
X17378814Y-7660000I35000J0D01*
G01*
X17551245Y-9565000D02*
G75*
G02*
X17481245Y-9565000I-35000J0D01*
G01*
X17481245Y-9565000D02*
G75*
G02*
X17551245Y-9565000I35000J0D01*
G01*
X17789159Y-11470000D02*
G75*
G02*
X17719159Y-11470000I-35000J0D01*
G01*
X17719159Y-11470000D02*
G75*
G02*
X17789159Y-11470000I35000J0D01*
G01*
X17855000Y-3850000D02*
G75*
G02*
X17785000Y-3850000I-35000J0D01*
G01*
X17785000Y-3850000D02*
G75*
G02*
X17855000Y-3850000I35000J0D01*
G01*
X18027492Y-5755000D02*
G75*
G02*
X17957492Y-5755000I-35000J0D01*
G01*
X17957492Y-5755000D02*
G75*
G02*
X18027492Y-5755000I35000J0D01*
G01*
X18331245Y-9565000D02*
G75*
G02*
X18261245Y-9565000I-35000J0D01*
G01*
X18261245Y-9565000D02*
G75*
G02*
X18331245Y-9565000I35000J0D01*
G01*
X18503814Y-7660000D02*
G75*
G02*
X18433814Y-7660000I-35000J0D01*
G01*
X18433814Y-7660000D02*
G75*
G02*
X18503814Y-7660000I35000J0D01*
G01*
X18569159Y-11470000D02*
G75*
G02*
X18499159Y-11470000I-35000J0D01*
G01*
X18499159Y-11470000D02*
G75*
G02*
X18569159Y-11470000I35000J0D01*
G01*
X18807492Y-5755000D02*
G75*
G02*
X18737492Y-5755000I-35000J0D01*
G01*
X18737492Y-5755000D02*
G75*
G02*
X18807492Y-5755000I35000J0D01*
G01*
X18980000Y-3850000D02*
G75*
G02*
X18910000Y-3850000I-35000J0D01*
G01*
X18910000Y-3850000D02*
G75*
G02*
X18980000Y-3850000I35000J0D01*
G01*
X19283814Y-7660000D02*
G75*
G02*
X19213814Y-7660000I-35000J0D01*
G01*
X19213814Y-7660000D02*
G75*
G02*
X19283814Y-7660000I35000J0D01*
G01*
X19456245Y-9565000D02*
G75*
G02*
X19386245Y-9565000I-35000J0D01*
G01*
X19386245Y-9565000D02*
G75*
G02*
X19456245Y-9565000I35000J0D01*
G01*
X19760000Y-3850000D02*
G75*
G02*
X19690000Y-3850000I-35000J0D01*
G01*
X19690000Y-3850000D02*
G75*
G02*
X19760000Y-3850000I35000J0D01*
G01*
X19932492Y-5755000D02*
G75*
G02*
X19862492Y-5755000I-35000J0D01*
G01*
X19862492Y-5755000D02*
G75*
G02*
X19932492Y-5755000I35000J0D01*
G01*
X20236245Y-9565000D02*
G75*
G02*
X20166245Y-9565000I-35000J0D01*
G01*
X20166245Y-9565000D02*
G75*
G02*
X20236245Y-9565000I35000J0D01*
G01*
X20408814Y-7660000D02*
G75*
G02*
X20338814Y-7660000I-35000J0D01*
G01*
X20338814Y-7660000D02*
G75*
G02*
X20408814Y-7660000I35000J0D01*
G01*
X20712492Y-5755000D02*
G75*
G02*
X20642492Y-5755000I-35000J0D01*
G01*
X20642492Y-5755000D02*
G75*
G02*
X20712492Y-5755000I35000J0D01*
G01*
X20885000Y-3850000D02*
G75*
G02*
X20815000Y-3850000I-35000J0D01*
G01*
X20815000Y-3850000D02*
G75*
G02*
X20885000Y-3850000I35000J0D01*
G01*
X21188814Y-7660000D02*
G75*
G02*
X21118814Y-7660000I-35000J0D01*
G01*
X21118814Y-7660000D02*
G75*
G02*
X21188814Y-7660000I35000J0D01*
G01*
X21361245Y-9565000D02*
G75*
G02*
X21291245Y-9565000I-35000J0D01*
G01*
X21291245Y-9565000D02*
G75*
G02*
X21361245Y-9565000I35000J0D01*
G01*
X21665000Y-3850000D02*
G75*
G02*
X21595000Y-3850000I-35000J0D01*
G01*
X21595000Y-3850000D02*
G75*
G02*
X21665000Y-3850000I35000J0D01*
G01*
X21837492Y-5755000D02*
G75*
G02*
X21767492Y-5755000I-35000J0D01*
G01*
X21767492Y-5755000D02*
G75*
G02*
X21837492Y-5755000I35000J0D01*
G01*
X22141245Y-9565000D02*
G75*
G02*
X22071245Y-9565000I-35000J0D01*
G01*
X22071245Y-9565000D02*
G75*
G02*
X22141245Y-9565000I35000J0D01*
G01*
X22313814Y-7660000D02*
G75*
G02*
X22243814Y-7660000I-35000J0D01*
G01*
X22243814Y-7660000D02*
G75*
G02*
X22313814Y-7660000I35000J0D01*
G01*
X22617492Y-5755000D02*
G75*
G02*
X22547492Y-5755000I-35000J0D01*
G01*
X22547492Y-5755000D02*
G75*
G02*
X22617492Y-5755000I35000J0D01*
G01*
X22790000Y-3850000D02*
G75*
G02*
X22720000Y-3850000I-35000J0D01*
G01*
X22720000Y-3850000D02*
G75*
G02*
X22790000Y-3850000I35000J0D01*
G01*
X23093813Y-7660000D02*
G75*
G02*
X23023813Y-7660000I-35000J0D01*
G01*
X23023813Y-7660000D02*
G75*
G02*
X23093813Y-7660000I35000J0D01*
G01*
X23266245Y-9565000D02*
G75*
G02*
X23196245Y-9565000I-35000J0D01*
G01*
X23196245Y-9565000D02*
G75*
G02*
X23266245Y-9565000I35000J0D01*
G01*
X23570000Y-3850000D02*
G75*
G02*
X23500000Y-3850000I-35000J0D01*
G01*
X23500000Y-3850000D02*
G75*
G02*
X23570000Y-3850000I35000J0D01*
G01*
X23742492Y-5755000D02*
G75*
G02*
X23672492Y-5755000I-35000J0D01*
G01*
X23672492Y-5755000D02*
G75*
G02*
X23742492Y-5755000I35000J0D01*
G01*
X24046245Y-9565000D02*
G75*
G02*
X23976245Y-9565000I-35000J0D01*
G01*
X23976245Y-9565000D02*
G75*
G02*
X24046245Y-9565000I35000J0D01*
G01*
X24218813Y-7660000D02*
G75*
G02*
X24148813Y-7660000I-35000J0D01*
G01*
X24148813Y-7660000D02*
G75*
G02*
X24218813Y-7660000I35000J0D01*
G01*
X24522492Y-5755000D02*
G75*
G02*
X24452492Y-5755000I-35000J0D01*
G01*
X24452492Y-5755000D02*
G75*
G02*
X24522492Y-5755000I35000J0D01*
G01*
X24695000Y-3850000D02*
G75*
G02*
X24625000Y-3850000I-35000J0D01*
G01*
X24625000Y-3850000D02*
G75*
G02*
X24695000Y-3850000I35000J0D01*
G01*
X24932959Y-11470000D02*
G75*
G02*
X24862959Y-11470000I-35000J0D01*
G01*
X24862959Y-11470000D02*
G75*
G02*
X24932959Y-11470000I35000J0D01*
G01*
X24998813Y-7660000D02*
G75*
G02*
X24928813Y-7660000I-35000J0D01*
G01*
X24928813Y-7660000D02*
G75*
G02*
X24998813Y-7660000I35000J0D01*
G01*
X25171245Y-9565000D02*
G75*
G02*
X25101245Y-9565000I-35000J0D01*
G01*
X25101245Y-9565000D02*
G75*
G02*
X25171245Y-9565000I35000J0D01*
G01*
X25475000Y-3850000D02*
G75*
G02*
X25405000Y-3850000I-35000J0D01*
G01*
X25405000Y-3850000D02*
G75*
G02*
X25475000Y-3850000I35000J0D01*
G01*
X25647492Y-5755000D02*
G75*
G02*
X25577492Y-5755000I-35000J0D01*
G01*
X25577492Y-5755000D02*
G75*
G02*
X25647492Y-5755000I35000J0D01*
G01*
X25712959Y-11470000D02*
G75*
G02*
X25642959Y-11470000I-35000J0D01*
G01*
X25642959Y-11470000D02*
G75*
G02*
X25712959Y-11470000I35000J0D01*
G01*
X25951245Y-9565000D02*
G75*
G02*
X25881245Y-9565000I-35000J0D01*
G01*
X25881245Y-9565000D02*
G75*
G02*
X25951245Y-9565000I35000J0D01*
G01*
X26123813Y-7660000D02*
G75*
G02*
X26053813Y-7660000I-35000J0D01*
G01*
X26053813Y-7660000D02*
G75*
G02*
X26123813Y-7660000I35000J0D01*
G01*
X26427492Y-5755000D02*
G75*
G02*
X26357492Y-5755000I-35000J0D01*
G01*
X26357492Y-5755000D02*
G75*
G02*
X26427492Y-5755000I35000J0D01*
G01*
X26600000Y-3850000D02*
G75*
G02*
X26530000Y-3850000I-35000J0D01*
G01*
X26530000Y-3850000D02*
G75*
G02*
X26600000Y-3850000I35000J0D01*
G01*
X26903813Y-7660000D02*
G75*
G02*
X26833813Y-7660000I-35000J0D01*
G01*
X26833813Y-7660000D02*
G75*
G02*
X26903813Y-7660000I35000J0D01*
G01*
X27076245Y-9565000D02*
G75*
G02*
X27006245Y-9565000I-35000J0D01*
G01*
X27006245Y-9565000D02*
G75*
G02*
X27076245Y-9565000I35000J0D01*
G01*
X27314159Y-11470000D02*
G75*
G02*
X27244159Y-11470000I-35000J0D01*
G01*
X27244159Y-11470000D02*
G75*
G02*
X27314159Y-11470000I35000J0D01*
G01*
X27380000Y-3850000D02*
G75*
G02*
X27310000Y-3850000I-35000J0D01*
G01*
X27310000Y-3850000D02*
G75*
G02*
X27380000Y-3850000I35000J0D01*
G01*
X27552492Y-5755000D02*
G75*
G02*
X27482492Y-5755000I-35000J0D01*
G01*
X27482492Y-5755000D02*
G75*
G02*
X27552492Y-5755000I35000J0D01*
G01*
X27856245Y-9565000D02*
G75*
G02*
X27786245Y-9565000I-35000J0D01*
G01*
X27786245Y-9565000D02*
G75*
G02*
X27856245Y-9565000I35000J0D01*
G01*
X28028813Y-7660000D02*
G75*
G02*
X27958813Y-7660000I-35000J0D01*
G01*
X27958813Y-7660000D02*
G75*
G02*
X28028813Y-7660000I35000J0D01*
G01*
X28094159Y-11470000D02*
G75*
G02*
X28024159Y-11470000I-35000J0D01*
G01*
X28024159Y-11470000D02*
G75*
G02*
X28094159Y-11470000I35000J0D01*
G01*
X28332492Y-5755000D02*
G75*
G02*
X28262492Y-5755000I-35000J0D01*
G01*
X28262492Y-5755000D02*
G75*
G02*
X28332492Y-5755000I35000J0D01*
G01*
X28505000Y-3850000D02*
G75*
G02*
X28435000Y-3850000I-35000J0D01*
G01*
X28435000Y-3850000D02*
G75*
G02*
X28505000Y-3850000I35000J0D01*
G01*
X28808813Y-7660000D02*
G75*
G02*
X28738813Y-7660000I-35000J0D01*
G01*
X28738813Y-7660000D02*
G75*
G02*
X28808813Y-7660000I35000J0D01*
G01*
X29285000Y-3850000D02*
G75*
G02*
X29215000Y-3850000I-35000J0D01*
G01*
X29215000Y-3850000D02*
G75*
G02*
X29285000Y-3850000I35000J0D01*
G01*
X29457492Y-5755000D02*
G75*
G02*
X29387492Y-5755000I-35000J0D01*
G01*
X29387492Y-5755000D02*
G75*
G02*
X29457492Y-5755000I35000J0D01*
G01*
X29695459Y-11470000D02*
G75*
G02*
X29625459Y-11470000I-35000J0D01*
G01*
X29625459Y-11470000D02*
G75*
G02*
X29695459Y-11470000I35000J0D01*
G01*
X30237492Y-5755000D02*
G75*
G02*
X30167492Y-5755000I-35000J0D01*
G01*
X30167492Y-5755000D02*
G75*
G02*
X30237492Y-5755000I35000J0D01*
G01*
X30475459Y-11470000D02*
G75*
G02*
X30405459Y-11470000I-35000J0D01*
G01*
X30405459Y-11470000D02*
G75*
G02*
X30475459Y-11470000I35000J0D01*
G01*
X30648045Y-9565000D02*
G75*
G02*
X30578045Y-9565000I-35000J0D01*
G01*
X30578045Y-9565000D02*
G75*
G02*
X30648045Y-9565000I35000J0D01*
G01*
X31124363Y-7660000D02*
G75*
G02*
X31054363Y-7660000I-35000J0D01*
G01*
X31054363Y-7660000D02*
G75*
G02*
X31124363Y-7660000I35000J0D01*
G01*
X31362500Y-3850000D02*
G75*
G02*
X31292500Y-3850000I-35000J0D01*
G01*
X31292500Y-3850000D02*
G75*
G02*
X31362500Y-3850000I35000J0D01*
G01*
X31428045Y-9565000D02*
G75*
G02*
X31358045Y-9565000I-35000J0D01*
G01*
X31358045Y-9565000D02*
G75*
G02*
X31428045Y-9565000I35000J0D01*
G01*
X31838742Y-5755000D02*
G75*
G02*
X31768742Y-5755000I-35000J0D01*
G01*
X31768742Y-5755000D02*
G75*
G02*
X31838742Y-5755000I35000J0D01*
G01*
X31904363Y-7660000D02*
G75*
G02*
X31834363Y-7660000I-35000J0D01*
G01*
X31834363Y-7660000D02*
G75*
G02*
X31904363Y-7660000I35000J0D01*
G01*
X32142500Y-3850000D02*
G75*
G02*
X32072500Y-3850000I-35000J0D01*
G01*
X32072500Y-3850000D02*
G75*
G02*
X32142500Y-3850000I35000J0D01*
G01*
X32618742Y-5755000D02*
G75*
G02*
X32548742Y-5755000I-35000J0D01*
G01*
X32548742Y-5755000D02*
G75*
G02*
X32618742Y-5755000I35000J0D01*
G01*
X32791109Y-11470000D02*
G75*
G02*
X32721109Y-11470000I-35000J0D01*
G01*
X32721109Y-11470000D02*
G75*
G02*
X32791109Y-11470000I35000J0D01*
G01*
X33571109Y-11470000D02*
G75*
G02*
X33501109Y-11470000I-35000J0D01*
G01*
X33501109Y-11470000D02*
G75*
G02*
X33571109Y-11470000I35000J0D01*
G01*
X34696109Y-9565000D02*
G75*
G02*
X34626109Y-9565000I-35000J0D01*
G01*
X34626109Y-9565000D02*
G75*
G02*
X34696109Y-9565000I35000J0D01*
G01*
X34696109Y-11470000D02*
G75*
G02*
X34626109Y-11470000I-35000J0D01*
G01*
X34626109Y-11470000D02*
G75*
G02*
X34696109Y-11470000I35000J0D01*
G01*
X34696250Y-3850000D02*
G75*
G02*
X34626250Y-3850000I-35000J0D01*
G01*
X34626250Y-3850000D02*
G75*
G02*
X34696250Y-3850000I35000J0D01*
G01*
X34696250Y-5755000D02*
G75*
G02*
X34626250Y-5755000I-35000J0D01*
G01*
X34626250Y-5755000D02*
G75*
G02*
X34696250Y-5755000I35000J0D01*
G01*
X35476109Y-9565000D02*
G75*
G02*
X35406109Y-9565000I-35000J0D01*
G01*
X35406109Y-9565000D02*
G75*
G02*
X35476109Y-9565000I35000J0D01*
G01*
X35476109Y-11470000D02*
G75*
G02*
X35406109Y-11470000I-35000J0D01*
G01*
X35406109Y-11470000D02*
G75*
G02*
X35476109Y-11470000I35000J0D01*
G01*
X35476250Y-3850000D02*
G75*
G02*
X35406250Y-3850000I-35000J0D01*
G01*
X35406250Y-3850000D02*
G75*
G02*
X35476250Y-3850000I35000J0D01*
G01*
X35476250Y-5755000D02*
G75*
G02*
X35406250Y-5755000I-35000J0D01*
G01*
X35406250Y-5755000D02*
G75*
G02*
X35476250Y-5755000I35000J0D01*
G01*
X36601109Y-11470000D02*
G75*
G02*
X36531109Y-11470000I-35000J0D01*
G01*
X36531109Y-11470000D02*
G75*
G02*
X36601109Y-11470000I35000J0D01*
G01*
X36601250Y-3850000D02*
G75*
G02*
X36531250Y-3850000I-35000J0D01*
G01*
X36531250Y-3850000D02*
G75*
G02*
X36601250Y-3850000I35000J0D01*
G01*
X36601250Y-5755000D02*
G75*
G02*
X36531250Y-5755000I-35000J0D01*
G01*
X36531250Y-5755000D02*
G75*
G02*
X36601250Y-5755000I35000J0D01*
G01*
X37381109Y-11470000D02*
G75*
G02*
X37311109Y-11470000I-35000J0D01*
G01*
X37311109Y-11470000D02*
G75*
G02*
X37381109Y-11470000I35000J0D01*
G01*
X37381250Y-3850000D02*
G75*
G02*
X37311250Y-3850000I-35000J0D01*
G01*
X37311250Y-3850000D02*
G75*
G02*
X37381250Y-3850000I35000J0D01*
G01*
X37381250Y-5755000D02*
G75*
G02*
X37311250Y-5755000I-35000J0D01*
G01*
X37311250Y-5755000D02*
G75*
G02*
X37381250Y-5755000I35000J0D01*
G01*
X3273000Y-5667500D02*
X3273000Y-5742500D01*
X3235500Y-5705000D02*
X3310500Y-5705000D01*
X3473000Y-5667500D02*
X3473000Y-5742500D01*
X3435500Y-5705000D02*
X3510500Y-5705000D01*
X2685356Y-6585356D02*
X2685356Y-6514644D01*
X2614644Y-6514644D01*
X2614644Y-6585356D01*
X2685356Y-6585356D01*
X2685356Y-6835356D02*
X2685356Y-6764644D01*
X2614644Y-6764644D01*
X2614644Y-6835356D01*
X2685356Y-6835356D01*
X2685356Y-7085356D02*
X2685356Y-7014644D01*
X2614644Y-7014644D01*
X2614644Y-7085356D01*
X2685356Y-7085356D01*
X3054356Y-8685356D02*
X3054356Y-8614644D01*
X2983644Y-8614644D01*
X2983644Y-8685356D01*
X3054356Y-8685356D01*
X3135356Y-7930356D02*
X3135356Y-7859644D01*
X3064644Y-7859644D01*
X3064644Y-7930356D01*
X3135356Y-7930356D01*
X3055000Y-7945000D02*
X3145000Y-7945000D01*
X3145000Y-7845000D02*
G75*
G02*
X3145000Y-7945000I0J-50000D01*
G01*
X3145000Y-7845000D02*
X3055000Y-7845000D01*
X3055000Y-7845000D02*
G75*
G03*
X3055000Y-7945000I0J-50000D01*
G01*
X3308356Y-8685356D02*
X3308356Y-8614644D01*
X3237644Y-8614644D01*
X3237644Y-8685356D01*
X3308356Y-8685356D01*
X3435356Y-7935356D02*
X3435356Y-7864644D01*
X3364644Y-7864644D01*
X3364644Y-7935356D01*
X3435356Y-7935356D01*
X3355000Y-7950000D02*
X3445000Y-7950000D01*
X3445000Y-7850000D02*
G75*
G02*
X3445000Y-7950000I0J-50000D01*
G01*
X3445000Y-7850000D02*
X3355000Y-7850000D01*
X3355000Y-7850000D02*
G75*
G03*
X3355000Y-7950000I0J-50000D01*
G01*
X3562356Y-8685356D02*
X3562356Y-8614644D01*
X3491644Y-8614644D01*
X3491644Y-8685356D01*
X3562356Y-8685356D01*
X3735356Y-7935356D02*
X3735356Y-7864644D01*
X3664644Y-7864644D01*
X3664644Y-7935356D01*
X3735356Y-7935356D01*
X3655000Y-7950000D02*
X3745000Y-7950000D01*
X3745000Y-7850000D02*
G75*
G02*
X3745000Y-7950000I0J-50000D01*
G01*
X3745000Y-7850000D02*
X3655000Y-7850000D01*
X3655000Y-7850000D02*
G75*
G03*
X3655000Y-7950000I0J-50000D01*
G01*
X3816356Y-8685356D02*
X3816356Y-8614644D01*
X3745644Y-8614644D01*
X3745644Y-8685356D01*
X3816356Y-8685356D01*
X4135356Y-6585356D02*
X4135356Y-6514644D01*
X4064644Y-6514644D01*
X4064644Y-6585356D01*
X4135356Y-6585356D01*
X4135356Y-7085356D02*
X4135356Y-7014644D01*
X4064644Y-7014644D01*
X4064644Y-7085356D01*
X4135356Y-7085356D01*
X34289106Y-6464356D02*
X34289106Y-6393644D01*
X34218394Y-6393644D01*
X34218394Y-6464356D01*
X34289106Y-6464356D01*
X34289106Y-6718356D02*
X34289106Y-6647644D01*
X34218394Y-6647644D01*
X34218394Y-6718356D01*
X34289106Y-6718356D01*
X34289106Y-6972356D02*
X34289106Y-6901644D01*
X34218394Y-6901644D01*
X34218394Y-6972356D01*
X34289106Y-6972356D01*
X34289106Y-7226356D02*
X34289106Y-7155644D01*
X34218394Y-7155644D01*
X34218394Y-7226356D01*
X34289106Y-7226356D01*
D12*
X2638000Y-2130610D02*
X2692610Y-2076000D01*
X2638000Y-2021390D01*
X2583390Y-2076000D01*
X2638000Y-2130610D01*
X2638000Y-2384610D02*
X2692610Y-2330000D01*
X2638000Y-2275390D01*
X2583390Y-2330000D01*
X2638000Y-2384610D01*
X2638000Y-2638610D02*
X2692610Y-2584000D01*
X2638000Y-2529390D01*
X2583390Y-2584000D01*
X2638000Y-2638610D01*
X2638000Y-2892610D02*
X2692610Y-2838000D01*
X2638000Y-2783390D01*
X2583390Y-2838000D01*
X2638000Y-2892610D01*
X2638000Y-3146610D02*
X2692610Y-3092000D01*
X2638000Y-3037390D01*
X2583390Y-3092000D01*
X2638000Y-3146610D01*
X2638000Y-3400610D02*
X2692610Y-3346000D01*
X2638000Y-3291390D01*
X2583390Y-3346000D01*
X2638000Y-3400610D01*
X2638000Y-3654610D02*
X2692610Y-3600000D01*
X2638000Y-3545390D01*
X2583390Y-3600000D01*
X2638000Y-3654610D01*
X2638000Y-3908610D02*
X2692610Y-3854000D01*
X2638000Y-3799390D01*
X2583390Y-3854000D01*
X2638000Y-3908610D01*
X2638000Y-4162610D02*
X2692610Y-4108000D01*
X2638000Y-4053390D01*
X2583390Y-4108000D01*
X2638000Y-4162610D01*
X2638000Y-4416610D02*
X2692610Y-4362000D01*
X2638000Y-4307390D01*
X2583390Y-4362000D01*
X2638000Y-4416610D01*
X2638000Y-4670610D02*
X2692610Y-4616000D01*
X2638000Y-4561390D01*
X2583390Y-4616000D01*
X2638000Y-4670610D01*
X2638000Y-4924610D02*
X2692610Y-4870000D01*
X2638000Y-4815390D01*
X2583390Y-4870000D01*
X2638000Y-4924610D01*
X2638000Y-5178610D02*
X2692610Y-5124000D01*
X2638000Y-5069390D01*
X2583390Y-5124000D01*
X2638000Y-5178610D01*
X2946000Y-4869110D02*
X3000610Y-4814500D01*
X2946000Y-4759890D01*
X2891390Y-4814500D01*
X2946000Y-4869110D01*
X3200000Y-4869110D02*
X3254610Y-4814500D01*
X3200000Y-4759890D01*
X3145390Y-4814500D01*
X3200000Y-4869110D01*
X3454000Y-4869110D02*
X3508610Y-4814500D01*
X3454000Y-4759890D01*
X3399390Y-4814500D01*
X3454000Y-4869110D01*
X4162000Y-2130610D02*
X4216610Y-2076000D01*
X4162000Y-2021390D01*
X4107390Y-2076000D01*
X4162000Y-2130610D01*
X4162000Y-2384610D02*
X4216610Y-2330000D01*
X4162000Y-2275390D01*
X4107390Y-2330000D01*
X4162000Y-2384610D01*
X4162000Y-2638610D02*
X4216610Y-2584000D01*
X4162000Y-2529390D01*
X4107390Y-2584000D01*
X4162000Y-2638610D01*
X4162000Y-2892610D02*
X4216610Y-2838000D01*
X4162000Y-2783390D01*
X4107390Y-2838000D01*
X4162000Y-2892610D01*
X4162000Y-3146610D02*
X4216610Y-3092000D01*
X4162000Y-3037390D01*
X4107390Y-3092000D01*
X4162000Y-3146610D01*
X4162000Y-3400610D02*
X4216610Y-3346000D01*
X4162000Y-3291390D01*
X4107390Y-3346000D01*
X4162000Y-3400610D01*
X4162000Y-3654610D02*
X4216610Y-3600000D01*
X4162000Y-3545390D01*
X4107390Y-3600000D01*
X4162000Y-3654610D01*
X4162000Y-3908610D02*
X4216610Y-3854000D01*
X4162000Y-3799390D01*
X4107390Y-3854000D01*
X4162000Y-3908610D01*
X4162000Y-4162610D02*
X4216610Y-4108000D01*
X4162000Y-4053390D01*
X4107390Y-4108000D01*
X4162000Y-4162610D01*
X4162000Y-4416610D02*
X4216610Y-4362000D01*
X4162000Y-4307390D01*
X4107390Y-4362000D01*
X4162000Y-4416610D01*
X4162000Y-4670610D02*
X4216610Y-4616000D01*
X4162000Y-4561390D01*
X4107390Y-4616000D01*
X4162000Y-4670610D01*
X4162000Y-4924610D02*
X4216610Y-4870000D01*
X4162000Y-4815390D01*
X4107390Y-4870000D01*
X4162000Y-4924610D01*
X4162000Y-5178610D02*
X4216610Y-5124000D01*
X4162000Y-5069390D01*
X4107390Y-5124000D01*
X4162000Y-5178610D01*
D13*
X3325000Y-6165000D02*
X3475000Y-6315000D01*
X3475000Y-6165000D02*
X3325000Y-6315000D01*
X3475000Y-6240000D02*
G75*
G02*
X3325000Y-6240000I-75000J0D01*
G01*
X3325000Y-6240000D02*
G75*
G02*
X3475000Y-6240000I75000J0D01*
G01*
D10*
X3465000Y-6165000D02*
X3335000Y-6165000D01*
X3335000Y-6315000D02*
G75*
G02*
X3335000Y-6165000I0J75000D01*
G01*
X3335000Y-6315000D02*
X3465000Y-6315000D01*
X3465000Y-6315000D02*
G75*
G03*
X3465000Y-6165000I0J75000D01*
G01*
D13*
X3325000Y-7285000D02*
X3475000Y-7435000D01*
X3475000Y-7285000D02*
X3325000Y-7435000D01*
X3475000Y-7360000D02*
G75*
G02*
X3325000Y-7360000I-75000J0D01*
G01*
X3325000Y-7360000D02*
G75*
G02*
X3475000Y-7360000I75000J0D01*
G01*
D10*
X3335000Y-7435000D02*
X3465000Y-7435000D01*
X3465000Y-7285000D02*
G75*
G02*
X3465000Y-7435000I0J-75000D01*
G01*
X3465000Y-7285000D02*
X3335000Y-7285000D01*
X3335000Y-7285000D02*
G75*
G03*
X3335000Y-7435000I0J-75000D01*
G01*
D14*
X2540000Y-7790000D02*
X2760000Y-8010000D01*
X2760000Y-7790000D02*
X2540000Y-8010000D01*
X2650000Y-7790000D02*
X2650000Y-8010000D01*
X2540000Y-7900000D02*
X2760000Y-7900000D01*
X4040000Y-7790000D02*
X4260000Y-8010000D01*
X4260000Y-7790000D02*
X4040000Y-8010000D01*
X4150000Y-7790000D02*
X4150000Y-8010000D01*
X4040000Y-7900000D02*
X4260000Y-7900000D01*
D15*
X2235000Y-8510000D02*
X2515000Y-8790000D01*
X2515000Y-8510000D02*
X2235000Y-8790000D01*
X2473996Y-8748996D02*
X2473996Y-8551004D01*
X2276004Y-8551004D01*
X2276004Y-8748996D01*
X2473996Y-8748996D01*
X2235000Y-10810000D02*
X2515000Y-11090000D01*
X2515000Y-10810000D02*
X2235000Y-11090000D01*
X2473996Y-11048996D02*
X2473996Y-10851004D01*
X2276004Y-10851004D01*
X2276004Y-11048996D01*
X2473996Y-11048996D01*
X4285000Y-8510000D02*
X4565000Y-8790000D01*
X4565000Y-8510000D02*
X4285000Y-8790000D01*
X4523996Y-8748996D02*
X4523996Y-8551004D01*
X4326004Y-8551004D01*
X4326004Y-8748996D01*
X4523996Y-8748996D01*
X4285000Y-10810000D02*
X4565000Y-11090000D01*
X4565000Y-10810000D02*
X4285000Y-11090000D01*
X4523996Y-11048996D02*
X4523996Y-10851004D01*
X4326004Y-10851004D01*
X4326004Y-11048996D01*
X4523996Y-11048996D01*
D11*
X2255777Y-12136484D02*
X2255777Y-11936484D01*
X2255777Y-11936484D02*
X2303396Y-11936484D01*
X2303396Y-11936484D02*
X2331967Y-11946008D01*
X2331967Y-11946008D02*
X2351015Y-11965055D01*
X2351015Y-11965055D02*
X2360539Y-11984103D01*
X2360539Y-11984103D02*
X2370063Y-12022198D01*
X2370063Y-12022198D02*
X2370063Y-12050769D01*
X2370063Y-12050769D02*
X2360539Y-12088865D01*
X2360539Y-12088865D02*
X2351015Y-12107912D01*
X2351015Y-12107912D02*
X2331967Y-12126960D01*
X2331967Y-12126960D02*
X2303396Y-12136484D01*
X2303396Y-12136484D02*
X2255777Y-12136484D01*
X2455777Y-12136484D02*
X2455777Y-12003150D01*
X2455777Y-12041246D02*
X2465301Y-12022198D01*
X2465301Y-12022198D02*
X2474824Y-12012674D01*
X2474824Y-12012674D02*
X2493872Y-12003150D01*
X2493872Y-12003150D02*
X2512920Y-12003150D01*
X2579586Y-12136484D02*
X2579586Y-12003150D01*
X2579586Y-11936484D02*
X2570063Y-11946008D01*
X2570063Y-11946008D02*
X2579586Y-11955531D01*
X2579586Y-11955531D02*
X2589110Y-11946008D01*
X2589110Y-11946008D02*
X2579586Y-11936484D01*
X2579586Y-11936484D02*
X2579586Y-11955531D01*
X2703396Y-12136484D02*
X2684348Y-12126960D01*
X2684348Y-12126960D02*
X2674824Y-12107912D01*
X2674824Y-12107912D02*
X2674824Y-11936484D01*
X2808158Y-12136484D02*
X2789110Y-12126960D01*
X2789110Y-12126960D02*
X2779586Y-12107912D01*
X2779586Y-12107912D02*
X2779586Y-11936484D01*
X3036729Y-12136484D02*
X3036729Y-11936484D01*
X3036729Y-11936484D02*
X3103396Y-12079341D01*
X3103396Y-12079341D02*
X3170062Y-11936484D01*
X3170062Y-11936484D02*
X3170062Y-12136484D01*
X3351015Y-12136484D02*
X3351015Y-12031722D01*
X3351015Y-12031722D02*
X3341491Y-12012674D01*
X3341491Y-12012674D02*
X3322443Y-12003150D01*
X3322443Y-12003150D02*
X3284348Y-12003150D01*
X3284348Y-12003150D02*
X3265301Y-12012674D01*
X3351015Y-12126960D02*
X3331967Y-12136484D01*
X3331967Y-12136484D02*
X3284348Y-12136484D01*
X3284348Y-12136484D02*
X3265301Y-12126960D01*
X3265301Y-12126960D02*
X3255777Y-12107912D01*
X3255777Y-12107912D02*
X3255777Y-12088865D01*
X3255777Y-12088865D02*
X3265301Y-12069817D01*
X3265301Y-12069817D02*
X3284348Y-12060293D01*
X3284348Y-12060293D02*
X3331967Y-12060293D01*
X3331967Y-12060293D02*
X3351015Y-12050769D01*
X3446253Y-12003150D02*
X3446253Y-12203150D01*
X3446253Y-12012674D02*
X3465301Y-12003150D01*
X3465301Y-12003150D02*
X3503396Y-12003150D01*
X3503396Y-12003150D02*
X3522443Y-12012674D01*
X3522443Y-12012674D02*
X3531967Y-12022198D01*
X3531967Y-12022198D02*
X3541491Y-12041246D01*
X3541491Y-12041246D02*
X3541491Y-12098388D01*
X3541491Y-12098388D02*
X3531967Y-12117436D01*
X3531967Y-12117436D02*
X3522443Y-12126960D01*
X3522443Y-12126960D02*
X3503396Y-12136484D01*
X3503396Y-12136484D02*
X3465301Y-12136484D01*
X3465301Y-12136484D02*
X3446253Y-12126960D01*
X3627205Y-12117436D02*
X3636729Y-12126960D01*
X3636729Y-12126960D02*
X3627205Y-12136484D01*
X3627205Y-12136484D02*
X3617682Y-12126960D01*
X3617682Y-12126960D02*
X3627205Y-12117436D01*
X3627205Y-12117436D02*
X3627205Y-12136484D01*
X3627205Y-12012674D02*
X3636729Y-12022198D01*
X3636729Y-12022198D02*
X3627205Y-12031722D01*
X3627205Y-12031722D02*
X3617682Y-12022198D01*
X3617682Y-12022198D02*
X3627205Y-12012674D01*
X3627205Y-12012674D02*
X3627205Y-12031722D01*
D10*
X1955000Y-12445000D02*
X1995000Y-12485000D01*
X1995000Y-12445000D02*
X1955000Y-12485000D01*
D11*
X2293872Y-12356484D02*
X2312920Y-12356484D01*
X2312920Y-12356484D02*
X2331967Y-12366008D01*
X2331967Y-12366008D02*
X2341491Y-12375531D01*
X2341491Y-12375531D02*
X2351015Y-12394579D01*
X2351015Y-12394579D02*
X2360539Y-12432674D01*
X2360539Y-12432674D02*
X2360539Y-12480293D01*
X2360539Y-12480293D02*
X2351015Y-12518388D01*
X2351015Y-12518388D02*
X2341491Y-12537436D01*
X2341491Y-12537436D02*
X2331967Y-12546960D01*
X2331967Y-12546960D02*
X2312920Y-12556484D01*
X2312920Y-12556484D02*
X2293872Y-12556484D01*
X2293872Y-12556484D02*
X2274824Y-12546960D01*
X2274824Y-12546960D02*
X2265301Y-12537436D01*
X2265301Y-12537436D02*
X2255777Y-12518388D01*
X2255777Y-12518388D02*
X2246253Y-12480293D01*
X2246253Y-12480293D02*
X2246253Y-12432674D01*
X2246253Y-12432674D02*
X2255777Y-12394579D01*
X2255777Y-12394579D02*
X2265301Y-12375531D01*
X2265301Y-12375531D02*
X2274824Y-12366008D01*
X2274824Y-12366008D02*
X2293872Y-12356484D01*
X2446253Y-12537436D02*
X2455777Y-12546960D01*
X2455777Y-12546960D02*
X2446253Y-12556484D01*
X2446253Y-12556484D02*
X2436729Y-12546960D01*
X2436729Y-12546960D02*
X2446253Y-12537436D01*
X2446253Y-12537436D02*
X2446253Y-12556484D01*
X2627205Y-12423150D02*
X2627205Y-12556484D01*
X2579586Y-12346960D02*
X2531967Y-12489817D01*
X2531967Y-12489817D02*
X2655777Y-12489817D01*
X2770063Y-12356484D02*
X2789110Y-12356484D01*
X2789110Y-12356484D02*
X2808158Y-12366008D01*
X2808158Y-12366008D02*
X2817682Y-12375531D01*
X2817682Y-12375531D02*
X2827205Y-12394579D01*
X2827205Y-12394579D02*
X2836729Y-12432674D01*
X2836729Y-12432674D02*
X2836729Y-12480293D01*
X2836729Y-12480293D02*
X2827205Y-12518388D01*
X2827205Y-12518388D02*
X2817682Y-12537436D01*
X2817682Y-12537436D02*
X2808158Y-12546960D01*
X2808158Y-12546960D02*
X2789110Y-12556484D01*
X2789110Y-12556484D02*
X2770063Y-12556484D01*
X2770063Y-12556484D02*
X2751015Y-12546960D01*
X2751015Y-12546960D02*
X2741491Y-12537436D01*
X2741491Y-12537436D02*
X2731967Y-12518388D01*
X2731967Y-12518388D02*
X2722444Y-12480293D01*
X2722444Y-12480293D02*
X2722444Y-12432674D01*
X2722444Y-12432674D02*
X2731967Y-12394579D01*
X2731967Y-12394579D02*
X2741491Y-12375531D01*
X2741491Y-12375531D02*
X2751015Y-12366008D01*
X2751015Y-12366008D02*
X2770063Y-12356484D01*
X2960539Y-12356484D02*
X2979586Y-12356484D01*
X2979586Y-12356484D02*
X2998634Y-12366008D01*
X2998634Y-12366008D02*
X3008158Y-12375531D01*
X3008158Y-12375531D02*
X3017682Y-12394579D01*
X3017682Y-12394579D02*
X3027205Y-12432674D01*
X3027205Y-12432674D02*
X3027205Y-12480293D01*
X3027205Y-12480293D02*
X3017682Y-12518388D01*
X3017682Y-12518388D02*
X3008158Y-12537436D01*
X3008158Y-12537436D02*
X2998634Y-12546960D01*
X2998634Y-12546960D02*
X2979586Y-12556484D01*
X2979586Y-12556484D02*
X2960539Y-12556484D01*
X2960539Y-12556484D02*
X2941491Y-12546960D01*
X2941491Y-12546960D02*
X2931967Y-12537436D01*
X2931967Y-12537436D02*
X2922443Y-12518388D01*
X2922443Y-12518388D02*
X2912920Y-12480293D01*
X2912920Y-12480293D02*
X2912920Y-12432674D01*
X2912920Y-12432674D02*
X2922443Y-12394579D01*
X2922443Y-12394579D02*
X2931967Y-12375531D01*
X2931967Y-12375531D02*
X2941491Y-12366008D01*
X2941491Y-12366008D02*
X2960539Y-12356484D01*
X3112920Y-12556484D02*
X3112920Y-12423150D01*
X3112920Y-12442198D02*
X3122443Y-12432674D01*
X3122443Y-12432674D02*
X3141491Y-12423150D01*
X3141491Y-12423150D02*
X3170063Y-12423150D01*
X3170063Y-12423150D02*
X3189110Y-12432674D01*
X3189110Y-12432674D02*
X3198634Y-12451722D01*
X3198634Y-12451722D02*
X3198634Y-12556484D01*
X3198634Y-12451722D02*
X3208158Y-12432674D01*
X3208158Y-12432674D02*
X3227205Y-12423150D01*
X3227205Y-12423150D02*
X3255777Y-12423150D01*
X3255777Y-12423150D02*
X3274824Y-12432674D01*
X3274824Y-12432674D02*
X3284348Y-12451722D01*
X3284348Y-12451722D02*
X3284348Y-12556484D01*
X3379586Y-12556484D02*
X3379586Y-12423150D01*
X3379586Y-12442198D02*
X3389110Y-12432674D01*
X3389110Y-12432674D02*
X3408158Y-12423150D01*
X3408158Y-12423150D02*
X3436729Y-12423150D01*
X3436729Y-12423150D02*
X3455777Y-12432674D01*
X3455777Y-12432674D02*
X3465301Y-12451722D01*
X3465301Y-12451722D02*
X3465301Y-12556484D01*
X3465301Y-12451722D02*
X3474824Y-12432674D01*
X3474824Y-12432674D02*
X3493872Y-12423150D01*
X3493872Y-12423150D02*
X3522443Y-12423150D01*
X3522443Y-12423150D02*
X3541491Y-12432674D01*
X3541491Y-12432674D02*
X3551015Y-12451722D01*
X3551015Y-12451722D02*
X3551015Y-12556484D01*
X3941491Y-12346960D02*
X3770063Y-12604103D01*
X4198634Y-12356484D02*
X4217682Y-12356484D01*
X4217682Y-12356484D02*
X4236729Y-12366008D01*
X4236729Y-12366008D02*
X4246253Y-12375531D01*
X4246253Y-12375531D02*
X4255777Y-12394579D01*
X4255777Y-12394579D02*
X4265301Y-12432674D01*
X4265301Y-12432674D02*
X4265301Y-12480293D01*
X4265301Y-12480293D02*
X4255777Y-12518388D01*
X4255777Y-12518388D02*
X4246253Y-12537436D01*
X4246253Y-12537436D02*
X4236729Y-12546960D01*
X4236729Y-12546960D02*
X4217682Y-12556484D01*
X4217682Y-12556484D02*
X4198634Y-12556484D01*
X4198634Y-12556484D02*
X4179586Y-12546960D01*
X4179586Y-12546960D02*
X4170063Y-12537436D01*
X4170063Y-12537436D02*
X4160539Y-12518388D01*
X4160539Y-12518388D02*
X4151015Y-12480293D01*
X4151015Y-12480293D02*
X4151015Y-12432674D01*
X4151015Y-12432674D02*
X4160539Y-12394579D01*
X4160539Y-12394579D02*
X4170063Y-12375531D01*
X4170063Y-12375531D02*
X4179586Y-12366008D01*
X4179586Y-12366008D02*
X4198634Y-12356484D01*
X4351015Y-12537436D02*
X4360539Y-12546960D01*
X4360539Y-12546960D02*
X4351015Y-12556484D01*
X4351015Y-12556484D02*
X4341491Y-12546960D01*
X4341491Y-12546960D02*
X4351015Y-12537436D01*
X4351015Y-12537436D02*
X4351015Y-12556484D01*
X4484348Y-12356484D02*
X4503396Y-12356484D01*
X4503396Y-12356484D02*
X4522444Y-12366008D01*
X4522444Y-12366008D02*
X4531968Y-12375531D01*
X4531968Y-12375531D02*
X4541491Y-12394579D01*
X4541491Y-12394579D02*
X4551015Y-12432674D01*
X4551015Y-12432674D02*
X4551015Y-12480293D01*
X4551015Y-12480293D02*
X4541491Y-12518388D01*
X4541491Y-12518388D02*
X4531968Y-12537436D01*
X4531968Y-12537436D02*
X4522444Y-12546960D01*
X4522444Y-12546960D02*
X4503396Y-12556484D01*
X4503396Y-12556484D02*
X4484348Y-12556484D01*
X4484348Y-12556484D02*
X4465301Y-12546960D01*
X4465301Y-12546960D02*
X4455777Y-12537436D01*
X4455777Y-12537436D02*
X4446253Y-12518388D01*
X4446253Y-12518388D02*
X4436729Y-12480293D01*
X4436729Y-12480293D02*
X4436729Y-12432674D01*
X4436729Y-12432674D02*
X4446253Y-12394579D01*
X4446253Y-12394579D02*
X4455777Y-12375531D01*
X4455777Y-12375531D02*
X4465301Y-12366008D01*
X4465301Y-12366008D02*
X4484348Y-12356484D01*
X4741491Y-12556484D02*
X4627206Y-12556484D01*
X4684348Y-12556484D02*
X4684348Y-12356484D01*
X4684348Y-12356484D02*
X4665301Y-12385055D01*
X4665301Y-12385055D02*
X4646253Y-12404103D01*
X4646253Y-12404103D02*
X4627206Y-12413627D01*
X4922444Y-12356484D02*
X4827206Y-12356484D01*
X4827206Y-12356484D02*
X4817682Y-12451722D01*
X4817682Y-12451722D02*
X4827206Y-12442198D01*
X4827206Y-12442198D02*
X4846253Y-12432674D01*
X4846253Y-12432674D02*
X4893872Y-12432674D01*
X4893872Y-12432674D02*
X4912920Y-12442198D01*
X4912920Y-12442198D02*
X4922444Y-12451722D01*
X4922444Y-12451722D02*
X4931968Y-12470769D01*
X4931968Y-12470769D02*
X4931968Y-12518388D01*
X4931968Y-12518388D02*
X4922444Y-12537436D01*
X4922444Y-12537436D02*
X4912920Y-12546960D01*
X4912920Y-12546960D02*
X4893872Y-12556484D01*
X4893872Y-12556484D02*
X4846253Y-12556484D01*
X4846253Y-12556484D02*
X4827206Y-12546960D01*
X4827206Y-12546960D02*
X4817682Y-12537436D01*
X4998634Y-12356484D02*
X5131968Y-12356484D01*
X5131968Y-12356484D02*
X5046253Y-12556484D01*
X5198634Y-12356484D02*
X5198634Y-12394579D01*
X5274825Y-12356484D02*
X5274825Y-12394579D01*
X5570063Y-12632674D02*
X5560539Y-12623150D01*
X5560539Y-12623150D02*
X5541491Y-12594579D01*
X5541491Y-12594579D02*
X5531968Y-12575531D01*
X5531968Y-12575531D02*
X5522444Y-12546960D01*
X5522444Y-12546960D02*
X5512920Y-12499341D01*
X5512920Y-12499341D02*
X5512920Y-12461246D01*
X5512920Y-12461246D02*
X5522444Y-12413627D01*
X5522444Y-12413627D02*
X5531968Y-12385055D01*
X5531968Y-12385055D02*
X5541491Y-12366008D01*
X5541491Y-12366008D02*
X5560539Y-12337436D01*
X5560539Y-12337436D02*
X5570063Y-12327912D01*
X5751015Y-12556484D02*
X5636729Y-12556484D01*
X5693872Y-12556484D02*
X5693872Y-12356484D01*
X5693872Y-12356484D02*
X5674825Y-12385055D01*
X5674825Y-12385055D02*
X5655777Y-12404103D01*
X5655777Y-12404103D02*
X5636729Y-12413627D01*
X5941491Y-12556484D02*
X5827206Y-12556484D01*
X5884348Y-12556484D02*
X5884348Y-12356484D01*
X5884348Y-12356484D02*
X5865301Y-12385055D01*
X5865301Y-12385055D02*
X5846253Y-12404103D01*
X5846253Y-12404103D02*
X5827206Y-12413627D01*
X6179587Y-12556484D02*
X6179587Y-12356484D01*
X6265301Y-12556484D02*
X6265301Y-12451722D01*
X6265301Y-12451722D02*
X6255777Y-12432674D01*
X6255777Y-12432674D02*
X6236730Y-12423150D01*
X6236730Y-12423150D02*
X6208158Y-12423150D01*
X6208158Y-12423150D02*
X6189110Y-12432674D01*
X6189110Y-12432674D02*
X6179587Y-12442198D01*
X6389110Y-12556484D02*
X6370063Y-12546960D01*
X6370063Y-12546960D02*
X6360539Y-12537436D01*
X6360539Y-12537436D02*
X6351015Y-12518388D01*
X6351015Y-12518388D02*
X6351015Y-12461246D01*
X6351015Y-12461246D02*
X6360539Y-12442198D01*
X6360539Y-12442198D02*
X6370063Y-12432674D01*
X6370063Y-12432674D02*
X6389110Y-12423150D01*
X6389110Y-12423150D02*
X6417682Y-12423150D01*
X6417682Y-12423150D02*
X6436730Y-12432674D01*
X6436730Y-12432674D02*
X6446253Y-12442198D01*
X6446253Y-12442198D02*
X6455777Y-12461246D01*
X6455777Y-12461246D02*
X6455777Y-12518388D01*
X6455777Y-12518388D02*
X6446253Y-12537436D01*
X6446253Y-12537436D02*
X6436730Y-12546960D01*
X6436730Y-12546960D02*
X6417682Y-12556484D01*
X6417682Y-12556484D02*
X6389110Y-12556484D01*
X6570063Y-12556484D02*
X6551015Y-12546960D01*
X6551015Y-12546960D02*
X6541491Y-12527912D01*
X6541491Y-12527912D02*
X6541491Y-12356484D01*
X6722444Y-12546960D02*
X6703396Y-12556484D01*
X6703396Y-12556484D02*
X6665301Y-12556484D01*
X6665301Y-12556484D02*
X6646253Y-12546960D01*
X6646253Y-12546960D02*
X6636730Y-12527912D01*
X6636730Y-12527912D02*
X6636730Y-12451722D01*
X6636730Y-12451722D02*
X6646253Y-12432674D01*
X6646253Y-12432674D02*
X6665301Y-12423150D01*
X6665301Y-12423150D02*
X6703396Y-12423150D01*
X6703396Y-12423150D02*
X6722444Y-12432674D01*
X6722444Y-12432674D02*
X6731968Y-12451722D01*
X6731968Y-12451722D02*
X6731968Y-12470769D01*
X6731968Y-12470769D02*
X6636730Y-12489817D01*
X6808158Y-12546960D02*
X6827206Y-12556484D01*
X6827206Y-12556484D02*
X6865301Y-12556484D01*
X6865301Y-12556484D02*
X6884349Y-12546960D01*
X6884349Y-12546960D02*
X6893872Y-12527912D01*
X6893872Y-12527912D02*
X6893872Y-12518388D01*
X6893872Y-12518388D02*
X6884349Y-12499341D01*
X6884349Y-12499341D02*
X6865301Y-12489817D01*
X6865301Y-12489817D02*
X6836730Y-12489817D01*
X6836730Y-12489817D02*
X6817682Y-12480293D01*
X6817682Y-12480293D02*
X6808158Y-12461246D01*
X6808158Y-12461246D02*
X6808158Y-12451722D01*
X6808158Y-12451722D02*
X6817682Y-12432674D01*
X6817682Y-12432674D02*
X6836730Y-12423150D01*
X6836730Y-12423150D02*
X6865301Y-12423150D01*
X6865301Y-12423150D02*
X6884349Y-12432674D01*
X6960539Y-12632674D02*
X6970063Y-12623150D01*
X6970063Y-12623150D02*
X6989111Y-12594579D01*
X6989111Y-12594579D02*
X6998634Y-12575531D01*
X6998634Y-12575531D02*
X7008158Y-12546960D01*
X7008158Y-12546960D02*
X7017682Y-12499341D01*
X7017682Y-12499341D02*
X7017682Y-12461246D01*
X7017682Y-12461246D02*
X7008158Y-12413627D01*
X7008158Y-12413627D02*
X6998634Y-12385055D01*
X6998634Y-12385055D02*
X6989111Y-12366008D01*
X6989111Y-12366008D02*
X6970063Y-12337436D01*
X6970063Y-12337436D02*
X6960539Y-12327912D01*
D10*
X1995000Y-12729000D02*
G75*
G02*
X1925000Y-12729000I-35000J0D01*
G01*
X1925000Y-12729000D02*
G75*
G02*
X1995000Y-12729000I35000J0D01*
G01*
D11*
X2293872Y-12620484D02*
X2312920Y-12620484D01*
X2312920Y-12620484D02*
X2331967Y-12630008D01*
X2331967Y-12630008D02*
X2341491Y-12639531D01*
X2341491Y-12639531D02*
X2351015Y-12658579D01*
X2351015Y-12658579D02*
X2360539Y-12696674D01*
X2360539Y-12696674D02*
X2360539Y-12744293D01*
X2360539Y-12744293D02*
X2351015Y-12782388D01*
X2351015Y-12782388D02*
X2341491Y-12801436D01*
X2341491Y-12801436D02*
X2331967Y-12810960D01*
X2331967Y-12810960D02*
X2312920Y-12820484D01*
X2312920Y-12820484D02*
X2293872Y-12820484D01*
X2293872Y-12820484D02*
X2274824Y-12810960D01*
X2274824Y-12810960D02*
X2265301Y-12801436D01*
X2265301Y-12801436D02*
X2255777Y-12782388D01*
X2255777Y-12782388D02*
X2246253Y-12744293D01*
X2246253Y-12744293D02*
X2246253Y-12696674D01*
X2246253Y-12696674D02*
X2255777Y-12658579D01*
X2255777Y-12658579D02*
X2265301Y-12639531D01*
X2265301Y-12639531D02*
X2274824Y-12630008D01*
X2274824Y-12630008D02*
X2293872Y-12620484D01*
X2446253Y-12801436D02*
X2455777Y-12810960D01*
X2455777Y-12810960D02*
X2446253Y-12820484D01*
X2446253Y-12820484D02*
X2436729Y-12810960D01*
X2436729Y-12810960D02*
X2446253Y-12801436D01*
X2446253Y-12801436D02*
X2446253Y-12820484D01*
X2522444Y-12620484D02*
X2655777Y-12620484D01*
X2655777Y-12620484D02*
X2570063Y-12820484D01*
X2770063Y-12620484D02*
X2789110Y-12620484D01*
X2789110Y-12620484D02*
X2808158Y-12630008D01*
X2808158Y-12630008D02*
X2817682Y-12639531D01*
X2817682Y-12639531D02*
X2827205Y-12658579D01*
X2827205Y-12658579D02*
X2836729Y-12696674D01*
X2836729Y-12696674D02*
X2836729Y-12744293D01*
X2836729Y-12744293D02*
X2827205Y-12782388D01*
X2827205Y-12782388D02*
X2817682Y-12801436D01*
X2817682Y-12801436D02*
X2808158Y-12810960D01*
X2808158Y-12810960D02*
X2789110Y-12820484D01*
X2789110Y-12820484D02*
X2770063Y-12820484D01*
X2770063Y-12820484D02*
X2751015Y-12810960D01*
X2751015Y-12810960D02*
X2741491Y-12801436D01*
X2741491Y-12801436D02*
X2731967Y-12782388D01*
X2731967Y-12782388D02*
X2722444Y-12744293D01*
X2722444Y-12744293D02*
X2722444Y-12696674D01*
X2722444Y-12696674D02*
X2731967Y-12658579D01*
X2731967Y-12658579D02*
X2741491Y-12639531D01*
X2741491Y-12639531D02*
X2751015Y-12630008D01*
X2751015Y-12630008D02*
X2770063Y-12620484D01*
X2960539Y-12620484D02*
X2979586Y-12620484D01*
X2979586Y-12620484D02*
X2998634Y-12630008D01*
X2998634Y-12630008D02*
X3008158Y-12639531D01*
X3008158Y-12639531D02*
X3017682Y-12658579D01*
X3017682Y-12658579D02*
X3027205Y-12696674D01*
X3027205Y-12696674D02*
X3027205Y-12744293D01*
X3027205Y-12744293D02*
X3017682Y-12782388D01*
X3017682Y-12782388D02*
X3008158Y-12801436D01*
X3008158Y-12801436D02*
X2998634Y-12810960D01*
X2998634Y-12810960D02*
X2979586Y-12820484D01*
X2979586Y-12820484D02*
X2960539Y-12820484D01*
X2960539Y-12820484D02*
X2941491Y-12810960D01*
X2941491Y-12810960D02*
X2931967Y-12801436D01*
X2931967Y-12801436D02*
X2922443Y-12782388D01*
X2922443Y-12782388D02*
X2912920Y-12744293D01*
X2912920Y-12744293D02*
X2912920Y-12696674D01*
X2912920Y-12696674D02*
X2922443Y-12658579D01*
X2922443Y-12658579D02*
X2931967Y-12639531D01*
X2931967Y-12639531D02*
X2941491Y-12630008D01*
X2941491Y-12630008D02*
X2960539Y-12620484D01*
X3112920Y-12820484D02*
X3112920Y-12687150D01*
X3112920Y-12706198D02*
X3122443Y-12696674D01*
X3122443Y-12696674D02*
X3141491Y-12687150D01*
X3141491Y-12687150D02*
X3170063Y-12687150D01*
X3170063Y-12687150D02*
X3189110Y-12696674D01*
X3189110Y-12696674D02*
X3198634Y-12715722D01*
X3198634Y-12715722D02*
X3198634Y-12820484D01*
X3198634Y-12715722D02*
X3208158Y-12696674D01*
X3208158Y-12696674D02*
X3227205Y-12687150D01*
X3227205Y-12687150D02*
X3255777Y-12687150D01*
X3255777Y-12687150D02*
X3274824Y-12696674D01*
X3274824Y-12696674D02*
X3284348Y-12715722D01*
X3284348Y-12715722D02*
X3284348Y-12820484D01*
X3379586Y-12820484D02*
X3379586Y-12687150D01*
X3379586Y-12706198D02*
X3389110Y-12696674D01*
X3389110Y-12696674D02*
X3408158Y-12687150D01*
X3408158Y-12687150D02*
X3436729Y-12687150D01*
X3436729Y-12687150D02*
X3455777Y-12696674D01*
X3455777Y-12696674D02*
X3465301Y-12715722D01*
X3465301Y-12715722D02*
X3465301Y-12820484D01*
X3465301Y-12715722D02*
X3474824Y-12696674D01*
X3474824Y-12696674D02*
X3493872Y-12687150D01*
X3493872Y-12687150D02*
X3522443Y-12687150D01*
X3522443Y-12687150D02*
X3541491Y-12696674D01*
X3541491Y-12696674D02*
X3551015Y-12715722D01*
X3551015Y-12715722D02*
X3551015Y-12820484D01*
X3941491Y-12610960D02*
X3770063Y-12868103D01*
X4198634Y-12620484D02*
X4217682Y-12620484D01*
X4217682Y-12620484D02*
X4236729Y-12630008D01*
X4236729Y-12630008D02*
X4246253Y-12639531D01*
X4246253Y-12639531D02*
X4255777Y-12658579D01*
X4255777Y-12658579D02*
X4265301Y-12696674D01*
X4265301Y-12696674D02*
X4265301Y-12744293D01*
X4265301Y-12744293D02*
X4255777Y-12782388D01*
X4255777Y-12782388D02*
X4246253Y-12801436D01*
X4246253Y-12801436D02*
X4236729Y-12810960D01*
X4236729Y-12810960D02*
X4217682Y-12820484D01*
X4217682Y-12820484D02*
X4198634Y-12820484D01*
X4198634Y-12820484D02*
X4179586Y-12810960D01*
X4179586Y-12810960D02*
X4170063Y-12801436D01*
X4170063Y-12801436D02*
X4160539Y-12782388D01*
X4160539Y-12782388D02*
X4151015Y-12744293D01*
X4151015Y-12744293D02*
X4151015Y-12696674D01*
X4151015Y-12696674D02*
X4160539Y-12658579D01*
X4160539Y-12658579D02*
X4170063Y-12639531D01*
X4170063Y-12639531D02*
X4179586Y-12630008D01*
X4179586Y-12630008D02*
X4198634Y-12620484D01*
X4351015Y-12801436D02*
X4360539Y-12810960D01*
X4360539Y-12810960D02*
X4351015Y-12820484D01*
X4351015Y-12820484D02*
X4341491Y-12810960D01*
X4341491Y-12810960D02*
X4351015Y-12801436D01*
X4351015Y-12801436D02*
X4351015Y-12820484D01*
X4484348Y-12620484D02*
X4503396Y-12620484D01*
X4503396Y-12620484D02*
X4522444Y-12630008D01*
X4522444Y-12630008D02*
X4531968Y-12639531D01*
X4531968Y-12639531D02*
X4541491Y-12658579D01*
X4541491Y-12658579D02*
X4551015Y-12696674D01*
X4551015Y-12696674D02*
X4551015Y-12744293D01*
X4551015Y-12744293D02*
X4541491Y-12782388D01*
X4541491Y-12782388D02*
X4531968Y-12801436D01*
X4531968Y-12801436D02*
X4522444Y-12810960D01*
X4522444Y-12810960D02*
X4503396Y-12820484D01*
X4503396Y-12820484D02*
X4484348Y-12820484D01*
X4484348Y-12820484D02*
X4465301Y-12810960D01*
X4465301Y-12810960D02*
X4455777Y-12801436D01*
X4455777Y-12801436D02*
X4446253Y-12782388D01*
X4446253Y-12782388D02*
X4436729Y-12744293D01*
X4436729Y-12744293D02*
X4436729Y-12696674D01*
X4436729Y-12696674D02*
X4446253Y-12658579D01*
X4446253Y-12658579D02*
X4455777Y-12639531D01*
X4455777Y-12639531D02*
X4465301Y-12630008D01*
X4465301Y-12630008D02*
X4484348Y-12620484D01*
X4627206Y-12639531D02*
X4636729Y-12630008D01*
X4636729Y-12630008D02*
X4655777Y-12620484D01*
X4655777Y-12620484D02*
X4703396Y-12620484D01*
X4703396Y-12620484D02*
X4722444Y-12630008D01*
X4722444Y-12630008D02*
X4731968Y-12639531D01*
X4731968Y-12639531D02*
X4741491Y-12658579D01*
X4741491Y-12658579D02*
X4741491Y-12677627D01*
X4741491Y-12677627D02*
X4731968Y-12706198D01*
X4731968Y-12706198D02*
X4617682Y-12820484D01*
X4617682Y-12820484D02*
X4741491Y-12820484D01*
X4808158Y-12620484D02*
X4941491Y-12620484D01*
X4941491Y-12620484D02*
X4855777Y-12820484D01*
X5103396Y-12620484D02*
X5065301Y-12620484D01*
X5065301Y-12620484D02*
X5046253Y-12630008D01*
X5046253Y-12630008D02*
X5036729Y-12639531D01*
X5036729Y-12639531D02*
X5017682Y-12668103D01*
X5017682Y-12668103D02*
X5008158Y-12706198D01*
X5008158Y-12706198D02*
X5008158Y-12782388D01*
X5008158Y-12782388D02*
X5017682Y-12801436D01*
X5017682Y-12801436D02*
X5027206Y-12810960D01*
X5027206Y-12810960D02*
X5046253Y-12820484D01*
X5046253Y-12820484D02*
X5084349Y-12820484D01*
X5084349Y-12820484D02*
X5103396Y-12810960D01*
X5103396Y-12810960D02*
X5112920Y-12801436D01*
X5112920Y-12801436D02*
X5122444Y-12782388D01*
X5122444Y-12782388D02*
X5122444Y-12734769D01*
X5122444Y-12734769D02*
X5112920Y-12715722D01*
X5112920Y-12715722D02*
X5103396Y-12706198D01*
X5103396Y-12706198D02*
X5084349Y-12696674D01*
X5084349Y-12696674D02*
X5046253Y-12696674D01*
X5046253Y-12696674D02*
X5027206Y-12706198D01*
X5027206Y-12706198D02*
X5017682Y-12715722D01*
X5017682Y-12715722D02*
X5008158Y-12734769D01*
X5198634Y-12620484D02*
X5198634Y-12658579D01*
X5274825Y-12620484D02*
X5274825Y-12658579D01*
X5570063Y-12896674D02*
X5560539Y-12887150D01*
X5560539Y-12887150D02*
X5541491Y-12858579D01*
X5541491Y-12858579D02*
X5531968Y-12839531D01*
X5531968Y-12839531D02*
X5522444Y-12810960D01*
X5522444Y-12810960D02*
X5512920Y-12763341D01*
X5512920Y-12763341D02*
X5512920Y-12725246D01*
X5512920Y-12725246D02*
X5522444Y-12677627D01*
X5522444Y-12677627D02*
X5531968Y-12649055D01*
X5531968Y-12649055D02*
X5541491Y-12630008D01*
X5541491Y-12630008D02*
X5560539Y-12601436D01*
X5560539Y-12601436D02*
X5570063Y-12591912D01*
X5751015Y-12820484D02*
X5636729Y-12820484D01*
X5693872Y-12820484D02*
X5693872Y-12620484D01*
X5693872Y-12620484D02*
X5674825Y-12649055D01*
X5674825Y-12649055D02*
X5655777Y-12668103D01*
X5655777Y-12668103D02*
X5636729Y-12677627D01*
X5817682Y-12620484D02*
X5941491Y-12620484D01*
X5941491Y-12620484D02*
X5874825Y-12696674D01*
X5874825Y-12696674D02*
X5903396Y-12696674D01*
X5903396Y-12696674D02*
X5922444Y-12706198D01*
X5922444Y-12706198D02*
X5931968Y-12715722D01*
X5931968Y-12715722D02*
X5941491Y-12734769D01*
X5941491Y-12734769D02*
X5941491Y-12782388D01*
X5941491Y-12782388D02*
X5931968Y-12801436D01*
X5931968Y-12801436D02*
X5922444Y-12810960D01*
X5922444Y-12810960D02*
X5903396Y-12820484D01*
X5903396Y-12820484D02*
X5846253Y-12820484D01*
X5846253Y-12820484D02*
X5827206Y-12810960D01*
X5827206Y-12810960D02*
X5817682Y-12801436D01*
X6055777Y-12706198D02*
X6036729Y-12696674D01*
X6036729Y-12696674D02*
X6027206Y-12687150D01*
X6027206Y-12687150D02*
X6017682Y-12668103D01*
X6017682Y-12668103D02*
X6017682Y-12658579D01*
X6017682Y-12658579D02*
X6027206Y-12639531D01*
X6027206Y-12639531D02*
X6036729Y-12630008D01*
X6036729Y-12630008D02*
X6055777Y-12620484D01*
X6055777Y-12620484D02*
X6093872Y-12620484D01*
X6093872Y-12620484D02*
X6112920Y-12630008D01*
X6112920Y-12630008D02*
X6122444Y-12639531D01*
X6122444Y-12639531D02*
X6131968Y-12658579D01*
X6131968Y-12658579D02*
X6131968Y-12668103D01*
X6131968Y-12668103D02*
X6122444Y-12687150D01*
X6122444Y-12687150D02*
X6112920Y-12696674D01*
X6112920Y-12696674D02*
X6093872Y-12706198D01*
X6093872Y-12706198D02*
X6055777Y-12706198D01*
X6055777Y-12706198D02*
X6036729Y-12715722D01*
X6036729Y-12715722D02*
X6027206Y-12725246D01*
X6027206Y-12725246D02*
X6017682Y-12744293D01*
X6017682Y-12744293D02*
X6017682Y-12782388D01*
X6017682Y-12782388D02*
X6027206Y-12801436D01*
X6027206Y-12801436D02*
X6036729Y-12810960D01*
X6036729Y-12810960D02*
X6055777Y-12820484D01*
X6055777Y-12820484D02*
X6093872Y-12820484D01*
X6093872Y-12820484D02*
X6112920Y-12810960D01*
X6112920Y-12810960D02*
X6122444Y-12801436D01*
X6122444Y-12801436D02*
X6131968Y-12782388D01*
X6131968Y-12782388D02*
X6131968Y-12744293D01*
X6131968Y-12744293D02*
X6122444Y-12725246D01*
X6122444Y-12725246D02*
X6112920Y-12715722D01*
X6112920Y-12715722D02*
X6093872Y-12706198D01*
X6370063Y-12820484D02*
X6370063Y-12620484D01*
X6455777Y-12820484D02*
X6455777Y-12715722D01*
X6455777Y-12715722D02*
X6446253Y-12696674D01*
X6446253Y-12696674D02*
X6427206Y-12687150D01*
X6427206Y-12687150D02*
X6398634Y-12687150D01*
X6398634Y-12687150D02*
X6379587Y-12696674D01*
X6379587Y-12696674D02*
X6370063Y-12706198D01*
X6579587Y-12820484D02*
X6560539Y-12810960D01*
X6560539Y-12810960D02*
X6551015Y-12801436D01*
X6551015Y-12801436D02*
X6541491Y-12782388D01*
X6541491Y-12782388D02*
X6541491Y-12725246D01*
X6541491Y-12725246D02*
X6551015Y-12706198D01*
X6551015Y-12706198D02*
X6560539Y-12696674D01*
X6560539Y-12696674D02*
X6579587Y-12687150D01*
X6579587Y-12687150D02*
X6608158Y-12687150D01*
X6608158Y-12687150D02*
X6627206Y-12696674D01*
X6627206Y-12696674D02*
X6636730Y-12706198D01*
X6636730Y-12706198D02*
X6646253Y-12725246D01*
X6646253Y-12725246D02*
X6646253Y-12782388D01*
X6646253Y-12782388D02*
X6636730Y-12801436D01*
X6636730Y-12801436D02*
X6627206Y-12810960D01*
X6627206Y-12810960D02*
X6608158Y-12820484D01*
X6608158Y-12820484D02*
X6579587Y-12820484D01*
X6760539Y-12820484D02*
X6741491Y-12810960D01*
X6741491Y-12810960D02*
X6731968Y-12791912D01*
X6731968Y-12791912D02*
X6731968Y-12620484D01*
X6912920Y-12810960D02*
X6893872Y-12820484D01*
X6893872Y-12820484D02*
X6855777Y-12820484D01*
X6855777Y-12820484D02*
X6836730Y-12810960D01*
X6836730Y-12810960D02*
X6827206Y-12791912D01*
X6827206Y-12791912D02*
X6827206Y-12715722D01*
X6827206Y-12715722D02*
X6836730Y-12696674D01*
X6836730Y-12696674D02*
X6855777Y-12687150D01*
X6855777Y-12687150D02*
X6893872Y-12687150D01*
X6893872Y-12687150D02*
X6912920Y-12696674D01*
X6912920Y-12696674D02*
X6922444Y-12715722D01*
X6922444Y-12715722D02*
X6922444Y-12734769D01*
X6922444Y-12734769D02*
X6827206Y-12753817D01*
X6998634Y-12810960D02*
X7017682Y-12820484D01*
X7017682Y-12820484D02*
X7055777Y-12820484D01*
X7055777Y-12820484D02*
X7074825Y-12810960D01*
X7074825Y-12810960D02*
X7084349Y-12791912D01*
X7084349Y-12791912D02*
X7084349Y-12782388D01*
X7084349Y-12782388D02*
X7074825Y-12763341D01*
X7074825Y-12763341D02*
X7055777Y-12753817D01*
X7055777Y-12753817D02*
X7027206Y-12753817D01*
X7027206Y-12753817D02*
X7008158Y-12744293D01*
X7008158Y-12744293D02*
X6998634Y-12725246D01*
X6998634Y-12725246D02*
X6998634Y-12715722D01*
X6998634Y-12715722D02*
X7008158Y-12696674D01*
X7008158Y-12696674D02*
X7027206Y-12687150D01*
X7027206Y-12687150D02*
X7055777Y-12687150D01*
X7055777Y-12687150D02*
X7074825Y-12696674D01*
X7151015Y-12896674D02*
X7160539Y-12887150D01*
X7160539Y-12887150D02*
X7179587Y-12858579D01*
X7179587Y-12858579D02*
X7189111Y-12839531D01*
X7189111Y-12839531D02*
X7198634Y-12810960D01*
X7198634Y-12810960D02*
X7208158Y-12763341D01*
X7208158Y-12763341D02*
X7208158Y-12725246D01*
X7208158Y-12725246D02*
X7198634Y-12677627D01*
X7198634Y-12677627D02*
X7189111Y-12649055D01*
X7189111Y-12649055D02*
X7179587Y-12630008D01*
X7179587Y-12630008D02*
X7160539Y-12601436D01*
X7160539Y-12601436D02*
X7151015Y-12591912D01*
D10*
X1957500Y-12955500D02*
X1957500Y-13030500D01*
X1920000Y-12993000D02*
X1995000Y-12993000D01*
D11*
X2293872Y-12884484D02*
X2312920Y-12884484D01*
X2312920Y-12884484D02*
X2331967Y-12894008D01*
X2331967Y-12894008D02*
X2341491Y-12903531D01*
X2341491Y-12903531D02*
X2351015Y-12922579D01*
X2351015Y-12922579D02*
X2360539Y-12960674D01*
X2360539Y-12960674D02*
X2360539Y-13008293D01*
X2360539Y-13008293D02*
X2351015Y-13046388D01*
X2351015Y-13046388D02*
X2341491Y-13065436D01*
X2341491Y-13065436D02*
X2331967Y-13074960D01*
X2331967Y-13074960D02*
X2312920Y-13084484D01*
X2312920Y-13084484D02*
X2293872Y-13084484D01*
X2293872Y-13084484D02*
X2274824Y-13074960D01*
X2274824Y-13074960D02*
X2265301Y-13065436D01*
X2265301Y-13065436D02*
X2255777Y-13046388D01*
X2255777Y-13046388D02*
X2246253Y-13008293D01*
X2246253Y-13008293D02*
X2246253Y-12960674D01*
X2246253Y-12960674D02*
X2255777Y-12922579D01*
X2255777Y-12922579D02*
X2265301Y-12903531D01*
X2265301Y-12903531D02*
X2274824Y-12894008D01*
X2274824Y-12894008D02*
X2293872Y-12884484D01*
X2446253Y-13065436D02*
X2455777Y-13074960D01*
X2455777Y-13074960D02*
X2446253Y-13084484D01*
X2446253Y-13084484D02*
X2436729Y-13074960D01*
X2436729Y-13074960D02*
X2446253Y-13065436D01*
X2446253Y-13065436D02*
X2446253Y-13084484D01*
X2522444Y-12884484D02*
X2655777Y-12884484D01*
X2655777Y-12884484D02*
X2570063Y-13084484D01*
X2827205Y-12884484D02*
X2731967Y-12884484D01*
X2731967Y-12884484D02*
X2722444Y-12979722D01*
X2722444Y-12979722D02*
X2731967Y-12970198D01*
X2731967Y-12970198D02*
X2751015Y-12960674D01*
X2751015Y-12960674D02*
X2798634Y-12960674D01*
X2798634Y-12960674D02*
X2817682Y-12970198D01*
X2817682Y-12970198D02*
X2827205Y-12979722D01*
X2827205Y-12979722D02*
X2836729Y-12998769D01*
X2836729Y-12998769D02*
X2836729Y-13046388D01*
X2836729Y-13046388D02*
X2827205Y-13065436D01*
X2827205Y-13065436D02*
X2817682Y-13074960D01*
X2817682Y-13074960D02*
X2798634Y-13084484D01*
X2798634Y-13084484D02*
X2751015Y-13084484D01*
X2751015Y-13084484D02*
X2731967Y-13074960D01*
X2731967Y-13074960D02*
X2722444Y-13065436D01*
X2960539Y-12884484D02*
X2979586Y-12884484D01*
X2979586Y-12884484D02*
X2998634Y-12894008D01*
X2998634Y-12894008D02*
X3008158Y-12903531D01*
X3008158Y-12903531D02*
X3017682Y-12922579D01*
X3017682Y-12922579D02*
X3027205Y-12960674D01*
X3027205Y-12960674D02*
X3027205Y-13008293D01*
X3027205Y-13008293D02*
X3017682Y-13046388D01*
X3017682Y-13046388D02*
X3008158Y-13065436D01*
X3008158Y-13065436D02*
X2998634Y-13074960D01*
X2998634Y-13074960D02*
X2979586Y-13084484D01*
X2979586Y-13084484D02*
X2960539Y-13084484D01*
X2960539Y-13084484D02*
X2941491Y-13074960D01*
X2941491Y-13074960D02*
X2931967Y-13065436D01*
X2931967Y-13065436D02*
X2922443Y-13046388D01*
X2922443Y-13046388D02*
X2912920Y-13008293D01*
X2912920Y-13008293D02*
X2912920Y-12960674D01*
X2912920Y-12960674D02*
X2922443Y-12922579D01*
X2922443Y-12922579D02*
X2931967Y-12903531D01*
X2931967Y-12903531D02*
X2941491Y-12894008D01*
X2941491Y-12894008D02*
X2960539Y-12884484D01*
X3112920Y-13084484D02*
X3112920Y-12951150D01*
X3112920Y-12970198D02*
X3122443Y-12960674D01*
X3122443Y-12960674D02*
X3141491Y-12951150D01*
X3141491Y-12951150D02*
X3170063Y-12951150D01*
X3170063Y-12951150D02*
X3189110Y-12960674D01*
X3189110Y-12960674D02*
X3198634Y-12979722D01*
X3198634Y-12979722D02*
X3198634Y-13084484D01*
X3198634Y-12979722D02*
X3208158Y-12960674D01*
X3208158Y-12960674D02*
X3227205Y-12951150D01*
X3227205Y-12951150D02*
X3255777Y-12951150D01*
X3255777Y-12951150D02*
X3274824Y-12960674D01*
X3274824Y-12960674D02*
X3284348Y-12979722D01*
X3284348Y-12979722D02*
X3284348Y-13084484D01*
X3379586Y-13084484D02*
X3379586Y-12951150D01*
X3379586Y-12970198D02*
X3389110Y-12960674D01*
X3389110Y-12960674D02*
X3408158Y-12951150D01*
X3408158Y-12951150D02*
X3436729Y-12951150D01*
X3436729Y-12951150D02*
X3455777Y-12960674D01*
X3455777Y-12960674D02*
X3465301Y-12979722D01*
X3465301Y-12979722D02*
X3465301Y-13084484D01*
X3465301Y-12979722D02*
X3474824Y-12960674D01*
X3474824Y-12960674D02*
X3493872Y-12951150D01*
X3493872Y-12951150D02*
X3522443Y-12951150D01*
X3522443Y-12951150D02*
X3541491Y-12960674D01*
X3541491Y-12960674D02*
X3551015Y-12979722D01*
X3551015Y-12979722D02*
X3551015Y-13084484D01*
X3941491Y-12874960D02*
X3770063Y-13132103D01*
X4198634Y-12884484D02*
X4217682Y-12884484D01*
X4217682Y-12884484D02*
X4236729Y-12894008D01*
X4236729Y-12894008D02*
X4246253Y-12903531D01*
X4246253Y-12903531D02*
X4255777Y-12922579D01*
X4255777Y-12922579D02*
X4265301Y-12960674D01*
X4265301Y-12960674D02*
X4265301Y-13008293D01*
X4265301Y-13008293D02*
X4255777Y-13046388D01*
X4255777Y-13046388D02*
X4246253Y-13065436D01*
X4246253Y-13065436D02*
X4236729Y-13074960D01*
X4236729Y-13074960D02*
X4217682Y-13084484D01*
X4217682Y-13084484D02*
X4198634Y-13084484D01*
X4198634Y-13084484D02*
X4179586Y-13074960D01*
X4179586Y-13074960D02*
X4170063Y-13065436D01*
X4170063Y-13065436D02*
X4160539Y-13046388D01*
X4160539Y-13046388D02*
X4151015Y-13008293D01*
X4151015Y-13008293D02*
X4151015Y-12960674D01*
X4151015Y-12960674D02*
X4160539Y-12922579D01*
X4160539Y-12922579D02*
X4170063Y-12903531D01*
X4170063Y-12903531D02*
X4179586Y-12894008D01*
X4179586Y-12894008D02*
X4198634Y-12884484D01*
X4351015Y-13065436D02*
X4360539Y-13074960D01*
X4360539Y-13074960D02*
X4351015Y-13084484D01*
X4351015Y-13084484D02*
X4341491Y-13074960D01*
X4341491Y-13074960D02*
X4351015Y-13065436D01*
X4351015Y-13065436D02*
X4351015Y-13084484D01*
X4484348Y-12884484D02*
X4503396Y-12884484D01*
X4503396Y-12884484D02*
X4522444Y-12894008D01*
X4522444Y-12894008D02*
X4531968Y-12903531D01*
X4531968Y-12903531D02*
X4541491Y-12922579D01*
X4541491Y-12922579D02*
X4551015Y-12960674D01*
X4551015Y-12960674D02*
X4551015Y-13008293D01*
X4551015Y-13008293D02*
X4541491Y-13046388D01*
X4541491Y-13046388D02*
X4531968Y-13065436D01*
X4531968Y-13065436D02*
X4522444Y-13074960D01*
X4522444Y-13074960D02*
X4503396Y-13084484D01*
X4503396Y-13084484D02*
X4484348Y-13084484D01*
X4484348Y-13084484D02*
X4465301Y-13074960D01*
X4465301Y-13074960D02*
X4455777Y-13065436D01*
X4455777Y-13065436D02*
X4446253Y-13046388D01*
X4446253Y-13046388D02*
X4436729Y-13008293D01*
X4436729Y-13008293D02*
X4436729Y-12960674D01*
X4436729Y-12960674D02*
X4446253Y-12922579D01*
X4446253Y-12922579D02*
X4455777Y-12903531D01*
X4455777Y-12903531D02*
X4465301Y-12894008D01*
X4465301Y-12894008D02*
X4484348Y-12884484D01*
X4627206Y-12903531D02*
X4636729Y-12894008D01*
X4636729Y-12894008D02*
X4655777Y-12884484D01*
X4655777Y-12884484D02*
X4703396Y-12884484D01*
X4703396Y-12884484D02*
X4722444Y-12894008D01*
X4722444Y-12894008D02*
X4731968Y-12903531D01*
X4731968Y-12903531D02*
X4741491Y-12922579D01*
X4741491Y-12922579D02*
X4741491Y-12941627D01*
X4741491Y-12941627D02*
X4731968Y-12970198D01*
X4731968Y-12970198D02*
X4617682Y-13084484D01*
X4617682Y-13084484D02*
X4741491Y-13084484D01*
X4836729Y-13084484D02*
X4874825Y-13084484D01*
X4874825Y-13084484D02*
X4893872Y-13074960D01*
X4893872Y-13074960D02*
X4903396Y-13065436D01*
X4903396Y-13065436D02*
X4922444Y-13036865D01*
X4922444Y-13036865D02*
X4931968Y-12998769D01*
X4931968Y-12998769D02*
X4931968Y-12922579D01*
X4931968Y-12922579D02*
X4922444Y-12903531D01*
X4922444Y-12903531D02*
X4912920Y-12894008D01*
X4912920Y-12894008D02*
X4893872Y-12884484D01*
X4893872Y-12884484D02*
X4855777Y-12884484D01*
X4855777Y-12884484D02*
X4836729Y-12894008D01*
X4836729Y-12894008D02*
X4827206Y-12903531D01*
X4827206Y-12903531D02*
X4817682Y-12922579D01*
X4817682Y-12922579D02*
X4817682Y-12970198D01*
X4817682Y-12970198D02*
X4827206Y-12989246D01*
X4827206Y-12989246D02*
X4836729Y-12998769D01*
X4836729Y-12998769D02*
X4855777Y-13008293D01*
X4855777Y-13008293D02*
X4893872Y-13008293D01*
X4893872Y-13008293D02*
X4912920Y-12998769D01*
X4912920Y-12998769D02*
X4922444Y-12989246D01*
X4922444Y-12989246D02*
X4931968Y-12970198D01*
X5112920Y-12884484D02*
X5017682Y-12884484D01*
X5017682Y-12884484D02*
X5008158Y-12979722D01*
X5008158Y-12979722D02*
X5017682Y-12970198D01*
X5017682Y-12970198D02*
X5036729Y-12960674D01*
X5036729Y-12960674D02*
X5084349Y-12960674D01*
X5084349Y-12960674D02*
X5103396Y-12970198D01*
X5103396Y-12970198D02*
X5112920Y-12979722D01*
X5112920Y-12979722D02*
X5122444Y-12998769D01*
X5122444Y-12998769D02*
X5122444Y-13046388D01*
X5122444Y-13046388D02*
X5112920Y-13065436D01*
X5112920Y-13065436D02*
X5103396Y-13074960D01*
X5103396Y-13074960D02*
X5084349Y-13084484D01*
X5084349Y-13084484D02*
X5036729Y-13084484D01*
X5036729Y-13084484D02*
X5017682Y-13074960D01*
X5017682Y-13074960D02*
X5008158Y-13065436D01*
X5198634Y-12884484D02*
X5198634Y-12922579D01*
X5274825Y-12884484D02*
X5274825Y-12922579D01*
X5570063Y-13160674D02*
X5560539Y-13151150D01*
X5560539Y-13151150D02*
X5541491Y-13122579D01*
X5541491Y-13122579D02*
X5531968Y-13103531D01*
X5531968Y-13103531D02*
X5522444Y-13074960D01*
X5522444Y-13074960D02*
X5512920Y-13027341D01*
X5512920Y-13027341D02*
X5512920Y-12989246D01*
X5512920Y-12989246D02*
X5522444Y-12941627D01*
X5522444Y-12941627D02*
X5531968Y-12913055D01*
X5531968Y-12913055D02*
X5541491Y-12894008D01*
X5541491Y-12894008D02*
X5560539Y-12865436D01*
X5560539Y-12865436D02*
X5570063Y-12855912D01*
X5636729Y-12903531D02*
X5646253Y-12894008D01*
X5646253Y-12894008D02*
X5665301Y-12884484D01*
X5665301Y-12884484D02*
X5712920Y-12884484D01*
X5712920Y-12884484D02*
X5731968Y-12894008D01*
X5731968Y-12894008D02*
X5741491Y-12903531D01*
X5741491Y-12903531D02*
X5751015Y-12922579D01*
X5751015Y-12922579D02*
X5751015Y-12941627D01*
X5751015Y-12941627D02*
X5741491Y-12970198D01*
X5741491Y-12970198D02*
X5627206Y-13084484D01*
X5627206Y-13084484D02*
X5751015Y-13084484D01*
X5989110Y-13084484D02*
X5989110Y-12884484D01*
X6074825Y-13084484D02*
X6074825Y-12979722D01*
X6074825Y-12979722D02*
X6065301Y-12960674D01*
X6065301Y-12960674D02*
X6046253Y-12951150D01*
X6046253Y-12951150D02*
X6017682Y-12951150D01*
X6017682Y-12951150D02*
X5998634Y-12960674D01*
X5998634Y-12960674D02*
X5989110Y-12970198D01*
X6198634Y-13084484D02*
X6179587Y-13074960D01*
X6179587Y-13074960D02*
X6170063Y-13065436D01*
X6170063Y-13065436D02*
X6160539Y-13046388D01*
X6160539Y-13046388D02*
X6160539Y-12989246D01*
X6160539Y-12989246D02*
X6170063Y-12970198D01*
X6170063Y-12970198D02*
X6179587Y-12960674D01*
X6179587Y-12960674D02*
X6198634Y-12951150D01*
X6198634Y-12951150D02*
X6227206Y-12951150D01*
X6227206Y-12951150D02*
X6246253Y-12960674D01*
X6246253Y-12960674D02*
X6255777Y-12970198D01*
X6255777Y-12970198D02*
X6265301Y-12989246D01*
X6265301Y-12989246D02*
X6265301Y-13046388D01*
X6265301Y-13046388D02*
X6255777Y-13065436D01*
X6255777Y-13065436D02*
X6246253Y-13074960D01*
X6246253Y-13074960D02*
X6227206Y-13084484D01*
X6227206Y-13084484D02*
X6198634Y-13084484D01*
X6379587Y-13084484D02*
X6360539Y-13074960D01*
X6360539Y-13074960D02*
X6351015Y-13055912D01*
X6351015Y-13055912D02*
X6351015Y-12884484D01*
X6531968Y-13074960D02*
X6512920Y-13084484D01*
X6512920Y-13084484D02*
X6474825Y-13084484D01*
X6474825Y-13084484D02*
X6455777Y-13074960D01*
X6455777Y-13074960D02*
X6446253Y-13055912D01*
X6446253Y-13055912D02*
X6446253Y-12979722D01*
X6446253Y-12979722D02*
X6455777Y-12960674D01*
X6455777Y-12960674D02*
X6474825Y-12951150D01*
X6474825Y-12951150D02*
X6512920Y-12951150D01*
X6512920Y-12951150D02*
X6531968Y-12960674D01*
X6531968Y-12960674D02*
X6541491Y-12979722D01*
X6541491Y-12979722D02*
X6541491Y-12998769D01*
X6541491Y-12998769D02*
X6446253Y-13017817D01*
X6617682Y-13074960D02*
X6636730Y-13084484D01*
X6636730Y-13084484D02*
X6674825Y-13084484D01*
X6674825Y-13084484D02*
X6693872Y-13074960D01*
X6693872Y-13074960D02*
X6703396Y-13055912D01*
X6703396Y-13055912D02*
X6703396Y-13046388D01*
X6703396Y-13046388D02*
X6693872Y-13027341D01*
X6693872Y-13027341D02*
X6674825Y-13017817D01*
X6674825Y-13017817D02*
X6646253Y-13017817D01*
X6646253Y-13017817D02*
X6627206Y-13008293D01*
X6627206Y-13008293D02*
X6617682Y-12989246D01*
X6617682Y-12989246D02*
X6617682Y-12979722D01*
X6617682Y-12979722D02*
X6627206Y-12960674D01*
X6627206Y-12960674D02*
X6646253Y-12951150D01*
X6646253Y-12951150D02*
X6674825Y-12951150D01*
X6674825Y-12951150D02*
X6693872Y-12960674D01*
X6770063Y-13160674D02*
X6779587Y-13151150D01*
X6779587Y-13151150D02*
X6798634Y-13122579D01*
X6798634Y-13122579D02*
X6808158Y-13103531D01*
X6808158Y-13103531D02*
X6817682Y-13074960D01*
X6817682Y-13074960D02*
X6827206Y-13027341D01*
X6827206Y-13027341D02*
X6827206Y-12989246D01*
X6827206Y-12989246D02*
X6817682Y-12941627D01*
X6817682Y-12941627D02*
X6808158Y-12913055D01*
X6808158Y-12913055D02*
X6798634Y-12894008D01*
X6798634Y-12894008D02*
X6779587Y-12865436D01*
X6779587Y-12865436D02*
X6770063Y-12855912D01*
D10*
X1980356Y-13292356D02*
X1980356Y-13221644D01*
X1909644Y-13221644D01*
X1909644Y-13292356D01*
X1980356Y-13292356D01*
D11*
X2360539Y-13348484D02*
X2246253Y-13348484D01*
X2303396Y-13348484D02*
X2303396Y-13148484D01*
X2303396Y-13148484D02*
X2284348Y-13177055D01*
X2284348Y-13177055D02*
X2265301Y-13196103D01*
X2265301Y-13196103D02*
X2246253Y-13205627D01*
X2446253Y-13329436D02*
X2455777Y-13338960D01*
X2455777Y-13338960D02*
X2446253Y-13348484D01*
X2446253Y-13348484D02*
X2436729Y-13338960D01*
X2436729Y-13338960D02*
X2446253Y-13329436D01*
X2446253Y-13329436D02*
X2446253Y-13348484D01*
X2579586Y-13148484D02*
X2598634Y-13148484D01*
X2598634Y-13148484D02*
X2617682Y-13158008D01*
X2617682Y-13158008D02*
X2627205Y-13167531D01*
X2627205Y-13167531D02*
X2636729Y-13186579D01*
X2636729Y-13186579D02*
X2646253Y-13224674D01*
X2646253Y-13224674D02*
X2646253Y-13272293D01*
X2646253Y-13272293D02*
X2636729Y-13310388D01*
X2636729Y-13310388D02*
X2627205Y-13329436D01*
X2627205Y-13329436D02*
X2617682Y-13338960D01*
X2617682Y-13338960D02*
X2598634Y-13348484D01*
X2598634Y-13348484D02*
X2579586Y-13348484D01*
X2579586Y-13348484D02*
X2560539Y-13338960D01*
X2560539Y-13338960D02*
X2551015Y-13329436D01*
X2551015Y-13329436D02*
X2541491Y-13310388D01*
X2541491Y-13310388D02*
X2531967Y-13272293D01*
X2531967Y-13272293D02*
X2531967Y-13224674D01*
X2531967Y-13224674D02*
X2541491Y-13186579D01*
X2541491Y-13186579D02*
X2551015Y-13167531D01*
X2551015Y-13167531D02*
X2560539Y-13158008D01*
X2560539Y-13158008D02*
X2579586Y-13148484D01*
X2770063Y-13148484D02*
X2789110Y-13148484D01*
X2789110Y-13148484D02*
X2808158Y-13158008D01*
X2808158Y-13158008D02*
X2817682Y-13167531D01*
X2817682Y-13167531D02*
X2827205Y-13186579D01*
X2827205Y-13186579D02*
X2836729Y-13224674D01*
X2836729Y-13224674D02*
X2836729Y-13272293D01*
X2836729Y-13272293D02*
X2827205Y-13310388D01*
X2827205Y-13310388D02*
X2817682Y-13329436D01*
X2817682Y-13329436D02*
X2808158Y-13338960D01*
X2808158Y-13338960D02*
X2789110Y-13348484D01*
X2789110Y-13348484D02*
X2770063Y-13348484D01*
X2770063Y-13348484D02*
X2751015Y-13338960D01*
X2751015Y-13338960D02*
X2741491Y-13329436D01*
X2741491Y-13329436D02*
X2731967Y-13310388D01*
X2731967Y-13310388D02*
X2722444Y-13272293D01*
X2722444Y-13272293D02*
X2722444Y-13224674D01*
X2722444Y-13224674D02*
X2731967Y-13186579D01*
X2731967Y-13186579D02*
X2741491Y-13167531D01*
X2741491Y-13167531D02*
X2751015Y-13158008D01*
X2751015Y-13158008D02*
X2770063Y-13148484D01*
X2960539Y-13148484D02*
X2979586Y-13148484D01*
X2979586Y-13148484D02*
X2998634Y-13158008D01*
X2998634Y-13158008D02*
X3008158Y-13167531D01*
X3008158Y-13167531D02*
X3017682Y-13186579D01*
X3017682Y-13186579D02*
X3027205Y-13224674D01*
X3027205Y-13224674D02*
X3027205Y-13272293D01*
X3027205Y-13272293D02*
X3017682Y-13310388D01*
X3017682Y-13310388D02*
X3008158Y-13329436D01*
X3008158Y-13329436D02*
X2998634Y-13338960D01*
X2998634Y-13338960D02*
X2979586Y-13348484D01*
X2979586Y-13348484D02*
X2960539Y-13348484D01*
X2960539Y-13348484D02*
X2941491Y-13338960D01*
X2941491Y-13338960D02*
X2931967Y-13329436D01*
X2931967Y-13329436D02*
X2922443Y-13310388D01*
X2922443Y-13310388D02*
X2912920Y-13272293D01*
X2912920Y-13272293D02*
X2912920Y-13224674D01*
X2912920Y-13224674D02*
X2922443Y-13186579D01*
X2922443Y-13186579D02*
X2931967Y-13167531D01*
X2931967Y-13167531D02*
X2941491Y-13158008D01*
X2941491Y-13158008D02*
X2960539Y-13148484D01*
X3112920Y-13348484D02*
X3112920Y-13215150D01*
X3112920Y-13234198D02*
X3122443Y-13224674D01*
X3122443Y-13224674D02*
X3141491Y-13215150D01*
X3141491Y-13215150D02*
X3170063Y-13215150D01*
X3170063Y-13215150D02*
X3189110Y-13224674D01*
X3189110Y-13224674D02*
X3198634Y-13243722D01*
X3198634Y-13243722D02*
X3198634Y-13348484D01*
X3198634Y-13243722D02*
X3208158Y-13224674D01*
X3208158Y-13224674D02*
X3227205Y-13215150D01*
X3227205Y-13215150D02*
X3255777Y-13215150D01*
X3255777Y-13215150D02*
X3274824Y-13224674D01*
X3274824Y-13224674D02*
X3284348Y-13243722D01*
X3284348Y-13243722D02*
X3284348Y-13348484D01*
X3379586Y-13348484D02*
X3379586Y-13215150D01*
X3379586Y-13234198D02*
X3389110Y-13224674D01*
X3389110Y-13224674D02*
X3408158Y-13215150D01*
X3408158Y-13215150D02*
X3436729Y-13215150D01*
X3436729Y-13215150D02*
X3455777Y-13224674D01*
X3455777Y-13224674D02*
X3465301Y-13243722D01*
X3465301Y-13243722D02*
X3465301Y-13348484D01*
X3465301Y-13243722D02*
X3474824Y-13224674D01*
X3474824Y-13224674D02*
X3493872Y-13215150D01*
X3493872Y-13215150D02*
X3522443Y-13215150D01*
X3522443Y-13215150D02*
X3541491Y-13224674D01*
X3541491Y-13224674D02*
X3551015Y-13243722D01*
X3551015Y-13243722D02*
X3551015Y-13348484D01*
X3941491Y-13138960D02*
X3770063Y-13396103D01*
X4198634Y-13148484D02*
X4217682Y-13148484D01*
X4217682Y-13148484D02*
X4236729Y-13158008D01*
X4236729Y-13158008D02*
X4246253Y-13167531D01*
X4246253Y-13167531D02*
X4255777Y-13186579D01*
X4255777Y-13186579D02*
X4265301Y-13224674D01*
X4265301Y-13224674D02*
X4265301Y-13272293D01*
X4265301Y-13272293D02*
X4255777Y-13310388D01*
X4255777Y-13310388D02*
X4246253Y-13329436D01*
X4246253Y-13329436D02*
X4236729Y-13338960D01*
X4236729Y-13338960D02*
X4217682Y-13348484D01*
X4217682Y-13348484D02*
X4198634Y-13348484D01*
X4198634Y-13348484D02*
X4179586Y-13338960D01*
X4179586Y-13338960D02*
X4170063Y-13329436D01*
X4170063Y-13329436D02*
X4160539Y-13310388D01*
X4160539Y-13310388D02*
X4151015Y-13272293D01*
X4151015Y-13272293D02*
X4151015Y-13224674D01*
X4151015Y-13224674D02*
X4160539Y-13186579D01*
X4160539Y-13186579D02*
X4170063Y-13167531D01*
X4170063Y-13167531D02*
X4179586Y-13158008D01*
X4179586Y-13158008D02*
X4198634Y-13148484D01*
X4351015Y-13329436D02*
X4360539Y-13338960D01*
X4360539Y-13338960D02*
X4351015Y-13348484D01*
X4351015Y-13348484D02*
X4341491Y-13338960D01*
X4341491Y-13338960D02*
X4351015Y-13329436D01*
X4351015Y-13329436D02*
X4351015Y-13348484D01*
X4484348Y-13148484D02*
X4503396Y-13148484D01*
X4503396Y-13148484D02*
X4522444Y-13158008D01*
X4522444Y-13158008D02*
X4531968Y-13167531D01*
X4531968Y-13167531D02*
X4541491Y-13186579D01*
X4541491Y-13186579D02*
X4551015Y-13224674D01*
X4551015Y-13224674D02*
X4551015Y-13272293D01*
X4551015Y-13272293D02*
X4541491Y-13310388D01*
X4541491Y-13310388D02*
X4531968Y-13329436D01*
X4531968Y-13329436D02*
X4522444Y-13338960D01*
X4522444Y-13338960D02*
X4503396Y-13348484D01*
X4503396Y-13348484D02*
X4484348Y-13348484D01*
X4484348Y-13348484D02*
X4465301Y-13338960D01*
X4465301Y-13338960D02*
X4455777Y-13329436D01*
X4455777Y-13329436D02*
X4446253Y-13310388D01*
X4446253Y-13310388D02*
X4436729Y-13272293D01*
X4436729Y-13272293D02*
X4436729Y-13224674D01*
X4436729Y-13224674D02*
X4446253Y-13186579D01*
X4446253Y-13186579D02*
X4455777Y-13167531D01*
X4455777Y-13167531D02*
X4465301Y-13158008D01*
X4465301Y-13158008D02*
X4484348Y-13148484D01*
X4617682Y-13148484D02*
X4741491Y-13148484D01*
X4741491Y-13148484D02*
X4674825Y-13224674D01*
X4674825Y-13224674D02*
X4703396Y-13224674D01*
X4703396Y-13224674D02*
X4722444Y-13234198D01*
X4722444Y-13234198D02*
X4731968Y-13243722D01*
X4731968Y-13243722D02*
X4741491Y-13262769D01*
X4741491Y-13262769D02*
X4741491Y-13310388D01*
X4741491Y-13310388D02*
X4731968Y-13329436D01*
X4731968Y-13329436D02*
X4722444Y-13338960D01*
X4722444Y-13338960D02*
X4703396Y-13348484D01*
X4703396Y-13348484D02*
X4646253Y-13348484D01*
X4646253Y-13348484D02*
X4627206Y-13338960D01*
X4627206Y-13338960D02*
X4617682Y-13329436D01*
X4836729Y-13348484D02*
X4874825Y-13348484D01*
X4874825Y-13348484D02*
X4893872Y-13338960D01*
X4893872Y-13338960D02*
X4903396Y-13329436D01*
X4903396Y-13329436D02*
X4922444Y-13300865D01*
X4922444Y-13300865D02*
X4931968Y-13262769D01*
X4931968Y-13262769D02*
X4931968Y-13186579D01*
X4931968Y-13186579D02*
X4922444Y-13167531D01*
X4922444Y-13167531D02*
X4912920Y-13158008D01*
X4912920Y-13158008D02*
X4893872Y-13148484D01*
X4893872Y-13148484D02*
X4855777Y-13148484D01*
X4855777Y-13148484D02*
X4836729Y-13158008D01*
X4836729Y-13158008D02*
X4827206Y-13167531D01*
X4827206Y-13167531D02*
X4817682Y-13186579D01*
X4817682Y-13186579D02*
X4817682Y-13234198D01*
X4817682Y-13234198D02*
X4827206Y-13253246D01*
X4827206Y-13253246D02*
X4836729Y-13262769D01*
X4836729Y-13262769D02*
X4855777Y-13272293D01*
X4855777Y-13272293D02*
X4893872Y-13272293D01*
X4893872Y-13272293D02*
X4912920Y-13262769D01*
X4912920Y-13262769D02*
X4922444Y-13253246D01*
X4922444Y-13253246D02*
X4931968Y-13234198D01*
X5103396Y-13215150D02*
X5103396Y-13348484D01*
X5055777Y-13138960D02*
X5008158Y-13281817D01*
X5008158Y-13281817D02*
X5131968Y-13281817D01*
X5198634Y-13148484D02*
X5198634Y-13186579D01*
X5274825Y-13148484D02*
X5274825Y-13186579D01*
X5570063Y-13424674D02*
X5560539Y-13415150D01*
X5560539Y-13415150D02*
X5541491Y-13386579D01*
X5541491Y-13386579D02*
X5531968Y-13367531D01*
X5531968Y-13367531D02*
X5522444Y-13338960D01*
X5522444Y-13338960D02*
X5512920Y-13291341D01*
X5512920Y-13291341D02*
X5512920Y-13253246D01*
X5512920Y-13253246D02*
X5522444Y-13205627D01*
X5522444Y-13205627D02*
X5531968Y-13177055D01*
X5531968Y-13177055D02*
X5541491Y-13158008D01*
X5541491Y-13158008D02*
X5560539Y-13129436D01*
X5560539Y-13129436D02*
X5570063Y-13119912D01*
X5751015Y-13348484D02*
X5636729Y-13348484D01*
X5693872Y-13348484D02*
X5693872Y-13148484D01*
X5693872Y-13148484D02*
X5674825Y-13177055D01*
X5674825Y-13177055D02*
X5655777Y-13196103D01*
X5655777Y-13196103D02*
X5636729Y-13205627D01*
X5817682Y-13148484D02*
X5941491Y-13148484D01*
X5941491Y-13148484D02*
X5874825Y-13224674D01*
X5874825Y-13224674D02*
X5903396Y-13224674D01*
X5903396Y-13224674D02*
X5922444Y-13234198D01*
X5922444Y-13234198D02*
X5931968Y-13243722D01*
X5931968Y-13243722D02*
X5941491Y-13262769D01*
X5941491Y-13262769D02*
X5941491Y-13310388D01*
X5941491Y-13310388D02*
X5931968Y-13329436D01*
X5931968Y-13329436D02*
X5922444Y-13338960D01*
X5922444Y-13338960D02*
X5903396Y-13348484D01*
X5903396Y-13348484D02*
X5846253Y-13348484D01*
X5846253Y-13348484D02*
X5827206Y-13338960D01*
X5827206Y-13338960D02*
X5817682Y-13329436D01*
X6179587Y-13348484D02*
X6179587Y-13148484D01*
X6265301Y-13348484D02*
X6265301Y-13243722D01*
X6265301Y-13243722D02*
X6255777Y-13224674D01*
X6255777Y-13224674D02*
X6236730Y-13215150D01*
X6236730Y-13215150D02*
X6208158Y-13215150D01*
X6208158Y-13215150D02*
X6189110Y-13224674D01*
X6189110Y-13224674D02*
X6179587Y-13234198D01*
X6389110Y-13348484D02*
X6370063Y-13338960D01*
X6370063Y-13338960D02*
X6360539Y-13329436D01*
X6360539Y-13329436D02*
X6351015Y-13310388D01*
X6351015Y-13310388D02*
X6351015Y-13253246D01*
X6351015Y-13253246D02*
X6360539Y-13234198D01*
X6360539Y-13234198D02*
X6370063Y-13224674D01*
X6370063Y-13224674D02*
X6389110Y-13215150D01*
X6389110Y-13215150D02*
X6417682Y-13215150D01*
X6417682Y-13215150D02*
X6436730Y-13224674D01*
X6436730Y-13224674D02*
X6446253Y-13234198D01*
X6446253Y-13234198D02*
X6455777Y-13253246D01*
X6455777Y-13253246D02*
X6455777Y-13310388D01*
X6455777Y-13310388D02*
X6446253Y-13329436D01*
X6446253Y-13329436D02*
X6436730Y-13338960D01*
X6436730Y-13338960D02*
X6417682Y-13348484D01*
X6417682Y-13348484D02*
X6389110Y-13348484D01*
X6570063Y-13348484D02*
X6551015Y-13338960D01*
X6551015Y-13338960D02*
X6541491Y-13319912D01*
X6541491Y-13319912D02*
X6541491Y-13148484D01*
X6722444Y-13338960D02*
X6703396Y-13348484D01*
X6703396Y-13348484D02*
X6665301Y-13348484D01*
X6665301Y-13348484D02*
X6646253Y-13338960D01*
X6646253Y-13338960D02*
X6636730Y-13319912D01*
X6636730Y-13319912D02*
X6636730Y-13243722D01*
X6636730Y-13243722D02*
X6646253Y-13224674D01*
X6646253Y-13224674D02*
X6665301Y-13215150D01*
X6665301Y-13215150D02*
X6703396Y-13215150D01*
X6703396Y-13215150D02*
X6722444Y-13224674D01*
X6722444Y-13224674D02*
X6731968Y-13243722D01*
X6731968Y-13243722D02*
X6731968Y-13262769D01*
X6731968Y-13262769D02*
X6636730Y-13281817D01*
X6808158Y-13338960D02*
X6827206Y-13348484D01*
X6827206Y-13348484D02*
X6865301Y-13348484D01*
X6865301Y-13348484D02*
X6884349Y-13338960D01*
X6884349Y-13338960D02*
X6893872Y-13319912D01*
X6893872Y-13319912D02*
X6893872Y-13310388D01*
X6893872Y-13310388D02*
X6884349Y-13291341D01*
X6884349Y-13291341D02*
X6865301Y-13281817D01*
X6865301Y-13281817D02*
X6836730Y-13281817D01*
X6836730Y-13281817D02*
X6817682Y-13272293D01*
X6817682Y-13272293D02*
X6808158Y-13253246D01*
X6808158Y-13253246D02*
X6808158Y-13243722D01*
X6808158Y-13243722D02*
X6817682Y-13224674D01*
X6817682Y-13224674D02*
X6836730Y-13215150D01*
X6836730Y-13215150D02*
X6865301Y-13215150D01*
X6865301Y-13215150D02*
X6884349Y-13224674D01*
X7131968Y-13272293D02*
X7284349Y-13272293D01*
X7208158Y-13348484D02*
X7208158Y-13196103D01*
X7512920Y-13148484D02*
X7636730Y-13148484D01*
X7636730Y-13148484D02*
X7570063Y-13224674D01*
X7570063Y-13224674D02*
X7598634Y-13224674D01*
X7598634Y-13224674D02*
X7617682Y-13234198D01*
X7617682Y-13234198D02*
X7627206Y-13243722D01*
X7627206Y-13243722D02*
X7636730Y-13262769D01*
X7636730Y-13262769D02*
X7636730Y-13310388D01*
X7636730Y-13310388D02*
X7627206Y-13329436D01*
X7627206Y-13329436D02*
X7617682Y-13338960D01*
X7617682Y-13338960D02*
X7598634Y-13348484D01*
X7598634Y-13348484D02*
X7541492Y-13348484D01*
X7541492Y-13348484D02*
X7522444Y-13338960D01*
X7522444Y-13338960D02*
X7512920Y-13329436D01*
X7865301Y-13338960D02*
X7884349Y-13348484D01*
X7884349Y-13348484D02*
X7922444Y-13348484D01*
X7922444Y-13348484D02*
X7941492Y-13338960D01*
X7941492Y-13338960D02*
X7951015Y-13319912D01*
X7951015Y-13319912D02*
X7951015Y-13310388D01*
X7951015Y-13310388D02*
X7941492Y-13291341D01*
X7941492Y-13291341D02*
X7922444Y-13281817D01*
X7922444Y-13281817D02*
X7893873Y-13281817D01*
X7893873Y-13281817D02*
X7874825Y-13272293D01*
X7874825Y-13272293D02*
X7865301Y-13253246D01*
X7865301Y-13253246D02*
X7865301Y-13243722D01*
X7865301Y-13243722D02*
X7874825Y-13224674D01*
X7874825Y-13224674D02*
X7893873Y-13215150D01*
X7893873Y-13215150D02*
X7922444Y-13215150D01*
X7922444Y-13215150D02*
X7941492Y-13224674D01*
X8065301Y-13348484D02*
X8046254Y-13338960D01*
X8046254Y-13338960D02*
X8036730Y-13319912D01*
X8036730Y-13319912D02*
X8036730Y-13148484D01*
X8170063Y-13348484D02*
X8151015Y-13338960D01*
X8151015Y-13338960D02*
X8141492Y-13329436D01*
X8141492Y-13329436D02*
X8131968Y-13310388D01*
X8131968Y-13310388D02*
X8131968Y-13253246D01*
X8131968Y-13253246D02*
X8141492Y-13234198D01*
X8141492Y-13234198D02*
X8151015Y-13224674D01*
X8151015Y-13224674D02*
X8170063Y-13215150D01*
X8170063Y-13215150D02*
X8198635Y-13215150D01*
X8198635Y-13215150D02*
X8217682Y-13224674D01*
X8217682Y-13224674D02*
X8227206Y-13234198D01*
X8227206Y-13234198D02*
X8236730Y-13253246D01*
X8236730Y-13253246D02*
X8236730Y-13310388D01*
X8236730Y-13310388D02*
X8227206Y-13329436D01*
X8227206Y-13329436D02*
X8217682Y-13338960D01*
X8217682Y-13338960D02*
X8198635Y-13348484D01*
X8198635Y-13348484D02*
X8170063Y-13348484D01*
X8293873Y-13215150D02*
X8370063Y-13215150D01*
X8322444Y-13148484D02*
X8322444Y-13319912D01*
X8322444Y-13319912D02*
X8331968Y-13338960D01*
X8331968Y-13338960D02*
X8351015Y-13348484D01*
X8351015Y-13348484D02*
X8370063Y-13348484D01*
X8427206Y-13338960D02*
X8446254Y-13348484D01*
X8446254Y-13348484D02*
X8484349Y-13348484D01*
X8484349Y-13348484D02*
X8503397Y-13338960D01*
X8503397Y-13338960D02*
X8512920Y-13319912D01*
X8512920Y-13319912D02*
X8512920Y-13310388D01*
X8512920Y-13310388D02*
X8503397Y-13291341D01*
X8503397Y-13291341D02*
X8484349Y-13281817D01*
X8484349Y-13281817D02*
X8455777Y-13281817D01*
X8455777Y-13281817D02*
X8436730Y-13272293D01*
X8436730Y-13272293D02*
X8427206Y-13253246D01*
X8427206Y-13253246D02*
X8427206Y-13243722D01*
X8427206Y-13243722D02*
X8436730Y-13224674D01*
X8436730Y-13224674D02*
X8455777Y-13215150D01*
X8455777Y-13215150D02*
X8484349Y-13215150D01*
X8484349Y-13215150D02*
X8503397Y-13224674D01*
X8579587Y-13424674D02*
X8589111Y-13415150D01*
X8589111Y-13415150D02*
X8608158Y-13386579D01*
X8608158Y-13386579D02*
X8617682Y-13367531D01*
X8617682Y-13367531D02*
X8627206Y-13338960D01*
X8627206Y-13338960D02*
X8636730Y-13291341D01*
X8636730Y-13291341D02*
X8636730Y-13253246D01*
X8636730Y-13253246D02*
X8627206Y-13205627D01*
X8627206Y-13205627D02*
X8617682Y-13177055D01*
X8617682Y-13177055D02*
X8608158Y-13158008D01*
X8608158Y-13158008D02*
X8589111Y-13129436D01*
X8589111Y-13129436D02*
X8579587Y-13119912D01*
D12*
X1940390Y-13575610D02*
X1995000Y-13521000D01*
X1940390Y-13466390D01*
X1885780Y-13521000D01*
X1940390Y-13575610D01*
D11*
X2360539Y-13612484D02*
X2246253Y-13612484D01*
X2303396Y-13612484D02*
X2303396Y-13412484D01*
X2303396Y-13412484D02*
X2284348Y-13441055D01*
X2284348Y-13441055D02*
X2265301Y-13460103D01*
X2265301Y-13460103D02*
X2246253Y-13469627D01*
X2446253Y-13593436D02*
X2455777Y-13602960D01*
X2455777Y-13602960D02*
X2446253Y-13612484D01*
X2446253Y-13612484D02*
X2436729Y-13602960D01*
X2436729Y-13602960D02*
X2446253Y-13593436D01*
X2446253Y-13593436D02*
X2446253Y-13612484D01*
X2579586Y-13412484D02*
X2598634Y-13412484D01*
X2598634Y-13412484D02*
X2617682Y-13422008D01*
X2617682Y-13422008D02*
X2627205Y-13431531D01*
X2627205Y-13431531D02*
X2636729Y-13450579D01*
X2636729Y-13450579D02*
X2646253Y-13488674D01*
X2646253Y-13488674D02*
X2646253Y-13536293D01*
X2646253Y-13536293D02*
X2636729Y-13574388D01*
X2636729Y-13574388D02*
X2627205Y-13593436D01*
X2627205Y-13593436D02*
X2617682Y-13602960D01*
X2617682Y-13602960D02*
X2598634Y-13612484D01*
X2598634Y-13612484D02*
X2579586Y-13612484D01*
X2579586Y-13612484D02*
X2560539Y-13602960D01*
X2560539Y-13602960D02*
X2551015Y-13593436D01*
X2551015Y-13593436D02*
X2541491Y-13574388D01*
X2541491Y-13574388D02*
X2531967Y-13536293D01*
X2531967Y-13536293D02*
X2531967Y-13488674D01*
X2531967Y-13488674D02*
X2541491Y-13450579D01*
X2541491Y-13450579D02*
X2551015Y-13431531D01*
X2551015Y-13431531D02*
X2560539Y-13422008D01*
X2560539Y-13422008D02*
X2579586Y-13412484D01*
X2741491Y-13612484D02*
X2779586Y-13612484D01*
X2779586Y-13612484D02*
X2798634Y-13602960D01*
X2798634Y-13602960D02*
X2808158Y-13593436D01*
X2808158Y-13593436D02*
X2827205Y-13564865D01*
X2827205Y-13564865D02*
X2836729Y-13526769D01*
X2836729Y-13526769D02*
X2836729Y-13450579D01*
X2836729Y-13450579D02*
X2827205Y-13431531D01*
X2827205Y-13431531D02*
X2817682Y-13422008D01*
X2817682Y-13422008D02*
X2798634Y-13412484D01*
X2798634Y-13412484D02*
X2760539Y-13412484D01*
X2760539Y-13412484D02*
X2741491Y-13422008D01*
X2741491Y-13422008D02*
X2731967Y-13431531D01*
X2731967Y-13431531D02*
X2722444Y-13450579D01*
X2722444Y-13450579D02*
X2722444Y-13498198D01*
X2722444Y-13498198D02*
X2731967Y-13517246D01*
X2731967Y-13517246D02*
X2741491Y-13526769D01*
X2741491Y-13526769D02*
X2760539Y-13536293D01*
X2760539Y-13536293D02*
X2798634Y-13536293D01*
X2798634Y-13536293D02*
X2817682Y-13526769D01*
X2817682Y-13526769D02*
X2827205Y-13517246D01*
X2827205Y-13517246D02*
X2836729Y-13498198D01*
X2912920Y-13431531D02*
X2922443Y-13422008D01*
X2922443Y-13422008D02*
X2941491Y-13412484D01*
X2941491Y-13412484D02*
X2989110Y-13412484D01*
X2989110Y-13412484D02*
X3008158Y-13422008D01*
X3008158Y-13422008D02*
X3017682Y-13431531D01*
X3017682Y-13431531D02*
X3027205Y-13450579D01*
X3027205Y-13450579D02*
X3027205Y-13469627D01*
X3027205Y-13469627D02*
X3017682Y-13498198D01*
X3017682Y-13498198D02*
X2903396Y-13612484D01*
X2903396Y-13612484D02*
X3027205Y-13612484D01*
X3112920Y-13612484D02*
X3112920Y-13479150D01*
X3112920Y-13498198D02*
X3122443Y-13488674D01*
X3122443Y-13488674D02*
X3141491Y-13479150D01*
X3141491Y-13479150D02*
X3170063Y-13479150D01*
X3170063Y-13479150D02*
X3189110Y-13488674D01*
X3189110Y-13488674D02*
X3198634Y-13507722D01*
X3198634Y-13507722D02*
X3198634Y-13612484D01*
X3198634Y-13507722D02*
X3208158Y-13488674D01*
X3208158Y-13488674D02*
X3227205Y-13479150D01*
X3227205Y-13479150D02*
X3255777Y-13479150D01*
X3255777Y-13479150D02*
X3274824Y-13488674D01*
X3274824Y-13488674D02*
X3284348Y-13507722D01*
X3284348Y-13507722D02*
X3284348Y-13612484D01*
X3379586Y-13612484D02*
X3379586Y-13479150D01*
X3379586Y-13498198D02*
X3389110Y-13488674D01*
X3389110Y-13488674D02*
X3408158Y-13479150D01*
X3408158Y-13479150D02*
X3436729Y-13479150D01*
X3436729Y-13479150D02*
X3455777Y-13488674D01*
X3455777Y-13488674D02*
X3465301Y-13507722D01*
X3465301Y-13507722D02*
X3465301Y-13612484D01*
X3465301Y-13507722D02*
X3474824Y-13488674D01*
X3474824Y-13488674D02*
X3493872Y-13479150D01*
X3493872Y-13479150D02*
X3522443Y-13479150D01*
X3522443Y-13479150D02*
X3541491Y-13488674D01*
X3541491Y-13488674D02*
X3551015Y-13507722D01*
X3551015Y-13507722D02*
X3551015Y-13612484D01*
X3941491Y-13402960D02*
X3770063Y-13660103D01*
X4198634Y-13412484D02*
X4217682Y-13412484D01*
X4217682Y-13412484D02*
X4236729Y-13422008D01*
X4236729Y-13422008D02*
X4246253Y-13431531D01*
X4246253Y-13431531D02*
X4255777Y-13450579D01*
X4255777Y-13450579D02*
X4265301Y-13488674D01*
X4265301Y-13488674D02*
X4265301Y-13536293D01*
X4265301Y-13536293D02*
X4255777Y-13574388D01*
X4255777Y-13574388D02*
X4246253Y-13593436D01*
X4246253Y-13593436D02*
X4236729Y-13602960D01*
X4236729Y-13602960D02*
X4217682Y-13612484D01*
X4217682Y-13612484D02*
X4198634Y-13612484D01*
X4198634Y-13612484D02*
X4179586Y-13602960D01*
X4179586Y-13602960D02*
X4170063Y-13593436D01*
X4170063Y-13593436D02*
X4160539Y-13574388D01*
X4160539Y-13574388D02*
X4151015Y-13536293D01*
X4151015Y-13536293D02*
X4151015Y-13488674D01*
X4151015Y-13488674D02*
X4160539Y-13450579D01*
X4160539Y-13450579D02*
X4170063Y-13431531D01*
X4170063Y-13431531D02*
X4179586Y-13422008D01*
X4179586Y-13422008D02*
X4198634Y-13412484D01*
X4351015Y-13593436D02*
X4360539Y-13602960D01*
X4360539Y-13602960D02*
X4351015Y-13612484D01*
X4351015Y-13612484D02*
X4341491Y-13602960D01*
X4341491Y-13602960D02*
X4351015Y-13593436D01*
X4351015Y-13593436D02*
X4351015Y-13612484D01*
X4484348Y-13412484D02*
X4503396Y-13412484D01*
X4503396Y-13412484D02*
X4522444Y-13422008D01*
X4522444Y-13422008D02*
X4531968Y-13431531D01*
X4531968Y-13431531D02*
X4541491Y-13450579D01*
X4541491Y-13450579D02*
X4551015Y-13488674D01*
X4551015Y-13488674D02*
X4551015Y-13536293D01*
X4551015Y-13536293D02*
X4541491Y-13574388D01*
X4541491Y-13574388D02*
X4531968Y-13593436D01*
X4531968Y-13593436D02*
X4522444Y-13602960D01*
X4522444Y-13602960D02*
X4503396Y-13612484D01*
X4503396Y-13612484D02*
X4484348Y-13612484D01*
X4484348Y-13612484D02*
X4465301Y-13602960D01*
X4465301Y-13602960D02*
X4455777Y-13593436D01*
X4455777Y-13593436D02*
X4446253Y-13574388D01*
X4446253Y-13574388D02*
X4436729Y-13536293D01*
X4436729Y-13536293D02*
X4436729Y-13488674D01*
X4436729Y-13488674D02*
X4446253Y-13450579D01*
X4446253Y-13450579D02*
X4455777Y-13431531D01*
X4455777Y-13431531D02*
X4465301Y-13422008D01*
X4465301Y-13422008D02*
X4484348Y-13412484D01*
X4722444Y-13479150D02*
X4722444Y-13612484D01*
X4674825Y-13402960D02*
X4627206Y-13545817D01*
X4627206Y-13545817D02*
X4751015Y-13545817D01*
X4808158Y-13412484D02*
X4931968Y-13412484D01*
X4931968Y-13412484D02*
X4865301Y-13488674D01*
X4865301Y-13488674D02*
X4893872Y-13488674D01*
X4893872Y-13488674D02*
X4912920Y-13498198D01*
X4912920Y-13498198D02*
X4922444Y-13507722D01*
X4922444Y-13507722D02*
X4931968Y-13526769D01*
X4931968Y-13526769D02*
X4931968Y-13574388D01*
X4931968Y-13574388D02*
X4922444Y-13593436D01*
X4922444Y-13593436D02*
X4912920Y-13602960D01*
X4912920Y-13602960D02*
X4893872Y-13612484D01*
X4893872Y-13612484D02*
X4836729Y-13612484D01*
X4836729Y-13612484D02*
X4817682Y-13602960D01*
X4817682Y-13602960D02*
X4808158Y-13593436D01*
X5055777Y-13412484D02*
X5074825Y-13412484D01*
X5074825Y-13412484D02*
X5093872Y-13422008D01*
X5093872Y-13422008D02*
X5103396Y-13431531D01*
X5103396Y-13431531D02*
X5112920Y-13450579D01*
X5112920Y-13450579D02*
X5122444Y-13488674D01*
X5122444Y-13488674D02*
X5122444Y-13536293D01*
X5122444Y-13536293D02*
X5112920Y-13574388D01*
X5112920Y-13574388D02*
X5103396Y-13593436D01*
X5103396Y-13593436D02*
X5093872Y-13602960D01*
X5093872Y-13602960D02*
X5074825Y-13612484D01*
X5074825Y-13612484D02*
X5055777Y-13612484D01*
X5055777Y-13612484D02*
X5036729Y-13602960D01*
X5036729Y-13602960D02*
X5027206Y-13593436D01*
X5027206Y-13593436D02*
X5017682Y-13574388D01*
X5017682Y-13574388D02*
X5008158Y-13536293D01*
X5008158Y-13536293D02*
X5008158Y-13488674D01*
X5008158Y-13488674D02*
X5017682Y-13450579D01*
X5017682Y-13450579D02*
X5027206Y-13431531D01*
X5027206Y-13431531D02*
X5036729Y-13422008D01*
X5036729Y-13422008D02*
X5055777Y-13412484D01*
X5198634Y-13412484D02*
X5198634Y-13450579D01*
X5274825Y-13412484D02*
X5274825Y-13450579D01*
X5570063Y-13688674D02*
X5560539Y-13679150D01*
X5560539Y-13679150D02*
X5541491Y-13650579D01*
X5541491Y-13650579D02*
X5531968Y-13631531D01*
X5531968Y-13631531D02*
X5522444Y-13602960D01*
X5522444Y-13602960D02*
X5512920Y-13555341D01*
X5512920Y-13555341D02*
X5512920Y-13517246D01*
X5512920Y-13517246D02*
X5522444Y-13469627D01*
X5522444Y-13469627D02*
X5531968Y-13441055D01*
X5531968Y-13441055D02*
X5541491Y-13422008D01*
X5541491Y-13422008D02*
X5560539Y-13393436D01*
X5560539Y-13393436D02*
X5570063Y-13383912D01*
X5636729Y-13431531D02*
X5646253Y-13422008D01*
X5646253Y-13422008D02*
X5665301Y-13412484D01*
X5665301Y-13412484D02*
X5712920Y-13412484D01*
X5712920Y-13412484D02*
X5731968Y-13422008D01*
X5731968Y-13422008D02*
X5741491Y-13431531D01*
X5741491Y-13431531D02*
X5751015Y-13450579D01*
X5751015Y-13450579D02*
X5751015Y-13469627D01*
X5751015Y-13469627D02*
X5741491Y-13498198D01*
X5741491Y-13498198D02*
X5627206Y-13612484D01*
X5627206Y-13612484D02*
X5751015Y-13612484D01*
X5846253Y-13612484D02*
X5884348Y-13612484D01*
X5884348Y-13612484D02*
X5903396Y-13602960D01*
X5903396Y-13602960D02*
X5912920Y-13593436D01*
X5912920Y-13593436D02*
X5931968Y-13564865D01*
X5931968Y-13564865D02*
X5941491Y-13526769D01*
X5941491Y-13526769D02*
X5941491Y-13450579D01*
X5941491Y-13450579D02*
X5931968Y-13431531D01*
X5931968Y-13431531D02*
X5922444Y-13422008D01*
X5922444Y-13422008D02*
X5903396Y-13412484D01*
X5903396Y-13412484D02*
X5865301Y-13412484D01*
X5865301Y-13412484D02*
X5846253Y-13422008D01*
X5846253Y-13422008D02*
X5836729Y-13431531D01*
X5836729Y-13431531D02*
X5827206Y-13450579D01*
X5827206Y-13450579D02*
X5827206Y-13498198D01*
X5827206Y-13498198D02*
X5836729Y-13517246D01*
X5836729Y-13517246D02*
X5846253Y-13526769D01*
X5846253Y-13526769D02*
X5865301Y-13536293D01*
X5865301Y-13536293D02*
X5903396Y-13536293D01*
X5903396Y-13536293D02*
X5922444Y-13526769D01*
X5922444Y-13526769D02*
X5931968Y-13517246D01*
X5931968Y-13517246D02*
X5941491Y-13498198D01*
X6179587Y-13612484D02*
X6179587Y-13412484D01*
X6265301Y-13612484D02*
X6265301Y-13507722D01*
X6265301Y-13507722D02*
X6255777Y-13488674D01*
X6255777Y-13488674D02*
X6236730Y-13479150D01*
X6236730Y-13479150D02*
X6208158Y-13479150D01*
X6208158Y-13479150D02*
X6189110Y-13488674D01*
X6189110Y-13488674D02*
X6179587Y-13498198D01*
X6389110Y-13612484D02*
X6370063Y-13602960D01*
X6370063Y-13602960D02*
X6360539Y-13593436D01*
X6360539Y-13593436D02*
X6351015Y-13574388D01*
X6351015Y-13574388D02*
X6351015Y-13517246D01*
X6351015Y-13517246D02*
X6360539Y-13498198D01*
X6360539Y-13498198D02*
X6370063Y-13488674D01*
X6370063Y-13488674D02*
X6389110Y-13479150D01*
X6389110Y-13479150D02*
X6417682Y-13479150D01*
X6417682Y-13479150D02*
X6436730Y-13488674D01*
X6436730Y-13488674D02*
X6446253Y-13498198D01*
X6446253Y-13498198D02*
X6455777Y-13517246D01*
X6455777Y-13517246D02*
X6455777Y-13574388D01*
X6455777Y-13574388D02*
X6446253Y-13593436D01*
X6446253Y-13593436D02*
X6436730Y-13602960D01*
X6436730Y-13602960D02*
X6417682Y-13612484D01*
X6417682Y-13612484D02*
X6389110Y-13612484D01*
X6570063Y-13612484D02*
X6551015Y-13602960D01*
X6551015Y-13602960D02*
X6541491Y-13583912D01*
X6541491Y-13583912D02*
X6541491Y-13412484D01*
X6722444Y-13602960D02*
X6703396Y-13612484D01*
X6703396Y-13612484D02*
X6665301Y-13612484D01*
X6665301Y-13612484D02*
X6646253Y-13602960D01*
X6646253Y-13602960D02*
X6636730Y-13583912D01*
X6636730Y-13583912D02*
X6636730Y-13507722D01*
X6636730Y-13507722D02*
X6646253Y-13488674D01*
X6646253Y-13488674D02*
X6665301Y-13479150D01*
X6665301Y-13479150D02*
X6703396Y-13479150D01*
X6703396Y-13479150D02*
X6722444Y-13488674D01*
X6722444Y-13488674D02*
X6731968Y-13507722D01*
X6731968Y-13507722D02*
X6731968Y-13526769D01*
X6731968Y-13526769D02*
X6636730Y-13545817D01*
X6808158Y-13602960D02*
X6827206Y-13612484D01*
X6827206Y-13612484D02*
X6865301Y-13612484D01*
X6865301Y-13612484D02*
X6884349Y-13602960D01*
X6884349Y-13602960D02*
X6893872Y-13583912D01*
X6893872Y-13583912D02*
X6893872Y-13574388D01*
X6893872Y-13574388D02*
X6884349Y-13555341D01*
X6884349Y-13555341D02*
X6865301Y-13545817D01*
X6865301Y-13545817D02*
X6836730Y-13545817D01*
X6836730Y-13545817D02*
X6817682Y-13536293D01*
X6817682Y-13536293D02*
X6808158Y-13517246D01*
X6808158Y-13517246D02*
X6808158Y-13507722D01*
X6808158Y-13507722D02*
X6817682Y-13488674D01*
X6817682Y-13488674D02*
X6836730Y-13479150D01*
X6836730Y-13479150D02*
X6865301Y-13479150D01*
X6865301Y-13479150D02*
X6884349Y-13488674D01*
X6960539Y-13688674D02*
X6970063Y-13679150D01*
X6970063Y-13679150D02*
X6989111Y-13650579D01*
X6989111Y-13650579D02*
X6998634Y-13631531D01*
X6998634Y-13631531D02*
X7008158Y-13602960D01*
X7008158Y-13602960D02*
X7017682Y-13555341D01*
X7017682Y-13555341D02*
X7017682Y-13517246D01*
X7017682Y-13517246D02*
X7008158Y-13469627D01*
X7008158Y-13469627D02*
X6998634Y-13441055D01*
X6998634Y-13441055D02*
X6989111Y-13422008D01*
X6989111Y-13422008D02*
X6970063Y-13393436D01*
X6970063Y-13393436D02*
X6960539Y-13383912D01*
D13*
X1845000Y-13710000D02*
X1995000Y-13860000D01*
X1995000Y-13710000D02*
X1845000Y-13860000D01*
X1995000Y-13785000D02*
G75*
G02*
X1845000Y-13785000I-75000J0D01*
G01*
X1845000Y-13785000D02*
G75*
G02*
X1995000Y-13785000I75000J0D01*
G01*
D11*
X2360539Y-13876484D02*
X2246253Y-13876484D01*
X2303396Y-13876484D02*
X2303396Y-13676484D01*
X2303396Y-13676484D02*
X2284348Y-13705055D01*
X2284348Y-13705055D02*
X2265301Y-13724103D01*
X2265301Y-13724103D02*
X2246253Y-13733627D01*
X2446253Y-13857436D02*
X2455777Y-13866960D01*
X2455777Y-13866960D02*
X2446253Y-13876484D01*
X2446253Y-13876484D02*
X2436729Y-13866960D01*
X2436729Y-13866960D02*
X2446253Y-13857436D01*
X2446253Y-13857436D02*
X2446253Y-13876484D01*
X2636729Y-13676484D02*
X2541491Y-13676484D01*
X2541491Y-13676484D02*
X2531967Y-13771722D01*
X2531967Y-13771722D02*
X2541491Y-13762198D01*
X2541491Y-13762198D02*
X2560539Y-13752674D01*
X2560539Y-13752674D02*
X2608158Y-13752674D01*
X2608158Y-13752674D02*
X2627205Y-13762198D01*
X2627205Y-13762198D02*
X2636729Y-13771722D01*
X2636729Y-13771722D02*
X2646253Y-13790769D01*
X2646253Y-13790769D02*
X2646253Y-13838388D01*
X2646253Y-13838388D02*
X2636729Y-13857436D01*
X2636729Y-13857436D02*
X2627205Y-13866960D01*
X2627205Y-13866960D02*
X2608158Y-13876484D01*
X2608158Y-13876484D02*
X2560539Y-13876484D01*
X2560539Y-13876484D02*
X2541491Y-13866960D01*
X2541491Y-13866960D02*
X2531967Y-13857436D01*
X2770063Y-13676484D02*
X2789110Y-13676484D01*
X2789110Y-13676484D02*
X2808158Y-13686008D01*
X2808158Y-13686008D02*
X2817682Y-13695531D01*
X2817682Y-13695531D02*
X2827205Y-13714579D01*
X2827205Y-13714579D02*
X2836729Y-13752674D01*
X2836729Y-13752674D02*
X2836729Y-13800293D01*
X2836729Y-13800293D02*
X2827205Y-13838388D01*
X2827205Y-13838388D02*
X2817682Y-13857436D01*
X2817682Y-13857436D02*
X2808158Y-13866960D01*
X2808158Y-13866960D02*
X2789110Y-13876484D01*
X2789110Y-13876484D02*
X2770063Y-13876484D01*
X2770063Y-13876484D02*
X2751015Y-13866960D01*
X2751015Y-13866960D02*
X2741491Y-13857436D01*
X2741491Y-13857436D02*
X2731967Y-13838388D01*
X2731967Y-13838388D02*
X2722444Y-13800293D01*
X2722444Y-13800293D02*
X2722444Y-13752674D01*
X2722444Y-13752674D02*
X2731967Y-13714579D01*
X2731967Y-13714579D02*
X2741491Y-13695531D01*
X2741491Y-13695531D02*
X2751015Y-13686008D01*
X2751015Y-13686008D02*
X2770063Y-13676484D01*
X2960539Y-13676484D02*
X2979586Y-13676484D01*
X2979586Y-13676484D02*
X2998634Y-13686008D01*
X2998634Y-13686008D02*
X3008158Y-13695531D01*
X3008158Y-13695531D02*
X3017682Y-13714579D01*
X3017682Y-13714579D02*
X3027205Y-13752674D01*
X3027205Y-13752674D02*
X3027205Y-13800293D01*
X3027205Y-13800293D02*
X3017682Y-13838388D01*
X3017682Y-13838388D02*
X3008158Y-13857436D01*
X3008158Y-13857436D02*
X2998634Y-13866960D01*
X2998634Y-13866960D02*
X2979586Y-13876484D01*
X2979586Y-13876484D02*
X2960539Y-13876484D01*
X2960539Y-13876484D02*
X2941491Y-13866960D01*
X2941491Y-13866960D02*
X2931967Y-13857436D01*
X2931967Y-13857436D02*
X2922443Y-13838388D01*
X2922443Y-13838388D02*
X2912920Y-13800293D01*
X2912920Y-13800293D02*
X2912920Y-13752674D01*
X2912920Y-13752674D02*
X2922443Y-13714579D01*
X2922443Y-13714579D02*
X2931967Y-13695531D01*
X2931967Y-13695531D02*
X2941491Y-13686008D01*
X2941491Y-13686008D02*
X2960539Y-13676484D01*
X3112920Y-13876484D02*
X3112920Y-13743150D01*
X3112920Y-13762198D02*
X3122443Y-13752674D01*
X3122443Y-13752674D02*
X3141491Y-13743150D01*
X3141491Y-13743150D02*
X3170063Y-13743150D01*
X3170063Y-13743150D02*
X3189110Y-13752674D01*
X3189110Y-13752674D02*
X3198634Y-13771722D01*
X3198634Y-13771722D02*
X3198634Y-13876484D01*
X3198634Y-13771722D02*
X3208158Y-13752674D01*
X3208158Y-13752674D02*
X3227205Y-13743150D01*
X3227205Y-13743150D02*
X3255777Y-13743150D01*
X3255777Y-13743150D02*
X3274824Y-13752674D01*
X3274824Y-13752674D02*
X3284348Y-13771722D01*
X3284348Y-13771722D02*
X3284348Y-13876484D01*
X3379586Y-13876484D02*
X3379586Y-13743150D01*
X3379586Y-13762198D02*
X3389110Y-13752674D01*
X3389110Y-13752674D02*
X3408158Y-13743150D01*
X3408158Y-13743150D02*
X3436729Y-13743150D01*
X3436729Y-13743150D02*
X3455777Y-13752674D01*
X3455777Y-13752674D02*
X3465301Y-13771722D01*
X3465301Y-13771722D02*
X3465301Y-13876484D01*
X3465301Y-13771722D02*
X3474824Y-13752674D01*
X3474824Y-13752674D02*
X3493872Y-13743150D01*
X3493872Y-13743150D02*
X3522443Y-13743150D01*
X3522443Y-13743150D02*
X3541491Y-13752674D01*
X3541491Y-13752674D02*
X3551015Y-13771722D01*
X3551015Y-13771722D02*
X3551015Y-13876484D01*
X3941491Y-13666960D02*
X3770063Y-13924103D01*
X4198634Y-13676484D02*
X4217682Y-13676484D01*
X4217682Y-13676484D02*
X4236729Y-13686008D01*
X4236729Y-13686008D02*
X4246253Y-13695531D01*
X4246253Y-13695531D02*
X4255777Y-13714579D01*
X4255777Y-13714579D02*
X4265301Y-13752674D01*
X4265301Y-13752674D02*
X4265301Y-13800293D01*
X4265301Y-13800293D02*
X4255777Y-13838388D01*
X4255777Y-13838388D02*
X4246253Y-13857436D01*
X4246253Y-13857436D02*
X4236729Y-13866960D01*
X4236729Y-13866960D02*
X4217682Y-13876484D01*
X4217682Y-13876484D02*
X4198634Y-13876484D01*
X4198634Y-13876484D02*
X4179586Y-13866960D01*
X4179586Y-13866960D02*
X4170063Y-13857436D01*
X4170063Y-13857436D02*
X4160539Y-13838388D01*
X4160539Y-13838388D02*
X4151015Y-13800293D01*
X4151015Y-13800293D02*
X4151015Y-13752674D01*
X4151015Y-13752674D02*
X4160539Y-13714579D01*
X4160539Y-13714579D02*
X4170063Y-13695531D01*
X4170063Y-13695531D02*
X4179586Y-13686008D01*
X4179586Y-13686008D02*
X4198634Y-13676484D01*
X4351015Y-13857436D02*
X4360539Y-13866960D01*
X4360539Y-13866960D02*
X4351015Y-13876484D01*
X4351015Y-13876484D02*
X4341491Y-13866960D01*
X4341491Y-13866960D02*
X4351015Y-13857436D01*
X4351015Y-13857436D02*
X4351015Y-13876484D01*
X4484348Y-13676484D02*
X4503396Y-13676484D01*
X4503396Y-13676484D02*
X4522444Y-13686008D01*
X4522444Y-13686008D02*
X4531968Y-13695531D01*
X4531968Y-13695531D02*
X4541491Y-13714579D01*
X4541491Y-13714579D02*
X4551015Y-13752674D01*
X4551015Y-13752674D02*
X4551015Y-13800293D01*
X4551015Y-13800293D02*
X4541491Y-13838388D01*
X4541491Y-13838388D02*
X4531968Y-13857436D01*
X4531968Y-13857436D02*
X4522444Y-13866960D01*
X4522444Y-13866960D02*
X4503396Y-13876484D01*
X4503396Y-13876484D02*
X4484348Y-13876484D01*
X4484348Y-13876484D02*
X4465301Y-13866960D01*
X4465301Y-13866960D02*
X4455777Y-13857436D01*
X4455777Y-13857436D02*
X4446253Y-13838388D01*
X4446253Y-13838388D02*
X4436729Y-13800293D01*
X4436729Y-13800293D02*
X4436729Y-13752674D01*
X4436729Y-13752674D02*
X4446253Y-13714579D01*
X4446253Y-13714579D02*
X4455777Y-13695531D01*
X4455777Y-13695531D02*
X4465301Y-13686008D01*
X4465301Y-13686008D02*
X4484348Y-13676484D01*
X4731968Y-13676484D02*
X4636729Y-13676484D01*
X4636729Y-13676484D02*
X4627206Y-13771722D01*
X4627206Y-13771722D02*
X4636729Y-13762198D01*
X4636729Y-13762198D02*
X4655777Y-13752674D01*
X4655777Y-13752674D02*
X4703396Y-13752674D01*
X4703396Y-13752674D02*
X4722444Y-13762198D01*
X4722444Y-13762198D02*
X4731968Y-13771722D01*
X4731968Y-13771722D02*
X4741491Y-13790769D01*
X4741491Y-13790769D02*
X4741491Y-13838388D01*
X4741491Y-13838388D02*
X4731968Y-13857436D01*
X4731968Y-13857436D02*
X4722444Y-13866960D01*
X4722444Y-13866960D02*
X4703396Y-13876484D01*
X4703396Y-13876484D02*
X4655777Y-13876484D01*
X4655777Y-13876484D02*
X4636729Y-13866960D01*
X4636729Y-13866960D02*
X4627206Y-13857436D01*
X4836729Y-13876484D02*
X4874825Y-13876484D01*
X4874825Y-13876484D02*
X4893872Y-13866960D01*
X4893872Y-13866960D02*
X4903396Y-13857436D01*
X4903396Y-13857436D02*
X4922444Y-13828865D01*
X4922444Y-13828865D02*
X4931968Y-13790769D01*
X4931968Y-13790769D02*
X4931968Y-13714579D01*
X4931968Y-13714579D02*
X4922444Y-13695531D01*
X4922444Y-13695531D02*
X4912920Y-13686008D01*
X4912920Y-13686008D02*
X4893872Y-13676484D01*
X4893872Y-13676484D02*
X4855777Y-13676484D01*
X4855777Y-13676484D02*
X4836729Y-13686008D01*
X4836729Y-13686008D02*
X4827206Y-13695531D01*
X4827206Y-13695531D02*
X4817682Y-13714579D01*
X4817682Y-13714579D02*
X4817682Y-13762198D01*
X4817682Y-13762198D02*
X4827206Y-13781246D01*
X4827206Y-13781246D02*
X4836729Y-13790769D01*
X4836729Y-13790769D02*
X4855777Y-13800293D01*
X4855777Y-13800293D02*
X4893872Y-13800293D01*
X4893872Y-13800293D02*
X4912920Y-13790769D01*
X4912920Y-13790769D02*
X4922444Y-13781246D01*
X4922444Y-13781246D02*
X4931968Y-13762198D01*
X5122444Y-13876484D02*
X5008158Y-13876484D01*
X5065301Y-13876484D02*
X5065301Y-13676484D01*
X5065301Y-13676484D02*
X5046253Y-13705055D01*
X5046253Y-13705055D02*
X5027206Y-13724103D01*
X5027206Y-13724103D02*
X5008158Y-13733627D01*
X5198634Y-13676484D02*
X5198634Y-13714579D01*
X5274825Y-13676484D02*
X5274825Y-13714579D01*
X5570063Y-13952674D02*
X5560539Y-13943150D01*
X5560539Y-13943150D02*
X5541491Y-13914579D01*
X5541491Y-13914579D02*
X5531968Y-13895531D01*
X5531968Y-13895531D02*
X5522444Y-13866960D01*
X5522444Y-13866960D02*
X5512920Y-13819341D01*
X5512920Y-13819341D02*
X5512920Y-13781246D01*
X5512920Y-13781246D02*
X5522444Y-13733627D01*
X5522444Y-13733627D02*
X5531968Y-13705055D01*
X5531968Y-13705055D02*
X5541491Y-13686008D01*
X5541491Y-13686008D02*
X5560539Y-13657436D01*
X5560539Y-13657436D02*
X5570063Y-13647912D01*
X5684348Y-13676484D02*
X5703396Y-13676484D01*
X5703396Y-13676484D02*
X5722444Y-13686008D01*
X5722444Y-13686008D02*
X5731968Y-13695531D01*
X5731968Y-13695531D02*
X5741491Y-13714579D01*
X5741491Y-13714579D02*
X5751015Y-13752674D01*
X5751015Y-13752674D02*
X5751015Y-13800293D01*
X5751015Y-13800293D02*
X5741491Y-13838388D01*
X5741491Y-13838388D02*
X5731968Y-13857436D01*
X5731968Y-13857436D02*
X5722444Y-13866960D01*
X5722444Y-13866960D02*
X5703396Y-13876484D01*
X5703396Y-13876484D02*
X5684348Y-13876484D01*
X5684348Y-13876484D02*
X5665301Y-13866960D01*
X5665301Y-13866960D02*
X5655777Y-13857436D01*
X5655777Y-13857436D02*
X5646253Y-13838388D01*
X5646253Y-13838388D02*
X5636729Y-13800293D01*
X5636729Y-13800293D02*
X5636729Y-13752674D01*
X5636729Y-13752674D02*
X5646253Y-13714579D01*
X5646253Y-13714579D02*
X5655777Y-13695531D01*
X5655777Y-13695531D02*
X5665301Y-13686008D01*
X5665301Y-13686008D02*
X5684348Y-13676484D01*
X5989110Y-13876484D02*
X5989110Y-13676484D01*
X6074825Y-13876484D02*
X6074825Y-13771722D01*
X6074825Y-13771722D02*
X6065301Y-13752674D01*
X6065301Y-13752674D02*
X6046253Y-13743150D01*
X6046253Y-13743150D02*
X6017682Y-13743150D01*
X6017682Y-13743150D02*
X5998634Y-13752674D01*
X5998634Y-13752674D02*
X5989110Y-13762198D01*
X6198634Y-13876484D02*
X6179587Y-13866960D01*
X6179587Y-13866960D02*
X6170063Y-13857436D01*
X6170063Y-13857436D02*
X6160539Y-13838388D01*
X6160539Y-13838388D02*
X6160539Y-13781246D01*
X6160539Y-13781246D02*
X6170063Y-13762198D01*
X6170063Y-13762198D02*
X6179587Y-13752674D01*
X6179587Y-13752674D02*
X6198634Y-13743150D01*
X6198634Y-13743150D02*
X6227206Y-13743150D01*
X6227206Y-13743150D02*
X6246253Y-13752674D01*
X6246253Y-13752674D02*
X6255777Y-13762198D01*
X6255777Y-13762198D02*
X6265301Y-13781246D01*
X6265301Y-13781246D02*
X6265301Y-13838388D01*
X6265301Y-13838388D02*
X6255777Y-13857436D01*
X6255777Y-13857436D02*
X6246253Y-13866960D01*
X6246253Y-13866960D02*
X6227206Y-13876484D01*
X6227206Y-13876484D02*
X6198634Y-13876484D01*
X6379587Y-13876484D02*
X6360539Y-13866960D01*
X6360539Y-13866960D02*
X6351015Y-13847912D01*
X6351015Y-13847912D02*
X6351015Y-13676484D01*
X6531968Y-13866960D02*
X6512920Y-13876484D01*
X6512920Y-13876484D02*
X6474825Y-13876484D01*
X6474825Y-13876484D02*
X6455777Y-13866960D01*
X6455777Y-13866960D02*
X6446253Y-13847912D01*
X6446253Y-13847912D02*
X6446253Y-13771722D01*
X6446253Y-13771722D02*
X6455777Y-13752674D01*
X6455777Y-13752674D02*
X6474825Y-13743150D01*
X6474825Y-13743150D02*
X6512920Y-13743150D01*
X6512920Y-13743150D02*
X6531968Y-13752674D01*
X6531968Y-13752674D02*
X6541491Y-13771722D01*
X6541491Y-13771722D02*
X6541491Y-13790769D01*
X6541491Y-13790769D02*
X6446253Y-13809817D01*
X6617682Y-13866960D02*
X6636730Y-13876484D01*
X6636730Y-13876484D02*
X6674825Y-13876484D01*
X6674825Y-13876484D02*
X6693872Y-13866960D01*
X6693872Y-13866960D02*
X6703396Y-13847912D01*
X6703396Y-13847912D02*
X6703396Y-13838388D01*
X6703396Y-13838388D02*
X6693872Y-13819341D01*
X6693872Y-13819341D02*
X6674825Y-13809817D01*
X6674825Y-13809817D02*
X6646253Y-13809817D01*
X6646253Y-13809817D02*
X6627206Y-13800293D01*
X6627206Y-13800293D02*
X6617682Y-13781246D01*
X6617682Y-13781246D02*
X6617682Y-13771722D01*
X6617682Y-13771722D02*
X6627206Y-13752674D01*
X6627206Y-13752674D02*
X6646253Y-13743150D01*
X6646253Y-13743150D02*
X6674825Y-13743150D01*
X6674825Y-13743150D02*
X6693872Y-13752674D01*
X6941492Y-13800293D02*
X7093873Y-13800293D01*
X7017682Y-13876484D02*
X7017682Y-13724103D01*
X7331968Y-13695531D02*
X7341492Y-13686008D01*
X7341492Y-13686008D02*
X7360539Y-13676484D01*
X7360539Y-13676484D02*
X7408158Y-13676484D01*
X7408158Y-13676484D02*
X7427206Y-13686008D01*
X7427206Y-13686008D02*
X7436730Y-13695531D01*
X7436730Y-13695531D02*
X7446253Y-13714579D01*
X7446253Y-13714579D02*
X7446253Y-13733627D01*
X7446253Y-13733627D02*
X7436730Y-13762198D01*
X7436730Y-13762198D02*
X7322444Y-13876484D01*
X7322444Y-13876484D02*
X7446253Y-13876484D01*
X7674825Y-13866960D02*
X7693873Y-13876484D01*
X7693873Y-13876484D02*
X7731968Y-13876484D01*
X7731968Y-13876484D02*
X7751015Y-13866960D01*
X7751015Y-13866960D02*
X7760539Y-13847912D01*
X7760539Y-13847912D02*
X7760539Y-13838388D01*
X7760539Y-13838388D02*
X7751015Y-13819341D01*
X7751015Y-13819341D02*
X7731968Y-13809817D01*
X7731968Y-13809817D02*
X7703396Y-13809817D01*
X7703396Y-13809817D02*
X7684349Y-13800293D01*
X7684349Y-13800293D02*
X7674825Y-13781246D01*
X7674825Y-13781246D02*
X7674825Y-13771722D01*
X7674825Y-13771722D02*
X7684349Y-13752674D01*
X7684349Y-13752674D02*
X7703396Y-13743150D01*
X7703396Y-13743150D02*
X7731968Y-13743150D01*
X7731968Y-13743150D02*
X7751015Y-13752674D01*
X7874825Y-13876484D02*
X7855777Y-13866960D01*
X7855777Y-13866960D02*
X7846254Y-13847912D01*
X7846254Y-13847912D02*
X7846254Y-13676484D01*
X7979587Y-13876484D02*
X7960539Y-13866960D01*
X7960539Y-13866960D02*
X7951015Y-13857436D01*
X7951015Y-13857436D02*
X7941492Y-13838388D01*
X7941492Y-13838388D02*
X7941492Y-13781246D01*
X7941492Y-13781246D02*
X7951015Y-13762198D01*
X7951015Y-13762198D02*
X7960539Y-13752674D01*
X7960539Y-13752674D02*
X7979587Y-13743150D01*
X7979587Y-13743150D02*
X8008158Y-13743150D01*
X8008158Y-13743150D02*
X8027206Y-13752674D01*
X8027206Y-13752674D02*
X8036730Y-13762198D01*
X8036730Y-13762198D02*
X8046254Y-13781246D01*
X8046254Y-13781246D02*
X8046254Y-13838388D01*
X8046254Y-13838388D02*
X8036730Y-13857436D01*
X8036730Y-13857436D02*
X8027206Y-13866960D01*
X8027206Y-13866960D02*
X8008158Y-13876484D01*
X8008158Y-13876484D02*
X7979587Y-13876484D01*
X8103396Y-13743150D02*
X8179587Y-13743150D01*
X8131968Y-13676484D02*
X8131968Y-13847912D01*
X8131968Y-13847912D02*
X8141492Y-13866960D01*
X8141492Y-13866960D02*
X8160539Y-13876484D01*
X8160539Y-13876484D02*
X8179587Y-13876484D01*
X8236730Y-13866960D02*
X8255777Y-13876484D01*
X8255777Y-13876484D02*
X8293873Y-13876484D01*
X8293873Y-13876484D02*
X8312920Y-13866960D01*
X8312920Y-13866960D02*
X8322444Y-13847912D01*
X8322444Y-13847912D02*
X8322444Y-13838388D01*
X8322444Y-13838388D02*
X8312920Y-13819341D01*
X8312920Y-13819341D02*
X8293873Y-13809817D01*
X8293873Y-13809817D02*
X8265301Y-13809817D01*
X8265301Y-13809817D02*
X8246254Y-13800293D01*
X8246254Y-13800293D02*
X8236730Y-13781246D01*
X8236730Y-13781246D02*
X8236730Y-13771722D01*
X8236730Y-13771722D02*
X8246254Y-13752674D01*
X8246254Y-13752674D02*
X8265301Y-13743150D01*
X8265301Y-13743150D02*
X8293873Y-13743150D01*
X8293873Y-13743150D02*
X8312920Y-13752674D01*
X8389111Y-13952674D02*
X8398635Y-13943150D01*
X8398635Y-13943150D02*
X8417682Y-13914579D01*
X8417682Y-13914579D02*
X8427206Y-13895531D01*
X8427206Y-13895531D02*
X8436730Y-13866960D01*
X8436730Y-13866960D02*
X8446254Y-13819341D01*
X8446254Y-13819341D02*
X8446254Y-13781246D01*
X8446254Y-13781246D02*
X8436730Y-13733627D01*
X8436730Y-13733627D02*
X8427206Y-13705055D01*
X8427206Y-13705055D02*
X8417682Y-13686008D01*
X8417682Y-13686008D02*
X8398635Y-13657436D01*
X8398635Y-13657436D02*
X8389111Y-13647912D01*
X1795000Y-13955000D02*
X1995000Y-14155000D01*
X1995000Y-13955000D02*
X1795000Y-14155000D01*
X1895000Y-13955000D02*
X1895000Y-14155000D01*
X1795000Y-14055000D02*
X1995000Y-14055000D01*
X2246253Y-13965531D02*
X2255777Y-13956008D01*
X2255777Y-13956008D02*
X2274824Y-13946484D01*
X2274824Y-13946484D02*
X2322444Y-13946484D01*
X2322444Y-13946484D02*
X2341491Y-13956008D01*
X2341491Y-13956008D02*
X2351015Y-13965531D01*
X2351015Y-13965531D02*
X2360539Y-13984579D01*
X2360539Y-13984579D02*
X2360539Y-14003627D01*
X2360539Y-14003627D02*
X2351015Y-14032198D01*
X2351015Y-14032198D02*
X2236729Y-14146484D01*
X2236729Y-14146484D02*
X2360539Y-14146484D01*
X2446253Y-14127436D02*
X2455777Y-14136960D01*
X2455777Y-14136960D02*
X2446253Y-14146484D01*
X2446253Y-14146484D02*
X2436729Y-14136960D01*
X2436729Y-14136960D02*
X2446253Y-14127436D01*
X2446253Y-14127436D02*
X2446253Y-14146484D01*
X2531967Y-13965531D02*
X2541491Y-13956008D01*
X2541491Y-13956008D02*
X2560539Y-13946484D01*
X2560539Y-13946484D02*
X2608158Y-13946484D01*
X2608158Y-13946484D02*
X2627205Y-13956008D01*
X2627205Y-13956008D02*
X2636729Y-13965531D01*
X2636729Y-13965531D02*
X2646253Y-13984579D01*
X2646253Y-13984579D02*
X2646253Y-14003627D01*
X2646253Y-14003627D02*
X2636729Y-14032198D01*
X2636729Y-14032198D02*
X2522444Y-14146484D01*
X2522444Y-14146484D02*
X2646253Y-14146484D01*
X2770063Y-13946484D02*
X2789110Y-13946484D01*
X2789110Y-13946484D02*
X2808158Y-13956008D01*
X2808158Y-13956008D02*
X2817682Y-13965531D01*
X2817682Y-13965531D02*
X2827205Y-13984579D01*
X2827205Y-13984579D02*
X2836729Y-14022674D01*
X2836729Y-14022674D02*
X2836729Y-14070293D01*
X2836729Y-14070293D02*
X2827205Y-14108388D01*
X2827205Y-14108388D02*
X2817682Y-14127436D01*
X2817682Y-14127436D02*
X2808158Y-14136960D01*
X2808158Y-14136960D02*
X2789110Y-14146484D01*
X2789110Y-14146484D02*
X2770063Y-14146484D01*
X2770063Y-14146484D02*
X2751015Y-14136960D01*
X2751015Y-14136960D02*
X2741491Y-14127436D01*
X2741491Y-14127436D02*
X2731967Y-14108388D01*
X2731967Y-14108388D02*
X2722444Y-14070293D01*
X2722444Y-14070293D02*
X2722444Y-14022674D01*
X2722444Y-14022674D02*
X2731967Y-13984579D01*
X2731967Y-13984579D02*
X2741491Y-13965531D01*
X2741491Y-13965531D02*
X2751015Y-13956008D01*
X2751015Y-13956008D02*
X2770063Y-13946484D01*
X2960539Y-13946484D02*
X2979586Y-13946484D01*
X2979586Y-13946484D02*
X2998634Y-13956008D01*
X2998634Y-13956008D02*
X3008158Y-13965531D01*
X3008158Y-13965531D02*
X3017682Y-13984579D01*
X3017682Y-13984579D02*
X3027205Y-14022674D01*
X3027205Y-14022674D02*
X3027205Y-14070293D01*
X3027205Y-14070293D02*
X3017682Y-14108388D01*
X3017682Y-14108388D02*
X3008158Y-14127436D01*
X3008158Y-14127436D02*
X2998634Y-14136960D01*
X2998634Y-14136960D02*
X2979586Y-14146484D01*
X2979586Y-14146484D02*
X2960539Y-14146484D01*
X2960539Y-14146484D02*
X2941491Y-14136960D01*
X2941491Y-14136960D02*
X2931967Y-14127436D01*
X2931967Y-14127436D02*
X2922443Y-14108388D01*
X2922443Y-14108388D02*
X2912920Y-14070293D01*
X2912920Y-14070293D02*
X2912920Y-14022674D01*
X2912920Y-14022674D02*
X2922443Y-13984579D01*
X2922443Y-13984579D02*
X2931967Y-13965531D01*
X2931967Y-13965531D02*
X2941491Y-13956008D01*
X2941491Y-13956008D02*
X2960539Y-13946484D01*
X3112920Y-14146484D02*
X3112920Y-14013150D01*
X3112920Y-14032198D02*
X3122443Y-14022674D01*
X3122443Y-14022674D02*
X3141491Y-14013150D01*
X3141491Y-14013150D02*
X3170063Y-14013150D01*
X3170063Y-14013150D02*
X3189110Y-14022674D01*
X3189110Y-14022674D02*
X3198634Y-14041722D01*
X3198634Y-14041722D02*
X3198634Y-14146484D01*
X3198634Y-14041722D02*
X3208158Y-14022674D01*
X3208158Y-14022674D02*
X3227205Y-14013150D01*
X3227205Y-14013150D02*
X3255777Y-14013150D01*
X3255777Y-14013150D02*
X3274824Y-14022674D01*
X3274824Y-14022674D02*
X3284348Y-14041722D01*
X3284348Y-14041722D02*
X3284348Y-14146484D01*
X3379586Y-14146484D02*
X3379586Y-14013150D01*
X3379586Y-14032198D02*
X3389110Y-14022674D01*
X3389110Y-14022674D02*
X3408158Y-14013150D01*
X3408158Y-14013150D02*
X3436729Y-14013150D01*
X3436729Y-14013150D02*
X3455777Y-14022674D01*
X3455777Y-14022674D02*
X3465301Y-14041722D01*
X3465301Y-14041722D02*
X3465301Y-14146484D01*
X3465301Y-14041722D02*
X3474824Y-14022674D01*
X3474824Y-14022674D02*
X3493872Y-14013150D01*
X3493872Y-14013150D02*
X3522443Y-14013150D01*
X3522443Y-14013150D02*
X3541491Y-14022674D01*
X3541491Y-14022674D02*
X3551015Y-14041722D01*
X3551015Y-14041722D02*
X3551015Y-14146484D01*
X3941491Y-13936960D02*
X3770063Y-14194103D01*
X4198634Y-13946484D02*
X4217682Y-13946484D01*
X4217682Y-13946484D02*
X4236729Y-13956008D01*
X4236729Y-13956008D02*
X4246253Y-13965531D01*
X4246253Y-13965531D02*
X4255777Y-13984579D01*
X4255777Y-13984579D02*
X4265301Y-14022674D01*
X4265301Y-14022674D02*
X4265301Y-14070293D01*
X4265301Y-14070293D02*
X4255777Y-14108388D01*
X4255777Y-14108388D02*
X4246253Y-14127436D01*
X4246253Y-14127436D02*
X4236729Y-14136960D01*
X4236729Y-14136960D02*
X4217682Y-14146484D01*
X4217682Y-14146484D02*
X4198634Y-14146484D01*
X4198634Y-14146484D02*
X4179586Y-14136960D01*
X4179586Y-14136960D02*
X4170063Y-14127436D01*
X4170063Y-14127436D02*
X4160539Y-14108388D01*
X4160539Y-14108388D02*
X4151015Y-14070293D01*
X4151015Y-14070293D02*
X4151015Y-14022674D01*
X4151015Y-14022674D02*
X4160539Y-13984579D01*
X4160539Y-13984579D02*
X4170063Y-13965531D01*
X4170063Y-13965531D02*
X4179586Y-13956008D01*
X4179586Y-13956008D02*
X4198634Y-13946484D01*
X4351015Y-14127436D02*
X4360539Y-14136960D01*
X4360539Y-14136960D02*
X4351015Y-14146484D01*
X4351015Y-14146484D02*
X4341491Y-14136960D01*
X4341491Y-14136960D02*
X4351015Y-14127436D01*
X4351015Y-14127436D02*
X4351015Y-14146484D01*
X4484348Y-13946484D02*
X4503396Y-13946484D01*
X4503396Y-13946484D02*
X4522444Y-13956008D01*
X4522444Y-13956008D02*
X4531968Y-13965531D01*
X4531968Y-13965531D02*
X4541491Y-13984579D01*
X4541491Y-13984579D02*
X4551015Y-14022674D01*
X4551015Y-14022674D02*
X4551015Y-14070293D01*
X4551015Y-14070293D02*
X4541491Y-14108388D01*
X4541491Y-14108388D02*
X4531968Y-14127436D01*
X4531968Y-14127436D02*
X4522444Y-14136960D01*
X4522444Y-14136960D02*
X4503396Y-14146484D01*
X4503396Y-14146484D02*
X4484348Y-14146484D01*
X4484348Y-14146484D02*
X4465301Y-14136960D01*
X4465301Y-14136960D02*
X4455777Y-14127436D01*
X4455777Y-14127436D02*
X4446253Y-14108388D01*
X4446253Y-14108388D02*
X4436729Y-14070293D01*
X4436729Y-14070293D02*
X4436729Y-14022674D01*
X4436729Y-14022674D02*
X4446253Y-13984579D01*
X4446253Y-13984579D02*
X4455777Y-13965531D01*
X4455777Y-13965531D02*
X4465301Y-13956008D01*
X4465301Y-13956008D02*
X4484348Y-13946484D01*
X4665301Y-14032198D02*
X4646253Y-14022674D01*
X4646253Y-14022674D02*
X4636729Y-14013150D01*
X4636729Y-14013150D02*
X4627206Y-13994103D01*
X4627206Y-13994103D02*
X4627206Y-13984579D01*
X4627206Y-13984579D02*
X4636729Y-13965531D01*
X4636729Y-13965531D02*
X4646253Y-13956008D01*
X4646253Y-13956008D02*
X4665301Y-13946484D01*
X4665301Y-13946484D02*
X4703396Y-13946484D01*
X4703396Y-13946484D02*
X4722444Y-13956008D01*
X4722444Y-13956008D02*
X4731968Y-13965531D01*
X4731968Y-13965531D02*
X4741491Y-13984579D01*
X4741491Y-13984579D02*
X4741491Y-13994103D01*
X4741491Y-13994103D02*
X4731968Y-14013150D01*
X4731968Y-14013150D02*
X4722444Y-14022674D01*
X4722444Y-14022674D02*
X4703396Y-14032198D01*
X4703396Y-14032198D02*
X4665301Y-14032198D01*
X4665301Y-14032198D02*
X4646253Y-14041722D01*
X4646253Y-14041722D02*
X4636729Y-14051246D01*
X4636729Y-14051246D02*
X4627206Y-14070293D01*
X4627206Y-14070293D02*
X4627206Y-14108388D01*
X4627206Y-14108388D02*
X4636729Y-14127436D01*
X4636729Y-14127436D02*
X4646253Y-14136960D01*
X4646253Y-14136960D02*
X4665301Y-14146484D01*
X4665301Y-14146484D02*
X4703396Y-14146484D01*
X4703396Y-14146484D02*
X4722444Y-14136960D01*
X4722444Y-14136960D02*
X4731968Y-14127436D01*
X4731968Y-14127436D02*
X4741491Y-14108388D01*
X4741491Y-14108388D02*
X4741491Y-14070293D01*
X4741491Y-14070293D02*
X4731968Y-14051246D01*
X4731968Y-14051246D02*
X4722444Y-14041722D01*
X4722444Y-14041722D02*
X4703396Y-14032198D01*
X4912920Y-13946484D02*
X4874825Y-13946484D01*
X4874825Y-13946484D02*
X4855777Y-13956008D01*
X4855777Y-13956008D02*
X4846253Y-13965531D01*
X4846253Y-13965531D02*
X4827206Y-13994103D01*
X4827206Y-13994103D02*
X4817682Y-14032198D01*
X4817682Y-14032198D02*
X4817682Y-14108388D01*
X4817682Y-14108388D02*
X4827206Y-14127436D01*
X4827206Y-14127436D02*
X4836729Y-14136960D01*
X4836729Y-14136960D02*
X4855777Y-14146484D01*
X4855777Y-14146484D02*
X4893872Y-14146484D01*
X4893872Y-14146484D02*
X4912920Y-14136960D01*
X4912920Y-14136960D02*
X4922444Y-14127436D01*
X4922444Y-14127436D02*
X4931968Y-14108388D01*
X4931968Y-14108388D02*
X4931968Y-14060769D01*
X4931968Y-14060769D02*
X4922444Y-14041722D01*
X4922444Y-14041722D02*
X4912920Y-14032198D01*
X4912920Y-14032198D02*
X4893872Y-14022674D01*
X4893872Y-14022674D02*
X4855777Y-14022674D01*
X4855777Y-14022674D02*
X4836729Y-14032198D01*
X4836729Y-14032198D02*
X4827206Y-14041722D01*
X4827206Y-14041722D02*
X4817682Y-14060769D01*
X5103396Y-13946484D02*
X5065301Y-13946484D01*
X5065301Y-13946484D02*
X5046253Y-13956008D01*
X5046253Y-13956008D02*
X5036729Y-13965531D01*
X5036729Y-13965531D02*
X5017682Y-13994103D01*
X5017682Y-13994103D02*
X5008158Y-14032198D01*
X5008158Y-14032198D02*
X5008158Y-14108388D01*
X5008158Y-14108388D02*
X5017682Y-14127436D01*
X5017682Y-14127436D02*
X5027206Y-14136960D01*
X5027206Y-14136960D02*
X5046253Y-14146484D01*
X5046253Y-14146484D02*
X5084349Y-14146484D01*
X5084349Y-14146484D02*
X5103396Y-14136960D01*
X5103396Y-14136960D02*
X5112920Y-14127436D01*
X5112920Y-14127436D02*
X5122444Y-14108388D01*
X5122444Y-14108388D02*
X5122444Y-14060769D01*
X5122444Y-14060769D02*
X5112920Y-14041722D01*
X5112920Y-14041722D02*
X5103396Y-14032198D01*
X5103396Y-14032198D02*
X5084349Y-14022674D01*
X5084349Y-14022674D02*
X5046253Y-14022674D01*
X5046253Y-14022674D02*
X5027206Y-14032198D01*
X5027206Y-14032198D02*
X5017682Y-14041722D01*
X5017682Y-14041722D02*
X5008158Y-14060769D01*
X5198634Y-13946484D02*
X5198634Y-13984579D01*
X5274825Y-13946484D02*
X5274825Y-13984579D01*
X5570063Y-14222674D02*
X5560539Y-14213150D01*
X5560539Y-14213150D02*
X5541491Y-14184579D01*
X5541491Y-14184579D02*
X5531968Y-14165531D01*
X5531968Y-14165531D02*
X5522444Y-14136960D01*
X5522444Y-14136960D02*
X5512920Y-14089341D01*
X5512920Y-14089341D02*
X5512920Y-14051246D01*
X5512920Y-14051246D02*
X5522444Y-14003627D01*
X5522444Y-14003627D02*
X5531968Y-13975055D01*
X5531968Y-13975055D02*
X5541491Y-13956008D01*
X5541491Y-13956008D02*
X5560539Y-13927436D01*
X5560539Y-13927436D02*
X5570063Y-13917912D01*
X5636729Y-13965531D02*
X5646253Y-13956008D01*
X5646253Y-13956008D02*
X5665301Y-13946484D01*
X5665301Y-13946484D02*
X5712920Y-13946484D01*
X5712920Y-13946484D02*
X5731968Y-13956008D01*
X5731968Y-13956008D02*
X5741491Y-13965531D01*
X5741491Y-13965531D02*
X5751015Y-13984579D01*
X5751015Y-13984579D02*
X5751015Y-14003627D01*
X5751015Y-14003627D02*
X5741491Y-14032198D01*
X5741491Y-14032198D02*
X5627206Y-14146484D01*
X5627206Y-14146484D02*
X5751015Y-14146484D01*
X5989110Y-14146484D02*
X5989110Y-13946484D01*
X6074825Y-14146484D02*
X6074825Y-14041722D01*
X6074825Y-14041722D02*
X6065301Y-14022674D01*
X6065301Y-14022674D02*
X6046253Y-14013150D01*
X6046253Y-14013150D02*
X6017682Y-14013150D01*
X6017682Y-14013150D02*
X5998634Y-14022674D01*
X5998634Y-14022674D02*
X5989110Y-14032198D01*
X6198634Y-14146484D02*
X6179587Y-14136960D01*
X6179587Y-14136960D02*
X6170063Y-14127436D01*
X6170063Y-14127436D02*
X6160539Y-14108388D01*
X6160539Y-14108388D02*
X6160539Y-14051246D01*
X6160539Y-14051246D02*
X6170063Y-14032198D01*
X6170063Y-14032198D02*
X6179587Y-14022674D01*
X6179587Y-14022674D02*
X6198634Y-14013150D01*
X6198634Y-14013150D02*
X6227206Y-14013150D01*
X6227206Y-14013150D02*
X6246253Y-14022674D01*
X6246253Y-14022674D02*
X6255777Y-14032198D01*
X6255777Y-14032198D02*
X6265301Y-14051246D01*
X6265301Y-14051246D02*
X6265301Y-14108388D01*
X6265301Y-14108388D02*
X6255777Y-14127436D01*
X6255777Y-14127436D02*
X6246253Y-14136960D01*
X6246253Y-14136960D02*
X6227206Y-14146484D01*
X6227206Y-14146484D02*
X6198634Y-14146484D01*
X6379587Y-14146484D02*
X6360539Y-14136960D01*
X6360539Y-14136960D02*
X6351015Y-14117912D01*
X6351015Y-14117912D02*
X6351015Y-13946484D01*
X6531968Y-14136960D02*
X6512920Y-14146484D01*
X6512920Y-14146484D02*
X6474825Y-14146484D01*
X6474825Y-14146484D02*
X6455777Y-14136960D01*
X6455777Y-14136960D02*
X6446253Y-14117912D01*
X6446253Y-14117912D02*
X6446253Y-14041722D01*
X6446253Y-14041722D02*
X6455777Y-14022674D01*
X6455777Y-14022674D02*
X6474825Y-14013150D01*
X6474825Y-14013150D02*
X6512920Y-14013150D01*
X6512920Y-14013150D02*
X6531968Y-14022674D01*
X6531968Y-14022674D02*
X6541491Y-14041722D01*
X6541491Y-14041722D02*
X6541491Y-14060769D01*
X6541491Y-14060769D02*
X6446253Y-14079817D01*
X6617682Y-14136960D02*
X6636730Y-14146484D01*
X6636730Y-14146484D02*
X6674825Y-14146484D01*
X6674825Y-14146484D02*
X6693872Y-14136960D01*
X6693872Y-14136960D02*
X6703396Y-14117912D01*
X6703396Y-14117912D02*
X6703396Y-14108388D01*
X6703396Y-14108388D02*
X6693872Y-14089341D01*
X6693872Y-14089341D02*
X6674825Y-14079817D01*
X6674825Y-14079817D02*
X6646253Y-14079817D01*
X6646253Y-14079817D02*
X6627206Y-14070293D01*
X6627206Y-14070293D02*
X6617682Y-14051246D01*
X6617682Y-14051246D02*
X6617682Y-14041722D01*
X6617682Y-14041722D02*
X6627206Y-14022674D01*
X6627206Y-14022674D02*
X6646253Y-14013150D01*
X6646253Y-14013150D02*
X6674825Y-14013150D01*
X6674825Y-14013150D02*
X6693872Y-14022674D01*
X6770063Y-14222674D02*
X6779587Y-14213150D01*
X6779587Y-14213150D02*
X6798634Y-14184579D01*
X6798634Y-14184579D02*
X6808158Y-14165531D01*
X6808158Y-14165531D02*
X6817682Y-14136960D01*
X6817682Y-14136960D02*
X6827206Y-14089341D01*
X6827206Y-14089341D02*
X6827206Y-14051246D01*
X6827206Y-14051246D02*
X6817682Y-14003627D01*
X6817682Y-14003627D02*
X6808158Y-13975055D01*
X6808158Y-13975055D02*
X6798634Y-13956008D01*
X6798634Y-13956008D02*
X6779587Y-13927436D01*
X6779587Y-13927436D02*
X6770063Y-13917912D01*
X1795000Y-14275000D02*
X1995000Y-14475000D01*
X1995000Y-14275000D02*
X1795000Y-14475000D01*
X1965711Y-14445711D02*
X1965711Y-14304289D01*
X1824289Y-14304289D01*
X1824289Y-14445711D01*
X1965711Y-14445711D01*
X2246253Y-14285531D02*
X2255777Y-14276008D01*
X2255777Y-14276008D02*
X2274824Y-14266484D01*
X2274824Y-14266484D02*
X2322444Y-14266484D01*
X2322444Y-14266484D02*
X2341491Y-14276008D01*
X2341491Y-14276008D02*
X2351015Y-14285531D01*
X2351015Y-14285531D02*
X2360539Y-14304579D01*
X2360539Y-14304579D02*
X2360539Y-14323627D01*
X2360539Y-14323627D02*
X2351015Y-14352198D01*
X2351015Y-14352198D02*
X2236729Y-14466484D01*
X2236729Y-14466484D02*
X2360539Y-14466484D01*
X2446253Y-14447436D02*
X2455777Y-14456960D01*
X2455777Y-14456960D02*
X2446253Y-14466484D01*
X2446253Y-14466484D02*
X2436729Y-14456960D01*
X2436729Y-14456960D02*
X2446253Y-14447436D01*
X2446253Y-14447436D02*
X2446253Y-14466484D01*
X2570063Y-14352198D02*
X2551015Y-14342674D01*
X2551015Y-14342674D02*
X2541491Y-14333150D01*
X2541491Y-14333150D02*
X2531967Y-14314103D01*
X2531967Y-14314103D02*
X2531967Y-14304579D01*
X2531967Y-14304579D02*
X2541491Y-14285531D01*
X2541491Y-14285531D02*
X2551015Y-14276008D01*
X2551015Y-14276008D02*
X2570063Y-14266484D01*
X2570063Y-14266484D02*
X2608158Y-14266484D01*
X2608158Y-14266484D02*
X2627205Y-14276008D01*
X2627205Y-14276008D02*
X2636729Y-14285531D01*
X2636729Y-14285531D02*
X2646253Y-14304579D01*
X2646253Y-14304579D02*
X2646253Y-14314103D01*
X2646253Y-14314103D02*
X2636729Y-14333150D01*
X2636729Y-14333150D02*
X2627205Y-14342674D01*
X2627205Y-14342674D02*
X2608158Y-14352198D01*
X2608158Y-14352198D02*
X2570063Y-14352198D01*
X2570063Y-14352198D02*
X2551015Y-14361722D01*
X2551015Y-14361722D02*
X2541491Y-14371246D01*
X2541491Y-14371246D02*
X2531967Y-14390293D01*
X2531967Y-14390293D02*
X2531967Y-14428388D01*
X2531967Y-14428388D02*
X2541491Y-14447436D01*
X2541491Y-14447436D02*
X2551015Y-14456960D01*
X2551015Y-14456960D02*
X2570063Y-14466484D01*
X2570063Y-14466484D02*
X2608158Y-14466484D01*
X2608158Y-14466484D02*
X2627205Y-14456960D01*
X2627205Y-14456960D02*
X2636729Y-14447436D01*
X2636729Y-14447436D02*
X2646253Y-14428388D01*
X2646253Y-14428388D02*
X2646253Y-14390293D01*
X2646253Y-14390293D02*
X2636729Y-14371246D01*
X2636729Y-14371246D02*
X2627205Y-14361722D01*
X2627205Y-14361722D02*
X2608158Y-14352198D01*
X2770063Y-14266484D02*
X2789110Y-14266484D01*
X2789110Y-14266484D02*
X2808158Y-14276008D01*
X2808158Y-14276008D02*
X2817682Y-14285531D01*
X2817682Y-14285531D02*
X2827205Y-14304579D01*
X2827205Y-14304579D02*
X2836729Y-14342674D01*
X2836729Y-14342674D02*
X2836729Y-14390293D01*
X2836729Y-14390293D02*
X2827205Y-14428388D01*
X2827205Y-14428388D02*
X2817682Y-14447436D01*
X2817682Y-14447436D02*
X2808158Y-14456960D01*
X2808158Y-14456960D02*
X2789110Y-14466484D01*
X2789110Y-14466484D02*
X2770063Y-14466484D01*
X2770063Y-14466484D02*
X2751015Y-14456960D01*
X2751015Y-14456960D02*
X2741491Y-14447436D01*
X2741491Y-14447436D02*
X2731967Y-14428388D01*
X2731967Y-14428388D02*
X2722444Y-14390293D01*
X2722444Y-14390293D02*
X2722444Y-14342674D01*
X2722444Y-14342674D02*
X2731967Y-14304579D01*
X2731967Y-14304579D02*
X2741491Y-14285531D01*
X2741491Y-14285531D02*
X2751015Y-14276008D01*
X2751015Y-14276008D02*
X2770063Y-14266484D01*
X2960539Y-14266484D02*
X2979586Y-14266484D01*
X2979586Y-14266484D02*
X2998634Y-14276008D01*
X2998634Y-14276008D02*
X3008158Y-14285531D01*
X3008158Y-14285531D02*
X3017682Y-14304579D01*
X3017682Y-14304579D02*
X3027205Y-14342674D01*
X3027205Y-14342674D02*
X3027205Y-14390293D01*
X3027205Y-14390293D02*
X3017682Y-14428388D01*
X3017682Y-14428388D02*
X3008158Y-14447436D01*
X3008158Y-14447436D02*
X2998634Y-14456960D01*
X2998634Y-14456960D02*
X2979586Y-14466484D01*
X2979586Y-14466484D02*
X2960539Y-14466484D01*
X2960539Y-14466484D02*
X2941491Y-14456960D01*
X2941491Y-14456960D02*
X2931967Y-14447436D01*
X2931967Y-14447436D02*
X2922443Y-14428388D01*
X2922443Y-14428388D02*
X2912920Y-14390293D01*
X2912920Y-14390293D02*
X2912920Y-14342674D01*
X2912920Y-14342674D02*
X2922443Y-14304579D01*
X2922443Y-14304579D02*
X2931967Y-14285531D01*
X2931967Y-14285531D02*
X2941491Y-14276008D01*
X2941491Y-14276008D02*
X2960539Y-14266484D01*
X3112920Y-14466484D02*
X3112920Y-14333150D01*
X3112920Y-14352198D02*
X3122443Y-14342674D01*
X3122443Y-14342674D02*
X3141491Y-14333150D01*
X3141491Y-14333150D02*
X3170063Y-14333150D01*
X3170063Y-14333150D02*
X3189110Y-14342674D01*
X3189110Y-14342674D02*
X3198634Y-14361722D01*
X3198634Y-14361722D02*
X3198634Y-14466484D01*
X3198634Y-14361722D02*
X3208158Y-14342674D01*
X3208158Y-14342674D02*
X3227205Y-14333150D01*
X3227205Y-14333150D02*
X3255777Y-14333150D01*
X3255777Y-14333150D02*
X3274824Y-14342674D01*
X3274824Y-14342674D02*
X3284348Y-14361722D01*
X3284348Y-14361722D02*
X3284348Y-14466484D01*
X3379586Y-14466484D02*
X3379586Y-14333150D01*
X3379586Y-14352198D02*
X3389110Y-14342674D01*
X3389110Y-14342674D02*
X3408158Y-14333150D01*
X3408158Y-14333150D02*
X3436729Y-14333150D01*
X3436729Y-14333150D02*
X3455777Y-14342674D01*
X3455777Y-14342674D02*
X3465301Y-14361722D01*
X3465301Y-14361722D02*
X3465301Y-14466484D01*
X3465301Y-14361722D02*
X3474824Y-14342674D01*
X3474824Y-14342674D02*
X3493872Y-14333150D01*
X3493872Y-14333150D02*
X3522443Y-14333150D01*
X3522443Y-14333150D02*
X3541491Y-14342674D01*
X3541491Y-14342674D02*
X3551015Y-14361722D01*
X3551015Y-14361722D02*
X3551015Y-14466484D01*
X3941491Y-14256960D02*
X3770063Y-14514103D01*
X4198634Y-14266484D02*
X4217682Y-14266484D01*
X4217682Y-14266484D02*
X4236729Y-14276008D01*
X4236729Y-14276008D02*
X4246253Y-14285531D01*
X4246253Y-14285531D02*
X4255777Y-14304579D01*
X4255777Y-14304579D02*
X4265301Y-14342674D01*
X4265301Y-14342674D02*
X4265301Y-14390293D01*
X4265301Y-14390293D02*
X4255777Y-14428388D01*
X4255777Y-14428388D02*
X4246253Y-14447436D01*
X4246253Y-14447436D02*
X4236729Y-14456960D01*
X4236729Y-14456960D02*
X4217682Y-14466484D01*
X4217682Y-14466484D02*
X4198634Y-14466484D01*
X4198634Y-14466484D02*
X4179586Y-14456960D01*
X4179586Y-14456960D02*
X4170063Y-14447436D01*
X4170063Y-14447436D02*
X4160539Y-14428388D01*
X4160539Y-14428388D02*
X4151015Y-14390293D01*
X4151015Y-14390293D02*
X4151015Y-14342674D01*
X4151015Y-14342674D02*
X4160539Y-14304579D01*
X4160539Y-14304579D02*
X4170063Y-14285531D01*
X4170063Y-14285531D02*
X4179586Y-14276008D01*
X4179586Y-14276008D02*
X4198634Y-14266484D01*
X4351015Y-14447436D02*
X4360539Y-14456960D01*
X4360539Y-14456960D02*
X4351015Y-14466484D01*
X4351015Y-14466484D02*
X4341491Y-14456960D01*
X4341491Y-14456960D02*
X4351015Y-14447436D01*
X4351015Y-14447436D02*
X4351015Y-14466484D01*
X4551015Y-14466484D02*
X4436729Y-14466484D01*
X4493872Y-14466484D02*
X4493872Y-14266484D01*
X4493872Y-14266484D02*
X4474825Y-14295055D01*
X4474825Y-14295055D02*
X4455777Y-14314103D01*
X4455777Y-14314103D02*
X4436729Y-14323627D01*
X4741491Y-14466484D02*
X4627206Y-14466484D01*
X4684348Y-14466484D02*
X4684348Y-14266484D01*
X4684348Y-14266484D02*
X4665301Y-14295055D01*
X4665301Y-14295055D02*
X4646253Y-14314103D01*
X4646253Y-14314103D02*
X4627206Y-14323627D01*
X4865301Y-14266484D02*
X4884349Y-14266484D01*
X4884349Y-14266484D02*
X4903396Y-14276008D01*
X4903396Y-14276008D02*
X4912920Y-14285531D01*
X4912920Y-14285531D02*
X4922444Y-14304579D01*
X4922444Y-14304579D02*
X4931968Y-14342674D01*
X4931968Y-14342674D02*
X4931968Y-14390293D01*
X4931968Y-14390293D02*
X4922444Y-14428388D01*
X4922444Y-14428388D02*
X4912920Y-14447436D01*
X4912920Y-14447436D02*
X4903396Y-14456960D01*
X4903396Y-14456960D02*
X4884349Y-14466484D01*
X4884349Y-14466484D02*
X4865301Y-14466484D01*
X4865301Y-14466484D02*
X4846253Y-14456960D01*
X4846253Y-14456960D02*
X4836729Y-14447436D01*
X4836729Y-14447436D02*
X4827206Y-14428388D01*
X4827206Y-14428388D02*
X4817682Y-14390293D01*
X4817682Y-14390293D02*
X4817682Y-14342674D01*
X4817682Y-14342674D02*
X4827206Y-14304579D01*
X4827206Y-14304579D02*
X4836729Y-14285531D01*
X4836729Y-14285531D02*
X4846253Y-14276008D01*
X4846253Y-14276008D02*
X4865301Y-14266484D01*
X5008158Y-14285531D02*
X5017682Y-14276008D01*
X5017682Y-14276008D02*
X5036729Y-14266484D01*
X5036729Y-14266484D02*
X5084349Y-14266484D01*
X5084349Y-14266484D02*
X5103396Y-14276008D01*
X5103396Y-14276008D02*
X5112920Y-14285531D01*
X5112920Y-14285531D02*
X5122444Y-14304579D01*
X5122444Y-14304579D02*
X5122444Y-14323627D01*
X5122444Y-14323627D02*
X5112920Y-14352198D01*
X5112920Y-14352198D02*
X4998634Y-14466484D01*
X4998634Y-14466484D02*
X5122444Y-14466484D01*
X5198634Y-14266484D02*
X5198634Y-14304579D01*
X5274825Y-14266484D02*
X5274825Y-14304579D01*
X5570063Y-14542674D02*
X5560539Y-14533150D01*
X5560539Y-14533150D02*
X5541491Y-14504579D01*
X5541491Y-14504579D02*
X5531968Y-14485531D01*
X5531968Y-14485531D02*
X5522444Y-14456960D01*
X5522444Y-14456960D02*
X5512920Y-14409341D01*
X5512920Y-14409341D02*
X5512920Y-14371246D01*
X5512920Y-14371246D02*
X5522444Y-14323627D01*
X5522444Y-14323627D02*
X5531968Y-14295055D01*
X5531968Y-14295055D02*
X5541491Y-14276008D01*
X5541491Y-14276008D02*
X5560539Y-14247436D01*
X5560539Y-14247436D02*
X5570063Y-14237912D01*
X5731968Y-14333150D02*
X5731968Y-14466484D01*
X5684348Y-14256960D02*
X5636729Y-14399817D01*
X5636729Y-14399817D02*
X5760539Y-14399817D01*
X5989110Y-14466484D02*
X5989110Y-14266484D01*
X6074825Y-14466484D02*
X6074825Y-14361722D01*
X6074825Y-14361722D02*
X6065301Y-14342674D01*
X6065301Y-14342674D02*
X6046253Y-14333150D01*
X6046253Y-14333150D02*
X6017682Y-14333150D01*
X6017682Y-14333150D02*
X5998634Y-14342674D01*
X5998634Y-14342674D02*
X5989110Y-14352198D01*
X6198634Y-14466484D02*
X6179587Y-14456960D01*
X6179587Y-14456960D02*
X6170063Y-14447436D01*
X6170063Y-14447436D02*
X6160539Y-14428388D01*
X6160539Y-14428388D02*
X6160539Y-14371246D01*
X6160539Y-14371246D02*
X6170063Y-14352198D01*
X6170063Y-14352198D02*
X6179587Y-14342674D01*
X6179587Y-14342674D02*
X6198634Y-14333150D01*
X6198634Y-14333150D02*
X6227206Y-14333150D01*
X6227206Y-14333150D02*
X6246253Y-14342674D01*
X6246253Y-14342674D02*
X6255777Y-14352198D01*
X6255777Y-14352198D02*
X6265301Y-14371246D01*
X6265301Y-14371246D02*
X6265301Y-14428388D01*
X6265301Y-14428388D02*
X6255777Y-14447436D01*
X6255777Y-14447436D02*
X6246253Y-14456960D01*
X6246253Y-14456960D02*
X6227206Y-14466484D01*
X6227206Y-14466484D02*
X6198634Y-14466484D01*
X6379587Y-14466484D02*
X6360539Y-14456960D01*
X6360539Y-14456960D02*
X6351015Y-14437912D01*
X6351015Y-14437912D02*
X6351015Y-14266484D01*
X6531968Y-14456960D02*
X6512920Y-14466484D01*
X6512920Y-14466484D02*
X6474825Y-14466484D01*
X6474825Y-14466484D02*
X6455777Y-14456960D01*
X6455777Y-14456960D02*
X6446253Y-14437912D01*
X6446253Y-14437912D02*
X6446253Y-14361722D01*
X6446253Y-14361722D02*
X6455777Y-14342674D01*
X6455777Y-14342674D02*
X6474825Y-14333150D01*
X6474825Y-14333150D02*
X6512920Y-14333150D01*
X6512920Y-14333150D02*
X6531968Y-14342674D01*
X6531968Y-14342674D02*
X6541491Y-14361722D01*
X6541491Y-14361722D02*
X6541491Y-14380769D01*
X6541491Y-14380769D02*
X6446253Y-14399817D01*
X6617682Y-14456960D02*
X6636730Y-14466484D01*
X6636730Y-14466484D02*
X6674825Y-14466484D01*
X6674825Y-14466484D02*
X6693872Y-14456960D01*
X6693872Y-14456960D02*
X6703396Y-14437912D01*
X6703396Y-14437912D02*
X6703396Y-14428388D01*
X6703396Y-14428388D02*
X6693872Y-14409341D01*
X6693872Y-14409341D02*
X6674825Y-14399817D01*
X6674825Y-14399817D02*
X6646253Y-14399817D01*
X6646253Y-14399817D02*
X6627206Y-14390293D01*
X6627206Y-14390293D02*
X6617682Y-14371246D01*
X6617682Y-14371246D02*
X6617682Y-14361722D01*
X6617682Y-14361722D02*
X6627206Y-14342674D01*
X6627206Y-14342674D02*
X6646253Y-14333150D01*
X6646253Y-14333150D02*
X6674825Y-14333150D01*
X6674825Y-14333150D02*
X6693872Y-14342674D01*
X6770063Y-14542674D02*
X6779587Y-14533150D01*
X6779587Y-14533150D02*
X6798634Y-14504579D01*
X6798634Y-14504579D02*
X6808158Y-14485531D01*
X6808158Y-14485531D02*
X6817682Y-14456960D01*
X6817682Y-14456960D02*
X6827206Y-14409341D01*
X6827206Y-14409341D02*
X6827206Y-14371246D01*
X6827206Y-14371246D02*
X6817682Y-14323627D01*
X6817682Y-14323627D02*
X6808158Y-14295055D01*
X6808158Y-14295055D02*
X6798634Y-14276008D01*
X6798634Y-14276008D02*
X6779587Y-14247436D01*
X6779587Y-14247436D02*
X6770063Y-14237912D01*
M02*
