G04 #@! TF.GenerationSoftware,KiCad,Pcbnew,8.0.7*
G04 #@! TF.CreationDate,2025-01-01T13:35:18+11:00*
G04 #@! TF.ProjectId,Mainpcb,4d61696e-7063-4622-9e6b-696361645f70,rev?*
G04 #@! TF.SameCoordinates,Original*
G04 #@! TF.FileFunction,Soldermask,Bot*
G04 #@! TF.FilePolarity,Negative*
%FSLAX46Y46*%
G04 Gerber Fmt 4.6, Leading zero omitted, Abs format (unit mm)*
G04 Created by KiCad (PCBNEW 8.0.7) date 2025-01-01 13:35:19*
%MOMM*%
%LPD*%
G01*
G04 APERTURE LIST*
G04 Aperture macros list*
%AMRoundRect*
0 Rectangle with rounded corners*
0 $1 Rounding radius*
0 $2 $3 $4 $5 $6 $7 $8 $9 X,Y pos of 4 corners*
0 Add a 4 corners polygon primitive as box body*
4,1,4,$2,$3,$4,$5,$6,$7,$8,$9,$2,$3,0*
0 Add four circle primitives for the rounded corners*
1,1,$1+$1,$2,$3*
1,1,$1+$1,$4,$5*
1,1,$1+$1,$6,$7*
1,1,$1+$1,$8,$9*
0 Add four rect primitives between the rounded corners*
20,1,$1+$1,$2,$3,$4,$5,0*
20,1,$1+$1,$4,$5,$6,$7,0*
20,1,$1+$1,$6,$7,$8,$9,0*
20,1,$1+$1,$8,$9,$2,$3,0*%
G04 Aperture macros list end*
%ADD10R,1.000000X0.750000*%
%ADD11C,3.000000*%
%ADD12C,2.500000*%
%ADD13R,1.752600X1.752600*%
%ADD14C,1.752600*%
%ADD15C,1.701800*%
%ADD16C,3.987800*%
%ADD17R,2.550000X2.500000*%
%ADD18R,1.600000X1.600000*%
%ADD19C,1.600000*%
%ADD20R,2.000000X2.000000*%
%ADD21C,2.000000*%
%ADD22R,3.200000X2.000000*%
%ADD23C,2.200000*%
%ADD24C,5.300000*%
%ADD25C,3.048000*%
%ADD26RoundRect,0.250000X-0.350000X-0.625000X0.350000X-0.625000X0.350000X0.625000X-0.350000X0.625000X0*%
%ADD27O,1.200000X1.750000*%
%ADD28O,1.700000X1.700000*%
%ADD29R,1.700000X1.700000*%
%ADD30C,3.500000*%
%ADD31R,1.200000X1.200000*%
G04 APERTURE END LIST*
D10*
X37000000Y-94250000D03*
X31000000Y-94250000D03*
X37000000Y-98000000D03*
X31000000Y-98000000D03*
D11*
X26500000Y-79000000D03*
X41500000Y-79000000D03*
D12*
X31000000Y-78950000D03*
X34000000Y-79000000D03*
X37000000Y-79000000D03*
D13*
X26380000Y-20760000D03*
D14*
X26380000Y-23300000D03*
X26380000Y-25840000D03*
X26380000Y-28380000D03*
X26380000Y-30920000D03*
X26380000Y-33460000D03*
X26380000Y-36000000D03*
X26380000Y-38540000D03*
X26380000Y-41080000D03*
X26380000Y-43620000D03*
X26380000Y-46160000D03*
X26380000Y-48700000D03*
X26380000Y-51240000D03*
X41620000Y-51240000D03*
X41620000Y-48700000D03*
X41620000Y-46160000D03*
X41620000Y-43620000D03*
X41620000Y-41080000D03*
X41620000Y-38540000D03*
X41620000Y-36000000D03*
X41620000Y-33460000D03*
X41620000Y-30920000D03*
X41620000Y-28380000D03*
X41620000Y-25840000D03*
X41620000Y-23300000D03*
X41620000Y-20760000D03*
X29460000Y-48145000D03*
X32000000Y-48145000D03*
X34540000Y-48145000D03*
D15*
X54920000Y-30000000D03*
D11*
X56190000Y-27460000D03*
D16*
X60000000Y-30000000D03*
D11*
X62540000Y-24920000D03*
D15*
X65080000Y-30000000D03*
D17*
X66290000Y-24920000D03*
X52440000Y-27460000D03*
D18*
X45000000Y-64100000D03*
D19*
X45000000Y-71900000D03*
D20*
X26500000Y-65500000D03*
D21*
X26500000Y-70500000D03*
X26500000Y-68000000D03*
D22*
X34000000Y-62400000D03*
X34000000Y-73600000D03*
D21*
X41000000Y-70500000D03*
X41000000Y-65500000D03*
D23*
X22381300Y-20381300D03*
X22381300Y-115818700D03*
X379086090Y-115725000D03*
X379086090Y-20475000D03*
X50381300Y-20381300D03*
X50381300Y-115818700D03*
X119529740Y-115818700D03*
X255263135Y-76600000D03*
X310028740Y-115818700D03*
X288599920Y-57550000D03*
D24*
X34000000Y-42000000D03*
D15*
X326380240Y-106200000D03*
D11*
X327650240Y-103660000D03*
D16*
X331460240Y-106200000D03*
D11*
X334000240Y-101120000D03*
D15*
X336540240Y-106200000D03*
D17*
X337750240Y-101120000D03*
X323900240Y-103660000D03*
D23*
X243354740Y-115818700D03*
D15*
X81112995Y-106200000D03*
D11*
X82382995Y-103660000D03*
D16*
X86192995Y-106200000D03*
D11*
X88732995Y-101120000D03*
D15*
X91272995Y-106200000D03*
D17*
X92482995Y-101120000D03*
X78632995Y-103660000D03*
D15*
X202558135Y-68100000D03*
D11*
X203828135Y-65560000D03*
D16*
X207638135Y-68100000D03*
D11*
X210178135Y-63020000D03*
D15*
X212718135Y-68100000D03*
D17*
X213928135Y-63020000D03*
X200078135Y-65560000D03*
D15*
X193032450Y-87150000D03*
D11*
X194302450Y-84610000D03*
D16*
X198112450Y-87150000D03*
D11*
X200652450Y-82070000D03*
D15*
X203192450Y-87150000D03*
D17*
X204402450Y-82070000D03*
X190552450Y-84610000D03*
D15*
X178744920Y-49050000D03*
D11*
X180014920Y-46510000D03*
D16*
X183824920Y-49050000D03*
D11*
X186364920Y-43970000D03*
D15*
X188904920Y-49050000D03*
D17*
X190114920Y-43970000D03*
X176264920Y-46510000D03*
D15*
X93020000Y-30000000D03*
D11*
X94290000Y-27460000D03*
D16*
X98100000Y-30000000D03*
D11*
X100640000Y-24920000D03*
D15*
X103180000Y-30000000D03*
D17*
X104390000Y-24920000D03*
X90540000Y-27460000D03*
D15*
X150170000Y-30000000D03*
D11*
X151440000Y-27460000D03*
D16*
X155250000Y-30000000D03*
D11*
X157790000Y-24920000D03*
D15*
X160330000Y-30000000D03*
D17*
X161540000Y-24920000D03*
X147690000Y-27460000D03*
D23*
X22381300Y-57550000D03*
D15*
X283520000Y-30000000D03*
D11*
X284790000Y-27460000D03*
D16*
X288600000Y-30000000D03*
D11*
X291140000Y-24920000D03*
D15*
X293680000Y-30000000D03*
D17*
X294890000Y-24920000D03*
X281040000Y-27460000D03*
D15*
X57301250Y-106200000D03*
D11*
X58571250Y-103660000D03*
D16*
X62381250Y-106200000D03*
D11*
X64921250Y-101120000D03*
D15*
X67461250Y-106200000D03*
D17*
X68671250Y-101120000D03*
X54821250Y-103660000D03*
D15*
X345431090Y-106200000D03*
D11*
X346701090Y-103660000D03*
D16*
X350511090Y-106200000D03*
D11*
X353051090Y-101120000D03*
D15*
X355591090Y-106200000D03*
D17*
X356801090Y-101120000D03*
X342951090Y-103660000D03*
D15*
X212082450Y-87150000D03*
D11*
X213352450Y-84610000D03*
D16*
X217162450Y-87150000D03*
D11*
X219702450Y-82070000D03*
D15*
X222242450Y-87150000D03*
D17*
X223452450Y-82070000D03*
X209602450Y-84610000D03*
D15*
X309713635Y-68100000D03*
D11*
X310983635Y-65560000D03*
D16*
X314793635Y-68100000D03*
D11*
X317333635Y-63020000D03*
D15*
X319873635Y-68100000D03*
D17*
X321083635Y-63020000D03*
X307233635Y-65560000D03*
D15*
X231132450Y-87150000D03*
D11*
X232402450Y-84610000D03*
D16*
X236212450Y-87150000D03*
D11*
X238752450Y-82070000D03*
D15*
X241292450Y-87150000D03*
D17*
X242502450Y-82070000D03*
X228652450Y-84610000D03*
D15*
X364482500Y-49050000D03*
D11*
X365752500Y-46510000D03*
D16*
X369562500Y-49050000D03*
D11*
X372102500Y-43970000D03*
D15*
X374642500Y-49050000D03*
D17*
X375852500Y-43970000D03*
X362002500Y-46510000D03*
D25*
X60006250Y-80165000D03*
D16*
X60006250Y-95405000D03*
D25*
X83806250Y-80165000D03*
D16*
X83806250Y-95405000D03*
D15*
X97782450Y-87150000D03*
D11*
X99052450Y-84610000D03*
D16*
X102862450Y-87150000D03*
D11*
X105402450Y-82070000D03*
D15*
X107942450Y-87150000D03*
D17*
X109152450Y-82070000D03*
X95302450Y-84610000D03*
D15*
X295423740Y-106200000D03*
D11*
X296693740Y-103660000D03*
D16*
X300503740Y-106200000D03*
D11*
X303043740Y-101120000D03*
D15*
X305583740Y-106200000D03*
D17*
X306793740Y-101120000D03*
X292943740Y-103660000D03*
D15*
X59682500Y-49050000D03*
D11*
X60952500Y-46510000D03*
D16*
X64762500Y-49050000D03*
D11*
X67302500Y-43970000D03*
D15*
X69842500Y-49050000D03*
D17*
X71052500Y-43970000D03*
X57202500Y-46510000D03*
D15*
X259708135Y-68100000D03*
D11*
X260978135Y-65560000D03*
D16*
X264788135Y-68100000D03*
D11*
X267328135Y-63020000D03*
D15*
X269868135Y-68100000D03*
D17*
X271078135Y-63020000D03*
X257228135Y-65560000D03*
D15*
X131120000Y-30000000D03*
D11*
X132390000Y-27460000D03*
D16*
X136200000Y-30000000D03*
D11*
X138740000Y-24920000D03*
D15*
X141280000Y-30000000D03*
D17*
X142490000Y-24920000D03*
X128640000Y-27460000D03*
D15*
X83494920Y-49050000D03*
D11*
X84764920Y-46510000D03*
D16*
X88574920Y-49050000D03*
D11*
X91114920Y-43970000D03*
D15*
X93654920Y-49050000D03*
D17*
X94864920Y-43970000D03*
X81014920Y-46510000D03*
D15*
X264470000Y-30000000D03*
D11*
X265740000Y-27460000D03*
D16*
X269550000Y-30000000D03*
D11*
X272090000Y-24920000D03*
D15*
X274630000Y-30000000D03*
D17*
X275840000Y-24920000D03*
X261990000Y-27460000D03*
D15*
X278758135Y-68100000D03*
D11*
X280028135Y-65560000D03*
D16*
X283838135Y-68100000D03*
D11*
X286378135Y-63020000D03*
D15*
X288918135Y-68100000D03*
D17*
X290128135Y-63020000D03*
X276278135Y-65560000D03*
D15*
X316857420Y-49050000D03*
D11*
X318127420Y-46510000D03*
D16*
X321937420Y-49050000D03*
D11*
X324477420Y-43970000D03*
D15*
X327017420Y-49050000D03*
D17*
X328227420Y-43970000D03*
X314377420Y-46510000D03*
D15*
X164458135Y-68100000D03*
D11*
X165728135Y-65560000D03*
D16*
X169538135Y-68100000D03*
D11*
X172078135Y-63020000D03*
D15*
X174618135Y-68100000D03*
D17*
X175828135Y-63020000D03*
X161978135Y-65560000D03*
D23*
X221925000Y-20381300D03*
D15*
X73970000Y-30000000D03*
D11*
X75240000Y-27460000D03*
D16*
X79050000Y-30000000D03*
D11*
X81590000Y-24920000D03*
D15*
X84130000Y-30000000D03*
D17*
X85340000Y-24920000D03*
X71490000Y-27460000D03*
D23*
X179063135Y-76600000D03*
D26*
X32730000Y-57050000D03*
D27*
X34730000Y-57050000D03*
D15*
X345431090Y-87150000D03*
D11*
X346701090Y-84610000D03*
D16*
X350511090Y-87150000D03*
D11*
X353051090Y-82070000D03*
D15*
X355591090Y-87150000D03*
D17*
X356801090Y-82070000D03*
X342951090Y-84610000D03*
D15*
X345432500Y-49050000D03*
D11*
X346702500Y-46510000D03*
D16*
X350512500Y-49050000D03*
D11*
X353052500Y-43970000D03*
D15*
X355592500Y-49050000D03*
D17*
X356802500Y-43970000D03*
X342952500Y-46510000D03*
D23*
X145725000Y-20381300D03*
D15*
X364482500Y-30000000D03*
D11*
X365752500Y-27460000D03*
D16*
X369562500Y-30000000D03*
D11*
X372102500Y-24920000D03*
D15*
X374642500Y-30000000D03*
D17*
X375852500Y-24920000D03*
X362002500Y-27460000D03*
D15*
X312095000Y-30000000D03*
D11*
X313365000Y-27460000D03*
D16*
X317175000Y-30000000D03*
D11*
X319715000Y-24920000D03*
D15*
X322255000Y-30000000D03*
D17*
X323465000Y-24920000D03*
X309615000Y-27460000D03*
D15*
X145408135Y-68100000D03*
D11*
X146678135Y-65560000D03*
D16*
X150488135Y-68100000D03*
D11*
X153028135Y-63020000D03*
D15*
X155568135Y-68100000D03*
D17*
X156778135Y-63020000D03*
X142928135Y-65560000D03*
D25*
X133816590Y-99215000D03*
D16*
X133816590Y-114455000D03*
D25*
X229066590Y-99215000D03*
D16*
X229066590Y-114455000D03*
D15*
X221608135Y-68100000D03*
D11*
X222878135Y-65560000D03*
D16*
X226688135Y-68100000D03*
D11*
X229228135Y-63020000D03*
D15*
X231768135Y-68100000D03*
D17*
X232978135Y-63020000D03*
X219128135Y-65560000D03*
D15*
X235894920Y-49050000D03*
D11*
X237164920Y-46510000D03*
D16*
X240974920Y-49050000D03*
D11*
X243514920Y-43970000D03*
D15*
X246054920Y-49050000D03*
D17*
X247264920Y-43970000D03*
X233414920Y-46510000D03*
D15*
X154932450Y-87150000D03*
D11*
X156202450Y-84610000D03*
D16*
X160012450Y-87150000D03*
D11*
X162552450Y-82070000D03*
D15*
X165092450Y-87150000D03*
D17*
X166302450Y-82070000D03*
X152452450Y-84610000D03*
D15*
X197794920Y-49050000D03*
D11*
X199064920Y-46510000D03*
D16*
X202874920Y-49050000D03*
D11*
X205414920Y-43970000D03*
D15*
X207954920Y-49050000D03*
D17*
X209164920Y-43970000D03*
X195314920Y-46510000D03*
D15*
X240658135Y-68100000D03*
D11*
X241928135Y-65560000D03*
D16*
X245738135Y-68100000D03*
D11*
X248278135Y-63020000D03*
D15*
X250818135Y-68100000D03*
D17*
X252028135Y-63020000D03*
X238178135Y-65560000D03*
D15*
X245420000Y-30000000D03*
D11*
X246690000Y-27460000D03*
D16*
X250500000Y-30000000D03*
D11*
X253040000Y-24920000D03*
D15*
X255580000Y-30000000D03*
D17*
X256790000Y-24920000D03*
X242940000Y-27460000D03*
D15*
X293044920Y-49050000D03*
D11*
X294314920Y-46510000D03*
D16*
X298124920Y-49050000D03*
D11*
X300664920Y-43970000D03*
D15*
X303204920Y-49050000D03*
D17*
X304414920Y-43970000D03*
X290564920Y-46510000D03*
D23*
X379086090Y-57550000D03*
D15*
X345432500Y-30000000D03*
D11*
X346702500Y-27460000D03*
D16*
X350512500Y-30000000D03*
D11*
X353052500Y-24920000D03*
D15*
X355592500Y-30000000D03*
D17*
X356802500Y-24920000D03*
X342952500Y-27460000D03*
D15*
X247799740Y-106200000D03*
D11*
X249069740Y-103660000D03*
D16*
X252879740Y-106200000D03*
D11*
X255419740Y-101120000D03*
D15*
X257959740Y-106200000D03*
D17*
X259169740Y-101120000D03*
X245319740Y-103660000D03*
D15*
X176361740Y-106200000D03*
D11*
X177631740Y-103660000D03*
D16*
X181441740Y-106200000D03*
D11*
X183981740Y-101120000D03*
D15*
X186521740Y-106200000D03*
D17*
X187731740Y-101120000D03*
X173881740Y-103660000D03*
D15*
X269232450Y-87150000D03*
D11*
X270502450Y-84610000D03*
D16*
X274312450Y-87150000D03*
D11*
X276852450Y-82070000D03*
D15*
X279392450Y-87150000D03*
D17*
X280602450Y-82070000D03*
X266752450Y-84610000D03*
D15*
X304950450Y-87150000D03*
D11*
X306220450Y-84610000D03*
D16*
X310030450Y-87150000D03*
D11*
X312570450Y-82070000D03*
D15*
X315110450Y-87150000D03*
D17*
X316320450Y-82070000D03*
X302470450Y-84610000D03*
D15*
X250182450Y-87150000D03*
D11*
X251452450Y-84610000D03*
D16*
X255262450Y-87150000D03*
D11*
X257802450Y-82070000D03*
D15*
X260342450Y-87150000D03*
D17*
X261552450Y-82070000D03*
X247702450Y-84610000D03*
D15*
X102544920Y-49050000D03*
D11*
X103814920Y-46510000D03*
D16*
X107624920Y-49050000D03*
D11*
X110164920Y-43970000D03*
D15*
X112704920Y-49050000D03*
D17*
X113914920Y-43970000D03*
X100064920Y-46510000D03*
D15*
X112070000Y-30000000D03*
D11*
X113340000Y-27460000D03*
D16*
X117150000Y-30000000D03*
D11*
X119690000Y-24920000D03*
D15*
X122230000Y-30000000D03*
D17*
X123440000Y-24920000D03*
X109590000Y-27460000D03*
D25*
X298130450Y-80165000D03*
D16*
X298130450Y-95405000D03*
D25*
X321930450Y-80165000D03*
D16*
X321930450Y-95405000D03*
D15*
X135882450Y-87150000D03*
D11*
X137152450Y-84610000D03*
D16*
X140962450Y-87150000D03*
D11*
X143502450Y-82070000D03*
D15*
X146042450Y-87150000D03*
D17*
X147252450Y-82070000D03*
X133402450Y-84610000D03*
D15*
X140644920Y-49050000D03*
D11*
X141914920Y-46510000D03*
D16*
X145724920Y-49050000D03*
D11*
X148264920Y-43970000D03*
D15*
X150804920Y-49050000D03*
D17*
X152014920Y-43970000D03*
X138164920Y-46510000D03*
D15*
X121594920Y-49050000D03*
D11*
X122864920Y-46510000D03*
D16*
X126674920Y-49050000D03*
D11*
X129214920Y-43970000D03*
D15*
X131754920Y-49050000D03*
D17*
X132964920Y-43970000D03*
X119114920Y-46510000D03*
D25*
X305275000Y-23015000D03*
D16*
X305275000Y-38255000D03*
D25*
X329075000Y-23015000D03*
D16*
X329075000Y-38255000D03*
D15*
X126358135Y-68100000D03*
D11*
X127628135Y-65560000D03*
D16*
X131438135Y-68100000D03*
D11*
X133978135Y-63020000D03*
D15*
X136518135Y-68100000D03*
D17*
X137728135Y-63020000D03*
X123878135Y-65560000D03*
D15*
X66826250Y-87150000D03*
D11*
X68096250Y-84610000D03*
D16*
X71906250Y-87150000D03*
D11*
X74446250Y-82070000D03*
D15*
X76986250Y-87150000D03*
D17*
X78196250Y-82070000D03*
X64346250Y-84610000D03*
D15*
X271611740Y-106200000D03*
D11*
X272881740Y-103660000D03*
D16*
X276691740Y-106200000D03*
D11*
X279231740Y-101120000D03*
D15*
X281771740Y-106200000D03*
D17*
X282981740Y-101120000D03*
X269131740Y-103660000D03*
D15*
X88258135Y-68100000D03*
D11*
X89528135Y-65560000D03*
D16*
X93338135Y-68100000D03*
D11*
X95878135Y-63020000D03*
D15*
X98418135Y-68100000D03*
D17*
X99628135Y-63020000D03*
X85778135Y-65560000D03*
D15*
X104924740Y-106200000D03*
D11*
X106194740Y-103660000D03*
D16*
X110004740Y-106200000D03*
D11*
X112544740Y-101120000D03*
D15*
X115084740Y-106200000D03*
D17*
X116294740Y-101120000D03*
X102444740Y-103660000D03*
D23*
X212399920Y-57550000D03*
D28*
X37810000Y-86500000D03*
X35270000Y-86500000D03*
X32730000Y-86500000D03*
D29*
X30190000Y-86500000D03*
D30*
X23750000Y-109500000D03*
X44250000Y-109500000D03*
X23750000Y-86500000D03*
X44250000Y-86500000D03*
D15*
X183508135Y-68100000D03*
D11*
X184778135Y-65560000D03*
D16*
X188588135Y-68100000D03*
D11*
X191128135Y-63020000D03*
D15*
X193668135Y-68100000D03*
D17*
X194878135Y-63020000D03*
X181028135Y-65560000D03*
D15*
X169220000Y-30000000D03*
D11*
X170490000Y-27460000D03*
D16*
X174300000Y-30000000D03*
D11*
X176840000Y-24920000D03*
D15*
X179380000Y-30000000D03*
D17*
X180590000Y-24920000D03*
X166740000Y-27460000D03*
D15*
X62063750Y-68100000D03*
D11*
X63333750Y-65560000D03*
D16*
X67143750Y-68100000D03*
D11*
X69683750Y-63020000D03*
D15*
X72223750Y-68100000D03*
D17*
X73433750Y-63020000D03*
X59583750Y-65560000D03*
D15*
X116832450Y-87150000D03*
D11*
X118102450Y-84610000D03*
D16*
X121912450Y-87150000D03*
D11*
X124452450Y-82070000D03*
D15*
X126992450Y-87150000D03*
D17*
X128202450Y-82070000D03*
X114352450Y-84610000D03*
D15*
X159694920Y-49050000D03*
D11*
X160964920Y-46510000D03*
D16*
X164774920Y-49050000D03*
D11*
X167314920Y-43970000D03*
D15*
X169854920Y-49050000D03*
D17*
X171064920Y-43970000D03*
X157214920Y-46510000D03*
D15*
X107308135Y-68100000D03*
D11*
X108578135Y-65560000D03*
D16*
X112388135Y-68100000D03*
D11*
X114928135Y-63020000D03*
D15*
X117468135Y-68100000D03*
D17*
X118678135Y-63020000D03*
X104828135Y-65560000D03*
D15*
X207320000Y-30000000D03*
D11*
X208590000Y-27460000D03*
D16*
X212400000Y-30000000D03*
D11*
X214940000Y-24920000D03*
D15*
X217480000Y-30000000D03*
D17*
X218690000Y-24920000D03*
X204840000Y-27460000D03*
D25*
X302893635Y-61115000D03*
D16*
X302893635Y-76355000D03*
D25*
X326693635Y-61115000D03*
D16*
X326693635Y-76355000D03*
D23*
X50381300Y-57550000D03*
D15*
X216844920Y-49050000D03*
D11*
X218114920Y-46510000D03*
D16*
X221924920Y-49050000D03*
D11*
X224464920Y-43970000D03*
D15*
X227004920Y-49050000D03*
D17*
X228214920Y-43970000D03*
X214364920Y-46510000D03*
D15*
X364481090Y-106200000D03*
D11*
X365751090Y-103660000D03*
D16*
X369561090Y-106200000D03*
D11*
X372101090Y-101120000D03*
D15*
X374641090Y-106200000D03*
D17*
X375851090Y-101120000D03*
X362001090Y-103660000D03*
D23*
X136199920Y-57550000D03*
D15*
X173982450Y-87150000D03*
D11*
X175252450Y-84610000D03*
D16*
X179062450Y-87150000D03*
D11*
X181602450Y-82070000D03*
D15*
X184142450Y-87150000D03*
D17*
X185352450Y-82070000D03*
X171502450Y-84610000D03*
D15*
X273994920Y-49050000D03*
D11*
X275264920Y-46510000D03*
D16*
X279074920Y-49050000D03*
D11*
X281614920Y-43970000D03*
D15*
X284154920Y-49050000D03*
D17*
X285364920Y-43970000D03*
X271514920Y-46510000D03*
D23*
X298125000Y-20381300D03*
D15*
X254944920Y-49050000D03*
D11*
X256214920Y-46510000D03*
D16*
X260024920Y-49050000D03*
D11*
X262564920Y-43970000D03*
D15*
X265104920Y-49050000D03*
D17*
X266314920Y-43970000D03*
X252464920Y-46510000D03*
D29*
X342537500Y-71910000D03*
D28*
X342537500Y-69370000D03*
X342537500Y-66830000D03*
X342537500Y-64290000D03*
D15*
X188270000Y-30000000D03*
D11*
X189540000Y-27460000D03*
D16*
X193350000Y-30000000D03*
D11*
X195890000Y-24920000D03*
D15*
X198430000Y-30000000D03*
D17*
X199640000Y-24920000D03*
X185790000Y-27460000D03*
D15*
X226370000Y-30000000D03*
D11*
X227640000Y-27460000D03*
D16*
X231450000Y-30000000D03*
D11*
X233990000Y-24920000D03*
D15*
X236530000Y-30000000D03*
D17*
X237740000Y-24920000D03*
X223890000Y-27460000D03*
D18*
X151350000Y-38500000D03*
D31*
X153675000Y-38500000D03*
X156825000Y-38500000D03*
D19*
X159150000Y-38500000D03*
D18*
X346612500Y-57550000D03*
D31*
X348937500Y-57550000D03*
X352087500Y-57550000D03*
D19*
X354412500Y-57550000D03*
D18*
X170400000Y-38500000D03*
D31*
X172725000Y-38500000D03*
X175875000Y-38500000D03*
D19*
X178200000Y-38500000D03*
D18*
X208500000Y-38500000D03*
D31*
X210825000Y-38500000D03*
X213975000Y-38500000D03*
D19*
X216300000Y-38500000D03*
D18*
X194212450Y-95650000D03*
D31*
X196537450Y-95650000D03*
X199687450Y-95650000D03*
D19*
X202012450Y-95650000D03*
D18*
X89438135Y-76600000D03*
D31*
X91763135Y-76600000D03*
X94913135Y-76600000D03*
D19*
X97238135Y-76600000D03*
D18*
X175162450Y-95650000D03*
D31*
X177487450Y-95650000D03*
X180637450Y-95650000D03*
D19*
X182962450Y-95650000D03*
D18*
X346611090Y-95650000D03*
D31*
X348936090Y-95650000D03*
X352086090Y-95650000D03*
D19*
X354411090Y-95650000D03*
D18*
X296604590Y-114700000D03*
D31*
X298929590Y-114700000D03*
X302079590Y-114700000D03*
D19*
X304404590Y-114700000D03*
D18*
X227550000Y-38500000D03*
D31*
X229875000Y-38500000D03*
X233025000Y-38500000D03*
D19*
X235350000Y-38500000D03*
D18*
X284700000Y-38500000D03*
D31*
X287025000Y-38500000D03*
X290175000Y-38500000D03*
D19*
X292500000Y-38500000D03*
D18*
X184688135Y-76600000D03*
D31*
X187013135Y-76600000D03*
X190163135Y-76600000D03*
D19*
X192488135Y-76600000D03*
D18*
X213262450Y-95650000D03*
D31*
X215587450Y-95650000D03*
X218737450Y-95650000D03*
D19*
X221062450Y-95650000D03*
D18*
X122774920Y-57550000D03*
D31*
X125099920Y-57550000D03*
X128249920Y-57550000D03*
D19*
X130574920Y-57550000D03*
D18*
X141824920Y-57550000D03*
D31*
X144149920Y-57550000D03*
X147299920Y-57550000D03*
D19*
X149624920Y-57550000D03*
D18*
X365661090Y-114700000D03*
D31*
X367986090Y-114700000D03*
X371136090Y-114700000D03*
D19*
X373461090Y-114700000D03*
D18*
X63243750Y-76600000D03*
D31*
X65568750Y-76600000D03*
X68718750Y-76600000D03*
D19*
X71043750Y-76600000D03*
D18*
X275174920Y-57550000D03*
D31*
X277499920Y-57550000D03*
X280649920Y-57550000D03*
D19*
X282974920Y-57550000D03*
D18*
X177541590Y-114700000D03*
D31*
X179866590Y-114700000D03*
X183016590Y-114700000D03*
D19*
X185341590Y-114700000D03*
D18*
X56100000Y-38500000D03*
D31*
X58425000Y-38500000D03*
X61575000Y-38500000D03*
D19*
X63900000Y-38500000D03*
D18*
X294224920Y-57550000D03*
D31*
X296549920Y-57550000D03*
X299699920Y-57550000D03*
D19*
X302024920Y-57550000D03*
D18*
X365662500Y-38500000D03*
D31*
X367987500Y-38500000D03*
X371137500Y-38500000D03*
D19*
X373462500Y-38500000D03*
D18*
X232312450Y-95650000D03*
D31*
X234637450Y-95650000D03*
X237787450Y-95650000D03*
D19*
X240112450Y-95650000D03*
D18*
X248979590Y-114700000D03*
D31*
X251304590Y-114700000D03*
X254454590Y-114700000D03*
D19*
X256779590Y-114700000D03*
D18*
X265650000Y-38500000D03*
D31*
X267975000Y-38500000D03*
X271125000Y-38500000D03*
D19*
X273450000Y-38500000D03*
D18*
X160874920Y-57550000D03*
D31*
X163199920Y-57550000D03*
X166349920Y-57550000D03*
D19*
X168674920Y-57550000D03*
D18*
X270412450Y-95650000D03*
D31*
X272737450Y-95650000D03*
X275887450Y-95650000D03*
D19*
X278212450Y-95650000D03*
D18*
X260888135Y-76600000D03*
D31*
X263213135Y-76600000D03*
X266363135Y-76600000D03*
D19*
X268688135Y-76600000D03*
D18*
X310893635Y-76600000D03*
D31*
X313218635Y-76600000D03*
X316368635Y-76600000D03*
D19*
X318693635Y-76600000D03*
D18*
X203738135Y-76600000D03*
D31*
X206063135Y-76600000D03*
X209213135Y-76600000D03*
D19*
X211538135Y-76600000D03*
D18*
X246600000Y-38500000D03*
D31*
X248925000Y-38500000D03*
X252075000Y-38500000D03*
D19*
X254400000Y-38500000D03*
D18*
X58481250Y-114700000D03*
D31*
X60806250Y-114700000D03*
X63956250Y-114700000D03*
D19*
X66281250Y-114700000D03*
D18*
X218024920Y-57550000D03*
D31*
X220349920Y-57550000D03*
X223499920Y-57550000D03*
D19*
X225824920Y-57550000D03*
D18*
X306130450Y-95650000D03*
D31*
X308455450Y-95650000D03*
X311605450Y-95650000D03*
D19*
X313930450Y-95650000D03*
D18*
X82292995Y-114700000D03*
D31*
X84617995Y-114700000D03*
X87767995Y-114700000D03*
D19*
X90092995Y-114700000D03*
D18*
X75150000Y-38500000D03*
D31*
X77475000Y-38500000D03*
X80625000Y-38500000D03*
D19*
X82950000Y-38500000D03*
D18*
X346611090Y-114700000D03*
D31*
X348936090Y-114700000D03*
X352086090Y-114700000D03*
D19*
X354411090Y-114700000D03*
D18*
X118012450Y-95650000D03*
D31*
X120337450Y-95650000D03*
X123487450Y-95650000D03*
D19*
X125812450Y-95650000D03*
D18*
X113250000Y-38500000D03*
D31*
X115575000Y-38500000D03*
X118725000Y-38500000D03*
D19*
X121050000Y-38500000D03*
D18*
X327561090Y-114700000D03*
D31*
X329886090Y-114700000D03*
X333036090Y-114700000D03*
D19*
X335361090Y-114700000D03*
D18*
X106104740Y-114700000D03*
D31*
X108429740Y-114700000D03*
X111579740Y-114700000D03*
D19*
X113904740Y-114700000D03*
D18*
X222788135Y-76600000D03*
D31*
X225113135Y-76600000D03*
X228263135Y-76600000D03*
D19*
X230588135Y-76600000D03*
D18*
X179924920Y-57550000D03*
D31*
X182249920Y-57550000D03*
X185399920Y-57550000D03*
D19*
X187724920Y-57550000D03*
D18*
X251362450Y-95650000D03*
D31*
X253687450Y-95650000D03*
X256837450Y-95650000D03*
D19*
X259162450Y-95650000D03*
D18*
X60862500Y-57550000D03*
D31*
X63187500Y-57550000D03*
X66337500Y-57550000D03*
D19*
X68662500Y-57550000D03*
D18*
X279938135Y-76600000D03*
D31*
X282263135Y-76600000D03*
X285413135Y-76600000D03*
D19*
X287738135Y-76600000D03*
D18*
X198974920Y-57550000D03*
D31*
X201299920Y-57550000D03*
X204449920Y-57550000D03*
D19*
X206774920Y-57550000D03*
D18*
X132300000Y-38500000D03*
D31*
X134625000Y-38500000D03*
X137775000Y-38500000D03*
D19*
X140100000Y-38500000D03*
D18*
X237074920Y-57550000D03*
D31*
X239399920Y-57550000D03*
X242549920Y-57550000D03*
D19*
X244874920Y-57550000D03*
D18*
X108488135Y-76600000D03*
D31*
X110813135Y-76600000D03*
X113963135Y-76600000D03*
D19*
X116288135Y-76600000D03*
D18*
X103724920Y-57550000D03*
D31*
X106049920Y-57550000D03*
X109199920Y-57550000D03*
D19*
X111524920Y-57550000D03*
D18*
X272791590Y-114700000D03*
D31*
X275116590Y-114700000D03*
X278266590Y-114700000D03*
D19*
X280591590Y-114700000D03*
D18*
X313275000Y-38500000D03*
D31*
X315600000Y-38500000D03*
X318750000Y-38500000D03*
D19*
X321075000Y-38500000D03*
D18*
X165638135Y-76600000D03*
D31*
X167963135Y-76600000D03*
X171113135Y-76600000D03*
D19*
X173438135Y-76600000D03*
D18*
X318037420Y-57550000D03*
D31*
X320362420Y-57550000D03*
X323512420Y-57550000D03*
D19*
X325837420Y-57550000D03*
D18*
X189450000Y-38500000D03*
D31*
X191775000Y-38500000D03*
X194925000Y-38500000D03*
D19*
X197250000Y-38500000D03*
D18*
X127538135Y-76600000D03*
D31*
X129863135Y-76600000D03*
X133013135Y-76600000D03*
D19*
X135338135Y-76600000D03*
D18*
X156112450Y-95650000D03*
D31*
X158437450Y-95650000D03*
X161587450Y-95650000D03*
D19*
X163912450Y-95650000D03*
D18*
X98962450Y-95650000D03*
D31*
X101287450Y-95650000D03*
X104437450Y-95650000D03*
D19*
X106762450Y-95650000D03*
D18*
X241838135Y-76600000D03*
D31*
X244163135Y-76600000D03*
X247313135Y-76600000D03*
D19*
X249638135Y-76600000D03*
D18*
X68006250Y-95650000D03*
D31*
X70331250Y-95650000D03*
X73481250Y-95650000D03*
D19*
X75806250Y-95650000D03*
D18*
X256124920Y-57550000D03*
D31*
X258449920Y-57550000D03*
X261599920Y-57550000D03*
D19*
X263924920Y-57550000D03*
D18*
X146588135Y-76600000D03*
D31*
X148913135Y-76600000D03*
X152063135Y-76600000D03*
D19*
X154388135Y-76600000D03*
D18*
X365662500Y-57550000D03*
D31*
X367987500Y-57550000D03*
X371137500Y-57550000D03*
D19*
X373462500Y-57550000D03*
D18*
X94200000Y-38500000D03*
D31*
X96525000Y-38500000D03*
X99675000Y-38500000D03*
D19*
X102000000Y-38500000D03*
D18*
X84674920Y-57550000D03*
D31*
X86999920Y-57550000D03*
X90149920Y-57550000D03*
D19*
X92474920Y-57550000D03*
D18*
X137062450Y-95650000D03*
D31*
X139387450Y-95650000D03*
X142537450Y-95650000D03*
D19*
X144862450Y-95650000D03*
D18*
X346612500Y-38500000D03*
D31*
X348937500Y-38500000D03*
X352087500Y-38500000D03*
D19*
X354412500Y-38500000D03*
M02*
