M48
; DRILL file {KiCad 8.0.7} date 2025-01-01T13:30:49+1100
; FORMAT={-:-/ absolute / metric / decimal}
; #@! TF.CreationDate,2025-01-01T13:30:49+11:00
; #@! TF.GenerationSoftware,Kicad,Pcbnew,8.0.7
; #@! TF.FileFunction,Plated,1,2,PTH
FMAT,2
METRIC
; #@! TA.AperFunction,Plated,PTH,ViaDrill
T1C0.400
; #@! TA.AperFunction,Plated,PTH,ComponentDrill
T2C0.700
; #@! TA.AperFunction,Plated,PTH,ComponentDrill
T3C0.750
; #@! TA.AperFunction,Plated,PTH,ComponentDrill
T4C1.000
; #@! TA.AperFunction,Plated,PTH,ComponentDrill
T5C1.092
; #@! TA.AperFunction,Plated,PTH,ComponentDrill
T6C1.500
; #@! TA.AperFunction,Plated,PTH,ComponentDrill
T7C2.200
; #@! TA.AperFunction,Plated,PTH,ComponentDrill
T8C2.800
%
G90
G05
T1
X27.225Y-85.987
X45.987Y-59.987
X69.035Y-36.225
X90.5Y-90.5
X107.0Y-35.5
X145.5Y-34.725
X181.545Y-34.0
X217.5Y-33.0
X253.935Y-22.065
X290.97Y-21.0
X326.5Y-65.655
T2
X45.0Y-64.1
X45.0Y-71.9
X56.1Y-38.5
X58.481Y-114.7
X60.862Y-57.55
X63.244Y-76.6
X63.9Y-38.5
X66.281Y-114.7
X68.006Y-95.65
X68.662Y-57.55
X71.044Y-76.6
X75.15Y-38.5
X75.806Y-95.65
X82.293Y-114.7
X82.95Y-38.5
X84.675Y-57.55
X89.438Y-76.6
X90.093Y-114.7
X92.475Y-57.55
X94.2Y-38.5
X97.238Y-76.6
X98.962Y-95.65
X102.0Y-38.5
X103.725Y-57.55
X106.105Y-114.7
X106.762Y-95.65
X108.488Y-76.6
X111.525Y-57.55
X113.25Y-38.5
X113.905Y-114.7
X116.288Y-76.6
X118.012Y-95.65
X121.05Y-38.5
X122.775Y-57.55
X125.812Y-95.65
X127.538Y-76.6
X130.575Y-57.55
X132.3Y-38.5
X135.338Y-76.6
X137.062Y-95.65
X140.1Y-38.5
X141.825Y-57.55
X144.862Y-95.65
X146.588Y-76.6
X149.625Y-57.55
X151.35Y-38.5
X154.388Y-76.6
X156.112Y-95.65
X159.15Y-38.5
X160.875Y-57.55
X163.912Y-95.65
X165.638Y-76.6
X168.675Y-57.55
X170.4Y-38.5
X173.438Y-76.6
X175.162Y-95.65
X177.542Y-114.7
X178.2Y-38.5
X179.925Y-57.55
X182.962Y-95.65
X184.688Y-76.6
X185.342Y-114.7
X187.725Y-57.55
X189.45Y-38.5
X192.488Y-76.6
X194.212Y-95.65
X197.25Y-38.5
X198.975Y-57.55
X202.012Y-95.65
X203.738Y-76.6
X206.775Y-57.55
X208.5Y-38.5
X211.538Y-76.6
X213.262Y-95.65
X216.3Y-38.5
X218.025Y-57.55
X221.062Y-95.65
X222.788Y-76.6
X225.825Y-57.55
X227.55Y-38.5
X230.588Y-76.6
X232.312Y-95.65
X235.35Y-38.5
X237.075Y-57.55
X240.112Y-95.65
X241.838Y-76.6
X244.875Y-57.55
X246.6Y-38.5
X248.98Y-114.7
X249.638Y-76.6
X251.362Y-95.65
X254.4Y-38.5
X256.125Y-57.55
X256.78Y-114.7
X259.162Y-95.65
X260.888Y-76.6
X263.925Y-57.55
X265.65Y-38.5
X268.688Y-76.6
X270.412Y-95.65
X272.792Y-114.7
X273.45Y-38.5
X275.175Y-57.55
X278.212Y-95.65
X279.938Y-76.6
X280.592Y-114.7
X282.975Y-57.55
X284.7Y-38.5
X287.738Y-76.6
X292.5Y-38.5
X294.225Y-57.55
X296.605Y-114.7
X302.025Y-57.55
X304.405Y-114.7
X306.13Y-95.65
X310.894Y-76.6
X313.275Y-38.5
X313.93Y-95.65
X318.037Y-57.55
X318.694Y-76.6
X321.075Y-38.5
X325.837Y-57.55
X327.561Y-114.7
X335.361Y-114.7
X346.611Y-95.65
X346.611Y-114.7
X346.613Y-38.5
X346.613Y-57.55
X354.411Y-95.65
X354.411Y-114.7
X354.412Y-38.5
X354.412Y-57.55
X365.661Y-114.7
X365.662Y-38.5
X365.662Y-57.55
X373.461Y-114.7
X373.462Y-38.5
X373.462Y-57.55
T3
X32.73Y-57.05
X34.73Y-57.05
T4
X26.5Y-65.5
X26.5Y-68.0
X26.5Y-70.5
X30.19Y-86.5
X32.73Y-86.5
X35.27Y-86.5
X37.81Y-86.5
X41.0Y-65.5
X41.0Y-70.5
X342.537Y-64.29
X342.537Y-66.83
X342.537Y-69.37
X342.537Y-71.91
T5
X26.38Y-20.76
X26.38Y-23.3
X26.38Y-25.84
X26.38Y-28.38
X26.38Y-30.92
X26.38Y-33.46
X26.38Y-36.0
X26.38Y-38.54
X26.38Y-41.08
X26.38Y-43.62
X26.38Y-46.16
X26.38Y-48.7
X26.38Y-51.24
X29.46Y-48.145
X32.0Y-48.145
X34.54Y-48.145
X41.62Y-20.76
X41.62Y-23.3
X41.62Y-25.84
X41.62Y-28.38
X41.62Y-30.92
X41.62Y-33.46
X41.62Y-36.0
X41.62Y-38.54
X41.62Y-41.08
X41.62Y-43.62
X41.62Y-46.16
X41.62Y-48.7
X41.62Y-51.24
T7
X26.5Y-79.0
X41.5Y-79.0
T8
X23.75Y-86.5
X23.75Y-109.5
X44.25Y-86.5
X44.25Y-109.5
T4
X30.55Y-78.95G85X31.45Y-78.95
G05
X33.55Y-79.0G85X34.45Y-79.0
G05
X36.55Y-79.0G85X37.45Y-79.0
G05
T6
X34.65Y-62.4G85X33.35Y-62.4
G05
X33.35Y-73.6G85X34.65Y-73.6
G05
M30
