G04 #@! TF.GenerationSoftware,KiCad,Pcbnew,8.0.7*
G04 #@! TF.CreationDate,2025-01-01T13:35:18+11:00*
G04 #@! TF.ProjectId,Mainpcb,4d61696e-7063-4622-9e6b-696361645f70,rev?*
G04 #@! TF.SameCoordinates,Original*
G04 #@! TF.FileFunction,Paste,Top*
G04 #@! TF.FilePolarity,Positive*
%FSLAX46Y46*%
G04 Gerber Fmt 4.6, Leading zero omitted, Abs format (unit mm)*
G04 Created by KiCad (PCBNEW 8.0.7) date 2025-01-01 13:35:18*
%MOMM*%
%LPD*%
G01*
G04 APERTURE LIST*
%ADD10R,1.600000X1.600000*%
%ADD11R,1.200000X1.200000*%
%ADD12C,1.600000*%
G04 APERTURE END LIST*
D10*
X45000000Y-64100000D03*
D11*
X45000000Y-66425000D03*
X45000000Y-69575000D03*
D12*
X45000000Y-71900000D03*
D10*
X151350000Y-38500000D03*
D12*
X159150000Y-38500000D03*
D10*
X346612500Y-57550000D03*
D12*
X354412500Y-57550000D03*
D10*
X170400000Y-38500000D03*
D12*
X178200000Y-38500000D03*
D10*
X208500000Y-38500000D03*
D12*
X216300000Y-38500000D03*
D10*
X194212450Y-95650000D03*
D12*
X202012450Y-95650000D03*
D10*
X89438135Y-76600000D03*
D12*
X97238135Y-76600000D03*
D10*
X175162450Y-95650000D03*
D12*
X182962450Y-95650000D03*
D10*
X346611090Y-95650000D03*
D12*
X354411090Y-95650000D03*
D10*
X296604590Y-114700000D03*
D12*
X304404590Y-114700000D03*
D10*
X227550000Y-38500000D03*
D12*
X235350000Y-38500000D03*
D10*
X284700000Y-38500000D03*
D12*
X292500000Y-38500000D03*
D10*
X184688135Y-76600000D03*
D12*
X192488135Y-76600000D03*
D10*
X213262450Y-95650000D03*
D12*
X221062450Y-95650000D03*
D10*
X122774920Y-57550000D03*
D12*
X130574920Y-57550000D03*
D10*
X141824920Y-57550000D03*
D12*
X149624920Y-57550000D03*
D10*
X365661090Y-114700000D03*
D12*
X373461090Y-114700000D03*
D10*
X63243750Y-76600000D03*
D12*
X71043750Y-76600000D03*
D10*
X275174920Y-57550000D03*
D12*
X282974920Y-57550000D03*
D10*
X177541590Y-114700000D03*
D12*
X185341590Y-114700000D03*
D10*
X56100000Y-38500000D03*
D12*
X63900000Y-38500000D03*
D10*
X294224920Y-57550000D03*
D12*
X302024920Y-57550000D03*
D10*
X365662500Y-38500000D03*
D12*
X373462500Y-38500000D03*
D10*
X232312450Y-95650000D03*
D12*
X240112450Y-95650000D03*
D10*
X248979590Y-114700000D03*
D12*
X256779590Y-114700000D03*
D10*
X265650000Y-38500000D03*
D12*
X273450000Y-38500000D03*
D10*
X160874920Y-57550000D03*
D12*
X168674920Y-57550000D03*
D10*
X270412450Y-95650000D03*
D12*
X278212450Y-95650000D03*
D10*
X260888135Y-76600000D03*
D12*
X268688135Y-76600000D03*
D10*
X310893635Y-76600000D03*
D12*
X318693635Y-76600000D03*
D10*
X203738135Y-76600000D03*
D12*
X211538135Y-76600000D03*
D10*
X246600000Y-38500000D03*
D12*
X254400000Y-38500000D03*
D10*
X58481250Y-114700000D03*
D12*
X66281250Y-114700000D03*
D10*
X218024920Y-57550000D03*
D12*
X225824920Y-57550000D03*
D10*
X306130450Y-95650000D03*
D12*
X313930450Y-95650000D03*
D10*
X82292995Y-114700000D03*
D12*
X90092995Y-114700000D03*
D10*
X75150000Y-38500000D03*
D12*
X82950000Y-38500000D03*
D10*
X346611090Y-114700000D03*
D12*
X354411090Y-114700000D03*
D10*
X118012450Y-95650000D03*
D12*
X125812450Y-95650000D03*
D10*
X113250000Y-38500000D03*
D12*
X121050000Y-38500000D03*
D10*
X327561090Y-114700000D03*
D12*
X335361090Y-114700000D03*
D10*
X106104740Y-114700000D03*
D12*
X113904740Y-114700000D03*
D10*
X222788135Y-76600000D03*
D12*
X230588135Y-76600000D03*
D10*
X179924920Y-57550000D03*
D12*
X187724920Y-57550000D03*
D10*
X251362450Y-95650000D03*
D12*
X259162450Y-95650000D03*
D10*
X60862500Y-57550000D03*
D12*
X68662500Y-57550000D03*
D10*
X279938135Y-76600000D03*
D12*
X287738135Y-76600000D03*
D10*
X198974920Y-57550000D03*
D12*
X206774920Y-57550000D03*
D10*
X132300000Y-38500000D03*
D12*
X140100000Y-38500000D03*
D10*
X237074920Y-57550000D03*
D12*
X244874920Y-57550000D03*
D10*
X108488135Y-76600000D03*
D12*
X116288135Y-76600000D03*
D10*
X103724920Y-57550000D03*
D12*
X111524920Y-57550000D03*
D10*
X272791590Y-114700000D03*
D12*
X280591590Y-114700000D03*
D10*
X313275000Y-38500000D03*
D12*
X321075000Y-38500000D03*
D10*
X165638135Y-76600000D03*
D12*
X173438135Y-76600000D03*
D10*
X318037420Y-57550000D03*
D12*
X325837420Y-57550000D03*
D10*
X189450000Y-38500000D03*
D12*
X197250000Y-38500000D03*
D10*
X127538135Y-76600000D03*
D12*
X135338135Y-76600000D03*
D10*
X156112450Y-95650000D03*
D12*
X163912450Y-95650000D03*
D10*
X98962450Y-95650000D03*
D12*
X106762450Y-95650000D03*
D10*
X241838135Y-76600000D03*
D12*
X249638135Y-76600000D03*
D10*
X68006250Y-95650000D03*
D12*
X75806250Y-95650000D03*
D10*
X256124920Y-57550000D03*
D12*
X263924920Y-57550000D03*
D10*
X146588135Y-76600000D03*
D12*
X154388135Y-76600000D03*
D10*
X365662500Y-57550000D03*
D12*
X373462500Y-57550000D03*
D10*
X94200000Y-38500000D03*
D12*
X102000000Y-38500000D03*
D10*
X84674920Y-57550000D03*
D12*
X92474920Y-57550000D03*
D10*
X137062450Y-95650000D03*
D12*
X144862450Y-95650000D03*
D10*
X346612500Y-38500000D03*
D12*
X354412500Y-38500000D03*
M02*
