G04 #@! TF.GenerationSoftware,KiCad,Pcbnew,8.0.7*
G04 #@! TF.CreationDate,2025-01-01T21:32:49+11:00*
G04 #@! TF.ProjectId,Mainpcb,4d61696e-7063-4622-9e6b-696361645f70,rev?*
G04 #@! TF.SameCoordinates,Original*
G04 #@! TF.FileFunction,Legend,Top*
G04 #@! TF.FilePolarity,Positive*
%FSLAX46Y46*%
G04 Gerber Fmt 4.6, Leading zero omitted, Abs format (unit mm)*
G04 Created by KiCad (PCBNEW 8.0.7) date 2025-01-01 21:32:49*
%MOMM*%
%LPD*%
G01*
G04 APERTURE LIST*
G04 Aperture macros list*
%AMRoundRect*
0 Rectangle with rounded corners*
0 $1 Rounding radius*
0 $2 $3 $4 $5 $6 $7 $8 $9 X,Y pos of 4 corners*
0 Add a 4 corners polygon primitive as box body*
4,1,4,$2,$3,$4,$5,$6,$7,$8,$9,$2,$3,0*
0 Add four circle primitives for the rounded corners*
1,1,$1+$1,$2,$3*
1,1,$1+$1,$4,$5*
1,1,$1+$1,$6,$7*
1,1,$1+$1,$8,$9*
0 Add four rect primitives between the rounded corners*
20,1,$1+$1,$2,$3,$4,$5,0*
20,1,$1+$1,$4,$5,$6,$7,0*
20,1,$1+$1,$6,$7,$8,$9,0*
20,1,$1+$1,$8,$9,$2,$3,0*%
G04 Aperture macros list end*
%ADD10C,0.150000*%
%ADD11C,0.120000*%
%ADD12C,0.254000*%
%ADD13C,0.200000*%
%ADD14RoundRect,0.250000X0.337500X0.475000X-0.337500X0.475000X-0.337500X-0.475000X0.337500X-0.475000X0*%
%ADD15RoundRect,0.250000X-0.475000X0.337500X-0.475000X-0.337500X0.475000X-0.337500X0.475000X0.337500X0*%
%ADD16C,2.200000*%
%ADD17R,1.752600X1.752600*%
%ADD18C,1.752600*%
%ADD19R,3.200000X2.000000*%
%ADD20R,2.000000X2.000000*%
%ADD21C,2.000000*%
%ADD22C,3.000000*%
%ADD23C,2.500000*%
%ADD24C,1.701800*%
%ADD25C,3.987800*%
%ADD26R,1.600000X1.600000*%
%ADD27R,1.200000X1.200000*%
%ADD28C,1.600000*%
%ADD29C,5.300000*%
%ADD30C,3.048000*%
%ADD31RoundRect,0.250000X-0.350000X-0.625000X0.350000X-0.625000X0.350000X0.625000X-0.350000X0.625000X0*%
%ADD32O,1.200000X1.750000*%
%ADD33C,3.500000*%
%ADD34R,1.700000X1.700000*%
%ADD35O,1.700000X1.700000*%
G04 APERTURE END LIST*
D10*
X26333333Y-83859580D02*
X26285714Y-83907200D01*
X26285714Y-83907200D02*
X26142857Y-83954819D01*
X26142857Y-83954819D02*
X26047619Y-83954819D01*
X26047619Y-83954819D02*
X25904762Y-83907200D01*
X25904762Y-83907200D02*
X25809524Y-83811961D01*
X25809524Y-83811961D02*
X25761905Y-83716723D01*
X25761905Y-83716723D02*
X25714286Y-83526247D01*
X25714286Y-83526247D02*
X25714286Y-83383390D01*
X25714286Y-83383390D02*
X25761905Y-83192914D01*
X25761905Y-83192914D02*
X25809524Y-83097676D01*
X25809524Y-83097676D02*
X25904762Y-83002438D01*
X25904762Y-83002438D02*
X26047619Y-82954819D01*
X26047619Y-82954819D02*
X26142857Y-82954819D01*
X26142857Y-82954819D02*
X26285714Y-83002438D01*
X26285714Y-83002438D02*
X26333333Y-83050057D01*
X26714286Y-83050057D02*
X26761905Y-83002438D01*
X26761905Y-83002438D02*
X26857143Y-82954819D01*
X26857143Y-82954819D02*
X27095238Y-82954819D01*
X27095238Y-82954819D02*
X27190476Y-83002438D01*
X27190476Y-83002438D02*
X27238095Y-83050057D01*
X27238095Y-83050057D02*
X27285714Y-83145295D01*
X27285714Y-83145295D02*
X27285714Y-83240533D01*
X27285714Y-83240533D02*
X27238095Y-83383390D01*
X27238095Y-83383390D02*
X26666667Y-83954819D01*
X26666667Y-83954819D02*
X27285714Y-83954819D01*
X339359580Y-70704166D02*
X339407200Y-70751785D01*
X339407200Y-70751785D02*
X339454819Y-70894642D01*
X339454819Y-70894642D02*
X339454819Y-70989880D01*
X339454819Y-70989880D02*
X339407200Y-71132737D01*
X339407200Y-71132737D02*
X339311961Y-71227975D01*
X339311961Y-71227975D02*
X339216723Y-71275594D01*
X339216723Y-71275594D02*
X339026247Y-71323213D01*
X339026247Y-71323213D02*
X338883390Y-71323213D01*
X338883390Y-71323213D02*
X338692914Y-71275594D01*
X338692914Y-71275594D02*
X338597676Y-71227975D01*
X338597676Y-71227975D02*
X338502438Y-71132737D01*
X338502438Y-71132737D02*
X338454819Y-70989880D01*
X338454819Y-70989880D02*
X338454819Y-70894642D01*
X338454819Y-70894642D02*
X338502438Y-70751785D01*
X338502438Y-70751785D02*
X338550057Y-70704166D01*
X339454819Y-69751785D02*
X339454819Y-70323213D01*
X339454819Y-70037499D02*
X338454819Y-70037499D01*
X338454819Y-70037499D02*
X338597676Y-70132737D01*
X338597676Y-70132737D02*
X338692914Y-70227975D01*
X338692914Y-70227975D02*
X338740533Y-70323213D01*
X336261905Y-35754819D02*
X336261905Y-34754819D01*
X336261905Y-35231009D02*
X336833333Y-35231009D01*
X336833333Y-35754819D02*
X336833333Y-34754819D01*
X337261905Y-34850057D02*
X337309524Y-34802438D01*
X337309524Y-34802438D02*
X337404762Y-34754819D01*
X337404762Y-34754819D02*
X337642857Y-34754819D01*
X337642857Y-34754819D02*
X337738095Y-34802438D01*
X337738095Y-34802438D02*
X337785714Y-34850057D01*
X337785714Y-34850057D02*
X337833333Y-34945295D01*
X337833333Y-34945295D02*
X337833333Y-35040533D01*
X337833333Y-35040533D02*
X337785714Y-35183390D01*
X337785714Y-35183390D02*
X337214286Y-35754819D01*
X337214286Y-35754819D02*
X337833333Y-35754819D01*
X338214286Y-34850057D02*
X338261905Y-34802438D01*
X338261905Y-34802438D02*
X338357143Y-34754819D01*
X338357143Y-34754819D02*
X338595238Y-34754819D01*
X338595238Y-34754819D02*
X338690476Y-34802438D01*
X338690476Y-34802438D02*
X338738095Y-34850057D01*
X338738095Y-34850057D02*
X338785714Y-34945295D01*
X338785714Y-34945295D02*
X338785714Y-35040533D01*
X338785714Y-35040533D02*
X338738095Y-35183390D01*
X338738095Y-35183390D02*
X338166667Y-35754819D01*
X338166667Y-35754819D02*
X338785714Y-35754819D01*
X336261905Y-73854819D02*
X336261905Y-72854819D01*
X336261905Y-73331009D02*
X336833333Y-73331009D01*
X336833333Y-73854819D02*
X336833333Y-72854819D01*
X337261905Y-72950057D02*
X337309524Y-72902438D01*
X337309524Y-72902438D02*
X337404762Y-72854819D01*
X337404762Y-72854819D02*
X337642857Y-72854819D01*
X337642857Y-72854819D02*
X337738095Y-72902438D01*
X337738095Y-72902438D02*
X337785714Y-72950057D01*
X337785714Y-72950057D02*
X337833333Y-73045295D01*
X337833333Y-73045295D02*
X337833333Y-73140533D01*
X337833333Y-73140533D02*
X337785714Y-73283390D01*
X337785714Y-73283390D02*
X337214286Y-73854819D01*
X337214286Y-73854819D02*
X337833333Y-73854819D01*
X338785714Y-73854819D02*
X338214286Y-73854819D01*
X338500000Y-73854819D02*
X338500000Y-72854819D01*
X338500000Y-72854819D02*
X338404762Y-72997676D01*
X338404762Y-72997676D02*
X338309524Y-73092914D01*
X338309524Y-73092914D02*
X338214286Y-73140533D01*
X21761905Y-22844819D02*
X21857143Y-22844819D01*
X21857143Y-22844819D02*
X21952381Y-22892438D01*
X21952381Y-22892438D02*
X22000000Y-22940057D01*
X22000000Y-22940057D02*
X22047619Y-23035295D01*
X22047619Y-23035295D02*
X22095238Y-23225771D01*
X22095238Y-23225771D02*
X22095238Y-23463866D01*
X22095238Y-23463866D02*
X22047619Y-23654342D01*
X22047619Y-23654342D02*
X22000000Y-23749580D01*
X22000000Y-23749580D02*
X21952381Y-23797200D01*
X21952381Y-23797200D02*
X21857143Y-23844819D01*
X21857143Y-23844819D02*
X21761905Y-23844819D01*
X21761905Y-23844819D02*
X21666667Y-23797200D01*
X21666667Y-23797200D02*
X21619048Y-23749580D01*
X21619048Y-23749580D02*
X21571429Y-23654342D01*
X21571429Y-23654342D02*
X21523810Y-23463866D01*
X21523810Y-23463866D02*
X21523810Y-23225771D01*
X21523810Y-23225771D02*
X21571429Y-23035295D01*
X21571429Y-23035295D02*
X21619048Y-22940057D01*
X21619048Y-22940057D02*
X21666667Y-22892438D01*
X21666667Y-22892438D02*
X21761905Y-22844819D01*
X22523810Y-23749580D02*
X22571429Y-23797200D01*
X22571429Y-23797200D02*
X22523810Y-23844819D01*
X22523810Y-23844819D02*
X22476191Y-23797200D01*
X22476191Y-23797200D02*
X22523810Y-23749580D01*
X22523810Y-23749580D02*
X22523810Y-23844819D01*
X23190476Y-22844819D02*
X23285714Y-22844819D01*
X23285714Y-22844819D02*
X23380952Y-22892438D01*
X23380952Y-22892438D02*
X23428571Y-22940057D01*
X23428571Y-22940057D02*
X23476190Y-23035295D01*
X23476190Y-23035295D02*
X23523809Y-23225771D01*
X23523809Y-23225771D02*
X23523809Y-23463866D01*
X23523809Y-23463866D02*
X23476190Y-23654342D01*
X23476190Y-23654342D02*
X23428571Y-23749580D01*
X23428571Y-23749580D02*
X23380952Y-23797200D01*
X23380952Y-23797200D02*
X23285714Y-23844819D01*
X23285714Y-23844819D02*
X23190476Y-23844819D01*
X23190476Y-23844819D02*
X23095238Y-23797200D01*
X23095238Y-23797200D02*
X23047619Y-23749580D01*
X23047619Y-23749580D02*
X23000000Y-23654342D01*
X23000000Y-23654342D02*
X22952381Y-23463866D01*
X22952381Y-23463866D02*
X22952381Y-23225771D01*
X22952381Y-23225771D02*
X23000000Y-23035295D01*
X23000000Y-23035295D02*
X23047619Y-22940057D01*
X23047619Y-22940057D02*
X23095238Y-22892438D01*
X23095238Y-22892438D02*
X23190476Y-22844819D01*
X24380952Y-22844819D02*
X24190476Y-22844819D01*
X24190476Y-22844819D02*
X24095238Y-22892438D01*
X24095238Y-22892438D02*
X24047619Y-22940057D01*
X24047619Y-22940057D02*
X23952381Y-23082914D01*
X23952381Y-23082914D02*
X23904762Y-23273390D01*
X23904762Y-23273390D02*
X23904762Y-23654342D01*
X23904762Y-23654342D02*
X23952381Y-23749580D01*
X23952381Y-23749580D02*
X24000000Y-23797200D01*
X24000000Y-23797200D02*
X24095238Y-23844819D01*
X24095238Y-23844819D02*
X24285714Y-23844819D01*
X24285714Y-23844819D02*
X24380952Y-23797200D01*
X24380952Y-23797200D02*
X24428571Y-23749580D01*
X24428571Y-23749580D02*
X24476190Y-23654342D01*
X24476190Y-23654342D02*
X24476190Y-23416247D01*
X24476190Y-23416247D02*
X24428571Y-23321009D01*
X24428571Y-23321009D02*
X24380952Y-23273390D01*
X24380952Y-23273390D02*
X24285714Y-23225771D01*
X24285714Y-23225771D02*
X24095238Y-23225771D01*
X24095238Y-23225771D02*
X24000000Y-23273390D01*
X24000000Y-23273390D02*
X23952381Y-23321009D01*
X23952381Y-23321009D02*
X23904762Y-23416247D01*
X44238095Y-25382438D02*
X44142857Y-25334819D01*
X44142857Y-25334819D02*
X44000000Y-25334819D01*
X44000000Y-25334819D02*
X43857143Y-25382438D01*
X43857143Y-25382438D02*
X43761905Y-25477676D01*
X43761905Y-25477676D02*
X43714286Y-25572914D01*
X43714286Y-25572914D02*
X43666667Y-25763390D01*
X43666667Y-25763390D02*
X43666667Y-25906247D01*
X43666667Y-25906247D02*
X43714286Y-26096723D01*
X43714286Y-26096723D02*
X43761905Y-26191961D01*
X43761905Y-26191961D02*
X43857143Y-26287200D01*
X43857143Y-26287200D02*
X44000000Y-26334819D01*
X44000000Y-26334819D02*
X44095238Y-26334819D01*
X44095238Y-26334819D02*
X44238095Y-26287200D01*
X44238095Y-26287200D02*
X44285714Y-26239580D01*
X44285714Y-26239580D02*
X44285714Y-25906247D01*
X44285714Y-25906247D02*
X44095238Y-25906247D01*
X44714286Y-26334819D02*
X44714286Y-25334819D01*
X44714286Y-25334819D02*
X45285714Y-26334819D01*
X45285714Y-26334819D02*
X45285714Y-25334819D01*
X45761905Y-26334819D02*
X45761905Y-25334819D01*
X45761905Y-25334819D02*
X46000000Y-25334819D01*
X46000000Y-25334819D02*
X46142857Y-25382438D01*
X46142857Y-25382438D02*
X46238095Y-25477676D01*
X46238095Y-25477676D02*
X46285714Y-25572914D01*
X46285714Y-25572914D02*
X46333333Y-25763390D01*
X46333333Y-25763390D02*
X46333333Y-25906247D01*
X46333333Y-25906247D02*
X46285714Y-26096723D01*
X46285714Y-26096723D02*
X46238095Y-26191961D01*
X46238095Y-26191961D02*
X46142857Y-26287200D01*
X46142857Y-26287200D02*
X46000000Y-26334819D01*
X46000000Y-26334819D02*
X45761905Y-26334819D01*
X21761905Y-33006182D02*
X21857143Y-33006182D01*
X21857143Y-33006182D02*
X21952381Y-33053801D01*
X21952381Y-33053801D02*
X22000000Y-33101420D01*
X22000000Y-33101420D02*
X22047619Y-33196658D01*
X22047619Y-33196658D02*
X22095238Y-33387134D01*
X22095238Y-33387134D02*
X22095238Y-33625229D01*
X22095238Y-33625229D02*
X22047619Y-33815705D01*
X22047619Y-33815705D02*
X22000000Y-33910943D01*
X22000000Y-33910943D02*
X21952381Y-33958563D01*
X21952381Y-33958563D02*
X21857143Y-34006182D01*
X21857143Y-34006182D02*
X21761905Y-34006182D01*
X21761905Y-34006182D02*
X21666667Y-33958563D01*
X21666667Y-33958563D02*
X21619048Y-33910943D01*
X21619048Y-33910943D02*
X21571429Y-33815705D01*
X21571429Y-33815705D02*
X21523810Y-33625229D01*
X21523810Y-33625229D02*
X21523810Y-33387134D01*
X21523810Y-33387134D02*
X21571429Y-33196658D01*
X21571429Y-33196658D02*
X21619048Y-33101420D01*
X21619048Y-33101420D02*
X21666667Y-33053801D01*
X21666667Y-33053801D02*
X21761905Y-33006182D01*
X22523810Y-33910943D02*
X22571429Y-33958563D01*
X22571429Y-33958563D02*
X22523810Y-34006182D01*
X22523810Y-34006182D02*
X22476191Y-33958563D01*
X22476191Y-33958563D02*
X22523810Y-33910943D01*
X22523810Y-33910943D02*
X22523810Y-34006182D01*
X23523809Y-34006182D02*
X22952381Y-34006182D01*
X23238095Y-34006182D02*
X23238095Y-33006182D01*
X23238095Y-33006182D02*
X23142857Y-33149039D01*
X23142857Y-33149039D02*
X23047619Y-33244277D01*
X23047619Y-33244277D02*
X22952381Y-33291896D01*
X23857143Y-33006182D02*
X24523809Y-33006182D01*
X24523809Y-33006182D02*
X24095238Y-34006182D01*
X21761905Y-38086182D02*
X21857143Y-38086182D01*
X21857143Y-38086182D02*
X21952381Y-38133801D01*
X21952381Y-38133801D02*
X22000000Y-38181420D01*
X22000000Y-38181420D02*
X22047619Y-38276658D01*
X22047619Y-38276658D02*
X22095238Y-38467134D01*
X22095238Y-38467134D02*
X22095238Y-38705229D01*
X22095238Y-38705229D02*
X22047619Y-38895705D01*
X22047619Y-38895705D02*
X22000000Y-38990943D01*
X22000000Y-38990943D02*
X21952381Y-39038563D01*
X21952381Y-39038563D02*
X21857143Y-39086182D01*
X21857143Y-39086182D02*
X21761905Y-39086182D01*
X21761905Y-39086182D02*
X21666667Y-39038563D01*
X21666667Y-39038563D02*
X21619048Y-38990943D01*
X21619048Y-38990943D02*
X21571429Y-38895705D01*
X21571429Y-38895705D02*
X21523810Y-38705229D01*
X21523810Y-38705229D02*
X21523810Y-38467134D01*
X21523810Y-38467134D02*
X21571429Y-38276658D01*
X21571429Y-38276658D02*
X21619048Y-38181420D01*
X21619048Y-38181420D02*
X21666667Y-38133801D01*
X21666667Y-38133801D02*
X21761905Y-38086182D01*
X22523810Y-38990943D02*
X22571429Y-39038563D01*
X22571429Y-39038563D02*
X22523810Y-39086182D01*
X22523810Y-39086182D02*
X22476191Y-39038563D01*
X22476191Y-39038563D02*
X22523810Y-38990943D01*
X22523810Y-38990943D02*
X22523810Y-39086182D01*
X22952381Y-38181420D02*
X23000000Y-38133801D01*
X23000000Y-38133801D02*
X23095238Y-38086182D01*
X23095238Y-38086182D02*
X23333333Y-38086182D01*
X23333333Y-38086182D02*
X23428571Y-38133801D01*
X23428571Y-38133801D02*
X23476190Y-38181420D01*
X23476190Y-38181420D02*
X23523809Y-38276658D01*
X23523809Y-38276658D02*
X23523809Y-38371896D01*
X23523809Y-38371896D02*
X23476190Y-38514753D01*
X23476190Y-38514753D02*
X22904762Y-39086182D01*
X22904762Y-39086182D02*
X23523809Y-39086182D01*
X23904762Y-38181420D02*
X23952381Y-38133801D01*
X23952381Y-38133801D02*
X24047619Y-38086182D01*
X24047619Y-38086182D02*
X24285714Y-38086182D01*
X24285714Y-38086182D02*
X24380952Y-38133801D01*
X24380952Y-38133801D02*
X24428571Y-38181420D01*
X24428571Y-38181420D02*
X24476190Y-38276658D01*
X24476190Y-38276658D02*
X24476190Y-38371896D01*
X24476190Y-38371896D02*
X24428571Y-38514753D01*
X24428571Y-38514753D02*
X23857143Y-39086182D01*
X23857143Y-39086182D02*
X24476190Y-39086182D01*
X43761905Y-32954819D02*
X43857143Y-32954819D01*
X43857143Y-32954819D02*
X43952381Y-33002438D01*
X43952381Y-33002438D02*
X44000000Y-33050057D01*
X44000000Y-33050057D02*
X44047619Y-33145295D01*
X44047619Y-33145295D02*
X44095238Y-33335771D01*
X44095238Y-33335771D02*
X44095238Y-33573866D01*
X44095238Y-33573866D02*
X44047619Y-33764342D01*
X44047619Y-33764342D02*
X44000000Y-33859580D01*
X44000000Y-33859580D02*
X43952381Y-33907200D01*
X43952381Y-33907200D02*
X43857143Y-33954819D01*
X43857143Y-33954819D02*
X43761905Y-33954819D01*
X43761905Y-33954819D02*
X43666667Y-33907200D01*
X43666667Y-33907200D02*
X43619048Y-33859580D01*
X43619048Y-33859580D02*
X43571429Y-33764342D01*
X43571429Y-33764342D02*
X43523810Y-33573866D01*
X43523810Y-33573866D02*
X43523810Y-33335771D01*
X43523810Y-33335771D02*
X43571429Y-33145295D01*
X43571429Y-33145295D02*
X43619048Y-33050057D01*
X43619048Y-33050057D02*
X43666667Y-33002438D01*
X43666667Y-33002438D02*
X43761905Y-32954819D01*
X44523810Y-33859580D02*
X44571429Y-33907200D01*
X44571429Y-33907200D02*
X44523810Y-33954819D01*
X44523810Y-33954819D02*
X44476191Y-33907200D01*
X44476191Y-33907200D02*
X44523810Y-33859580D01*
X44523810Y-33859580D02*
X44523810Y-33954819D01*
X44904762Y-32954819D02*
X45523809Y-32954819D01*
X45523809Y-32954819D02*
X45190476Y-33335771D01*
X45190476Y-33335771D02*
X45333333Y-33335771D01*
X45333333Y-33335771D02*
X45428571Y-33383390D01*
X45428571Y-33383390D02*
X45476190Y-33431009D01*
X45476190Y-33431009D02*
X45523809Y-33526247D01*
X45523809Y-33526247D02*
X45523809Y-33764342D01*
X45523809Y-33764342D02*
X45476190Y-33859580D01*
X45476190Y-33859580D02*
X45428571Y-33907200D01*
X45428571Y-33907200D02*
X45333333Y-33954819D01*
X45333333Y-33954819D02*
X45047619Y-33954819D01*
X45047619Y-33954819D02*
X44952381Y-33907200D01*
X44952381Y-33907200D02*
X44904762Y-33859580D01*
X46476190Y-33954819D02*
X45904762Y-33954819D01*
X46190476Y-33954819D02*
X46190476Y-32954819D01*
X46190476Y-32954819D02*
X46095238Y-33097676D01*
X46095238Y-33097676D02*
X46000000Y-33192914D01*
X46000000Y-33192914D02*
X45904762Y-33240533D01*
X21761905Y-40626182D02*
X21857143Y-40626182D01*
X21857143Y-40626182D02*
X21952381Y-40673801D01*
X21952381Y-40673801D02*
X22000000Y-40721420D01*
X22000000Y-40721420D02*
X22047619Y-40816658D01*
X22047619Y-40816658D02*
X22095238Y-41007134D01*
X22095238Y-41007134D02*
X22095238Y-41245229D01*
X22095238Y-41245229D02*
X22047619Y-41435705D01*
X22047619Y-41435705D02*
X22000000Y-41530943D01*
X22000000Y-41530943D02*
X21952381Y-41578563D01*
X21952381Y-41578563D02*
X21857143Y-41626182D01*
X21857143Y-41626182D02*
X21761905Y-41626182D01*
X21761905Y-41626182D02*
X21666667Y-41578563D01*
X21666667Y-41578563D02*
X21619048Y-41530943D01*
X21619048Y-41530943D02*
X21571429Y-41435705D01*
X21571429Y-41435705D02*
X21523810Y-41245229D01*
X21523810Y-41245229D02*
X21523810Y-41007134D01*
X21523810Y-41007134D02*
X21571429Y-40816658D01*
X21571429Y-40816658D02*
X21619048Y-40721420D01*
X21619048Y-40721420D02*
X21666667Y-40673801D01*
X21666667Y-40673801D02*
X21761905Y-40626182D01*
X22523810Y-41530943D02*
X22571429Y-41578563D01*
X22571429Y-41578563D02*
X22523810Y-41626182D01*
X22523810Y-41626182D02*
X22476191Y-41578563D01*
X22476191Y-41578563D02*
X22523810Y-41530943D01*
X22523810Y-41530943D02*
X22523810Y-41626182D01*
X22952381Y-40721420D02*
X23000000Y-40673801D01*
X23000000Y-40673801D02*
X23095238Y-40626182D01*
X23095238Y-40626182D02*
X23333333Y-40626182D01*
X23333333Y-40626182D02*
X23428571Y-40673801D01*
X23428571Y-40673801D02*
X23476190Y-40721420D01*
X23476190Y-40721420D02*
X23523809Y-40816658D01*
X23523809Y-40816658D02*
X23523809Y-40911896D01*
X23523809Y-40911896D02*
X23476190Y-41054753D01*
X23476190Y-41054753D02*
X22904762Y-41626182D01*
X22904762Y-41626182D02*
X23523809Y-41626182D01*
X24380952Y-40959515D02*
X24380952Y-41626182D01*
X24142857Y-40578563D02*
X23904762Y-41292848D01*
X23904762Y-41292848D02*
X24523809Y-41292848D01*
X44095238Y-41574819D02*
X43523810Y-41574819D01*
X43809524Y-41574819D02*
X43809524Y-40574819D01*
X43809524Y-40574819D02*
X43714286Y-40717676D01*
X43714286Y-40717676D02*
X43619048Y-40812914D01*
X43619048Y-40812914D02*
X43523810Y-40860533D01*
X44523810Y-41479580D02*
X44571429Y-41527200D01*
X44571429Y-41527200D02*
X44523810Y-41574819D01*
X44523810Y-41574819D02*
X44476191Y-41527200D01*
X44476191Y-41527200D02*
X44523810Y-41479580D01*
X44523810Y-41479580D02*
X44523810Y-41574819D01*
X45523809Y-41574819D02*
X44952381Y-41574819D01*
X45238095Y-41574819D02*
X45238095Y-40574819D01*
X45238095Y-40574819D02*
X45142857Y-40717676D01*
X45142857Y-40717676D02*
X45047619Y-40812914D01*
X45047619Y-40812914D02*
X44952381Y-40860533D01*
X46428571Y-40574819D02*
X45952381Y-40574819D01*
X45952381Y-40574819D02*
X45904762Y-41051009D01*
X45904762Y-41051009D02*
X45952381Y-41003390D01*
X45952381Y-41003390D02*
X46047619Y-40955771D01*
X46047619Y-40955771D02*
X46285714Y-40955771D01*
X46285714Y-40955771D02*
X46380952Y-41003390D01*
X46380952Y-41003390D02*
X46428571Y-41051009D01*
X46428571Y-41051009D02*
X46476190Y-41146247D01*
X46476190Y-41146247D02*
X46476190Y-41384342D01*
X46476190Y-41384342D02*
X46428571Y-41479580D01*
X46428571Y-41479580D02*
X46380952Y-41527200D01*
X46380952Y-41527200D02*
X46285714Y-41574819D01*
X46285714Y-41574819D02*
X46047619Y-41574819D01*
X46047619Y-41574819D02*
X45952381Y-41527200D01*
X45952381Y-41527200D02*
X45904762Y-41479580D01*
X28952381Y-20671009D02*
X29095238Y-20718628D01*
X29095238Y-20718628D02*
X29142857Y-20766247D01*
X29142857Y-20766247D02*
X29190476Y-20861485D01*
X29190476Y-20861485D02*
X29190476Y-21004342D01*
X29190476Y-21004342D02*
X29142857Y-21099580D01*
X29142857Y-21099580D02*
X29095238Y-21147200D01*
X29095238Y-21147200D02*
X29000000Y-21194819D01*
X29000000Y-21194819D02*
X28619048Y-21194819D01*
X28619048Y-21194819D02*
X28619048Y-20194819D01*
X28619048Y-20194819D02*
X28952381Y-20194819D01*
X28952381Y-20194819D02*
X29047619Y-20242438D01*
X29047619Y-20242438D02*
X29095238Y-20290057D01*
X29095238Y-20290057D02*
X29142857Y-20385295D01*
X29142857Y-20385295D02*
X29142857Y-20480533D01*
X29142857Y-20480533D02*
X29095238Y-20575771D01*
X29095238Y-20575771D02*
X29047619Y-20623390D01*
X29047619Y-20623390D02*
X28952381Y-20671009D01*
X28952381Y-20671009D02*
X28619048Y-20671009D01*
X29619048Y-20813866D02*
X30380953Y-20813866D01*
X43761905Y-35494819D02*
X43857143Y-35494819D01*
X43857143Y-35494819D02*
X43952381Y-35542438D01*
X43952381Y-35542438D02*
X44000000Y-35590057D01*
X44000000Y-35590057D02*
X44047619Y-35685295D01*
X44047619Y-35685295D02*
X44095238Y-35875771D01*
X44095238Y-35875771D02*
X44095238Y-36113866D01*
X44095238Y-36113866D02*
X44047619Y-36304342D01*
X44047619Y-36304342D02*
X44000000Y-36399580D01*
X44000000Y-36399580D02*
X43952381Y-36447200D01*
X43952381Y-36447200D02*
X43857143Y-36494819D01*
X43857143Y-36494819D02*
X43761905Y-36494819D01*
X43761905Y-36494819D02*
X43666667Y-36447200D01*
X43666667Y-36447200D02*
X43619048Y-36399580D01*
X43619048Y-36399580D02*
X43571429Y-36304342D01*
X43571429Y-36304342D02*
X43523810Y-36113866D01*
X43523810Y-36113866D02*
X43523810Y-35875771D01*
X43523810Y-35875771D02*
X43571429Y-35685295D01*
X43571429Y-35685295D02*
X43619048Y-35590057D01*
X43619048Y-35590057D02*
X43666667Y-35542438D01*
X43666667Y-35542438D02*
X43761905Y-35494819D01*
X44523810Y-36399580D02*
X44571429Y-36447200D01*
X44571429Y-36447200D02*
X44523810Y-36494819D01*
X44523810Y-36494819D02*
X44476191Y-36447200D01*
X44476191Y-36447200D02*
X44523810Y-36399580D01*
X44523810Y-36399580D02*
X44523810Y-36494819D01*
X44952381Y-35590057D02*
X45000000Y-35542438D01*
X45000000Y-35542438D02*
X45095238Y-35494819D01*
X45095238Y-35494819D02*
X45333333Y-35494819D01*
X45333333Y-35494819D02*
X45428571Y-35542438D01*
X45428571Y-35542438D02*
X45476190Y-35590057D01*
X45476190Y-35590057D02*
X45523809Y-35685295D01*
X45523809Y-35685295D02*
X45523809Y-35780533D01*
X45523809Y-35780533D02*
X45476190Y-35923390D01*
X45476190Y-35923390D02*
X44904762Y-36494819D01*
X44904762Y-36494819D02*
X45523809Y-36494819D01*
X46000000Y-36494819D02*
X46190476Y-36494819D01*
X46190476Y-36494819D02*
X46285714Y-36447200D01*
X46285714Y-36447200D02*
X46333333Y-36399580D01*
X46333333Y-36399580D02*
X46428571Y-36256723D01*
X46428571Y-36256723D02*
X46476190Y-36066247D01*
X46476190Y-36066247D02*
X46476190Y-35685295D01*
X46476190Y-35685295D02*
X46428571Y-35590057D01*
X46428571Y-35590057D02*
X46380952Y-35542438D01*
X46380952Y-35542438D02*
X46285714Y-35494819D01*
X46285714Y-35494819D02*
X46095238Y-35494819D01*
X46095238Y-35494819D02*
X46000000Y-35542438D01*
X46000000Y-35542438D02*
X45952381Y-35590057D01*
X45952381Y-35590057D02*
X45904762Y-35685295D01*
X45904762Y-35685295D02*
X45904762Y-35923390D01*
X45904762Y-35923390D02*
X45952381Y-36018628D01*
X45952381Y-36018628D02*
X46000000Y-36066247D01*
X46000000Y-36066247D02*
X46095238Y-36113866D01*
X46095238Y-36113866D02*
X46285714Y-36113866D01*
X46285714Y-36113866D02*
X46380952Y-36066247D01*
X46380952Y-36066247D02*
X46428571Y-36018628D01*
X46428571Y-36018628D02*
X46476190Y-35923390D01*
X43761905Y-38034819D02*
X43857143Y-38034819D01*
X43857143Y-38034819D02*
X43952381Y-38082438D01*
X43952381Y-38082438D02*
X44000000Y-38130057D01*
X44000000Y-38130057D02*
X44047619Y-38225295D01*
X44047619Y-38225295D02*
X44095238Y-38415771D01*
X44095238Y-38415771D02*
X44095238Y-38653866D01*
X44095238Y-38653866D02*
X44047619Y-38844342D01*
X44047619Y-38844342D02*
X44000000Y-38939580D01*
X44000000Y-38939580D02*
X43952381Y-38987200D01*
X43952381Y-38987200D02*
X43857143Y-39034819D01*
X43857143Y-39034819D02*
X43761905Y-39034819D01*
X43761905Y-39034819D02*
X43666667Y-38987200D01*
X43666667Y-38987200D02*
X43619048Y-38939580D01*
X43619048Y-38939580D02*
X43571429Y-38844342D01*
X43571429Y-38844342D02*
X43523810Y-38653866D01*
X43523810Y-38653866D02*
X43523810Y-38415771D01*
X43523810Y-38415771D02*
X43571429Y-38225295D01*
X43571429Y-38225295D02*
X43619048Y-38130057D01*
X43619048Y-38130057D02*
X43666667Y-38082438D01*
X43666667Y-38082438D02*
X43761905Y-38034819D01*
X44523810Y-38939580D02*
X44571429Y-38987200D01*
X44571429Y-38987200D02*
X44523810Y-39034819D01*
X44523810Y-39034819D02*
X44476191Y-38987200D01*
X44476191Y-38987200D02*
X44523810Y-38939580D01*
X44523810Y-38939580D02*
X44523810Y-39034819D01*
X45190476Y-38034819D02*
X45285714Y-38034819D01*
X45285714Y-38034819D02*
X45380952Y-38082438D01*
X45380952Y-38082438D02*
X45428571Y-38130057D01*
X45428571Y-38130057D02*
X45476190Y-38225295D01*
X45476190Y-38225295D02*
X45523809Y-38415771D01*
X45523809Y-38415771D02*
X45523809Y-38653866D01*
X45523809Y-38653866D02*
X45476190Y-38844342D01*
X45476190Y-38844342D02*
X45428571Y-38939580D01*
X45428571Y-38939580D02*
X45380952Y-38987200D01*
X45380952Y-38987200D02*
X45285714Y-39034819D01*
X45285714Y-39034819D02*
X45190476Y-39034819D01*
X45190476Y-39034819D02*
X45095238Y-38987200D01*
X45095238Y-38987200D02*
X45047619Y-38939580D01*
X45047619Y-38939580D02*
X45000000Y-38844342D01*
X45000000Y-38844342D02*
X44952381Y-38653866D01*
X44952381Y-38653866D02*
X44952381Y-38415771D01*
X44952381Y-38415771D02*
X45000000Y-38225295D01*
X45000000Y-38225295D02*
X45047619Y-38130057D01*
X45047619Y-38130057D02*
X45095238Y-38082438D01*
X45095238Y-38082438D02*
X45190476Y-38034819D01*
X45904762Y-38130057D02*
X45952381Y-38082438D01*
X45952381Y-38082438D02*
X46047619Y-38034819D01*
X46047619Y-38034819D02*
X46285714Y-38034819D01*
X46285714Y-38034819D02*
X46380952Y-38082438D01*
X46380952Y-38082438D02*
X46428571Y-38130057D01*
X46428571Y-38130057D02*
X46476190Y-38225295D01*
X46476190Y-38225295D02*
X46476190Y-38320533D01*
X46476190Y-38320533D02*
X46428571Y-38463390D01*
X46428571Y-38463390D02*
X45857143Y-39034819D01*
X45857143Y-39034819D02*
X46476190Y-39034819D01*
X21761905Y-35546182D02*
X21857143Y-35546182D01*
X21857143Y-35546182D02*
X21952381Y-35593801D01*
X21952381Y-35593801D02*
X22000000Y-35641420D01*
X22000000Y-35641420D02*
X22047619Y-35736658D01*
X22047619Y-35736658D02*
X22095238Y-35927134D01*
X22095238Y-35927134D02*
X22095238Y-36165229D01*
X22095238Y-36165229D02*
X22047619Y-36355705D01*
X22047619Y-36355705D02*
X22000000Y-36450943D01*
X22000000Y-36450943D02*
X21952381Y-36498563D01*
X21952381Y-36498563D02*
X21857143Y-36546182D01*
X21857143Y-36546182D02*
X21761905Y-36546182D01*
X21761905Y-36546182D02*
X21666667Y-36498563D01*
X21666667Y-36498563D02*
X21619048Y-36450943D01*
X21619048Y-36450943D02*
X21571429Y-36355705D01*
X21571429Y-36355705D02*
X21523810Y-36165229D01*
X21523810Y-36165229D02*
X21523810Y-35927134D01*
X21523810Y-35927134D02*
X21571429Y-35736658D01*
X21571429Y-35736658D02*
X21619048Y-35641420D01*
X21619048Y-35641420D02*
X21666667Y-35593801D01*
X21666667Y-35593801D02*
X21761905Y-35546182D01*
X22523810Y-36450943D02*
X22571429Y-36498563D01*
X22571429Y-36498563D02*
X22523810Y-36546182D01*
X22523810Y-36546182D02*
X22476191Y-36498563D01*
X22476191Y-36498563D02*
X22523810Y-36450943D01*
X22523810Y-36450943D02*
X22523810Y-36546182D01*
X22952381Y-35641420D02*
X23000000Y-35593801D01*
X23000000Y-35593801D02*
X23095238Y-35546182D01*
X23095238Y-35546182D02*
X23333333Y-35546182D01*
X23333333Y-35546182D02*
X23428571Y-35593801D01*
X23428571Y-35593801D02*
X23476190Y-35641420D01*
X23476190Y-35641420D02*
X23523809Y-35736658D01*
X23523809Y-35736658D02*
X23523809Y-35831896D01*
X23523809Y-35831896D02*
X23476190Y-35974753D01*
X23476190Y-35974753D02*
X22904762Y-36546182D01*
X22904762Y-36546182D02*
X23523809Y-36546182D01*
X24142857Y-35546182D02*
X24238095Y-35546182D01*
X24238095Y-35546182D02*
X24333333Y-35593801D01*
X24333333Y-35593801D02*
X24380952Y-35641420D01*
X24380952Y-35641420D02*
X24428571Y-35736658D01*
X24428571Y-35736658D02*
X24476190Y-35927134D01*
X24476190Y-35927134D02*
X24476190Y-36165229D01*
X24476190Y-36165229D02*
X24428571Y-36355705D01*
X24428571Y-36355705D02*
X24380952Y-36450943D01*
X24380952Y-36450943D02*
X24333333Y-36498563D01*
X24333333Y-36498563D02*
X24238095Y-36546182D01*
X24238095Y-36546182D02*
X24142857Y-36546182D01*
X24142857Y-36546182D02*
X24047619Y-36498563D01*
X24047619Y-36498563D02*
X24000000Y-36450943D01*
X24000000Y-36450943D02*
X23952381Y-36355705D01*
X23952381Y-36355705D02*
X23904762Y-36165229D01*
X23904762Y-36165229D02*
X23904762Y-35927134D01*
X23904762Y-35927134D02*
X23952381Y-35736658D01*
X23952381Y-35736658D02*
X24000000Y-35641420D01*
X24000000Y-35641420D02*
X24047619Y-35593801D01*
X24047619Y-35593801D02*
X24142857Y-35546182D01*
X22238095Y-30512438D02*
X22142857Y-30464819D01*
X22142857Y-30464819D02*
X22000000Y-30464819D01*
X22000000Y-30464819D02*
X21857143Y-30512438D01*
X21857143Y-30512438D02*
X21761905Y-30607676D01*
X21761905Y-30607676D02*
X21714286Y-30702914D01*
X21714286Y-30702914D02*
X21666667Y-30893390D01*
X21666667Y-30893390D02*
X21666667Y-31036247D01*
X21666667Y-31036247D02*
X21714286Y-31226723D01*
X21714286Y-31226723D02*
X21761905Y-31321961D01*
X21761905Y-31321961D02*
X21857143Y-31417200D01*
X21857143Y-31417200D02*
X22000000Y-31464819D01*
X22000000Y-31464819D02*
X22095238Y-31464819D01*
X22095238Y-31464819D02*
X22238095Y-31417200D01*
X22238095Y-31417200D02*
X22285714Y-31369580D01*
X22285714Y-31369580D02*
X22285714Y-31036247D01*
X22285714Y-31036247D02*
X22095238Y-31036247D01*
X22714286Y-31464819D02*
X22714286Y-30464819D01*
X22714286Y-30464819D02*
X23285714Y-31464819D01*
X23285714Y-31464819D02*
X23285714Y-30464819D01*
X23761905Y-31464819D02*
X23761905Y-30464819D01*
X23761905Y-30464819D02*
X24000000Y-30464819D01*
X24000000Y-30464819D02*
X24142857Y-30512438D01*
X24142857Y-30512438D02*
X24238095Y-30607676D01*
X24238095Y-30607676D02*
X24285714Y-30702914D01*
X24285714Y-30702914D02*
X24333333Y-30893390D01*
X24333333Y-30893390D02*
X24333333Y-31036247D01*
X24333333Y-31036247D02*
X24285714Y-31226723D01*
X24285714Y-31226723D02*
X24238095Y-31321961D01*
X24238095Y-31321961D02*
X24142857Y-31417200D01*
X24142857Y-31417200D02*
X24000000Y-31464819D01*
X24000000Y-31464819D02*
X23761905Y-31464819D01*
X38452381Y-20681009D02*
X38595238Y-20728628D01*
X38595238Y-20728628D02*
X38642857Y-20776247D01*
X38642857Y-20776247D02*
X38690476Y-20871485D01*
X38690476Y-20871485D02*
X38690476Y-21014342D01*
X38690476Y-21014342D02*
X38642857Y-21109580D01*
X38642857Y-21109580D02*
X38595238Y-21157200D01*
X38595238Y-21157200D02*
X38500000Y-21204819D01*
X38500000Y-21204819D02*
X38119048Y-21204819D01*
X38119048Y-21204819D02*
X38119048Y-20204819D01*
X38119048Y-20204819D02*
X38452381Y-20204819D01*
X38452381Y-20204819D02*
X38547619Y-20252438D01*
X38547619Y-20252438D02*
X38595238Y-20300057D01*
X38595238Y-20300057D02*
X38642857Y-20395295D01*
X38642857Y-20395295D02*
X38642857Y-20490533D01*
X38642857Y-20490533D02*
X38595238Y-20585771D01*
X38595238Y-20585771D02*
X38547619Y-20633390D01*
X38547619Y-20633390D02*
X38452381Y-20681009D01*
X38452381Y-20681009D02*
X38119048Y-20681009D01*
X39119048Y-20823866D02*
X39880953Y-20823866D01*
X39500000Y-21204819D02*
X39500000Y-20442914D01*
X44095238Y-46654819D02*
X43523810Y-46654819D01*
X43809524Y-46654819D02*
X43809524Y-45654819D01*
X43809524Y-45654819D02*
X43714286Y-45797676D01*
X43714286Y-45797676D02*
X43619048Y-45892914D01*
X43619048Y-45892914D02*
X43523810Y-45940533D01*
X44523810Y-46559580D02*
X44571429Y-46607200D01*
X44571429Y-46607200D02*
X44523810Y-46654819D01*
X44523810Y-46654819D02*
X44476191Y-46607200D01*
X44476191Y-46607200D02*
X44523810Y-46559580D01*
X44523810Y-46559580D02*
X44523810Y-46654819D01*
X45523809Y-46654819D02*
X44952381Y-46654819D01*
X45238095Y-46654819D02*
X45238095Y-45654819D01*
X45238095Y-45654819D02*
X45142857Y-45797676D01*
X45142857Y-45797676D02*
X45047619Y-45892914D01*
X45047619Y-45892914D02*
X44952381Y-45940533D01*
X46476190Y-46654819D02*
X45904762Y-46654819D01*
X46190476Y-46654819D02*
X46190476Y-45654819D01*
X46190476Y-45654819D02*
X46095238Y-45797676D01*
X46095238Y-45797676D02*
X46000000Y-45892914D01*
X46000000Y-45892914D02*
X45904762Y-45940533D01*
X44705878Y-28793562D02*
X44848735Y-28841181D01*
X44848735Y-28841181D02*
X45086830Y-28841181D01*
X45086830Y-28841181D02*
X45182068Y-28793562D01*
X45182068Y-28793562D02*
X45229687Y-28745942D01*
X45229687Y-28745942D02*
X45277306Y-28650704D01*
X45277306Y-28650704D02*
X45277306Y-28555466D01*
X45277306Y-28555466D02*
X45229687Y-28460228D01*
X45229687Y-28460228D02*
X45182068Y-28412609D01*
X45182068Y-28412609D02*
X45086830Y-28364990D01*
X45086830Y-28364990D02*
X44896354Y-28317371D01*
X44896354Y-28317371D02*
X44801116Y-28269752D01*
X44801116Y-28269752D02*
X44753497Y-28222133D01*
X44753497Y-28222133D02*
X44705878Y-28126895D01*
X44705878Y-28126895D02*
X44705878Y-28031657D01*
X44705878Y-28031657D02*
X44753497Y-27936419D01*
X44753497Y-27936419D02*
X44801116Y-27888800D01*
X44801116Y-27888800D02*
X44896354Y-27841181D01*
X44896354Y-27841181D02*
X45134449Y-27841181D01*
X45134449Y-27841181D02*
X45277306Y-27888800D01*
X45563021Y-27841181D02*
X46134449Y-27841181D01*
X45848735Y-28841181D02*
X45848735Y-27841181D01*
X44095238Y-44114819D02*
X43523810Y-44114819D01*
X43809524Y-44114819D02*
X43809524Y-43114819D01*
X43809524Y-43114819D02*
X43714286Y-43257676D01*
X43714286Y-43257676D02*
X43619048Y-43352914D01*
X43619048Y-43352914D02*
X43523810Y-43400533D01*
X44523810Y-44019580D02*
X44571429Y-44067200D01*
X44571429Y-44067200D02*
X44523810Y-44114819D01*
X44523810Y-44114819D02*
X44476191Y-44067200D01*
X44476191Y-44067200D02*
X44523810Y-44019580D01*
X44523810Y-44019580D02*
X44523810Y-44114819D01*
X45523809Y-44114819D02*
X44952381Y-44114819D01*
X45238095Y-44114819D02*
X45238095Y-43114819D01*
X45238095Y-43114819D02*
X45142857Y-43257676D01*
X45142857Y-43257676D02*
X45047619Y-43352914D01*
X45047619Y-43352914D02*
X44952381Y-43400533D01*
X45857143Y-43114819D02*
X46476190Y-43114819D01*
X46476190Y-43114819D02*
X46142857Y-43495771D01*
X46142857Y-43495771D02*
X46285714Y-43495771D01*
X46285714Y-43495771D02*
X46380952Y-43543390D01*
X46380952Y-43543390D02*
X46428571Y-43591009D01*
X46428571Y-43591009D02*
X46476190Y-43686247D01*
X46476190Y-43686247D02*
X46476190Y-43924342D01*
X46476190Y-43924342D02*
X46428571Y-44019580D01*
X46428571Y-44019580D02*
X46380952Y-44067200D01*
X46380952Y-44067200D02*
X46285714Y-44114819D01*
X46285714Y-44114819D02*
X46000000Y-44114819D01*
X46000000Y-44114819D02*
X45904762Y-44067200D01*
X45904762Y-44067200D02*
X45857143Y-44019580D01*
X21761905Y-45706182D02*
X21857143Y-45706182D01*
X21857143Y-45706182D02*
X21952381Y-45753801D01*
X21952381Y-45753801D02*
X22000000Y-45801420D01*
X22000000Y-45801420D02*
X22047619Y-45896658D01*
X22047619Y-45896658D02*
X22095238Y-46087134D01*
X22095238Y-46087134D02*
X22095238Y-46325229D01*
X22095238Y-46325229D02*
X22047619Y-46515705D01*
X22047619Y-46515705D02*
X22000000Y-46610943D01*
X22000000Y-46610943D02*
X21952381Y-46658563D01*
X21952381Y-46658563D02*
X21857143Y-46706182D01*
X21857143Y-46706182D02*
X21761905Y-46706182D01*
X21761905Y-46706182D02*
X21666667Y-46658563D01*
X21666667Y-46658563D02*
X21619048Y-46610943D01*
X21619048Y-46610943D02*
X21571429Y-46515705D01*
X21571429Y-46515705D02*
X21523810Y-46325229D01*
X21523810Y-46325229D02*
X21523810Y-46087134D01*
X21523810Y-46087134D02*
X21571429Y-45896658D01*
X21571429Y-45896658D02*
X21619048Y-45801420D01*
X21619048Y-45801420D02*
X21666667Y-45753801D01*
X21666667Y-45753801D02*
X21761905Y-45706182D01*
X22523810Y-46610943D02*
X22571429Y-46658563D01*
X22571429Y-46658563D02*
X22523810Y-46706182D01*
X22523810Y-46706182D02*
X22476191Y-46658563D01*
X22476191Y-46658563D02*
X22523810Y-46610943D01*
X22523810Y-46610943D02*
X22523810Y-46706182D01*
X23523809Y-46706182D02*
X22952381Y-46706182D01*
X23238095Y-46706182D02*
X23238095Y-45706182D01*
X23238095Y-45706182D02*
X23142857Y-45849039D01*
X23142857Y-45849039D02*
X23047619Y-45944277D01*
X23047619Y-45944277D02*
X22952381Y-45991896D01*
X24476190Y-46706182D02*
X23904762Y-46706182D01*
X24190476Y-46706182D02*
X24190476Y-45706182D01*
X24190476Y-45706182D02*
X24095238Y-45849039D01*
X24095238Y-45849039D02*
X24000000Y-45944277D01*
X24000000Y-45944277D02*
X23904762Y-45991896D01*
X21761905Y-25384819D02*
X21857143Y-25384819D01*
X21857143Y-25384819D02*
X21952381Y-25432438D01*
X21952381Y-25432438D02*
X22000000Y-25480057D01*
X22000000Y-25480057D02*
X22047619Y-25575295D01*
X22047619Y-25575295D02*
X22095238Y-25765771D01*
X22095238Y-25765771D02*
X22095238Y-26003866D01*
X22095238Y-26003866D02*
X22047619Y-26194342D01*
X22047619Y-26194342D02*
X22000000Y-26289580D01*
X22000000Y-26289580D02*
X21952381Y-26337200D01*
X21952381Y-26337200D02*
X21857143Y-26384819D01*
X21857143Y-26384819D02*
X21761905Y-26384819D01*
X21761905Y-26384819D02*
X21666667Y-26337200D01*
X21666667Y-26337200D02*
X21619048Y-26289580D01*
X21619048Y-26289580D02*
X21571429Y-26194342D01*
X21571429Y-26194342D02*
X21523810Y-26003866D01*
X21523810Y-26003866D02*
X21523810Y-25765771D01*
X21523810Y-25765771D02*
X21571429Y-25575295D01*
X21571429Y-25575295D02*
X21619048Y-25480057D01*
X21619048Y-25480057D02*
X21666667Y-25432438D01*
X21666667Y-25432438D02*
X21761905Y-25384819D01*
X22523810Y-26289580D02*
X22571429Y-26337200D01*
X22571429Y-26337200D02*
X22523810Y-26384819D01*
X22523810Y-26384819D02*
X22476191Y-26337200D01*
X22476191Y-26337200D02*
X22523810Y-26289580D01*
X22523810Y-26289580D02*
X22523810Y-26384819D01*
X23190476Y-25384819D02*
X23285714Y-25384819D01*
X23285714Y-25384819D02*
X23380952Y-25432438D01*
X23380952Y-25432438D02*
X23428571Y-25480057D01*
X23428571Y-25480057D02*
X23476190Y-25575295D01*
X23476190Y-25575295D02*
X23523809Y-25765771D01*
X23523809Y-25765771D02*
X23523809Y-26003866D01*
X23523809Y-26003866D02*
X23476190Y-26194342D01*
X23476190Y-26194342D02*
X23428571Y-26289580D01*
X23428571Y-26289580D02*
X23380952Y-26337200D01*
X23380952Y-26337200D02*
X23285714Y-26384819D01*
X23285714Y-26384819D02*
X23190476Y-26384819D01*
X23190476Y-26384819D02*
X23095238Y-26337200D01*
X23095238Y-26337200D02*
X23047619Y-26289580D01*
X23047619Y-26289580D02*
X23000000Y-26194342D01*
X23000000Y-26194342D02*
X22952381Y-26003866D01*
X22952381Y-26003866D02*
X22952381Y-25765771D01*
X22952381Y-25765771D02*
X23000000Y-25575295D01*
X23000000Y-25575295D02*
X23047619Y-25480057D01*
X23047619Y-25480057D02*
X23095238Y-25432438D01*
X23095238Y-25432438D02*
X23190476Y-25384819D01*
X24095238Y-25813390D02*
X24000000Y-25765771D01*
X24000000Y-25765771D02*
X23952381Y-25718152D01*
X23952381Y-25718152D02*
X23904762Y-25622914D01*
X23904762Y-25622914D02*
X23904762Y-25575295D01*
X23904762Y-25575295D02*
X23952381Y-25480057D01*
X23952381Y-25480057D02*
X24000000Y-25432438D01*
X24000000Y-25432438D02*
X24095238Y-25384819D01*
X24095238Y-25384819D02*
X24285714Y-25384819D01*
X24285714Y-25384819D02*
X24380952Y-25432438D01*
X24380952Y-25432438D02*
X24428571Y-25480057D01*
X24428571Y-25480057D02*
X24476190Y-25575295D01*
X24476190Y-25575295D02*
X24476190Y-25622914D01*
X24476190Y-25622914D02*
X24428571Y-25718152D01*
X24428571Y-25718152D02*
X24380952Y-25765771D01*
X24380952Y-25765771D02*
X24285714Y-25813390D01*
X24285714Y-25813390D02*
X24095238Y-25813390D01*
X24095238Y-25813390D02*
X24000000Y-25861009D01*
X24000000Y-25861009D02*
X23952381Y-25908628D01*
X23952381Y-25908628D02*
X23904762Y-26003866D01*
X23904762Y-26003866D02*
X23904762Y-26194342D01*
X23904762Y-26194342D02*
X23952381Y-26289580D01*
X23952381Y-26289580D02*
X24000000Y-26337200D01*
X24000000Y-26337200D02*
X24095238Y-26384819D01*
X24095238Y-26384819D02*
X24285714Y-26384819D01*
X24285714Y-26384819D02*
X24380952Y-26337200D01*
X24380952Y-26337200D02*
X24428571Y-26289580D01*
X24428571Y-26289580D02*
X24476190Y-26194342D01*
X24476190Y-26194342D02*
X24476190Y-26003866D01*
X24476190Y-26003866D02*
X24428571Y-25908628D01*
X24428571Y-25908628D02*
X24380952Y-25861009D01*
X24380952Y-25861009D02*
X24285714Y-25813390D01*
X22095238Y-51704819D02*
X21523810Y-51704819D01*
X21809524Y-51704819D02*
X21809524Y-50704819D01*
X21809524Y-50704819D02*
X21714286Y-50847676D01*
X21714286Y-50847676D02*
X21619048Y-50942914D01*
X21619048Y-50942914D02*
X21523810Y-50990533D01*
X22523810Y-51609580D02*
X22571429Y-51657200D01*
X22571429Y-51657200D02*
X22523810Y-51704819D01*
X22523810Y-51704819D02*
X22476191Y-51657200D01*
X22476191Y-51657200D02*
X22523810Y-51609580D01*
X22523810Y-51609580D02*
X22523810Y-51704819D01*
X23190476Y-50704819D02*
X23285714Y-50704819D01*
X23285714Y-50704819D02*
X23380952Y-50752438D01*
X23380952Y-50752438D02*
X23428571Y-50800057D01*
X23428571Y-50800057D02*
X23476190Y-50895295D01*
X23476190Y-50895295D02*
X23523809Y-51085771D01*
X23523809Y-51085771D02*
X23523809Y-51323866D01*
X23523809Y-51323866D02*
X23476190Y-51514342D01*
X23476190Y-51514342D02*
X23428571Y-51609580D01*
X23428571Y-51609580D02*
X23380952Y-51657200D01*
X23380952Y-51657200D02*
X23285714Y-51704819D01*
X23285714Y-51704819D02*
X23190476Y-51704819D01*
X23190476Y-51704819D02*
X23095238Y-51657200D01*
X23095238Y-51657200D02*
X23047619Y-51609580D01*
X23047619Y-51609580D02*
X23000000Y-51514342D01*
X23000000Y-51514342D02*
X22952381Y-51323866D01*
X22952381Y-51323866D02*
X22952381Y-51085771D01*
X22952381Y-51085771D02*
X23000000Y-50895295D01*
X23000000Y-50895295D02*
X23047619Y-50800057D01*
X23047619Y-50800057D02*
X23095238Y-50752438D01*
X23095238Y-50752438D02*
X23190476Y-50704819D01*
X24380952Y-50704819D02*
X24190476Y-50704819D01*
X24190476Y-50704819D02*
X24095238Y-50752438D01*
X24095238Y-50752438D02*
X24047619Y-50800057D01*
X24047619Y-50800057D02*
X23952381Y-50942914D01*
X23952381Y-50942914D02*
X23904762Y-51133390D01*
X23904762Y-51133390D02*
X23904762Y-51514342D01*
X23904762Y-51514342D02*
X23952381Y-51609580D01*
X23952381Y-51609580D02*
X24000000Y-51657200D01*
X24000000Y-51657200D02*
X24095238Y-51704819D01*
X24095238Y-51704819D02*
X24285714Y-51704819D01*
X24285714Y-51704819D02*
X24380952Y-51657200D01*
X24380952Y-51657200D02*
X24428571Y-51609580D01*
X24428571Y-51609580D02*
X24476190Y-51514342D01*
X24476190Y-51514342D02*
X24476190Y-51276247D01*
X24476190Y-51276247D02*
X24428571Y-51181009D01*
X24428571Y-51181009D02*
X24380952Y-51133390D01*
X24380952Y-51133390D02*
X24285714Y-51085771D01*
X24285714Y-51085771D02*
X24095238Y-51085771D01*
X24095238Y-51085771D02*
X24000000Y-51133390D01*
X24000000Y-51133390D02*
X23952381Y-51181009D01*
X23952381Y-51181009D02*
X23904762Y-51276247D01*
X43666667Y-30414819D02*
X44000000Y-31414819D01*
X44000000Y-31414819D02*
X44333333Y-30414819D01*
X45238095Y-31319580D02*
X45190476Y-31367200D01*
X45190476Y-31367200D02*
X45047619Y-31414819D01*
X45047619Y-31414819D02*
X44952381Y-31414819D01*
X44952381Y-31414819D02*
X44809524Y-31367200D01*
X44809524Y-31367200D02*
X44714286Y-31271961D01*
X44714286Y-31271961D02*
X44666667Y-31176723D01*
X44666667Y-31176723D02*
X44619048Y-30986247D01*
X44619048Y-30986247D02*
X44619048Y-30843390D01*
X44619048Y-30843390D02*
X44666667Y-30652914D01*
X44666667Y-30652914D02*
X44714286Y-30557676D01*
X44714286Y-30557676D02*
X44809524Y-30462438D01*
X44809524Y-30462438D02*
X44952381Y-30414819D01*
X44952381Y-30414819D02*
X45047619Y-30414819D01*
X45047619Y-30414819D02*
X45190476Y-30462438D01*
X45190476Y-30462438D02*
X45238095Y-30510057D01*
X46238095Y-31319580D02*
X46190476Y-31367200D01*
X46190476Y-31367200D02*
X46047619Y-31414819D01*
X46047619Y-31414819D02*
X45952381Y-31414819D01*
X45952381Y-31414819D02*
X45809524Y-31367200D01*
X45809524Y-31367200D02*
X45714286Y-31271961D01*
X45714286Y-31271961D02*
X45666667Y-31176723D01*
X45666667Y-31176723D02*
X45619048Y-30986247D01*
X45619048Y-30986247D02*
X45619048Y-30843390D01*
X45619048Y-30843390D02*
X45666667Y-30652914D01*
X45666667Y-30652914D02*
X45714286Y-30557676D01*
X45714286Y-30557676D02*
X45809524Y-30462438D01*
X45809524Y-30462438D02*
X45952381Y-30414819D01*
X45952381Y-30414819D02*
X46047619Y-30414819D01*
X46047619Y-30414819D02*
X46190476Y-30462438D01*
X46190476Y-30462438D02*
X46238095Y-30510057D01*
X22095238Y-49206182D02*
X21523810Y-49206182D01*
X21809524Y-49206182D02*
X21809524Y-48206182D01*
X21809524Y-48206182D02*
X21714286Y-48349039D01*
X21714286Y-48349039D02*
X21619048Y-48444277D01*
X21619048Y-48444277D02*
X21523810Y-48491896D01*
X22523810Y-49110943D02*
X22571429Y-49158563D01*
X22571429Y-49158563D02*
X22523810Y-49206182D01*
X22523810Y-49206182D02*
X22476191Y-49158563D01*
X22476191Y-49158563D02*
X22523810Y-49110943D01*
X22523810Y-49110943D02*
X22523810Y-49206182D01*
X23190476Y-48206182D02*
X23285714Y-48206182D01*
X23285714Y-48206182D02*
X23380952Y-48253801D01*
X23380952Y-48253801D02*
X23428571Y-48301420D01*
X23428571Y-48301420D02*
X23476190Y-48396658D01*
X23476190Y-48396658D02*
X23523809Y-48587134D01*
X23523809Y-48587134D02*
X23523809Y-48825229D01*
X23523809Y-48825229D02*
X23476190Y-49015705D01*
X23476190Y-49015705D02*
X23428571Y-49110943D01*
X23428571Y-49110943D02*
X23380952Y-49158563D01*
X23380952Y-49158563D02*
X23285714Y-49206182D01*
X23285714Y-49206182D02*
X23190476Y-49206182D01*
X23190476Y-49206182D02*
X23095238Y-49158563D01*
X23095238Y-49158563D02*
X23047619Y-49110943D01*
X23047619Y-49110943D02*
X23000000Y-49015705D01*
X23000000Y-49015705D02*
X22952381Y-48825229D01*
X22952381Y-48825229D02*
X22952381Y-48587134D01*
X22952381Y-48587134D02*
X23000000Y-48396658D01*
X23000000Y-48396658D02*
X23047619Y-48301420D01*
X23047619Y-48301420D02*
X23095238Y-48253801D01*
X23095238Y-48253801D02*
X23190476Y-48206182D01*
X24380952Y-48539515D02*
X24380952Y-49206182D01*
X24142857Y-48158563D02*
X23904762Y-48872848D01*
X23904762Y-48872848D02*
X24523809Y-48872848D01*
X43761905Y-50734819D02*
X43857143Y-50734819D01*
X43857143Y-50734819D02*
X43952381Y-50782438D01*
X43952381Y-50782438D02*
X44000000Y-50830057D01*
X44000000Y-50830057D02*
X44047619Y-50925295D01*
X44047619Y-50925295D02*
X44095238Y-51115771D01*
X44095238Y-51115771D02*
X44095238Y-51353866D01*
X44095238Y-51353866D02*
X44047619Y-51544342D01*
X44047619Y-51544342D02*
X44000000Y-51639580D01*
X44000000Y-51639580D02*
X43952381Y-51687200D01*
X43952381Y-51687200D02*
X43857143Y-51734819D01*
X43857143Y-51734819D02*
X43761905Y-51734819D01*
X43761905Y-51734819D02*
X43666667Y-51687200D01*
X43666667Y-51687200D02*
X43619048Y-51639580D01*
X43619048Y-51639580D02*
X43571429Y-51544342D01*
X43571429Y-51544342D02*
X43523810Y-51353866D01*
X43523810Y-51353866D02*
X43523810Y-51115771D01*
X43523810Y-51115771D02*
X43571429Y-50925295D01*
X43571429Y-50925295D02*
X43619048Y-50830057D01*
X43619048Y-50830057D02*
X43666667Y-50782438D01*
X43666667Y-50782438D02*
X43761905Y-50734819D01*
X44523810Y-51639580D02*
X44571429Y-51687200D01*
X44571429Y-51687200D02*
X44523810Y-51734819D01*
X44523810Y-51734819D02*
X44476191Y-51687200D01*
X44476191Y-51687200D02*
X44523810Y-51639580D01*
X44523810Y-51639580D02*
X44523810Y-51734819D01*
X45190476Y-50734819D02*
X45285714Y-50734819D01*
X45285714Y-50734819D02*
X45380952Y-50782438D01*
X45380952Y-50782438D02*
X45428571Y-50830057D01*
X45428571Y-50830057D02*
X45476190Y-50925295D01*
X45476190Y-50925295D02*
X45523809Y-51115771D01*
X45523809Y-51115771D02*
X45523809Y-51353866D01*
X45523809Y-51353866D02*
X45476190Y-51544342D01*
X45476190Y-51544342D02*
X45428571Y-51639580D01*
X45428571Y-51639580D02*
X45380952Y-51687200D01*
X45380952Y-51687200D02*
X45285714Y-51734819D01*
X45285714Y-51734819D02*
X45190476Y-51734819D01*
X45190476Y-51734819D02*
X45095238Y-51687200D01*
X45095238Y-51687200D02*
X45047619Y-51639580D01*
X45047619Y-51639580D02*
X45000000Y-51544342D01*
X45000000Y-51544342D02*
X44952381Y-51353866D01*
X44952381Y-51353866D02*
X44952381Y-51115771D01*
X44952381Y-51115771D02*
X45000000Y-50925295D01*
X45000000Y-50925295D02*
X45047619Y-50830057D01*
X45047619Y-50830057D02*
X45095238Y-50782438D01*
X45095238Y-50782438D02*
X45190476Y-50734819D01*
X46000000Y-51734819D02*
X46190476Y-51734819D01*
X46190476Y-51734819D02*
X46285714Y-51687200D01*
X46285714Y-51687200D02*
X46333333Y-51639580D01*
X46333333Y-51639580D02*
X46428571Y-51496723D01*
X46428571Y-51496723D02*
X46476190Y-51306247D01*
X46476190Y-51306247D02*
X46476190Y-50925295D01*
X46476190Y-50925295D02*
X46428571Y-50830057D01*
X46428571Y-50830057D02*
X46380952Y-50782438D01*
X46380952Y-50782438D02*
X46285714Y-50734819D01*
X46285714Y-50734819D02*
X46095238Y-50734819D01*
X46095238Y-50734819D02*
X46000000Y-50782438D01*
X46000000Y-50782438D02*
X45952381Y-50830057D01*
X45952381Y-50830057D02*
X45904762Y-50925295D01*
X45904762Y-50925295D02*
X45904762Y-51163390D01*
X45904762Y-51163390D02*
X45952381Y-51258628D01*
X45952381Y-51258628D02*
X46000000Y-51306247D01*
X46000000Y-51306247D02*
X46095238Y-51353866D01*
X46095238Y-51353866D02*
X46285714Y-51353866D01*
X46285714Y-51353866D02*
X46380952Y-51306247D01*
X46380952Y-51306247D02*
X46428571Y-51258628D01*
X46428571Y-51258628D02*
X46476190Y-51163390D01*
X22095238Y-44166182D02*
X21523810Y-44166182D01*
X21809524Y-44166182D02*
X21809524Y-43166182D01*
X21809524Y-43166182D02*
X21714286Y-43309039D01*
X21714286Y-43309039D02*
X21619048Y-43404277D01*
X21619048Y-43404277D02*
X21523810Y-43451896D01*
X22523810Y-44070943D02*
X22571429Y-44118563D01*
X22571429Y-44118563D02*
X22523810Y-44166182D01*
X22523810Y-44166182D02*
X22476191Y-44118563D01*
X22476191Y-44118563D02*
X22523810Y-44070943D01*
X22523810Y-44070943D02*
X22523810Y-44166182D01*
X23190476Y-43166182D02*
X23285714Y-43166182D01*
X23285714Y-43166182D02*
X23380952Y-43213801D01*
X23380952Y-43213801D02*
X23428571Y-43261420D01*
X23428571Y-43261420D02*
X23476190Y-43356658D01*
X23476190Y-43356658D02*
X23523809Y-43547134D01*
X23523809Y-43547134D02*
X23523809Y-43785229D01*
X23523809Y-43785229D02*
X23476190Y-43975705D01*
X23476190Y-43975705D02*
X23428571Y-44070943D01*
X23428571Y-44070943D02*
X23380952Y-44118563D01*
X23380952Y-44118563D02*
X23285714Y-44166182D01*
X23285714Y-44166182D02*
X23190476Y-44166182D01*
X23190476Y-44166182D02*
X23095238Y-44118563D01*
X23095238Y-44118563D02*
X23047619Y-44070943D01*
X23047619Y-44070943D02*
X23000000Y-43975705D01*
X23000000Y-43975705D02*
X22952381Y-43785229D01*
X22952381Y-43785229D02*
X22952381Y-43547134D01*
X22952381Y-43547134D02*
X23000000Y-43356658D01*
X23000000Y-43356658D02*
X23047619Y-43261420D01*
X23047619Y-43261420D02*
X23095238Y-43213801D01*
X23095238Y-43213801D02*
X23190476Y-43166182D01*
X24142857Y-43166182D02*
X24238095Y-43166182D01*
X24238095Y-43166182D02*
X24333333Y-43213801D01*
X24333333Y-43213801D02*
X24380952Y-43261420D01*
X24380952Y-43261420D02*
X24428571Y-43356658D01*
X24428571Y-43356658D02*
X24476190Y-43547134D01*
X24476190Y-43547134D02*
X24476190Y-43785229D01*
X24476190Y-43785229D02*
X24428571Y-43975705D01*
X24428571Y-43975705D02*
X24380952Y-44070943D01*
X24380952Y-44070943D02*
X24333333Y-44118563D01*
X24333333Y-44118563D02*
X24238095Y-44166182D01*
X24238095Y-44166182D02*
X24142857Y-44166182D01*
X24142857Y-44166182D02*
X24047619Y-44118563D01*
X24047619Y-44118563D02*
X24000000Y-44070943D01*
X24000000Y-44070943D02*
X23952381Y-43975705D01*
X23952381Y-43975705D02*
X23904762Y-43785229D01*
X23904762Y-43785229D02*
X23904762Y-43547134D01*
X23904762Y-43547134D02*
X23952381Y-43356658D01*
X23952381Y-43356658D02*
X24000000Y-43261420D01*
X24000000Y-43261420D02*
X24047619Y-43213801D01*
X24047619Y-43213801D02*
X24142857Y-43166182D01*
X44309523Y-23794819D02*
X43976190Y-23318628D01*
X43738095Y-23794819D02*
X43738095Y-22794819D01*
X43738095Y-22794819D02*
X44119047Y-22794819D01*
X44119047Y-22794819D02*
X44214285Y-22842438D01*
X44214285Y-22842438D02*
X44261904Y-22890057D01*
X44261904Y-22890057D02*
X44309523Y-22985295D01*
X44309523Y-22985295D02*
X44309523Y-23128152D01*
X44309523Y-23128152D02*
X44261904Y-23223390D01*
X44261904Y-23223390D02*
X44214285Y-23271009D01*
X44214285Y-23271009D02*
X44119047Y-23318628D01*
X44119047Y-23318628D02*
X43738095Y-23318628D01*
X44690476Y-23509104D02*
X45166666Y-23509104D01*
X44595238Y-23794819D02*
X44928571Y-22794819D01*
X44928571Y-22794819D02*
X45261904Y-23794819D01*
X45500000Y-22794819D02*
X45738095Y-23794819D01*
X45738095Y-23794819D02*
X45928571Y-23080533D01*
X45928571Y-23080533D02*
X46119047Y-23794819D01*
X46119047Y-23794819D02*
X46357143Y-22794819D01*
X22238095Y-27972438D02*
X22142857Y-27924819D01*
X22142857Y-27924819D02*
X22000000Y-27924819D01*
X22000000Y-27924819D02*
X21857143Y-27972438D01*
X21857143Y-27972438D02*
X21761905Y-28067676D01*
X21761905Y-28067676D02*
X21714286Y-28162914D01*
X21714286Y-28162914D02*
X21666667Y-28353390D01*
X21666667Y-28353390D02*
X21666667Y-28496247D01*
X21666667Y-28496247D02*
X21714286Y-28686723D01*
X21714286Y-28686723D02*
X21761905Y-28781961D01*
X21761905Y-28781961D02*
X21857143Y-28877200D01*
X21857143Y-28877200D02*
X22000000Y-28924819D01*
X22000000Y-28924819D02*
X22095238Y-28924819D01*
X22095238Y-28924819D02*
X22238095Y-28877200D01*
X22238095Y-28877200D02*
X22285714Y-28829580D01*
X22285714Y-28829580D02*
X22285714Y-28496247D01*
X22285714Y-28496247D02*
X22095238Y-28496247D01*
X22714286Y-28924819D02*
X22714286Y-27924819D01*
X22714286Y-27924819D02*
X23285714Y-28924819D01*
X23285714Y-28924819D02*
X23285714Y-27924819D01*
X23761905Y-28924819D02*
X23761905Y-27924819D01*
X23761905Y-27924819D02*
X24000000Y-27924819D01*
X24000000Y-27924819D02*
X24142857Y-27972438D01*
X24142857Y-27972438D02*
X24238095Y-28067676D01*
X24238095Y-28067676D02*
X24285714Y-28162914D01*
X24285714Y-28162914D02*
X24333333Y-28353390D01*
X24333333Y-28353390D02*
X24333333Y-28496247D01*
X24333333Y-28496247D02*
X24285714Y-28686723D01*
X24285714Y-28686723D02*
X24238095Y-28781961D01*
X24238095Y-28781961D02*
X24142857Y-28877200D01*
X24142857Y-28877200D02*
X24000000Y-28924819D01*
X24000000Y-28924819D02*
X23761905Y-28924819D01*
X43761905Y-48194819D02*
X43857143Y-48194819D01*
X43857143Y-48194819D02*
X43952381Y-48242438D01*
X43952381Y-48242438D02*
X44000000Y-48290057D01*
X44000000Y-48290057D02*
X44047619Y-48385295D01*
X44047619Y-48385295D02*
X44095238Y-48575771D01*
X44095238Y-48575771D02*
X44095238Y-48813866D01*
X44095238Y-48813866D02*
X44047619Y-49004342D01*
X44047619Y-49004342D02*
X44000000Y-49099580D01*
X44000000Y-49099580D02*
X43952381Y-49147200D01*
X43952381Y-49147200D02*
X43857143Y-49194819D01*
X43857143Y-49194819D02*
X43761905Y-49194819D01*
X43761905Y-49194819D02*
X43666667Y-49147200D01*
X43666667Y-49147200D02*
X43619048Y-49099580D01*
X43619048Y-49099580D02*
X43571429Y-49004342D01*
X43571429Y-49004342D02*
X43523810Y-48813866D01*
X43523810Y-48813866D02*
X43523810Y-48575771D01*
X43523810Y-48575771D02*
X43571429Y-48385295D01*
X43571429Y-48385295D02*
X43619048Y-48290057D01*
X43619048Y-48290057D02*
X43666667Y-48242438D01*
X43666667Y-48242438D02*
X43761905Y-48194819D01*
X44523810Y-49099580D02*
X44571429Y-49147200D01*
X44571429Y-49147200D02*
X44523810Y-49194819D01*
X44523810Y-49194819D02*
X44476191Y-49147200D01*
X44476191Y-49147200D02*
X44523810Y-49099580D01*
X44523810Y-49099580D02*
X44523810Y-49194819D01*
X45523809Y-49194819D02*
X44952381Y-49194819D01*
X45238095Y-49194819D02*
X45238095Y-48194819D01*
X45238095Y-48194819D02*
X45142857Y-48337676D01*
X45142857Y-48337676D02*
X45047619Y-48432914D01*
X45047619Y-48432914D02*
X44952381Y-48480533D01*
X46142857Y-48194819D02*
X46238095Y-48194819D01*
X46238095Y-48194819D02*
X46333333Y-48242438D01*
X46333333Y-48242438D02*
X46380952Y-48290057D01*
X46380952Y-48290057D02*
X46428571Y-48385295D01*
X46428571Y-48385295D02*
X46476190Y-48575771D01*
X46476190Y-48575771D02*
X46476190Y-48813866D01*
X46476190Y-48813866D02*
X46428571Y-49004342D01*
X46428571Y-49004342D02*
X46380952Y-49099580D01*
X46380952Y-49099580D02*
X46333333Y-49147200D01*
X46333333Y-49147200D02*
X46238095Y-49194819D01*
X46238095Y-49194819D02*
X46142857Y-49194819D01*
X46142857Y-49194819D02*
X46047619Y-49147200D01*
X46047619Y-49147200D02*
X46000000Y-49099580D01*
X46000000Y-49099580D02*
X45952381Y-49004342D01*
X45952381Y-49004342D02*
X45904762Y-48813866D01*
X45904762Y-48813866D02*
X45904762Y-48575771D01*
X45904762Y-48575771D02*
X45952381Y-48385295D01*
X45952381Y-48385295D02*
X46000000Y-48290057D01*
X46000000Y-48290057D02*
X46047619Y-48242438D01*
X46047619Y-48242438D02*
X46142857Y-48194819D01*
X27966667Y-61207200D02*
X28109524Y-61254819D01*
X28109524Y-61254819D02*
X28347619Y-61254819D01*
X28347619Y-61254819D02*
X28442857Y-61207200D01*
X28442857Y-61207200D02*
X28490476Y-61159580D01*
X28490476Y-61159580D02*
X28538095Y-61064342D01*
X28538095Y-61064342D02*
X28538095Y-60969104D01*
X28538095Y-60969104D02*
X28490476Y-60873866D01*
X28490476Y-60873866D02*
X28442857Y-60826247D01*
X28442857Y-60826247D02*
X28347619Y-60778628D01*
X28347619Y-60778628D02*
X28157143Y-60731009D01*
X28157143Y-60731009D02*
X28061905Y-60683390D01*
X28061905Y-60683390D02*
X28014286Y-60635771D01*
X28014286Y-60635771D02*
X27966667Y-60540533D01*
X27966667Y-60540533D02*
X27966667Y-60445295D01*
X27966667Y-60445295D02*
X28014286Y-60350057D01*
X28014286Y-60350057D02*
X28061905Y-60302438D01*
X28061905Y-60302438D02*
X28157143Y-60254819D01*
X28157143Y-60254819D02*
X28395238Y-60254819D01*
X28395238Y-60254819D02*
X28538095Y-60302438D01*
X28871429Y-60254819D02*
X29109524Y-61254819D01*
X29109524Y-61254819D02*
X29300000Y-60540533D01*
X29300000Y-60540533D02*
X29490476Y-61254819D01*
X29490476Y-61254819D02*
X29728572Y-60254819D01*
X30061905Y-60350057D02*
X30109524Y-60302438D01*
X30109524Y-60302438D02*
X30204762Y-60254819D01*
X30204762Y-60254819D02*
X30442857Y-60254819D01*
X30442857Y-60254819D02*
X30538095Y-60302438D01*
X30538095Y-60302438D02*
X30585714Y-60350057D01*
X30585714Y-60350057D02*
X30633333Y-60445295D01*
X30633333Y-60445295D02*
X30633333Y-60540533D01*
X30633333Y-60540533D02*
X30585714Y-60683390D01*
X30585714Y-60683390D02*
X30014286Y-61254819D01*
X30014286Y-61254819D02*
X30633333Y-61254819D01*
X42954819Y-69595237D02*
X41954819Y-69595237D01*
X41954819Y-69595237D02*
X41954819Y-69357142D01*
X41954819Y-69357142D02*
X42002438Y-69214285D01*
X42002438Y-69214285D02*
X42097676Y-69119047D01*
X42097676Y-69119047D02*
X42192914Y-69071428D01*
X42192914Y-69071428D02*
X42383390Y-69023809D01*
X42383390Y-69023809D02*
X42526247Y-69023809D01*
X42526247Y-69023809D02*
X42716723Y-69071428D01*
X42716723Y-69071428D02*
X42811961Y-69119047D01*
X42811961Y-69119047D02*
X42907200Y-69214285D01*
X42907200Y-69214285D02*
X42954819Y-69357142D01*
X42954819Y-69357142D02*
X42954819Y-69595237D01*
X43050057Y-68833333D02*
X43050057Y-68071428D01*
X41954819Y-67357142D02*
X41954819Y-67833332D01*
X41954819Y-67833332D02*
X42431009Y-67880951D01*
X42431009Y-67880951D02*
X42383390Y-67833332D01*
X42383390Y-67833332D02*
X42335771Y-67738094D01*
X42335771Y-67738094D02*
X42335771Y-67499999D01*
X42335771Y-67499999D02*
X42383390Y-67404761D01*
X42383390Y-67404761D02*
X42431009Y-67357142D01*
X42431009Y-67357142D02*
X42526247Y-67309523D01*
X42526247Y-67309523D02*
X42764342Y-67309523D01*
X42764342Y-67309523D02*
X42859580Y-67357142D01*
X42859580Y-67357142D02*
X42907200Y-67404761D01*
X42907200Y-67404761D02*
X42954819Y-67499999D01*
X42954819Y-67499999D02*
X42954819Y-67738094D01*
X42954819Y-67738094D02*
X42907200Y-67833332D01*
X42907200Y-67833332D02*
X42859580Y-67880951D01*
X42954819Y-66833332D02*
X42954819Y-66642856D01*
X42954819Y-66642856D02*
X42907200Y-66547618D01*
X42907200Y-66547618D02*
X42859580Y-66499999D01*
X42859580Y-66499999D02*
X42716723Y-66404761D01*
X42716723Y-66404761D02*
X42526247Y-66357142D01*
X42526247Y-66357142D02*
X42145295Y-66357142D01*
X42145295Y-66357142D02*
X42050057Y-66404761D01*
X42050057Y-66404761D02*
X42002438Y-66452380D01*
X42002438Y-66452380D02*
X41954819Y-66547618D01*
X41954819Y-66547618D02*
X41954819Y-66738094D01*
X41954819Y-66738094D02*
X42002438Y-66833332D01*
X42002438Y-66833332D02*
X42050057Y-66880951D01*
X42050057Y-66880951D02*
X42145295Y-66928570D01*
X42145295Y-66928570D02*
X42383390Y-66928570D01*
X42383390Y-66928570D02*
X42478628Y-66880951D01*
X42478628Y-66880951D02*
X42526247Y-66833332D01*
X42526247Y-66833332D02*
X42573866Y-66738094D01*
X42573866Y-66738094D02*
X42573866Y-66547618D01*
X42573866Y-66547618D02*
X42526247Y-66452380D01*
X42526247Y-66452380D02*
X42478628Y-66404761D01*
X42478628Y-66404761D02*
X42383390Y-66357142D01*
X242116645Y-113073519D02*
X242116645Y-112073519D01*
X242116645Y-112549709D02*
X242688073Y-112549709D01*
X242688073Y-113073519D02*
X242688073Y-112073519D01*
X243688073Y-113073519D02*
X243116645Y-113073519D01*
X243402359Y-113073519D02*
X243402359Y-112073519D01*
X243402359Y-112073519D02*
X243307121Y-112216376D01*
X243307121Y-112216376D02*
X243211883Y-112311614D01*
X243211883Y-112311614D02*
X243116645Y-112359233D01*
X244164264Y-113073519D02*
X244354740Y-113073519D01*
X244354740Y-113073519D02*
X244449978Y-113025900D01*
X244449978Y-113025900D02*
X244497597Y-112978280D01*
X244497597Y-112978280D02*
X244592835Y-112835423D01*
X244592835Y-112835423D02*
X244640454Y-112644947D01*
X244640454Y-112644947D02*
X244640454Y-112263995D01*
X244640454Y-112263995D02*
X244592835Y-112168757D01*
X244592835Y-112168757D02*
X244545216Y-112121138D01*
X244545216Y-112121138D02*
X244449978Y-112073519D01*
X244449978Y-112073519D02*
X244259502Y-112073519D01*
X244259502Y-112073519D02*
X244164264Y-112121138D01*
X244164264Y-112121138D02*
X244116645Y-112168757D01*
X244116645Y-112168757D02*
X244069026Y-112263995D01*
X244069026Y-112263995D02*
X244069026Y-112502090D01*
X244069026Y-112502090D02*
X244116645Y-112597328D01*
X244116645Y-112597328D02*
X244164264Y-112644947D01*
X244164264Y-112644947D02*
X244259502Y-112692566D01*
X244259502Y-112692566D02*
X244449978Y-112692566D01*
X244449978Y-112692566D02*
X244545216Y-112644947D01*
X244545216Y-112644947D02*
X244592835Y-112597328D01*
X244592835Y-112597328D02*
X244640454Y-112502090D01*
X21143205Y-54804819D02*
X21143205Y-53804819D01*
X21143205Y-54281009D02*
X21714633Y-54281009D01*
X21714633Y-54804819D02*
X21714633Y-53804819D01*
X22714633Y-54804819D02*
X22143205Y-54804819D01*
X22428919Y-54804819D02*
X22428919Y-53804819D01*
X22428919Y-53804819D02*
X22333681Y-53947676D01*
X22333681Y-53947676D02*
X22238443Y-54042914D01*
X22238443Y-54042914D02*
X22143205Y-54090533D01*
X23286062Y-54233390D02*
X23190824Y-54185771D01*
X23190824Y-54185771D02*
X23143205Y-54138152D01*
X23143205Y-54138152D02*
X23095586Y-54042914D01*
X23095586Y-54042914D02*
X23095586Y-53995295D01*
X23095586Y-53995295D02*
X23143205Y-53900057D01*
X23143205Y-53900057D02*
X23190824Y-53852438D01*
X23190824Y-53852438D02*
X23286062Y-53804819D01*
X23286062Y-53804819D02*
X23476538Y-53804819D01*
X23476538Y-53804819D02*
X23571776Y-53852438D01*
X23571776Y-53852438D02*
X23619395Y-53900057D01*
X23619395Y-53900057D02*
X23667014Y-53995295D01*
X23667014Y-53995295D02*
X23667014Y-54042914D01*
X23667014Y-54042914D02*
X23619395Y-54138152D01*
X23619395Y-54138152D02*
X23571776Y-54185771D01*
X23571776Y-54185771D02*
X23476538Y-54233390D01*
X23476538Y-54233390D02*
X23286062Y-54233390D01*
X23286062Y-54233390D02*
X23190824Y-54281009D01*
X23190824Y-54281009D02*
X23143205Y-54328628D01*
X23143205Y-54328628D02*
X23095586Y-54423866D01*
X23095586Y-54423866D02*
X23095586Y-54614342D01*
X23095586Y-54614342D02*
X23143205Y-54709580D01*
X23143205Y-54709580D02*
X23190824Y-54757200D01*
X23190824Y-54757200D02*
X23286062Y-54804819D01*
X23286062Y-54804819D02*
X23476538Y-54804819D01*
X23476538Y-54804819D02*
X23571776Y-54757200D01*
X23571776Y-54757200D02*
X23619395Y-54709580D01*
X23619395Y-54709580D02*
X23667014Y-54614342D01*
X23667014Y-54614342D02*
X23667014Y-54423866D01*
X23667014Y-54423866D02*
X23619395Y-54328628D01*
X23619395Y-54328628D02*
X23571776Y-54281009D01*
X23571776Y-54281009D02*
X23476538Y-54233390D01*
X220686905Y-17636119D02*
X220686905Y-16636119D01*
X220686905Y-17112309D02*
X221258333Y-17112309D01*
X221258333Y-17636119D02*
X221258333Y-16636119D01*
X222258333Y-17636119D02*
X221686905Y-17636119D01*
X221972619Y-17636119D02*
X221972619Y-16636119D01*
X221972619Y-16636119D02*
X221877381Y-16778976D01*
X221877381Y-16778976D02*
X221782143Y-16874214D01*
X221782143Y-16874214D02*
X221686905Y-16921833D01*
X222639286Y-16731357D02*
X222686905Y-16683738D01*
X222686905Y-16683738D02*
X222782143Y-16636119D01*
X222782143Y-16636119D02*
X223020238Y-16636119D01*
X223020238Y-16636119D02*
X223115476Y-16683738D01*
X223115476Y-16683738D02*
X223163095Y-16731357D01*
X223163095Y-16731357D02*
X223210714Y-16826595D01*
X223210714Y-16826595D02*
X223210714Y-16921833D01*
X223210714Y-16921833D02*
X223163095Y-17064690D01*
X223163095Y-17064690D02*
X222591667Y-17636119D01*
X222591667Y-17636119D02*
X223210714Y-17636119D01*
X177825040Y-73854819D02*
X177825040Y-72854819D01*
X177825040Y-73331009D02*
X178396468Y-73331009D01*
X178396468Y-73854819D02*
X178396468Y-72854819D01*
X179396468Y-73854819D02*
X178825040Y-73854819D01*
X179110754Y-73854819D02*
X179110754Y-72854819D01*
X179110754Y-72854819D02*
X179015516Y-72997676D01*
X179015516Y-72997676D02*
X178920278Y-73092914D01*
X178920278Y-73092914D02*
X178825040Y-73140533D01*
X180301230Y-72854819D02*
X179825040Y-72854819D01*
X179825040Y-72854819D02*
X179777421Y-73331009D01*
X179777421Y-73331009D02*
X179825040Y-73283390D01*
X179825040Y-73283390D02*
X179920278Y-73235771D01*
X179920278Y-73235771D02*
X180158373Y-73235771D01*
X180158373Y-73235771D02*
X180253611Y-73283390D01*
X180253611Y-73283390D02*
X180301230Y-73331009D01*
X180301230Y-73331009D02*
X180348849Y-73426247D01*
X180348849Y-73426247D02*
X180348849Y-73664342D01*
X180348849Y-73664342D02*
X180301230Y-73759580D01*
X180301230Y-73759580D02*
X180253611Y-73807200D01*
X180253611Y-73807200D02*
X180158373Y-73854819D01*
X180158373Y-73854819D02*
X179920278Y-73854819D01*
X179920278Y-73854819D02*
X179825040Y-73807200D01*
X179825040Y-73807200D02*
X179777421Y-73759580D01*
X32991905Y-54604819D02*
X32991905Y-53604819D01*
X32991905Y-53604819D02*
X33372857Y-53604819D01*
X33372857Y-53604819D02*
X33468095Y-53652438D01*
X33468095Y-53652438D02*
X33515714Y-53700057D01*
X33515714Y-53700057D02*
X33563333Y-53795295D01*
X33563333Y-53795295D02*
X33563333Y-53938152D01*
X33563333Y-53938152D02*
X33515714Y-54033390D01*
X33515714Y-54033390D02*
X33468095Y-54081009D01*
X33468095Y-54081009D02*
X33372857Y-54128628D01*
X33372857Y-54128628D02*
X32991905Y-54128628D01*
X34515714Y-54604819D02*
X33944286Y-54604819D01*
X34230000Y-54604819D02*
X34230000Y-53604819D01*
X34230000Y-53604819D02*
X34134762Y-53747676D01*
X34134762Y-53747676D02*
X34039524Y-53842914D01*
X34039524Y-53842914D02*
X33944286Y-53890533D01*
X144486905Y-17636119D02*
X144486905Y-16636119D01*
X144486905Y-17112309D02*
X145058333Y-17112309D01*
X145058333Y-17636119D02*
X145058333Y-16636119D01*
X146058333Y-17636119D02*
X145486905Y-17636119D01*
X145772619Y-17636119D02*
X145772619Y-16636119D01*
X145772619Y-16636119D02*
X145677381Y-16778976D01*
X145677381Y-16778976D02*
X145582143Y-16874214D01*
X145582143Y-16874214D02*
X145486905Y-16921833D01*
X146391667Y-16636119D02*
X147010714Y-16636119D01*
X147010714Y-16636119D02*
X146677381Y-17017071D01*
X146677381Y-17017071D02*
X146820238Y-17017071D01*
X146820238Y-17017071D02*
X146915476Y-17064690D01*
X146915476Y-17064690D02*
X146963095Y-17112309D01*
X146963095Y-17112309D02*
X147010714Y-17207547D01*
X147010714Y-17207547D02*
X147010714Y-17445642D01*
X147010714Y-17445642D02*
X146963095Y-17540880D01*
X146963095Y-17540880D02*
X146915476Y-17588500D01*
X146915476Y-17588500D02*
X146820238Y-17636119D01*
X146820238Y-17636119D02*
X146534524Y-17636119D01*
X146534524Y-17636119D02*
X146439286Y-17588500D01*
X146439286Y-17588500D02*
X146391667Y-17540880D01*
X377847995Y-54804819D02*
X377847995Y-53804819D01*
X377847995Y-54281009D02*
X378419423Y-54281009D01*
X378419423Y-54804819D02*
X378419423Y-53804819D01*
X378847995Y-53900057D02*
X378895614Y-53852438D01*
X378895614Y-53852438D02*
X378990852Y-53804819D01*
X378990852Y-53804819D02*
X379228947Y-53804819D01*
X379228947Y-53804819D02*
X379324185Y-53852438D01*
X379324185Y-53852438D02*
X379371804Y-53900057D01*
X379371804Y-53900057D02*
X379419423Y-53995295D01*
X379419423Y-53995295D02*
X379419423Y-54090533D01*
X379419423Y-54090533D02*
X379371804Y-54233390D01*
X379371804Y-54233390D02*
X378800376Y-54804819D01*
X378800376Y-54804819D02*
X379419423Y-54804819D01*
X380038471Y-53804819D02*
X380133709Y-53804819D01*
X380133709Y-53804819D02*
X380228947Y-53852438D01*
X380228947Y-53852438D02*
X380276566Y-53900057D01*
X380276566Y-53900057D02*
X380324185Y-53995295D01*
X380324185Y-53995295D02*
X380371804Y-54185771D01*
X380371804Y-54185771D02*
X380371804Y-54423866D01*
X380371804Y-54423866D02*
X380324185Y-54614342D01*
X380324185Y-54614342D02*
X380276566Y-54709580D01*
X380276566Y-54709580D02*
X380228947Y-54757200D01*
X380228947Y-54757200D02*
X380133709Y-54804819D01*
X380133709Y-54804819D02*
X380038471Y-54804819D01*
X380038471Y-54804819D02*
X379943233Y-54757200D01*
X379943233Y-54757200D02*
X379895614Y-54709580D01*
X379895614Y-54709580D02*
X379847995Y-54614342D01*
X379847995Y-54614342D02*
X379800376Y-54423866D01*
X379800376Y-54423866D02*
X379800376Y-54185771D01*
X379800376Y-54185771D02*
X379847995Y-53995295D01*
X379847995Y-53995295D02*
X379895614Y-53900057D01*
X379895614Y-53900057D02*
X379943233Y-53852438D01*
X379943233Y-53852438D02*
X380038471Y-53804819D01*
X211161825Y-54804819D02*
X211161825Y-53804819D01*
X211161825Y-54281009D02*
X211733253Y-54281009D01*
X211733253Y-54804819D02*
X211733253Y-53804819D01*
X212733253Y-54804819D02*
X212161825Y-54804819D01*
X212447539Y-54804819D02*
X212447539Y-53804819D01*
X212447539Y-53804819D02*
X212352301Y-53947676D01*
X212352301Y-53947676D02*
X212257063Y-54042914D01*
X212257063Y-54042914D02*
X212161825Y-54090533D01*
X213590396Y-53804819D02*
X213399920Y-53804819D01*
X213399920Y-53804819D02*
X213304682Y-53852438D01*
X213304682Y-53852438D02*
X213257063Y-53900057D01*
X213257063Y-53900057D02*
X213161825Y-54042914D01*
X213161825Y-54042914D02*
X213114206Y-54233390D01*
X213114206Y-54233390D02*
X213114206Y-54614342D01*
X213114206Y-54614342D02*
X213161825Y-54709580D01*
X213161825Y-54709580D02*
X213209444Y-54757200D01*
X213209444Y-54757200D02*
X213304682Y-54804819D01*
X213304682Y-54804819D02*
X213495158Y-54804819D01*
X213495158Y-54804819D02*
X213590396Y-54757200D01*
X213590396Y-54757200D02*
X213638015Y-54709580D01*
X213638015Y-54709580D02*
X213685634Y-54614342D01*
X213685634Y-54614342D02*
X213685634Y-54376247D01*
X213685634Y-54376247D02*
X213638015Y-54281009D01*
X213638015Y-54281009D02*
X213590396Y-54233390D01*
X213590396Y-54233390D02*
X213495158Y-54185771D01*
X213495158Y-54185771D02*
X213304682Y-54185771D01*
X213304682Y-54185771D02*
X213209444Y-54233390D01*
X213209444Y-54233390D02*
X213161825Y-54281009D01*
X213161825Y-54281009D02*
X213114206Y-54376247D01*
X27314819Y-86833333D02*
X28029104Y-86833333D01*
X28029104Y-86833333D02*
X28171961Y-86880952D01*
X28171961Y-86880952D02*
X28267200Y-86976190D01*
X28267200Y-86976190D02*
X28314819Y-87119047D01*
X28314819Y-87119047D02*
X28314819Y-87214285D01*
X27314819Y-86452380D02*
X27314819Y-85833333D01*
X27314819Y-85833333D02*
X27695771Y-86166666D01*
X27695771Y-86166666D02*
X27695771Y-86023809D01*
X27695771Y-86023809D02*
X27743390Y-85928571D01*
X27743390Y-85928571D02*
X27791009Y-85880952D01*
X27791009Y-85880952D02*
X27886247Y-85833333D01*
X27886247Y-85833333D02*
X28124342Y-85833333D01*
X28124342Y-85833333D02*
X28219580Y-85880952D01*
X28219580Y-85880952D02*
X28267200Y-85928571D01*
X28267200Y-85928571D02*
X28314819Y-86023809D01*
X28314819Y-86023809D02*
X28314819Y-86309523D01*
X28314819Y-86309523D02*
X28267200Y-86404761D01*
X28267200Y-86404761D02*
X28219580Y-86452380D01*
X49143205Y-54804819D02*
X49143205Y-53804819D01*
X49143205Y-54281009D02*
X49714633Y-54281009D01*
X49714633Y-54804819D02*
X49714633Y-53804819D01*
X50714633Y-54804819D02*
X50143205Y-54804819D01*
X50428919Y-54804819D02*
X50428919Y-53804819D01*
X50428919Y-53804819D02*
X50333681Y-53947676D01*
X50333681Y-53947676D02*
X50238443Y-54042914D01*
X50238443Y-54042914D02*
X50143205Y-54090533D01*
X51047967Y-53804819D02*
X51714633Y-53804819D01*
X51714633Y-53804819D02*
X51286062Y-54804819D01*
X134961825Y-54804819D02*
X134961825Y-53804819D01*
X134961825Y-54281009D02*
X135533253Y-54281009D01*
X135533253Y-54804819D02*
X135533253Y-53804819D01*
X136533253Y-54804819D02*
X135961825Y-54804819D01*
X136247539Y-54804819D02*
X136247539Y-53804819D01*
X136247539Y-53804819D02*
X136152301Y-53947676D01*
X136152301Y-53947676D02*
X136057063Y-54042914D01*
X136057063Y-54042914D02*
X135961825Y-54090533D01*
X137390396Y-54138152D02*
X137390396Y-54804819D01*
X137152301Y-53757200D02*
X136914206Y-54471485D01*
X136914206Y-54471485D02*
X137533253Y-54471485D01*
X296886905Y-17636119D02*
X296886905Y-16636119D01*
X296886905Y-17112309D02*
X297458333Y-17112309D01*
X297458333Y-17636119D02*
X297458333Y-16636119D01*
X298458333Y-17636119D02*
X297886905Y-17636119D01*
X298172619Y-17636119D02*
X298172619Y-16636119D01*
X298172619Y-16636119D02*
X298077381Y-16778976D01*
X298077381Y-16778976D02*
X297982143Y-16874214D01*
X297982143Y-16874214D02*
X297886905Y-16921833D01*
X299410714Y-17636119D02*
X298839286Y-17636119D01*
X299125000Y-17636119D02*
X299125000Y-16636119D01*
X299125000Y-16636119D02*
X299029762Y-16778976D01*
X299029762Y-16778976D02*
X298934524Y-16874214D01*
X298934524Y-16874214D02*
X298839286Y-16921833D01*
X349166666Y-60454819D02*
X349166666Y-61169104D01*
X349166666Y-61169104D02*
X349119047Y-61311961D01*
X349119047Y-61311961D02*
X349023809Y-61407200D01*
X349023809Y-61407200D02*
X348880952Y-61454819D01*
X348880952Y-61454819D02*
X348785714Y-61454819D01*
X349595238Y-60550057D02*
X349642857Y-60502438D01*
X349642857Y-60502438D02*
X349738095Y-60454819D01*
X349738095Y-60454819D02*
X349976190Y-60454819D01*
X349976190Y-60454819D02*
X350071428Y-60502438D01*
X350071428Y-60502438D02*
X350119047Y-60550057D01*
X350119047Y-60550057D02*
X350166666Y-60645295D01*
X350166666Y-60645295D02*
X350166666Y-60740533D01*
X350166666Y-60740533D02*
X350119047Y-60883390D01*
X350119047Y-60883390D02*
X349547619Y-61454819D01*
X349547619Y-61454819D02*
X350166666Y-61454819D01*
D11*
X30261252Y-84235000D02*
X29738748Y-84235000D01*
X30261252Y-82765000D02*
X29738748Y-82765000D01*
X337735000Y-70276248D02*
X337735000Y-70798752D01*
X336265000Y-70276248D02*
X336265000Y-70798752D01*
D12*
X42890000Y-19470000D02*
X25110000Y-19470000D01*
X25110000Y-19470000D02*
X25110000Y-22010000D01*
X27650000Y-19480000D02*
X25110000Y-19480000D01*
X27650000Y-19480000D02*
X27650000Y-22020000D01*
X25110000Y-22010000D02*
X25110000Y-52490000D01*
X27650000Y-22020000D02*
X25110000Y-22020000D01*
X42890000Y-52490000D02*
X42890000Y-19470000D01*
X25110000Y-52490000D02*
X42890000Y-52490000D01*
D10*
X44300000Y-28049360D02*
X43800000Y-28049360D01*
X43800000Y-27949360D01*
X44300000Y-27949360D01*
X44300000Y-28049360D01*
G36*
X44300000Y-28049360D02*
G01*
X43800000Y-28049360D01*
X43800000Y-27949360D01*
X44300000Y-27949360D01*
X44300000Y-28049360D01*
G37*
X44300000Y-28249360D02*
X44200000Y-28249360D01*
X44200000Y-27949360D01*
X44300000Y-27949360D01*
X44300000Y-28249360D01*
G36*
X44300000Y-28249360D02*
G01*
X44200000Y-28249360D01*
X44200000Y-27949360D01*
X44300000Y-27949360D01*
X44300000Y-28249360D01*
G37*
X43900000Y-28749360D02*
X43800000Y-28749360D01*
X43800000Y-27949360D01*
X43900000Y-27949360D01*
X43900000Y-28749360D01*
G36*
X43900000Y-28749360D02*
G01*
X43800000Y-28749360D01*
X43800000Y-27949360D01*
X43900000Y-27949360D01*
X43900000Y-28749360D01*
G37*
X44100000Y-28449360D02*
X44000000Y-28449360D01*
X44000000Y-28349360D01*
X44100000Y-28349360D01*
X44100000Y-28449360D01*
G36*
X44100000Y-28449360D02*
G01*
X44000000Y-28449360D01*
X44000000Y-28349360D01*
X44100000Y-28349360D01*
X44100000Y-28449360D01*
G37*
X44300000Y-28749360D02*
X44200000Y-28749360D01*
X44200000Y-28549360D01*
X44300000Y-28549360D01*
X44300000Y-28749360D01*
G36*
X44300000Y-28749360D02*
G01*
X44200000Y-28749360D01*
X44200000Y-28549360D01*
X44300000Y-28549360D01*
X44300000Y-28749360D01*
G37*
D11*
X26200000Y-63900000D02*
X26800000Y-63900000D01*
X26500000Y-64200000D02*
X26200000Y-63900000D01*
X26800000Y-63900000D02*
X26500000Y-64200000D01*
X27900000Y-62100000D02*
X27900000Y-73900000D01*
X32000000Y-62100000D02*
X27900000Y-62100000D01*
X32000000Y-73900000D02*
X27900000Y-73900000D01*
X33500000Y-68000000D02*
X34500000Y-68000000D01*
X34000000Y-67500000D02*
X34000000Y-68500000D01*
X36000000Y-62100000D02*
X40100000Y-62100000D01*
X40100000Y-62100000D02*
X40100000Y-64500000D01*
X40100000Y-66700000D02*
X40100000Y-69300000D01*
X40100000Y-71500000D02*
X40100000Y-73900000D01*
X40100000Y-73900000D02*
X36000000Y-73900000D01*
X37000000Y-68000000D02*
G75*
G02*
X31000000Y-68000000I-3000000J0D01*
G01*
X31000000Y-68000000D02*
G75*
G02*
X37000000Y-68000000I3000000J0D01*
G01*
D10*
X28240000Y-81750000D02*
X39750000Y-81750000D01*
X28250000Y-76250000D02*
X28250000Y-81750000D01*
X28250000Y-76250000D02*
X39750000Y-76250000D01*
X39750000Y-81750000D02*
X39750000Y-76250000D01*
X53000000Y-24000000D02*
X53000000Y-23000000D01*
X53000000Y-37000000D02*
X53000000Y-36000000D01*
X53000000Y-37000000D02*
X54000000Y-37000000D01*
X54000000Y-23000000D02*
X53000000Y-23000000D01*
X66000000Y-37000000D02*
X67000000Y-37000000D01*
X67000000Y-23000000D02*
X66000000Y-23000000D01*
X67000000Y-23000000D02*
X67000000Y-24000000D01*
X67000000Y-36000000D02*
X67000000Y-37000000D01*
D13*
X46200000Y-65200000D02*
X46200000Y-70800000D01*
X43800000Y-70800000D02*
X43800000Y-65200000D01*
D10*
X324460240Y-100200000D02*
X324460240Y-99200000D01*
X324460240Y-113200000D02*
X324460240Y-112200000D01*
X324460240Y-113200000D02*
X325460240Y-113200000D01*
X325460240Y-99200000D02*
X324460240Y-99200000D01*
X337460240Y-113200000D02*
X338460240Y-113200000D01*
X338460240Y-99200000D02*
X337460240Y-99200000D01*
X338460240Y-99200000D02*
X338460240Y-100200000D01*
X338460240Y-112200000D02*
X338460240Y-113200000D01*
X79192995Y-100200000D02*
X79192995Y-99200000D01*
X79192995Y-113200000D02*
X79192995Y-112200000D01*
X79192995Y-113200000D02*
X80192995Y-113200000D01*
X80192995Y-99200000D02*
X79192995Y-99200000D01*
X92192995Y-113200000D02*
X93192995Y-113200000D01*
X93192995Y-99200000D02*
X92192995Y-99200000D01*
X93192995Y-99200000D02*
X93192995Y-100200000D01*
X93192995Y-112200000D02*
X93192995Y-113200000D01*
X200638135Y-62100000D02*
X200638135Y-61100000D01*
X200638135Y-75100000D02*
X200638135Y-74100000D01*
X200638135Y-75100000D02*
X201638135Y-75100000D01*
X201638135Y-61100000D02*
X200638135Y-61100000D01*
X213638135Y-75100000D02*
X214638135Y-75100000D01*
X214638135Y-61100000D02*
X213638135Y-61100000D01*
X214638135Y-61100000D02*
X214638135Y-62100000D01*
X214638135Y-74100000D02*
X214638135Y-75100000D01*
X191112450Y-81150000D02*
X191112450Y-80150000D01*
X191112450Y-94150000D02*
X191112450Y-93150000D01*
X191112450Y-94150000D02*
X192112450Y-94150000D01*
X192112450Y-80150000D02*
X191112450Y-80150000D01*
X204112450Y-94150000D02*
X205112450Y-94150000D01*
X205112450Y-80150000D02*
X204112450Y-80150000D01*
X205112450Y-80150000D02*
X205112450Y-81150000D01*
X205112450Y-93150000D02*
X205112450Y-94150000D01*
X176824920Y-43050000D02*
X176824920Y-42050000D01*
X176824920Y-56050000D02*
X176824920Y-55050000D01*
X176824920Y-56050000D02*
X177824920Y-56050000D01*
X177824920Y-42050000D02*
X176824920Y-42050000D01*
X189824920Y-56050000D02*
X190824920Y-56050000D01*
X190824920Y-42050000D02*
X189824920Y-42050000D01*
X190824920Y-42050000D02*
X190824920Y-43050000D01*
X190824920Y-55050000D02*
X190824920Y-56050000D01*
X91100000Y-24000000D02*
X91100000Y-23000000D01*
X91100000Y-37000000D02*
X91100000Y-36000000D01*
X91100000Y-37000000D02*
X92100000Y-37000000D01*
X92100000Y-23000000D02*
X91100000Y-23000000D01*
X104100000Y-37000000D02*
X105100000Y-37000000D01*
X105100000Y-23000000D02*
X104100000Y-23000000D01*
X105100000Y-23000000D02*
X105100000Y-24000000D01*
X105100000Y-36000000D02*
X105100000Y-37000000D01*
X148250000Y-24000000D02*
X148250000Y-23000000D01*
X148250000Y-37000000D02*
X148250000Y-36000000D01*
X148250000Y-37000000D02*
X149250000Y-37000000D01*
X149250000Y-23000000D02*
X148250000Y-23000000D01*
X161250000Y-37000000D02*
X162250000Y-37000000D01*
X162250000Y-23000000D02*
X161250000Y-23000000D01*
X162250000Y-23000000D02*
X162250000Y-24000000D01*
X162250000Y-36000000D02*
X162250000Y-37000000D01*
X281600000Y-24000000D02*
X281600000Y-23000000D01*
X281600000Y-37000000D02*
X281600000Y-36000000D01*
X281600000Y-37000000D02*
X282600000Y-37000000D01*
X282600000Y-23000000D02*
X281600000Y-23000000D01*
X294600000Y-37000000D02*
X295600000Y-37000000D01*
X295600000Y-23000000D02*
X294600000Y-23000000D01*
X295600000Y-23000000D02*
X295600000Y-24000000D01*
X295600000Y-36000000D02*
X295600000Y-37000000D01*
X55381250Y-100200000D02*
X55381250Y-99200000D01*
X55381250Y-113200000D02*
X55381250Y-112200000D01*
X55381250Y-113200000D02*
X56381250Y-113200000D01*
X56381250Y-99200000D02*
X55381250Y-99200000D01*
X68381250Y-113200000D02*
X69381250Y-113200000D01*
X69381250Y-99200000D02*
X68381250Y-99200000D01*
X69381250Y-99200000D02*
X69381250Y-100200000D01*
X69381250Y-112200000D02*
X69381250Y-113200000D01*
X343511090Y-100200000D02*
X343511090Y-99200000D01*
X343511090Y-113200000D02*
X343511090Y-112200000D01*
X343511090Y-113200000D02*
X344511090Y-113200000D01*
X344511090Y-99200000D02*
X343511090Y-99200000D01*
X356511090Y-113200000D02*
X357511090Y-113200000D01*
X357511090Y-99200000D02*
X356511090Y-99200000D01*
X357511090Y-99200000D02*
X357511090Y-100200000D01*
X357511090Y-112200000D02*
X357511090Y-113200000D01*
X210162450Y-81150000D02*
X210162450Y-80150000D01*
X210162450Y-94150000D02*
X210162450Y-93150000D01*
X210162450Y-94150000D02*
X211162450Y-94150000D01*
X211162450Y-80150000D02*
X210162450Y-80150000D01*
X223162450Y-94150000D02*
X224162450Y-94150000D01*
X224162450Y-80150000D02*
X223162450Y-80150000D01*
X224162450Y-80150000D02*
X224162450Y-81150000D01*
X224162450Y-93150000D02*
X224162450Y-94150000D01*
X307793635Y-62100000D02*
X307793635Y-61100000D01*
X307793635Y-75100000D02*
X307793635Y-74100000D01*
X307793635Y-75100000D02*
X308793635Y-75100000D01*
X308793635Y-61100000D02*
X307793635Y-61100000D01*
X320793635Y-75100000D02*
X321793635Y-75100000D01*
X321793635Y-61100000D02*
X320793635Y-61100000D01*
X321793635Y-61100000D02*
X321793635Y-62100000D01*
X321793635Y-74100000D02*
X321793635Y-75100000D01*
X229212450Y-81150000D02*
X229212450Y-80150000D01*
X229212450Y-94150000D02*
X229212450Y-93150000D01*
X229212450Y-94150000D02*
X230212450Y-94150000D01*
X230212450Y-80150000D02*
X229212450Y-80150000D01*
X242212450Y-94150000D02*
X243212450Y-94150000D01*
X243212450Y-80150000D02*
X242212450Y-80150000D01*
X243212450Y-80150000D02*
X243212450Y-81150000D01*
X243212450Y-93150000D02*
X243212450Y-94150000D01*
X362562500Y-43050000D02*
X362562500Y-42050000D01*
X362562500Y-56050000D02*
X362562500Y-55050000D01*
X362562500Y-56050000D02*
X363562500Y-56050000D01*
X363562500Y-42050000D02*
X362562500Y-42050000D01*
X375562500Y-56050000D02*
X376562500Y-56050000D01*
X376562500Y-42050000D02*
X375562500Y-42050000D01*
X376562500Y-42050000D02*
X376562500Y-43050000D01*
X376562500Y-55050000D02*
X376562500Y-56050000D01*
X95862450Y-81150000D02*
X95862450Y-80150000D01*
X95862450Y-94150000D02*
X95862450Y-93150000D01*
X95862450Y-94150000D02*
X96862450Y-94150000D01*
X96862450Y-80150000D02*
X95862450Y-80150000D01*
X108862450Y-94150000D02*
X109862450Y-94150000D01*
X109862450Y-80150000D02*
X108862450Y-80150000D01*
X109862450Y-80150000D02*
X109862450Y-81150000D01*
X109862450Y-93150000D02*
X109862450Y-94150000D01*
X293503740Y-100200000D02*
X293503740Y-99200000D01*
X293503740Y-113200000D02*
X293503740Y-112200000D01*
X293503740Y-113200000D02*
X294503740Y-113200000D01*
X294503740Y-99200000D02*
X293503740Y-99200000D01*
X306503740Y-113200000D02*
X307503740Y-113200000D01*
X307503740Y-99200000D02*
X306503740Y-99200000D01*
X307503740Y-99200000D02*
X307503740Y-100200000D01*
X307503740Y-112200000D02*
X307503740Y-113200000D01*
X57762500Y-43050000D02*
X57762500Y-42050000D01*
X57762500Y-56050000D02*
X57762500Y-55050000D01*
X57762500Y-56050000D02*
X58762500Y-56050000D01*
X58762500Y-42050000D02*
X57762500Y-42050000D01*
X70762500Y-56050000D02*
X71762500Y-56050000D01*
X71762500Y-42050000D02*
X70762500Y-42050000D01*
X71762500Y-42050000D02*
X71762500Y-43050000D01*
X71762500Y-55050000D02*
X71762500Y-56050000D01*
X257788135Y-62100000D02*
X257788135Y-61100000D01*
X257788135Y-75100000D02*
X257788135Y-74100000D01*
X257788135Y-75100000D02*
X258788135Y-75100000D01*
X258788135Y-61100000D02*
X257788135Y-61100000D01*
X270788135Y-75100000D02*
X271788135Y-75100000D01*
X271788135Y-61100000D02*
X270788135Y-61100000D01*
X271788135Y-61100000D02*
X271788135Y-62100000D01*
X271788135Y-74100000D02*
X271788135Y-75100000D01*
X129200000Y-24000000D02*
X129200000Y-23000000D01*
X129200000Y-37000000D02*
X129200000Y-36000000D01*
X129200000Y-37000000D02*
X130200000Y-37000000D01*
X130200000Y-23000000D02*
X129200000Y-23000000D01*
X142200000Y-37000000D02*
X143200000Y-37000000D01*
X143200000Y-23000000D02*
X142200000Y-23000000D01*
X143200000Y-23000000D02*
X143200000Y-24000000D01*
X143200000Y-36000000D02*
X143200000Y-37000000D01*
X81574920Y-43050000D02*
X81574920Y-42050000D01*
X81574920Y-56050000D02*
X81574920Y-55050000D01*
X81574920Y-56050000D02*
X82574920Y-56050000D01*
X82574920Y-42050000D02*
X81574920Y-42050000D01*
X94574920Y-56050000D02*
X95574920Y-56050000D01*
X95574920Y-42050000D02*
X94574920Y-42050000D01*
X95574920Y-42050000D02*
X95574920Y-43050000D01*
X95574920Y-55050000D02*
X95574920Y-56050000D01*
X262550000Y-24000000D02*
X262550000Y-23000000D01*
X262550000Y-37000000D02*
X262550000Y-36000000D01*
X262550000Y-37000000D02*
X263550000Y-37000000D01*
X263550000Y-23000000D02*
X262550000Y-23000000D01*
X275550000Y-37000000D02*
X276550000Y-37000000D01*
X276550000Y-23000000D02*
X275550000Y-23000000D01*
X276550000Y-23000000D02*
X276550000Y-24000000D01*
X276550000Y-36000000D02*
X276550000Y-37000000D01*
X276838135Y-62100000D02*
X276838135Y-61100000D01*
X276838135Y-75100000D02*
X276838135Y-74100000D01*
X276838135Y-75100000D02*
X277838135Y-75100000D01*
X277838135Y-61100000D02*
X276838135Y-61100000D01*
X289838135Y-75100000D02*
X290838135Y-75100000D01*
X290838135Y-61100000D02*
X289838135Y-61100000D01*
X290838135Y-61100000D02*
X290838135Y-62100000D01*
X290838135Y-74100000D02*
X290838135Y-75100000D01*
X314937420Y-43050000D02*
X314937420Y-42050000D01*
X314937420Y-56050000D02*
X314937420Y-55050000D01*
X314937420Y-56050000D02*
X315937420Y-56050000D01*
X315937420Y-42050000D02*
X314937420Y-42050000D01*
X327937420Y-56050000D02*
X328937420Y-56050000D01*
X328937420Y-42050000D02*
X327937420Y-42050000D01*
X328937420Y-42050000D02*
X328937420Y-43050000D01*
X328937420Y-55050000D02*
X328937420Y-56050000D01*
X162538135Y-62100000D02*
X162538135Y-61100000D01*
X162538135Y-75100000D02*
X162538135Y-74100000D01*
X162538135Y-75100000D02*
X163538135Y-75100000D01*
X163538135Y-61100000D02*
X162538135Y-61100000D01*
X175538135Y-75100000D02*
X176538135Y-75100000D01*
X176538135Y-61100000D02*
X175538135Y-61100000D01*
X176538135Y-61100000D02*
X176538135Y-62100000D01*
X176538135Y-74100000D02*
X176538135Y-75100000D01*
X72050000Y-24000000D02*
X72050000Y-23000000D01*
X72050000Y-37000000D02*
X72050000Y-36000000D01*
X72050000Y-37000000D02*
X73050000Y-37000000D01*
X73050000Y-23000000D02*
X72050000Y-23000000D01*
X85050000Y-37000000D02*
X86050000Y-37000000D01*
X86050000Y-23000000D02*
X85050000Y-23000000D01*
X86050000Y-23000000D02*
X86050000Y-24000000D01*
X86050000Y-36000000D02*
X86050000Y-37000000D01*
D11*
X30370000Y-54940000D02*
X30370000Y-56190000D01*
X30670000Y-55240000D02*
X30670000Y-59960000D01*
X30670000Y-56550000D02*
X31280000Y-56550000D01*
X30670000Y-57850000D02*
X31280000Y-57850000D01*
X30670000Y-59960000D02*
X36790000Y-59960000D01*
X31280000Y-55850000D02*
X31280000Y-59350000D01*
X31280000Y-59350000D02*
X36180000Y-59350000D01*
X31620000Y-54940000D02*
X30370000Y-54940000D01*
X32130000Y-55040000D02*
X32130000Y-55240000D01*
X32430000Y-55040000D02*
X32130000Y-55040000D01*
X32430000Y-55140000D02*
X32130000Y-55140000D01*
X32430000Y-55240000D02*
X32430000Y-55040000D01*
X33230000Y-55240000D02*
X33230000Y-55850000D01*
X33230000Y-55850000D02*
X31280000Y-55850000D01*
X33630000Y-58850000D02*
X33830000Y-58850000D01*
X33630000Y-59350000D02*
X33630000Y-58850000D01*
X33730000Y-59350000D02*
X33730000Y-58850000D01*
X33830000Y-58850000D02*
X33830000Y-59350000D01*
X34230000Y-55850000D02*
X34230000Y-55240000D01*
X36180000Y-55850000D02*
X34230000Y-55850000D01*
X36180000Y-59350000D02*
X36180000Y-55850000D01*
X36790000Y-55240000D02*
X30670000Y-55240000D01*
X36790000Y-56550000D02*
X36180000Y-56550000D01*
X36790000Y-57850000D02*
X36180000Y-57850000D01*
X36790000Y-59960000D02*
X36790000Y-55240000D01*
D10*
X343511090Y-81150000D02*
X343511090Y-80150000D01*
X343511090Y-94150000D02*
X343511090Y-93150000D01*
X343511090Y-94150000D02*
X344511090Y-94150000D01*
X344511090Y-80150000D02*
X343511090Y-80150000D01*
X356511090Y-94150000D02*
X357511090Y-94150000D01*
X357511090Y-80150000D02*
X356511090Y-80150000D01*
X357511090Y-80150000D02*
X357511090Y-81150000D01*
X357511090Y-93150000D02*
X357511090Y-94150000D01*
X343512500Y-43050000D02*
X343512500Y-42050000D01*
X343512500Y-56050000D02*
X343512500Y-55050000D01*
X343512500Y-56050000D02*
X344512500Y-56050000D01*
X344512500Y-42050000D02*
X343512500Y-42050000D01*
X356512500Y-56050000D02*
X357512500Y-56050000D01*
X357512500Y-42050000D02*
X356512500Y-42050000D01*
X357512500Y-42050000D02*
X357512500Y-43050000D01*
X357512500Y-55050000D02*
X357512500Y-56050000D01*
X362562500Y-24000000D02*
X362562500Y-23000000D01*
X362562500Y-37000000D02*
X362562500Y-36000000D01*
X362562500Y-37000000D02*
X363562500Y-37000000D01*
X363562500Y-23000000D02*
X362562500Y-23000000D01*
X375562500Y-37000000D02*
X376562500Y-37000000D01*
X376562500Y-23000000D02*
X375562500Y-23000000D01*
X376562500Y-23000000D02*
X376562500Y-24000000D01*
X376562500Y-36000000D02*
X376562500Y-37000000D01*
X310175000Y-24000000D02*
X310175000Y-23000000D01*
X310175000Y-37000000D02*
X310175000Y-36000000D01*
X310175000Y-37000000D02*
X311175000Y-37000000D01*
X311175000Y-23000000D02*
X310175000Y-23000000D01*
X323175000Y-37000000D02*
X324175000Y-37000000D01*
X324175000Y-23000000D02*
X323175000Y-23000000D01*
X324175000Y-23000000D02*
X324175000Y-24000000D01*
X324175000Y-36000000D02*
X324175000Y-37000000D01*
X143488135Y-62100000D02*
X143488135Y-61100000D01*
X143488135Y-75100000D02*
X143488135Y-74100000D01*
X143488135Y-75100000D02*
X144488135Y-75100000D01*
X144488135Y-61100000D02*
X143488135Y-61100000D01*
X156488135Y-75100000D02*
X157488135Y-75100000D01*
X157488135Y-61100000D02*
X156488135Y-61100000D01*
X157488135Y-61100000D02*
X157488135Y-62100000D01*
X157488135Y-74100000D02*
X157488135Y-75100000D01*
X219688135Y-62100000D02*
X219688135Y-61100000D01*
X219688135Y-75100000D02*
X219688135Y-74100000D01*
X219688135Y-75100000D02*
X220688135Y-75100000D01*
X220688135Y-61100000D02*
X219688135Y-61100000D01*
X232688135Y-75100000D02*
X233688135Y-75100000D01*
X233688135Y-61100000D02*
X232688135Y-61100000D01*
X233688135Y-61100000D02*
X233688135Y-62100000D01*
X233688135Y-74100000D02*
X233688135Y-75100000D01*
X233974920Y-43050000D02*
X233974920Y-42050000D01*
X233974920Y-56050000D02*
X233974920Y-55050000D01*
X233974920Y-56050000D02*
X234974920Y-56050000D01*
X234974920Y-42050000D02*
X233974920Y-42050000D01*
X246974920Y-56050000D02*
X247974920Y-56050000D01*
X247974920Y-42050000D02*
X246974920Y-42050000D01*
X247974920Y-42050000D02*
X247974920Y-43050000D01*
X247974920Y-55050000D02*
X247974920Y-56050000D01*
X153012450Y-81150000D02*
X153012450Y-80150000D01*
X153012450Y-94150000D02*
X153012450Y-93150000D01*
X153012450Y-94150000D02*
X154012450Y-94150000D01*
X154012450Y-80150000D02*
X153012450Y-80150000D01*
X166012450Y-94150000D02*
X167012450Y-94150000D01*
X167012450Y-80150000D02*
X166012450Y-80150000D01*
X167012450Y-80150000D02*
X167012450Y-81150000D01*
X167012450Y-93150000D02*
X167012450Y-94150000D01*
X195874920Y-43050000D02*
X195874920Y-42050000D01*
X195874920Y-56050000D02*
X195874920Y-55050000D01*
X195874920Y-56050000D02*
X196874920Y-56050000D01*
X196874920Y-42050000D02*
X195874920Y-42050000D01*
X208874920Y-56050000D02*
X209874920Y-56050000D01*
X209874920Y-42050000D02*
X208874920Y-42050000D01*
X209874920Y-42050000D02*
X209874920Y-43050000D01*
X209874920Y-55050000D02*
X209874920Y-56050000D01*
X238738135Y-62100000D02*
X238738135Y-61100000D01*
X238738135Y-75100000D02*
X238738135Y-74100000D01*
X238738135Y-75100000D02*
X239738135Y-75100000D01*
X239738135Y-61100000D02*
X238738135Y-61100000D01*
X251738135Y-75100000D02*
X252738135Y-75100000D01*
X252738135Y-61100000D02*
X251738135Y-61100000D01*
X252738135Y-61100000D02*
X252738135Y-62100000D01*
X252738135Y-74100000D02*
X252738135Y-75100000D01*
X243500000Y-24000000D02*
X243500000Y-23000000D01*
X243500000Y-37000000D02*
X243500000Y-36000000D01*
X243500000Y-37000000D02*
X244500000Y-37000000D01*
X244500000Y-23000000D02*
X243500000Y-23000000D01*
X256500000Y-37000000D02*
X257500000Y-37000000D01*
X257500000Y-23000000D02*
X256500000Y-23000000D01*
X257500000Y-23000000D02*
X257500000Y-24000000D01*
X257500000Y-36000000D02*
X257500000Y-37000000D01*
X291124920Y-43050000D02*
X291124920Y-42050000D01*
X291124920Y-56050000D02*
X291124920Y-55050000D01*
X291124920Y-56050000D02*
X292124920Y-56050000D01*
X292124920Y-42050000D02*
X291124920Y-42050000D01*
X304124920Y-56050000D02*
X305124920Y-56050000D01*
X305124920Y-42050000D02*
X304124920Y-42050000D01*
X305124920Y-42050000D02*
X305124920Y-43050000D01*
X305124920Y-55050000D02*
X305124920Y-56050000D01*
X343512500Y-24000000D02*
X343512500Y-23000000D01*
X343512500Y-37000000D02*
X343512500Y-36000000D01*
X343512500Y-37000000D02*
X344512500Y-37000000D01*
X344512500Y-23000000D02*
X343512500Y-23000000D01*
X356512500Y-37000000D02*
X357512500Y-37000000D01*
X357512500Y-23000000D02*
X356512500Y-23000000D01*
X357512500Y-23000000D02*
X357512500Y-24000000D01*
X357512500Y-36000000D02*
X357512500Y-37000000D01*
X245879740Y-100200000D02*
X245879740Y-99200000D01*
X245879740Y-113200000D02*
X245879740Y-112200000D01*
X245879740Y-113200000D02*
X246879740Y-113200000D01*
X246879740Y-99200000D02*
X245879740Y-99200000D01*
X258879740Y-113200000D02*
X259879740Y-113200000D01*
X259879740Y-99200000D02*
X258879740Y-99200000D01*
X259879740Y-99200000D02*
X259879740Y-100200000D01*
X259879740Y-112200000D02*
X259879740Y-113200000D01*
X174441740Y-100200000D02*
X174441740Y-99200000D01*
X174441740Y-113200000D02*
X174441740Y-112200000D01*
X174441740Y-113200000D02*
X175441740Y-113200000D01*
X175441740Y-99200000D02*
X174441740Y-99200000D01*
X187441740Y-113200000D02*
X188441740Y-113200000D01*
X188441740Y-99200000D02*
X187441740Y-99200000D01*
X188441740Y-99200000D02*
X188441740Y-100200000D01*
X188441740Y-112200000D02*
X188441740Y-113200000D01*
X267312450Y-81150000D02*
X267312450Y-80150000D01*
X267312450Y-94150000D02*
X267312450Y-93150000D01*
X267312450Y-94150000D02*
X268312450Y-94150000D01*
X268312450Y-80150000D02*
X267312450Y-80150000D01*
X280312450Y-94150000D02*
X281312450Y-94150000D01*
X281312450Y-80150000D02*
X280312450Y-80150000D01*
X281312450Y-80150000D02*
X281312450Y-81150000D01*
X281312450Y-93150000D02*
X281312450Y-94150000D01*
X303030450Y-81150000D02*
X303030450Y-80150000D01*
X303030450Y-94150000D02*
X303030450Y-93150000D01*
X303030450Y-94150000D02*
X304030450Y-94150000D01*
X304030450Y-80150000D02*
X303030450Y-80150000D01*
X316030450Y-94150000D02*
X317030450Y-94150000D01*
X317030450Y-80150000D02*
X316030450Y-80150000D01*
X317030450Y-80150000D02*
X317030450Y-81150000D01*
X317030450Y-93150000D02*
X317030450Y-94150000D01*
X248262450Y-81150000D02*
X248262450Y-80150000D01*
X248262450Y-94150000D02*
X248262450Y-93150000D01*
X248262450Y-94150000D02*
X249262450Y-94150000D01*
X249262450Y-80150000D02*
X248262450Y-80150000D01*
X261262450Y-94150000D02*
X262262450Y-94150000D01*
X262262450Y-80150000D02*
X261262450Y-80150000D01*
X262262450Y-80150000D02*
X262262450Y-81150000D01*
X262262450Y-93150000D02*
X262262450Y-94150000D01*
X100624920Y-43050000D02*
X100624920Y-42050000D01*
X100624920Y-56050000D02*
X100624920Y-55050000D01*
X100624920Y-56050000D02*
X101624920Y-56050000D01*
X101624920Y-42050000D02*
X100624920Y-42050000D01*
X113624920Y-56050000D02*
X114624920Y-56050000D01*
X114624920Y-42050000D02*
X113624920Y-42050000D01*
X114624920Y-42050000D02*
X114624920Y-43050000D01*
X114624920Y-55050000D02*
X114624920Y-56050000D01*
X110150000Y-24000000D02*
X110150000Y-23000000D01*
X110150000Y-37000000D02*
X110150000Y-36000000D01*
X110150000Y-37000000D02*
X111150000Y-37000000D01*
X111150000Y-23000000D02*
X110150000Y-23000000D01*
X123150000Y-37000000D02*
X124150000Y-37000000D01*
X124150000Y-23000000D02*
X123150000Y-23000000D01*
X124150000Y-23000000D02*
X124150000Y-24000000D01*
X124150000Y-36000000D02*
X124150000Y-37000000D01*
X133962450Y-81150000D02*
X133962450Y-80150000D01*
X133962450Y-94150000D02*
X133962450Y-93150000D01*
X133962450Y-94150000D02*
X134962450Y-94150000D01*
X134962450Y-80150000D02*
X133962450Y-80150000D01*
X146962450Y-94150000D02*
X147962450Y-94150000D01*
X147962450Y-80150000D02*
X146962450Y-80150000D01*
X147962450Y-80150000D02*
X147962450Y-81150000D01*
X147962450Y-93150000D02*
X147962450Y-94150000D01*
X138724920Y-43050000D02*
X138724920Y-42050000D01*
X138724920Y-56050000D02*
X138724920Y-55050000D01*
X138724920Y-56050000D02*
X139724920Y-56050000D01*
X139724920Y-42050000D02*
X138724920Y-42050000D01*
X151724920Y-56050000D02*
X152724920Y-56050000D01*
X152724920Y-42050000D02*
X151724920Y-42050000D01*
X152724920Y-42050000D02*
X152724920Y-43050000D01*
X152724920Y-55050000D02*
X152724920Y-56050000D01*
X119674920Y-43050000D02*
X119674920Y-42050000D01*
X119674920Y-56050000D02*
X119674920Y-55050000D01*
X119674920Y-56050000D02*
X120674920Y-56050000D01*
X120674920Y-42050000D02*
X119674920Y-42050000D01*
X132674920Y-56050000D02*
X133674920Y-56050000D01*
X133674920Y-42050000D02*
X132674920Y-42050000D01*
X133674920Y-42050000D02*
X133674920Y-43050000D01*
X133674920Y-55050000D02*
X133674920Y-56050000D01*
X124438135Y-62100000D02*
X124438135Y-61100000D01*
X124438135Y-75100000D02*
X124438135Y-74100000D01*
X124438135Y-75100000D02*
X125438135Y-75100000D01*
X125438135Y-61100000D02*
X124438135Y-61100000D01*
X137438135Y-75100000D02*
X138438135Y-75100000D01*
X138438135Y-61100000D02*
X137438135Y-61100000D01*
X138438135Y-61100000D02*
X138438135Y-62100000D01*
X138438135Y-74100000D02*
X138438135Y-75100000D01*
X64906250Y-81150000D02*
X64906250Y-80150000D01*
X64906250Y-94150000D02*
X64906250Y-93150000D01*
X64906250Y-94150000D02*
X65906250Y-94150000D01*
X65906250Y-80150000D02*
X64906250Y-80150000D01*
X77906250Y-94150000D02*
X78906250Y-94150000D01*
X78906250Y-80150000D02*
X77906250Y-80150000D01*
X78906250Y-80150000D02*
X78906250Y-81150000D01*
X78906250Y-93150000D02*
X78906250Y-94150000D01*
X269691740Y-100200000D02*
X269691740Y-99200000D01*
X269691740Y-113200000D02*
X269691740Y-112200000D01*
X269691740Y-113200000D02*
X270691740Y-113200000D01*
X270691740Y-99200000D02*
X269691740Y-99200000D01*
X282691740Y-113200000D02*
X283691740Y-113200000D01*
X283691740Y-99200000D02*
X282691740Y-99200000D01*
X283691740Y-99200000D02*
X283691740Y-100200000D01*
X283691740Y-112200000D02*
X283691740Y-113200000D01*
X86338135Y-62100000D02*
X86338135Y-61100000D01*
X86338135Y-75100000D02*
X86338135Y-74100000D01*
X86338135Y-75100000D02*
X87338135Y-75100000D01*
X87338135Y-61100000D02*
X86338135Y-61100000D01*
X99338135Y-75100000D02*
X100338135Y-75100000D01*
X100338135Y-61100000D02*
X99338135Y-61100000D01*
X100338135Y-61100000D02*
X100338135Y-62100000D01*
X100338135Y-74100000D02*
X100338135Y-75100000D01*
X103004740Y-100200000D02*
X103004740Y-99200000D01*
X103004740Y-113200000D02*
X103004740Y-112200000D01*
X103004740Y-113200000D02*
X104004740Y-113200000D01*
X104004740Y-99200000D02*
X103004740Y-99200000D01*
X116004740Y-113200000D02*
X117004740Y-113200000D01*
X117004740Y-99200000D02*
X116004740Y-99200000D01*
X117004740Y-99200000D02*
X117004740Y-100200000D01*
X117004740Y-112200000D02*
X117004740Y-113200000D01*
D11*
X31460000Y-85170000D02*
X39140000Y-85170000D01*
X39140000Y-87830000D02*
X39140000Y-85170000D01*
X31460000Y-87830000D02*
X31460000Y-85170000D01*
X31460000Y-87830000D02*
X39140000Y-87830000D01*
X30190000Y-87830000D02*
X28860000Y-87830000D01*
X28860000Y-87830000D02*
X28860000Y-86500000D01*
D10*
X181588135Y-62100000D02*
X181588135Y-61100000D01*
X181588135Y-75100000D02*
X181588135Y-74100000D01*
X181588135Y-75100000D02*
X182588135Y-75100000D01*
X182588135Y-61100000D02*
X181588135Y-61100000D01*
X194588135Y-75100000D02*
X195588135Y-75100000D01*
X195588135Y-61100000D02*
X194588135Y-61100000D01*
X195588135Y-61100000D02*
X195588135Y-62100000D01*
X195588135Y-74100000D02*
X195588135Y-75100000D01*
X167300000Y-24000000D02*
X167300000Y-23000000D01*
X167300000Y-37000000D02*
X167300000Y-36000000D01*
X167300000Y-37000000D02*
X168300000Y-37000000D01*
X168300000Y-23000000D02*
X167300000Y-23000000D01*
X180300000Y-37000000D02*
X181300000Y-37000000D01*
X181300000Y-23000000D02*
X180300000Y-23000000D01*
X181300000Y-23000000D02*
X181300000Y-24000000D01*
X181300000Y-36000000D02*
X181300000Y-37000000D01*
X60143750Y-62100000D02*
X60143750Y-61100000D01*
X60143750Y-75100000D02*
X60143750Y-74100000D01*
X60143750Y-75100000D02*
X61143750Y-75100000D01*
X61143750Y-61100000D02*
X60143750Y-61100000D01*
X73143750Y-75100000D02*
X74143750Y-75100000D01*
X74143750Y-61100000D02*
X73143750Y-61100000D01*
X74143750Y-61100000D02*
X74143750Y-62100000D01*
X74143750Y-74100000D02*
X74143750Y-75100000D01*
X114912450Y-81150000D02*
X114912450Y-80150000D01*
X114912450Y-94150000D02*
X114912450Y-93150000D01*
X114912450Y-94150000D02*
X115912450Y-94150000D01*
X115912450Y-80150000D02*
X114912450Y-80150000D01*
X127912450Y-94150000D02*
X128912450Y-94150000D01*
X128912450Y-80150000D02*
X127912450Y-80150000D01*
X128912450Y-80150000D02*
X128912450Y-81150000D01*
X128912450Y-93150000D02*
X128912450Y-94150000D01*
X157774920Y-43050000D02*
X157774920Y-42050000D01*
X157774920Y-56050000D02*
X157774920Y-55050000D01*
X157774920Y-56050000D02*
X158774920Y-56050000D01*
X158774920Y-42050000D02*
X157774920Y-42050000D01*
X170774920Y-56050000D02*
X171774920Y-56050000D01*
X171774920Y-42050000D02*
X170774920Y-42050000D01*
X171774920Y-42050000D02*
X171774920Y-43050000D01*
X171774920Y-55050000D02*
X171774920Y-56050000D01*
X105388135Y-62100000D02*
X105388135Y-61100000D01*
X105388135Y-75100000D02*
X105388135Y-74100000D01*
X105388135Y-75100000D02*
X106388135Y-75100000D01*
X106388135Y-61100000D02*
X105388135Y-61100000D01*
X118388135Y-75100000D02*
X119388135Y-75100000D01*
X119388135Y-61100000D02*
X118388135Y-61100000D01*
X119388135Y-61100000D02*
X119388135Y-62100000D01*
X119388135Y-74100000D02*
X119388135Y-75100000D01*
X205400000Y-24000000D02*
X205400000Y-23000000D01*
X205400000Y-37000000D02*
X205400000Y-36000000D01*
X205400000Y-37000000D02*
X206400000Y-37000000D01*
X206400000Y-23000000D02*
X205400000Y-23000000D01*
X218400000Y-37000000D02*
X219400000Y-37000000D01*
X219400000Y-23000000D02*
X218400000Y-23000000D01*
X219400000Y-23000000D02*
X219400000Y-24000000D01*
X219400000Y-36000000D02*
X219400000Y-37000000D01*
X214924920Y-43050000D02*
X214924920Y-42050000D01*
X214924920Y-56050000D02*
X214924920Y-55050000D01*
X214924920Y-56050000D02*
X215924920Y-56050000D01*
X215924920Y-42050000D02*
X214924920Y-42050000D01*
X227924920Y-56050000D02*
X228924920Y-56050000D01*
X228924920Y-42050000D02*
X227924920Y-42050000D01*
X228924920Y-42050000D02*
X228924920Y-43050000D01*
X228924920Y-55050000D02*
X228924920Y-56050000D01*
X362561090Y-100200000D02*
X362561090Y-99200000D01*
X362561090Y-113200000D02*
X362561090Y-112200000D01*
X362561090Y-113200000D02*
X363561090Y-113200000D01*
X363561090Y-99200000D02*
X362561090Y-99200000D01*
X375561090Y-113200000D02*
X376561090Y-113200000D01*
X376561090Y-99200000D02*
X375561090Y-99200000D01*
X376561090Y-99200000D02*
X376561090Y-100200000D01*
X376561090Y-112200000D02*
X376561090Y-113200000D01*
X172062450Y-81150000D02*
X172062450Y-80150000D01*
X172062450Y-94150000D02*
X172062450Y-93150000D01*
X172062450Y-94150000D02*
X173062450Y-94150000D01*
X173062450Y-80150000D02*
X172062450Y-80150000D01*
X185062450Y-94150000D02*
X186062450Y-94150000D01*
X186062450Y-80150000D02*
X185062450Y-80150000D01*
X186062450Y-80150000D02*
X186062450Y-81150000D01*
X186062450Y-93150000D02*
X186062450Y-94150000D01*
X272074920Y-43050000D02*
X272074920Y-42050000D01*
X272074920Y-56050000D02*
X272074920Y-55050000D01*
X272074920Y-56050000D02*
X273074920Y-56050000D01*
X273074920Y-42050000D02*
X272074920Y-42050000D01*
X285074920Y-56050000D02*
X286074920Y-56050000D01*
X286074920Y-42050000D02*
X285074920Y-42050000D01*
X286074920Y-42050000D02*
X286074920Y-43050000D01*
X286074920Y-55050000D02*
X286074920Y-56050000D01*
X253024920Y-43050000D02*
X253024920Y-42050000D01*
X253024920Y-56050000D02*
X253024920Y-55050000D01*
X253024920Y-56050000D02*
X254024920Y-56050000D01*
X254024920Y-42050000D02*
X253024920Y-42050000D01*
X266024920Y-56050000D02*
X267024920Y-56050000D01*
X267024920Y-42050000D02*
X266024920Y-42050000D01*
X267024920Y-42050000D02*
X267024920Y-43050000D01*
X267024920Y-55050000D02*
X267024920Y-56050000D01*
D11*
X341037500Y-74100000D02*
X341037500Y-62100000D01*
X379037500Y-62100000D02*
X341037500Y-62100000D01*
X379037500Y-74100000D02*
X341037500Y-74100000D01*
X379037500Y-74100000D02*
X379037500Y-62100000D01*
D10*
X186350000Y-24000000D02*
X186350000Y-23000000D01*
X186350000Y-37000000D02*
X186350000Y-36000000D01*
X186350000Y-37000000D02*
X187350000Y-37000000D01*
X187350000Y-23000000D02*
X186350000Y-23000000D01*
X199350000Y-37000000D02*
X200350000Y-37000000D01*
X200350000Y-23000000D02*
X199350000Y-23000000D01*
X200350000Y-23000000D02*
X200350000Y-24000000D01*
X200350000Y-36000000D02*
X200350000Y-37000000D01*
X224450000Y-24000000D02*
X224450000Y-23000000D01*
X224450000Y-37000000D02*
X224450000Y-36000000D01*
X224450000Y-37000000D02*
X225450000Y-37000000D01*
X225450000Y-23000000D02*
X224450000Y-23000000D01*
X237450000Y-37000000D02*
X238450000Y-37000000D01*
X238450000Y-23000000D02*
X237450000Y-23000000D01*
X238450000Y-23000000D02*
X238450000Y-24000000D01*
X238450000Y-36000000D02*
X238450000Y-37000000D01*
%LPC*%
D14*
X31037500Y-83500000D03*
X28962500Y-83500000D03*
D15*
X337000000Y-69500000D03*
X337000000Y-71575000D03*
D16*
X337500000Y-38500000D03*
X337500000Y-76600000D03*
D17*
X26380000Y-20740000D03*
D18*
X26380000Y-23280000D03*
X26380000Y-25820000D03*
X26380000Y-28360000D03*
X26380000Y-30900000D03*
X26380000Y-33440000D03*
X26380000Y-35980000D03*
X26380000Y-38520000D03*
X26380000Y-41060000D03*
X26380000Y-43600000D03*
X26380000Y-46140000D03*
X26380000Y-48680000D03*
X26380000Y-51220000D03*
X41620000Y-51220000D03*
X41620000Y-48680000D03*
X41620000Y-46140000D03*
X41620000Y-43600000D03*
X41620000Y-41060000D03*
X41620000Y-38520000D03*
X41620000Y-35980000D03*
X41620000Y-33440000D03*
X41620000Y-30900000D03*
X41620000Y-28360000D03*
X41620000Y-25820000D03*
X41620000Y-23280000D03*
X41620000Y-20740000D03*
X29460000Y-48125000D03*
X32000000Y-48125000D03*
X34540000Y-48125000D03*
D19*
X34000000Y-62400000D03*
X34000000Y-73600000D03*
D20*
X26500000Y-65500000D03*
D21*
X26500000Y-70500000D03*
X26500000Y-68000000D03*
X41000000Y-70500000D03*
X41000000Y-65500000D03*
D22*
X26500000Y-79000000D03*
X41500000Y-79000000D03*
D23*
X31000000Y-78950000D03*
X34000000Y-79000000D03*
X37000000Y-79000000D03*
D24*
X54920000Y-30000000D03*
D22*
X56190000Y-27460000D03*
D25*
X60000000Y-30000000D03*
D22*
X62540000Y-24920000D03*
D24*
X65080000Y-30000000D03*
D26*
X45000000Y-64100000D03*
D27*
X45000000Y-66425000D03*
X45000000Y-69575000D03*
D28*
X45000000Y-71900000D03*
D16*
X22381300Y-20381300D03*
X22381300Y-115818700D03*
X379086090Y-115725000D03*
X379086090Y-20475000D03*
X50381300Y-20381300D03*
X50381300Y-115818700D03*
X119529740Y-115818700D03*
X255263135Y-76600000D03*
X310028740Y-115818700D03*
X288599920Y-57550000D03*
D29*
X34000000Y-42000000D03*
D24*
X326380240Y-106200000D03*
D22*
X327650240Y-103660000D03*
D25*
X331460240Y-106200000D03*
D22*
X334000240Y-101120000D03*
D24*
X336540240Y-106200000D03*
D16*
X243354740Y-115818700D03*
D24*
X81112995Y-106200000D03*
D22*
X82382995Y-103660000D03*
D25*
X86192995Y-106200000D03*
D22*
X88732995Y-101120000D03*
D24*
X91272995Y-106200000D03*
X202558135Y-68100000D03*
D22*
X203828135Y-65560000D03*
D25*
X207638135Y-68100000D03*
D22*
X210178135Y-63020000D03*
D24*
X212718135Y-68100000D03*
X193032450Y-87150000D03*
D22*
X194302450Y-84610000D03*
D25*
X198112450Y-87150000D03*
D22*
X200652450Y-82070000D03*
D24*
X203192450Y-87150000D03*
X178744920Y-49050000D03*
D22*
X180014920Y-46510000D03*
D25*
X183824920Y-49050000D03*
D22*
X186364920Y-43970000D03*
D24*
X188904920Y-49050000D03*
X93020000Y-30000000D03*
D22*
X94290000Y-27460000D03*
D25*
X98100000Y-30000000D03*
D22*
X100640000Y-24920000D03*
D24*
X103180000Y-30000000D03*
X150170000Y-30000000D03*
D22*
X151440000Y-27460000D03*
D25*
X155250000Y-30000000D03*
D22*
X157790000Y-24920000D03*
D24*
X160330000Y-30000000D03*
D16*
X22381300Y-57550000D03*
D24*
X283520000Y-30000000D03*
D22*
X284790000Y-27460000D03*
D25*
X288600000Y-30000000D03*
D22*
X291140000Y-24920000D03*
D24*
X293680000Y-30000000D03*
X57301250Y-106200000D03*
D22*
X58571250Y-103660000D03*
D25*
X62381250Y-106200000D03*
D22*
X64921250Y-101120000D03*
D24*
X67461250Y-106200000D03*
X345431090Y-106200000D03*
D22*
X346701090Y-103660000D03*
D25*
X350511090Y-106200000D03*
D22*
X353051090Y-101120000D03*
D24*
X355591090Y-106200000D03*
X212082450Y-87150000D03*
D22*
X213352450Y-84610000D03*
D25*
X217162450Y-87150000D03*
D22*
X219702450Y-82070000D03*
D24*
X222242450Y-87150000D03*
X309713635Y-68100000D03*
D22*
X310983635Y-65560000D03*
D25*
X314793635Y-68100000D03*
D22*
X317333635Y-63020000D03*
D24*
X319873635Y-68100000D03*
X231132450Y-87150000D03*
D22*
X232402450Y-84610000D03*
D25*
X236212450Y-87150000D03*
D22*
X238752450Y-82070000D03*
D24*
X241292450Y-87150000D03*
X364482500Y-49050000D03*
D22*
X365752500Y-46510000D03*
D25*
X369562500Y-49050000D03*
D22*
X372102500Y-43970000D03*
D24*
X374642500Y-49050000D03*
D25*
X83806250Y-95405000D03*
X60006250Y-95405000D03*
D30*
X83806250Y-80165000D03*
X60006250Y-80165000D03*
D24*
X97782450Y-87150000D03*
D22*
X99052450Y-84610000D03*
D25*
X102862450Y-87150000D03*
D22*
X105402450Y-82070000D03*
D24*
X107942450Y-87150000D03*
X295423740Y-106200000D03*
D22*
X296693740Y-103660000D03*
D25*
X300503740Y-106200000D03*
D22*
X303043740Y-101120000D03*
D24*
X305583740Y-106200000D03*
X59682500Y-49050000D03*
D22*
X60952500Y-46510000D03*
D25*
X64762500Y-49050000D03*
D22*
X67302500Y-43970000D03*
D24*
X69842500Y-49050000D03*
X259708135Y-68100000D03*
D22*
X260978135Y-65560000D03*
D25*
X264788135Y-68100000D03*
D22*
X267328135Y-63020000D03*
D24*
X269868135Y-68100000D03*
X131120000Y-30000000D03*
D22*
X132390000Y-27460000D03*
D25*
X136200000Y-30000000D03*
D22*
X138740000Y-24920000D03*
D24*
X141280000Y-30000000D03*
X83494920Y-49050000D03*
D22*
X84764920Y-46510000D03*
D25*
X88574920Y-49050000D03*
D22*
X91114920Y-43970000D03*
D24*
X93654920Y-49050000D03*
X264470000Y-30000000D03*
D22*
X265740000Y-27460000D03*
D25*
X269550000Y-30000000D03*
D22*
X272090000Y-24920000D03*
D24*
X274630000Y-30000000D03*
X278758135Y-68100000D03*
D22*
X280028135Y-65560000D03*
D25*
X283838135Y-68100000D03*
D22*
X286378135Y-63020000D03*
D24*
X288918135Y-68100000D03*
X316857420Y-49050000D03*
D22*
X318127420Y-46510000D03*
D25*
X321937420Y-49050000D03*
D22*
X324477420Y-43970000D03*
D24*
X327017420Y-49050000D03*
X164458135Y-68100000D03*
D22*
X165728135Y-65560000D03*
D25*
X169538135Y-68100000D03*
D22*
X172078135Y-63020000D03*
D24*
X174618135Y-68100000D03*
D16*
X221925000Y-20381300D03*
D24*
X73970000Y-30000000D03*
D22*
X75240000Y-27460000D03*
D25*
X79050000Y-30000000D03*
D22*
X81590000Y-24920000D03*
D24*
X84130000Y-30000000D03*
D16*
X179063135Y-76600000D03*
D31*
X32730000Y-57050000D03*
D32*
X34730000Y-57050000D03*
D24*
X345431090Y-87150000D03*
D22*
X346701090Y-84610000D03*
D25*
X350511090Y-87150000D03*
D22*
X353051090Y-82070000D03*
D24*
X355591090Y-87150000D03*
X345432500Y-49050000D03*
D22*
X346702500Y-46510000D03*
D25*
X350512500Y-49050000D03*
D22*
X353052500Y-43970000D03*
D24*
X355592500Y-49050000D03*
D16*
X145725000Y-20381300D03*
D24*
X364482500Y-30000000D03*
D22*
X365752500Y-27460000D03*
D25*
X369562500Y-30000000D03*
D22*
X372102500Y-24920000D03*
D24*
X374642500Y-30000000D03*
X312095000Y-30000000D03*
D22*
X313365000Y-27460000D03*
D25*
X317175000Y-30000000D03*
D22*
X319715000Y-24920000D03*
D24*
X322255000Y-30000000D03*
X145408135Y-68100000D03*
D22*
X146678135Y-65560000D03*
D25*
X150488135Y-68100000D03*
D22*
X153028135Y-63020000D03*
D24*
X155568135Y-68100000D03*
D30*
X133816590Y-99215000D03*
D25*
X133816590Y-114455000D03*
D30*
X229066590Y-99215000D03*
D25*
X229066590Y-114455000D03*
D24*
X221608135Y-68100000D03*
D22*
X222878135Y-65560000D03*
D25*
X226688135Y-68100000D03*
D22*
X229228135Y-63020000D03*
D24*
X231768135Y-68100000D03*
X235894920Y-49050000D03*
D22*
X237164920Y-46510000D03*
D25*
X240974920Y-49050000D03*
D22*
X243514920Y-43970000D03*
D24*
X246054920Y-49050000D03*
X154932450Y-87150000D03*
D22*
X156202450Y-84610000D03*
D25*
X160012450Y-87150000D03*
D22*
X162552450Y-82070000D03*
D24*
X165092450Y-87150000D03*
X197794920Y-49050000D03*
D22*
X199064920Y-46510000D03*
D25*
X202874920Y-49050000D03*
D22*
X205414920Y-43970000D03*
D24*
X207954920Y-49050000D03*
X240658135Y-68100000D03*
D22*
X241928135Y-65560000D03*
D25*
X245738135Y-68100000D03*
D22*
X248278135Y-63020000D03*
D24*
X250818135Y-68100000D03*
X245420000Y-30000000D03*
D22*
X246690000Y-27460000D03*
D25*
X250500000Y-30000000D03*
D22*
X253040000Y-24920000D03*
D24*
X255580000Y-30000000D03*
X293044920Y-49050000D03*
D22*
X294314920Y-46510000D03*
D25*
X298124920Y-49050000D03*
D22*
X300664920Y-43970000D03*
D24*
X303204920Y-49050000D03*
D16*
X379086090Y-57550000D03*
D24*
X345432500Y-30000000D03*
D22*
X346702500Y-27460000D03*
D25*
X350512500Y-30000000D03*
D22*
X353052500Y-24920000D03*
D24*
X355592500Y-30000000D03*
X247799740Y-106200000D03*
D22*
X249069740Y-103660000D03*
D25*
X252879740Y-106200000D03*
D22*
X255419740Y-101120000D03*
D24*
X257959740Y-106200000D03*
X176361740Y-106200000D03*
D22*
X177631740Y-103660000D03*
D25*
X181441740Y-106200000D03*
D22*
X183981740Y-101120000D03*
D24*
X186521740Y-106200000D03*
X269232450Y-87150000D03*
D22*
X270502450Y-84610000D03*
D25*
X274312450Y-87150000D03*
D22*
X276852450Y-82070000D03*
D24*
X279392450Y-87150000D03*
X304950450Y-87150000D03*
D22*
X306220450Y-84610000D03*
D25*
X310030450Y-87150000D03*
D22*
X312570450Y-82070000D03*
D24*
X315110450Y-87150000D03*
X250182450Y-87150000D03*
D22*
X251452450Y-84610000D03*
D25*
X255262450Y-87150000D03*
D22*
X257802450Y-82070000D03*
D24*
X260342450Y-87150000D03*
X102544920Y-49050000D03*
D22*
X103814920Y-46510000D03*
D25*
X107624920Y-49050000D03*
D22*
X110164920Y-43970000D03*
D24*
X112704920Y-49050000D03*
X112070000Y-30000000D03*
D22*
X113340000Y-27460000D03*
D25*
X117150000Y-30000000D03*
D22*
X119690000Y-24920000D03*
D24*
X122230000Y-30000000D03*
D25*
X321930450Y-95405000D03*
X298130450Y-95405000D03*
D30*
X321930450Y-80165000D03*
X298130450Y-80165000D03*
D24*
X135882450Y-87150000D03*
D22*
X137152450Y-84610000D03*
D25*
X140962450Y-87150000D03*
D22*
X143502450Y-82070000D03*
D24*
X146042450Y-87150000D03*
X140644920Y-49050000D03*
D22*
X141914920Y-46510000D03*
D25*
X145724920Y-49050000D03*
D22*
X148264920Y-43970000D03*
D24*
X150804920Y-49050000D03*
X121594920Y-49050000D03*
D22*
X122864920Y-46510000D03*
D25*
X126674920Y-49050000D03*
D22*
X129214920Y-43970000D03*
D24*
X131754920Y-49050000D03*
D25*
X329075000Y-38255000D03*
X305275000Y-38255000D03*
D30*
X329075000Y-23015000D03*
X305275000Y-23015000D03*
D24*
X126358135Y-68100000D03*
D22*
X127628135Y-65560000D03*
D25*
X131438135Y-68100000D03*
D22*
X133978135Y-63020000D03*
D24*
X136518135Y-68100000D03*
X66826250Y-87150000D03*
D22*
X68096250Y-84610000D03*
D25*
X71906250Y-87150000D03*
D22*
X74446250Y-82070000D03*
D24*
X76986250Y-87150000D03*
X271611740Y-106200000D03*
D22*
X272881740Y-103660000D03*
D25*
X276691740Y-106200000D03*
D22*
X279231740Y-101120000D03*
D24*
X281771740Y-106200000D03*
X88258135Y-68100000D03*
D22*
X89528135Y-65560000D03*
D25*
X93338135Y-68100000D03*
D22*
X95878135Y-63020000D03*
D24*
X98418135Y-68100000D03*
X104924740Y-106200000D03*
D22*
X106194740Y-103660000D03*
D25*
X110004740Y-106200000D03*
D22*
X112544740Y-101120000D03*
D24*
X115084740Y-106200000D03*
D16*
X212399920Y-57550000D03*
D33*
X44250000Y-86500000D03*
X23750000Y-86500000D03*
X44250000Y-109500000D03*
X23750000Y-109500000D03*
D34*
X30190000Y-86500000D03*
D35*
X32730000Y-86500000D03*
X35270000Y-86500000D03*
X37810000Y-86500000D03*
D24*
X183508135Y-68100000D03*
D22*
X184778135Y-65560000D03*
D25*
X188588135Y-68100000D03*
D22*
X191128135Y-63020000D03*
D24*
X193668135Y-68100000D03*
X169220000Y-30000000D03*
D22*
X170490000Y-27460000D03*
D25*
X174300000Y-30000000D03*
D22*
X176840000Y-24920000D03*
D24*
X179380000Y-30000000D03*
X62063750Y-68100000D03*
D22*
X63333750Y-65560000D03*
D25*
X67143750Y-68100000D03*
D22*
X69683750Y-63020000D03*
D24*
X72223750Y-68100000D03*
X116832450Y-87150000D03*
D22*
X118102450Y-84610000D03*
D25*
X121912450Y-87150000D03*
D22*
X124452450Y-82070000D03*
D24*
X126992450Y-87150000D03*
X159694920Y-49050000D03*
D22*
X160964920Y-46510000D03*
D25*
X164774920Y-49050000D03*
D22*
X167314920Y-43970000D03*
D24*
X169854920Y-49050000D03*
X107308135Y-68100000D03*
D22*
X108578135Y-65560000D03*
D25*
X112388135Y-68100000D03*
D22*
X114928135Y-63020000D03*
D24*
X117468135Y-68100000D03*
X207320000Y-30000000D03*
D22*
X208590000Y-27460000D03*
D25*
X212400000Y-30000000D03*
D22*
X214940000Y-24920000D03*
D24*
X217480000Y-30000000D03*
D25*
X326693635Y-76355000D03*
X302893635Y-76355000D03*
D30*
X326693635Y-61115000D03*
X302893635Y-61115000D03*
D16*
X50381300Y-57550000D03*
D24*
X216844920Y-49050000D03*
D22*
X218114920Y-46510000D03*
D25*
X221924920Y-49050000D03*
D22*
X224464920Y-43970000D03*
D24*
X227004920Y-49050000D03*
X364481090Y-106200000D03*
D22*
X365751090Y-103660000D03*
D25*
X369561090Y-106200000D03*
D22*
X372101090Y-101120000D03*
D24*
X374641090Y-106200000D03*
D16*
X136199920Y-57550000D03*
D24*
X173982450Y-87150000D03*
D22*
X175252450Y-84610000D03*
D25*
X179062450Y-87150000D03*
D22*
X181602450Y-82070000D03*
D24*
X184142450Y-87150000D03*
X273994920Y-49050000D03*
D22*
X275264920Y-46510000D03*
D25*
X279074920Y-49050000D03*
D22*
X281614920Y-43970000D03*
D24*
X284154920Y-49050000D03*
D16*
X298125000Y-20381300D03*
D24*
X254944920Y-49050000D03*
D22*
X256214920Y-46510000D03*
D25*
X260024920Y-49050000D03*
D22*
X262564920Y-43970000D03*
D24*
X265104920Y-49050000D03*
D34*
X342537500Y-71910000D03*
D35*
X342537500Y-69370000D03*
X342537500Y-66830000D03*
X342537500Y-64290000D03*
D24*
X188270000Y-30000000D03*
D22*
X189540000Y-27460000D03*
D25*
X193350000Y-30000000D03*
D22*
X195890000Y-24920000D03*
D24*
X198430000Y-30000000D03*
X226370000Y-30000000D03*
D22*
X227640000Y-27460000D03*
D25*
X231450000Y-30000000D03*
D22*
X233990000Y-24920000D03*
D24*
X236530000Y-30000000D03*
D26*
X151350000Y-38500000D03*
D28*
X159150000Y-38500000D03*
D26*
X346612500Y-57550000D03*
D28*
X354412500Y-57550000D03*
D26*
X170400000Y-38500000D03*
D28*
X178200000Y-38500000D03*
D26*
X208500000Y-38500000D03*
D28*
X216300000Y-38500000D03*
D26*
X194212450Y-95650000D03*
D28*
X202012450Y-95650000D03*
D26*
X89438135Y-76600000D03*
D28*
X97238135Y-76600000D03*
D26*
X175162450Y-95650000D03*
D28*
X182962450Y-95650000D03*
D26*
X346611090Y-95650000D03*
D28*
X354411090Y-95650000D03*
D26*
X296604590Y-114700000D03*
D28*
X304404590Y-114700000D03*
D26*
X227550000Y-38500000D03*
D28*
X235350000Y-38500000D03*
D26*
X284700000Y-38500000D03*
D28*
X292500000Y-38500000D03*
D26*
X184688135Y-76600000D03*
D28*
X192488135Y-76600000D03*
D26*
X213262450Y-95650000D03*
D28*
X221062450Y-95650000D03*
D26*
X122774920Y-57550000D03*
D28*
X130574920Y-57550000D03*
D26*
X141824920Y-57550000D03*
D28*
X149624920Y-57550000D03*
D26*
X365661090Y-114700000D03*
D28*
X373461090Y-114700000D03*
D26*
X63243750Y-76600000D03*
D28*
X71043750Y-76600000D03*
D26*
X275174920Y-57550000D03*
D28*
X282974920Y-57550000D03*
D26*
X177541590Y-114700000D03*
D28*
X185341590Y-114700000D03*
D26*
X56100000Y-38500000D03*
D28*
X63900000Y-38500000D03*
D26*
X294224920Y-57550000D03*
D28*
X302024920Y-57550000D03*
D26*
X365662500Y-38500000D03*
D28*
X373462500Y-38500000D03*
D26*
X232312450Y-95650000D03*
D28*
X240112450Y-95650000D03*
D26*
X248979590Y-114700000D03*
D28*
X256779590Y-114700000D03*
D26*
X265650000Y-38500000D03*
D28*
X273450000Y-38500000D03*
D26*
X160874920Y-57550000D03*
D28*
X168674920Y-57550000D03*
D26*
X270412450Y-95650000D03*
D28*
X278212450Y-95650000D03*
D26*
X260888135Y-76600000D03*
D28*
X268688135Y-76600000D03*
D26*
X310893635Y-76600000D03*
D28*
X318693635Y-76600000D03*
D26*
X203738135Y-76600000D03*
D28*
X211538135Y-76600000D03*
D26*
X246600000Y-38500000D03*
D28*
X254400000Y-38500000D03*
D26*
X58481250Y-114700000D03*
D28*
X66281250Y-114700000D03*
D26*
X218024920Y-57550000D03*
D28*
X225824920Y-57550000D03*
D26*
X306130450Y-95650000D03*
D28*
X313930450Y-95650000D03*
D26*
X82292995Y-114700000D03*
D28*
X90092995Y-114700000D03*
D26*
X75150000Y-38500000D03*
D28*
X82950000Y-38500000D03*
D26*
X346611090Y-114700000D03*
D28*
X354411090Y-114700000D03*
D26*
X118012450Y-95650000D03*
D28*
X125812450Y-95650000D03*
D26*
X113250000Y-38500000D03*
D28*
X121050000Y-38500000D03*
D26*
X327561090Y-114700000D03*
D28*
X335361090Y-114700000D03*
D26*
X106104740Y-114700000D03*
D28*
X113904740Y-114700000D03*
D26*
X222788135Y-76600000D03*
D28*
X230588135Y-76600000D03*
D26*
X179924920Y-57550000D03*
D28*
X187724920Y-57550000D03*
D26*
X251362450Y-95650000D03*
D28*
X259162450Y-95650000D03*
D26*
X60862500Y-57550000D03*
D28*
X68662500Y-57550000D03*
D26*
X279938135Y-76600000D03*
D28*
X287738135Y-76600000D03*
D26*
X198974920Y-57550000D03*
D28*
X206774920Y-57550000D03*
D26*
X132300000Y-38500000D03*
D28*
X140100000Y-38500000D03*
D26*
X237074920Y-57550000D03*
D28*
X244874920Y-57550000D03*
D26*
X108488135Y-76600000D03*
D28*
X116288135Y-76600000D03*
D26*
X103724920Y-57550000D03*
D28*
X111524920Y-57550000D03*
D26*
X272791590Y-114700000D03*
D28*
X280591590Y-114700000D03*
D26*
X313275000Y-38500000D03*
D28*
X321075000Y-38500000D03*
D26*
X165638135Y-76600000D03*
D28*
X173438135Y-76600000D03*
D26*
X318037420Y-57550000D03*
D28*
X325837420Y-57550000D03*
D26*
X189450000Y-38500000D03*
D28*
X197250000Y-38500000D03*
D26*
X127538135Y-76600000D03*
D28*
X135338135Y-76600000D03*
D26*
X156112450Y-95650000D03*
D28*
X163912450Y-95650000D03*
D26*
X98962450Y-95650000D03*
D28*
X106762450Y-95650000D03*
D26*
X241838135Y-76600000D03*
D28*
X249638135Y-76600000D03*
D26*
X68006250Y-95650000D03*
D28*
X75806250Y-95650000D03*
D26*
X256124920Y-57550000D03*
D28*
X263924920Y-57550000D03*
D26*
X146588135Y-76600000D03*
D28*
X154388135Y-76600000D03*
D26*
X365662500Y-57550000D03*
D28*
X373462500Y-57550000D03*
D26*
X94200000Y-38500000D03*
D28*
X102000000Y-38500000D03*
D26*
X84674920Y-57550000D03*
D28*
X92474920Y-57550000D03*
D26*
X137062450Y-95650000D03*
D28*
X144862450Y-95650000D03*
D26*
X346612500Y-38500000D03*
D28*
X354412500Y-38500000D03*
%LPD*%
M02*
