<?xml version="1.0" encoding="UTF-8" standalone="no"?>
<!-- Created with Inkscape (http://www.inkscape.org/) -->

<svg
   width="333.87085mm"
   height="100.50764mm"
   viewBox="0 0 333.87085 100.50764"
   version="1.1"
   id="svg1"
   xml:space="preserve"
   inkscape:version="1.4 (86a8ad7, 2024-10-11)"
   sodipodi:docname="keyboard_top_plate.svg"
   xmlns:inkscape="http://www.inkscape.org/namespaces/inkscape"
   xmlns:sodipodi="http://sodipodi.sourceforge.net/DTD/sodipodi-0.dtd"
   xmlns="http://www.w3.org/2000/svg"
   xmlns:svg="http://www.w3.org/2000/svg"><sodipodi:namedview
     id="namedview1"
     pagecolor="#ffffff"
     bordercolor="#000000"
     borderopacity="0.25"
     inkscape:showpageshadow="2"
     inkscape:pageopacity="0.0"
     inkscape:pagecheckerboard="0"
     inkscape:deskcolor="#d1d1d1"
     inkscape:document-units="mm"
     inkscape:zoom="0.76167929"
     inkscape:cx="582.26606"
     inkscape:cy="139.82263"
     inkscape:window-width="1920"
     inkscape:window-height="1057"
     inkscape:window-x="-8"
     inkscape:window-y="-8"
     inkscape:window-maximized="1"
     inkscape:current-layer="svg1" /><defs
     id="defs1"><marker
       id="DistanceX"
       orient="auto"
       refX="0"
       refY="0"
       style="overflow:visible"><path
         d="M 3,-3 -3,3 M 0,-5 V 5"
         style="stroke:#000000;stroke-width:0.5"
         id="path1" /></marker><pattern
       id="Hatch"
       patternUnits="userSpaceOnUse"
       width="8"
       height="8"
       x="0"
       y="0"><path
         d="M8 4 l-4,4"
         stroke="#000000"
         stroke-width="0.25"
         linecap="square"
         id="path2" /><path
         d="M6 2 l-4,4"
         stroke="#000000"
         stroke-width="0.25"
         linecap="square"
         id="path3" /><path
         d="M4 0 l-4,4"
         stroke="#000000"
         stroke-width="0.25"
         linecap="square"
         id="path4" /></pattern><symbol
       id="*MODEL_SPACE" /><symbol
       id="*PAPER_SPACE" /></defs><g
     inkscape:label="F.SilkS"
     inkscape:groupmode="layer"
     id="g2"
     transform="translate(-18.132875,-19.450126)"><path
       d="m 313.84644,44.701907 v -1.0005 h 14 v 1.0005 h 0.79899 v 3.09922 h -0.79899 v 5.79999 h 0.79899 v 3.1006 h -0.79899 v 0.99901 h -14 v -0.99901 h -0.801 v -3.1006 h 0.801 v -5.79999 h -0.801 v -3.09922 z"
       style="fill:none;stroke:#000000;stroke-width:0.264583"
       id="path5" /><path
       d="m 294.79644,101.85183 v -1.00042 h 14 v 1.00042 h 0.79899 v 3.0979 h -0.79899 v 5.80149 h 0.79899 v 3.10057 h -0.79899 v 0.9991 h -14 v -0.9991 h -0.801 v -3.10057 h 0.801 v -5.80149 h -0.801 v -3.0979 z"
       style="fill:none;stroke:#000000;stroke-width:0.264583"
       id="path6" /><path
       d="m 280.50943,25.651907 v -1.0005 h 13.99901 v 1.0005 h 0.801 v 3.09922 h -0.801 v 0.60079 h 1.52599 v -3.23011 h 6.74901 v 3.23011 h 0.82598 v 2.7989 h -0.82598 v 6.26991 h -1.725 v 1.2002 h -3.29901 v -1.2002 h -1.725 v -4.469 h -1.52599 v 0.59939 h 0.801 v 3.1006 h -0.801 v 0.99901 h -13.99901 v -0.99901 h -0.801 v -3.1006 h 0.801 v -0.59939 h -1.526 v 4.469 h -1.725 v 1.2002 h -3.301 v -1.2002 h -1.723 v -6.26991 h -0.826 v -2.7989 h 0.826 v -3.23011 h 6.749 v 3.23011 h 1.526 v -0.60079 h -0.801 v -3.09922 z"
       style="fill:none;stroke:#000000;stroke-width:0.264583"
       id="path7" /><path
       d="m 263.84044,101.85183 v -1.00042 h 13.99899 v 1.00042 h 0.80101 v 3.0979 h -0.80101 v 5.80149 h 0.80101 v 3.10057 h -0.80101 v 0.9991 h -13.99899 v -0.9991 h -0.801 v -3.10057 h 0.801 v -5.80149 h -0.801 v -3.0979 z"
       style="fill:none;stroke:#000000;stroke-width:0.264583"
       id="path8" /><path
       d="m 213.83444,25.651907 v -1.0005 h 13.999 v 1.0005 h 0.80099 v 3.09922 h -0.80099 v 5.79999 h 0.80099 v 3.1006 h -0.80099 v 0.99901 h -13.999 v -0.99901 h -0.801 v -3.1006 h 0.801 v -5.79999 h -0.801 v -3.09922 z"
       style="fill:none;stroke:#000000;stroke-width:0.264583"
       id="path9" /><path
       d="m 228.12143,63.751907 v -1.0005 h 14.00001 v 1.0005 h 0.79899 v 3.09922 h -0.79899 v 5.79999 h 0.79899 v 3.1006 h -0.79899 v 0.99901 h -14.00001 v -0.99901 h -0.801 v -3.1006 h 0.801 v -5.79999 h -0.801 v -3.09922 z"
       style="fill:none;stroke:#000000;stroke-width:0.264583"
       id="path10" /><path
       d="m 240.02644,101.85183 v -1.00042 h 14.00099 v 1.00042 h 0.79901 v 3.0979 h -0.79901 v 5.80149 h 0.79901 v 3.10057 h -0.79901 v 0.9991 h -14.00099 v -0.9991 h -0.799 v -3.10057 h 0.799 v -5.80149 h -0.799 v -3.0979 z"
       style="fill:none;stroke:#000000;stroke-width:0.264583"
       id="path11" /><path
       d="m 185.25944,44.701907 v -1.0005 h 13.999 v 1.0005 h 0.801 v 3.09922 h -0.801 v 5.79999 h 0.801 v 3.1006 h -0.801 v 0.99901 h -13.999 v -0.99901 h -0.801 v -3.1006 h 0.801 v -5.79999 h -0.801 v -3.09922 z"
       style="fill:none;stroke:#000000;stroke-width:0.264583"
       id="path12" /><path
       d="m 170.97144,63.751907 v -1.0005 h 14 v 1.0005 h 0.799 v 3.09922 h -0.799 v 5.79999 h 0.799 v 3.1006 h -0.799 v 0.99901 h -14 v -0.99901 h -0.801 v -3.1006 h 0.801 v -5.79999 h -0.801 v -3.09922 z"
       style="fill:none;stroke:#000000;stroke-width:0.264583"
       id="path13" /><path
       d="m 147.15944,44.701907 v -1.0005 h 13.999 v 1.0005 h 0.801 v 3.09922 h -0.801 v 5.79999 h 0.801 v 3.1006 h -0.801 v 0.99901 h -13.999 v -0.99901 h -0.801 v -3.1006 h 0.801 v -5.79999 h -0.801 v -3.09922 z"
       style="fill:none;stroke:#000000;stroke-width:0.264583"
       id="path14" /><path
       d="m 132.87144,63.751907 v -1.0005 h 14 v 1.0005 h 0.799 v 3.09922 h -0.799 v 5.79999 h 0.799 v 3.1006 h -0.799 v 0.99901 h -14 v -0.99901 h -0.801 v -3.1006 h 0.801 v -5.79999 h -0.801 v -3.09922 z"
       style="fill:none;stroke:#000000;stroke-width:0.264583"
       id="path15" /><path
       d="m 109.05914,44.701907 v -1.0005 h 13.9993 v 1.0005 h 0.801 v 3.09922 h -0.801 v 5.79999 h 0.801 v 3.1006 h -0.801 v 0.99901 h -13.9993 v -0.99901 h -0.8008 v -3.1006 h 0.8008 v -5.79999 h -0.8008 v -3.09922 z"
       style="fill:none;stroke:#000000;stroke-width:0.264583"
       id="path16" /><path
       d="m 94.77164,63.751907 v -1.0005 h 13.9993 v 1.0005 h 0.7994 v 3.09922 h -0.7994 v 5.79999 h 0.7994 v 3.1006 h -0.7994 v 0.99901 h -13.9993 v -0.99901 h -0.800801 v -3.1006 h 0.800801 v -5.79999 h -0.800801 v -3.09922 z"
       style="fill:none;stroke:#000000;stroke-width:0.264583"
       id="path17" /><path
       d="m 75.72164,63.751907 v -1.0005 h 13.9993 v 1.0005 h 0.799399 v 3.09922 H 89.72094 v 5.79999 h 0.799399 v 3.1006 H 89.72094 v 0.99901 h -13.9993 v -0.99901 h -0.800801 v -3.1006 h 0.800801 v -5.79999 h -0.800801 v -3.09922 z"
       style="fill:none;stroke:#000000;stroke-width:0.264583"
       id="path18" /><path
       d="m 56.67164,63.751907 v -1.0005 h 13.9993 v 1.0005 h 0.799399 v 3.09922 H 70.67094 v 5.79999 h 0.799399 v 3.1006 H 70.67094 v 0.99901 h -13.9993 v -0.99901 h -0.8007 v -3.1006 h 0.8007 v -5.79999 h -0.8007 v -3.09922 z"
       style="fill:none;stroke:#000000;stroke-width:0.264583"
       id="path19" /><path
       d="m 25.71535,101.85183 v -1.00042 h 13.99949 v 1.00042 h 0.8006 v 3.0979 h -0.8006 v 5.80149 h 0.8006 v 3.10057 h -0.8006 v 0.9991 H 25.71535 v -0.9991 h -0.800629 v -3.10057 h 0.800629 v -5.80149 h -0.800629 v -3.0979 z"
       style="fill:none;stroke:#000000;stroke-width:0.264583"
       id="path20" /><path
       d="m 23.33409,25.651907 v -1.0005 h 13.99955 v 1.0005 h 0.8006 v 3.09922 h -0.8006 v 5.79999 h 0.8006 v 3.1006 h -0.8006 v 0.99901 H 23.33409 v -0.99901 h -0.80064 v -3.1006 h 0.80064 v -5.79999 h -0.80064 v -3.09922 z"
       style="fill:none;stroke:#000000;stroke-width:0.264583"
       id="path21" /><path
       d="m 42.38414,25.651907 v -1.0005 h 13.9993 v 1.0005 h 0.800799 v 3.09922 H 56.38344 v 5.79999 h 0.800799 v 3.1006 H 56.38344 v 0.99901 h -13.9993 v -0.99901 h -0.8007 v -3.1006 h 0.8007 v -5.79999 h -0.8007 v -3.09922 z"
       style="fill:none;stroke:#000000;stroke-width:0.264583"
       id="path22" /><path
       d="m 49.526441,101.85183 v -1.00042 h 14.0008 v 1.00042 h 0.799398 v 3.0979 h -0.799398 v 5.80149 h 0.799398 v 3.10057 h -0.799398 v 0.9991 h -14.0008 v -0.9991 H 48.72724 v -3.10057 h 0.799201 v -5.80149 H 48.72724 v -3.0979 z"
       style="fill:none;stroke:#000000;stroke-width:0.264583"
       id="path23" /><path
       d="m 51.909141,44.701907 v -1.0005 H 65.90844 v 1.0005 h 0.800799 v 3.09922 H 65.90844 v 5.79999 h 0.800799 v 3.1006 H 65.90844 v 0.99901 H 51.909141 v -0.99901 H 51.10844 v -3.1006 h 0.800701 v -5.79999 H 51.10844 v -3.09922 z"
       style="fill:none;stroke:#000000;stroke-width:0.264583"
       id="path24" /><path
       d="m 85.24664,82.801827 v -1.00031 h 13.9993 v 1.00031 h 0.7994 v 3.0979 h -0.7994 v 5.80149 h 0.7994 v 3.1006 h -0.7994 v 0.99909 h -13.9993 v -0.99909 h -0.8008 v -3.1006 h 0.8008 v -5.80149 h -0.8008 v -3.0979 z"
       style="fill:none;stroke:#000000;stroke-width:0.264583"
       id="path25" /><path
       d="m 90.00914,44.701907 v -1.0005 h 13.9993 v 1.0005 h 0.8008 v 3.09922 h -0.8008 v 5.79999 h 0.8008 v 3.1006 h -0.8008 v 0.99901 h -13.9993 v -0.99901 h -0.800801 v -3.1006 h 0.800801 v -5.79999 h -0.800801 v -3.09922 z"
       style="fill:none;stroke:#000000;stroke-width:0.264583"
       id="path26" /><path
       d="m 113.82164,63.751907 v -1.0005 h 13.9998 v 1.0005 h 0.799 v 3.09922 h -0.799 v 5.79999 h 0.799 v 3.1006 h -0.799 v 0.99901 h -13.9998 v -0.99901 h -0.8008 v -3.1006 h 0.8008 v -5.79999 h -0.8008 v -3.09922 z"
       style="fill:none;stroke:#000000;stroke-width:0.264583"
       id="path27" /><path
       d="m 128.10944,44.701907 v -1.0005 h 13.999 v 1.0005 h 0.801 v 3.09922 h -0.801 v 5.79999 h 0.801 v 3.1006 h -0.801 v 0.99901 h -13.999 v -0.99901 h -0.801 v -3.1006 h 0.801 v -5.79999 h -0.801 v -3.09922 z"
       style="fill:none;stroke:#000000;stroke-width:0.264583"
       id="path28" /><path
       d="m 151.92144,63.751907 v -1.0005 h 14 v 1.0005 h 0.799 v 3.09922 h -0.799 v 5.79999 h 0.799 v 3.1006 h -0.799 v 0.99901 h -14 v -0.99901 h -0.801 v -3.1006 h 0.801 v -5.79999 h -0.801 v -3.09922 z"
       style="fill:none;stroke:#000000;stroke-width:0.264583"
       id="path29" /><path
       d="m 166.20944,44.701907 v -1.0005 h 13.999 v 1.0005 h 0.801 v 3.09922 h -0.801 v 5.79999 h 0.801 v 3.1006 h -0.801 v 0.99901 h -13.999 v -0.99901 h -0.801 v -3.1006 h 0.801 v -5.79999 h -0.801 v -3.09922 z"
       style="fill:none;stroke:#000000;stroke-width:0.264583"
       id="path30" /><path
       d="m 190.02144,63.751907 v -1.0005 h 14 v 1.0005 h 0.799 v 3.09922 h -0.799 v 5.79999 h 0.799 v 3.1006 h -0.799 v 0.99901 h -14 v -0.99901 h -0.801 v -3.1006 h 0.801 v -5.79999 h -0.801 v -3.09922 z"
       style="fill:none;stroke:#000000;stroke-width:0.264583"
       id="path31" /><path
       d="m 237.64643,82.801827 v -1.00031 h 14.00001 v 1.00031 h 0.79899 v 3.0979 h -0.79899 v 5.80149 h 0.79899 v 3.1006 h -0.79899 v 0.99909 h -14.00001 v -0.99909 h -0.801 v -3.1006 h 0.801 v -5.80149 h -0.801 v -3.0979 z"
       style="fill:none;stroke:#000000;stroke-width:0.264583"
       id="path32" /><path
       d="m 223.35943,44.701907 v -1.0005 h 13.99901 v 1.0005 h 0.80099 v 3.09922 h -0.80099 v 5.79999 h 0.80099 v 3.1006 h -0.80099 v 0.99901 h -13.99901 v -0.99901 h -0.801 v -3.1006 h 0.801 v -5.79999 h -0.801 v -3.09922 z"
       style="fill:none;stroke:#000000;stroke-width:0.264583"
       id="path33" /><path
       d="m 232.88443,25.651907 v -1.0005 h 13.99901 v 1.0005 h 0.80099 v 3.09922 h -0.80099 v 5.79999 h 0.80099 v 3.1006 h -0.80099 v 0.99901 h -13.99901 v -0.99901 h -0.801 v -3.1006 h 0.801 v -5.79999 h -0.801 v -3.09922 z"
       style="fill:none;stroke:#000000;stroke-width:0.264583"
       id="path34" /><path
       d="m 251.93443,25.651907 v -1.0005 h 13.999 v 1.0005 h 0.801 v 3.09922 h -0.801 v 5.79999 h 0.801 v 3.1006 h -0.801 v 0.99901 h -13.999 v -0.99901 h -0.801 v -3.1006 h 0.801 v -5.79999 h -0.801 v -3.09922 z"
       style="fill:none;stroke:#000000;stroke-width:0.264583"
       id="path35" /><path
       d="m 285.27143,44.701907 v -1.0005 h 14.00002 v 1.0005 h 0.79898 v 3.09922 h -0.79898 v 5.79999 h 0.79898 v 3.1006 h -0.79898 v 0.99901 h -14.00002 v -0.99901 h -0.801 v -3.1006 h 0.801 v -5.79999 h -0.801 v -3.09922 z"
       style="fill:none;stroke:#000000;stroke-width:0.264583"
       id="path36" /><path
       d="m 313.84644,101.85183 v -1.00042 h 14 v 1.00042 h 0.79899 v 3.0979 h -0.79899 v 5.80149 h 0.79899 v 3.10057 h -0.79899 v 0.9991 h -14 v -0.9991 h -0.801 v -3.10057 h 0.801 v -5.80149 h -0.801 v -3.0979 z"
       style="fill:none;stroke:#000000;stroke-width:0.264583"
       id="path37" /><path
       d="m 313.84644,25.651907 v -1.0005 h 14 v 1.0005 h 0.79899 v 3.09922 h -0.79899 v 5.79999 h 0.79899 v 3.1006 h -0.79899 v 0.99901 h -14 v -0.99901 h -0.801 v -3.1006 h 0.801 v -5.79999 h -0.801 v -3.09922 z"
       style="fill:none;stroke:#000000;stroke-width:0.264583"
       id="path38" /><path
       d="m 332.89644,44.701907 v -1.0005 h 14 v 1.0005 h 0.79899 v 3.09922 h -0.79899 v 5.79999 h 0.79899 v 3.1006 h -0.79899 v 0.99901 h -14 v -0.99901 h -0.801 v -3.1006 h 0.801 v -5.79999 h -0.801 v -3.09922 z"
       style="fill:none;stroke:#000000;stroke-width:0.264583"
       id="path39" /><path
       d="m 313.84644,82.801827 v -1.00031 h 14 v 1.00031 h 0.79899 v 3.0979 h -0.79899 v 5.80149 h 0.79899 v 3.1006 h -0.79899 v 0.99909 h -14 v -0.99909 h -0.801 v -3.1006 h 0.801 v -5.80149 h -0.801 v -3.0979 z"
       style="fill:none;stroke:#000000;stroke-width:0.264583"
       id="path40" /><path
       d="m 261.45943,44.701907 v -1.0005 h 13.999 v 1.0005 h 0.801 v 3.09922 h -0.801 v 5.79999 h 0.801 v 3.1006 h -0.801 v 0.99901 h -13.999 v -0.99901 h -0.801 v -3.1006 h 0.801 v -5.79999 h -0.801 v -3.09922 z"
       style="fill:none;stroke:#000000;stroke-width:0.264583"
       id="path41" /><path
       d="m 273.36443,82.801827 v -1.00031 h 14 v 1.00031 h 0.801 v 3.0979 h -0.801 v 0.60219 h 1.52601 v -3.23019 h 6.74899 v 3.23019 h 0.826 v 2.79879 h -0.826 v 6.27002 h -1.725 v 1.20028 h -3.29999 v -1.20028 h -1.724 v -4.46892 h -1.52601 v 0.59941 h 0.801 v 3.1006 h -0.801 v 0.99909 h -14 v -0.99909 h -0.80099 v -3.1006 h 0.80099 v -0.59941 h -1.524 v 4.46892 h -1.726 v 1.20028 h -3.299 v -1.20028 h -1.72499 v -6.27002 h -0.826 v -2.79879 h 0.826 v -3.23019 h 6.74999 v 3.23019 h 1.524 v -0.60219 h -0.80099 v -3.0979 z"
       style="fill:none;stroke:#000000;stroke-width:0.264583"
       id="path42" /><path
       d="m 194.78444,25.651907 v -1.0005 h 13.999 v 1.0005 h 0.801 v 3.09922 h -0.801 v 5.79999 h 0.801 v 3.1006 h -0.801 v 0.99901 h -13.999 v -0.99901 h -0.801 v -3.1006 h 0.801 v -5.79999 h -0.801 v -3.09922 z"
       style="fill:none;stroke:#000000;stroke-width:0.264583"
       id="path43" /><path
       d="m 209.07144,63.751907 v -1.0005 h 14 v 1.0005 h 0.79899 v 3.09922 h -0.79899 v 5.79999 h 0.79899 v 3.1006 h -0.79899 v 0.99901 h -14 v -0.99901 h -0.801 v -3.1006 h 0.801 v -5.79999 h -0.801 v -3.09922 z"
       style="fill:none;stroke:#000000;stroke-width:0.264583"
       id="path44" /><path
       d="m 216.21544,101.85183 v -1.00042 h 13.99899 v 1.00042 h 0.80101 v 3.0979 h -0.80101 v 5.80149 h 0.80101 v 3.10057 h -0.80101 v 0.9991 h -13.99899 v -0.9991 h -0.801 v -3.10057 h 0.801 v -5.80149 h -0.801 v -3.0979 z"
       style="fill:none;stroke:#000000;stroke-width:0.264583"
       id="path45" /><path
       d="m 175.73444,25.651907 v -1.0005 h 13.999 v 1.0005 h 0.801 v 3.09922 h -0.801 v 5.79999 h 0.801 v 3.1006 h -0.801 v 0.99901 h -13.999 v -0.99901 h -0.801 v -3.1006 h 0.801 v -5.79999 h -0.801 v -3.09922 z"
       style="fill:none;stroke:#000000;stroke-width:0.264583"
       id="path46" /><path
       d="m 180.49644,82.801827 v -1.00031 h 14 v 1.00031 h 0.799 v 3.0979 h -0.799 v 5.80149 h 0.799 v 3.1006 h -0.799 v 0.99909 h -14 v -0.99909 h -0.801 v -3.1006 h 0.801 v -5.80149 h -0.801 v -3.0979 z"
       style="fill:none;stroke:#000000;stroke-width:0.264583"
       id="path47" /><path
       d="m 137.63244,25.651907 v -1.0005 h 14.001 v 1.0005 h 0.801 v 3.09922 h -0.801 v 5.79999 h 0.801 v 3.1006 h -0.801 v 0.99901 h -14.001 v -0.99901 h -0.799 v -3.1006 h 0.799 v -5.79999 h -0.799 v -3.09922 z"
       style="fill:none;stroke:#000000;stroke-width:0.264583"
       id="path48" /><path
       d="m 142.39644,82.801827 v -1.00031 h 14 v 1.00031 h 0.799 v 3.0979 h -0.799 v 5.80149 h 0.799 v 3.1006 h -0.799 v 0.99909 h -14 v -0.99909 h -0.801 v -3.1006 h 0.801 v -5.80149 h -0.801 v -3.0979 z"
       style="fill:none;stroke:#000000;stroke-width:0.264583"
       id="path49" /><path
       d="m 99.53414,25.651907 v -1.0005 h 13.9993 v 1.0005 h 0.7994 v 3.09922 h -0.7994 v 5.79999 h 0.7994 v 3.1006 h -0.7994 v 0.99901 h -13.9993 v -0.99901 h -0.800801 v -3.1006 h 0.800801 v -5.79999 h -0.800801 v -3.09922 z"
       style="fill:none;stroke:#000000;stroke-width:0.264583"
       id="path50" /><path
       d="m 104.29664,82.801827 v -1.00031 h 13.9993 v 1.00031 h 0.7994 v 3.0979 h -0.7994 v 5.80149 h 0.7994 v 3.1006 h -0.7994 v 0.99909 h -13.9993 v -0.99909 h -0.8008 v -3.1006 h 0.8008 v -5.80149 h -0.8008 v -3.0979 z"
       style="fill:none;stroke:#000000;stroke-width:0.264583"
       id="path51" /><path
       d="m 70.95914,44.701907 v -1.0005 h 13.9993 v 1.0005 h 0.800799 v 3.09922 H 84.95844 v 5.79999 h 0.800799 v 3.1006 H 84.95844 v 0.99901 h -13.9993 v -0.99901 h -0.800801 v -3.1006 h 0.800801 v -5.79999 h -0.800801 v -3.09922 z"
       style="fill:none;stroke:#000000;stroke-width:0.264583"
       id="path52" /><path
       d="m 66.19664,82.801827 v -1.00031 h 13.9993 v 1.00031 h 0.799399 v 3.0979 H 80.19594 v 5.80149 h 0.799399 v 3.1006 H 80.19594 v 0.99909 h -13.9993 v -0.99909 h -0.800801 v -3.1006 h 0.800801 v -5.80149 h -0.800801 v -3.0979 z"
       style="fill:none;stroke:#000000;stroke-width:0.264583"
       id="path53" /><path
       d="m 35.24034,82.801827 v -1.00031 h 13.999499 v 1.00031 h 0.800602 v 3.0979 h -0.800602 v 0.60219 h 1.5255 v -3.23019 h 6.749502 v 3.23019 h 0.8255 v 2.79879 h -0.8255 v 6.27002 h -1.725202 v 1.20028 h -3.3004 v -1.20028 h -1.7239 v -4.46892 h -1.5255 v 0.59941 h 0.800602 v 3.1006 h -0.800602 v 0.99909 H 35.24034 v -0.99909 h -0.8006 v -3.1006 h 0.8006 v -0.59941 h -1.5255 v 4.46892 h -1.7253 v 1.20028 h -3.29901 v -1.20028 h -1.72529 v -6.27002 h -0.82547 v -2.79879 h 0.82547 v -3.23019 h 6.7496 v 3.23019 h 1.5255 v -0.60219 h -0.8006 v -3.0979 z"
       style="fill:none;stroke:#000000;stroke-width:0.264583"
       id="path54" /><path
       d="m 28.0966,44.701907 v -1.0005 h 13.99954 v 1.0005 h 0.7992 v 3.09922 h -0.7992 v 5.79999 h 0.7992 v 3.1006 h -0.7992 v 0.99901 H 28.0966 v -0.99901 h -0.80063 v -3.1006 h 0.80063 v -5.79999 h -0.80063 v -3.09922 z"
       style="fill:none;stroke:#000000;stroke-width:0.264583"
       id="path55" /><path
       d="m 30.47647,63.751907 v -1.0005 h 14.00087 v 1.0005 h 0.7993 v 3.09922 h -0.7993 v 5.79999 h 0.7993 v 3.1006 h -0.7993 v 0.99901 H 30.47647 v -0.99901 h -0.79925 v -3.1006 h 0.79925 v -5.79999 h -0.79925 v -3.09922 z"
       style="fill:none;stroke:#000000;stroke-width:0.264583"
       id="path56" /><path
       d="m 73.340441,101.85183 v -1.00042 H 87.33974 v 1.00042 h 0.800799 v 3.0979 H 87.33974 v 5.80149 h 0.800799 v 3.10057 H 87.33974 v 0.9991 H 73.340441 v -0.9991 h -0.800802 v -3.10057 h 0.800802 v -5.80149 h -0.800802 v -3.0979 z"
       style="fill:none;stroke:#000000;stroke-width:0.264583"
       id="path57" /><path
       d="m 61.43414,25.651907 v -1.0005 h 13.9993 v 1.0005 h 0.800799 v 3.09922 H 75.43344 v 5.79999 h 0.800799 v 3.1006 H 75.43344 v 0.99901 h -13.9993 v -0.99901 h -0.800801 v -3.1006 h 0.800801 v -5.79999 h -0.800801 v -3.09922 z"
       style="fill:none;stroke:#000000;stroke-width:0.264583"
       id="path58" /><path
       d="m 144.77644,101.85183 v -1.00042 h 14.001 v 1.00042 h 0.799 v 3.0979 h -0.799 v 0.60219 h 39.624 v -3.23019 h 6.751 v 3.23019 h 0.824 v 2.79876 h -0.824 v 6.27007 h -1.725 v 1.20026 h -3.301 v -1.20026 h -1.725 v -4.47034 h -39.624 v 0.60081 h 0.799 v 3.10057 h -0.799 v 0.9991 h -14.001 v -0.9991 h -0.799 v -3.10057 h 0.799 v -0.60081 h -39.6239 v 4.47034 h -1.7255 v 1.20026 h -3.3006 v -1.20026 h -1.725 v -6.27007 h -0.8241 v -2.79876 h 0.8241 v -3.23019 h 6.7511 v 3.23019 h 39.6239 v -0.60219 h -0.799 v -3.0979 z"
       style="fill:none;stroke:#000000;stroke-width:0.264583"
       id="path59" /><path
       d="m 80.48414,25.651907 v -1.0005 h 13.9993 v 1.0005 h 0.800798 v 3.09922 H 94.48344 v 5.79999 h 0.800798 v 3.1006 H 94.48344 v 0.99901 h -13.9993 v -0.99901 h -0.800801 v -3.1006 h 0.800801 v -5.79999 h -0.800801 v -3.09922 z"
       style="fill:none;stroke:#000000;stroke-width:0.264583"
       id="path60" /><path
       d="m 123.34644,82.801827 v -1.00031 h 14 v 1.00031 h 0.799 v 3.0979 h -0.799 v 5.80149 h 0.799 v 3.1006 h -0.799 v 0.99909 h -14 v -0.99909 h -0.801 v -3.1006 h 0.801 v -5.80149 h -0.801 v -3.0979 z"
       style="fill:none;stroke:#000000;stroke-width:0.264583"
       id="path61" /><path
       d="m 118.58274,25.651907 v -1.0005 h 14.0007 v 1.0005 h 0.799 v 3.09922 h -0.799 v 5.79999 h 0.799 v 3.1006 h -0.799 v 0.99901 h -14.0007 v -0.99901 h -0.7994 v -3.1006 h 0.7994 v -5.79999 h -0.7994 v -3.09922 z"
       style="fill:none;stroke:#000000;stroke-width:0.264583"
       id="path62" /><path
       d="m 161.44644,82.801827 v -1.00031 h 14 v 1.00031 h 0.799 v 3.0979 h -0.799 v 5.80149 h 0.799 v 3.1006 h -0.799 v 0.99909 h -14 v -0.99909 h -0.801 v -3.1006 h 0.801 v -5.80149 h -0.801 v -3.0979 z"
       style="fill:none;stroke:#000000;stroke-width:0.264583"
       id="path63" /><path
       d="m 156.68444,25.651907 v -1.0005 h 13.999 v 1.0005 h 0.801 v 3.09922 h -0.801 v 5.79999 h 0.801 v 3.1006 h -0.801 v 0.99901 h -13.999 v -0.99901 h -0.801 v -3.1006 h 0.801 v -5.79999 h -0.801 v -3.09922 z"
       style="fill:none;stroke:#000000;stroke-width:0.264583"
       id="path64" /><path
       d="m 199.54644,82.801827 v -1.00031 h 14 v 1.00031 h 0.799 v 3.0979 h -0.799 v 5.80149 h 0.799 v 3.1006 h -0.799 v 0.99909 h -14 v -0.99909 h -0.801 v -3.1006 h 0.801 v -5.80149 h -0.801 v -3.0979 z"
       style="fill:none;stroke:#000000;stroke-width:0.264583"
       id="path65" /><path
       d="m 218.59643,82.801827 v -1.00031 h 14.00001 v 1.00031 h 0.79899 v 3.0979 h -0.79899 v 5.80149 h 0.79899 v 3.1006 h -0.79899 v 0.99909 h -14.00001 v -0.99909 h -0.801 v -3.1006 h 0.801 v -5.80149 h -0.801 v -3.0979 z"
       style="fill:none;stroke:#000000;stroke-width:0.264583"
       id="path66" /><path
       d="m 204.30944,44.701907 v -1.0005 h 13.999 v 1.0005 h 0.80099 v 3.09922 h -0.80099 v 5.79999 h 0.80099 v 3.1006 h -0.80099 v 0.99901 h -13.999 v -0.99901 h -0.801 v -3.1006 h 0.801 v -5.79999 h -0.801 v -3.09922 z"
       style="fill:none;stroke:#000000;stroke-width:0.264583"
       id="path67" /><path
       d="m 247.17143,63.751907 v -1.0005 h 14 v 1.0005 h 0.799 v 3.09922 h -0.799 v 5.79999 h 0.799 v 3.1006 h -0.799 v 0.99901 h -14 v -0.99901 h -0.801 v -3.1006 h 0.801 v -5.79999 h -0.801 v -3.09922 z"
       style="fill:none;stroke:#000000;stroke-width:0.264583"
       id="path68" /><path
       d="m 242.40943,44.701907 v -1.0005 h 13.999 v 1.0005 h 0.801 v 3.09922 h -0.801 v 5.79999 h 0.801 v 3.1006 h -0.801 v 0.99901 h -13.999 v -0.99901 h -0.801 v -3.1006 h 0.801 v -5.79999 h -0.801 v -3.09922 z"
       style="fill:none;stroke:#000000;stroke-width:0.264583"
       id="path69" /><path
       d="m 278.12643,63.751907 v -1.0005 h 14.001 v 1.0005 h 0.79902 v 3.09922 h -0.79902 v 0.60079 h 1.524 v -3.23011 h 6.751 v 3.23011 h 0.82399 v 2.7989 h -0.82399 v 6.26991 h -1.725 v 1.2002 h -3.301 v -1.2002 h -1.725 v -4.469 h -1.524 v 0.59939 h 0.79902 v 3.1006 h -0.79902 v 0.99901 h -14.001 v -0.99901 h -0.80099 v -3.1006 h 0.80099 v -0.59939 h -1.524 v 4.469 h -1.727 v 1.2002 h -3.299 v -1.2002 h -1.725 v -6.26991 h -0.82399 v -2.7989 h 0.82399 v -3.23011 h 6.751 v 3.23011 h 1.524 v -0.60079 h -0.80099 v -3.09922 z"
       style="fill:none;stroke:#000000;stroke-width:0.264583"
       id="path70" /><path
       d="m 332.89644,101.85183 v -1.00042 h 14 v 1.00042 h 0.79899 v 3.0979 h -0.79899 v 5.80149 h 0.79899 v 3.10057 h -0.79899 v 0.9991 h -14 v -0.9991 h -0.801 v -3.10057 h 0.801 v -5.80149 h -0.801 v -3.0979 z"
       style="fill:none;stroke:#000000;stroke-width:0.264583"
       id="path71" /><path
       d="m 332.89644,25.651907 v -1.0005 h 14 v 1.0005 h 0.79899 v 3.09922 h -0.79899 v 5.79999 h 0.79899 v 3.1006 h -0.79899 v 0.99901 h -14 v -0.99901 h -0.801 v -3.1006 h 0.801 v -5.79999 h -0.801 v -3.09922 z"
       style="fill:none;stroke:#000000;stroke-width:0.264583"
       id="path72" /><path
       d="m 348.32144,117.37546 a 1.1,1.1 0 0 0 2.19998,0 1.1,1.1 0 0 0 -2.19998,0 z"
       style="fill:none;stroke:#000000;stroke-width:0.264583"
       id="path73" /><path
       d="m 267.35886,22.032407 a 1.1,1.1 0 0 0 2.2,0 1.1,1.1 0 0 0 -2.2,0 z"
       style="fill:none;stroke:#000000;stroke-width:0.264583"
       id="path74" /><path
       d="m 191.15886,22.032407 a 1.1,1.1 0 0 0 2.2,0 1.1,1.1 0 0 0 -2.2,0 z"
       style="fill:none;stroke:#000000;stroke-width:0.264583"
       id="path75" /><path
       d="m 212.5886,117.37546 a 1.1,1.1 0 0 0 2.2,0 1.1,1.1 0 0 0 -2.2,0 z"
       style="fill:none;stroke:#000000;stroke-width:0.264583"
       id="path76" /><path
       d="m 19.615166,22.032407 a 1.0999999,1.0999999 0 0 0 2.199999,0 1.0999999,1.0999999 0 0 0 -2.199999,0 z"
       style="fill:none;stroke:#000000;stroke-width:0.264583"
       id="path77" /><path
       d="m 88.763603,117.37546 a 1.1,1.1 0 0 0 2.2,0 1.1,1.1 0 0 0 -2.2,0 z"
       style="fill:none;stroke:#000000;stroke-width:0.264583"
       id="path78" /><path
       d="m 114.95886,22.032407 a 1.1,1.1 0 0 0 2.2,0 1.1,1.1 0 0 0 -2.2,0 z"
       style="fill:none;stroke:#000000;stroke-width:0.264583"
       id="path79" /><path
       d="m 257.83378,59.133207 a 1.1,1.1 0 0 0 2.2,0 1.1,1.1 0 0 0 -2.2,0 z"
       style="fill:none;stroke:#000000;stroke-width:0.264583"
       id="path80" /><path
       d="m 279.2626,117.37546 a 1.1,1.1 0 0 0 2.2,0 1.1,1.1 0 0 0 -2.2,0 z"
       style="fill:none;stroke:#000000;stroke-width:0.264583"
       id="path81" /><path
       d="m 348.32144,59.107407 a 1.1,1.1 0 0 0 2.19998,0 1.1,1.1 0 0 0 -2.19998,0 z"
       style="fill:none;stroke:#000000;stroke-width:0.264583"
       id="path82" /><path
       d="m 306.73534,40.057407 a 1.1000052,1.1000052 0 0 0 2.20001,0 1.1000052,1.1000052 0 0 0 -2.20001,0 z"
       style="fill:none;stroke:#000000;stroke-width:0.264583"
       id="path83" /><path
       d="m 181.63378,59.154927 a 1.1,1.1 0 0 0 2.2,0 1.1,1.1 0 0 0 -2.2,0 z"
       style="fill:none;stroke:#000000;stroke-width:0.264583"
       id="path84" /><path
       d="m 148.297,78.157407 a 1.1,1.1 0 0 0 2.2,0 1.1,1.1 0 0 0 -2.2,0 z"
       style="fill:none;stroke:#000000;stroke-width:0.264583"
       id="path85" /><path
       d="m 19.615166,59.201127 a 1.0999999,1.0999999 0 0 0 2.199999,0 1.0999999,1.0999999 0 0 0 -2.199999,0 z"
       style="fill:none;stroke:#000000;stroke-width:0.264583"
       id="path86" /><path
       d="m 19.615166,117.37546 a 1.0999999,1.0999999 0 0 0 2.199999,0 1.0999999,1.0999999 0 0 0 -2.199999,0 z"
       style="fill:none;stroke:#000000;stroke-width:0.264583"
       id="path87" /><path
       d="m 105.43379,59.176647 a 1.1,1.1 0 0 0 2.19999,0 1.1,1.1 0 0 0 -2.19999,0 z"
       style="fill:none;stroke:#000000;stroke-width:0.264583"
       id="path88" /><path
       d="m 224.49699,78.157407 a 1.1,1.1 0 0 0 2.2,0 1.1,1.1 0 0 0 -2.2,0 z"
       style="fill:none;stroke:#000000;stroke-width:0.264583"
       id="path89" /><path
       d="m 306.73534,78.157407 a 1.1000052,1.1000052 0 0 0 2.20001,0 1.1000052,1.1000052 0 0 0 -2.20001,0 z"
       style="fill:none;stroke:#000000;stroke-width:0.264583"
       id="path90" /><path
       d="m 348.32144,22.032407 a 1.1,1.1 0 0 0 2.19998,0 1.1,1.1 0 0 0 -2.19998,0 z"
       style="fill:none;stroke:#000000;stroke-width:0.264583"
       id="path91" /><path
       d="m 349.42144,119.82548 a 2.4500001,2.4500001 0 0 0 2.44999,-2.45002 V 22.032407 a 2.4500001,2.4500001 0 0 0 -2.44999,-2.44999 H 20.715165 a 2.4500001,2.4500001 0 0 0 -2.449999,2.44999 v 95.343053 a 2.4500001,2.4500001 0 0 0 2.449999,2.45002 z"
       style="fill:none;stroke:#000000;stroke-width:0.264583"
       id="path92" /></g></svg>
