<?xml version="1.0" encoding="UTF-8" standalone="no"?>
<!-- Created with Inkscape (http://www.inkscape.org/) -->

<svg
   width="328.80197mm"
   height="95.43898mm"
   viewBox="0 0 328.80197 95.43898"
   version="1.1"
   id="svg1"
   xml:space="preserve"
   inkscape:version="1.4 (86a8ad7, 2024-10-11)"
   sodipodi:docname="keyboard.svg"
   xmlns:inkscape="http://www.inkscape.org/namespaces/inkscape"
   xmlns:sodipodi="http://sodipodi.sourceforge.net/DTD/sodipodi-0.dtd"
   xmlns:xlink="http://www.w3.org/1999/xlink"
   xmlns="http://www.w3.org/2000/svg"
   xmlns:svg="http://www.w3.org/2000/svg"><sodipodi:namedview
     id="namedview1"
     pagecolor="#ffffff"
     bordercolor="#000000"
     borderopacity="0.25"
     inkscape:showpageshadow="2"
     inkscape:pageopacity="0.0"
     inkscape:pagecheckerboard="0"
     inkscape:deskcolor="#d1d1d1"
     inkscape:document-units="mm"
     inkscape:zoom="1.0771772"
     inkscape:cx="518.4848"
     inkscape:cy="212.12852"
     inkscape:window-width="1920"
     inkscape:window-height="1057"
     inkscape:window-x="-8"
     inkscape:window-y="-8"
     inkscape:window-maximized="1"
     inkscape:current-layer="g2" /><defs
     id="defs1"><linearGradient
       id="DCS"><stop
         offset="0%"
         stop-color="black"
         stop-opacity="0"
         id="stop1" /><stop
         offset="40%"
         stop-color="black"
         stop-opacity="0.1"
         id="stop2" /><stop
         offset="60%"
         stop-color="black"
         stop-opacity="0.1"
         id="stop3" /><stop
         offset="100%"
         stop-color="black"
         stop-opacity="0"
         id="stop4" /></linearGradient><linearGradient
       id="SPACE"
       x1="0"
       x2="0"
       y1="0"
       y2="1"><stop
         offset="0%"
         stop-color="black"
         stop-opacity="0.1"
         id="stop5" /><stop
         offset="20%"
         stop-color="black"
         stop-opacity="0.0"
         id="stop6" /><stop
         offset="40%"
         stop-color="black"
         stop-opacity="0.0"
         id="stop7" /><stop
         offset="100%"
         stop-color="black"
         stop-opacity="0.1"
         id="stop8" /></linearGradient><radialGradient
       id="DSA"><stop
         offset="0%"
         stop-color="black"
         stop-opacity="0.1"
         id="stop9" /><stop
         offset="10%"
         stop-color="black"
         stop-opacity="0.1"
         id="stop10" /><stop
         offset="100%"
         stop-color="black"
         stop-opacity="0"
         id="stop11" /></radialGradient><radialGradient
       id="SA"
       xlink:href="#DSA" /></defs><g
     inkscape:label="F.SilkS"
     inkscape:groupmode="layer"
     id="g2"
     transform="translate(-1.70409,-1.83586)"
     style="display:inline"><polygon
       points="333.614,100.251 5.001,100.251 5.001,5.001 333.614,5.001 "
       style="fill:none;stroke:#000000;stroke-width:0.05mm"
       id="polygon1"
       transform="translate(-3.2024248,-3.0706556)" /><polygon
       points="82.594,91.226 82.594,97.495 84.319,97.495 84.319,98.696 87.619,98.696 87.619,97.495 89.344,97.495 89.344,93.025 128.968,93.025 128.968,93.626 128.169,93.626 128.169,96.726 128.968,96.726 128.968,97.726 142.969,97.726 142.969,96.726 143.769,96.726 143.769,93.626 142.969,93.626 142.969,93.025 182.594,93.025 182.594,97.495 184.319,97.495 184.319,98.696 187.619,98.696 187.619,97.495 189.344,97.495 189.344,91.226 190.169,91.226 190.169,88.426 189.344,88.426 189.344,85.196 182.594,85.196 182.594,88.426 142.969,88.426 142.969,87.825 143.769,87.825 143.769,84.726 142.969,84.726 142.969,83.726 128.968,83.726 128.968,84.726 128.169,84.726 128.169,87.825 128.968,87.825 128.968,88.426 89.344,88.426 89.344,85.196 82.594,85.196 82.594,88.426 81.769,88.426 81.769,91.226 "
       style="fill:none;stroke:#000000;stroke-width:0.05mm"
       id="polygon2"
       transform="translate(-3.2024248,-3.0706556)" /><polygon
       points="24.707,96.726 24.707,93.626 23.907,93.626 23.907,87.825 24.707,87.825 24.707,84.726 23.907,84.726 23.907,83.726 9.907,83.726 9.907,84.726 9.107,84.726 9.107,87.825 9.907,87.825 9.907,93.626 9.107,93.626 9.107,96.726 9.907,96.726 9.907,97.726 23.907,97.726 23.907,96.726 "
       style="fill:none;stroke:#000000;stroke-width:0.05mm"
       id="polygon3"
       transform="translate(-3.2024248,-3.0706556)" /><polygon
       points="48.519,96.726 48.519,93.626 47.719,93.626 47.719,87.825 48.519,87.825 48.519,84.726 47.719,84.726 47.719,83.726 33.719,83.726 33.719,84.726 32.919,84.726 32.919,87.825 33.719,87.825 33.719,93.626 32.919,93.626 32.919,96.726 33.719,96.726 33.719,97.726 47.719,97.726 47.719,96.726 "
       style="fill:none;stroke:#000000;stroke-width:0.05mm"
       id="polygon4"
       transform="translate(-3.2024248,-3.0706556)" /><polygon
       points="72.332,96.726 72.332,93.626 71.532,93.626 71.532,87.825 72.332,87.825 72.332,84.726 71.532,84.726 71.532,83.726 57.532,83.726 57.532,84.726 56.732,84.726 56.732,87.825 57.532,87.825 57.532,93.626 56.732,93.626 56.732,96.726 57.532,96.726 57.532,97.726 71.532,97.726 71.532,96.726 "
       style="fill:none;stroke:#000000;stroke-width:0.05mm"
       id="polygon5"
       transform="translate(-3.2024248,-3.0706556)" /><polygon
       points="215.207,96.726 215.207,93.626 214.407,93.626 214.407,87.825 215.207,87.825 215.207,84.726 214.407,84.726 214.407,83.726 200.407,83.726 200.407,84.726 199.607,84.726 199.607,87.825 200.407,87.825 200.407,93.626 199.607,93.626 199.607,96.726 200.407,96.726 200.407,97.726 214.407,97.726 214.407,96.726 "
       style="fill:none;stroke:#000000;stroke-width:0.05mm"
       id="polygon6"
       transform="translate(-3.2024248,-3.0706556)" /><polygon
       points="239.019,96.726 239.019,93.626 238.219,93.626 238.219,87.825 239.019,87.825 239.019,84.726 238.219,84.726 238.219,83.726 224.219,83.726 224.219,84.726 223.419,84.726 223.419,87.825 224.219,87.825 224.219,93.626 223.419,93.626 223.419,96.726 224.219,96.726 224.219,97.726 238.219,97.726 238.219,96.726 "
       style="fill:none;stroke:#000000;stroke-width:0.05mm"
       id="polygon7"
       transform="translate(-3.2024248,-3.0706556)" /><polygon
       points="262.832,96.726 262.832,93.626 262.032,93.626 262.032,87.825 262.832,87.825 262.832,84.726 262.032,84.726 262.032,83.726 248.032,83.726 248.032,84.726 247.232,84.726 247.232,87.825 248.032,87.825 248.032,93.626 247.232,93.626 247.232,96.726 248.032,96.726 248.032,97.726 262.032,97.726 262.032,96.726 "
       style="fill:none;stroke:#000000;stroke-width:0.05mm"
       id="polygon8"
       transform="translate(-3.2024248,-3.0706556)" /><polygon
       points="293.788,96.726 293.788,93.626 292.988,93.626 292.988,87.825 293.788,87.825 293.788,84.726 292.988,84.726 292.988,83.726 278.988,83.726 278.988,84.726 278.188,84.726 278.188,87.825 278.988,87.825 278.988,93.626 278.188,93.626 278.188,96.726 278.988,96.726 278.988,97.726 292.988,97.726 292.988,96.726 "
       style="fill:none;stroke:#000000;stroke-width:0.05mm"
       id="polygon9"
       transform="translate(-3.2024248,-3.0706556)" /><polygon
       points="312.838,96.726 312.838,93.626 312.038,93.626 312.038,87.825 312.838,87.825 312.838,84.726 312.038,84.726 312.038,83.726 298.038,83.726 298.038,84.726 297.238,84.726 297.238,87.825 298.038,87.825 298.038,93.626 297.238,93.626 297.238,96.726 298.038,96.726 298.038,97.726 312.038,97.726 312.038,96.726 "
       style="fill:none;stroke:#000000;stroke-width:0.05mm"
       id="polygon10"
       transform="translate(-3.2024248,-3.0706556)" /><polygon
       points="331.888,96.726 331.888,93.626 331.088,93.626 331.088,87.825 331.888,87.825 331.888,84.726 331.088,84.726 331.088,83.726 317.088,83.726 317.088,84.726 316.288,84.726 316.288,87.825 317.088,87.825 317.088,93.626 316.288,93.626 316.288,96.726 317.088,96.726 317.088,97.726 331.088,97.726 331.088,96.726 "
       style="fill:none;stroke:#000000;stroke-width:0.05mm"
       id="polygon11"
       transform="translate(-3.2024248,-3.0706556)" /><polygon
       points="11.157,72.176 11.157,78.446 12.882,78.446 12.882,79.646 16.182,79.646 16.182,78.446 17.907,78.446 17.907,73.976 19.432,73.976 19.432,74.576 18.632,74.576 18.632,77.676 19.432,77.676 19.432,78.676 33.432,78.676 33.432,77.676 34.232,77.676 34.232,74.576 33.432,74.576 33.432,73.976 34.957,73.976 34.957,78.446 36.682,78.446 36.682,79.646 39.982,79.646 39.982,78.446 41.707,78.446 41.707,72.176 42.532,72.176 42.532,69.376 41.707,69.376 41.707,66.146 34.957,66.146 34.957,69.376 33.432,69.376 33.432,68.775 34.232,68.775 34.232,65.676 33.432,65.676 33.432,64.676 19.432,64.676 19.432,65.676 18.632,65.676 18.632,68.775 19.432,68.775 19.432,69.376 17.907,69.376 17.907,66.146 11.157,66.146 11.157,69.376 10.332,69.376 10.332,72.176 "
       style="fill:none;stroke:#000000;stroke-width:0.05mm"
       id="polygon12"
       transform="translate(-3.2024248,-3.0706556)" /><polygon
       points="249.282,72.176 249.282,78.446 251.007,78.446 251.007,79.646 254.307,79.646 254.307,78.446 256.032,78.446 256.032,73.976 257.556,73.976 257.556,74.576 256.756,74.576 256.756,77.676 257.556,77.676 257.556,78.676 271.557,78.676 271.557,77.676 272.357,77.676 272.357,74.576 271.557,74.576 271.557,73.976 273.082,73.976 273.082,78.446 274.807,78.446 274.807,79.646 278.107,79.646 278.107,78.446 279.832,78.446 279.832,72.176 280.657,72.176 280.657,69.376 279.832,69.376 279.832,66.146 273.082,66.146 273.082,69.376 271.557,69.376 271.557,68.775 272.357,68.775 272.357,65.676 271.557,65.676 271.557,64.676 257.556,64.676 257.556,65.676 256.756,65.676 256.756,68.775 257.556,68.775 257.556,69.376 256.032,69.376 256.032,66.146 249.282,66.146 249.282,69.376 248.457,69.376 248.457,72.176 "
       style="fill:none;stroke:#000000;stroke-width:0.05mm"
       id="polygon13"
       transform="translate(-3.2024248,-3.0706556)" /><polygon
       points="65.188,77.676 65.188,74.576 64.388,74.576 64.388,68.775 65.188,68.775 65.188,65.676 64.388,65.676 64.388,64.676 50.388,64.676 50.388,65.676 49.588,65.676 49.588,68.775 50.388,68.775 50.388,74.576 49.588,74.576 49.588,77.676 50.388,77.676 50.388,78.676 64.388,78.676 64.388,77.676 "
       style="fill:none;stroke:#000000;stroke-width:0.05mm"
       id="polygon14"
       transform="translate(-3.2024248,-3.0706556)" /><polygon
       points="84.238,77.676 84.238,74.576 83.438,74.576 83.438,68.775 84.238,68.775 84.238,65.676 83.438,65.676 83.438,64.676 69.438,64.676 69.438,65.676 68.638,65.676 68.638,68.775 69.438,68.775 69.438,74.576 68.638,74.576 68.638,77.676 69.438,77.676 69.438,78.676 83.438,78.676 83.438,77.676 "
       style="fill:none;stroke:#000000;stroke-width:0.05mm"
       id="polygon15"
       transform="translate(-3.2024248,-3.0706556)" /><polygon
       points="103.288,77.676 103.288,74.576 102.488,74.576 102.488,68.775 103.288,68.775 103.288,65.676 102.488,65.676 102.488,64.676 88.488,64.676 88.488,65.676 87.688,65.676 87.688,68.775 88.488,68.775 88.488,74.576 87.688,74.576 87.688,77.676 88.488,77.676 88.488,78.676 102.488,78.676 102.488,77.676 "
       style="fill:none;stroke:#000000;stroke-width:0.05mm"
       id="polygon16"
       transform="translate(-3.2024248,-3.0706556)" /><polygon
       points="122.338,77.676 122.338,74.576 121.538,74.576 121.538,68.775 122.338,68.775 122.338,65.676 121.538,65.676 121.538,64.676 107.538,64.676 107.538,65.676 106.738,65.676 106.738,68.775 107.538,68.775 107.538,74.576 106.738,74.576 106.738,77.676 107.538,77.676 107.538,78.676 121.538,78.676 121.538,77.676 "
       style="fill:none;stroke:#000000;stroke-width:0.05mm"
       id="polygon17"
       transform="translate(-3.2024248,-3.0706556)" /><polygon
       points="141.388,77.676 141.388,74.576 140.588,74.576 140.588,68.775 141.388,68.775 141.388,65.676 140.588,65.676 140.588,64.676 126.588,64.676 126.588,65.676 125.788,65.676 125.788,68.775 126.588,68.775 126.588,74.576 125.788,74.576 125.788,77.676 126.588,77.676 126.588,78.676 140.588,78.676 140.588,77.676 "
       style="fill:none;stroke:#000000;stroke-width:0.05mm"
       id="polygon18"
       transform="translate(-3.2024248,-3.0706556)" /><polygon
       points="160.438,77.676 160.438,74.576 159.638,74.576 159.638,68.775 160.438,68.775 160.438,65.676 159.638,65.676 159.638,64.676 145.638,64.676 145.638,65.676 144.838,65.676 144.838,68.775 145.638,68.775 145.638,74.576 144.838,74.576 144.838,77.676 145.638,77.676 145.638,78.676 159.638,78.676 159.638,77.676 "
       style="fill:none;stroke:#000000;stroke-width:0.05mm"
       id="polygon19"
       transform="translate(-3.2024248,-3.0706556)" /><polygon
       points="179.488,77.676 179.488,74.576 178.688,74.576 178.688,68.775 179.488,68.775 179.488,65.676 178.688,65.676 178.688,64.676 164.688,64.676 164.688,65.676 163.888,65.676 163.888,68.775 164.688,68.775 164.688,74.576 163.888,74.576 163.888,77.676 164.688,77.676 164.688,78.676 178.688,78.676 178.688,77.676 "
       style="fill:none;stroke:#000000;stroke-width:0.05mm"
       id="polygon20"
       transform="translate(-3.2024248,-3.0706556)" /><polygon
       points="198.538,77.676 198.538,74.576 197.738,74.576 197.738,68.775 198.538,68.775 198.538,65.676 197.738,65.676 197.738,64.676 183.738,64.676 183.738,65.676 182.938,65.676 182.938,68.775 183.738,68.775 183.738,74.576 182.938,74.576 182.938,77.676 183.738,77.676 183.738,78.676 197.738,78.676 197.738,77.676 "
       style="fill:none;stroke:#000000;stroke-width:0.05mm"
       id="polygon21"
       transform="translate(-3.2024248,-3.0706556)" /><polygon
       points="217.588,77.676 217.588,74.576 216.788,74.576 216.788,68.775 217.588,68.775 217.588,65.676 216.788,65.676 216.788,64.676 202.788,64.676 202.788,65.676 201.988,65.676 201.988,68.775 202.788,68.775 202.788,74.576 201.988,74.576 201.988,77.676 202.788,77.676 202.788,78.676 216.788,78.676 216.788,77.676 "
       style="fill:none;stroke:#000000;stroke-width:0.05mm"
       id="polygon22"
       transform="translate(-3.2024248,-3.0706556)" /><polygon
       points="236.638,77.676 236.638,74.576 235.838,74.576 235.838,68.775 236.638,68.775 236.638,65.676 235.838,65.676 235.838,64.676 221.838,64.676 221.838,65.676 221.038,65.676 221.038,68.775 221.838,68.775 221.838,74.576 221.038,74.576 221.038,77.676 221.838,77.676 221.838,78.676 235.838,78.676 235.838,77.676 "
       style="fill:none;stroke:#000000;stroke-width:0.05mm"
       id="polygon23"
       transform="translate(-3.2024248,-3.0706556)" /><polygon
       points="312.838,77.676 312.838,74.576 312.038,74.576 312.038,68.775 312.838,68.775 312.838,65.676 312.038,65.676 312.038,64.676 298.038,64.676 298.038,65.676 297.238,65.676 297.238,68.775 298.038,68.775 298.038,74.576 297.238,74.576 297.238,77.676 298.038,77.676 298.038,78.676 312.038,78.676 312.038,77.676 "
       style="fill:none;stroke:#000000;stroke-width:0.05mm"
       id="polygon24"
       transform="translate(-3.2024248,-3.0706556)" /><polygon
       points="254.044,53.126 254.044,59.395 255.769,59.395 255.769,60.596 259.068,60.596 259.068,59.395 260.794,59.395 260.794,54.926 262.319,54.926 262.319,55.526 261.518,55.526 261.518,58.626 262.319,58.626 262.319,59.626 276.319,59.626 276.319,58.626 277.119,58.626 277.119,55.526 276.319,55.526 276.319,54.926 277.844,54.926 277.844,59.395 279.569,59.395 279.569,60.596 282.869,60.596 282.869,59.395 284.594,59.395 284.594,53.126 285.419,53.126 285.419,50.326 284.594,50.326 284.594,47.096 277.844,47.096 277.844,50.326 276.319,50.326 276.319,49.726 277.119,49.726 277.119,46.626 276.319,46.626 276.319,45.626 262.319,45.626 262.319,46.626 261.518,46.626 261.518,49.726 262.319,49.726 262.319,50.326 260.794,50.326 260.794,47.096 254.044,47.096 254.044,50.326 253.219,50.326 253.219,53.126 "
       style="fill:none;stroke:#000000;stroke-width:0.05mm"
       id="polygon25"
       transform="translate(-3.2024248,-3.0706556)" /><polygon
       points="29.469,58.626 29.469,55.526 28.669,55.526 28.669,49.726 29.469,49.726 29.469,46.626 28.669,46.626 28.669,45.626 14.669,45.626 14.669,46.626 13.869,46.626 13.869,49.726 14.669,49.726 14.669,55.526 13.869,55.526 13.869,58.626 14.669,58.626 14.669,59.626 28.669,59.626 28.669,58.626 "
       style="fill:none;stroke:#000000;stroke-width:0.05mm"
       id="polygon26"
       transform="translate(-3.2024248,-3.0706556)" /><polygon
       points="55.663,58.626 55.663,55.526 54.863,55.526 54.863,49.726 55.663,49.726 55.663,46.626 54.863,46.626 54.863,45.626 40.863,45.626 40.863,46.626 40.063,46.626 40.063,49.726 40.863,49.726 40.863,55.526 40.063,55.526 40.063,58.626 40.863,58.626 40.863,59.626 54.863,59.626 54.863,58.626 "
       style="fill:none;stroke:#000000;stroke-width:0.05mm"
       id="polygon27"
       transform="translate(-3.2024248,-3.0706556)" /><polygon
       points="74.713,58.626 74.713,55.526 73.913,55.526 73.913,49.726 74.713,49.726 74.713,46.626 73.913,46.626 73.913,45.626 59.913,45.626 59.913,46.626 59.113,46.626 59.113,49.726 59.913,49.726 59.913,55.526 59.113,55.526 59.113,58.626 59.913,58.626 59.913,59.626 73.913,59.626 73.913,58.626 "
       style="fill:none;stroke:#000000;stroke-width:0.05mm"
       id="polygon28"
       transform="translate(-3.2024248,-3.0706556)" /><polygon
       points="93.763,58.626 93.763,55.526 92.963,55.526 92.963,49.726 93.763,49.726 93.763,46.626 92.963,46.626 92.963,45.626 78.963,45.626 78.963,46.626 78.163,46.626 78.163,49.726 78.963,49.726 78.963,55.526 78.163,55.526 78.163,58.626 78.963,58.626 78.963,59.626 92.963,59.626 92.963,58.626 "
       style="fill:none;stroke:#000000;stroke-width:0.05mm"
       id="polygon29"
       transform="translate(-3.2024248,-3.0706556)" /><polygon
       points="112.813,58.626 112.813,55.526 112.013,55.526 112.013,49.726 112.813,49.726 112.813,46.626 112.013,46.626 112.013,45.626 98.013,45.626 98.013,46.626 97.213,46.626 97.213,49.726 98.013,49.726 98.013,55.526 97.213,55.526 97.213,58.626 98.013,58.626 98.013,59.626 112.013,59.626 112.013,58.626 "
       style="fill:none;stroke:#000000;stroke-width:0.05mm"
       id="polygon30"
       transform="translate(-3.2024248,-3.0706556)" /><polygon
       points="131.863,58.626 131.863,55.526 131.063,55.526 131.063,49.726 131.863,49.726 131.863,46.626 131.063,46.626 131.063,45.626 117.063,45.626 117.063,46.626 116.263,46.626 116.263,49.726 117.063,49.726 117.063,55.526 116.263,55.526 116.263,58.626 117.063,58.626 117.063,59.626 131.063,59.626 131.063,58.626 "
       style="fill:none;stroke:#000000;stroke-width:0.05mm"
       id="polygon31"
       transform="translate(-3.2024248,-3.0706556)" /><polygon
       points="150.913,58.626 150.913,55.526 150.113,55.526 150.113,49.726 150.913,49.726 150.913,46.626 150.113,46.626 150.113,45.626 136.113,45.626 136.113,46.626 135.313,46.626 135.313,49.726 136.113,49.726 136.113,55.526 135.313,55.526 135.313,58.626 136.113,58.626 136.113,59.626 150.113,59.626 150.113,58.626 "
       style="fill:none;stroke:#000000;stroke-width:0.05mm"
       id="polygon32"
       transform="translate(-3.2024248,-3.0706556)" /><polygon
       points="169.963,58.626 169.963,55.526 169.163,55.526 169.163,49.726 169.963,49.726 169.963,46.626 169.163,46.626 169.163,45.626 155.163,45.626 155.163,46.626 154.363,46.626 154.363,49.726 155.163,49.726 155.163,55.526 154.363,55.526 154.363,58.626 155.163,58.626 155.163,59.626 169.163,59.626 169.163,58.626 "
       style="fill:none;stroke:#000000;stroke-width:0.05mm"
       id="polygon33"
       transform="translate(-3.2024248,-3.0706556)" /><polygon
       points="189.013,58.626 189.013,55.526 188.213,55.526 188.213,49.726 189.013,49.726 189.013,46.626 188.213,46.626 188.213,45.626 174.213,45.626 174.213,46.626 173.413,46.626 173.413,49.726 174.213,49.726 174.213,55.526 173.413,55.526 173.413,58.626 174.213,58.626 174.213,59.626 188.213,59.626 188.213,58.626 "
       style="fill:none;stroke:#000000;stroke-width:0.05mm"
       id="polygon34"
       transform="translate(-3.2024248,-3.0706556)" /><polygon
       points="208.063,58.626 208.063,55.526 207.263,55.526 207.263,49.726 208.063,49.726 208.063,46.626 207.263,46.626 207.263,45.626 193.263,45.626 193.263,46.626 192.463,46.626 192.463,49.726 193.263,49.726 193.263,55.526 192.463,55.526 192.463,58.626 193.263,58.626 193.263,59.626 207.263,59.626 207.263,58.626 "
       style="fill:none;stroke:#000000;stroke-width:0.05mm"
       id="polygon35"
       transform="translate(-3.2024248,-3.0706556)" /><polygon
       points="227.113,58.626 227.113,55.526 226.313,55.526 226.313,49.726 227.113,49.726 227.113,46.626 226.313,46.626 226.313,45.626 212.313,45.626 212.313,46.626 211.513,46.626 211.513,49.726 212.313,49.726 212.313,55.526 211.513,55.526 211.513,58.626 212.313,58.626 212.313,59.626 226.313,59.626 226.313,58.626 "
       style="fill:none;stroke:#000000;stroke-width:0.05mm"
       id="polygon36"
       transform="translate(-3.2024248,-3.0706556)" /><polygon
       points="246.163,58.626 246.163,55.526 245.363,55.526 245.363,49.726 246.163,49.726 246.163,46.626 245.363,46.626 245.363,45.626 231.363,45.626 231.363,46.626 230.563,46.626 230.563,49.726 231.363,49.726 231.363,55.526 230.563,55.526 230.563,58.626 231.363,58.626 231.363,59.626 245.363,59.626 245.363,58.626 "
       style="fill:none;stroke:#000000;stroke-width:0.05mm"
       id="polygon37"
       transform="translate(-3.2024248,-3.0706556)" /><polygon
       points="27.088,39.576 27.088,36.476 26.288,36.476 26.288,30.676 27.088,30.676 27.088,27.576 26.288,27.576 26.288,26.576 12.288,26.576 12.288,27.576 11.488,27.576 11.488,30.676 12.288,30.676 12.288,36.476 11.488,36.476 11.488,39.576 12.288,39.576 12.288,40.576 26.288,40.576 26.288,39.576 "
       style="fill:none;stroke:#000000;stroke-width:0.05mm"
       id="polygon38"
       transform="translate(-3.2024248,-3.0706556)" /><polygon
       points="50.901,39.576 50.901,36.476 50.101,36.476 50.101,30.676 50.901,30.676 50.901,27.576 50.101,27.576 50.101,26.576 36.101,26.576 36.101,27.576 35.301,27.576 35.301,30.676 36.101,30.676 36.101,36.476 35.301,36.476 35.301,39.576 36.101,39.576 36.101,40.576 50.101,40.576 50.101,39.576 "
       style="fill:none;stroke:#000000;stroke-width:0.05mm"
       id="polygon39"
       transform="translate(-3.2024248,-3.0706556)" /><polygon
       points="69.951,39.576 69.951,36.476 69.151,36.476 69.151,30.676 69.951,30.676 69.951,27.576 69.151,27.576 69.151,26.576 55.151,26.576 55.151,27.576 54.351,27.576 54.351,30.676 55.151,30.676 55.151,36.476 54.351,36.476 54.351,39.576 55.151,39.576 55.151,40.576 69.151,40.576 69.151,39.576 "
       style="fill:none;stroke:#000000;stroke-width:0.05mm"
       id="polygon40"
       transform="translate(-3.2024248,-3.0706556)" /><polygon
       points="89.001,39.576 89.001,36.476 88.201,36.476 88.201,30.676 89.001,30.676 89.001,27.576 88.201,27.576 88.201,26.576 74.201,26.576 74.201,27.576 73.401,27.576 73.401,30.676 74.201,30.676 74.201,36.476 73.401,36.476 73.401,39.576 74.201,39.576 74.201,40.576 88.201,40.576 88.201,39.576 "
       style="fill:none;stroke:#000000;stroke-width:0.05mm"
       id="polygon41"
       transform="translate(-3.2024248,-3.0706556)" /><polygon
       points="108.051,39.576 108.051,36.476 107.251,36.476 107.251,30.676 108.051,30.676 108.051,27.576 107.251,27.576 107.251,26.576 93.251,26.576 93.251,27.576 92.451,27.576 92.451,30.676 93.251,30.676 93.251,36.476 92.451,36.476 92.451,39.576 93.251,39.576 93.251,40.576 107.251,40.576 107.251,39.576 "
       style="fill:none;stroke:#000000;stroke-width:0.05mm"
       id="polygon42"
       transform="translate(-3.2024248,-3.0706556)" /><polygon
       points="127.101,39.576 127.101,36.476 126.301,36.476 126.301,30.676 127.101,30.676 127.101,27.576 126.301,27.576 126.301,26.576 112.301,26.576 112.301,27.576 111.501,27.576 111.501,30.676 112.301,30.676 112.301,36.476 111.501,36.476 111.501,39.576 112.301,39.576 112.301,40.576 126.301,40.576 126.301,39.576 "
       style="fill:none;stroke:#000000;stroke-width:0.05mm"
       id="polygon43"
       transform="translate(-3.2024248,-3.0706556)" /><polygon
       points="146.151,39.576 146.151,36.476 145.351,36.476 145.351,30.676 146.151,30.676 146.151,27.576 145.351,27.576 145.351,26.576 131.351,26.576 131.351,27.576 130.55,27.576 130.55,30.676 131.351,30.676 131.351,36.476 130.55,36.476 130.55,39.576 131.351,39.576 131.351,40.576 145.351,40.576 145.351,39.576 "
       style="fill:none;stroke:#000000;stroke-width:0.05mm"
       id="polygon44"
       transform="translate(-3.2024248,-3.0706556)" /><polygon
       points="165.201,39.576 165.201,36.476 164.401,36.476 164.401,30.676 165.201,30.676 165.201,27.576 164.401,27.576 164.401,26.576 150.401,26.576 150.401,27.576 149.601,27.576 149.601,30.676 150.401,30.676 150.401,36.476 149.601,36.476 149.601,39.576 150.401,39.576 150.401,40.576 164.401,40.576 164.401,39.576 "
       style="fill:none;stroke:#000000;stroke-width:0.05mm"
       id="polygon45"
       transform="translate(-3.2024248,-3.0706556)" /><polygon
       points="184.251,39.576 184.251,36.476 183.451,36.476 183.451,30.676 184.251,30.676 184.251,27.576 183.451,27.576 183.451,26.576 169.451,26.576 169.451,27.576 168.651,27.576 168.651,30.676 169.451,30.676 169.451,36.476 168.651,36.476 168.651,39.576 169.451,39.576 169.451,40.576 183.451,40.576 183.451,39.576 "
       style="fill:none;stroke:#000000;stroke-width:0.05mm"
       id="polygon46"
       transform="translate(-3.2024248,-3.0706556)" /><polygon
       points="203.301,39.576 203.301,36.476 202.501,36.476 202.501,30.676 203.301,30.676 203.301,27.576 202.501,27.576 202.501,26.576 188.501,26.576 188.501,27.576 187.701,27.576 187.701,30.676 188.501,30.676 188.501,36.476 187.701,36.476 187.701,39.576 188.501,39.576 188.501,40.576 202.501,40.576 202.501,39.576 "
       style="fill:none;stroke:#000000;stroke-width:0.05mm"
       id="polygon47"
       transform="translate(-3.2024248,-3.0706556)" /><polygon
       points="222.351,39.576 222.351,36.476 221.551,36.476 221.551,30.676 222.351,30.676 222.351,27.576 221.551,27.576 221.551,26.576 207.551,26.576 207.551,27.576 206.751,27.576 206.751,30.676 207.551,30.676 207.551,36.476 206.751,36.476 206.751,39.576 207.551,39.576 207.551,40.576 221.551,40.576 221.551,39.576 "
       style="fill:none;stroke:#000000;stroke-width:0.05mm"
       id="polygon48"
       transform="translate(-3.2024248,-3.0706556)" /><polygon
       points="241.401,39.576 241.401,36.476 240.601,36.476 240.601,30.676 241.401,30.676 241.401,27.576 240.601,27.576 240.601,26.576 226.601,26.576 226.601,27.576 225.801,27.576 225.801,30.676 226.601,30.676 226.601,36.476 225.801,36.476 225.801,39.576 226.601,39.576 226.601,40.576 240.601,40.576 240.601,39.576 "
       style="fill:none;stroke:#000000;stroke-width:0.05mm"
       id="polygon49"
       transform="translate(-3.2024248,-3.0706556)" /><polygon
       points="260.451,39.576 260.451,36.476 259.65,36.476 259.65,30.676 260.451,30.676 260.451,27.576 259.65,27.576 259.65,26.576 245.651,26.576 245.651,27.576 244.851,27.576 244.851,30.676 245.651,30.676 245.651,36.476 244.851,36.476 244.851,39.576 245.651,39.576 245.651,40.576 259.65,40.576 259.65,39.576 "
       style="fill:none;stroke:#000000;stroke-width:0.05mm"
       id="polygon50"
       transform="translate(-3.2024248,-3.0706556)" /><polygon
       points="284.263,39.576 284.263,36.476 283.463,36.476 283.463,30.676 284.263,30.676 284.263,27.576 283.463,27.576 283.463,26.576 269.463,26.576 269.463,27.576 268.663,27.576 268.663,30.676 269.463,30.676 269.463,36.476 268.663,36.476 268.663,39.576 269.463,39.576 269.463,40.576 283.463,40.576 283.463,39.576 "
       style="fill:none;stroke:#000000;stroke-width:0.05mm"
       id="polygon51"
       transform="translate(-3.2024248,-3.0706556)" /><polygon
       points="312.838,39.576 312.838,36.476 312.038,36.476 312.038,30.676 312.838,30.676 312.838,27.576 312.038,27.576 312.038,26.576 298.038,26.576 298.038,27.576 297.238,27.576 297.238,30.676 298.038,30.676 298.038,36.476 297.238,36.476 297.238,39.576 298.038,39.576 298.038,40.576 312.038,40.576 312.038,39.576 "
       style="fill:none;stroke:#000000;stroke-width:0.05mm"
       id="polygon52"
       transform="translate(-3.2024248,-3.0706556)" /><polygon
       points="331.888,39.576 331.888,36.476 331.088,36.476 331.088,30.676 331.888,30.676 331.888,27.576 331.088,27.576 331.088,26.576 317.088,26.576 317.088,27.576 316.288,27.576 316.288,30.676 317.088,30.676 317.088,36.476 316.288,36.476 316.288,39.576 317.088,39.576 317.088,40.576 331.088,40.576 331.088,39.576 "
       style="fill:none;stroke:#000000;stroke-width:0.05mm"
       id="polygon53"
       transform="translate(-3.2024248,-3.0706556)" /><polygon
       points="256.426,15.026 256.426,21.296 258.15,21.296 258.15,22.496 261.451,22.496 261.451,21.296 263.176,21.296 263.176,16.826 264.701,16.826 264.701,17.426 263.901,17.426 263.901,20.526 264.701,20.526 264.701,21.526 278.701,21.526 278.701,20.526 279.501,20.526 279.501,17.426 278.701,17.426 278.701,16.826 280.226,16.826 280.226,21.296 281.951,21.296 281.951,22.496 285.251,22.496 285.251,21.296 286.976,21.296 286.976,15.026 287.801,15.026 287.801,12.226 286.976,12.226 286.976,8.996 280.226,8.996 280.226,12.226 278.701,12.226 278.701,11.626 279.501,11.626 279.501,8.526 278.701,8.526 278.701,7.526 264.701,7.526 264.701,8.526 263.901,8.526 263.901,11.626 264.701,11.626 264.701,12.226 263.176,12.226 263.176,8.996 256.426,8.996 256.426,12.226 255.601,12.226 255.601,15.026 "
       style="fill:none;stroke:#000000;stroke-width:0.05mm"
       id="polygon54"
       transform="translate(-3.2024248,-3.0706556)" /><polygon
       points="22.326,20.526 22.326,17.426 21.526,17.426 21.526,11.626 22.326,11.626 22.326,8.526 21.526,8.526 21.526,7.526 7.526,7.526 7.526,8.526 6.726,8.526 6.726,11.626 7.526,11.626 7.526,17.426 6.726,17.426 6.726,20.526 7.526,20.526 7.526,21.526 21.526,21.526 21.526,20.526 "
       style="fill:none;stroke:#000000;stroke-width:0.05mm"
       id="polygon55"
       transform="translate(-3.2024248,-3.0706556)" /><polygon
       points="41.376,20.526 41.376,17.426 40.576,17.426 40.576,11.626 41.376,11.626 41.376,8.526 40.576,8.526 40.576,7.526 26.576,7.526 26.576,8.526 25.776,8.526 25.776,11.626 26.576,11.626 26.576,17.426 25.776,17.426 25.776,20.526 26.576,20.526 26.576,21.526 40.576,21.526 40.576,20.526 "
       style="fill:none;stroke:#000000;stroke-width:0.05mm"
       id="polygon56"
       transform="translate(-3.2024248,-3.0706556)" /><polygon
       points="60.426,20.526 60.426,17.426 59.626,17.426 59.626,11.626 60.426,11.626 60.426,8.526 59.626,8.526 59.626,7.526 45.626,7.526 45.626,8.526 44.826,8.526 44.826,11.626 45.626,11.626 45.626,17.426 44.826,17.426 44.826,20.526 45.626,20.526 45.626,21.526 59.626,21.526 59.626,20.526 "
       style="fill:none;stroke:#000000;stroke-width:0.05mm"
       id="polygon57"
       transform="translate(-3.2024248,-3.0706556)" /><polygon
       points="79.476,20.526 79.476,17.426 78.676,17.426 78.676,11.626 79.476,11.626 79.476,8.526 78.676,8.526 78.676,7.526 64.676,7.526 64.676,8.526 63.876,8.526 63.876,11.626 64.676,11.626 64.676,17.426 63.876,17.426 63.876,20.526 64.676,20.526 64.676,21.526 78.676,21.526 78.676,20.526 "
       style="fill:none;stroke:#000000;stroke-width:0.05mm"
       id="polygon58"
       transform="translate(-3.2024248,-3.0706556)" /><polygon
       points="98.525,20.526 98.525,17.426 97.726,17.426 97.726,11.626 98.525,11.626 98.525,8.526 97.726,8.526 97.726,7.526 83.726,7.526 83.726,8.526 82.926,8.526 82.926,11.626 83.726,11.626 83.726,17.426 82.926,17.426 82.926,20.526 83.726,20.526 83.726,21.526 97.726,21.526 97.726,20.526 "
       style="fill:none;stroke:#000000;stroke-width:0.05mm"
       id="polygon59"
       transform="translate(-3.2024248,-3.0706556)" /><polygon
       points="117.575,20.526 117.575,17.426 116.775,17.426 116.775,11.626 117.575,11.626 117.575,8.526 116.775,8.526 116.775,7.526 102.775,7.526 102.775,8.526 101.976,8.526 101.976,11.626 102.775,11.626 102.775,17.426 101.976,17.426 101.976,20.526 102.775,20.526 102.775,21.526 116.775,21.526 116.775,20.526 "
       style="fill:none;stroke:#000000;stroke-width:0.05mm"
       id="polygon60"
       transform="translate(-3.2024248,-3.0706556)" /><polygon
       points="136.626,20.526 136.626,17.426 135.826,17.426 135.826,11.626 136.626,11.626 136.626,8.526 135.826,8.526 135.826,7.526 121.825,7.526 121.825,8.526 121.025,8.526 121.025,11.626 121.825,11.626 121.825,17.426 121.025,17.426 121.025,20.526 121.825,20.526 121.825,21.526 135.826,21.526 135.826,20.526 "
       style="fill:none;stroke:#000000;stroke-width:0.05mm"
       id="polygon61"
       transform="translate(-3.2024248,-3.0706556)" /><polygon
       points="155.676,20.526 155.676,17.426 154.876,17.426 154.876,11.626 155.676,11.626 155.676,8.526 154.876,8.526 154.876,7.526 140.876,7.526 140.876,8.526 140.076,8.526 140.076,11.626 140.876,11.626 140.876,17.426 140.076,17.426 140.076,20.526 140.876,20.526 140.876,21.526 154.876,21.526 154.876,20.526 "
       style="fill:none;stroke:#000000;stroke-width:0.05mm"
       id="polygon62"
       transform="translate(-3.2024248,-3.0706556)" /><polygon
       points="174.726,20.526 174.726,17.426 173.926,17.426 173.926,11.626 174.726,11.626 174.726,8.526 173.926,8.526 173.926,7.526 159.926,7.526 159.926,8.526 159.126,8.526 159.126,11.626 159.926,11.626 159.926,17.426 159.126,17.426 159.126,20.526 159.926,20.526 159.926,21.526 173.926,21.526 173.926,20.526 "
       style="fill:none;stroke:#000000;stroke-width:0.05mm"
       id="polygon63"
       transform="translate(-3.2024248,-3.0706556)" /><polygon
       points="193.776,20.526 193.776,17.426 192.976,17.426 192.976,11.626 193.776,11.626 193.776,8.526 192.976,8.526 192.976,7.526 178.976,7.526 178.976,8.526 178.176,8.526 178.176,11.626 178.976,11.626 178.976,17.426 178.176,17.426 178.176,20.526 178.976,20.526 178.976,21.526 192.976,21.526 192.976,20.526 "
       style="fill:none;stroke:#000000;stroke-width:0.05mm"
       id="polygon64"
       transform="translate(-3.2024248,-3.0706556)" /><polygon
       points="212.826,20.526 212.826,17.426 212.026,17.426 212.026,11.626 212.826,11.626 212.826,8.526 212.026,8.526 212.026,7.526 198.026,7.526 198.026,8.526 197.226,8.526 197.226,11.626 198.026,11.626 198.026,17.426 197.226,17.426 197.226,20.526 198.026,20.526 198.026,21.526 212.026,21.526 212.026,20.526 "
       style="fill:none;stroke:#000000;stroke-width:0.05mm"
       id="polygon65"
       transform="translate(-3.2024248,-3.0706556)" /><polygon
       points="231.876,20.526 231.876,17.426 231.076,17.426 231.076,11.626 231.876,11.626 231.876,8.526 231.076,8.526 231.076,7.526 217.076,7.526 217.076,8.526 216.276,8.526 216.276,11.626 217.076,11.626 217.076,17.426 216.276,17.426 216.276,20.526 217.076,20.526 217.076,21.526 231.076,21.526 231.076,20.526 "
       style="fill:none;stroke:#000000;stroke-width:0.05mm"
       id="polygon66"
       transform="translate(-3.2024248,-3.0706556)" /><polygon
       points="250.926,20.526 250.926,17.426 250.126,17.426 250.126,11.626 250.926,11.626 250.926,8.526 250.126,8.526 250.126,7.526 236.126,7.526 236.126,8.526 235.326,8.526 235.326,11.626 236.126,11.626 236.126,17.426 235.326,17.426 235.326,20.526 236.126,20.526 236.126,21.526 250.126,21.526 250.126,20.526 "
       style="fill:none;stroke:#000000;stroke-width:0.05mm"
       id="polygon67"
       transform="translate(-3.2024248,-3.0706556)" /><polygon
       points="312.838,20.526 312.838,17.426 312.038,17.426 312.038,11.626 312.838,11.626 312.838,8.526 312.038,8.526 312.038,7.526 298.038,7.526 298.038,8.526 297.238,8.526 297.238,11.626 298.038,11.626 298.038,17.426 297.238,17.426 297.238,20.526 298.038,20.526 298.038,21.526 312.038,21.526 312.038,20.526 "
       style="fill:none;stroke:#000000;stroke-width:0.05mm"
       id="polygon68"
       transform="translate(-3.2024248,-3.0706556)" /><polygon
       points="331.888,20.526 331.888,17.426 331.088,17.426 331.088,11.626 331.888,11.626 331.888,8.526 331.088,8.526 331.088,7.526 317.088,7.526 317.088,8.526 316.288,8.526 316.288,11.626 317.088,11.626 317.088,17.426 316.288,17.426 316.288,20.526 317.088,20.526 317.088,21.526 331.088,21.526 331.088,20.526 "
       style="fill:none;stroke:#000000;stroke-width:0.05mm"
       id="polygon69"
       transform="translate(-3.2024248,-3.0706556)" /></g><style
     type="text/css"
     id="style1">
    .keycap .border { stroke: black; stroke-width: 2; }
    .keycap .inner.border { stroke: rgba(0,0,0,.1); }
    </style></svg>
