0
SECTION
2
HEADER
9
$INSUNITS
70
4
9
$ACADVER
1
AC1014
9
$HANDSEED
5
FFFF
0
ENDSEC
0
SECTION
2
TABLES
0
TABLE
2
VPORT
5
8
100
AcDbSymbolTable
0
ENDTAB
0
TABLE
2
LTYPE
5
5
100
AcDbSymbolTable
0
LTYPE
5
14
100
AcDbSymbolTableRecord
100
AcDbLinetypeTableRecord
2
BYBLOCK
70
0
0
LTYPE
5
15
100
AcDbSymbolTableRecord
100
AcDbLinetypeTableRecord
2
BYLAYER
70
0
0
LTYPE
5
16
100
AcDbSymbolTableRecord
100
AcDbLinetypeTableRecord
2
DASHED
70
0
3
Dashed __ __ __ __ __ __ __ __ __ __ __ __ __ _
72
65
73
2
40
0.75
49
0.5
74
0
49
-0.25
74
0
0
ENDTAB
0
TABLE
2
LAYER
5
2
100
AcDbSymbolTable
70
3
0
LAYER
5
50
100
AcDbSymbolTableRecord
100
AcDbLayerTableRecord
2
1
70
0
62
7
6
DASHED
0
LAYER
5
51
100
AcDbSymbolTableRecord
100
AcDbLayerTableRecord
2
0
70
0
62
7
6
CONTINUOUS
0
ENDTAB
0
TABLE
2
STYLE
5
3
100
AcDbSymbolTable
70
1
0
STYLE
5
11
100
AcDbSymbolTableRecord
100
AcDbTextStyleTableRecord
2
STANDARD
70
0
0
ENDTAB
0
TABLE
2
VIEW
5
6
100
AcDbSymbolTable
70
0
0
ENDTAB
0
TABLE
2
UCS
5
7
100
AcDbSymbolTable
70
0
0
ENDTAB
0
TABLE
2
APPID
5
9
100
AcDbSymbolTable
70
2
0
APPID
5
12
100
AcDbSymbolTableRecord
100
AcDbRegAppTableRecord
2
ACAD
70
0
0
ENDTAB
0
TABLE
2
DIMSTYLE
5
A
100
AcDbSymbolTable
70
1
0
ENDTAB
0
TABLE
2
BLOCK_RECORD
5
1
100
AcDbSymbolTable
70
1
0
BLOCK_RECORD
5
1F
100
AcDbSymbolTableRecord
100
AcDbBlockTableRecord
2
*MODEL_SPACE
0
BLOCK_RECORD
5
1B
100
AcDbSymbolTableRecord
100
AcDbBlockTableRecord
2
*PAPER_SPACE
0
ENDTAB
0
ENDSEC
0
SECTION
2
BLOCKS
0
BLOCK
5
20
100
AcDbEntity
100
AcDbBlockBegin
2
*MODEL_SPACE
0
ENDBLK
5
21
100
AcDbEntity
100
AcDbBlockEnd
0
BLOCK
5
1C
100
AcDbEntity
100
AcDbBlockBegin
2
*PAPER_SPACE
0
ENDBLK
5
1D
100
AcDbEntity
100
AcDbBlockEnd
0
ENDSEC
0
SECTION
2
ENTITIES
0
LWPOLYLINE
5
100
100
AcDbEntity
8
0
100
AcDbPolyline
90
4
70
1
43
0.0
10
-293.34816000000018
20
-54.943660000000001
10
-326.34816000000012
20
-54.943660000000001
10
-326.34816000000012
20
-40.943660000000001
10
-293.34816000000018
20
-40.943660000000001
0
LWPOLYLINE
5
101
100
AcDbEntity
8
0
100
AcDbPolyline
90
20
70
1
43
0.0
10
-293.13200000000001
20
-72.932600000000008
10
-293.13200000000001
20
-73.933099999999996
10
-307.13200000000001
20
-73.933099999999996
10
-307.13200000000001
20
-72.932600000000008
10
-307.93099999999998
20
-72.932600000000008
10
-307.93099999999998
20
-69.833399999999997
10
-307.13200000000001
20
-69.833399999999997
10
-307.13200000000001
20
-64.0334
10
-307.93099999999998
20
-64.0334
10
-307.93099999999998
20
-60.9328
10
-307.13200000000001
20
-60.9328
10
-307.13200000000001
20
-59.933800000000005
10
-293.13200000000001
20
-59.933800000000005
10
-293.13200000000001
20
-60.9328
10
-292.33099999999996
20
-60.9328
10
-292.33099999999996
20
-64.0334
10
-293.13200000000001
20
-64.0334
10
-293.13200000000001
20
-69.833399999999997
10
-292.33099999999996
20
-69.833399999999997
10
-292.33099999999996
20
-72.932600000000008
0
LWPOLYLINE
5
102
100
AcDbEntity
8
0
100
AcDbPolyline
90
20
70
1
43
0.0
10
-274.08199999999999
20
-15.7827
10
-274.08199999999999
20
-16.783100000000001
10
-288.08199999999999
20
-16.783100000000001
10
-288.08199999999999
20
-15.7827
10
-288.88099999999997
20
-15.7827
10
-288.88099999999997
20
-12.684800000000001
10
-288.08199999999999
20
-12.684800000000001
10
-288.08199999999999
20
-6.8832899999999997
10
-288.88099999999997
20
-6.8832899999999997
10
-288.88099999999997
20
-3.7827300000000008
10
-288.08199999999999
20
-3.7827300000000008
10
-288.08199999999999
20
-2.7836400000000001
10
-274.08199999999999
20
-2.7836400000000001
10
-274.08199999999999
20
-3.7827300000000008
10
-273.28100000000001
20
-3.7827300000000008
10
-273.28100000000001
20
-6.8832899999999997
10
-274.08199999999999
20
-6.8832899999999997
10
-274.08199999999999
20
-12.684800000000001
10
-273.28100000000001
20
-12.684800000000001
10
-273.28100000000001
20
-15.7827
0
LWPOLYLINE
5
103
100
AcDbEntity
8
0
100
AcDbPolyline
90
36
70
1
43
0.0
10
-259.79500000000002
20
-88.282600000000002
10
-259.79500000000002
20
-92.983099999999993
10
-273.79400000000004
20
-92.983099999999993
10
-273.79400000000004
20
-88.282600000000002
10
-275.31999999999999
20
-88.282600000000002
10
-275.31999999999999
20
-91.512699999999995
10
-282.06900000000007
20
-91.512699999999995
10
-282.06900000000007
20
-88.282600000000002
10
-282.89499999999998
20
-88.282600000000002
10
-282.89499999999998
20
-85.483699999999999
10
-282.06900000000007
20
-85.483699999999999
10
-282.06900000000007
20
-79.213800000000006
10
-280.34399999999999
20
-79.213800000000006
10
-280.34399999999999
20
-78.013599999999997
10
-277.04500000000002
20
-78.013599999999997
10
-277.04500000000002
20
-79.213800000000006
10
-275.31999999999999
20
-79.213800000000006
10
-275.31999999999999
20
-83.6828
10
-273.79400000000004
20
-83.6828
10
-273.79400000000004
20
-78.983800000000002
10
-259.79500000000002
20
-78.983800000000002
10
-259.79500000000002
20
-83.6828
10
-258.26900000000001
20
-83.6828
10
-258.26900000000001
20
-79.213800000000006
10
-256.54400000000004
20
-79.213800000000006
10
-256.54400000000004
20
-78.013599999999997
10
-253.24299999999999
20
-78.013599999999997
10
-253.24299999999999
20
-79.213800000000006
10
-251.52000000000001
20
-79.213800000000006
10
-251.52000000000001
20
-85.483699999999999
10
-250.69400000000002
20
-85.483699999999999
10
-250.69400000000002
20
-88.282600000000002
10
-251.52000000000001
20
-88.282600000000002
10
-251.52000000000001
20
-91.512699999999995
10
-258.26900000000001
20
-91.512699999999995
10
-258.26900000000001
20
-88.282600000000002
0
LWPOLYLINE
5
104
100
AcDbEntity
8
0
100
AcDbPolyline
90
20
70
1
43
0.0
10
-243.126
20
-15.7827
10
-243.126
20
-16.783100000000001
10
-257.125
20
-16.783100000000001
10
-257.125
20
-15.7827
10
-257.92599999999999
20
-15.7827
10
-257.92599999999999
20
-12.684800000000001
10
-257.125
20
-12.684800000000001
10
-257.125
20
-6.8832899999999997
10
-257.92599999999999
20
-6.8832899999999997
10
-257.92599999999999
20
-3.7827300000000008
10
-257.125
20
-3.7827300000000008
10
-257.125
20
-2.7836400000000001
10
-243.126
20
-2.7836400000000001
10
-243.126
20
-3.7827300000000008
10
-242.32500000000002
20
-3.7827300000000008
10
-242.32500000000002
20
-6.8832899999999997
10
-243.126
20
-6.8832899999999997
10
-243.126
20
-12.684800000000001
10
-242.32500000000002
20
-12.684800000000001
10
-242.32500000000002
20
-15.7827
0
LWPOLYLINE
5
105
100
AcDbEntity
8
0
100
AcDbPolyline
90
20
70
1
43
0.0
10
-193.12
20
-91.982600000000019
10
-193.12
20
-92.983099999999993
10
-207.11900000000003
20
-92.983099999999993
10
-207.11900000000003
20
-91.982600000000019
10
-207.92000000000002
20
-91.982600000000019
10
-207.92000000000002
20
-88.883399999999995
10
-207.11900000000003
20
-88.883399999999995
10
-207.11900000000003
20
-83.083399999999997
10
-207.92000000000002
20
-83.083399999999997
10
-207.92000000000002
20
-79.982799999999997
10
-207.11900000000003
20
-79.982799999999997
10
-207.11900000000003
20
-78.983800000000002
10
-193.12
20
-78.983800000000002
10
-193.12
20
-79.982799999999997
10
-192.31900000000002
20
-79.982799999999997
10
-192.31900000000002
20
-83.083399999999997
10
-193.12
20
-83.083399999999997
10
-193.12
20
-88.883399999999995
10
-192.31900000000002
20
-88.883399999999995
10
-192.31900000000002
20
-91.982600000000019
0
LWPOLYLINE
5
106
100
AcDbEntity
8
0
100
AcDbPolyline
90
20
70
1
43
0.0
10
-207.40700000000004
20
-53.882599999999996
10
-207.40700000000004
20
-54.883099999999999
10
-221.40700000000004
20
-54.883099999999999
10
-221.40700000000004
20
-53.882599999999996
10
-222.20600000000002
20
-53.882599999999996
10
-222.20600000000002
20
-50.783400000000007
10
-221.40700000000004
20
-50.783400000000007
10
-221.40700000000004
20
-44.983400000000003
10
-222.20600000000002
20
-44.983400000000003
10
-222.20600000000002
20
-41.882800000000003
10
-221.40700000000004
20
-41.882800000000003
10
-221.40700000000004
20
-40.883800000000001
10
-207.40700000000004
20
-40.883800000000001
10
-207.40700000000004
20
-41.882800000000003
10
-206.60600000000002
20
-41.882800000000003
10
-206.60600000000002
20
-44.983400000000003
10
-207.40700000000004
20
-44.983400000000003
10
-207.40700000000004
20
-50.783400000000007
10
-206.60600000000002
20
-50.783400000000007
10
-206.60600000000002
20
-53.882599999999996
0
LWPOLYLINE
5
107
100
AcDbEntity
8
0
100
AcDbPolyline
90
20
70
1
43
0.0
10
-219.31200000000004
20
-15.7827
10
-219.31200000000004
20
-16.783100000000001
10
-233.31299999999999
20
-16.783100000000001
10
-233.31299999999999
20
-15.7827
10
-234.11200000000002
20
-15.7827
10
-234.11200000000002
20
-12.684800000000001
10
-233.31299999999999
20
-12.684800000000001
10
-233.31299999999999
20
-6.8832899999999997
10
-234.11200000000002
20
-6.8832899999999997
10
-234.11200000000002
20
-3.7827300000000008
10
-233.31299999999999
20
-3.7827300000000008
10
-233.31299999999999
20
-2.7836400000000001
10
-219.31200000000004
20
-2.7836400000000001
10
-219.31200000000004
20
-3.7827300000000008
10
-218.51300000000003
20
-3.7827300000000008
10
-218.51300000000003
20
-6.8832899999999997
10
-219.31200000000004
20
-6.8832899999999997
10
-219.31200000000004
20
-12.684800000000001
10
-218.51300000000003
20
-12.684800000000001
10
-218.51300000000003
20
-15.7827
0
LWPOLYLINE
5
108
100
AcDbEntity
8
0
100
AcDbPolyline
90
20
70
1
43
0.0
10
-164.54499999999999
20
-72.932600000000008
10
-164.54499999999999
20
-73.933099999999996
10
-178.54400000000001
20
-73.933099999999996
10
-178.54400000000001
20
-72.932600000000008
10
-179.345
20
-72.932600000000008
10
-179.345
20
-69.833399999999997
10
-178.54400000000001
20
-69.833399999999997
10
-178.54400000000001
20
-64.0334
10
-179.345
20
-64.0334
10
-179.345
20
-60.9328
10
-178.54400000000001
20
-60.9328
10
-178.54400000000001
20
-59.933800000000005
10
-164.54499999999999
20
-59.933800000000005
10
-164.54499999999999
20
-60.9328
10
-163.74400000000003
20
-60.9328
10
-163.74400000000003
20
-64.0334
10
-164.54499999999999
20
-64.0334
10
-164.54499999999999
20
-69.833399999999997
10
-163.74400000000003
20
-69.833399999999997
10
-163.74400000000003
20
-72.932600000000008
0
LWPOLYLINE
5
109
100
AcDbEntity
8
0
100
AcDbPolyline
90
20
70
1
43
0.0
10
-150.25700000000001
20
-53.882599999999996
10
-150.25700000000001
20
-54.883099999999999
10
-164.25700000000003
20
-54.883099999999999
10
-164.25700000000003
20
-53.882599999999996
10
-165.05599999999998
20
-53.882599999999996
10
-165.05599999999998
20
-50.783400000000007
10
-164.25700000000003
20
-50.783400000000007
10
-164.25700000000003
20
-44.983400000000003
10
-165.05599999999998
20
-44.983400000000003
10
-165.05599999999998
20
-41.882800000000003
10
-164.25700000000003
20
-41.882800000000003
10
-164.25700000000003
20
-40.883800000000001
10
-150.25700000000001
20
-40.883800000000001
10
-150.25700000000001
20
-41.882800000000003
10
-149.45600000000002
20
-41.882800000000003
10
-149.45600000000002
20
-44.983400000000003
10
-150.25700000000001
20
-44.983400000000003
10
-150.25700000000001
20
-50.783400000000007
10
-149.45600000000002
20
-50.783400000000007
10
-149.45600000000002
20
-53.882599999999996
0
LWPOLYLINE
5
110
100
AcDbEntity
8
0
100
AcDbPolyline
90
20
70
1
43
0.0
10
-126.44500000000001
20
-72.932600000000008
10
-126.44500000000001
20
-73.933099999999996
10
-140.44399999999999
20
-73.933099999999996
10
-140.44399999999999
20
-72.932600000000008
10
-141.245
20
-72.932600000000008
10
-141.245
20
-69.833399999999997
10
-140.44399999999999
20
-69.833399999999997
10
-140.44399999999999
20
-64.0334
10
-141.245
20
-64.0334
10
-141.245
20
-60.9328
10
-140.44399999999999
20
-60.9328
10
-140.44399999999999
20
-59.933800000000005
10
-126.44500000000001
20
-59.933800000000005
10
-126.44500000000001
20
-60.9328
10
-125.64399999999999
20
-60.9328
10
-125.64399999999999
20
-64.0334
10
-126.44500000000001
20
-64.0334
10
-126.44500000000001
20
-69.833399999999997
10
-125.64399999999999
20
-69.833399999999997
10
-125.64399999999999
20
-72.932600000000008
0
LWPOLYLINE
5
111
100
AcDbEntity
8
0
100
AcDbPolyline
90
20
70
1
43
0.0
10
-112.15700000000001
20
-53.882599999999996
10
-112.15700000000001
20
-54.883099999999999
10
-126.15700000000002
20
-54.883099999999999
10
-126.15700000000002
20
-53.882599999999996
10
-126.956
20
-53.882599999999996
10
-126.956
20
-50.783400000000007
10
-126.15700000000002
20
-50.783400000000007
10
-126.15700000000002
20
-44.983400000000003
10
-126.956
20
-44.983400000000003
10
-126.956
20
-41.882800000000003
10
-126.15700000000002
20
-41.882800000000003
10
-126.15700000000002
20
-40.883800000000001
10
-112.15700000000001
20
-40.883800000000001
10
-112.15700000000001
20
-41.882800000000003
10
-111.35600000000002
20
-41.882800000000003
10
-111.35600000000002
20
-44.983400000000003
10
-112.15700000000001
20
-44.983400000000003
10
-112.15700000000001
20
-50.783400000000007
10
-111.35600000000002
20
-50.783400000000007
10
-111.35600000000002
20
-53.882599999999996
0
LWPOLYLINE
5
112
100
AcDbEntity
8
0
100
AcDbPolyline
90
20
70
1
43
0.0
10
-88.344700000000017
20
-72.932600000000008
10
-88.344700000000017
20
-73.933099999999996
10
-102.34400000000001
20
-73.933099999999996
10
-102.34400000000001
20
-72.932600000000008
10
-103.14500000000001
20
-72.932600000000008
10
-103.14500000000001
20
-69.833399999999997
10
-102.34400000000001
20
-69.833399999999997
10
-102.34400000000001
20
-64.0334
10
-103.14500000000001
20
-64.0334
10
-103.14500000000001
20
-60.9328
10
-102.34400000000001
20
-60.9328
10
-102.34400000000001
20
-59.933800000000005
10
-88.344700000000017
20
-59.933800000000005
10
-88.344700000000017
20
-60.9328
10
-87.543899999999994
20
-60.9328
10
-87.543899999999994
20
-64.0334
10
-88.344700000000017
20
-64.0334
10
-88.344700000000017
20
-69.833399999999997
10
-87.543899999999994
20
-69.833399999999997
10
-87.543899999999994
20
-72.932600000000008
0
LWPOLYLINE
5
113
100
AcDbEntity
8
0
100
AcDbPolyline
90
20
70
1
43
0.0
10
-74.057199999999995
20
-53.882599999999996
10
-74.057199999999995
20
-54.883099999999999
10
-88.0565
20
-54.883099999999999
10
-88.0565
20
-53.882599999999996
10
-88.855900000000005
20
-53.882599999999996
10
-88.855900000000005
20
-50.783400000000007
10
-88.0565
20
-50.783400000000007
10
-88.0565
20
-44.983400000000003
10
-88.855900000000005
20
-44.983400000000003
10
-88.855900000000005
20
-41.882800000000003
10
-88.0565
20
-41.882800000000003
10
-88.0565
20
-40.883800000000001
10
-74.057199999999995
20
-40.883800000000001
10
-74.057199999999995
20
-41.882800000000003
10
-73.256399999999999
20
-41.882800000000003
10
-73.256399999999999
20
-44.983400000000003
10
-74.057199999999995
20
-44.983400000000003
10
-74.057199999999995
20
-50.783400000000007
10
-73.256399999999999
20
-50.783400000000007
10
-73.256399999999999
20
-53.882599999999996
0
LWPOLYLINE
5
114
100
AcDbEntity
8
0
100
AcDbPolyline
90
20
70
1
43
0.0
10
-55.007200000000005
20
-53.882599999999996
10
-55.007200000000005
20
-54.883099999999999
10
-69.006500000000003
20
-54.883099999999999
10
-69.006500000000003
20
-53.882599999999996
10
-69.805899999999994
20
-53.882599999999996
10
-69.805899999999994
20
-50.783400000000007
10
-69.006500000000003
20
-50.783400000000007
10
-69.006500000000003
20
-44.983400000000003
10
-69.805899999999994
20
-44.983400000000003
10
-69.805899999999994
20
-41.882800000000003
10
-69.006500000000003
20
-41.882800000000003
10
-69.006500000000003
20
-40.883800000000001
10
-55.007200000000005
20
-40.883800000000001
10
-55.007200000000005
20
-41.882800000000003
10
-54.206400000000002
20
-41.882800000000003
10
-54.206400000000002
20
-44.983400000000003
10
-55.007200000000005
20
-44.983400000000003
10
-55.007200000000005
20
-50.783400000000007
10
-54.206400000000002
20
-50.783400000000007
10
-54.206400000000002
20
-53.882599999999996
0
LWPOLYLINE
5
115
100
AcDbEntity
8
0
100
AcDbPolyline
90
20
70
1
43
0.0
10
-35.9572
20
-53.882599999999996
10
-35.9572
20
-54.883099999999999
10
-49.956500000000005
20
-54.883099999999999
10
-49.956500000000005
20
-53.882599999999996
10
-50.755899999999997
20
-53.882599999999996
10
-50.755899999999997
20
-50.783400000000007
10
-49.956500000000005
20
-50.783400000000007
10
-49.956500000000005
20
-44.983400000000003
10
-50.755899999999997
20
-44.983400000000003
10
-50.755899999999997
20
-41.882800000000003
10
-49.956500000000005
20
-41.882800000000003
10
-49.956500000000005
20
-40.883800000000001
10
-35.9572
20
-40.883800000000001
10
-35.9572
20
-41.882800000000003
10
-35.156500000000001
20
-41.882800000000003
10
-35.156500000000001
20
-44.983400000000003
10
-35.9572
20
-44.983400000000003
10
-35.9572
20
-50.783400000000007
10
-35.156500000000001
20
-50.783400000000007
10
-35.156500000000001
20
-53.882599999999996
0
LWPOLYLINE
5
116
100
AcDbEntity
8
0
100
AcDbPolyline
90
20
70
1
43
0.0
10
-5.0009100000000011
20
-15.7827
10
-5.0009100000000011
20
-16.783100000000001
10
-19.000399999999999
20
-16.783100000000001
10
-19.000399999999999
20
-15.7827
10
-19.800999999999998
20
-15.7827
10
-19.800999999999998
20
-12.684800000000001
10
-19.000399999999999
20
-12.684800000000001
10
-19.000399999999999
20
-6.8832899999999997
10
-19.800999999999998
20
-6.8832899999999997
10
-19.800999999999998
20
-3.7827300000000008
10
-19.000399999999999
20
-3.7827300000000008
10
-19.000399999999999
20
-2.7836400000000001
10
-5.0009100000000011
20
-2.7836400000000001
10
-5.0009100000000011
20
-3.7827300000000008
10
-4.2002800000000011
20
-3.7827300000000008
10
-4.2002800000000011
20
-6.8832899999999997
10
-5.0009100000000011
20
-6.8832899999999997
10
-5.0009100000000011
20
-12.684800000000001
10
-4.2002800000000011
20
-12.684800000000001
10
-4.2002800000000011
20
-15.7827
0
LWPOLYLINE
5
117
100
AcDbEntity
8
0
100
AcDbPolyline
90
20
70
1
43
0.0
10
-2.61965
20
-91.982600000000019
10
-2.61965
20
-92.983099999999993
10
-16.619199999999999
20
-92.983099999999993
10
-16.619199999999999
20
-91.982600000000019
10
-17.419799999999999
20
-91.982600000000019
10
-17.419799999999999
20
-88.883399999999995
10
-16.619199999999999
20
-88.883399999999995
10
-16.619199999999999
20
-83.083399999999997
10
-17.419799999999999
20
-83.083399999999997
10
-17.419799999999999
20
-79.982799999999997
10
-16.619199999999999
20
-79.982799999999997
10
-16.619199999999999
20
-78.983800000000002
10
-2.61965
20
-78.983800000000002
10
-2.61965
20
-79.982799999999997
10
-1.8190099999999998
20
-79.982799999999997
10
-1.8190099999999998
20
-83.083399999999997
10
-2.61965
20
-83.083399999999997
10
-2.61965
20
-88.883399999999995
10
-1.8190099999999998
20
-88.883399999999995
10
-1.8190099999999998
20
-91.982600000000019
0
LWPOLYLINE
5
118
100
AcDbEntity
8
0
100
AcDbPolyline
90
20
70
1
43
0.0
10
-21.669699999999999
20
-91.982600000000019
10
-21.669699999999999
20
-92.983099999999993
10
-35.669000000000004
20
-92.983099999999993
10
-35.669000000000004
20
-91.982600000000019
10
-36.469799999999999
20
-91.982600000000019
10
-36.469799999999999
20
-88.883399999999995
10
-35.669000000000004
20
-88.883399999999995
10
-35.669000000000004
20
-83.083399999999997
10
-36.469799999999999
20
-83.083399999999997
10
-36.469799999999999
20
-79.982799999999997
10
-35.669000000000004
20
-79.982799999999997
10
-35.669000000000004
20
-78.983800000000002
10
-21.669699999999999
20
-78.983800000000002
10
-21.669699999999999
20
-79.982799999999997
10
-20.869
20
-79.982799999999997
10
-20.869
20
-83.083399999999997
10
-21.669699999999999
20
-83.083399999999997
10
-21.669699999999999
20
-88.883399999999995
10
-20.869
20
-88.883399999999995
10
-20.869
20
-91.982600000000019
0
LWPOLYLINE
5
119
100
AcDbEntity
8
0
100
AcDbPolyline
90
20
70
1
43
0.0
10
-28.811999999999998
20
-15.7827
10
-28.811999999999998
20
-16.783100000000001
10
-42.81280000000001
20
-16.783100000000001
10
-42.81280000000001
20
-15.7827
10
-43.612200000000001
20
-15.7827
10
-43.612200000000001
20
-12.684800000000001
10
-42.81280000000001
20
-12.684800000000001
10
-42.81280000000001
20
-6.8832899999999997
10
-43.612200000000001
20
-6.8832899999999997
10
-43.612200000000001
20
-3.7827300000000008
10
-42.81280000000001
20
-3.7827300000000008
10
-42.81280000000001
20
-2.7836400000000001
10
-28.811999999999998
20
-2.7836400000000001
10
-28.811999999999998
20
-3.7827300000000008
10
-28.012800000000002
20
-3.7827300000000008
10
-28.012800000000002
20
-6.8832899999999997
10
-28.811999999999998
20
-6.8832899999999997
10
-28.811999999999998
20
-12.684800000000001
10
-28.012800000000002
20
-12.684800000000001
10
-28.012800000000002
20
-15.7827
0
LWPOLYLINE
5
120
100
AcDbEntity
8
0
100
AcDbPolyline
90
20
70
1
43
0.0
10
-31.194700000000001
20
-72.932600000000008
10
-31.194700000000001
20
-73.933099999999996
10
-45.194000000000003
20
-73.933099999999996
10
-45.194000000000003
20
-72.932600000000008
10
-45.994799999999998
20
-72.932600000000008
10
-45.994799999999998
20
-69.833399999999997
10
-45.194000000000003
20
-69.833399999999997
10
-45.194000000000003
20
-64.0334
10
-45.994799999999998
20
-64.0334
10
-45.994799999999998
20
-60.9328
10
-45.194000000000003
20
-60.9328
10
-45.194000000000003
20
-59.933800000000005
10
-31.194700000000001
20
-59.933800000000005
10
-31.194700000000001
20
-60.9328
10
-30.394000000000005
20
-60.9328
10
-30.394000000000005
20
-64.0334
10
-31.194700000000001
20
-64.0334
10
-31.194700000000001
20
-69.833399999999997
10
-30.394000000000005
20
-69.833399999999997
10
-30.394000000000005
20
-72.932600000000008
0
LWPOLYLINE
5
121
100
AcDbEntity
8
0
100
AcDbPolyline
90
20
70
1
43
0.0
10
-64.532200000000003
20
-34.832700000000003
10
-64.532200000000003
20
-35.832999999999998
10
-78.531499999999994
20
-35.832999999999998
10
-78.531499999999994
20
-34.832700000000003
10
-79.3309
20
-34.832700000000003
10
-79.3309
20
-31.7348
10
-78.531499999999994
20
-31.7348
10
-78.531499999999994
20
-25.933299999999999
10
-79.3309
20
-25.933299999999999
10
-79.3309
20
-22.832699999999999
10
-78.531499999999994
20
-22.832699999999999
10
-78.531499999999994
20
-21.833600000000001
10
-64.532200000000003
20
-21.833600000000001
10
-64.532200000000003
20
-22.832699999999999
10
-63.731400000000001
20
-22.832699999999999
10
-63.731400000000001
20
-25.933299999999999
10
-64.532200000000003
20
-25.933299999999999
10
-64.532200000000003
20
-31.7348
10
-63.731400000000001
20
-31.7348
10
-63.731400000000001
20
-34.832700000000003
0
LWPOLYLINE
5
122
100
AcDbEntity
8
0
100
AcDbPolyline
90
20
70
1
43
0.0
10
-69.294700000000006
20
-72.932600000000008
10
-69.294700000000006
20
-73.933099999999996
10
-83.293999999999997
20
-73.933099999999996
10
-83.293999999999997
20
-72.932600000000008
10
-84.094800000000006
20
-72.932600000000008
10
-84.094800000000006
20
-69.833399999999997
10
-83.293999999999997
20
-69.833399999999997
10
-83.293999999999997
20
-64.0334
10
-84.094800000000006
20
-64.0334
10
-84.094800000000006
20
-60.9328
10
-83.293999999999997
20
-60.9328
10
-83.293999999999997
20
-59.933800000000005
10
-69.294700000000006
20
-59.933800000000005
10
-69.294700000000006
20
-60.9328
10
-68.493899999999996
20
-60.9328
10
-68.493899999999996
20
-64.0334
10
-69.294700000000006
20
-64.0334
10
-69.294700000000006
20
-69.833399999999997
10
-68.493899999999996
20
-69.833399999999997
10
-68.493899999999996
20
-72.932600000000008
0
LWPOLYLINE
5
123
100
AcDbEntity
8
0
100
AcDbPolyline
90
20
70
1
43
0.0
10
-93.10720000000002
20
-53.882599999999996
10
-93.10720000000002
20
-54.883099999999999
10
-107.10700000000003
20
-54.883099999999999
10
-107.10700000000003
20
-53.882599999999996
10
-107.90600000000001
20
-53.882599999999996
10
-107.90600000000001
20
-50.783400000000007
10
-107.10700000000003
20
-50.783400000000007
10
-107.10700000000003
20
-44.983400000000003
10
-107.90600000000001
20
-44.983400000000003
10
-107.90600000000001
20
-41.882800000000003
10
-107.10700000000003
20
-41.882800000000003
10
-107.10700000000003
20
-40.883800000000001
10
-93.10720000000002
20
-40.883800000000001
10
-93.10720000000002
20
-41.882800000000003
10
-92.306399999999996
20
-41.882800000000003
10
-92.306399999999996
20
-44.983400000000003
10
-93.10720000000002
20
-44.983400000000003
10
-93.10720000000002
20
-50.783400000000007
10
-92.306399999999996
20
-50.783400000000007
10
-92.306399999999996
20
-53.882599999999996
0
LWPOLYLINE
5
124
100
AcDbEntity
8
0
100
AcDbPolyline
90
20
70
1
43
0.0
10
-107.395
20
-72.932600000000008
10
-107.395
20
-73.933099999999996
10
-121.39400000000001
20
-73.933099999999996
10
-121.39400000000001
20
-72.932600000000008
10
-122.19499999999999
20
-72.932600000000008
10
-122.19499999999999
20
-69.833399999999997
10
-121.39400000000001
20
-69.833399999999997
10
-121.39400000000001
20
-64.0334
10
-122.19499999999999
20
-64.0334
10
-122.19499999999999
20
-60.9328
10
-121.39400000000001
20
-60.9328
10
-121.39400000000001
20
-59.933800000000005
10
-107.395
20
-59.933800000000005
10
-107.395
20
-60.9328
10
-106.59399999999999
20
-60.9328
10
-106.59399999999999
20
-64.0334
10
-107.395
20
-64.0334
10
-107.395
20
-69.833399999999997
10
-106.59399999999999
20
-69.833399999999997
10
-106.59399999999999
20
-72.932600000000008
0
LWPOLYLINE
5
125
100
AcDbEntity
8
0
100
AcDbPolyline
90
20
70
1
43
0.0
10
-131.20699999999999
20
-53.882599999999996
10
-131.20699999999999
20
-54.883099999999999
10
-145.20699999999999
20
-54.883099999999999
10
-145.20699999999999
20
-53.882599999999996
10
-146.006
20
-53.882599999999996
10
-146.006
20
-50.783400000000007
10
-145.20699999999999
20
-50.783400000000007
10
-145.20699999999999
20
-44.983400000000003
10
-146.006
20
-44.983400000000003
10
-146.006
20
-41.882800000000003
10
-145.20699999999999
20
-41.882800000000003
10
-145.20699999999999
20
-40.883800000000001
10
-131.20699999999999
20
-40.883800000000001
10
-131.20699999999999
20
-41.882800000000003
10
-130.40600000000001
20
-41.882800000000003
10
-130.40600000000001
20
-44.983400000000003
10
-131.20699999999999
20
-44.983400000000003
10
-131.20699999999999
20
-50.783400000000007
10
-130.40600000000001
20
-50.783400000000007
10
-130.40600000000001
20
-53.882599999999996
0
LWPOLYLINE
5
126
100
AcDbEntity
8
0
100
AcDbPolyline
90
20
70
1
43
0.0
10
-145.495
20
-72.932600000000008
10
-145.495
20
-73.933099999999996
10
-159.494
20
-73.933099999999996
10
-159.494
20
-72.932600000000008
10
-160.29499999999999
20
-72.932600000000008
10
-160.29499999999999
20
-69.833399999999997
10
-159.494
20
-69.833399999999997
10
-159.494
20
-64.0334
10
-160.29499999999999
20
-64.0334
10
-160.29499999999999
20
-60.9328
10
-159.494
20
-60.9328
10
-159.494
20
-59.933800000000005
10
-145.495
20
-59.933800000000005
10
-145.495
20
-60.9328
10
-144.69400000000002
20
-60.9328
10
-144.69400000000002
20
-64.0334
10
-145.495
20
-64.0334
10
-145.495
20
-69.833399999999997
10
-144.69400000000002
20
-69.833399999999997
10
-144.69400000000002
20
-72.932600000000008
0
LWPOLYLINE
5
127
100
AcDbEntity
8
0
100
AcDbPolyline
90
20
70
1
43
0.0
10
-169.30700000000002
20
-53.882599999999996
10
-169.30700000000002
20
-54.883099999999999
10
-183.30700000000004
20
-54.883099999999999
10
-183.30700000000004
20
-53.882599999999996
10
-184.10599999999999
20
-53.882599999999996
10
-184.10599999999999
20
-50.783400000000007
10
-183.30700000000004
20
-50.783400000000007
10
-183.30700000000004
20
-44.983400000000003
10
-184.10599999999999
20
-44.983400000000003
10
-184.10599999999999
20
-41.882800000000003
10
-183.30700000000004
20
-41.882800000000003
10
-183.30700000000004
20
-40.883800000000001
10
-169.30700000000002
20
-40.883800000000001
10
-169.30700000000002
20
-41.882800000000003
10
-168.50599999999997
20
-41.882800000000003
10
-168.50599999999997
20
-44.983400000000003
10
-169.30700000000002
20
-44.983400000000003
10
-169.30700000000002
20
-50.783400000000007
10
-168.50599999999997
20
-50.783400000000007
10
-168.50599999999997
20
-53.882599999999996
0
LWPOLYLINE
5
128
100
AcDbEntity
8
0
100
AcDbPolyline
90
20
70
1
43
0.0
10
-216.93200000000004
20
-34.832700000000003
10
-216.93200000000004
20
-35.832999999999998
10
-230.93200000000002
20
-35.832999999999998
10
-230.93200000000002
20
-34.832700000000003
10
-231.73100000000002
20
-34.832700000000003
10
-231.73100000000002
20
-31.7348
10
-230.93200000000002
20
-31.7348
10
-230.93200000000002
20
-25.933299999999999
10
-231.73100000000002
20
-25.933299999999999
10
-231.73100000000002
20
-22.832699999999999
10
-230.93200000000002
20
-22.832699999999999
10
-230.93200000000002
20
-21.833600000000001
10
-216.93200000000004
20
-21.833600000000001
10
-216.93200000000004
20
-22.832699999999999
10
-216.131
20
-22.832699999999999
10
-216.131
20
-25.933299999999999
10
-216.93200000000004
20
-25.933299999999999
10
-216.93200000000004
20
-31.7348
10
-216.131
20
-31.7348
10
-216.131
20
-34.832700000000003
0
LWPOLYLINE
5
129
100
AcDbEntity
8
0
100
AcDbPolyline
90
20
70
1
43
0.0
10
-202.64500000000001
20
-72.932600000000008
10
-202.64500000000001
20
-73.933099999999996
10
-216.64400000000001
20
-73.933099999999996
10
-216.64400000000001
20
-72.932600000000008
10
-217.44500000000002
20
-72.932600000000008
10
-217.44500000000002
20
-69.833399999999997
10
-216.64400000000001
20
-69.833399999999997
10
-216.64400000000001
20
-64.0334
10
-217.44500000000002
20
-64.0334
10
-217.44500000000002
20
-60.9328
10
-216.64400000000001
20
-60.9328
10
-216.64400000000001
20
-59.933800000000005
10
-202.64500000000001
20
-59.933800000000005
10
-202.64500000000001
20
-60.9328
10
-201.84400000000005
20
-60.9328
10
-201.84400000000005
20
-64.0334
10
-202.64500000000001
20
-64.0334
10
-202.64500000000001
20
-69.833399999999997
10
-201.84400000000005
20
-69.833399999999997
10
-201.84400000000005
20
-72.932600000000008
0
LWPOLYLINE
5
130
100
AcDbEntity
8
0
100
AcDbPolyline
90
20
70
1
43
0.0
10
-212.16999999999999
20
-91.982600000000019
10
-212.16999999999999
20
-92.983099999999993
10
-226.16900000000001
20
-92.983099999999993
10
-226.16900000000001
20
-91.982600000000019
10
-226.97000000000003
20
-91.982600000000019
10
-226.97000000000003
20
-88.883399999999995
10
-226.16900000000001
20
-88.883399999999995
10
-226.16900000000001
20
-83.083399999999997
10
-226.97000000000003
20
-83.083399999999997
10
-226.97000000000003
20
-79.982799999999997
10
-226.16900000000001
20
-79.982799999999997
10
-226.16900000000001
20
-78.983800000000002
10
-212.16999999999999
20
-78.983800000000002
10
-212.16999999999999
20
-79.982799999999997
10
-211.36900000000003
20
-79.982799999999997
10
-211.36900000000003
20
-83.083399999999997
10
-212.16999999999999
20
-83.083399999999997
10
-212.16999999999999
20
-88.883399999999995
10
-211.36900000000003
20
-88.883399999999995
10
-211.36900000000003
20
-91.982600000000019
0
LWPOLYLINE
5
131
100
AcDbEntity
8
0
100
AcDbPolyline
90
20
70
1
43
0.0
10
-231.22
20
-91.982600000000019
10
-231.22
20
-92.983099999999993
10
-245.21900000000002
20
-92.983099999999993
10
-245.21900000000002
20
-91.982600000000019
10
-246.02000000000004
20
-91.982600000000019
10
-246.02000000000004
20
-88.883399999999995
10
-245.21900000000002
20
-88.883399999999995
10
-245.21900000000002
20
-83.083399999999997
10
-246.02000000000004
20
-83.083399999999997
10
-246.02000000000004
20
-79.982799999999997
10
-245.21900000000002
20
-79.982799999999997
10
-245.21900000000002
20
-78.983800000000002
10
-231.22
20
-78.983800000000002
10
-231.22
20
-79.982799999999997
10
-230.41900000000001
20
-79.982799999999997
10
-230.41900000000001
20
-83.083399999999997
10
-231.22
20
-83.083399999999997
10
-231.22
20
-88.883399999999995
10
-230.41900000000001
20
-88.883399999999995
10
-230.41900000000001
20
-91.982600000000019
0
LWPOLYLINE
5
132
100
AcDbEntity
8
0
100
AcDbPolyline
90
20
70
1
43
0.0
10
-264.55700000000002
20
-72.932600000000008
10
-264.55700000000002
20
-73.933099999999996
10
-278.55700000000002
20
-73.933099999999996
10
-278.55700000000002
20
-72.932600000000008
10
-279.35599999999999
20
-72.932600000000008
10
-279.35599999999999
20
-69.833399999999997
10
-278.55700000000002
20
-69.833399999999997
10
-278.55700000000002
20
-64.0334
10
-279.35599999999999
20
-64.0334
10
-279.35599999999999
20
-60.9328
10
-278.55700000000002
20
-60.9328
10
-278.55700000000002
20
-59.933800000000005
10
-264.55700000000002
20
-59.933800000000005
10
-264.55700000000002
20
-60.9328
10
-263.75599999999997
20
-60.9328
10
-263.75599999999997
20
-64.0334
10
-264.55700000000002
20
-64.0334
10
-264.55700000000002
20
-69.833399999999997
10
-263.75599999999997
20
-69.833399999999997
10
-263.75599999999997
20
-72.932600000000008
0
LWPOLYLINE
5
133
100
AcDbEntity
8
0
100
AcDbPolyline
90
20
70
1
43
0.0
10
-293.13200000000001
20
-15.7827
10
-293.13200000000001
20
-16.783100000000001
10
-307.13200000000001
20
-16.783100000000001
10
-307.13200000000001
20
-15.7827
10
-307.93099999999998
20
-15.7827
10
-307.93099999999998
20
-12.684800000000001
10
-307.13200000000001
20
-12.684800000000001
10
-307.13200000000001
20
-6.8832899999999997
10
-307.93099999999998
20
-6.8832899999999997
10
-307.93099999999998
20
-3.7827300000000008
10
-307.13200000000001
20
-3.7827300000000008
10
-307.13200000000001
20
-2.7836400000000001
10
-293.13200000000001
20
-2.7836400000000001
10
-293.13200000000001
20
-3.7827300000000008
10
-292.33099999999996
20
-3.7827300000000008
10
-292.33099999999996
20
-6.8832899999999997
10
-293.13200000000001
20
-6.8832899999999997
10
-293.13200000000001
20
-12.684800000000001
10
-292.33099999999996
20
-12.684800000000001
10
-292.33099999999996
20
-15.7827
0
LWPOLYLINE
5
134
100
AcDbEntity
8
0
100
AcDbPolyline
90
20
70
1
43
0.0
10
-293.13200000000001
20
-91.982600000000019
10
-293.13200000000001
20
-92.983099999999993
10
-307.13200000000001
20
-92.983099999999993
10
-307.13200000000001
20
-91.982600000000019
10
-307.93099999999998
20
-91.982600000000019
10
-307.93099999999998
20
-88.883399999999995
10
-307.13200000000001
20
-88.883399999999995
10
-307.13200000000001
20
-83.083399999999997
10
-307.93099999999998
20
-83.083399999999997
10
-307.93099999999998
20
-79.982799999999997
10
-307.13200000000001
20
-79.982799999999997
10
-307.13200000000001
20
-78.983800000000002
10
-293.13200000000001
20
-78.983800000000002
10
-293.13200000000001
20
-79.982799999999997
10
-292.33099999999996
20
-79.982799999999997
10
-292.33099999999996
20
-83.083399999999997
10
-293.13200000000001
20
-83.083399999999997
10
-293.13200000000001
20
-88.883399999999995
10
-292.33099999999996
20
-88.883399999999995
10
-292.33099999999996
20
-91.982600000000019
0
LWPOLYLINE
5
135
100
AcDbEntity
8
0
100
AcDbPolyline
90
20
70
1
43
0.0
10
-312.18200000000002
20
-72.932600000000008
10
-312.18200000000002
20
-73.933099999999996
10
-326.18200000000002
20
-73.933099999999996
10
-326.18200000000002
20
-72.932600000000008
10
-326.98100000000005
20
-72.932600000000008
10
-326.98100000000005
20
-69.833399999999997
10
-326.18200000000002
20
-69.833399999999997
10
-326.18200000000002
20
-64.0334
10
-326.98100000000005
20
-64.0334
10
-326.98100000000005
20
-60.9328
10
-326.18200000000002
20
-60.9328
10
-326.18200000000002
20
-59.933800000000005
10
-312.18200000000002
20
-59.933800000000005
10
-312.18200000000002
20
-60.9328
10
-311.38099999999997
20
-60.9328
10
-311.38099999999997
20
-64.0334
10
-312.18200000000002
20
-64.0334
10
-312.18200000000002
20
-69.833399999999997
10
-311.38099999999997
20
-69.833399999999997
10
-311.38099999999997
20
-72.932600000000008
0
LWPOLYLINE
5
136
100
AcDbEntity
8
0
100
AcDbPolyline
90
20
70
1
43
0.0
10
-293.13200000000001
20
-34.832700000000003
10
-293.13200000000001
20
-35.832999999999998
10
-307.13200000000001
20
-35.832999999999998
10
-307.13200000000001
20
-34.832700000000003
10
-307.93099999999998
20
-34.832700000000003
10
-307.93099999999998
20
-31.7348
10
-307.13200000000001
20
-31.7348
10
-307.13200000000001
20
-25.933299999999999
10
-307.93099999999998
20
-25.933299999999999
10
-307.93099999999998
20
-22.832699999999999
10
-307.13200000000001
20
-22.832699999999999
10
-307.13200000000001
20
-21.833600000000001
10
-293.13200000000001
20
-21.833600000000001
10
-293.13200000000001
20
-22.832699999999999
10
-292.33099999999996
20
-22.832699999999999
10
-292.33099999999996
20
-25.933299999999999
10
-293.13200000000001
20
-25.933299999999999
10
-293.13200000000001
20
-31.7348
10
-292.33099999999996
20
-31.7348
10
-292.33099999999996
20
-34.832700000000003
0
LWPOLYLINE
5
137
100
AcDbEntity
8
0
100
AcDbPolyline
90
20
70
1
43
0.0
10
-240.745
20
-72.932600000000008
10
-240.745
20
-73.933099999999996
10
-254.74400000000003
20
-73.933099999999996
10
-254.74400000000003
20
-72.932600000000008
10
-255.54500000000002
20
-72.932600000000008
10
-255.54500000000002
20
-69.833399999999997
10
-254.74400000000003
20
-69.833399999999997
10
-254.74400000000003
20
-64.0334
10
-255.54500000000002
20
-64.0334
10
-255.54500000000002
20
-60.9328
10
-254.74400000000003
20
-60.9328
10
-254.74400000000003
20
-59.933800000000005
10
-240.745
20
-59.933800000000005
10
-240.745
20
-60.9328
10
-239.94400000000002
20
-60.9328
10
-239.94400000000002
20
-64.0334
10
-240.745
20
-64.0334
10
-240.745
20
-69.833399999999997
10
-239.94400000000002
20
-69.833399999999997
10
-239.94400000000002
20
-72.932600000000008
0
LWPOLYLINE
5
138
100
AcDbEntity
8
0
100
AcDbPolyline
90
36
70
1
43
0.0
10
-268.17599999999999
20
-22.063800000000001
10
-268.17599999999999
20
-26.532699999999998
10
-266.64999999999998
20
-26.532699999999998
10
-266.64999999999998
20
-21.833600000000001
10
-252.65000000000001
20
-21.833600000000001
10
-252.65000000000001
20
-26.532699999999998
10
-251.126
20
-26.532699999999998
10
-251.126
20
-22.063800000000001
10
-249.40000000000001
20
-22.063800000000001
10
-249.40000000000001
20
-20.863499999999998
10
-246.10100000000003
20
-20.863499999999998
10
-246.10100000000003
20
-22.063800000000001
10
-244.376
20
-22.063800000000001
10
-244.376
20
-28.3338
10
-243.55000000000004
20
-28.3338
10
-243.55000000000004
20
-31.132600000000004
10
-244.376
20
-31.132600000000004
10
-244.376
20
-34.3628
10
-251.126
20
-34.3628
10
-251.126
20
-31.132600000000004
10
-252.65000000000001
20
-31.132600000000004
10
-252.65000000000001
20
-35.832999999999998
10
-266.64999999999998
20
-35.832999999999998
10
-266.64999999999998
20
-31.132600000000004
10
-268.17599999999999
20
-31.132600000000004
10
-268.17599999999999
20
-34.3628
10
-274.92500000000001
20
-34.3628
10
-274.92500000000001
20
-31.132600000000004
10
-275.75099999999998
20
-31.132600000000004
10
-275.75099999999998
20
-28.3338
10
-274.92500000000001
20
-28.3338
10
-274.92500000000001
20
-22.063800000000001
10
-273.19999999999999
20
-22.063800000000001
10
-273.19999999999999
20
-20.863499999999998
10
-269.89999999999998
20
-20.863499999999998
10
-269.89999999999998
20
-22.063800000000001
0
LWPOLYLINE
5
139
100
AcDbEntity
8
0
100
AcDbPolyline
90
20
70
1
43
0.0
10
-174.06999999999999
20
-91.982600000000019
10
-174.06999999999999
20
-92.983099999999993
10
-188.06900000000002
20
-92.983099999999993
10
-188.06900000000002
20
-91.982600000000019
10
-188.87
20
-91.982600000000019
10
-188.87
20
-88.883399999999995
10
-188.06900000000002
20
-88.883399999999995
10
-188.06900000000002
20
-83.083399999999997
10
-188.87
20
-83.083399999999997
10
-188.87
20
-79.982799999999997
10
-188.06900000000002
20
-79.982799999999997
10
-188.06900000000002
20
-78.983800000000002
10
-174.06999999999999
20
-78.983800000000002
10
-174.06999999999999
20
-79.982799999999997
10
-173.26900000000001
20
-79.982799999999997
10
-173.26900000000001
20
-83.083399999999997
10
-174.06999999999999
20
-83.083399999999997
10
-174.06999999999999
20
-88.883399999999995
10
-173.26900000000001
20
-88.883399999999995
10
-173.26900000000001
20
-91.982600000000019
0
LWPOLYLINE
5
140
100
AcDbEntity
8
0
100
AcDbPolyline
90
20
70
1
43
0.0
10
-188.357
20
-53.882599999999996
10
-188.357
20
-54.883099999999999
10
-202.35700000000003
20
-54.883099999999999
10
-202.35700000000003
20
-53.882599999999996
10
-203.15600000000001
20
-53.882599999999996
10
-203.15600000000001
20
-50.783400000000007
10
-202.35700000000003
20
-50.783400000000007
10
-202.35700000000003
20
-44.983400000000003
10
-203.15600000000001
20
-44.983400000000003
10
-203.15600000000001
20
-41.882800000000003
10
-202.35700000000003
20
-41.882800000000003
10
-202.35700000000003
20
-40.883800000000001
10
-188.357
20
-40.883800000000001
10
-188.357
20
-41.882800000000003
10
-187.55599999999998
20
-41.882800000000003
10
-187.55599999999998
20
-44.983400000000003
10
-188.357
20
-44.983400000000003
10
-188.357
20
-50.783400000000007
10
-187.55599999999998
20
-50.783400000000007
10
-187.55599999999998
20
-53.882599999999996
0
LWPOLYLINE
5
141
100
AcDbEntity
8
0
100
AcDbPolyline
90
20
70
1
43
0.0
10
-195.501
20
-15.7827
10
-195.501
20
-16.783100000000001
10
-209.50000000000003
20
-16.783100000000001
10
-209.50000000000003
20
-15.7827
10
-210.30100000000002
20
-15.7827
10
-210.30100000000002
20
-12.684800000000001
10
-209.50000000000003
20
-12.684800000000001
10
-209.50000000000003
20
-6.8832899999999997
10
-210.30100000000002
20
-6.8832899999999997
10
-210.30100000000002
20
-3.7827300000000008
10
-209.50000000000003
20
-3.7827300000000008
10
-209.50000000000003
20
-2.7836400000000001
10
-195.501
20
-2.7836400000000001
10
-195.501
20
-3.7827300000000008
10
-194.69999999999999
20
-3.7827300000000008
10
-194.69999999999999
20
-6.8832899999999997
10
-195.501
20
-6.8832899999999997
10
-195.501
20
-12.684800000000001
10
-194.69999999999999
20
-12.684800000000001
10
-194.69999999999999
20
-15.7827
0
LWPOLYLINE
5
142
100
AcDbEntity
8
0
100
AcDbPolyline
90
20
70
1
43
0.0
10
-155.02000000000004
20
-91.982600000000019
10
-155.02000000000004
20
-92.983099999999993
10
-169.01900000000001
20
-92.983099999999993
10
-169.01900000000001
20
-91.982600000000019
10
-169.81999999999999
20
-91.982600000000019
10
-169.81999999999999
20
-88.883399999999995
10
-169.01900000000001
20
-88.883399999999995
10
-169.01900000000001
20
-83.083399999999997
10
-169.81999999999999
20
-83.083399999999997
10
-169.81999999999999
20
-79.982799999999997
10
-169.01900000000001
20
-79.982799999999997
10
-169.01900000000001
20
-78.983800000000002
10
-155.02000000000004
20
-78.983800000000002
10
-155.02000000000004
20
-79.982799999999997
10
-154.21899999999999
20
-79.982799999999997
10
-154.21899999999999
20
-83.083399999999997
10
-155.02000000000004
20
-83.083399999999997
10
-155.02000000000004
20
-88.883399999999995
10
-154.21899999999999
20
-88.883399999999995
10
-154.21899999999999
20
-91.982600000000019
0
LWPOLYLINE
5
143
100
AcDbEntity
8
0
100
AcDbPolyline
90
20
70
1
43
0.0
10
-159.78200000000001
20
-34.832700000000003
10
-159.78200000000001
20
-35.832999999999998
10
-173.78200000000004
20
-35.832999999999998
10
-173.78200000000004
20
-34.832700000000003
10
-174.58099999999999
20
-34.832700000000003
10
-174.58099999999999
20
-31.7348
10
-173.78200000000004
20
-31.7348
10
-173.78200000000004
20
-25.933299999999999
10
-174.58099999999999
20
-25.933299999999999
10
-174.58099999999999
20
-22.832699999999999
10
-173.78200000000004
20
-22.832699999999999
10
-173.78200000000004
20
-21.833600000000001
10
-159.78200000000001
20
-21.833600000000001
10
-159.78200000000001
20
-22.832699999999999
10
-158.98099999999999
20
-22.832699999999999
10
-158.98099999999999
20
-25.933299999999999
10
-159.78200000000001
20
-25.933299999999999
10
-159.78200000000001
20
-31.7348
10
-158.98099999999999
20
-31.7348
10
-158.98099999999999
20
-34.832700000000003
0
LWPOLYLINE
5
144
100
AcDbEntity
8
0
100
AcDbPolyline
90
20
70
1
43
0.0
10
-116.91800000000001
20
-91.982600000000019
10
-116.91800000000001
20
-92.983099999999993
10
-130.91899999999998
20
-92.983099999999993
10
-130.91899999999998
20
-91.982600000000019
10
-131.72
20
-91.982600000000019
10
-131.72
20
-88.883399999999995
10
-130.91899999999998
20
-88.883399999999995
10
-130.91899999999998
20
-83.083399999999997
10
-131.72
20
-83.083399999999997
10
-131.72
20
-79.982799999999997
10
-130.91899999999998
20
-79.982799999999997
10
-130.91899999999998
20
-78.983800000000002
10
-116.91800000000001
20
-78.983800000000002
10
-116.91800000000001
20
-79.982799999999997
10
-116.119
20
-79.982799999999997
10
-116.119
20
-83.083399999999997
10
-116.91800000000001
20
-83.083399999999997
10
-116.91800000000001
20
-88.883399999999995
10
-116.119
20
-88.883399999999995
10
-116.119
20
-91.982600000000019
0
LWPOLYLINE
5
145
100
AcDbEntity
8
0
100
AcDbPolyline
90
20
70
1
43
0.0
10
-121.682
20
-34.832700000000003
10
-121.682
20
-35.832999999999998
10
-135.68200000000002
20
-35.832999999999998
10
-135.68200000000002
20
-34.832700000000003
10
-136.48099999999999
20
-34.832700000000003
10
-136.48099999999999
20
-31.7348
10
-135.68200000000002
20
-31.7348
10
-135.68200000000002
20
-25.933299999999999
10
-136.48099999999999
20
-25.933299999999999
10
-136.48099999999999
20
-22.832699999999999
10
-135.68200000000002
20
-22.832699999999999
10
-135.68200000000002
20
-21.833600000000001
10
-121.682
20
-21.833600000000001
10
-121.682
20
-22.832699999999999
10
-120.881
20
-22.832699999999999
10
-120.881
20
-25.933299999999999
10
-121.682
20
-25.933299999999999
10
-121.682
20
-31.7348
10
-120.881
20
-31.7348
10
-120.881
20
-34.832700000000003
0
LWPOLYLINE
5
146
100
AcDbEntity
8
0
100
AcDbPolyline
90
20
70
1
43
0.0
10
-78.819699999999997
20
-91.982600000000019
10
-78.819699999999997
20
-92.983099999999993
10
-92.819000000000003
20
-92.983099999999993
10
-92.819000000000003
20
-91.982600000000019
10
-93.618399999999994
20
-91.982600000000019
10
-93.618399999999994
20
-88.883399999999995
10
-92.819000000000003
20
-88.883399999999995
10
-92.819000000000003
20
-83.083399999999997
10
-93.618399999999994
20
-83.083399999999997
10
-93.618399999999994
20
-79.982799999999997
10
-92.819000000000003
20
-79.982799999999997
10
-92.819000000000003
20
-78.983800000000002
10
-78.819699999999997
20
-78.983800000000002
10
-78.819699999999997
20
-79.982799999999997
10
-78.018900000000002
20
-79.982799999999997
10
-78.018900000000002
20
-83.083399999999997
10
-78.819699999999997
20
-83.083399999999997
10
-78.819699999999997
20
-88.883399999999995
10
-78.018900000000002
20
-88.883399999999995
10
-78.018900000000002
20
-91.982600000000019
0
LWPOLYLINE
5
147
100
AcDbEntity
8
0
100
AcDbPolyline
90
20
70
1
43
0.0
10
-83.582200000000014
20
-34.832700000000003
10
-83.582200000000014
20
-35.832999999999998
10
-97.581500000000005
20
-35.832999999999998
10
-97.581500000000005
20
-34.832700000000003
10
-98.380900000000011
20
-34.832700000000003
10
-98.380900000000011
20
-31.7348
10
-97.581500000000005
20
-31.7348
10
-97.581500000000005
20
-25.933299999999999
10
-98.380900000000011
20
-25.933299999999999
10
-98.380900000000011
20
-22.832699999999999
10
-97.581500000000005
20
-22.832699999999999
10
-97.581500000000005
20
-21.833600000000001
10
-83.582200000000014
20
-21.833600000000001
10
-83.582200000000014
20
-22.832699999999999
10
-82.781400000000005
20
-22.832699999999999
10
-82.781400000000005
20
-25.933299999999999
10
-83.582200000000014
20
-25.933299999999999
10
-83.582200000000014
20
-31.7348
10
-82.781400000000005
20
-31.7348
10
-82.781400000000005
20
-34.832700000000003
0
LWPOLYLINE
5
148
100
AcDbEntity
8
0
100
AcDbPolyline
90
20
70
1
43
0.0
10
-50.244700000000009
20
-72.932600000000008
10
-50.244700000000009
20
-73.933099999999996
10
-64.244
20
-73.933099999999996
10
-64.244
20
-72.932600000000008
10
-65.044799999999995
20
-72.932600000000008
10
-65.044799999999995
20
-69.833399999999997
10
-64.244
20
-69.833399999999997
10
-64.244
20
-64.0334
10
-65.044799999999995
20
-64.0334
10
-65.044799999999995
20
-60.9328
10
-64.244
20
-60.9328
10
-64.244
20
-59.933800000000005
10
-50.244700000000009
20
-59.933800000000005
10
-50.244700000000009
20
-60.9328
10
-49.443899999999999
20
-60.9328
10
-49.443899999999999
20
-64.0334
10
-50.244700000000009
20
-64.0334
10
-50.244700000000009
20
-69.833399999999997
10
-49.443899999999999
20
-69.833399999999997
10
-49.443899999999999
20
-72.932600000000008
0
LWPOLYLINE
5
149
100
AcDbEntity
8
0
100
AcDbPolyline
90
20
70
1
43
0.0
10
-45.482199999999999
20
-34.832700000000003
10
-45.482199999999999
20
-35.832999999999998
10
-59.481499999999997
20
-35.832999999999998
10
-59.481499999999997
20
-34.832700000000003
10
-60.280900000000003
20
-34.832700000000003
10
-60.280900000000003
20
-31.7348
10
-59.481499999999997
20
-31.7348
10
-59.481499999999997
20
-25.933299999999999
10
-60.280900000000003
20
-25.933299999999999
10
-60.280900000000003
20
-22.832699999999999
10
-59.481499999999997
20
-22.832699999999999
10
-59.481499999999997
20
-21.833600000000001
10
-45.482199999999999
20
-21.833600000000001
10
-45.482199999999999
20
-22.832699999999999
10
-44.681399999999996
20
-22.832699999999999
10
-44.681399999999996
20
-25.933299999999999
10
-45.482199999999999
20
-25.933299999999999
10
-45.482199999999999
20
-31.7348
10
-44.681399999999996
20
-31.7348
10
-44.681399999999996
20
-34.832700000000003
0
LWPOLYLINE
5
150
100
AcDbEntity
8
0
100
AcDbPolyline
90
36
70
1
43
0.0
10
-30.050899999999999
20
-22.063800000000001
10
-30.050899999999999
20
-26.532699999999998
10
-28.525400000000005
20
-26.532699999999998
10
-28.525400000000005
20
-21.833600000000001
10
-14.5259
20
-21.833600000000001
10
-14.5259
20
-26.532699999999998
10
-13.000400000000001
20
-26.532699999999998
10
-13.000400000000001
20
-22.063800000000001
10
-11.2751
20
-22.063800000000001
10
-11.2751
20
-20.863499999999998
10
-7.9760900000000001
20
-20.863499999999998
10
-7.9760900000000001
20
-22.063800000000001
10
-6.2508000000000008
20
-22.063800000000001
10
-6.2508000000000008
20
-28.3338
10
-5.4253300000000007
20
-28.3338
10
-5.4253300000000007
20
-31.132600000000004
10
-6.2508000000000008
20
-31.132600000000004
10
-6.2508000000000008
20
-34.3628
10
-13.000400000000001
20
-34.3628
10
-13.000400000000001
20
-31.132600000000004
10
-14.5259
20
-31.132600000000004
10
-14.5259
20
-35.832999999999998
10
-28.525400000000005
20
-35.832999999999998
10
-28.525400000000005
20
-31.132600000000004
10
-30.050899999999999
20
-31.132600000000004
10
-30.050899999999999
20
-34.3628
10
-36.800400000000003
20
-34.3628
10
-36.800400000000003
20
-31.132600000000004
10
-37.625900000000001
20
-31.132600000000004
10
-37.625900000000001
20
-28.3338
10
-36.800400000000003
20
-28.3338
10
-36.800400000000003
20
-22.063800000000001
10
-35.075200000000002
20
-22.063800000000001
10
-35.075200000000002
20
-20.863499999999998
10
-31.774799999999999
20
-20.863499999999998
10
-31.774799999999999
20
-22.063800000000001
0
LWPOLYLINE
5
151
100
AcDbEntity
8
0
100
AcDbPolyline
90
20
70
1
43
0.0
10
-7.3821600000000007
20
-72.932600000000008
10
-7.3821599999999998
20
-73.933099999999996
10
-21.381700000000002
20
-73.933099999999996
10
-21.381700000000002
20
-72.932600000000008
10
-22.180900000000001
20
-72.932600000000008
10
-22.180900000000001
20
-69.833399999999997
10
-21.381700000000002
20
-69.833399999999997
10
-21.381700000000002
20
-64.0334
10
-22.180900000000001
20
-64.0334
10
-22.180900000000001
20
-60.9328
10
-21.381700000000002
20
-60.9328
10
-21.381700000000002
20
-59.933800000000005
10
-7.3821599999999998
20
-59.933800000000005
10
-7.3821600000000007
20
-60.9328
10
-6.5815299999999999
20
-60.9328
10
-6.5815299999999999
20
-64.0334
10
-7.3821600000000007
20
-64.0334
10
-7.3821600000000007
20
-69.833399999999997
10
-6.5815299999999999
20
-69.833399999999997
10
-6.5815299999999999
20
-72.932600000000008
0
LWPOLYLINE
5
152
100
AcDbEntity
8
0
100
AcDbPolyline
90
20
70
1
43
0.0
10
-9.7620300000000011
20
-53.882599999999996
10
-9.7620300000000011
20
-54.883099999999999
10
-23.762900000000002
20
-54.883099999999999
10
-23.762900000000002
20
-53.882599999999996
10
-24.562200000000001
20
-53.882599999999996
10
-24.562200000000001
20
-50.783400000000007
10
-23.762900000000002
20
-50.783400000000007
10
-23.762900000000002
20
-44.983400000000003
10
-24.562200000000001
20
-44.983400000000003
10
-24.562200000000001
20
-41.882800000000003
10
-23.762900000000002
20
-41.882800000000003
10
-23.762900000000002
20
-40.883800000000001
10
-9.7620300000000011
20
-40.883800000000001
10
-9.7620300000000011
20
-41.882800000000003
10
-8.9627800000000022
20
-41.882800000000003
10
-8.9627800000000022
20
-44.983400000000003
10
-9.7620300000000011
20
-44.983400000000003
10
-9.7620300000000011
20
-50.783400000000007
10
-8.9627800000000022
20
-50.783400000000007
10
-8.9627800000000022
20
-53.882599999999996
0
LWPOLYLINE
5
153
100
AcDbEntity
8
0
100
AcDbPolyline
90
20
70
1
43
0.0
10
-52.626000000000005
20
-15.7827
10
-52.626000000000005
20
-16.783100000000001
10
-66.62530000000001
20
-16.783100000000001
10
-66.62530000000001
20
-15.7827
10
-67.426100000000005
20
-15.7827
10
-67.426100000000005
20
-12.684800000000001
10
-66.62530000000001
20
-12.684800000000001
10
-66.62530000000001
20
-6.8832899999999997
10
-67.426100000000005
20
-6.8832899999999997
10
-67.426100000000005
20
-3.7827300000000008
10
-66.62530000000001
20
-3.7827300000000008
10
-66.62530000000001
20
-2.7836400000000001
10
-52.626000000000005
20
-2.7836400000000001
10
-52.626000000000005
20
-3.7827300000000008
10
-51.825200000000002
20
-3.7827300000000008
10
-51.825200000000002
20
-6.8832899999999997
10
-52.626000000000005
20
-6.8832899999999997
10
-52.626000000000005
20
-12.684800000000001
10
-51.825200000000002
20
-12.684800000000001
10
-51.825200000000002
20
-15.7827
0
LWPOLYLINE
5
154
100
AcDbEntity
8
0
100
AcDbPolyline
90
20
70
1
43
0.0
10
-40.719700000000003
20
-91.982600000000019
10
-40.719700000000003
20
-92.983099999999993
10
-54.718999999999994
20
-92.983099999999993
10
-54.718999999999994
20
-91.982600000000019
10
-55.519800000000004
20
-91.982600000000019
10
-55.519800000000004
20
-88.883399999999995
10
-54.718999999999994
20
-88.883399999999995
10
-54.718999999999994
20
-83.083399999999997
10
-55.519800000000004
20
-83.083399999999997
10
-55.519800000000004
20
-79.982799999999997
10
-54.718999999999994
20
-79.982799999999997
10
-54.718999999999994
20
-78.983800000000002
10
-40.719700000000003
20
-78.983800000000002
10
-40.719700000000003
20
-79.982799999999997
10
-39.918900000000001
20
-79.982799999999997
10
-39.918900000000001
20
-83.083399999999997
10
-40.719700000000003
20
-83.083399999999997
10
-40.719700000000003
20
-88.883399999999995
10
-39.918900000000001
20
-88.883399999999995
10
-39.918900000000001
20
-91.982600000000019
0
LWPOLYLINE
5
155
100
AcDbEntity
8
0
100
AcDbPolyline
90
52
70
1
43
0.0
10
-124.06200000000001
20
-15.7827
10
-124.06200000000001
20
-16.783100000000001
10
-138.06299999999999
20
-16.783100000000001
10
-138.06299999999999
20
-15.7827
10
-138.86199999999999
20
-15.7827
10
-138.86199999999999
20
-12.684800000000001
10
-138.06299999999999
20
-12.684800000000001
10
-138.06299999999999
20
-12.082600000000001
10
-177.68700000000001
20
-12.082600000000001
10
-177.68700000000001
20
-15.312799999999999
10
-184.43799999999999
20
-15.312799999999999
10
-184.43799999999999
20
-12.082600000000001
10
-185.262
20
-12.082600000000001
10
-185.262
20
-9.2838399999999996
10
-184.43799999999999
20
-9.2838399999999996
10
-184.43799999999999
20
-3.0137700000000001
10
-182.71299999999999
20
-3.0137700000000001
10
-182.71299999999999
20
-1.8135000000000001
10
-179.41200000000003
20
-1.8135000000000001
10
-179.41200000000003
20
-3.0137700000000001
10
-177.68700000000001
20
-3.0137700000000001
10
-177.68700000000001
20
-7.4841100000000003
10
-138.06299999999999
20
-7.4841100000000003
10
-138.06299999999999
20
-6.8832899999999997
10
-138.86199999999999
20
-6.8832899999999997
10
-138.86199999999999
20
-3.7827300000000008
10
-138.06299999999999
20
-3.7827300000000008
10
-138.06299999999999
20
-2.7836400000000001
10
-124.06200000000001
20
-2.7836400000000001
10
-124.06200000000001
20
-3.7827300000000008
10
-123.26300000000001
20
-3.7827300000000008
10
-123.26300000000001
20
-6.8832899999999997
10
-124.06200000000001
20
-6.8832899999999997
10
-124.06200000000001
20
-7.4841100000000003
10
-84.438100000000006
20
-7.4841100000000003
10
-84.438100000000006
20
-3.0137700000000001
10
-82.712599999999995
20
-3.0137700000000001
10
-82.712599999999995
20
-1.8135000000000001
10
-79.411999999999992
20
-1.8135000000000001
10
-79.411999999999992
20
-3.0137700000000001
10
-77.686999999999998
20
-3.0137700000000001
10
-77.686999999999998
20
-9.2838399999999996
10
-76.862899999999996
20
-9.2838399999999996
10
-76.862899999999996
20
-12.082600000000001
10
-77.686999999999998
20
-12.082600000000001
10
-77.686999999999998
20
-15.312799999999999
10
-84.438100000000006
20
-15.312799999999999
10
-84.438100000000006
20
-12.082600000000001
10
-124.06200000000001
20
-12.082600000000001
10
-124.06200000000001
20
-12.684800000000001
10
-123.26300000000001
20
-12.684800000000001
10
-123.26300000000001
20
-15.7827
0
LWPOLYLINE
5
156
100
AcDbEntity
8
0
100
AcDbPolyline
90
20
70
1
43
0.0
10
-59.769700000000007
20
-91.982600000000019
10
-59.769700000000007
20
-92.983099999999993
10
-73.768999999999991
20
-92.983099999999993
10
-73.768999999999991
20
-91.982600000000019
10
-74.569800000000001
20
-91.982600000000019
10
-74.569800000000001
20
-88.883399999999995
10
-73.768999999999991
20
-88.883399999999995
10
-73.768999999999991
20
-83.083399999999997
10
-74.569800000000001
20
-83.083399999999997
10
-74.569800000000001
20
-79.982799999999997
10
-73.768999999999991
20
-79.982799999999997
10
-73.768999999999991
20
-78.983800000000002
10
-59.769700000000007
20
-78.983800000000002
10
-59.769700000000007
20
-79.982799999999997
10
-58.968899999999998
20
-79.982799999999997
10
-58.968899999999998
20
-83.083399999999997
10
-59.769700000000007
20
-83.083399999999997
10
-59.769700000000007
20
-88.883399999999995
10
-58.968899999999998
20
-88.883399999999995
10
-58.968899999999998
20
-91.982600000000019
0
LWPOLYLINE
5
157
100
AcDbEntity
8
0
100
AcDbPolyline
90
20
70
1
43
0.0
10
-102.63200000000001
20
-34.832700000000003
10
-102.63200000000001
20
-35.832999999999998
10
-116.63200000000002
20
-35.832999999999998
10
-116.63200000000002
20
-34.832700000000003
10
-117.431
20
-34.832700000000003
10
-117.431
20
-31.7348
10
-116.63200000000002
20
-31.7348
10
-116.63200000000002
20
-25.933299999999999
10
-117.431
20
-25.933299999999999
10
-117.431
20
-22.832699999999999
10
-116.63200000000002
20
-22.832699999999999
10
-116.63200000000002
20
-21.833600000000001
10
-102.63200000000001
20
-21.833600000000001
10
-102.63200000000001
20
-22.832699999999999
10
-101.83100000000002
20
-22.832699999999999
10
-101.83100000000002
20
-25.933299999999999
10
-102.63200000000001
20
-25.933299999999999
10
-102.63200000000001
20
-31.7348
10
-101.83100000000002
20
-31.7348
10
-101.83100000000002
20
-34.832700000000003
0
LWPOLYLINE
5
158
100
AcDbEntity
8
0
100
AcDbPolyline
90
20
70
1
43
0.0
10
-97.868300000000019
20
-91.982600000000019
10
-97.868300000000019
20
-92.983099999999993
10
-111.86900000000001
20
-92.983099999999993
10
-111.86900000000001
20
-91.982600000000019
10
-112.66800000000001
20
-91.982600000000019
10
-112.66800000000001
20
-88.883399999999995
10
-111.86900000000001
20
-88.883399999999995
10
-111.86900000000001
20
-83.083399999999997
10
-112.66800000000001
20
-83.083399999999997
10
-112.66800000000001
20
-79.982799999999997
10
-111.86900000000001
20
-79.982799999999997
10
-111.86900000000001
20
-78.983800000000002
10
-97.868300000000019
20
-78.983800000000002
10
-97.868300000000019
20
-79.982799999999997
10
-97.068900000000014
20
-79.982799999999997
10
-97.068900000000014
20
-83.083399999999997
10
-97.868300000000019
20
-83.083399999999997
10
-97.868300000000019
20
-88.883399999999995
10
-97.068900000000014
20
-88.883399999999995
10
-97.068900000000014
20
-91.982600000000019
0
LWPOLYLINE
5
159
100
AcDbEntity
8
0
100
AcDbPolyline
90
20
70
1
43
0.0
10
-140.732
20
-34.832700000000003
10
-140.732
20
-35.832999999999998
10
-154.732
20
-35.832999999999998
10
-154.732
20
-34.832700000000003
10
-155.53100000000001
20
-34.832700000000003
10
-155.53100000000001
20
-31.7348
10
-154.732
20
-31.7348
10
-154.732
20
-25.933299999999999
10
-155.53100000000001
20
-25.933299999999999
10
-155.53100000000001
20
-22.832699999999999
10
-154.732
20
-22.832699999999999
10
-154.732
20
-21.833600000000001
10
-140.732
20
-21.833600000000001
10
-140.732
20
-22.832699999999999
10
-139.93100000000001
20
-22.832699999999999
10
-139.93100000000001
20
-25.933299999999999
10
-140.732
20
-25.933299999999999
10
-140.732
20
-31.7348
10
-139.93100000000001
20
-31.7348
10
-139.93100000000001
20
-34.832700000000003
0
LWPOLYLINE
5
160
100
AcDbEntity
8
0
100
AcDbPolyline
90
20
70
1
43
0.0
10
-135.97000000000003
20
-91.982600000000019
10
-135.97000000000003
20
-92.983099999999993
10
-149.96899999999999
20
-92.983099999999993
10
-149.96899999999999
20
-91.982600000000019
10
-150.77000000000001
20
-91.982600000000019
10
-150.77000000000001
20
-88.883399999999995
10
-149.96899999999999
20
-88.883399999999995
10
-149.96899999999999
20
-83.083399999999997
10
-150.77000000000001
20
-83.083399999999997
10
-150.77000000000001
20
-79.982799999999997
10
-149.96899999999999
20
-79.982799999999997
10
-149.96899999999999
20
-78.983800000000002
10
-135.97000000000003
20
-78.983800000000002
10
-135.97000000000003
20
-79.982799999999997
10
-135.16899999999998
20
-79.982799999999997
10
-135.16899999999998
20
-83.083399999999997
10
-135.97000000000003
20
-83.083399999999997
10
-135.97000000000003
20
-88.883399999999995
10
-135.16899999999998
20
-88.883399999999995
10
-135.16899999999998
20
-91.982600000000019
0
LWPOLYLINE
5
161
100
AcDbEntity
8
0
100
AcDbPolyline
90
20
70
1
43
0.0
10
-178.83199999999999
20
-34.832700000000003
10
-178.83199999999999
20
-35.832999999999998
10
-192.83199999999999
20
-35.832999999999998
10
-192.83199999999999
20
-34.832700000000003
10
-193.631
20
-34.832700000000003
10
-193.631
20
-31.7348
10
-192.83199999999999
20
-31.7348
10
-192.83199999999999
20
-25.933299999999999
10
-193.631
20
-25.933299999999999
10
-193.631
20
-22.832699999999999
10
-192.83199999999999
20
-22.832699999999999
10
-192.83199999999999
20
-21.833600000000001
10
-178.83199999999999
20
-21.833600000000001
10
-178.83199999999999
20
-22.832699999999999
10
-178.03099999999998
20
-22.832699999999999
10
-178.03099999999998
20
-25.933299999999999
10
-178.83199999999999
20
-25.933299999999999
10
-178.83199999999999
20
-31.7348
10
-178.03099999999998
20
-31.7348
10
-178.03099999999998
20
-34.832700000000003
0
LWPOLYLINE
5
162
100
AcDbEntity
8
0
100
AcDbPolyline
90
20
70
1
43
0.0
10
-197.88200000000003
20
-34.832700000000003
10
-197.88200000000003
20
-35.832999999999998
10
-211.88200000000001
20
-35.832999999999998
10
-211.88200000000001
20
-34.832700000000003
10
-212.68100000000001
20
-34.832700000000003
10
-212.68100000000001
20
-31.7348
10
-211.88200000000001
20
-31.7348
10
-211.88200000000001
20
-25.933299999999999
10
-212.68100000000001
20
-25.933299999999999
10
-212.68100000000001
20
-22.832699999999999
10
-211.88200000000001
20
-22.832699999999999
10
-211.88200000000001
20
-21.833600000000001
10
-197.88200000000003
20
-21.833600000000001
10
-197.88200000000003
20
-22.832699999999999
10
-197.08100000000002
20
-22.832699999999999
10
-197.08100000000002
20
-25.933299999999999
10
-197.88200000000003
20
-25.933299999999999
10
-197.88200000000003
20
-31.7348
10
-197.08100000000002
20
-31.7348
10
-197.08100000000002
20
-34.832700000000003
0
LWPOLYLINE
5
163
100
AcDbEntity
8
0
100
AcDbPolyline
90
20
70
1
43
0.0
10
-183.595
20
-72.932600000000008
10
-183.595
20
-73.933099999999996
10
-197.59400000000002
20
-73.933099999999996
10
-197.59400000000002
20
-72.932600000000008
10
-198.39500000000001
20
-72.932600000000008
10
-198.39500000000001
20
-69.833399999999997
10
-197.59400000000002
20
-69.833399999999997
10
-197.59400000000002
20
-64.0334
10
-198.39500000000001
20
-64.0334
10
-198.39500000000001
20
-60.9328
10
-197.59400000000002
20
-60.9328
10
-197.59400000000002
20
-59.933800000000005
10
-183.595
20
-59.933800000000005
10
-183.595
20
-60.9328
10
-182.79400000000004
20
-60.9328
10
-182.79400000000004
20
-64.0334
10
-183.595
20
-64.0334
10
-183.595
20
-69.833399999999997
10
-182.79400000000004
20
-69.833399999999997
10
-182.79400000000004
20
-72.932600000000008
0
LWPOLYLINE
5
164
100
AcDbEntity
8
0
100
AcDbPolyline
90
20
70
1
43
0.0
10
-226.45700000000002
20
-53.882599999999996
10
-226.45700000000002
20
-54.883099999999999
10
-240.45699999999999
20
-54.883099999999999
10
-240.45699999999999
20
-53.882599999999996
10
-241.25599999999997
20
-53.882599999999996
10
-241.25599999999997
20
-50.783400000000007
10
-240.45699999999999
20
-50.783400000000007
10
-240.45699999999999
20
-44.983400000000003
10
-241.25599999999997
20
-44.983400000000003
10
-241.25599999999997
20
-41.882800000000003
10
-240.45699999999999
20
-41.882800000000003
10
-240.45699999999999
20
-40.883800000000001
10
-226.45700000000002
20
-40.883800000000001
10
-226.45700000000002
20
-41.882800000000003
10
-225.65600000000001
20
-41.882800000000003
10
-225.65600000000001
20
-44.983400000000003
10
-226.45700000000002
20
-44.983400000000003
10
-226.45700000000002
20
-50.783400000000007
10
-225.65600000000001
20
-50.783400000000007
10
-225.65600000000001
20
-53.882599999999996
0
LWPOLYLINE
5
165
100
AcDbEntity
8
0
100
AcDbPolyline
90
20
70
1
43
0.0
10
-221.69499999999999
20
-72.932600000000008
10
-221.69499999999999
20
-73.933099999999996
10
-235.69400000000002
20
-73.933099999999996
10
-235.69400000000002
20
-72.932600000000008
10
-236.49500000000003
20
-72.932600000000008
10
-236.49500000000003
20
-69.833399999999997
10
-235.69400000000002
20
-69.833399999999997
10
-235.69400000000002
20
-64.0334
10
-236.49500000000003
20
-64.0334
10
-236.49500000000003
20
-60.9328
10
-235.69400000000002
20
-60.9328
10
-235.69400000000002
20
-59.933800000000005
10
-221.69499999999999
20
-59.933800000000005
10
-221.69499999999999
20
-60.9328
10
-220.89400000000001
20
-60.9328
10
-220.89400000000001
20
-64.0334
10
-221.69499999999999
20
-64.0334
10
-221.69499999999999
20
-69.833399999999997
10
-220.89400000000001
20
-69.833399999999997
10
-220.89400000000001
20
-72.932600000000008
0
LWPOLYLINE
5
166
100
AcDbEntity
8
0
100
AcDbPolyline
90
36
70
1
43
0.0
10
-257.41200000000003
20
-54.883099999999999
10
-271.41300000000001
20
-54.883099999999999
10
-271.41300000000001
20
-50.182600000000008
10
-272.93700000000001
20
-50.182600000000008
10
-272.93700000000001
20
-53.412700000000008
10
-279.68799999999999
20
-53.412700000000008
10
-279.68799999999999
20
-50.182600000000008
10
-280.512
20
-50.182600000000008
10
-280.512
20
-47.383699999999997
10
-279.68799999999999
20
-47.383699999999997
10
-279.68799999999999
20
-41.113799999999998
10
-277.96299999999997
20
-41.113799999999998
10
-277.96299999999997
20
-39.913600000000002
10
-274.66200000000003
20
-39.913600000000002
10
-274.66200000000003
20
-41.113799999999998
10
-272.93700000000001
20
-41.113799999999998
10
-272.93700000000001
20
-45.582799999999999
10
-271.41300000000001
20
-45.582799999999999
10
-271.41300000000001
20
-40.883800000000001
10
-257.41200000000003
20
-40.883800000000001
10
-257.41200000000003
20
-45.582799999999999
10
-255.88800000000003
20
-45.582799999999999
10
-255.88800000000003
20
-41.113799999999998
10
-254.161
20
-41.113799999999998
10
-254.161
20
-39.913600000000002
10
-250.86200000000002
20
-39.913600000000002
10
-250.86200000000002
20
-41.113799999999998
10
-249.13700000000003
20
-41.113799999999998
10
-249.13700000000003
20
-47.383699999999997
10
-248.31299999999999
20
-47.383699999999997
10
-248.31299999999999
20
-50.182600000000008
10
-249.13700000000003
20
-50.182600000000008
10
-249.13700000000003
20
-53.412700000000008
10
-255.88800000000003
20
-53.412700000000008
10
-255.88800000000003
20
-50.182600000000008
10
-257.41200000000003
20
-50.182600000000008
0
LWPOLYLINE
5
167
100
AcDbEntity
8
0
100
AcDbPolyline
90
20
70
1
43
0.0
10
-312.18200000000002
20
-15.7827
10
-312.18200000000002
20
-16.783100000000001
10
-326.18200000000002
20
-16.783100000000001
10
-326.18200000000002
20
-15.7827
10
-326.98100000000005
20
-15.7827
10
-326.98100000000005
20
-12.684800000000001
10
-326.18200000000002
20
-12.684800000000001
10
-326.18200000000002
20
-6.8832899999999997
10
-326.98100000000005
20
-6.8832899999999997
10
-326.98100000000005
20
-3.7827300000000008
10
-326.18200000000002
20
-3.7827300000000008
10
-326.18200000000002
20
-2.7836400000000001
10
-312.18200000000002
20
-2.7836400000000001
10
-312.18200000000002
20
-3.7827300000000008
10
-311.38099999999997
20
-3.7827300000000008
10
-311.38099999999997
20
-6.8832899999999997
10
-312.18200000000002
20
-6.8832899999999997
10
-312.18200000000002
20
-12.684800000000001
10
-311.38099999999997
20
-12.684800000000001
10
-311.38099999999997
20
-15.7827
0
LWPOLYLINE
5
168
100
AcDbEntity
8
0
100
AcDbPolyline
90
20
70
1
43
0.0
10
-312.18200000000002
20
-91.982600000000019
10
-312.18200000000002
20
-92.983099999999993
10
-326.18200000000002
20
-92.983099999999993
10
-326.18200000000002
20
-91.982600000000019
10
-326.98100000000005
20
-91.982600000000019
10
-326.98100000000005
20
-88.883399999999995
10
-326.18200000000002
20
-88.883399999999995
10
-326.18200000000002
20
-83.083399999999997
10
-326.98100000000005
20
-83.083399999999997
10
-326.98100000000005
20
-79.982799999999997
10
-326.18200000000002
20
-79.982799999999997
10
-326.18200000000002
20
-78.983800000000002
10
-312.18200000000002
20
-78.983800000000002
10
-312.18200000000002
20
-79.982799999999997
10
-311.38099999999997
20
-79.982799999999997
10
-311.38099999999997
20
-83.083399999999997
10
-312.18200000000002
20
-83.083399999999997
10
-312.18200000000002
20
-88.883399999999995
10
-311.38099999999997
20
-88.883399999999995
10
-311.38099999999997
20
-91.982600000000019
0
CIRCLE
5
169
100
AcDbEntity
8
0
100
AcDbCircle
10
-328.70700000000011
20
-0.25904500000001218
30
0
40
1.0999999999999943
210
0
220
-0
230
1
0
CIRCLE
5
170
100
AcDbEntity
8
0
100
AcDbCircle
10
-247.74442499999998
20
-95.602099999999993
30
0
40
1.0999999999999943
210
0
220
-0
230
1
0
CIRCLE
5
171
100
AcDbEntity
8
0
100
AcDbCircle
10
-171.54442500000002
20
-95.602099999999993
30
0
40
1.0999999999999943
210
0
220
-0
230
1
0
CIRCLE
5
172
100
AcDbEntity
8
0
100
AcDbCircle
10
-192.974165
20
-0.25904500000001174
30
0
40
1.0999999999999943
210
0
220
-0
230
1
0
CIRCLE
5
173
100
AcDbEntity
8
0
100
AcDbCircle
10
-0.00072500000000252918
20
-95.602099999999993
30
0
40
1.1000000000000001
210
0
220
-0
230
1
0
CIRCLE
5
174
100
AcDbEntity
8
0
100
AcDbCircle
10
-69.149165000000011
20
-0.25904500000001102
30
0
40
1.1000000000000032
210
0
220
-0
230
1
0
CIRCLE
5
175
100
AcDbEntity
8
0
100
AcDbCircle
10
-95.344424999999987
20
-95.602099999999993
30
0
40
1.0999999999999943
210
0
220
-0
230
1
0
CIRCLE
5
176
100
AcDbEntity
8
0
100
AcDbCircle
10
-238.219345
20
-58.501305867309654
30
0
40
1.0999999999999943
210
0
220
-0
230
1
0
CIRCLE
5
177
100
AcDbEntity
8
0
100
AcDbCircle
10
-259.64816500000006
20
-0.25904500000001196
30
0
40
1.0999999999999943
210
0
220
-0
230
1
0
CIRCLE
5
178
100
AcDbEntity
8
0
100
AcDbCircle
10
-328.70700000000011
20
-58.527100000000004
30
0
40
1.0999999999999943
210
0
220
-0
230
1
0
CIRCLE
5
179
100
AcDbEntity
8
0
100
AcDbCircle
10
-287.12091000000009
20
-77.577100000000002
30
0
40
1.0999999999999943
210
0
220
-0
230
1
0
CIRCLE
5
180
100
AcDbEntity
8
0
100
AcDbCircle
10
-162.01934499999999
20
-58.479584529619956
30
0
40
1.0999999999999943
210
0
220
-0
230
1
0
CIRCLE
5
181
100
AcDbEntity
8
0
100
AcDbCircle
10
-128.68256
20
-39.477099999999993
30
0
40
1.0999999999999943
210
0
220
-0
230
1
0
CIRCLE
5
182
100
AcDbEntity
8
0
100
AcDbCircle
10
-0.00072500000000252918
20
-58.433400000000006
30
0
40
1.1000000000000001
210
0
220
-0
230
1
0
CIRCLE
5
183
100
AcDbEntity
8
0
100
AcDbCircle
10
-0.00072500000000252918
20
-0.25904500000001107
30
0
40
1.1000000000000001
210
0
220
-0
230
1
0
CIRCLE
5
184
100
AcDbEntity
8
0
100
AcDbCircle
10
-85.819344999999998
20
-58.457863191930244
30
0
40
1.0999999999999943
210
0
220
-0
230
1
0
CIRCLE
5
185
100
AcDbEntity
8
0
100
AcDbCircle
10
-204.88256000000001
20
-39.477099999999993
30
0
40
1.0999999999999943
210
0
220
-0
230
1
0
CIRCLE
5
186
100
AcDbEntity
8
0
100
AcDbCircle
10
-287.12091000000009
20
-39.477099999999993
30
0
40
1.0999999999999943
210
0
220
-0
230
1
0
CIRCLE
5
187
100
AcDbEntity
8
0
100
AcDbCircle
10
-328.70700000000011
20
-95.602099999999993
30
0
40
1.0999999999999943
210
0
220
-0
230
1
0
LWPOLYLINE
5
188
100
AcDbEntity
8
0
100
AcDbPolyline
90
8
70
1
43
0.0
10
-328.70700000000011
20
2.1909549999999847
42
0.41421356237309542
10
-331.1570000000001
20
-0.25904500000001551
10
-331.1570000000001
20
-95.602099999999993
42
0.41421356237309503
10
-328.70700000000011
20
-98.052099999999953
10
-0.00072500000001696208
20
-98.052099999999996
42
0.41421356237309681
10
2.4492749999999885
20
-95.602099999999993
10
2.4492749999999921
20
-0.25904500000001107
42
0.4142135623730957
10
-0.00072500000000808029
20
2.1909549999999891
0
ENDSEC
0
SECTION
2
OBJECTS
0
DICTIONARY
5
C
100
AcDbDictionary
3
ACAD_GROUP
350
D
3
ACAD_MLINESTYLE
350
17
0
DICTIONARY
5
D
100
AcDbDictionary
0
DICTIONARY
5
1A
330
C
100
AcDbDictionary
0
DICTIONARY
5
17
100
AcDbDictionary
0
ENDSEC
0
EOF
