  0
SECTION
  2
HEADER
  9
$ANGBASE
  50
0.0
  9
$ANGDIR
  70
1
  9
$MEASUREMENT
  70
0
  0
ENDSEC
  0
SECTION
  2
TABLES
  0
TABLE
  2
LTYPE
  70
4
  0
LTYPE
  5
40F
  2
CONTINUOUS
  70
0
  3
Solid line
  72
65
  73
0
  40
0.0
  0
LTYPE
  5
410
  2
DASHDOT
 70
0
  3
Dash Dot ____ _ ____ _
 72
65
 73
4
 40
2.0
 49
1.25
 49
-0.25
 49
0.25
 49
-0.25
  0
LTYPE
  5
411
  2
DASHED
 70
0
  3
Dashed __ __ __ __ __
 72
65
 73
2
 40
0.75
 49
0.5
 49
-0.25
  0
LTYPE
  5
43B
  2
DOTTED
 70
0
  3
Dotted .  .  .  .
 72
65
 73
2
 40
0.2
 49
0.0
 49
-0.2
  0
ENDTAB
  0
TABLE
  2
STYLE
  70
4
  0
STYLE
  2
KICAD
  70
0
  40
0
  41
1
  42
1
  50
0
  71
0
  3
isocp.shx
  0
STYLE
  2
KICADB
  70
0
  40
0
  41
1
  42
1
  50
0
  71
0
  3
isocp.shx
  0
STYLE
  2
KICADI
  70
0
  40
0
  41
1
  42
1
  50
15
  71
0
  3
isocp.shx
  0
STYLE
  2
KICADBI
  70
0
  40
0
  41
1
  42
1
  50
15
  71
0
  3
isocp.shx
  0
ENDTAB
  0
TABLE
  2
LAYER
  70
1
  0
LAYER
  2
BLACK
  70
0
  62
7
  6
CONTINUOUS
  0
ENDTAB
  0
ENDSEC
  0
SECTION
  2
ENTITIES
0
LINE
8
BLACK
6
CONTINUOUS
10
11.5833336220472436
20
-4.7905729527559053
11
11.5907857086614179
21
-4.7934598818897634
0
LINE
8
BLACK
6
CONTINUOUS
10
11.5907857086614179
20
-4.7934598818897634
11
11.5975804330708652
21
-4.7976670078740158
0
LINE
8
BLACK
6
CONTINUOUS
10
11.5975804330708652
20
-4.7976670078740158
11
11.6034864173228343
21
-4.8030510236220474
0
LINE
8
BLACK
6
CONTINUOUS
10
11.6034864173228343
20
-4.8030510236220474
11
11.6083025196850382
21
-4.8094285826771657
0
LINE
8
BLACK
6
CONTINUOUS
10
11.6083025196850382
20
-4.8094285826771657
11
11.6118647244094486
21
-4.8165824803149606
0
LINE
8
BLACK
6
CONTINUOUS
10
11.6118647244094486
20
-4.8165824803149606
11
11.6140517716535427
21
-4.8242691732283465
0
LINE
8
BLACK
6
CONTINUOUS
10
11.6140517716535427
20
-4.8242691732283465
11
11.6147891732283455
21
-4.8322268110236219
0
LINE
8
BLACK
6
CONTINUOUS
10
11.6147891732283455
20
-4.8322268110236219
11
11.6140517716535427
21
-4.8401844488188974
0
LINE
8
BLACK
6
CONTINUOUS
10
11.6140517716535427
20
-4.8401844488188974
11
11.6118647244094486
21
-4.8478711417322833
0
LINE
8
BLACK
6
CONTINUOUS
10
11.6118647244094486
20
-4.8478711417322833
11
11.6083025196850382
21
-4.8550250393700782
0
LINE
8
BLACK
6
CONTINUOUS
10
11.6083025196850382
20
-4.8550250393700782
11
11.6034864173228343
21
-4.8614025984251965
0
LINE
8
BLACK
6
CONTINUOUS
10
11.6034864173228343
20
-4.8614025984251965
11
11.5975804330708652
21
-4.8667866141732281
0
LINE
8
BLACK
6
CONTINUOUS
10
11.5975804330708652
20
-4.8667866141732281
11
11.5907857086614179
21
-4.8709937401574805
0
LINE
8
BLACK
6
CONTINUOUS
10
11.5907857086614179
20
-4.8709937401574805
11
11.5833336220472436
21
-4.8738806692913386
0
LINE
8
BLACK
6
CONTINUOUS
10
11.5833336220472436
20
-4.8738806692913386
11
11.5754779527559055
21
-4.8753491732283463
0
LINE
8
BLACK
6
CONTINUOUS
10
11.5754779527559055
20
-4.8753491732283463
11
11.5674862204724409
21
-4.8753491732283463
0
LINE
8
BLACK
6
CONTINUOUS
10
11.5674862204724409
20
-4.8753491732283463
11
11.5596305511811028
21
-4.8738806692913386
0
LINE
8
BLACK
6
CONTINUOUS
10
11.5596305511811028
20
-4.8738806692913386
11
11.5521784645669285
21
-4.8709937401574805
0
LINE
8
BLACK
6
CONTINUOUS
10
11.5521784645669285
20
-4.8709937401574805
11
11.5453837401574795
21
-4.8667866141732281
0
LINE
8
BLACK
6
CONTINUOUS
10
11.5453837401574795
20
-4.8667866141732281
11
11.5394777559055122
21
-4.8614025984251965
0
LINE
8
BLACK
6
CONTINUOUS
10
11.5394777559055122
20
-4.8614025984251965
11
11.5346616535433064
21
-4.8550250393700782
0
LINE
8
BLACK
6
CONTINUOUS
10
11.5346616535433064
20
-4.8550250393700782
11
11.5310994488188978
21
-4.8478711417322833
0
LINE
8
BLACK
6
CONTINUOUS
10
11.5310994488188978
20
-4.8478711417322833
11
11.5289124015748037
21
-4.8401844488188974
0
LINE
8
BLACK
6
CONTINUOUS
10
11.5289124015748037
20
-4.8401844488188974
11
11.5281749999999992
21
-4.8322268110236219
0
LINE
8
BLACK
6
CONTINUOUS
10
11.5281749999999992
20
-4.8322268110236219
11
11.5289124015748037
21
-4.8242691732283465
0
LINE
8
BLACK
6
CONTINUOUS
10
11.5289124015748037
20
-4.8242691732283465
11
11.5310994488188978
21
-4.8165824803149606
0
LINE
8
BLACK
6
CONTINUOUS
10
11.5310994488188978
20
-4.8165824803149606
11
11.5346616535433064
21
-4.8094285826771657
0
LINE
8
BLACK
6
CONTINUOUS
10
11.5346616535433064
20
-4.8094285826771657
11
11.5394777559055122
21
-4.8030510236220474
0
LINE
8
BLACK
6
CONTINUOUS
10
11.5394777559055122
20
-4.8030510236220474
11
11.5453837401574795
21
-4.7976670078740158
0
LINE
8
BLACK
6
CONTINUOUS
10
11.5453837401574795
20
-4.7976670078740158
11
11.5521784645669285
21
-4.7934598818897634
0
LINE
8
BLACK
6
CONTINUOUS
10
11.5521784645669285
20
-4.7934598818897634
11
11.5596305511811028
21
-4.7905729527559053
0
LINE
8
BLACK
6
CONTINUOUS
10
11.5596305511811028
20
-4.7905729527559053
11
11.5674862204724409
21
-4.7891044488188976
0
LINE
8
BLACK
6
CONTINUOUS
10
11.5674862204724409
20
-4.7891044488188976
11
11.5754779527559055
21
-4.7891044488188976
0
LINE
8
BLACK
6
CONTINUOUS
10
11.5754779527559055
20
-4.7891044488188976
11
11.5833336220472436
21
-4.7905729527559053
0
LINE
8
BLACK
6
CONTINUOUS
10
4.0838939763779525
20
-4.7905672047244092
11
4.0913460629921259
21
-4.7934541338582672
0
LINE
8
BLACK
6
CONTINUOUS
10
4.0913460629921259
20
-4.7934541338582672
11
4.0981407874015749
21
-4.7976612598425197
0
LINE
8
BLACK
6
CONTINUOUS
10
4.0981407874015749
20
-4.7976612598425197
11
4.1040467716535431
21
-4.8030452755905513
0
LINE
8
BLACK
6
CONTINUOUS
10
4.1040467716535431
20
-4.8030452755905513
11
4.108862874015748
21
-4.8094228346456696
0
LINE
8
BLACK
6
CONTINUOUS
10
4.108862874015748
20
-4.8094228346456696
11
4.1124250787401575
21
-4.8165767322834645
0
LINE
8
BLACK
6
CONTINUOUS
10
4.1124250787401575
20
-4.8165767322834645
11
4.1146121259842516
21
-4.8242634251968504
0
LINE
8
BLACK
6
CONTINUOUS
10
4.1146121259842516
20
-4.8242634251968504
11
4.1153495275590553
21
-4.8322210629921258
0
LINE
8
BLACK
6
CONTINUOUS
10
4.1153495275590553
20
-4.8322210629921258
11
4.1146121259842516
21
-4.8401787007874013
0
LINE
8
BLACK
6
CONTINUOUS
10
4.1146121259842516
20
-4.8401787007874013
11
4.1124250787401575
21
-4.8478653937007872
0
LINE
8
BLACK
6
CONTINUOUS
10
4.1124250787401575
20
-4.8478653937007872
11
4.108862874015748
21
-4.855019291338583
0
LINE
8
BLACK
6
CONTINUOUS
10
4.108862874015748
20
-4.855019291338583
11
4.1040467716535431
21
-4.8613968503937004
0
LINE
8
BLACK
6
CONTINUOUS
10
4.1040467716535431
20
-4.8613968503937004
11
4.0981407874015749
21
-4.866780866141732
0
LINE
8
BLACK
6
CONTINUOUS
10
4.0981407874015749
20
-4.866780866141732
11
4.0913460629921259
21
-4.8709879921259844
0
LINE
8
BLACK
6
CONTINUOUS
10
4.0913460629921259
20
-4.8709879921259844
11
4.0838939763779525
21
-4.8738749212598425
0
LINE
8
BLACK
6
CONTINUOUS
10
4.0838939763779525
20
-4.8738749212598425
11
4.0760383070866144
21
-4.8753434251968502
0
LINE
8
BLACK
6
CONTINUOUS
10
4.0760383070866144
20
-4.8753434251968502
11
4.0680465748031498
21
-4.8753434251968502
0
LINE
8
BLACK
6
CONTINUOUS
10
4.0680465748031498
20
-4.8753434251968502
11
4.0601909055118108
21
-4.8738749212598425
0
LINE
8
BLACK
6
CONTINUOUS
10
4.0601909055118108
20
-4.8738749212598425
11
4.0527388188976374
21
-4.8709879921259844
0
LINE
8
BLACK
6
CONTINUOUS
10
4.0527388188976374
20
-4.8709879921259844
11
4.0459440944881893
21
-4.866780866141732
0
LINE
8
BLACK
6
CONTINUOUS
10
4.0459440944881893
20
-4.866780866141732
11
4.0400381102362202
21
-4.8613968503937004
0
LINE
8
BLACK
6
CONTINUOUS
10
4.0400381102362202
20
-4.8613968503937004
11
4.0352220078740153
21
-4.855019291338583
0
LINE
8
BLACK
6
CONTINUOUS
10
4.0352220078740153
20
-4.855019291338583
11
4.0316598031496058
21
-4.8478653937007872
0
LINE
8
BLACK
6
CONTINUOUS
10
4.0316598031496058
20
-4.8478653937007872
11
4.0294727559055117
21
-4.8401787007874013
0
LINE
8
BLACK
6
CONTINUOUS
10
4.0294727559055117
20
-4.8401787007874013
11
4.028735354330709
21
-4.8322210629921258
0
LINE
8
BLACK
6
CONTINUOUS
10
4.028735354330709
20
-4.8322210629921258
11
4.0294727559055117
21
-4.8242634251968504
0
LINE
8
BLACK
6
CONTINUOUS
10
4.0294727559055117
20
-4.8242634251968504
11
4.0316598031496058
21
-4.8165767322834645
0
LINE
8
BLACK
6
CONTINUOUS
10
4.0316598031496058
20
-4.8165767322834645
11
4.0352220078740153
21
-4.8094228346456696
0
LINE
8
BLACK
6
CONTINUOUS
10
4.0352220078740153
20
-4.8094228346456696
11
4.0400381102362202
21
-4.8030452755905513
0
LINE
8
BLACK
6
CONTINUOUS
10
4.0400381102362202
20
-4.8030452755905513
11
4.0459440944881893
21
-4.7976612598425197
0
LINE
8
BLACK
6
CONTINUOUS
10
4.0459440944881893
20
-4.7976612598425197
11
4.0527388188976374
21
-4.7934541338582672
0
LINE
8
BLACK
6
CONTINUOUS
10
4.0527388188976374
20
-4.7934541338582672
11
4.0601909055118108
21
-4.7905672047244092
0
LINE
8
BLACK
6
CONTINUOUS
10
4.0601909055118108
20
-4.7905672047244092
11
4.0680465748031498
21
-4.7890987007874015
0
LINE
8
BLACK
6
CONTINUOUS
10
4.0680465748031498
20
-4.7890987007874015
11
4.0760383070866144
21
-4.7890987007874015
0
LINE
8
BLACK
6
CONTINUOUS
10
4.0760383070866144
20
-4.7890987007874015
11
4.0838939763779525
21
-4.7905672047244092
0
LINE
8
BLACK
6
CONTINUOUS
10
14.302077637795275
20
-4.7905590551181101
11
14.3095297244094493
21
-4.7934459842519681
0
LINE
8
BLACK
6
CONTINUOUS
10
14.3095297244094493
20
-4.7934459842519681
11
14.3163244488188965
21
-4.7976531102362205
0
LINE
8
BLACK
6
CONTINUOUS
10
14.3163244488188965
20
-4.7976531102362205
11
14.3222304330708656
21
-4.8030371259842521
0
LINE
8
BLACK
6
CONTINUOUS
10
14.3222304330708656
20
-4.8030371259842521
11
14.3270465354330714
21
-4.8094146850393695
0
LINE
8
BLACK
6
CONTINUOUS
10
14.3270465354330714
20
-4.8094146850393695
11
14.33060874015748
21
-4.8165685826771654
0
LINE
8
BLACK
6
CONTINUOUS
10
14.33060874015748
20
-4.8165685826771654
11
14.3327957874015741
21
-4.8242552755905512
0
LINE
8
BLACK
6
CONTINUOUS
10
14.3327957874015741
20
-4.8242552755905512
11
14.3335331889763768
21
-4.8322129133858267
0
LINE
8
BLACK
6
CONTINUOUS
10
14.3335331889763768
20
-4.8322129133858267
11
14.3327957874015741
21
-4.8401705511811022
0
LINE
8
BLACK
6
CONTINUOUS
10
14.3327957874015741
20
-4.8401705511811022
11
14.33060874015748
21
-4.847857244094488
0
LINE
8
BLACK
6
CONTINUOUS
10
14.33060874015748
20
-4.847857244094488
11
14.3270465354330714
21
-4.855011141732283
0
LINE
8
BLACK
6
CONTINUOUS
10
14.3270465354330714
20
-4.855011141732283
11
14.3222304330708656
21
-4.8613887007874013
0
LINE
8
BLACK
6
CONTINUOUS
10
14.3222304330708656
20
-4.8613887007874013
11
14.3163244488188965
21
-4.8667727165354329
0
LINE
8
BLACK
6
CONTINUOUS
10
14.3163244488188965
20
-4.8667727165354329
11
14.3095297244094493
21
-4.8709798425196853
0
LINE
8
BLACK
6
CONTINUOUS
10
14.3095297244094493
20
-4.8709798425196853
11
14.302077637795275
21
-4.8738667716535433
0
LINE
8
BLACK
6
CONTINUOUS
10
14.302077637795275
20
-4.8738667716535433
11
14.2942219685039369
21
-4.875335275590551
0
LINE
8
BLACK
6
CONTINUOUS
10
14.2942219685039369
20
-4.875335275590551
11
14.2862302362204723
21
-4.875335275590551
0
LINE
8
BLACK
6
CONTINUOUS
10
14.2862302362204723
20
-4.875335275590551
11
14.2783745669291342
21
-4.8738667716535433
0
LINE
8
BLACK
6
CONTINUOUS
10
14.2783745669291342
20
-4.8738667716535433
11
14.2709224803149599
21
-4.8709798425196853
0
LINE
8
BLACK
6
CONTINUOUS
10
14.2709224803149599
20
-4.8709798425196853
11
14.2641277559055109
21
-4.8667727165354329
0
LINE
8
BLACK
6
CONTINUOUS
10
14.2641277559055109
20
-4.8667727165354329
11
14.2582217716535435
21
-4.8613887007874013
0
LINE
8
BLACK
6
CONTINUOUS
10
14.2582217716535435
20
-4.8613887007874013
11
14.2534056692913378
21
-4.855011141732283
0
LINE
8
BLACK
6
CONTINUOUS
10
14.2534056692913378
20
-4.855011141732283
11
14.2498434645669292
21
-4.847857244094488
0
LINE
8
BLACK
6
CONTINUOUS
10
14.2498434645669292
20
-4.847857244094488
11
14.2476564173228351
21
-4.8401705511811022
0
LINE
8
BLACK
6
CONTINUOUS
10
14.2476564173228351
20
-4.8401705511811022
11
14.2469190157480305
21
-4.8322129133858267
0
LINE
8
BLACK
6
CONTINUOUS
10
14.2469190157480305
20
-4.8322129133858267
11
14.2476564173228351
21
-4.8242552755905512
0
LINE
8
BLACK
6
CONTINUOUS
10
14.2476564173228351
20
-4.8242552755905512
11
14.2498434645669292
21
-4.8165685826771654
0
LINE
8
BLACK
6
CONTINUOUS
10
14.2498434645669292
20
-4.8165685826771654
11
14.2534056692913378
21
-4.8094146850393695
0
LINE
8
BLACK
6
CONTINUOUS
10
14.2534056692913378
20
-4.8094146850393695
11
14.2582217716535435
21
-4.8030371259842521
0
LINE
8
BLACK
6
CONTINUOUS
10
14.2582217716535435
20
-4.8030371259842521
11
14.2641277559055109
21
-4.7976531102362205
0
LINE
8
BLACK
6
CONTINUOUS
10
14.2641277559055109
20
-4.7976531102362205
11
14.2709224803149599
21
-4.7934459842519681
0
LINE
8
BLACK
6
CONTINUOUS
10
14.2709224803149599
20
-4.7934459842519681
11
14.2783745669291342
21
-4.7905590551181101
0
LINE
8
BLACK
6
CONTINUOUS
10
14.2783745669291342
20
-4.7905590551181101
11
14.2862302362204723
21
-4.7890905511811024
0
LINE
8
BLACK
6
CONTINUOUS
10
14.2862302362204723
20
-4.7890905511811024
11
14.2942219685039369
21
-4.7890905511811024
0
LINE
8
BLACK
6
CONTINUOUS
10
14.2942219685039369
20
-4.7890905511811024
11
14.302077637795275
21
-4.7905590551181101
0
LINE
8
BLACK
6
CONTINUOUS
10
8.9584299212598424
20
-4.7902829921259844
11
8.9658820078740149
21
-4.7931699212598424
0
LINE
8
BLACK
6
CONTINUOUS
10
8.9658820078740149
20
-4.7931699212598424
11
8.972676732283464
21
-4.797377047244094
0
LINE
8
BLACK
6
CONTINUOUS
10
8.972676732283464
20
-4.797377047244094
11
8.9785827165354331
21
-4.8027610629921256
0
LINE
8
BLACK
6
CONTINUOUS
10
8.9785827165354331
20
-4.8027610629921256
11
8.983398818897637
21
-4.8091386220472438
0
LINE
8
BLACK
6
CONTINUOUS
10
8.983398818897637
20
-4.8091386220472438
11
8.9869610236220474
21
-4.8162925196850397
0
LINE
8
BLACK
6
CONTINUOUS
10
8.9869610236220474
20
-4.8162925196850397
11
8.9891480708661415
21
-4.8239792125984247
0
LINE
8
BLACK
6
CONTINUOUS
10
8.9891480708661415
20
-4.8239792125984247
11
8.9898854724409443
21
-4.831936850393701
0
LINE
8
BLACK
6
CONTINUOUS
10
8.9898854724409443
20
-4.831936850393701
11
8.9891480708661415
21
-4.8398944881889765
0
LINE
8
BLACK
6
CONTINUOUS
10
8.9891480708661415
20
-4.8398944881889765
11
8.9869610236220474
21
-4.8475811811023624
0
LINE
8
BLACK
6
CONTINUOUS
10
8.9869610236220474
20
-4.8475811811023624
11
8.983398818897637
21
-4.8547350787401573
0
LINE
8
BLACK
6
CONTINUOUS
10
8.983398818897637
20
-4.8547350787401573
11
8.9785827165354331
21
-4.8611126377952756
0
LINE
8
BLACK
6
CONTINUOUS
10
8.9785827165354331
20
-4.8611126377952756
11
8.972676732283464
21
-4.8664966535433072
0
LINE
8
BLACK
6
CONTINUOUS
10
8.972676732283464
20
-4.8664966535433072
11
8.9658820078740149
21
-4.8707037795275587
0
LINE
8
BLACK
6
CONTINUOUS
10
8.9658820078740149
20
-4.8707037795275587
11
8.9584299212598424
21
-4.8735907086614176
0
LINE
8
BLACK
6
CONTINUOUS
10
8.9584299212598424
20
-4.8735907086614176
11
8.9505742519685043
21
-4.8750592125984253
0
LINE
8
BLACK
6
CONTINUOUS
10
8.9505742519685043
20
-4.8750592125984253
11
8.9425825196850397
21
-4.8750592125984253
0
LINE
8
BLACK
6
CONTINUOUS
10
8.9425825196850397
20
-4.8750592125984253
11
8.9347268503936998
21
-4.8735907086614176
0
LINE
8
BLACK
6
CONTINUOUS
10
8.9347268503936998
20
-4.8735907086614176
11
8.9272747637795273
21
-4.8707037795275587
0
LINE
8
BLACK
6
CONTINUOUS
10
8.9272747637795273
20
-4.8707037795275587
11
8.9204800393700783
21
-4.8664966535433072
0
LINE
8
BLACK
6
CONTINUOUS
10
8.9204800393700783
20
-4.8664966535433072
11
8.9145740551181092
21
-4.8611126377952756
0
LINE
8
BLACK
6
CONTINUOUS
10
8.9145740551181092
20
-4.8611126377952756
11
8.9097579527559052
21
-4.8547350787401573
0
LINE
8
BLACK
6
CONTINUOUS
10
8.9097579527559052
20
-4.8547350787401573
11
8.9061957480314966
21
-4.8475811811023624
0
LINE
8
BLACK
6
CONTINUOUS
10
8.9061957480314966
20
-4.8475811811023624
11
8.9040087007874007
21
-4.8398944881889765
0
LINE
8
BLACK
6
CONTINUOUS
10
8.9040087007874007
20
-4.8398944881889765
11
8.903271299212598
21
-4.831936850393701
0
LINE
8
BLACK
6
CONTINUOUS
10
8.903271299212598
20
-4.831936850393701
11
8.9040087007874007
21
-4.8239792125984247
0
LINE
8
BLACK
6
CONTINUOUS
10
8.9040087007874007
20
-4.8239792125984247
11
8.9061957480314966
21
-4.8162925196850397
0
LINE
8
BLACK
6
CONTINUOUS
10
8.9061957480314966
20
-4.8162925196850397
11
8.9097579527559052
21
-4.8091386220472438
0
LINE
8
BLACK
6
CONTINUOUS
10
8.9097579527559052
20
-4.8091386220472438
11
8.9145740551181092
21
-4.8027610629921256
0
LINE
8
BLACK
6
CONTINUOUS
10
8.9145740551181092
20
-4.8027610629921256
11
8.9204800393700783
21
-4.797377047244094
0
LINE
8
BLACK
6
CONTINUOUS
10
8.9204800393700783
20
-4.797377047244094
11
8.9272747637795273
21
-4.7931699212598424
0
LINE
8
BLACK
6
CONTINUOUS
10
8.9272747637795273
20
-4.7931699212598424
11
8.9347268503936998
21
-4.7902829921259844
0
LINE
8
BLACK
6
CONTINUOUS
10
8.9347268503936998
20
-4.7902829921259844
11
8.9425825196850397
21
-4.7888144881889767
0
LINE
8
BLACK
6
CONTINUOUS
10
8.9425825196850397
20
-4.7888144881889767
11
8.9505742519685043
21
-4.7888144881889767
0
LINE
8
BLACK
6
CONTINUOUS
10
8.9505742519685043
20
-4.7888144881889767
11
8.9584299212598424
21
-4.7902829921259844
0
LINE
8
BLACK
6
CONTINUOUS
10
1.3612931102362205
20
-4.7901898031496062
11
1.3687451968503936
21
-4.7930767322834642
0
LINE
8
BLACK
6
CONTINUOUS
10
1.3687451968503936
20
-4.7930767322834642
11
1.3755399212598425
21
-4.7972838582677166
0
LINE
8
BLACK
6
CONTINUOUS
10
1.3755399212598425
20
-4.7972838582677166
11
1.3814459055118109
21
-4.8026678740157482
0
LINE
8
BLACK
6
CONTINUOUS
10
1.3814459055118109
20
-4.8026678740157482
11
1.3862620078740158
21
-4.8090454330708656
0
LINE
8
BLACK
6
CONTINUOUS
10
1.3862620078740158
20
-4.8090454330708656
11
1.3898242125984253
21
-4.8161993307086615
0
LINE
8
BLACK
6
CONTINUOUS
10
1.3898242125984253
20
-4.8161993307086615
11
1.3920112598425196
21
-4.8238860236220473
0
LINE
8
BLACK
6
CONTINUOUS
10
1.3920112598425196
20
-4.8238860236220473
11
1.3927486614173228
21
-4.8318436614173228
0
LINE
8
BLACK
6
CONTINUOUS
10
1.3927486614173228
20
-4.8318436614173228
11
1.3920112598425196
21
-4.8398012992125983
0
LINE
8
BLACK
6
CONTINUOUS
10
1.3920112598425196
20
-4.8398012992125983
11
1.3898242125984253
21
-4.8474879921259841
0
LINE
8
BLACK
6
CONTINUOUS
10
1.3898242125984253
20
-4.8474879921259841
11
1.3862620078740158
21
-4.8546418897637791
0
LINE
8
BLACK
6
CONTINUOUS
10
1.3862620078740158
20
-4.8546418897637791
11
1.3814459055118109
21
-4.8610194488188974
0
LINE
8
BLACK
6
CONTINUOUS
10
1.3814459055118109
20
-4.8610194488188974
11
1.3755399212598425
21
-4.866403464566929
0
LINE
8
BLACK
6
CONTINUOUS
10
1.3755399212598425
20
-4.866403464566929
11
1.3687451968503936
21
-4.8706105905511814
0
LINE
8
BLACK
6
CONTINUOUS
10
1.3687451968503936
20
-4.8706105905511814
11
1.3612931102362205
21
-4.8734975196850394
0
LINE
8
BLACK
6
CONTINUOUS
10
1.3612931102362205
20
-4.8734975196850394
11
1.3534374409448819
21
-4.8749660236220471
0
LINE
8
BLACK
6
CONTINUOUS
10
1.3534374409448819
20
-4.8749660236220471
11
1.3454457086614173
21
-4.8749660236220471
0
LINE
8
BLACK
6
CONTINUOUS
10
1.3454457086614173
20
-4.8749660236220471
11
1.3375900393700788
21
-4.8734975196850394
0
LINE
8
BLACK
6
CONTINUOUS
10
1.3375900393700788
20
-4.8734975196850394
11
1.3301379527559054
21
-4.8706105905511814
0
LINE
8
BLACK
6
CONTINUOUS
10
1.3301379527559054
20
-4.8706105905511814
11
1.3233432283464566
21
-4.866403464566929
0
LINE
8
BLACK
6
CONTINUOUS
10
1.3233432283464566
20
-4.866403464566929
11
1.3174372440944881
21
-4.8610194488188974
0
LINE
8
BLACK
6
CONTINUOUS
10
1.3174372440944881
20
-4.8610194488188974
11
1.3126211417322835
21
-4.8546418897637791
0
LINE
8
BLACK
6
CONTINUOUS
10
1.3126211417322835
20
-4.8546418897637791
11
1.309058937007874
21
-4.8474879921259841
0
LINE
8
BLACK
6
CONTINUOUS
10
1.309058937007874
20
-4.8474879921259841
11
1.3068718897637794
21
-4.8398012992125983
0
LINE
8
BLACK
6
CONTINUOUS
10
1.3068718897637794
20
-4.8398012992125983
11
1.3061344881889763
21
-4.8318436614173228
0
LINE
8
BLACK
6
CONTINUOUS
10
1.3061344881889763
20
-4.8318436614173228
11
1.3068718897637794
21
-4.8238860236220473
0
LINE
8
BLACK
6
CONTINUOUS
10
1.3068718897637794
20
-4.8238860236220473
11
1.309058937007874
21
-4.8161993307086615
0
LINE
8
BLACK
6
CONTINUOUS
10
1.309058937007874
20
-4.8161993307086615
11
1.3126211417322835
21
-4.8090454330708656
0
LINE
8
BLACK
6
CONTINUOUS
10
1.3126211417322835
20
-4.8090454330708656
11
1.3174372440944881
21
-4.8026678740157482
0
LINE
8
BLACK
6
CONTINUOUS
10
1.3174372440944881
20
-4.8026678740157482
11
1.3233432283464566
21
-4.7972838582677166
0
LINE
8
BLACK
6
CONTINUOUS
10
1.3233432283464566
20
-4.7972838582677166
11
1.3301379527559054
21
-4.7930767322834642
0
LINE
8
BLACK
6
CONTINUOUS
10
1.3301379527559054
20
-4.7930767322834642
11
1.3375900393700788
21
-4.7901898031496062
0
LINE
8
BLACK
6
CONTINUOUS
10
1.3375900393700788
20
-4.7901898031496062
11
1.3454457086614173
21
-4.7887212992125985
0
LINE
8
BLACK
6
CONTINUOUS
10
1.3454457086614173
20
-4.7887212992125985
11
1.3534374409448819
21
-4.7887212992125985
0
LINE
8
BLACK
6
CONTINUOUS
10
1.3534374409448819
20
-4.7887212992125985
11
1.3612931102362205
21
-4.7901898031496062
0
LINE
8
BLACK
6
CONTINUOUS
10
12.6651265354330711
20
-3.2464977559055117
11
12.6725786220472436
21
-3.2493846850393702
0
LINE
8
BLACK
6
CONTINUOUS
10
12.6725786220472436
20
-3.2493846850393702
11
12.6793733464566927
21
-3.2535918110236222
0
LINE
8
BLACK
6
CONTINUOUS
10
12.6793733464566927
20
-3.2535918110236222
11
12.6852793307086618
21
-3.2589758267716533
0
LINE
8
BLACK
6
CONTINUOUS
10
12.6852793307086618
20
-3.2589758267716533
11
12.6900954330708657
21
-3.2653533858267716
0
LINE
8
BLACK
6
CONTINUOUS
10
12.6900954330708657
20
-3.2653533858267716
11
12.6936576377952761
21
-3.272507283464567
0
LINE
8
BLACK
6
CONTINUOUS
10
12.6936576377952761
20
-3.272507283464567
11
12.6958446850393702
21
-3.2801939763779528
0
LINE
8
BLACK
6
CONTINUOUS
10
12.6958446850393702
20
-3.2801939763779528
11
12.696582086614173
21
-3.2881516141732283
0
LINE
8
BLACK
6
CONTINUOUS
10
12.696582086614173
20
-3.2881516141732283
11
12.6958446850393702
21
-3.2961092519685038
0
LINE
8
BLACK
6
CONTINUOUS
10
12.6958446850393702
20
-3.2961092519685038
11
12.6936576377952761
21
-3.3037959448818897
0
LINE
8
BLACK
6
CONTINUOUS
10
12.6936576377952761
20
-3.3037959448818897
11
12.6900954330708657
21
-3.310949842519685
0
LINE
8
BLACK
6
CONTINUOUS
10
12.6900954330708657
20
-3.310949842519685
11
12.6852793307086618
21
-3.3173274015748029
0
LINE
8
BLACK
6
CONTINUOUS
10
12.6852793307086618
20
-3.3173274015748029
11
12.6793733464566927
21
-3.3227114173228345
0
LINE
8
BLACK
6
CONTINUOUS
10
12.6793733464566927
20
-3.3227114173228345
11
12.6725786220472436
21
-3.3269185433070865
0
LINE
8
BLACK
6
CONTINUOUS
10
12.6725786220472436
20
-3.3269185433070865
11
12.6651265354330711
21
-3.3298054724409449
0
LINE
8
BLACK
6
CONTINUOUS
10
12.6651265354330711
20
-3.3298054724409449
11
12.6572708661417312
21
-3.3312739763779526
0
LINE
8
BLACK
6
CONTINUOUS
10
12.6572708661417312
20
-3.3312739763779526
11
12.6492791338582666
21
-3.3312739763779526
0
LINE
8
BLACK
6
CONTINUOUS
10
12.6492791338582666
20
-3.3312739763779526
11
12.6414234645669286
21
-3.3298054724409449
0
LINE
8
BLACK
6
CONTINUOUS
10
12.6414234645669286
20
-3.3298054724409449
11
12.633971377952756
21
-3.3269185433070865
0
LINE
8
BLACK
6
CONTINUOUS
10
12.633971377952756
20
-3.3269185433070865
11
12.627176653543307
21
-3.3227114173228345
0
LINE
8
BLACK
6
CONTINUOUS
10
12.627176653543307
20
-3.3227114173228345
11
12.6212706692913379
21
-3.3173274015748029
0
LINE
8
BLACK
6
CONTINUOUS
10
12.6212706692913379
20
-3.3173274015748029
11
12.6164545669291339
21
-3.310949842519685
0
LINE
8
BLACK
6
CONTINUOUS
10
12.6164545669291339
20
-3.310949842519685
11
12.6128923622047235
21
-3.3037959448818897
0
LINE
8
BLACK
6
CONTINUOUS
10
12.6128923622047235
20
-3.3037959448818897
11
12.6107053149606294
21
-3.2961092519685038
0
LINE
8
BLACK
6
CONTINUOUS
10
12.6107053149606294
20
-3.2961092519685038
11
12.6099679133858267
21
-3.2881516141732283
0
LINE
8
BLACK
6
CONTINUOUS
10
12.6099679133858267
20
-3.2881516141732283
11
12.6107053149606294
21
-3.2801939763779528
0
LINE
8
BLACK
6
CONTINUOUS
10
12.6107053149606294
20
-3.2801939763779528
11
12.6128923622047235
21
-3.272507283464567
0
LINE
8
BLACK
6
CONTINUOUS
10
12.6128923622047235
20
-3.272507283464567
11
12.6164545669291339
21
-3.2653533858267716
0
LINE
8
BLACK
6
CONTINUOUS
10
12.6164545669291339
20
-3.2653533858267716
11
12.6212706692913379
21
-3.2589758267716533
0
LINE
8
BLACK
6
CONTINUOUS
10
12.6212706692913379
20
-3.2589758267716533
11
12.627176653543307
21
-3.2535918110236222
0
LINE
8
BLACK
6
CONTINUOUS
10
12.627176653543307
20
-3.2535918110236222
11
12.633971377952756
21
-3.2493846850393702
0
LINE
8
BLACK
6
CONTINUOUS
10
12.633971377952756
20
-3.2493846850393702
11
12.6414234645669286
21
-3.2464977559055117
0
LINE
8
BLACK
6
CONTINUOUS
10
12.6414234645669286
20
-3.2464977559055117
11
12.6492791338582666
21
-3.245029251968504
0
LINE
8
BLACK
6
CONTINUOUS
10
12.6492791338582666
20
-3.245029251968504
11
12.6572708661417312
21
-3.245029251968504
0
LINE
8
BLACK
6
CONTINUOUS
10
12.6572708661417312
20
-3.245029251968504
11
12.6651265354330711
21
-3.2464977559055117
0
LINE
8
BLACK
6
CONTINUOUS
10
9.4275579921259833
20
-3.2464838582677165
11
9.4350100787401576
21
-3.2493707874015749
0
LINE
8
BLACK
6
CONTINUOUS
10
9.4350100787401576
20
-3.2493707874015749
11
9.4418048031496067
21
-3.2535779133858269
0
LINE
8
BLACK
6
CONTINUOUS
10
9.4418048031496067
20
-3.2535779133858269
11
9.447710787401574
21
-3.2589619291338581
0
LINE
8
BLACK
6
CONTINUOUS
10
9.447710787401574
20
-3.2589619291338581
11
9.4525268897637797
21
-3.2653394881889763
0
LINE
8
BLACK
6
CONTINUOUS
10
9.4525268897637797
20
-3.2653394881889763
11
9.4560890944881884
21
-3.2724933858267717
0
LINE
8
BLACK
6
CONTINUOUS
10
9.4560890944881884
20
-3.2724933858267717
11
9.4582761417322825
21
-3.2801800787401576
0
LINE
8
BLACK
6
CONTINUOUS
10
9.4582761417322825
20
-3.2801800787401576
11
9.459013543307087
21
-3.2881377165354331
0
LINE
8
BLACK
6
CONTINUOUS
10
9.459013543307087
20
-3.2881377165354331
11
9.4582761417322825
21
-3.2960953543307085
0
LINE
8
BLACK
6
CONTINUOUS
10
9.4582761417322825
20
-3.2960953543307085
11
9.4560890944881884
21
-3.3037820472440944
0
LINE
8
BLACK
6
CONTINUOUS
10
9.4560890944881884
20
-3.3037820472440944
11
9.4525268897637797
21
-3.3109359448818898
0
LINE
8
BLACK
6
CONTINUOUS
10
9.4525268897637797
20
-3.3109359448818898
11
9.447710787401574
21
-3.3173135039370076
0
LINE
8
BLACK
6
CONTINUOUS
10
9.447710787401574
20
-3.3173135039370076
11
9.4418048031496067
21
-3.3226975196850392
0
LINE
8
BLACK
6
CONTINUOUS
10
9.4418048031496067
20
-3.3226975196850392
11
9.4350100787401576
21
-3.3269046456692912
0
LINE
8
BLACK
6
CONTINUOUS
10
9.4350100787401576
20
-3.3269046456692912
11
9.4275579921259833
21
-3.3297915748031497
0
LINE
8
BLACK
6
CONTINUOUS
10
9.4275579921259833
20
-3.3297915748031497
11
9.4197023228346453
21
-3.3312600787401574
0
LINE
8
BLACK
6
CONTINUOUS
10
9.4197023228346453
20
-3.3312600787401574
11
9.4117105905511806
21
-3.3312600787401574
0
LINE
8
BLACK
6
CONTINUOUS
10
9.4117105905511806
20
-3.3312600787401574
11
9.4038549212598426
21
-3.3297915748031497
0
LINE
8
BLACK
6
CONTINUOUS
10
9.4038549212598426
20
-3.3297915748031497
11
9.3964028346456683
21
-3.3269046456692912
0
LINE
8
BLACK
6
CONTINUOUS
10
9.3964028346456683
20
-3.3269046456692912
11
9.389608110236221
21
-3.3226975196850392
0
LINE
8
BLACK
6
CONTINUOUS
10
9.389608110236221
20
-3.3226975196850392
11
9.3837021259842519
21
-3.3173135039370076
0
LINE
8
BLACK
6
CONTINUOUS
10
9.3837021259842519
20
-3.3173135039370076
11
9.3788860236220462
21
-3.3109359448818898
0
LINE
8
BLACK
6
CONTINUOUS
10
9.3788860236220462
20
-3.3109359448818898
11
9.3753238188976376
21
-3.3037820472440944
0
LINE
8
BLACK
6
CONTINUOUS
10
9.3753238188976376
20
-3.3037820472440944
11
9.3731367716535434
21
-3.2960953543307085
0
LINE
8
BLACK
6
CONTINUOUS
10
9.3731367716535434
20
-3.2960953543307085
11
9.3723993700787407
21
-3.2881377165354331
0
LINE
8
BLACK
6
CONTINUOUS
10
9.3723993700787407
20
-3.2881377165354331
11
9.3731367716535434
21
-3.2801800787401576
0
LINE
8
BLACK
6
CONTINUOUS
10
9.3731367716535434
20
-3.2801800787401576
11
9.3753238188976376
21
-3.2724933858267717
0
LINE
8
BLACK
6
CONTINUOUS
10
9.3753238188976376
20
-3.2724933858267717
11
9.3788860236220462
21
-3.2653394881889763
0
LINE
8
BLACK
6
CONTINUOUS
10
9.3788860236220462
20
-3.2653394881889763
11
9.3837021259842519
21
-3.2589619291338581
0
LINE
8
BLACK
6
CONTINUOUS
10
9.3837021259842519
20
-3.2589619291338581
11
9.389608110236221
21
-3.2535779133858269
0
LINE
8
BLACK
6
CONTINUOUS
10
9.389608110236221
20
-3.2535779133858269
11
9.3964028346456683
21
-3.2493707874015749
0
LINE
8
BLACK
6
CONTINUOUS
10
9.3964028346456683
20
-3.2493707874015749
11
9.4038549212598426
21
-3.2464838582677165
0
LINE
8
BLACK
6
CONTINUOUS
10
9.4038549212598426
20
-3.2464838582677165
11
9.4117105905511806
21
-3.2450153543307088
0
LINE
8
BLACK
6
CONTINUOUS
10
9.4117105905511806
20
-3.2450153543307088
11
9.4197023228346453
21
-3.2450153543307088
0
LINE
8
BLACK
6
CONTINUOUS
10
9.4197023228346453
20
-3.2450153543307088
11
9.4275579921259833
21
-3.2464838582677165
0
LINE
8
BLACK
6
CONTINUOUS
10
6.427189921259842
20
-3.2462998031496064
11
6.4346420078740154
21
-3.2491867322834644
0
LINE
8
BLACK
6
CONTINUOUS
10
6.4346420078740154
20
-3.2491867322834644
11
6.4414367322834645
21
-3.2533938582677164
0
LINE
8
BLACK
6
CONTINUOUS
10
6.4414367322834645
20
-3.2533938582677164
11
6.4473427165354327
21
-3.258777874015748
0
LINE
8
BLACK
6
CONTINUOUS
10
6.4473427165354327
20
-3.258777874015748
11
6.4521588188976375
21
-3.2651554330708659
0
LINE
8
BLACK
6
CONTINUOUS
10
6.4521588188976375
20
-3.2651554330708659
11
6.455721023622047
21
-3.2723093307086613
0
LINE
8
BLACK
6
CONTINUOUS
10
6.455721023622047
20
-3.2723093307086613
11
6.4579080708661412
21
-3.2799960236220471
0
LINE
8
BLACK
6
CONTINUOUS
10
6.4579080708661412
20
-3.2799960236220471
11
6.4586454724409448
21
-3.2879536614173226
0
LINE
8
BLACK
6
CONTINUOUS
10
6.4586454724409448
20
-3.2879536614173226
11
6.4579080708661412
21
-3.2959112992125985
0
LINE
8
BLACK
6
CONTINUOUS
10
6.4579080708661412
20
-3.2959112992125985
11
6.455721023622047
21
-3.3035979921259844
0
LINE
8
BLACK
6
CONTINUOUS
10
6.455721023622047
20
-3.3035979921259844
11
6.4521588188976375
21
-3.3107518897637793
0
LINE
8
BLACK
6
CONTINUOUS
10
6.4521588188976375
20
-3.3107518897637793
11
6.4473427165354327
21
-3.3171294488188976
0
LINE
8
BLACK
6
CONTINUOUS
10
6.4473427165354327
20
-3.3171294488188976
11
6.4414367322834645
21
-3.3225134645669292
0
LINE
8
BLACK
6
CONTINUOUS
10
6.4414367322834645
20
-3.3225134645669292
11
6.4346420078740154
21
-3.3267205905511812
0
LINE
8
BLACK
6
CONTINUOUS
10
6.4346420078740154
20
-3.3267205905511812
11
6.427189921259842
21
-3.3296075196850392
0
LINE
8
BLACK
6
CONTINUOUS
10
6.427189921259842
20
-3.3296075196850392
11
6.4193342519685039
21
-3.3310760236220474
0
LINE
8
BLACK
6
CONTINUOUS
10
6.4193342519685039
20
-3.3310760236220474
11
6.4113425196850393
21
-3.3310760236220474
0
LINE
8
BLACK
6
CONTINUOUS
10
6.4113425196850393
20
-3.3310760236220474
11
6.4034868503937004
21
-3.3296075196850392
0
LINE
8
BLACK
6
CONTINUOUS
10
6.4034868503937004
20
-3.3296075196850392
11
6.3960347637795278
21
-3.3267205905511812
0
LINE
8
BLACK
6
CONTINUOUS
10
6.3960347637795278
20
-3.3267205905511812
11
6.3892400393700788
21
-3.3225134645669292
0
LINE
8
BLACK
6
CONTINUOUS
10
6.3892400393700788
20
-3.3225134645669292
11
6.3833340551181097
21
-3.3171294488188976
0
LINE
8
BLACK
6
CONTINUOUS
10
6.3833340551181097
20
-3.3171294488188976
11
6.3785179527559057
21
-3.3107518897637793
0
LINE
8
BLACK
6
CONTINUOUS
10
6.3785179527559057
20
-3.3107518897637793
11
6.3749557480314962
21
-3.3035979921259844
0
LINE
8
BLACK
6
CONTINUOUS
10
6.3749557480314962
20
-3.3035979921259844
11
6.3727687007874012
21
-3.2959112992125985
0
LINE
8
BLACK
6
CONTINUOUS
10
6.3727687007874012
20
-3.2959112992125985
11
6.3720312992125985
21
-3.2879536614173226
0
LINE
8
BLACK
6
CONTINUOUS
10
6.3720312992125985
20
-3.2879536614173226
11
6.3727687007874012
21
-3.2799960236220471
0
LINE
8
BLACK
6
CONTINUOUS
10
6.3727687007874012
20
-3.2799960236220471
11
6.3749557480314962
21
-3.2723093307086613
0
LINE
8
BLACK
6
CONTINUOUS
10
6.3749557480314962
20
-3.2723093307086613
11
6.3785179527559057
21
-3.2651554330708659
0
LINE
8
BLACK
6
CONTINUOUS
10
6.3785179527559057
20
-3.2651554330708659
11
6.3833340551181097
21
-3.258777874015748
0
LINE
8
BLACK
6
CONTINUOUS
10
6.3833340551181097
20
-3.258777874015748
11
6.3892400393700788
21
-3.2533938582677164
0
LINE
8
BLACK
6
CONTINUOUS
10
6.3892400393700788
20
-3.2533938582677164
11
6.3960347637795278
21
-3.2491867322834644
0
LINE
8
BLACK
6
CONTINUOUS
10
6.3960347637795278
20
-3.2491867322834644
11
6.4034868503937004
21
-3.2462998031496064
0
LINE
8
BLACK
6
CONTINUOUS
10
6.4034868503937004
20
-3.2462998031496064
11
6.4113425196850393
21
-3.2448312992125983
0
LINE
8
BLACK
6
CONTINUOUS
10
6.4113425196850393
20
-3.2448312992125983
11
6.4193342519685039
21
-3.2448312992125983
0
LINE
8
BLACK
6
CONTINUOUS
10
6.4193342519685039
20
-3.2448312992125983
11
6.427189921259842
21
-3.2462998031496064
0
LINE
8
BLACK
6
CONTINUOUS
10
1.3612931102362205
20
-2.5001088582677164
11
1.3687451968503936
21
-2.5029957874015749
0
LINE
8
BLACK
6
CONTINUOUS
10
1.3687451968503936
20
-2.5029957874015749
11
1.3755399212598425
21
-2.5072029133858269
0
LINE
8
BLACK
6
CONTINUOUS
10
1.3755399212598425
20
-2.5072029133858269
11
1.3814459055118109
21
-2.5125869291338581
0
LINE
8
BLACK
6
CONTINUOUS
10
1.3814459055118109
20
-2.5125869291338581
11
1.3862620078740158
21
-2.5189644881889763
0
LINE
8
BLACK
6
CONTINUOUS
10
1.3862620078740158
20
-2.5189644881889763
11
1.3898242125984253
21
-2.5261183858267717
0
LINE
8
BLACK
6
CONTINUOUS
10
1.3898242125984253
20
-2.5261183858267717
11
1.3920112598425196
21
-2.5338050787401576
0
LINE
8
BLACK
6
CONTINUOUS
10
1.3920112598425196
20
-2.5338050787401576
11
1.3927486614173228
21
-2.5417627165354331
0
LINE
8
BLACK
6
CONTINUOUS
10
1.3927486614173228
20
-2.5417627165354331
11
1.3920112598425196
21
-2.5497203543307085
0
LINE
8
BLACK
6
CONTINUOUS
10
1.3920112598425196
20
-2.5497203543307085
11
1.3898242125984253
21
-2.5574070472440944
0
LINE
8
BLACK
6
CONTINUOUS
10
1.3898242125984253
20
-2.5574070472440944
11
1.3862620078740158
21
-2.5645609448818898
0
LINE
8
BLACK
6
CONTINUOUS
10
1.3862620078740158
20
-2.5645609448818898
11
1.3814459055118109
21
-2.5709385039370076
0
LINE
8
BLACK
6
CONTINUOUS
10
1.3814459055118109
20
-2.5709385039370076
11
1.3755399212598425
21
-2.5763225196850392
0
LINE
8
BLACK
6
CONTINUOUS
10
1.3755399212598425
20
-2.5763225196850392
11
1.3687451968503936
21
-2.5805296456692912
0
LINE
8
BLACK
6
CONTINUOUS
10
1.3687451968503936
20
-2.5805296456692912
11
1.3612931102362205
21
-2.5834165748031497
0
LINE
8
BLACK
6
CONTINUOUS
10
1.3612931102362205
20
-2.5834165748031497
11
1.3534374409448819
21
-2.5848850787401574
0
LINE
8
BLACK
6
CONTINUOUS
10
1.3534374409448819
20
-2.5848850787401574
11
1.3454457086614173
21
-2.5848850787401574
0
LINE
8
BLACK
6
CONTINUOUS
10
1.3454457086614173
20
-2.5848850787401574
11
1.3375900393700788
21
-2.5834165748031497
0
LINE
8
BLACK
6
CONTINUOUS
10
1.3375900393700788
20
-2.5834165748031497
11
1.3301379527559054
21
-2.5805296456692912
0
LINE
8
BLACK
6
CONTINUOUS
10
1.3301379527559054
20
-2.5805296456692912
11
1.3233432283464566
21
-2.5763225196850392
0
LINE
8
BLACK
6
CONTINUOUS
10
1.3233432283464566
20
-2.5763225196850392
11
1.3174372440944881
21
-2.5709385039370076
0
LINE
8
BLACK
6
CONTINUOUS
10
1.3174372440944881
20
-2.5709385039370076
11
1.3126211417322835
21
-2.5645609448818898
0
LINE
8
BLACK
6
CONTINUOUS
10
1.3126211417322835
20
-2.5645609448818898
11
1.309058937007874
21
-2.5574070472440944
0
LINE
8
BLACK
6
CONTINUOUS
10
1.309058937007874
20
-2.5574070472440944
11
1.3068718897637794
21
-2.5497203543307085
0
LINE
8
BLACK
6
CONTINUOUS
10
1.3068718897637794
20
-2.5497203543307085
11
1.3061344881889763
21
-2.5417627165354331
0
LINE
8
BLACK
6
CONTINUOUS
10
1.3061344881889763
20
-2.5417627165354331
11
1.3068718897637794
21
-2.5338050787401576
0
LINE
8
BLACK
6
CONTINUOUS
10
1.3068718897637794
20
-2.5338050787401576
11
1.309058937007874
21
-2.5261183858267717
0
LINE
8
BLACK
6
CONTINUOUS
10
1.309058937007874
20
-2.5261183858267717
11
1.3126211417322835
21
-2.5189644881889763
0
LINE
8
BLACK
6
CONTINUOUS
10
1.3126211417322835
20
-2.5189644881889763
11
1.3174372440944881
21
-2.5125869291338581
0
LINE
8
BLACK
6
CONTINUOUS
10
1.3174372440944881
20
-2.5125869291338581
11
1.3233432283464566
21
-2.5072029133858269
0
LINE
8
BLACK
6
CONTINUOUS
10
1.3233432283464566
20
-2.5072029133858269
11
1.3301379527559054
21
-2.5029957874015749
0
LINE
8
BLACK
6
CONTINUOUS
10
1.3301379527559054
20
-2.5029957874015749
11
1.3375900393700788
21
-2.5001088582677164
0
LINE
8
BLACK
6
CONTINUOUS
10
1.3375900393700788
20
-2.5001088582677164
11
1.3454457086614173
21
-2.4986403543307087
0
LINE
8
BLACK
6
CONTINUOUS
10
1.3454457086614173
20
-2.4986403543307087
11
1.3534374409448819
21
-2.4986403543307087
0
LINE
8
BLACK
6
CONTINUOUS
10
1.3534374409448819
20
-2.4986403543307087
11
1.3612931102362205
21
-2.5001088582677164
0
LINE
8
BLACK
6
CONTINUOUS
10
4.7401260236220475
20
-2.4993726377952754
11
4.74757811023622
21
-2.5022595669291339
0
LINE
8
BLACK
6
CONTINUOUS
10
4.74757811023622
20
-2.5022595669291339
11
4.7543728346456691
21
-2.5064666929133859
0
LINE
8
BLACK
6
CONTINUOUS
10
4.7543728346456691
20
-2.5064666929133859
11
4.7602788188976373
21
-2.5118507086614175
0
LINE
8
BLACK
6
CONTINUOUS
10
4.7602788188976373
20
-2.5118507086614175
11
4.7650949212598421
21
-2.5182282677165353
0
LINE
8
BLACK
6
CONTINUOUS
10
4.7650949212598421
20
-2.5182282677165353
11
4.7686571259842516
21
-2.5253821653543307
0
LINE
8
BLACK
6
CONTINUOUS
10
4.7686571259842516
20
-2.5253821653543307
11
4.7708441732283466
21
-2.5330688582677165
0
LINE
8
BLACK
6
CONTINUOUS
10
4.7708441732283466
20
-2.5330688582677165
11
4.7715815748031494
21
-2.541026496062992
0
LINE
8
BLACK
6
CONTINUOUS
10
4.7715815748031494
20
-2.541026496062992
11
4.7708441732283466
21
-2.5489841338582675
0
LINE
8
BLACK
6
CONTINUOUS
10
4.7708441732283466
20
-2.5489841338582675
11
4.7686571259842516
21
-2.5566708267716534
0
LINE
8
BLACK
6
CONTINUOUS
10
4.7686571259842516
20
-2.5566708267716534
11
4.7650949212598421
21
-2.5638247244094488
0
LINE
8
BLACK
6
CONTINUOUS
10
4.7650949212598421
20
-2.5638247244094488
11
4.7602788188976373
21
-2.570202283464567
0
LINE
8
BLACK
6
CONTINUOUS
10
4.7602788188976373
20
-2.570202283464567
11
4.7543728346456691
21
-2.5755862992125982
0
LINE
8
BLACK
6
CONTINUOUS
10
4.7543728346456691
20
-2.5755862992125982
11
4.74757811023622
21
-2.5797934251968502
0
LINE
8
BLACK
6
CONTINUOUS
10
4.74757811023622
20
-2.5797934251968502
11
4.7401260236220475
21
-2.5826803543307086
0
LINE
8
BLACK
6
CONTINUOUS
10
4.7401260236220475
20
-2.5826803543307086
11
4.7322703543307085
21
-2.5841488582677163
0
LINE
8
BLACK
6
CONTINUOUS
10
4.7322703543307085
20
-2.5841488582677163
11
4.7242786220472439
21
-2.5841488582677163
0
LINE
8
BLACK
6
CONTINUOUS
10
4.7242786220472439
20
-2.5841488582677163
11
4.7164229527559058
21
-2.5826803543307086
0
LINE
8
BLACK
6
CONTINUOUS
10
4.7164229527559058
20
-2.5826803543307086
11
4.7089708661417324
21
-2.5797934251968502
0
LINE
8
BLACK
6
CONTINUOUS
10
4.7089708661417324
20
-2.5797934251968502
11
4.7021761417322834
21
-2.5755862992125982
0
LINE
8
BLACK
6
CONTINUOUS
10
4.7021761417322834
20
-2.5755862992125982
11
4.6962701574803152
21
-2.570202283464567
0
LINE
8
BLACK
6
CONTINUOUS
10
4.6962701574803152
20
-2.570202283464567
11
4.6914540551181103
21
-2.5638247244094488
0
LINE
8
BLACK
6
CONTINUOUS
10
4.6914540551181103
20
-2.5638247244094488
11
4.6878918503937008
21
-2.5566708267716534
0
LINE
8
BLACK
6
CONTINUOUS
10
4.6878918503937008
20
-2.5566708267716534
11
4.6857048031496058
21
-2.5489841338582675
0
LINE
8
BLACK
6
CONTINUOUS
10
4.6857048031496058
20
-2.5489841338582675
11
4.6849674015748031
21
-2.541026496062992
0
LINE
8
BLACK
6
CONTINUOUS
10
4.6849674015748031
20
-2.541026496062992
11
4.6857048031496058
21
-2.5330688582677165
0
LINE
8
BLACK
6
CONTINUOUS
10
4.6857048031496058
20
-2.5330688582677165
11
4.6878918503937008
21
-2.5253821653543307
0
LINE
8
BLACK
6
CONTINUOUS
10
4.6878918503937008
20
-2.5253821653543307
11
4.6914540551181103
21
-2.5182282677165353
0
LINE
8
BLACK
6
CONTINUOUS
10
4.6914540551181103
20
-2.5182282677165353
11
4.6962701574803152
21
-2.5118507086614175
0
LINE
8
BLACK
6
CONTINUOUS
10
4.6962701574803152
20
-2.5118507086614175
11
4.7021761417322834
21
-2.5064666929133859
0
LINE
8
BLACK
6
CONTINUOUS
10
4.7021761417322834
20
-2.5064666929133859
11
4.7089708661417324
21
-2.5022595669291339
0
LINE
8
BLACK
6
CONTINUOUS
10
4.7089708661417324
20
-2.5022595669291339
11
4.7164229527559058
21
-2.4993726377952754
0
LINE
8
BLACK
6
CONTINUOUS
10
4.7164229527559058
20
-2.4993726377952754
11
4.7242786220472439
21
-2.4979041338582677
0
LINE
8
BLACK
6
CONTINUOUS
10
4.7242786220472439
20
-2.4979041338582677
11
4.7322703543307085
21
-2.4979041338582677
0
LINE
8
BLACK
6
CONTINUOUS
10
4.7322703543307085
20
-2.4979041338582677
11
4.7401260236220475
21
-2.4993726377952754
0
LINE
8
BLACK
6
CONTINUOUS
10
7.7399820472440943
20
-2.4984442125984252
11
7.7474341338582677
21
-2.5013311417322832
0
LINE
8
BLACK
6
CONTINUOUS
10
7.7474341338582677
20
-2.5013311417322832
11
7.7542288582677168
21
-2.5055382677165352
0
LINE
8
BLACK
6
CONTINUOUS
10
7.7542288582677168
20
-2.5055382677165352
11
7.760134842519685
21
-2.5109222834645668
0
LINE
8
BLACK
6
CONTINUOUS
10
7.760134842519685
20
-2.5109222834645668
11
7.7649509448818899
21
-2.5172998425196851
0
LINE
8
BLACK
6
CONTINUOUS
10
7.7649509448818899
20
-2.5172998425196851
11
7.7685131496062994
21
-2.5244537401574805
0
LINE
8
BLACK
6
CONTINUOUS
10
7.7685131496062994
20
-2.5244537401574805
11
7.7707001968503935
21
-2.5321404330708659
0
LINE
8
BLACK
6
CONTINUOUS
10
7.7707001968503935
20
-2.5321404330708659
11
7.7714375984251971
21
-2.5400980708661418
0
LINE
8
BLACK
6
CONTINUOUS
10
7.7714375984251971
20
-2.5400980708661418
11
7.7707001968503935
21
-2.5480557086614173
0
LINE
8
BLACK
6
CONTINUOUS
10
7.7707001968503935
20
-2.5480557086614173
11
7.7685131496062994
21
-2.5557424015748031
0
LINE
8
BLACK
6
CONTINUOUS
10
7.7685131496062994
20
-2.5557424015748031
11
7.7649509448818899
21
-2.5628962992125985
0
LINE
8
BLACK
6
CONTINUOUS
10
7.7649509448818899
20
-2.5628962992125985
11
7.760134842519685
21
-2.5692738582677164
0
LINE
8
BLACK
6
CONTINUOUS
10
7.760134842519685
20
-2.5692738582677164
11
7.7542288582677168
21
-2.574657874015748
0
LINE
8
BLACK
6
CONTINUOUS
10
7.7542288582677168
20
-2.574657874015748
11
7.7474341338582677
21
-2.578865
0
LINE
8
BLACK
6
CONTINUOUS
10
7.7474341338582677
20
-2.578865
11
7.7399820472440943
21
-2.5817519291338584
0
LINE
8
BLACK
6
CONTINUOUS
10
7.7399820472440943
20
-2.5817519291338584
11
7.7321263779527554
21
-2.5832204330708661
0
LINE
8
BLACK
6
CONTINUOUS
10
7.7321263779527554
20
-2.5832204330708661
11
7.7241346456692908
21
-2.5832204330708661
0
LINE
8
BLACK
6
CONTINUOUS
10
7.7241346456692908
20
-2.5832204330708661
11
7.7162789763779527
21
-2.5817519291338584
0
LINE
8
BLACK
6
CONTINUOUS
10
7.7162789763779527
20
-2.5817519291338584
11
7.7088268897637793
21
-2.578865
0
LINE
8
BLACK
6
CONTINUOUS
10
7.7088268897637793
20
-2.578865
11
7.7020321653543302
21
-2.574657874015748
0
LINE
8
BLACK
6
CONTINUOUS
10
7.7020321653543302
20
-2.574657874015748
11
7.696126181102362
21
-2.5692738582677164
0
LINE
8
BLACK
6
CONTINUOUS
10
7.696126181102362
20
-2.5692738582677164
11
7.6913100787401572
21
-2.5628962992125985
0
LINE
8
BLACK
6
CONTINUOUS
10
7.6913100787401572
20
-2.5628962992125985
11
7.6877478740157477
21
-2.5557424015748031
0
LINE
8
BLACK
6
CONTINUOUS
10
7.6877478740157477
20
-2.5557424015748031
11
7.6855608267716535
21
-2.5480557086614173
0
LINE
8
BLACK
6
CONTINUOUS
10
7.6855608267716535
20
-2.5480557086614173
11
7.6848234251968499
21
-2.5400980708661418
0
LINE
8
BLACK
6
CONTINUOUS
10
7.6848234251968499
20
-2.5400980708661418
11
7.6855608267716535
21
-2.5321404330708659
0
LINE
8
BLACK
6
CONTINUOUS
10
7.6855608267716535
20
-2.5321404330708659
11
7.6877478740157477
21
-2.5244537401574805
0
LINE
8
BLACK
6
CONTINUOUS
10
7.6877478740157477
20
-2.5244537401574805
11
7.6913100787401572
21
-2.5172998425196851
0
LINE
8
BLACK
6
CONTINUOUS
10
7.6913100787401572
20
-2.5172998425196851
11
7.696126181102362
21
-2.5109222834645668
0
LINE
8
BLACK
6
CONTINUOUS
10
7.696126181102362
20
-2.5109222834645668
11
7.7020321653543302
21
-2.5055382677165352
0
LINE
8
BLACK
6
CONTINUOUS
10
7.7020321653543302
20
-2.5055382677165352
11
7.7088268897637793
21
-2.5013311417322832
0
LINE
8
BLACK
6
CONTINUOUS
10
7.7088268897637793
20
-2.5013311417322832
11
7.7162789763779527
21
-2.4984442125984252
0
LINE
8
BLACK
6
CONTINUOUS
10
7.7162789763779527
20
-2.4984442125984252
11
7.7241346456692908
21
-2.496975708661417
0
LINE
8
BLACK
6
CONTINUOUS
10
7.7241346456692908
20
-2.496975708661417
11
7.7321263779527554
21
-2.496975708661417
0
LINE
8
BLACK
6
CONTINUOUS
10
7.7321263779527554
20
-2.496975708661417
11
7.7399820472440943
21
-2.4984442125984252
0
LINE
8
BLACK
6
CONTINUOUS
10
10.7401979921259834
20
-2.4977162204724408
11
10.7476500787401577
21
-2.5006031496062993
0
LINE
8
BLACK
6
CONTINUOUS
10
10.7476500787401577
20
-2.5006031496062993
11
10.7544448031496067
21
-2.5048102755905512
0
LINE
8
BLACK
6
CONTINUOUS
10
10.7544448031496067
20
-2.5048102755905512
11
10.760350787401574
21
-2.5101942913385824
0
LINE
8
BLACK
6
CONTINUOUS
10
10.760350787401574
20
-2.5101942913385824
11
10.7651668897637798
21
-2.5165718503937007
0
LINE
8
BLACK
6
CONTINUOUS
10
10.7651668897637798
20
-2.5165718503937007
11
10.7687290944881884
21
-2.5237257480314961
0
LINE
8
BLACK
6
CONTINUOUS
10
10.7687290944881884
20
-2.5237257480314961
11
10.7709161417322825
21
-2.5314124409448819
0
LINE
8
BLACK
6
CONTINUOUS
10
10.7709161417322825
20
-2.5314124409448819
11
10.771653543307087
21
-2.5393700787401574
0
LINE
8
BLACK
6
CONTINUOUS
10
10.771653543307087
20
-2.5393700787401574
11
10.7709161417322825
21
-2.5473277165354329
0
LINE
8
BLACK
6
CONTINUOUS
10
10.7709161417322825
20
-2.5473277165354329
11
10.7687290944881884
21
-2.5550144094488187
0
LINE
8
BLACK
6
CONTINUOUS
10
10.7687290944881884
20
-2.5550144094488187
11
10.7651668897637798
21
-2.5621683070866141
0
LINE
8
BLACK
6
CONTINUOUS
10
10.7651668897637798
20
-2.5621683070866141
11
10.760350787401574
21
-2.5685458661417324
0
LINE
8
BLACK
6
CONTINUOUS
10
10.760350787401574
20
-2.5685458661417324
11
10.7544448031496067
21
-2.5739298818897636
0
LINE
8
BLACK
6
CONTINUOUS
10
10.7544448031496067
20
-2.5739298818897636
11
10.7476500787401577
21
-2.5781370078740156
0
LINE
8
BLACK
6
CONTINUOUS
10
10.7476500787401577
20
-2.5781370078740156
11
10.7401979921259834
21
-2.581023937007874
0
LINE
8
BLACK
6
CONTINUOUS
10
10.7401979921259834
20
-2.581023937007874
11
10.7323423228346453
21
-2.5824924409448817
0
LINE
8
BLACK
6
CONTINUOUS
10
10.7323423228346453
20
-2.5824924409448817
11
10.7243505905511807
21
-2.5824924409448817
0
LINE
8
BLACK
6
CONTINUOUS
10
10.7243505905511807
20
-2.5824924409448817
11
10.7164949212598426
21
-2.581023937007874
0
LINE
8
BLACK
6
CONTINUOUS
10
10.7164949212598426
20
-2.581023937007874
11
10.7090428346456683
21
-2.5781370078740156
0
LINE
8
BLACK
6
CONTINUOUS
10
10.7090428346456683
20
-2.5781370078740156
11
10.702248110236221
21
-2.5739298818897636
0
LINE
8
BLACK
6
CONTINUOUS
10
10.702248110236221
20
-2.5739298818897636
11
10.6963421259842519
21
-2.5685458661417324
0
LINE
8
BLACK
6
CONTINUOUS
10
10.6963421259842519
20
-2.5685458661417324
11
10.6915260236220462
21
-2.5621683070866141
0
LINE
8
BLACK
6
CONTINUOUS
10
10.6915260236220462
20
-2.5621683070866141
11
10.6879638188976376
21
-2.5550144094488187
0
LINE
8
BLACK
6
CONTINUOUS
10
10.6879638188976376
20
-2.5550144094488187
11
10.6857767716535434
21
-2.5473277165354329
0
LINE
8
BLACK
6
CONTINUOUS
10
10.6857767716535434
20
-2.5473277165354329
11
10.6850393700787407
21
-2.5393700787401574
0
LINE
8
BLACK
6
CONTINUOUS
10
10.6850393700787407
20
-2.5393700787401574
11
10.6857767716535434
21
-2.5314124409448819
0
LINE
8
BLACK
6
CONTINUOUS
10
10.6857767716535434
20
-2.5314124409448819
11
10.6879638188976376
21
-2.5237257480314961
0
LINE
8
BLACK
6
CONTINUOUS
10
10.6879638188976376
20
-2.5237257480314961
11
10.6915260236220462
21
-2.5165718503937007
0
LINE
8
BLACK
6
CONTINUOUS
10
10.6915260236220462
20
-2.5165718503937007
11
10.6963421259842519
21
-2.5101942913385824
0
LINE
8
BLACK
6
CONTINUOUS
10
10.6963421259842519
20
-2.5101942913385824
11
10.702248110236221
21
-2.5048102755905512
0
LINE
8
BLACK
6
CONTINUOUS
10
10.702248110236221
20
-2.5048102755905512
11
10.7090428346456683
21
-2.5006031496062993
0
LINE
8
BLACK
6
CONTINUOUS
10
10.7090428346456683
20
-2.5006031496062993
11
10.7164949212598426
21
-2.4977162204724408
0
LINE
8
BLACK
6
CONTINUOUS
10
10.7164949212598426
20
-2.4977162204724408
11
10.7243505905511807
21
-2.4962477165354331
0
LINE
8
BLACK
6
CONTINUOUS
10
10.7243505905511807
20
-2.4962477165354331
11
10.7323423228346453
21
-2.4962477165354331
0
LINE
8
BLACK
6
CONTINUOUS
10
10.7323423228346453
20
-2.4962477165354331
11
10.7401979921259834
21
-2.4977162204724408
0
LINE
8
BLACK
6
CONTINUOUS
10
14.3022338582677158
20
-2.496823779527559
11
14.3096859448818901
21
-2.4997107086614174
0
LINE
8
BLACK
6
CONTINUOUS
10
14.3096859448818901
20
-2.4997107086614174
11
14.3164806692913391
21
-2.5039178346456694
0
LINE
8
BLACK
6
CONTINUOUS
10
14.3164806692913391
20
-2.5039178346456694
11
14.3223866535433064
21
-2.5093018503937006
0
LINE
8
BLACK
6
CONTINUOUS
10
14.3223866535433064
20
-2.5093018503937006
11
14.3272027559055122
21
-2.5156794094488188
0
LINE
8
BLACK
6
CONTINUOUS
10
14.3272027559055122
20
-2.5156794094488188
11
14.3307649606299208
21
-2.5228333070866142
0
LINE
8
BLACK
6
CONTINUOUS
10
14.3307649606299208
20
-2.5228333070866142
11
14.3329520078740149
21
-2.5305200000000001
0
LINE
8
BLACK
6
CONTINUOUS
10
14.3329520078740149
20
-2.5305200000000001
11
14.3336894094488194
21
-2.5384776377952756
0
LINE
8
BLACK
6
CONTINUOUS
10
14.3336894094488194
20
-2.5384776377952756
11
14.3329520078740149
21
-2.5464352755905511
0
LINE
8
BLACK
6
CONTINUOUS
10
14.3329520078740149
20
-2.5464352755905511
11
14.3307649606299208
21
-2.5541219685039369
0
LINE
8
BLACK
6
CONTINUOUS
10
14.3307649606299208
20
-2.5541219685039369
11
14.3272027559055122
21
-2.5612758661417323
0
LINE
8
BLACK
6
CONTINUOUS
10
14.3272027559055122
20
-2.5612758661417323
11
14.3223866535433064
21
-2.5676534251968501
0
LINE
8
BLACK
6
CONTINUOUS
10
14.3223866535433064
20
-2.5676534251968501
11
14.3164806692913391
21
-2.5730374409448817
0
LINE
8
BLACK
6
CONTINUOUS
10
14.3164806692913391
20
-2.5730374409448817
11
14.3096859448818901
21
-2.5772445669291337
0
LINE
8
BLACK
6
CONTINUOUS
10
14.3096859448818901
20
-2.5772445669291337
11
14.3022338582677158
21
-2.5801314960629922
0
LINE
8
BLACK
6
CONTINUOUS
10
14.3022338582677158
20
-2.5801314960629922
11
14.2943781889763777
21
-2.5815999999999999
0
LINE
8
BLACK
6
CONTINUOUS
10
14.2943781889763777
20
-2.5815999999999999
11
14.2863864566929131
21
-2.5815999999999999
0
LINE
8
BLACK
6
CONTINUOUS
10
14.2863864566929131
20
-2.5815999999999999
11
14.278530787401575
21
-2.5801314960629922
0
LINE
8
BLACK
6
CONTINUOUS
10
14.278530787401575
20
-2.5801314960629922
11
14.2710787007874007
21
-2.5772445669291337
0
LINE
8
BLACK
6
CONTINUOUS
10
14.2710787007874007
20
-2.5772445669291337
11
14.2642839763779516
21
-2.5730374409448817
0
LINE
8
BLACK
6
CONTINUOUS
10
14.2642839763779516
20
-2.5730374409448817
11
14.2583779921259843
21
-2.5676534251968501
0
LINE
8
BLACK
6
CONTINUOUS
10
14.2583779921259843
20
-2.5676534251968501
11
14.2535618897637786
21
-2.5612758661417323
0
LINE
8
BLACK
6
CONTINUOUS
10
14.2535618897637786
20
-2.5612758661417323
11
14.24999968503937
21
-2.5541219685039369
0
LINE
8
BLACK
6
CONTINUOUS
10
14.24999968503937
20
-2.5541219685039369
11
14.2478126377952758
21
-2.5464352755905511
0
LINE
8
BLACK
6
CONTINUOUS
10
14.2478126377952758
20
-2.5464352755905511
11
14.2470752362204713
21
-2.5384776377952756
0
LINE
8
BLACK
6
CONTINUOUS
10
14.2470752362204713
20
-2.5384776377952756
11
14.2478126377952758
21
-2.5305200000000001
0
LINE
8
BLACK
6
CONTINUOUS
10
14.2478126377952758
20
-2.5305200000000001
11
14.24999968503937
21
-2.5228333070866142
0
LINE
8
BLACK
6
CONTINUOUS
10
14.24999968503937
20
-2.5228333070866142
11
14.2535618897637786
21
-2.5156794094488188
0
LINE
8
BLACK
6
CONTINUOUS
10
14.2535618897637786
20
-2.5156794094488188
11
14.2583779921259843
21
-2.5093018503937006
0
LINE
8
BLACK
6
CONTINUOUS
10
14.2583779921259843
20
-2.5093018503937006
11
14.2642839763779516
21
-2.5039178346456694
0
LINE
8
BLACK
6
CONTINUOUS
10
14.2642839763779516
20
-2.5039178346456694
11
14.2710787007874007
21
-2.4997107086614174
0
LINE
8
BLACK
6
CONTINUOUS
10
14.2710787007874007
20
-2.4997107086614174
11
14.278530787401575
21
-2.496823779527559
0
LINE
8
BLACK
6
CONTINUOUS
10
14.278530787401575
20
-2.496823779527559
11
14.2863864566929131
21
-2.4953552755905513
0
LINE
8
BLACK
6
CONTINUOUS
10
14.2863864566929131
20
-2.4953552755905513
11
14.2943781889763777
21
-2.4953552755905513
0
LINE
8
BLACK
6
CONTINUOUS
10
14.2943781889763777
20
-2.4953552755905513
11
14.3022338582677158
21
-2.496823779527559
0
LINE
8
BLACK
6
CONTINUOUS
10
12.6654668110236219
20
-1.7467399212598425
11
12.6729188976377944
21
-1.7496268503937007
0
LINE
8
BLACK
6
CONTINUOUS
10
12.6729188976377944
20
-1.7496268503937007
11
12.6797136220472435
21
-1.7538339763779527
0
LINE
8
BLACK
6
CONTINUOUS
10
12.6797136220472435
20
-1.7538339763779527
11
12.6856196062992126
21
-1.7592179921259843
0
LINE
8
BLACK
6
CONTINUOUS
10
12.6856196062992126
20
-1.7592179921259843
11
12.6904357086614166
21
-1.7655955511811023
0
LINE
8
BLACK
6
CONTINUOUS
10
12.6904357086614166
20
-1.7655955511811023
11
12.6939979133858269
21
-1.7727494488188975
0
LINE
8
BLACK
6
CONTINUOUS
10
12.6939979133858269
20
-1.7727494488188975
11
12.6961849606299211
21
-1.7804361417322834
0
LINE
8
BLACK
6
CONTINUOUS
10
12.6961849606299211
20
-1.7804361417322834
11
12.6969223622047238
21
-1.7883937795275591
0
LINE
8
BLACK
6
CONTINUOUS
10
12.6969223622047238
20
-1.7883937795275591
11
12.6961849606299211
21
-1.7963514173228345
0
LINE
8
BLACK
6
CONTINUOUS
10
12.6961849606299211
20
-1.7963514173228345
11
12.6939979133858269
21
-1.8040381102362204
0
LINE
8
BLACK
6
CONTINUOUS
10
12.6939979133858269
20
-1.8040381102362204
11
12.6904357086614166
21
-1.8111920078740158
0
LINE
8
BLACK
6
CONTINUOUS
10
12.6904357086614166
20
-1.8111920078740158
11
12.6856196062992126
21
-1.8175695669291339
0
LINE
8
BLACK
6
CONTINUOUS
10
12.6856196062992126
20
-1.8175695669291339
11
12.6797136220472435
21
-1.8229535826771652
0
LINE
8
BLACK
6
CONTINUOUS
10
12.6797136220472435
20
-1.8229535826771652
11
12.6729188976377944
21
-1.8271607086614172
0
LINE
8
BLACK
6
CONTINUOUS
10
12.6729188976377944
20
-1.8271607086614172
11
12.6654668110236219
21
-1.8300476377952755
0
LINE
8
BLACK
6
CONTINUOUS
10
12.6654668110236219
20
-1.8300476377952755
11
12.6576111417322839
21
-1.8315161417322834
0
LINE
8
BLACK
6
CONTINUOUS
10
12.6576111417322839
20
-1.8315161417322834
11
12.6496194094488192
21
-1.8315161417322834
0
LINE
8
BLACK
6
CONTINUOUS
10
12.6496194094488192
20
-1.8315161417322834
11
12.6417637401574794
21
-1.8300476377952755
0
LINE
8
BLACK
6
CONTINUOUS
10
12.6417637401574794
20
-1.8300476377952755
11
12.6343116535433069
21
-1.8271607086614172
0
LINE
8
BLACK
6
CONTINUOUS
10
12.6343116535433069
20
-1.8271607086614172
11
12.6275169291338578
21
-1.8229535826771652
0
LINE
8
BLACK
6
CONTINUOUS
10
12.6275169291338578
20
-1.8229535826771652
11
12.6216109448818887
21
-1.8175695669291339
0
LINE
8
BLACK
6
CONTINUOUS
10
12.6216109448818887
20
-1.8175695669291339
11
12.6167948425196847
21
-1.8111920078740158
0
LINE
8
BLACK
6
CONTINUOUS
10
12.6167948425196847
20
-1.8111920078740158
11
12.6132326377952761
21
-1.8040381102362204
0
LINE
8
BLACK
6
CONTINUOUS
10
12.6132326377952761
20
-1.8040381102362204
11
12.6110455905511802
21
-1.7963514173228345
0
LINE
8
BLACK
6
CONTINUOUS
10
12.6110455905511802
20
-1.7963514173228345
11
12.6103081889763775
21
-1.7883937795275591
0
LINE
8
BLACK
6
CONTINUOUS
10
12.6103081889763775
20
-1.7883937795275591
11
12.6110455905511802
21
-1.7804361417322834
0
LINE
8
BLACK
6
CONTINUOUS
10
12.6110455905511802
20
-1.7804361417322834
11
12.6132326377952761
21
-1.7727494488188975
0
LINE
8
BLACK
6
CONTINUOUS
10
12.6132326377952761
20
-1.7727494488188975
11
12.6167948425196847
21
-1.7655955511811023
0
LINE
8
BLACK
6
CONTINUOUS
10
12.6167948425196847
20
-1.7655955511811023
11
12.6216109448818887
21
-1.7592179921259843
0
LINE
8
BLACK
6
CONTINUOUS
10
12.6216109448818887
20
-1.7592179921259843
11
12.6275169291338578
21
-1.7538339763779527
0
LINE
8
BLACK
6
CONTINUOUS
10
12.6275169291338578
20
-1.7538339763779527
11
12.6343116535433069
21
-1.7496268503937007
0
LINE
8
BLACK
6
CONTINUOUS
10
12.6343116535433069
20
-1.7496268503937007
11
12.6417637401574794
21
-1.7467399212598425
0
LINE
8
BLACK
6
CONTINUOUS
10
12.6417637401574794
20
-1.7467399212598425
11
12.6496194094488192
21
-1.7452714173228345
0
LINE
8
BLACK
6
CONTINUOUS
10
12.6496194094488192
20
-1.7452714173228345
11
12.6576111417322839
21
-1.7452714173228345
0
LINE
8
BLACK
6
CONTINUOUS
10
12.6576111417322839
20
-1.7452714173228345
11
12.6654668110236219
21
-1.7467399212598425
0
LINE
8
BLACK
6
CONTINUOUS
10
1.3614689763779528
20
-1.0371582677165354
11
1.368921062992126
21
-1.0400451968503936
0
LINE
8
BLACK
6
CONTINUOUS
10
1.368921062992126
20
-1.0400451968503936
11
1.3757157874015749
21
-1.0442523228346456
0
LINE
8
BLACK
6
CONTINUOUS
10
1.3757157874015749
20
-1.0442523228346456
11
1.3816217716535433
21
-1.0496363385826772
0
LINE
8
BLACK
6
CONTINUOUS
10
1.3816217716535433
20
-1.0496363385826772
11
1.3864378740157479
21
-1.0560138976377953
0
LINE
8
BLACK
6
CONTINUOUS
10
1.3864378740157479
20
-1.0560138976377953
11
1.3900000787401574
21
-1.0631677952755905
0
LINE
8
BLACK
6
CONTINUOUS
10
1.3900000787401574
20
-1.0631677952755905
11
1.392187125984252
21
-1.0708544881889763
0
LINE
8
BLACK
6
CONTINUOUS
10
1.392187125984252
20
-1.0708544881889763
11
1.3929245275590552
21
-1.078812125984252
0
LINE
8
BLACK
6
CONTINUOUS
10
1.3929245275590552
20
-1.078812125984252
11
1.392187125984252
21
-1.0867697637795275
0
LINE
8
BLACK
6
CONTINUOUS
10
1.392187125984252
20
-1.0867697637795275
11
1.3900000787401574
21
-1.0944564566929134
0
LINE
8
BLACK
6
CONTINUOUS
10
1.3900000787401574
20
-1.0944564566929134
11
1.3864378740157479
21
-1.1016103543307085
0
LINE
8
BLACK
6
CONTINUOUS
10
1.3864378740157479
20
-1.1016103543307085
11
1.3816217716535433
21
-1.1079879133858268
0
LINE
8
BLACK
6
CONTINUOUS
10
1.3816217716535433
20
-1.1079879133858268
11
1.3757157874015749
21
-1.1133719291338582
0
LINE
8
BLACK
6
CONTINUOUS
10
1.3757157874015749
20
-1.1133719291338582
11
1.368921062992126
21
-1.1175790551181102
0
LINE
8
BLACK
6
CONTINUOUS
10
1.368921062992126
20
-1.1175790551181102
11
1.3614689763779528
21
-1.1204659842519684
0
LINE
8
BLACK
6
CONTINUOUS
10
1.3614689763779528
20
-1.1204659842519684
11
1.3536133070866141
21
-1.1219344881889763
0
LINE
8
BLACK
6
CONTINUOUS
10
1.3536133070866141
20
-1.1219344881889763
11
1.3456215748031495
21
-1.1219344881889763
0
LINE
8
BLACK
6
CONTINUOUS
10
1.3456215748031495
20
-1.1219344881889763
11
1.337765905511811
21
-1.1204659842519684
0
LINE
8
BLACK
6
CONTINUOUS
10
1.337765905511811
20
-1.1204659842519684
11
1.3303138188976378
21
-1.1175790551181102
0
LINE
8
BLACK
6
CONTINUOUS
10
1.3303138188976378
20
-1.1175790551181102
11
1.3235190944881889
21
-1.1133719291338582
0
LINE
8
BLACK
6
CONTINUOUS
10
1.3235190944881889
20
-1.1133719291338582
11
1.3176131102362205
21
-1.1079879133858268
0
LINE
8
BLACK
6
CONTINUOUS
10
1.3176131102362205
20
-1.1079879133858268
11
1.3127970078740157
21
-1.1016103543307085
0
LINE
8
BLACK
6
CONTINUOUS
10
1.3127970078740157
20
-1.1016103543307085
11
1.3092348031496062
21
-1.0944564566929134
0
LINE
8
BLACK
6
CONTINUOUS
10
1.3092348031496062
20
-1.0944564566929134
11
1.3070477559055118
21
-1.0867697637795275
0
LINE
8
BLACK
6
CONTINUOUS
10
1.3070477559055118
20
-1.0867697637795275
11
1.3063103543307086
21
-1.078812125984252
0
LINE
8
BLACK
6
CONTINUOUS
10
1.3063103543307086
20
-1.078812125984252
11
1.3070477559055118
21
-1.0708544881889763
0
LINE
8
BLACK
6
CONTINUOUS
10
1.3070477559055118
20
-1.0708544881889763
11
1.3092348031496062
21
-1.0631677952755905
0
LINE
8
BLACK
6
CONTINUOUS
10
1.3092348031496062
20
-1.0631677952755905
11
1.3127970078740157
21
-1.0560138976377953
0
LINE
8
BLACK
6
CONTINUOUS
10
1.3127970078740157
20
-1.0560138976377953
11
1.3176131102362205
21
-1.0496363385826772
0
LINE
8
BLACK
6
CONTINUOUS
10
1.3176131102362205
20
-1.0496363385826772
11
1.3235190944881889
21
-1.0442523228346456
0
LINE
8
BLACK
6
CONTINUOUS
10
1.3235190944881889
20
-1.0442523228346456
11
1.3303138188976378
21
-1.0400451968503936
0
LINE
8
BLACK
6
CONTINUOUS
10
1.3303138188976378
20
-1.0400451968503936
11
1.337765905511811
21
-1.0371582677165354
0
LINE
8
BLACK
6
CONTINUOUS
10
1.337765905511811
20
-1.0371582677165354
11
1.3456215748031495
21
-1.0356897637795275
0
LINE
8
BLACK
6
CONTINUOUS
10
1.3456215748031495
20
-1.0356897637795275
11
1.3536133070866141
21
-1.0356897637795275
0
LINE
8
BLACK
6
CONTINUOUS
10
1.3536133070866141
20
-1.0356897637795275
11
1.3614689763779528
21
-1.0371582677165354
0
LINE
8
BLACK
6
CONTINUOUS
10
14.3028220078740151
20
-1.0367901574803149
11
14.3102740944881894
21
-1.0396770866141731
0
LINE
8
BLACK
6
CONTINUOUS
10
14.3102740944881894
20
-1.0396770866141731
11
14.3170688188976367
21
-1.0438842125984251
0
LINE
8
BLACK
6
CONTINUOUS
10
14.3170688188976367
20
-1.0438842125984251
11
14.3229748031496058
21
-1.0492682283464567
0
LINE
8
BLACK
6
CONTINUOUS
10
14.3229748031496058
20
-1.0492682283464567
11
14.3277909055118116
21
-1.0556457874015748
0
LINE
8
BLACK
6
CONTINUOUS
10
14.3277909055118116
20
-1.0556457874015748
11
14.3313531102362202
21
-1.0627996850393699
0
LINE
8
BLACK
6
CONTINUOUS
10
14.3313531102362202
20
-1.0627996850393699
11
14.3335401574803143
21
-1.0704863779527558
0
LINE
8
BLACK
6
CONTINUOUS
10
14.3335401574803143
20
-1.0704863779527558
11
14.334277559055117
21
-1.0784440157480315
0
LINE
8
BLACK
6
CONTINUOUS
10
14.334277559055117
20
-1.0784440157480315
11
14.3335401574803143
21
-1.086401653543307
0
LINE
8
BLACK
6
CONTINUOUS
10
14.3335401574803143
20
-1.086401653543307
11
14.3313531102362202
21
-1.0940883464566928
0
LINE
8
BLACK
6
CONTINUOUS
10
14.3313531102362202
20
-1.0940883464566928
11
14.3277909055118116
21
-1.1012422440944882
0
LINE
8
BLACK
6
CONTINUOUS
10
14.3277909055118116
20
-1.1012422440944882
11
14.3229748031496058
21
-1.1076198031496063
0
LINE
8
BLACK
6
CONTINUOUS
10
14.3229748031496058
20
-1.1076198031496063
11
14.3170688188976367
21
-1.1130038188976377
0
LINE
8
BLACK
6
CONTINUOUS
10
14.3170688188976367
20
-1.1130038188976377
11
14.3102740944881894
21
-1.1172109448818897
0
LINE
8
BLACK
6
CONTINUOUS
10
14.3102740944881894
20
-1.1172109448818897
11
14.3028220078740151
21
-1.1200978740157479
0
LINE
8
BLACK
6
CONTINUOUS
10
14.3028220078740151
20
-1.1200978740157479
11
14.2949663385826771
21
-1.1215663779527558
0
LINE
8
BLACK
6
CONTINUOUS
10
14.2949663385826771
20
-1.1215663779527558
11
14.2869746062992125
21
-1.1215663779527558
0
LINE
8
BLACK
6
CONTINUOUS
10
14.2869746062992125
20
-1.1215663779527558
11
14.2791189370078744
21
-1.1200978740157479
0
LINE
8
BLACK
6
CONTINUOUS
10
14.2791189370078744
20
-1.1200978740157479
11
14.2716668503937001
21
-1.1172109448818897
0
LINE
8
BLACK
6
CONTINUOUS
10
14.2716668503937001
20
-1.1172109448818897
11
14.264872125984251
21
-1.1130038188976377
0
LINE
8
BLACK
6
CONTINUOUS
10
14.264872125984251
20
-1.1130038188976377
11
14.2589661417322837
21
-1.1076198031496063
0
LINE
8
BLACK
6
CONTINUOUS
10
14.2589661417322837
20
-1.1076198031496063
11
14.254150039370078
21
-1.1012422440944882
0
LINE
8
BLACK
6
CONTINUOUS
10
14.254150039370078
20
-1.1012422440944882
11
14.2505878346456694
21
-1.0940883464566928
0
LINE
8
BLACK
6
CONTINUOUS
10
14.2505878346456694
20
-1.0940883464566928
11
14.2484007874015752
21
-1.086401653543307
0
LINE
8
BLACK
6
CONTINUOUS
10
14.2484007874015752
20
-1.086401653543307
11
14.2476633858267707
21
-1.0784440157480315
0
LINE
8
BLACK
6
CONTINUOUS
10
14.2476633858267707
20
-1.0784440157480315
11
14.2484007874015752
21
-1.0704863779527558
0
LINE
8
BLACK
6
CONTINUOUS
10
14.2484007874015752
20
-1.0704863779527558
11
14.2505878346456694
21
-1.0627996850393699
0
LINE
8
BLACK
6
CONTINUOUS
10
14.2505878346456694
20
-1.0627996850393699
11
14.254150039370078
21
-1.0556457874015748
0
LINE
8
BLACK
6
CONTINUOUS
10
14.254150039370078
20
-1.0556457874015748
11
14.2589661417322837
21
-1.0492682283464567
0
LINE
8
BLACK
6
CONTINUOUS
10
14.2589661417322837
20
-1.0492682283464567
11
14.264872125984251
21
-1.0438842125984251
0
LINE
8
BLACK
6
CONTINUOUS
10
14.264872125984251
20
-1.0438842125984251
11
14.2716668503937001
21
-1.0396770866141731
0
LINE
8
BLACK
6
CONTINUOUS
10
14.2716668503937001
20
-1.0396770866141731
11
14.2791189370078744
21
-1.0367901574803149
0
LINE
8
BLACK
6
CONTINUOUS
10
14.2791189370078744
20
-1.0367901574803149
11
14.2869746062992125
21
-1.035321653543307
0
LINE
8
BLACK
6
CONTINUOUS
10
14.2869746062992125
20
-1.035321653543307
11
14.2949663385826771
21
-1.035321653543307
0
LINE
8
BLACK
6
CONTINUOUS
10
14.2949663385826771
20
-1.035321653543307
11
14.3028220078740151
21
-1.0367901574803149
0
LINE
8
BLACK
6
CONTINUOUS
10
5.1150998818897637
20
-1.0367605118110237
11
5.1225519685039371
21
-1.0396474409448819
0
LINE
8
BLACK
6
CONTINUOUS
10
5.1225519685039371
20
-1.0396474409448819
11
5.1293466929133853
21
-1.0438545669291339
0
LINE
8
BLACK
6
CONTINUOUS
10
5.1293466929133853
20
-1.0438545669291339
11
5.1352526771653544
21
-1.0492385826771653
0
LINE
8
BLACK
6
CONTINUOUS
10
5.1352526771653544
20
-1.0492385826771653
11
5.1400687795275593
21
-1.0556161417322834
0
LINE
8
BLACK
6
CONTINUOUS
10
5.1400687795275593
20
-1.0556161417322834
11
5.1436309842519687
21
-1.0627700393700787
0
LINE
8
BLACK
6
CONTINUOUS
10
5.1436309842519687
20
-1.0627700393700787
11
5.1458180314960629
21
-1.0704567322834646
0
LINE
8
BLACK
6
CONTINUOUS
10
5.1458180314960629
20
-1.0704567322834646
11
5.1465554330708656
21
-1.0784143700787401
0
LINE
8
BLACK
6
CONTINUOUS
10
5.1465554330708656
20
-1.0784143700787401
11
5.1458180314960629
21
-1.0863720078740158
0
LINE
8
BLACK
6
CONTINUOUS
10
5.1458180314960629
20
-1.0863720078740158
11
5.1436309842519687
21
-1.0940587007874016
0
LINE
8
BLACK
6
CONTINUOUS
10
5.1436309842519687
20
-1.0940587007874016
11
5.1400687795275593
21
-1.1012125984251968
0
LINE
8
BLACK
6
CONTINUOUS
10
5.1400687795275593
20
-1.1012125984251968
11
5.1352526771653544
21
-1.1075901574803149
0
LINE
8
BLACK
6
CONTINUOUS
10
5.1352526771653544
20
-1.1075901574803149
11
5.1293466929133853
21
-1.1129741732283465
0
LINE
8
BLACK
6
CONTINUOUS
10
5.1293466929133853
20
-1.1129741732283465
11
5.1225519685039371
21
-1.1171812992125985
0
LINE
8
BLACK
6
CONTINUOUS
10
5.1225519685039371
20
-1.1171812992125985
11
5.1150998818897637
21
-1.1200682283464567
0
LINE
8
BLACK
6
CONTINUOUS
10
5.1150998818897637
20
-1.1200682283464567
11
5.1072442125984248
21
-1.1215367322834646
0
LINE
8
BLACK
6
CONTINUOUS
10
5.1072442125984248
20
-1.1215367322834646
11
5.0992524803149601
21
-1.1215367322834646
0
LINE
8
BLACK
6
CONTINUOUS
10
5.0992524803149601
20
-1.1215367322834646
11
5.0913968110236221
21
-1.1200682283464567
0
LINE
8
BLACK
6
CONTINUOUS
10
5.0913968110236221
20
-1.1200682283464567
11
5.0839447244094487
21
-1.1171812992125985
0
LINE
8
BLACK
6
CONTINUOUS
10
5.0839447244094487
20
-1.1171812992125985
11
5.0771499999999996
21
-1.1129741732283465
0
LINE
8
BLACK
6
CONTINUOUS
10
5.0771499999999996
20
-1.1129741732283465
11
5.0712440157480314
21
-1.1075901574803149
0
LINE
8
BLACK
6
CONTINUOUS
10
5.0712440157480314
20
-1.1075901574803149
11
5.0664279133858265
21
-1.1012125984251968
0
LINE
8
BLACK
6
CONTINUOUS
10
5.0664279133858265
20
-1.1012125984251968
11
5.0628657086614171
21
-1.0940587007874016
0
LINE
8
BLACK
6
CONTINUOUS
10
5.0628657086614171
20
-1.0940587007874016
11
5.0606786614173229
21
-1.0863720078740158
0
LINE
8
BLACK
6
CONTINUOUS
10
5.0606786614173229
20
-1.0863720078740158
11
5.0599412598425193
21
-1.0784143700787401
0
LINE
8
BLACK
6
CONTINUOUS
10
5.0599412598425193
20
-1.0784143700787401
11
5.0606786614173229
21
-1.0704567322834646
0
LINE
8
BLACK
6
CONTINUOUS
10
5.0606786614173229
20
-1.0704567322834646
11
5.0628657086614171
21
-1.0627700393700787
0
LINE
8
BLACK
6
CONTINUOUS
10
5.0628657086614171
20
-1.0627700393700787
11
5.0664279133858265
21
-1.0556161417322834
0
LINE
8
BLACK
6
CONTINUOUS
10
5.0664279133858265
20
-1.0556161417322834
11
5.0712440157480314
21
-1.0492385826771653
0
LINE
8
BLACK
6
CONTINUOUS
10
5.0712440157480314
20
-1.0492385826771653
11
5.0771499999999996
21
-1.0438545669291339
0
LINE
8
BLACK
6
CONTINUOUS
10
5.0771499999999996
20
-1.0438545669291339
11
5.0839447244094487
21
-1.0396474409448819
0
LINE
8
BLACK
6
CONTINUOUS
10
5.0839447244094487
20
-1.0396474409448819
11
5.0913968110236221
21
-1.0367605118110237
0
LINE
8
BLACK
6
CONTINUOUS
10
5.0913968110236221
20
-1.0367605118110237
11
5.0992524803149601
21
-1.0352920078740158
0
LINE
8
BLACK
6
CONTINUOUS
10
5.0992524803149601
20
-1.0352920078740158
11
5.1072442125984248
21
-1.0352920078740158
0
LINE
8
BLACK
6
CONTINUOUS
10
5.1072442125984248
20
-1.0352920078740158
11
5.1150998818897637
21
-1.0367605118110237
0
LINE
8
BLACK
6
CONTINUOUS
10
8.1150087795275585
20
-1.0367605118110237
11
8.1224608661417328
21
-1.0396474409448819
0
LINE
8
BLACK
6
CONTINUOUS
10
8.1224608661417328
20
-1.0396474409448819
11
8.1292555905511801
21
-1.0438545669291339
0
LINE
8
BLACK
6
CONTINUOUS
10
8.1292555905511801
20
-1.0438545669291339
11
8.1351615748031492
21
-1.0492385826771653
0
LINE
8
BLACK
6
CONTINUOUS
10
8.1351615748031492
20
-1.0492385826771653
11
8.1399776771653549
21
-1.0556161417322834
0
LINE
8
BLACK
6
CONTINUOUS
10
8.1399776771653549
20
-1.0556161417322834
11
8.1435398818897635
21
-1.0627700393700787
0
LINE
8
BLACK
6
CONTINUOUS
10
8.1435398818897635
20
-1.0627700393700787
11
8.1457269291338577
21
-1.0704567322834646
0
LINE
8
BLACK
6
CONTINUOUS
10
8.1457269291338577
20
-1.0704567322834646
11
8.1464643307086604
21
-1.0784143700787401
0
LINE
8
BLACK
6
CONTINUOUS
10
8.1464643307086604
20
-1.0784143700787401
11
8.1457269291338577
21
-1.0863720078740158
0
LINE
8
BLACK
6
CONTINUOUS
10
8.1457269291338577
20
-1.0863720078740158
11
8.1435398818897635
21
-1.0940587007874016
0
LINE
8
BLACK
6
CONTINUOUS
10
8.1435398818897635
20
-1.0940587007874016
11
8.1399776771653549
21
-1.1012125984251968
0
LINE
8
BLACK
6
CONTINUOUS
10
8.1399776771653549
20
-1.1012125984251968
11
8.1351615748031492
21
-1.1075901574803149
0
LINE
8
BLACK
6
CONTINUOUS
10
8.1351615748031492
20
-1.1075901574803149
11
8.1292555905511801
21
-1.1129741732283465
0
LINE
8
BLACK
6
CONTINUOUS
10
8.1292555905511801
20
-1.1129741732283465
11
8.1224608661417328
21
-1.1171812992125985
0
LINE
8
BLACK
6
CONTINUOUS
10
8.1224608661417328
20
-1.1171812992125985
11
8.1150087795275585
21
-1.1200682283464567
0
LINE
8
BLACK
6
CONTINUOUS
10
8.1150087795275585
20
-1.1200682283464567
11
8.1071531102362204
21
-1.1215367322834646
0
LINE
8
BLACK
6
CONTINUOUS
10
8.1071531102362204
20
-1.1215367322834646
11
8.0991613779527558
21
-1.1215367322834646
0
LINE
8
BLACK
6
CONTINUOUS
10
8.0991613779527558
20
-1.1215367322834646
11
8.0913057086614177
21
-1.1200682283464567
0
LINE
8
BLACK
6
CONTINUOUS
10
8.0913057086614177
20
-1.1200682283464567
11
8.0838536220472434
21
-1.1171812992125985
0
LINE
8
BLACK
6
CONTINUOUS
10
8.0838536220472434
20
-1.1171812992125985
11
8.0770588976377944
21
-1.1129741732283465
0
LINE
8
BLACK
6
CONTINUOUS
10
8.0770588976377944
20
-1.1129741732283465
11
8.0711529133858271
21
-1.1075901574803149
0
LINE
8
BLACK
6
CONTINUOUS
10
8.0711529133858271
20
-1.1075901574803149
11
8.0663368110236213
21
-1.1012125984251968
0
LINE
8
BLACK
6
CONTINUOUS
10
8.0663368110236213
20
-1.1012125984251968
11
8.0627746062992127
21
-1.0940587007874016
0
LINE
8
BLACK
6
CONTINUOUS
10
8.0627746062992127
20
-1.0940587007874016
11
8.0605875590551186
21
-1.0863720078740158
0
LINE
8
BLACK
6
CONTINUOUS
10
8.0605875590551186
20
-1.0863720078740158
11
8.0598501574803141
21
-1.0784143700787401
0
LINE
8
BLACK
6
CONTINUOUS
10
8.0598501574803141
20
-1.0784143700787401
11
8.0605875590551186
21
-1.0704567322834646
0
LINE
8
BLACK
6
CONTINUOUS
10
8.0605875590551186
20
-1.0704567322834646
11
8.0627746062992127
21
-1.0627700393700787
0
LINE
8
BLACK
6
CONTINUOUS
10
8.0627746062992127
20
-1.0627700393700787
11
8.0663368110236213
21
-1.0556161417322834
0
LINE
8
BLACK
6
CONTINUOUS
10
8.0663368110236213
20
-1.0556161417322834
11
8.0711529133858271
21
-1.0492385826771653
0
LINE
8
BLACK
6
CONTINUOUS
10
8.0711529133858271
20
-1.0492385826771653
11
8.0770588976377944
21
-1.0438545669291339
0
LINE
8
BLACK
6
CONTINUOUS
10
8.0770588976377944
20
-1.0438545669291339
11
8.0838536220472434
21
-1.0396474409448819
0
LINE
8
BLACK
6
CONTINUOUS
10
8.0838536220472434
20
-1.0396474409448819
11
8.0913057086614177
21
-1.0367605118110237
0
LINE
8
BLACK
6
CONTINUOUS
10
8.0913057086614177
20
-1.0367605118110237
11
8.0991613779527558
21
-1.0352920078740158
0
LINE
8
BLACK
6
CONTINUOUS
10
8.0991613779527558
20
-1.0352920078740158
11
8.1071531102362204
21
-1.0352920078740158
0
LINE
8
BLACK
6
CONTINUOUS
10
8.1071531102362204
20
-1.0352920078740158
11
8.1150087795275585
21
-1.0367605118110237
0
LINE
8
BLACK
6
CONTINUOUS
10
11.1148183070866136
20
-1.0367605118110237
11
11.1222703937007878
21
-1.0396474409448819
0
LINE
8
BLACK
6
CONTINUOUS
10
11.1222703937007878
20
-1.0396474409448819
11
11.1290651181102351
21
-1.0438545669291339
0
LINE
8
BLACK
6
CONTINUOUS
10
11.1290651181102351
20
-1.0438545669291339
11
11.1349711023622042
21
-1.0492385826771653
0
LINE
8
BLACK
6
CONTINUOUS
10
11.1349711023622042
20
-1.0492385826771653
11
11.13978720472441
21
-1.0556161417322834
0
LINE
8
BLACK
6
CONTINUOUS
10
11.13978720472441
20
-1.0556161417322834
11
11.1433494094488186
21
-1.0627700393700787
0
LINE
8
BLACK
6
CONTINUOUS
10
11.1433494094488186
20
-1.0627700393700787
11
11.1455364566929127
21
-1.0704567322834646
0
LINE
8
BLACK
6
CONTINUOUS
10
11.1455364566929127
20
-1.0704567322834646
11
11.1462738582677154
21
-1.0784143700787401
0
LINE
8
BLACK
6
CONTINUOUS
10
11.1462738582677154
20
-1.0784143700787401
11
11.1455364566929127
21
-1.0863720078740158
0
LINE
8
BLACK
6
CONTINUOUS
10
11.1455364566929127
20
-1.0863720078740158
11
11.1433494094488186
21
-1.0940587007874016
0
LINE
8
BLACK
6
CONTINUOUS
10
11.1433494094488186
20
-1.0940587007874016
11
11.13978720472441
21
-1.1012125984251968
0
LINE
8
BLACK
6
CONTINUOUS
10
11.13978720472441
20
-1.1012125984251968
11
11.1349711023622042
21
-1.1075901574803149
0
LINE
8
BLACK
6
CONTINUOUS
10
11.1349711023622042
20
-1.1075901574803149
11
11.1290651181102351
21
-1.1129741732283465
0
LINE
8
BLACK
6
CONTINUOUS
10
11.1290651181102351
20
-1.1129741732283465
11
11.1222703937007878
21
-1.1171812992125985
0
LINE
8
BLACK
6
CONTINUOUS
10
11.1222703937007878
20
-1.1171812992125985
11
11.1148183070866136
21
-1.1200682283464567
0
LINE
8
BLACK
6
CONTINUOUS
10
11.1148183070866136
20
-1.1200682283464567
11
11.1069626377952755
21
-1.1215367322834646
0
LINE
8
BLACK
6
CONTINUOUS
10
11.1069626377952755
20
-1.1215367322834646
11
11.0989709055118109
21
-1.1215367322834646
0
LINE
8
BLACK
6
CONTINUOUS
10
11.0989709055118109
20
-1.1215367322834646
11
11.0911152362204728
21
-1.1200682283464567
0
LINE
8
BLACK
6
CONTINUOUS
10
11.0911152362204728
20
-1.1200682283464567
11
11.0836631496062985
21
-1.1171812992125985
0
LINE
8
BLACK
6
CONTINUOUS
10
11.0836631496062985
20
-1.1171812992125985
11
11.0768684251968494
21
-1.1129741732283465
0
LINE
8
BLACK
6
CONTINUOUS
10
11.0768684251968494
20
-1.1129741732283465
11
11.0709624409448821
21
-1.1075901574803149
0
LINE
8
BLACK
6
CONTINUOUS
10
11.0709624409448821
20
-1.1075901574803149
11
11.0661463385826764
21
-1.1012125984251968
0
LINE
8
BLACK
6
CONTINUOUS
10
11.0661463385826764
20
-1.1012125984251968
11
11.0625841338582678
21
-1.0940587007874016
0
LINE
8
BLACK
6
CONTINUOUS
10
11.0625841338582678
20
-1.0940587007874016
11
11.0603970866141736
21
-1.0863720078740158
0
LINE
8
BLACK
6
CONTINUOUS
10
11.0603970866141736
20
-1.0863720078740158
11
11.0596596850393691
21
-1.0784143700787401
0
LINE
8
BLACK
6
CONTINUOUS
10
11.0596596850393691
20
-1.0784143700787401
11
11.0603970866141736
21
-1.0704567322834646
0
LINE
8
BLACK
6
CONTINUOUS
10
11.0603970866141736
20
-1.0704567322834646
11
11.0625841338582678
21
-1.0627700393700787
0
LINE
8
BLACK
6
CONTINUOUS
10
11.0625841338582678
20
-1.0627700393700787
11
11.0661463385826764
21
-1.0556161417322834
0
LINE
8
BLACK
6
CONTINUOUS
10
11.0661463385826764
20
-1.0556161417322834
11
11.0709624409448821
21
-1.0492385826771653
0
LINE
8
BLACK
6
CONTINUOUS
10
11.0709624409448821
20
-1.0492385826771653
11
11.0768684251968494
21
-1.0438545669291339
0
LINE
8
BLACK
6
CONTINUOUS
10
11.0768684251968494
20
-1.0438545669291339
11
11.0836631496062985
21
-1.0396474409448819
0
LINE
8
BLACK
6
CONTINUOUS
10
11.0836631496062985
20
-1.0396474409448819
11
11.0911152362204728
21
-1.0367605118110237
0
LINE
8
BLACK
6
CONTINUOUS
10
11.0911152362204728
20
-1.0367605118110237
11
11.0989709055118109
21
-1.0352920078740158
0
LINE
8
BLACK
6
CONTINUOUS
10
11.0989709055118109
20
-1.0352920078740158
11
11.1069626377952755
21
-1.0352920078740158
0
LINE
8
BLACK
6
CONTINUOUS
10
11.1069626377952755
20
-1.0352920078740158
11
11.1148183070866136
21
-1.0367605118110237
  0
ENDSEC
  0
EOF
