G04 #@! TF.GenerationSoftware,KiCad,Pcbnew,8.0.7*
G04 #@! TF.CreationDate,2025-01-06T19:23:07+11:00*
G04 #@! TF.ProjectId,topv2,746f7076-322e-46b6-9963-61645f706362,rev?*
G04 #@! TF.SameCoordinates,Original*
G04 #@! TF.FileFunction,Profile,NP*
%FSLAX46Y46*%
G04 Gerber Fmt 4.6, Leading zero omitted, Abs format (unit mm)*
G04 Created by KiCad (PCBNEW 8.0.7) date 2025-01-06 19:23:07*
%MOMM*%
%LPD*%
G01*
G04 APERTURE LIST*
G04 #@! TA.AperFunction,Profile*
%ADD10C,0.200000*%
G04 #@! TD*
G04 APERTURE END LIST*
D10*
X34350700Y-126023955D02*
X363057000Y-126023955D01*
X34350700Y-126023955D02*
G75*
G02*
X31900725Y-123585022I0J2450000D01*
G01*
X31900725Y-28230855D02*
X31900725Y-123585022D01*
X31900725Y-28230855D02*
G75*
G02*
X34340801Y-25780900I2449975J0D01*
G01*
X363057000Y-25780900D02*
X34340801Y-25780900D01*
X363057000Y-25780900D02*
G75*
G02*
X365506995Y-28230900I0J-2449995D01*
G01*
X365507000Y-123573955D02*
X365507000Y-28230900D01*
X365507000Y-123573955D02*
G75*
G02*
X363057000Y-126023955I-2450000J0D01*
G01*
X364157000Y-28230900D02*
G75*
G02*
X361957000Y-28230900I-1100000J0D01*
G01*
X361957000Y-28230900D02*
G75*
G02*
X364157000Y-28230900I1100000J0D01*
G01*
X322570910Y-84355900D02*
G75*
G02*
X320370910Y-84355900I-1100000J0D01*
G01*
X320370910Y-84355900D02*
G75*
G02*
X322570910Y-84355900I1100000J0D01*
G01*
X240332560Y-84355900D02*
G75*
G02*
X238132560Y-84355900I-1100000J0D01*
G01*
X238132560Y-84355900D02*
G75*
G02*
X240332560Y-84355900I1100000J0D01*
G01*
X121269345Y-65375137D02*
G75*
G02*
X119069345Y-65375137I-1100000J0D01*
G01*
X119069345Y-65375137D02*
G75*
G02*
X121269345Y-65375137I1100000J0D01*
G01*
X35450725Y-123573955D02*
G75*
G02*
X33250725Y-123573955I-1100000J0D01*
G01*
X33250725Y-123573955D02*
G75*
G02*
X35450725Y-123573955I1100000J0D01*
G01*
X35450725Y-65399600D02*
G75*
G02*
X33250725Y-65399600I-1100000J0D01*
G01*
X33250725Y-65399600D02*
G75*
G02*
X35450725Y-65399600I1100000J0D01*
G01*
X164132560Y-84355900D02*
G75*
G02*
X161932560Y-84355900I-1100000J0D01*
G01*
X161932560Y-84355900D02*
G75*
G02*
X164132560Y-84355900I1100000J0D01*
G01*
X197469345Y-65353415D02*
G75*
G02*
X195269345Y-65353415I-1100000J0D01*
G01*
X195269345Y-65353415D02*
G75*
G02*
X197469345Y-65353415I1100000J0D01*
G01*
X322570910Y-46255900D02*
G75*
G02*
X320370910Y-46255900I-1100000J0D01*
G01*
X320370910Y-46255900D02*
G75*
G02*
X322570910Y-46255900I1100000J0D01*
G01*
X364157000Y-65305900D02*
G75*
G02*
X361957000Y-65305900I-1100000J0D01*
G01*
X361957000Y-65305900D02*
G75*
G02*
X364157000Y-65305900I1100000J0D01*
G01*
X295098165Y-123573955D02*
G75*
G02*
X292898165Y-123573955I-1100000J0D01*
G01*
X292898165Y-123573955D02*
G75*
G02*
X295098165Y-123573955I1100000J0D01*
G01*
X273669345Y-65331694D02*
G75*
G02*
X271469345Y-65331694I-1100000J0D01*
G01*
X271469345Y-65331694D02*
G75*
G02*
X273669345Y-65331694I1100000J0D01*
G01*
X130794425Y-28230900D02*
G75*
G02*
X128594425Y-28230900I-1100000J0D01*
G01*
X128594425Y-28230900D02*
G75*
G02*
X130794425Y-28230900I1100000J0D01*
G01*
X104599165Y-123573955D02*
G75*
G02*
X102399165Y-123573955I-1100000J0D01*
G01*
X102399165Y-123573955D02*
G75*
G02*
X104599165Y-123573955I1100000J0D01*
G01*
X35450725Y-28230900D02*
G75*
G02*
X33250725Y-28230900I-1100000J0D01*
G01*
X33250725Y-28230900D02*
G75*
G02*
X35450725Y-28230900I1100000J0D01*
G01*
X228424165Y-123573955D02*
G75*
G02*
X226224165Y-123573955I-1100000J0D01*
G01*
X226224165Y-123573955D02*
G75*
G02*
X228424165Y-123573955I1100000J0D01*
G01*
X206994425Y-28230900D02*
G75*
G02*
X204794425Y-28230900I-1100000J0D01*
G01*
X204794425Y-28230900D02*
G75*
G02*
X206994425Y-28230900I1100000J0D01*
G01*
X283194425Y-28230900D02*
G75*
G02*
X280994425Y-28230900I-1100000J0D01*
G01*
X280994425Y-28230900D02*
G75*
G02*
X283194425Y-28230900I1100000J0D01*
G01*
X364157000Y-123573955D02*
G75*
G02*
X361957000Y-123573955I-1100000J0D01*
G01*
X361957000Y-123573955D02*
G75*
G02*
X364157000Y-123573955I1100000J0D01*
G01*
X345731000Y-31850400D02*
X346532000Y-31850400D01*
X345731000Y-34949600D02*
X345731000Y-31850400D01*
X346532000Y-34949600D02*
X345731000Y-34949600D01*
X346532000Y-40749600D02*
X346532000Y-34949600D01*
X345731000Y-40749600D02*
X346532000Y-40749600D01*
X345731000Y-43850200D02*
X345731000Y-40749600D01*
X346532000Y-43850200D02*
X345731000Y-43850200D01*
X346532000Y-44849200D02*
X346532000Y-43850200D01*
X360532000Y-44849200D02*
X346532000Y-44849200D01*
X360532000Y-43850200D02*
X360532000Y-44849200D01*
X361331000Y-43850200D02*
X360532000Y-43850200D01*
X361331000Y-40749600D02*
X361331000Y-43850200D01*
X360532000Y-40749600D02*
X361331000Y-40749600D01*
X360532000Y-34949600D02*
X360532000Y-40749600D01*
X361331000Y-34949600D02*
X360532000Y-34949600D01*
X361331000Y-31850400D02*
X361331000Y-34949600D01*
X360532000Y-31850400D02*
X361331000Y-31850400D01*
X360532000Y-30849900D02*
X360532000Y-31850400D01*
X346532000Y-30849900D02*
X360532000Y-30849900D01*
X346532000Y-31850400D02*
X346532000Y-30849900D01*
X345731000Y-108050300D02*
X346532000Y-108050300D01*
X345731000Y-111148200D02*
X345731000Y-108050300D01*
X346532000Y-111148200D02*
X345731000Y-111148200D01*
X346532000Y-116949710D02*
X346532000Y-111148200D01*
X345731000Y-116949710D02*
X346532000Y-116949710D01*
X345731000Y-120050270D02*
X345731000Y-116949710D01*
X346532000Y-120050270D02*
X345731000Y-120050270D01*
X346532000Y-121049360D02*
X346532000Y-120050270D01*
X360532000Y-121049360D02*
X346532000Y-121049360D01*
X360532000Y-120050270D02*
X360532000Y-121049360D01*
X361331000Y-120050270D02*
X360532000Y-120050270D01*
X361331000Y-116949710D02*
X361331000Y-120050270D01*
X360532000Y-116949710D02*
X361331000Y-116949710D01*
X360532000Y-111148200D02*
X360532000Y-116949710D01*
X361331000Y-111148200D02*
X360532000Y-111148200D01*
X361331000Y-108050300D02*
X361331000Y-111148200D01*
X360532000Y-108050300D02*
X361331000Y-108050300D01*
X360532000Y-107049900D02*
X360532000Y-108050300D01*
X346532000Y-107049900D02*
X360532000Y-107049900D01*
X346532000Y-108050300D02*
X346532000Y-107049900D01*
X291762000Y-73650400D02*
X291762000Y-68949900D01*
X290238000Y-73650400D02*
X291762000Y-73650400D01*
X290238000Y-70420300D02*
X290238000Y-73650400D01*
X283487000Y-70420300D02*
X290238000Y-70420300D01*
X283487000Y-73650400D02*
X283487000Y-70420300D01*
X282663000Y-73650400D02*
X283487000Y-73650400D01*
X282663000Y-76449300D02*
X282663000Y-73650400D01*
X283487000Y-76449300D02*
X282663000Y-76449300D01*
X283487000Y-82719200D02*
X283487000Y-76449300D01*
X285212000Y-82719200D02*
X283487000Y-82719200D01*
X285212000Y-83919400D02*
X285212000Y-82719200D01*
X288511000Y-83919400D02*
X285212000Y-83919400D01*
X288511000Y-82719200D02*
X288511000Y-83919400D01*
X290238000Y-82719200D02*
X288511000Y-82719200D01*
X290238000Y-78250200D02*
X290238000Y-82719200D01*
X291762000Y-78250200D02*
X290238000Y-78250200D01*
X291762000Y-82949200D02*
X291762000Y-78250200D01*
X305763000Y-82949200D02*
X291762000Y-82949200D01*
X305763000Y-78250200D02*
X305763000Y-82949200D01*
X307287000Y-78250200D02*
X305763000Y-78250200D01*
X307287000Y-82719200D02*
X307287000Y-78250200D01*
X309012000Y-82719200D02*
X307287000Y-82719200D01*
X309012000Y-83919400D02*
X309012000Y-82719200D01*
X312313000Y-83919400D02*
X309012000Y-83919400D01*
X312313000Y-82719200D02*
X312313000Y-83919400D01*
X314038000Y-82719200D02*
X312313000Y-82719200D01*
X314038000Y-76449300D02*
X314038000Y-82719200D01*
X314862000Y-76449300D02*
X314038000Y-76449300D01*
X314862000Y-73650400D02*
X314862000Y-76449300D01*
X314038000Y-73650400D02*
X314862000Y-73650400D01*
X314038000Y-70420300D02*
X314038000Y-73650400D01*
X307287000Y-70420300D02*
X314038000Y-70420300D01*
X307287000Y-73650400D02*
X307287000Y-70420300D01*
X305763000Y-73650400D02*
X307287000Y-73650400D01*
X305763000Y-68949900D02*
X305763000Y-73650400D01*
X291762000Y-68949900D02*
X305763000Y-68949900D01*
X255244000Y-50900400D02*
X256045000Y-50900400D01*
X255244000Y-53999600D02*
X255244000Y-50900400D01*
X256045000Y-53999600D02*
X255244000Y-53999600D01*
X256045000Y-59799600D02*
X256045000Y-53999600D01*
X255244000Y-59799600D02*
X256045000Y-59799600D01*
X255244000Y-62900200D02*
X255244000Y-59799600D01*
X256045000Y-62900200D02*
X255244000Y-62900200D01*
X256045000Y-63899200D02*
X256045000Y-62900200D01*
X270044000Y-63899200D02*
X256045000Y-63899200D01*
X270044000Y-62900200D02*
X270044000Y-63899200D01*
X270845000Y-62900200D02*
X270044000Y-62900200D01*
X270845000Y-59799600D02*
X270845000Y-62900200D01*
X270044000Y-59799600D02*
X270845000Y-59799600D01*
X270044000Y-53999600D02*
X270044000Y-59799600D01*
X270845000Y-53999600D02*
X270044000Y-53999600D01*
X270845000Y-50900400D02*
X270845000Y-53999600D01*
X270044000Y-50900400D02*
X270845000Y-50900400D01*
X270044000Y-49899900D02*
X270044000Y-50900400D01*
X256045000Y-49899900D02*
X270044000Y-49899900D01*
X256045000Y-50900400D02*
X256045000Y-49899900D01*
X260006000Y-69950400D02*
X260807000Y-69950400D01*
X260006000Y-73049600D02*
X260006000Y-69950400D01*
X260807000Y-73049600D02*
X260006000Y-73049600D01*
X260807000Y-78849600D02*
X260807000Y-73049600D01*
X260006000Y-78849600D02*
X260807000Y-78849600D01*
X260006000Y-81950200D02*
X260006000Y-78849600D01*
X260807000Y-81950200D02*
X260006000Y-81950200D01*
X260807000Y-82949200D02*
X260807000Y-81950200D01*
X274807000Y-82949200D02*
X260807000Y-82949200D01*
X274807000Y-81950200D02*
X274807000Y-82949200D01*
X275606000Y-81950200D02*
X274807000Y-81950200D01*
X275606000Y-78849600D02*
X275606000Y-81950200D01*
X274807000Y-78849600D02*
X275606000Y-78849600D01*
X274807000Y-73049600D02*
X274807000Y-78849600D01*
X275606000Y-73049600D02*
X274807000Y-73049600D01*
X275606000Y-69950400D02*
X275606000Y-73049600D01*
X274807000Y-69950400D02*
X275606000Y-69950400D01*
X274807000Y-68949900D02*
X274807000Y-69950400D01*
X260807000Y-68949900D02*
X274807000Y-68949900D01*
X260807000Y-69950400D02*
X260807000Y-68949900D01*
X217144000Y-50900400D02*
X217945000Y-50900400D01*
X217144000Y-53999600D02*
X217144000Y-50900400D01*
X217945000Y-53999600D02*
X217144000Y-53999600D01*
X217945000Y-59799600D02*
X217945000Y-53999600D01*
X217144000Y-59799600D02*
X217945000Y-59799600D01*
X217144000Y-62900200D02*
X217144000Y-59799600D01*
X217945000Y-62900200D02*
X217144000Y-62900200D01*
X217945000Y-63899200D02*
X217945000Y-62900200D01*
X231944000Y-63899200D02*
X217945000Y-63899200D01*
X231944000Y-62900200D02*
X231944000Y-63899200D01*
X232745000Y-62900200D02*
X231944000Y-62900200D01*
X232745000Y-59799600D02*
X232745000Y-62900200D01*
X231944000Y-59799600D02*
X232745000Y-59799600D01*
X231944000Y-53999600D02*
X231944000Y-59799600D01*
X232745000Y-53999600D02*
X231944000Y-53999600D01*
X232745000Y-50900400D02*
X232745000Y-53999600D01*
X231944000Y-50900400D02*
X232745000Y-50900400D01*
X231944000Y-49899900D02*
X231944000Y-50900400D01*
X217945000Y-49899900D02*
X231944000Y-49899900D01*
X217945000Y-50900400D02*
X217945000Y-49899900D01*
X231431000Y-89000300D02*
X232232000Y-89000300D01*
X231431000Y-92098200D02*
X231431000Y-89000300D01*
X232232000Y-92098200D02*
X231431000Y-92098200D01*
X232232000Y-97899700D02*
X232232000Y-92098200D01*
X231431000Y-97899700D02*
X232232000Y-97899700D01*
X231431000Y-101000300D02*
X231431000Y-97899700D01*
X232232000Y-101000300D02*
X231431000Y-101000300D01*
X232232000Y-101999400D02*
X232232000Y-101000300D01*
X246232000Y-101999400D02*
X232232000Y-101999400D01*
X246232000Y-101000300D02*
X246232000Y-101999400D01*
X247031000Y-101000300D02*
X246232000Y-101000300D01*
X247031000Y-97899700D02*
X247031000Y-101000300D01*
X246232000Y-97899700D02*
X247031000Y-97899700D01*
X246232000Y-92098200D02*
X246232000Y-97899700D01*
X247031000Y-92098200D02*
X246232000Y-92098200D01*
X247031000Y-89000300D02*
X247031000Y-92098200D01*
X246232000Y-89000300D02*
X247031000Y-89000300D01*
X246232000Y-88000000D02*
X246232000Y-89000300D01*
X232232000Y-88000000D02*
X246232000Y-88000000D01*
X232232000Y-89000300D02*
X232232000Y-88000000D01*
X212381000Y-89000300D02*
X213182000Y-89000300D01*
X212381000Y-92098200D02*
X212381000Y-89000300D01*
X213182000Y-92098200D02*
X212381000Y-92098200D01*
X213182000Y-97899700D02*
X213182000Y-92098200D01*
X212381000Y-97899700D02*
X213182000Y-97899700D01*
X212381000Y-101000300D02*
X212381000Y-97899700D01*
X213182000Y-101000300D02*
X212381000Y-101000300D01*
X213182000Y-101999400D02*
X213182000Y-101000300D01*
X227182000Y-101999400D02*
X213182000Y-101999400D01*
X227182000Y-101000300D02*
X227182000Y-101999400D01*
X227981000Y-101000300D02*
X227182000Y-101000300D01*
X227981000Y-97899700D02*
X227981000Y-101000300D01*
X227182000Y-97899700D02*
X227981000Y-97899700D01*
X227182000Y-92098200D02*
X227182000Y-97899700D01*
X227981000Y-92098200D02*
X227182000Y-92098200D01*
X227981000Y-89000300D02*
X227981000Y-92098200D01*
X227182000Y-89000300D02*
X227981000Y-89000300D01*
X227182000Y-88000000D02*
X227182000Y-89000300D01*
X213182000Y-88000000D02*
X227182000Y-88000000D01*
X213182000Y-89000300D02*
X213182000Y-88000000D01*
X169519000Y-31850400D02*
X170320000Y-31850400D01*
X169519000Y-34949600D02*
X169519000Y-31850400D01*
X170320000Y-34949600D02*
X169519000Y-34949600D01*
X170320000Y-40749600D02*
X170320000Y-34949600D01*
X169519000Y-40749600D02*
X170320000Y-40749600D01*
X169519000Y-43850200D02*
X169519000Y-40749600D01*
X170320000Y-43850200D02*
X169519000Y-43850200D01*
X170320000Y-44849200D02*
X170320000Y-43850200D01*
X184319000Y-44849200D02*
X170320000Y-44849200D01*
X184319000Y-43850200D02*
X184319000Y-44849200D01*
X185120000Y-43850200D02*
X184319000Y-43850200D01*
X185120000Y-40749600D02*
X185120000Y-43850200D01*
X184319000Y-40749600D02*
X185120000Y-40749600D01*
X184319000Y-34949600D02*
X184319000Y-40749600D01*
X185120000Y-34949600D02*
X184319000Y-34949600D01*
X185120000Y-31850400D02*
X185120000Y-34949600D01*
X184319000Y-31850400D02*
X185120000Y-31850400D01*
X184319000Y-30849900D02*
X184319000Y-31850400D01*
X170320000Y-30849900D02*
X184319000Y-30849900D01*
X170320000Y-31850400D02*
X170320000Y-30849900D01*
X174281000Y-89000300D02*
X175082000Y-89000300D01*
X174281000Y-92098200D02*
X174281000Y-89000300D01*
X175082000Y-92098200D02*
X174281000Y-92098200D01*
X175082000Y-97899700D02*
X175082000Y-92098200D01*
X174281000Y-97899700D02*
X175082000Y-97899700D01*
X174281000Y-101000300D02*
X174281000Y-97899700D01*
X175082000Y-101000300D02*
X174281000Y-101000300D01*
X175082000Y-101999400D02*
X175082000Y-101000300D01*
X189082000Y-101999400D02*
X175082000Y-101999400D01*
X189082000Y-101000300D02*
X189082000Y-101999400D01*
X189881000Y-101000300D02*
X189082000Y-101000300D01*
X189881000Y-97899700D02*
X189881000Y-101000300D01*
X189082000Y-97899700D02*
X189881000Y-97899700D01*
X189082000Y-92098200D02*
X189082000Y-97899700D01*
X189881000Y-92098200D02*
X189082000Y-92098200D01*
X189881000Y-89000300D02*
X189881000Y-92098200D01*
X189082000Y-89000300D02*
X189881000Y-89000300D01*
X189082000Y-88000000D02*
X189082000Y-89000300D01*
X175082000Y-88000000D02*
X189082000Y-88000000D01*
X175082000Y-89000300D02*
X175082000Y-88000000D01*
X131418900Y-31850400D02*
X132218300Y-31850400D01*
X131418900Y-34949600D02*
X131418900Y-31850400D01*
X132218300Y-34949600D02*
X131418900Y-34949600D01*
X132218300Y-40749600D02*
X132218300Y-34949600D01*
X131418900Y-40749600D02*
X132218300Y-40749600D01*
X131418900Y-43850200D02*
X131418900Y-40749600D01*
X132218300Y-43850200D02*
X131418900Y-43850200D01*
X132218300Y-44849200D02*
X132218300Y-43850200D01*
X146219000Y-44849200D02*
X132218300Y-44849200D01*
X146219000Y-43850200D02*
X146219000Y-44849200D01*
X147018000Y-43850200D02*
X146219000Y-43850200D01*
X147018000Y-40749600D02*
X147018000Y-43850200D01*
X146219000Y-40749600D02*
X147018000Y-40749600D01*
X146219000Y-34949600D02*
X146219000Y-40749600D01*
X147018000Y-34949600D02*
X146219000Y-34949600D01*
X147018000Y-31850400D02*
X147018000Y-34949600D01*
X146219000Y-31850400D02*
X147018000Y-31850400D01*
X146219000Y-30849900D02*
X146219000Y-31850400D01*
X132218300Y-30849900D02*
X146219000Y-30849900D01*
X132218300Y-31850400D02*
X132218300Y-30849900D01*
X136181000Y-89000300D02*
X136982000Y-89000300D01*
X136181000Y-92098200D02*
X136181000Y-89000300D01*
X136982000Y-92098200D02*
X136181000Y-92098200D01*
X136982000Y-97899700D02*
X136982000Y-92098200D01*
X136181000Y-97899700D02*
X136982000Y-97899700D01*
X136181000Y-101000300D02*
X136181000Y-97899700D01*
X136982000Y-101000300D02*
X136181000Y-101000300D01*
X136982000Y-101999400D02*
X136982000Y-101000300D01*
X150982000Y-101999400D02*
X136982000Y-101999400D01*
X150982000Y-101000300D02*
X150982000Y-101999400D01*
X151781000Y-101000300D02*
X150982000Y-101000300D01*
X151781000Y-97899700D02*
X151781000Y-101000300D01*
X150982000Y-97899700D02*
X151781000Y-97899700D01*
X150982000Y-92098200D02*
X150982000Y-97899700D01*
X151781000Y-92098200D02*
X150982000Y-92098200D01*
X151781000Y-89000300D02*
X151781000Y-92098200D01*
X150982000Y-89000300D02*
X151781000Y-89000300D01*
X150982000Y-88000000D02*
X150982000Y-89000300D01*
X136982000Y-88000000D02*
X150982000Y-88000000D01*
X136982000Y-89000300D02*
X136982000Y-88000000D01*
X93318900Y-31850400D02*
X94119700Y-31850400D01*
X93318900Y-34949600D02*
X93318900Y-31850400D01*
X94119700Y-34949600D02*
X93318900Y-34949600D01*
X94119700Y-40749600D02*
X94119700Y-34949600D01*
X93318900Y-40749600D02*
X94119700Y-40749600D01*
X93318900Y-43850200D02*
X93318900Y-40749600D01*
X94119700Y-43850200D02*
X93318900Y-43850200D01*
X94119700Y-44849200D02*
X94119700Y-43850200D01*
X108119000Y-44849200D02*
X94119700Y-44849200D01*
X108119000Y-43850200D02*
X108119000Y-44849200D01*
X108919800Y-43850200D02*
X108119000Y-43850200D01*
X108919800Y-40749600D02*
X108919800Y-43850200D01*
X108119000Y-40749600D02*
X108919800Y-40749600D01*
X108119000Y-34949600D02*
X108119000Y-40749600D01*
X108919800Y-34949600D02*
X108119000Y-34949600D01*
X108919800Y-31850400D02*
X108919800Y-34949600D01*
X108119000Y-31850400D02*
X108919800Y-31850400D01*
X108119000Y-30849900D02*
X108119000Y-31850400D01*
X94119700Y-30849900D02*
X108119000Y-30849900D01*
X94119700Y-31850400D02*
X94119700Y-30849900D01*
X157613000Y-108050300D02*
X158412000Y-108050300D01*
X157613000Y-111148200D02*
X157613000Y-108050300D01*
X158412000Y-111148200D02*
X157613000Y-111148200D01*
X158412000Y-111750400D02*
X158412000Y-111148200D01*
X118788100Y-111750400D02*
X158412000Y-111750400D01*
X118788100Y-108520200D02*
X118788100Y-111750400D01*
X112037000Y-108520200D02*
X118788100Y-108520200D01*
X112037000Y-111750400D02*
X112037000Y-108520200D01*
X111212900Y-111750400D02*
X112037000Y-111750400D01*
X111212900Y-114549160D02*
X111212900Y-111750400D01*
X112037000Y-114549160D02*
X111212900Y-114549160D01*
X112037000Y-120819230D02*
X112037000Y-114549160D01*
X113762000Y-120819230D02*
X112037000Y-120819230D01*
X113762000Y-122019500D02*
X113762000Y-120819230D01*
X117062600Y-122019500D02*
X113762000Y-122019500D01*
X117062600Y-120819230D02*
X117062600Y-122019500D01*
X118788100Y-120819230D02*
X117062600Y-120819230D01*
X118788100Y-116348890D02*
X118788100Y-120819230D01*
X158412000Y-116348890D02*
X118788100Y-116348890D01*
X158412000Y-116949710D02*
X158412000Y-116348890D01*
X157613000Y-116949710D02*
X158412000Y-116949710D01*
X157613000Y-120050270D02*
X157613000Y-116949710D01*
X158412000Y-120050270D02*
X157613000Y-120050270D01*
X158412000Y-121049360D02*
X158412000Y-120050270D01*
X172413000Y-121049360D02*
X158412000Y-121049360D01*
X172413000Y-120050270D02*
X172413000Y-121049360D01*
X173212000Y-120050270D02*
X172413000Y-120050270D01*
X173212000Y-116949710D02*
X173212000Y-120050270D01*
X172413000Y-116949710D02*
X173212000Y-116949710D01*
X172413000Y-116348890D02*
X172413000Y-116949710D01*
X212037000Y-116348890D02*
X172413000Y-116348890D01*
X212037000Y-120819230D02*
X212037000Y-116348890D01*
X213762000Y-120819230D02*
X212037000Y-120819230D01*
X213762000Y-122019500D02*
X213762000Y-120819230D01*
X217063000Y-122019500D02*
X213762000Y-122019500D01*
X217063000Y-120819230D02*
X217063000Y-122019500D01*
X218788000Y-120819230D02*
X217063000Y-120819230D01*
X218788000Y-114549160D02*
X218788000Y-120819230D01*
X219612000Y-114549160D02*
X218788000Y-114549160D01*
X219612000Y-111750400D02*
X219612000Y-114549160D01*
X218788000Y-111750400D02*
X219612000Y-111750400D01*
X218788000Y-108520200D02*
X218788000Y-111750400D01*
X212037000Y-108520200D02*
X218788000Y-108520200D01*
X212037000Y-111750400D02*
X212037000Y-108520200D01*
X172413000Y-111750400D02*
X212037000Y-111750400D01*
X172413000Y-111148200D02*
X172413000Y-111750400D01*
X173212000Y-111148200D02*
X172413000Y-111148200D01*
X173212000Y-108050300D02*
X173212000Y-111148200D01*
X172413000Y-108050300D02*
X173212000Y-108050300D01*
X172413000Y-107049900D02*
X172413000Y-108050300D01*
X158412000Y-107049900D02*
X172413000Y-107049900D01*
X158412000Y-108050300D02*
X158412000Y-107049900D01*
X74268900Y-31850400D02*
X75069700Y-31850400D01*
X74268900Y-34949600D02*
X74268900Y-31850400D01*
X75069700Y-34949600D02*
X74268900Y-34949600D01*
X75069700Y-40749600D02*
X75069700Y-34949600D01*
X74268900Y-40749600D02*
X75069700Y-40749600D01*
X74268900Y-43850200D02*
X74268900Y-40749600D01*
X75069700Y-43850200D02*
X74268900Y-43850200D01*
X75069700Y-44849200D02*
X75069700Y-43850200D01*
X89069000Y-44849200D02*
X75069700Y-44849200D01*
X89069000Y-43850200D02*
X89069000Y-44849200D01*
X89869800Y-43850200D02*
X89069000Y-43850200D01*
X89869800Y-40749600D02*
X89869800Y-43850200D01*
X89069000Y-40749600D02*
X89869800Y-40749600D01*
X89069000Y-34949600D02*
X89069000Y-40749600D01*
X89869800Y-34949600D02*
X89069000Y-34949600D01*
X89869800Y-31850400D02*
X89869800Y-34949600D01*
X89069000Y-31850400D02*
X89869800Y-31850400D01*
X89069000Y-30849900D02*
X89069000Y-31850400D01*
X75069700Y-30849900D02*
X89069000Y-30849900D01*
X75069700Y-31850400D02*
X75069700Y-30849900D01*
X86175200Y-108050300D02*
X86976000Y-108050300D01*
X86175200Y-111148200D02*
X86175200Y-108050300D01*
X86976000Y-111148200D02*
X86175200Y-111148200D01*
X86976000Y-116949710D02*
X86976000Y-111148200D01*
X86175200Y-116949710D02*
X86976000Y-116949710D01*
X86175200Y-120050270D02*
X86175200Y-116949710D01*
X86976000Y-120050270D02*
X86175200Y-120050270D01*
X86976000Y-121049360D02*
X86976000Y-120050270D01*
X100975300Y-121049360D02*
X86976000Y-121049360D01*
X100975300Y-120050270D02*
X100975300Y-121049360D01*
X101776100Y-120050270D02*
X100975300Y-120050270D01*
X101776100Y-116949710D02*
X101776100Y-120050270D01*
X100975300Y-116949710D02*
X101776100Y-116949710D01*
X100975300Y-111148200D02*
X100975300Y-116949710D01*
X101776100Y-111148200D02*
X100975300Y-111148200D01*
X101776100Y-108050300D02*
X101776100Y-111148200D01*
X100975300Y-108050300D02*
X101776100Y-108050300D01*
X100975300Y-107049900D02*
X100975300Y-108050300D01*
X86976000Y-107049900D02*
X100975300Y-107049900D01*
X86976000Y-108050300D02*
X86976000Y-107049900D01*
X43312780Y-69950400D02*
X44112030Y-69950400D01*
X43312780Y-73049600D02*
X43312780Y-69950400D01*
X44112030Y-73049600D02*
X43312780Y-73049600D01*
X44112030Y-78849600D02*
X44112030Y-73049600D01*
X43312780Y-78849600D02*
X44112030Y-78849600D01*
X43312780Y-81950200D02*
X43312780Y-78849600D01*
X44112030Y-81950200D02*
X43312780Y-81950200D01*
X44112030Y-82949200D02*
X44112030Y-81950200D01*
X58112900Y-82949200D02*
X44112030Y-82949200D01*
X58112900Y-81950200D02*
X58112900Y-82949200D01*
X58912200Y-81950200D02*
X58112900Y-81950200D01*
X58912200Y-78849600D02*
X58912200Y-81950200D01*
X58112900Y-78849600D02*
X58912200Y-78849600D01*
X58112900Y-73049600D02*
X58112900Y-78849600D01*
X58912200Y-73049600D02*
X58112900Y-73049600D01*
X58912200Y-69950400D02*
X58912200Y-73049600D01*
X58112900Y-69950400D02*
X58912200Y-69950400D01*
X58112900Y-68949900D02*
X58112900Y-69950400D01*
X44112030Y-68949900D02*
X58112900Y-68949900D01*
X44112030Y-69950400D02*
X44112030Y-68949900D01*
X40931530Y-50900400D02*
X41732160Y-50900400D01*
X40931530Y-53999600D02*
X40931530Y-50900400D01*
X41732160Y-53999600D02*
X40931530Y-53999600D01*
X41732160Y-59799600D02*
X41732160Y-53999600D01*
X40931530Y-59799600D02*
X41732160Y-59799600D01*
X40931530Y-62900200D02*
X40931530Y-59799600D01*
X41732160Y-62900200D02*
X40931530Y-62900200D01*
X41732160Y-63899200D02*
X41732160Y-62900200D01*
X55731700Y-63899200D02*
X41732160Y-63899200D01*
X55731700Y-62900200D02*
X55731700Y-63899200D01*
X56530900Y-62900200D02*
X55731700Y-62900200D01*
X56530900Y-59799600D02*
X56530900Y-62900200D01*
X55731700Y-59799600D02*
X56530900Y-59799600D01*
X55731700Y-53999600D02*
X55731700Y-59799600D01*
X56530900Y-53999600D02*
X55731700Y-53999600D01*
X56530900Y-50900400D02*
X56530900Y-53999600D01*
X55731700Y-50900400D02*
X56530900Y-50900400D01*
X55731700Y-49899900D02*
X55731700Y-50900400D01*
X41732160Y-49899900D02*
X55731700Y-49899900D01*
X41732160Y-50900400D02*
X41732160Y-49899900D01*
X66124800Y-101769200D02*
X64400900Y-101769200D01*
X66124800Y-102969500D02*
X66124800Y-101769200D01*
X69425200Y-102969500D02*
X66124800Y-102969500D01*
X69425200Y-101769200D02*
X69425200Y-102969500D01*
X71150400Y-101769200D02*
X69425200Y-101769200D01*
X71150400Y-95499200D02*
X71150400Y-101769200D01*
X71975900Y-95499200D02*
X71150400Y-95499200D01*
X71975900Y-92700400D02*
X71975900Y-95499200D01*
X71150400Y-92700400D02*
X71975900Y-92700400D01*
X71150400Y-89470200D02*
X71150400Y-92700400D01*
X64400900Y-89470200D02*
X71150400Y-89470200D01*
X64400900Y-92700400D02*
X64400900Y-89470200D01*
X62875400Y-92700400D02*
X64400900Y-92700400D01*
X62875400Y-88000000D02*
X62875400Y-92700400D01*
X48875900Y-88000000D02*
X62875400Y-88000000D01*
X48875900Y-92700400D02*
X48875900Y-88000000D01*
X47350400Y-92700400D02*
X48875900Y-92700400D01*
X47350400Y-89470200D02*
X47350400Y-92700400D01*
X40600800Y-89470200D02*
X47350400Y-89470200D01*
X40600800Y-92700400D02*
X40600800Y-89470200D01*
X39775330Y-92700400D02*
X40600800Y-92700400D01*
X39775330Y-95499200D02*
X39775330Y-92700400D01*
X40600800Y-95499200D02*
X39775330Y-95499200D01*
X40600800Y-101769200D02*
X40600800Y-95499200D01*
X42326090Y-101769200D02*
X40600800Y-101769200D01*
X42326090Y-102969500D02*
X42326090Y-101769200D01*
X45625100Y-102969500D02*
X42326090Y-102969500D01*
X45625100Y-101769200D02*
X45625100Y-102969500D01*
X47350400Y-101769200D02*
X45625100Y-101769200D01*
X47350400Y-97300300D02*
X47350400Y-101769200D01*
X48875900Y-97300300D02*
X47350400Y-97300300D01*
X48875900Y-101999400D02*
X48875900Y-97300300D01*
X62875400Y-101999400D02*
X48875900Y-101999400D01*
X62875400Y-97300300D02*
X62875400Y-101999400D01*
X64400900Y-97300300D02*
X62875400Y-97300300D01*
X64400900Y-101769200D02*
X64400900Y-97300300D01*
X79031400Y-89000300D02*
X79832200Y-89000300D01*
X79031400Y-92098200D02*
X79031400Y-89000300D01*
X79832200Y-92098200D02*
X79031400Y-92098200D01*
X79832200Y-97899700D02*
X79832200Y-92098200D01*
X79031400Y-97899700D02*
X79832200Y-97899700D01*
X79031400Y-101000300D02*
X79031400Y-97899700D01*
X79832200Y-101000300D02*
X79031400Y-101000300D01*
X79832200Y-101999400D02*
X79832200Y-101000300D01*
X93831500Y-101999400D02*
X79832200Y-101999400D01*
X93831500Y-101000300D02*
X93831500Y-101999400D01*
X94630900Y-101000300D02*
X93831500Y-101000300D01*
X94630900Y-97899700D02*
X94630900Y-101000300D01*
X93831500Y-97899700D02*
X94630900Y-97899700D01*
X93831500Y-92098200D02*
X93831500Y-97899700D01*
X94630900Y-92098200D02*
X93831500Y-92098200D01*
X94630900Y-89000300D02*
X94630900Y-92098200D01*
X93831500Y-89000300D02*
X94630900Y-89000300D01*
X93831500Y-88000000D02*
X93831500Y-89000300D01*
X79832200Y-88000000D02*
X93831500Y-88000000D01*
X79832200Y-89000300D02*
X79832200Y-88000000D01*
X83793900Y-50900400D02*
X84594700Y-50900400D01*
X83793900Y-53999600D02*
X83793900Y-50900400D01*
X84594700Y-53999600D02*
X83793900Y-53999600D01*
X84594700Y-59799600D02*
X84594700Y-53999600D01*
X83793900Y-59799600D02*
X84594700Y-59799600D01*
X83793900Y-62900200D02*
X83793900Y-59799600D01*
X84594700Y-62900200D02*
X83793900Y-62900200D01*
X84594700Y-63899200D02*
X84594700Y-62900200D01*
X98594000Y-63899200D02*
X84594700Y-63899200D01*
X98594000Y-62900200D02*
X98594000Y-63899200D01*
X99394800Y-62900200D02*
X98594000Y-62900200D01*
X99394800Y-59799600D02*
X99394800Y-62900200D01*
X98594000Y-59799600D02*
X99394800Y-59799600D01*
X98594000Y-53999600D02*
X98594000Y-59799600D01*
X99394800Y-53999600D02*
X98594000Y-53999600D01*
X99394800Y-50900400D02*
X99394800Y-53999600D01*
X98594000Y-50900400D02*
X99394800Y-50900400D01*
X98594000Y-49899900D02*
X98594000Y-50900400D01*
X84594700Y-49899900D02*
X98594000Y-49899900D01*
X84594700Y-50900400D02*
X84594700Y-49899900D01*
X117131400Y-89000300D02*
X117932200Y-89000300D01*
X117131400Y-92098200D02*
X117131400Y-89000300D01*
X117932200Y-92098200D02*
X117131400Y-92098200D01*
X117932200Y-97899700D02*
X117932200Y-92098200D01*
X117131400Y-97899700D02*
X117932200Y-97899700D01*
X117131400Y-101000300D02*
X117131400Y-97899700D01*
X117932200Y-101000300D02*
X117131400Y-101000300D01*
X117932200Y-101999400D02*
X117932200Y-101000300D01*
X131931500Y-101999400D02*
X117932200Y-101999400D01*
X131931500Y-101000300D02*
X131931500Y-101999400D01*
X132730900Y-101000300D02*
X131931500Y-101000300D01*
X132730900Y-97899700D02*
X132730900Y-101000300D01*
X131931500Y-97899700D02*
X132730900Y-97899700D01*
X131931500Y-92098200D02*
X131931500Y-97899700D01*
X132730900Y-92098200D02*
X131931500Y-92098200D01*
X132730900Y-89000300D02*
X132730900Y-92098200D01*
X131931500Y-89000300D02*
X132730900Y-89000300D01*
X131931500Y-88000000D02*
X131931500Y-89000300D01*
X117932200Y-88000000D02*
X131931500Y-88000000D01*
X117932200Y-89000300D02*
X117932200Y-88000000D01*
X112368900Y-31850400D02*
X113169700Y-31850400D01*
X112368900Y-34949600D02*
X112368900Y-31850400D01*
X113169700Y-34949600D02*
X112368900Y-34949600D01*
X113169700Y-40749600D02*
X113169700Y-34949600D01*
X112368900Y-40749600D02*
X113169700Y-40749600D01*
X112368900Y-43850200D02*
X112368900Y-40749600D01*
X113169700Y-43850200D02*
X112368900Y-43850200D01*
X113169700Y-44849200D02*
X113169700Y-43850200D01*
X127169000Y-44849200D02*
X113169700Y-44849200D01*
X127169000Y-43850200D02*
X127169000Y-44849200D01*
X127968400Y-43850200D02*
X127169000Y-43850200D01*
X127968400Y-40749600D02*
X127968400Y-43850200D01*
X127169000Y-40749600D02*
X127968400Y-40749600D01*
X127169000Y-34949600D02*
X127169000Y-40749600D01*
X127968400Y-34949600D02*
X127169000Y-34949600D01*
X127968400Y-31850400D02*
X127968400Y-34949600D01*
X127169000Y-31850400D02*
X127968400Y-31850400D01*
X127169000Y-30849900D02*
X127169000Y-31850400D01*
X113169700Y-30849900D02*
X127169000Y-30849900D01*
X113169700Y-31850400D02*
X113169700Y-30849900D01*
X155231000Y-89000300D02*
X156032000Y-89000300D01*
X155231000Y-92098200D02*
X155231000Y-89000300D01*
X156032000Y-92098200D02*
X155231000Y-92098200D01*
X156032000Y-97899700D02*
X156032000Y-92098200D01*
X155231000Y-97899700D02*
X156032000Y-97899700D01*
X155231000Y-101000300D02*
X155231000Y-97899700D01*
X156032000Y-101000300D02*
X155231000Y-101000300D01*
X156032000Y-101999400D02*
X156032000Y-101000300D01*
X170032000Y-101999400D02*
X156032000Y-101999400D01*
X170032000Y-101000300D02*
X170032000Y-101999400D01*
X170831000Y-101000300D02*
X170032000Y-101000300D01*
X170831000Y-97899700D02*
X170831000Y-101000300D01*
X170032000Y-97899700D02*
X170831000Y-97899700D01*
X170032000Y-92098200D02*
X170032000Y-97899700D01*
X170831000Y-92098200D02*
X170032000Y-92098200D01*
X170831000Y-89000300D02*
X170831000Y-92098200D01*
X170032000Y-89000300D02*
X170831000Y-89000300D01*
X170032000Y-88000000D02*
X170032000Y-89000300D01*
X156032000Y-88000000D02*
X170032000Y-88000000D01*
X156032000Y-89000300D02*
X156032000Y-88000000D01*
X150469000Y-31850400D02*
X151268000Y-31850400D01*
X150469000Y-34949600D02*
X150469000Y-31850400D01*
X151268000Y-34949600D02*
X150469000Y-34949600D01*
X151268000Y-40749600D02*
X151268000Y-34949600D01*
X150469000Y-40749600D02*
X151268000Y-40749600D01*
X150469000Y-43850200D02*
X150469000Y-40749600D01*
X151268000Y-43850200D02*
X150469000Y-43850200D01*
X151268000Y-44849200D02*
X151268000Y-43850200D01*
X165269000Y-44849200D02*
X151268000Y-44849200D01*
X165269000Y-43850200D02*
X165269000Y-44849200D01*
X166070000Y-43850200D02*
X165269000Y-43850200D01*
X166070000Y-40749600D02*
X166070000Y-43850200D01*
X165269000Y-40749600D02*
X166070000Y-40749600D01*
X165269000Y-34949600D02*
X165269000Y-40749600D01*
X166070000Y-34949600D02*
X165269000Y-34949600D01*
X166070000Y-31850400D02*
X166070000Y-34949600D01*
X165269000Y-31850400D02*
X166070000Y-31850400D01*
X165269000Y-30849900D02*
X165269000Y-31850400D01*
X151268000Y-30849900D02*
X165269000Y-30849900D01*
X151268000Y-31850400D02*
X151268000Y-30849900D01*
X193331000Y-89000300D02*
X194132000Y-89000300D01*
X193331000Y-92098200D02*
X193331000Y-89000300D01*
X194132000Y-92098200D02*
X193331000Y-92098200D01*
X194132000Y-97899700D02*
X194132000Y-92098200D01*
X193331000Y-97899700D02*
X194132000Y-97899700D01*
X193331000Y-101000300D02*
X193331000Y-97899700D01*
X194132000Y-101000300D02*
X193331000Y-101000300D01*
X194132000Y-101999400D02*
X194132000Y-101000300D01*
X208132000Y-101999400D02*
X194132000Y-101999400D01*
X208132000Y-101000300D02*
X208132000Y-101999400D01*
X208931000Y-101000300D02*
X208132000Y-101000300D01*
X208931000Y-97899700D02*
X208931000Y-101000300D01*
X208132000Y-97899700D02*
X208931000Y-97899700D01*
X208132000Y-92098200D02*
X208132000Y-97899700D01*
X208931000Y-92098200D02*
X208132000Y-92098200D01*
X208931000Y-89000300D02*
X208931000Y-92098200D01*
X208132000Y-89000300D02*
X208931000Y-89000300D01*
X208132000Y-88000000D02*
X208132000Y-89000300D01*
X194132000Y-88000000D02*
X208132000Y-88000000D01*
X194132000Y-89000300D02*
X194132000Y-88000000D01*
X188569000Y-31850400D02*
X189370000Y-31850400D01*
X188569000Y-34949600D02*
X188569000Y-31850400D01*
X189370000Y-34949600D02*
X188569000Y-34949600D01*
X189370000Y-40749600D02*
X189370000Y-34949600D01*
X188569000Y-40749600D02*
X189370000Y-40749600D01*
X188569000Y-43850200D02*
X188569000Y-40749600D01*
X189370000Y-43850200D02*
X188569000Y-43850200D01*
X189370000Y-44849200D02*
X189370000Y-43850200D01*
X203369000Y-44849200D02*
X189370000Y-44849200D01*
X203369000Y-43850200D02*
X203369000Y-44849200D01*
X204170000Y-43850200D02*
X203369000Y-43850200D01*
X204170000Y-40749600D02*
X204170000Y-43850200D01*
X203369000Y-40749600D02*
X204170000Y-40749600D01*
X203369000Y-34949600D02*
X203369000Y-40749600D01*
X204170000Y-34949600D02*
X203369000Y-34949600D01*
X204170000Y-31850400D02*
X204170000Y-34949600D01*
X203369000Y-31850400D02*
X204170000Y-31850400D01*
X203369000Y-30849900D02*
X203369000Y-31850400D01*
X189370000Y-30849900D02*
X203369000Y-30849900D01*
X189370000Y-31850400D02*
X189370000Y-30849900D01*
X229050000Y-108050300D02*
X229851000Y-108050300D01*
X229050000Y-111148200D02*
X229050000Y-108050300D01*
X229851000Y-111148200D02*
X229050000Y-111148200D01*
X229851000Y-116949710D02*
X229851000Y-111148200D01*
X229050000Y-116949710D02*
X229851000Y-116949710D01*
X229050000Y-120050270D02*
X229050000Y-116949710D01*
X229851000Y-120050270D02*
X229050000Y-120050270D01*
X229851000Y-121049360D02*
X229851000Y-120050270D01*
X243850000Y-121049360D02*
X229851000Y-121049360D01*
X243850000Y-120050270D02*
X243850000Y-121049360D01*
X244651000Y-120050270D02*
X243850000Y-120050270D01*
X244651000Y-116949710D02*
X244651000Y-120050270D01*
X243850000Y-116949710D02*
X244651000Y-116949710D01*
X243850000Y-111148200D02*
X243850000Y-116949710D01*
X244651000Y-111148200D02*
X243850000Y-111148200D01*
X244651000Y-108050300D02*
X244651000Y-111148200D01*
X243850000Y-108050300D02*
X244651000Y-108050300D01*
X243850000Y-107049900D02*
X243850000Y-108050300D01*
X229851000Y-107049900D02*
X243850000Y-107049900D01*
X229851000Y-108050300D02*
X229851000Y-107049900D01*
X221906000Y-69950400D02*
X222707000Y-69950400D01*
X221906000Y-73049600D02*
X221906000Y-69950400D01*
X222707000Y-73049600D02*
X221906000Y-73049600D01*
X222707000Y-78849600D02*
X222707000Y-73049600D01*
X221906000Y-78849600D02*
X222707000Y-78849600D01*
X221906000Y-81950200D02*
X221906000Y-78849600D01*
X222707000Y-81950200D02*
X221906000Y-81950200D01*
X222707000Y-82949200D02*
X222707000Y-81950200D01*
X236707000Y-82949200D02*
X222707000Y-82949200D01*
X236707000Y-81950200D02*
X236707000Y-82949200D01*
X237506000Y-81950200D02*
X236707000Y-81950200D01*
X237506000Y-78849600D02*
X237506000Y-81950200D01*
X236707000Y-78849600D02*
X237506000Y-78849600D01*
X236707000Y-73049600D02*
X236707000Y-78849600D01*
X237506000Y-73049600D02*
X236707000Y-73049600D01*
X237506000Y-69950400D02*
X237506000Y-73049600D01*
X236707000Y-69950400D02*
X237506000Y-69950400D01*
X236707000Y-68949900D02*
X236707000Y-69950400D01*
X222707000Y-68949900D02*
X236707000Y-68949900D01*
X222707000Y-69950400D02*
X222707000Y-68949900D01*
X207619000Y-31850400D02*
X208420000Y-31850400D01*
X207619000Y-34949600D02*
X207619000Y-31850400D01*
X208420000Y-34949600D02*
X207619000Y-34949600D01*
X208420000Y-40749600D02*
X208420000Y-34949600D01*
X207619000Y-40749600D02*
X208420000Y-40749600D01*
X207619000Y-43850200D02*
X207619000Y-40749600D01*
X208420000Y-43850200D02*
X207619000Y-43850200D01*
X208420000Y-44849200D02*
X208420000Y-43850200D01*
X222419000Y-44849200D02*
X208420000Y-44849200D01*
X222419000Y-43850200D02*
X222419000Y-44849200D01*
X223220000Y-43850200D02*
X222419000Y-43850200D01*
X223220000Y-40749600D02*
X223220000Y-43850200D01*
X222419000Y-40749600D02*
X223220000Y-40749600D01*
X222419000Y-34949600D02*
X222419000Y-40749600D01*
X223220000Y-34949600D02*
X222419000Y-34949600D01*
X223220000Y-31850400D02*
X223220000Y-34949600D01*
X222419000Y-31850400D02*
X223220000Y-31850400D01*
X222419000Y-30849900D02*
X222419000Y-31850400D01*
X208420000Y-30849900D02*
X222419000Y-30849900D01*
X208420000Y-31850400D02*
X208420000Y-30849900D01*
X304250000Y-101769200D02*
X302526000Y-101769200D01*
X304250000Y-102969500D02*
X304250000Y-101769200D01*
X307550000Y-102969500D02*
X304250000Y-102969500D01*
X307550000Y-101769200D02*
X307550000Y-102969500D01*
X309275000Y-101769200D02*
X307550000Y-101769200D01*
X309275000Y-95499200D02*
X309275000Y-101769200D01*
X310101000Y-95499200D02*
X309275000Y-95499200D01*
X310101000Y-92700400D02*
X310101000Y-95499200D01*
X309275000Y-92700400D02*
X310101000Y-92700400D01*
X309275000Y-89470200D02*
X309275000Y-92700400D01*
X302526000Y-89470200D02*
X309275000Y-89470200D01*
X302526000Y-92700400D02*
X302526000Y-89470200D01*
X301000000Y-92700400D02*
X302526000Y-92700400D01*
X301000000Y-88000000D02*
X301000000Y-92700400D01*
X287000000Y-88000000D02*
X301000000Y-88000000D01*
X287000000Y-92700400D02*
X287000000Y-88000000D01*
X285476000Y-92700400D02*
X287000000Y-92700400D01*
X285476000Y-89470200D02*
X285476000Y-92700400D01*
X278726000Y-89470200D02*
X285476000Y-89470200D01*
X278726000Y-92700400D02*
X278726000Y-89470200D01*
X277900000Y-92700400D02*
X278726000Y-92700400D01*
X277900000Y-95499200D02*
X277900000Y-92700400D01*
X278726000Y-95499200D02*
X277900000Y-95499200D01*
X278726000Y-101769200D02*
X278726000Y-95499200D01*
X280451000Y-101769200D02*
X278726000Y-101769200D01*
X280451000Y-102969500D02*
X280451000Y-101769200D01*
X283750000Y-102969500D02*
X280451000Y-102969500D01*
X283750000Y-101769200D02*
X283750000Y-102969500D01*
X285476000Y-101769200D02*
X283750000Y-101769200D01*
X285476000Y-97300300D02*
X285476000Y-101769200D01*
X287000000Y-97300300D02*
X285476000Y-97300300D01*
X287000000Y-101999400D02*
X287000000Y-97300300D01*
X301000000Y-101999400D02*
X287000000Y-101999400D01*
X301000000Y-97300300D02*
X301000000Y-101999400D01*
X302526000Y-97300300D02*
X301000000Y-97300300D01*
X302526000Y-101769200D02*
X302526000Y-97300300D01*
X274294000Y-50900400D02*
X275095000Y-50900400D01*
X274294000Y-53999600D02*
X274294000Y-50900400D01*
X275095000Y-53999600D02*
X274294000Y-53999600D01*
X275095000Y-59799600D02*
X275095000Y-53999600D01*
X274294000Y-59799600D02*
X275095000Y-59799600D01*
X274294000Y-62900200D02*
X274294000Y-59799600D01*
X275095000Y-62900200D02*
X274294000Y-62900200D01*
X275095000Y-63899200D02*
X275095000Y-62900200D01*
X289094000Y-63899200D02*
X275095000Y-63899200D01*
X289094000Y-62900200D02*
X289094000Y-63899200D01*
X289895000Y-62900200D02*
X289094000Y-62900200D01*
X289895000Y-59799600D02*
X289895000Y-62900200D01*
X289094000Y-59799600D02*
X289895000Y-59799600D01*
X289094000Y-53999600D02*
X289094000Y-59799600D01*
X289895000Y-53999600D02*
X289094000Y-53999600D01*
X289895000Y-50900400D02*
X289895000Y-53999600D01*
X289094000Y-50900400D02*
X289895000Y-50900400D01*
X289094000Y-49899900D02*
X289094000Y-50900400D01*
X275095000Y-49899900D02*
X289094000Y-49899900D01*
X275095000Y-50900400D02*
X275095000Y-49899900D01*
X326681000Y-89000300D02*
X327482000Y-89000300D01*
X326681000Y-92098200D02*
X326681000Y-89000300D01*
X327482000Y-92098200D02*
X326681000Y-92098200D01*
X327482000Y-97899700D02*
X327482000Y-92098200D01*
X326681000Y-97899700D02*
X327482000Y-97899700D01*
X326681000Y-101000300D02*
X326681000Y-97899700D01*
X327482000Y-101000300D02*
X326681000Y-101000300D01*
X327482000Y-101999400D02*
X327482000Y-101000300D01*
X341482000Y-101999400D02*
X327482000Y-101999400D01*
X341482000Y-101000300D02*
X341482000Y-101999400D01*
X342281000Y-101000300D02*
X341482000Y-101000300D01*
X342281000Y-97899700D02*
X342281000Y-101000300D01*
X341482000Y-97899700D02*
X342281000Y-97899700D01*
X341482000Y-92098200D02*
X341482000Y-97899700D01*
X342281000Y-92098200D02*
X341482000Y-92098200D01*
X342281000Y-89000300D02*
X342281000Y-92098200D01*
X341482000Y-89000300D02*
X342281000Y-89000300D01*
X341482000Y-88000000D02*
X341482000Y-89000300D01*
X327482000Y-88000000D02*
X341482000Y-88000000D01*
X327482000Y-89000300D02*
X327482000Y-88000000D01*
X345731000Y-50900400D02*
X346532000Y-50900400D01*
X345731000Y-53999600D02*
X345731000Y-50900400D01*
X346532000Y-53999600D02*
X345731000Y-53999600D01*
X346532000Y-59799600D02*
X346532000Y-53999600D01*
X345731000Y-59799600D02*
X346532000Y-59799600D01*
X345731000Y-62900200D02*
X345731000Y-59799600D01*
X346532000Y-62900200D02*
X345731000Y-62900200D01*
X346532000Y-63899200D02*
X346532000Y-62900200D01*
X360532000Y-63899200D02*
X346532000Y-63899200D01*
X360532000Y-62900200D02*
X360532000Y-63899200D01*
X361331000Y-62900200D02*
X360532000Y-62900200D01*
X361331000Y-59799600D02*
X361331000Y-62900200D01*
X360532000Y-59799600D02*
X361331000Y-59799600D01*
X360532000Y-53999600D02*
X360532000Y-59799600D01*
X361331000Y-53999600D02*
X360532000Y-53999600D01*
X361331000Y-50900400D02*
X361331000Y-53999600D01*
X360532000Y-50900400D02*
X361331000Y-50900400D01*
X360532000Y-49899900D02*
X360532000Y-50900400D01*
X346532000Y-49899900D02*
X360532000Y-49899900D01*
X346532000Y-50900400D02*
X346532000Y-49899900D01*
X326681000Y-31850400D02*
X327482000Y-31850400D01*
X326681000Y-34949600D02*
X326681000Y-31850400D01*
X327482000Y-34949600D02*
X326681000Y-34949600D01*
X327482000Y-40749600D02*
X327482000Y-34949600D01*
X326681000Y-40749600D02*
X327482000Y-40749600D01*
X326681000Y-43850200D02*
X326681000Y-40749600D01*
X327482000Y-43850200D02*
X326681000Y-43850200D01*
X327482000Y-44849200D02*
X327482000Y-43850200D01*
X341482000Y-44849200D02*
X327482000Y-44849200D01*
X341482000Y-43850200D02*
X341482000Y-44849200D01*
X342281000Y-43850200D02*
X341482000Y-43850200D01*
X342281000Y-40749600D02*
X342281000Y-43850200D01*
X341482000Y-40749600D02*
X342281000Y-40749600D01*
X341482000Y-34949600D02*
X341482000Y-40749600D01*
X342281000Y-34949600D02*
X341482000Y-34949600D01*
X342281000Y-31850400D02*
X342281000Y-34949600D01*
X341482000Y-31850400D02*
X342281000Y-31850400D01*
X341482000Y-30849900D02*
X341482000Y-31850400D01*
X327482000Y-30849900D02*
X341482000Y-30849900D01*
X327482000Y-31850400D02*
X327482000Y-30849900D01*
X326681000Y-108050300D02*
X327482000Y-108050300D01*
X326681000Y-111148200D02*
X326681000Y-108050300D01*
X327482000Y-111148200D02*
X326681000Y-111148200D01*
X327482000Y-116949710D02*
X327482000Y-111148200D01*
X326681000Y-116949710D02*
X327482000Y-116949710D01*
X326681000Y-120050270D02*
X326681000Y-116949710D01*
X327482000Y-120050270D02*
X326681000Y-120050270D01*
X327482000Y-121049360D02*
X327482000Y-120050270D01*
X341482000Y-121049360D02*
X327482000Y-121049360D01*
X341482000Y-120050270D02*
X341482000Y-121049360D01*
X342281000Y-120050270D02*
X341482000Y-120050270D01*
X342281000Y-116949710D02*
X342281000Y-120050270D01*
X341482000Y-116949710D02*
X342281000Y-116949710D01*
X341482000Y-111148200D02*
X341482000Y-116949710D01*
X342281000Y-111148200D02*
X341482000Y-111148200D01*
X342281000Y-108050300D02*
X342281000Y-111148200D01*
X341482000Y-108050300D02*
X342281000Y-108050300D01*
X341482000Y-107049900D02*
X341482000Y-108050300D01*
X327482000Y-107049900D02*
X341482000Y-107049900D01*
X327482000Y-108050300D02*
X327482000Y-107049900D01*
X298106000Y-50900400D02*
X298907000Y-50900400D01*
X298106000Y-53999600D02*
X298106000Y-50900400D01*
X298907000Y-53999600D02*
X298106000Y-53999600D01*
X298907000Y-59799600D02*
X298907000Y-53999600D01*
X298106000Y-59799600D02*
X298907000Y-59799600D01*
X298106000Y-62900200D02*
X298106000Y-59799600D01*
X298907000Y-62900200D02*
X298106000Y-62900200D01*
X298907000Y-63899200D02*
X298907000Y-62900200D01*
X312907000Y-63899200D02*
X298907000Y-63899200D01*
X312907000Y-62900200D02*
X312907000Y-63899200D01*
X313706000Y-62900200D02*
X312907000Y-62900200D01*
X313706000Y-59799600D02*
X313706000Y-62900200D01*
X312907000Y-59799600D02*
X313706000Y-59799600D01*
X312907000Y-53999600D02*
X312907000Y-59799600D01*
X313706000Y-53999600D02*
X312907000Y-53999600D01*
X313706000Y-50900400D02*
X313706000Y-53999600D01*
X312907000Y-50900400D02*
X313706000Y-50900400D01*
X312907000Y-49899900D02*
X312907000Y-50900400D01*
X298907000Y-49899900D02*
X312907000Y-49899900D01*
X298907000Y-50900400D02*
X298907000Y-49899900D01*
X264769000Y-31850400D02*
X265570000Y-31850400D01*
X264769000Y-34949600D02*
X264769000Y-31850400D01*
X265570000Y-34949600D02*
X264769000Y-34949600D01*
X265570000Y-40749600D02*
X265570000Y-34949600D01*
X264769000Y-40749600D02*
X265570000Y-40749600D01*
X264769000Y-43850200D02*
X264769000Y-40749600D01*
X265570000Y-43850200D02*
X264769000Y-43850200D01*
X265570000Y-44849200D02*
X265570000Y-43850200D01*
X279569000Y-44849200D02*
X265570000Y-44849200D01*
X279569000Y-43850200D02*
X279569000Y-44849200D01*
X280370000Y-43850200D02*
X279569000Y-43850200D01*
X280370000Y-40749600D02*
X280370000Y-43850200D01*
X279569000Y-40749600D02*
X280370000Y-40749600D01*
X279569000Y-34949600D02*
X279569000Y-40749600D01*
X280370000Y-34949600D02*
X279569000Y-34949600D01*
X280370000Y-31850400D02*
X280370000Y-34949600D01*
X279569000Y-31850400D02*
X280370000Y-31850400D01*
X279569000Y-30849900D02*
X279569000Y-31850400D01*
X265570000Y-30849900D02*
X279569000Y-30849900D01*
X265570000Y-31850400D02*
X265570000Y-30849900D01*
X245719000Y-31850400D02*
X246520000Y-31850400D01*
X245719000Y-34949600D02*
X245719000Y-31850400D01*
X246520000Y-34949600D02*
X245719000Y-34949600D01*
X246520000Y-40749600D02*
X246520000Y-34949600D01*
X245719000Y-40749600D02*
X246520000Y-40749600D01*
X245719000Y-43850200D02*
X245719000Y-40749600D01*
X246520000Y-43850200D02*
X245719000Y-43850200D01*
X246520000Y-44849200D02*
X246520000Y-43850200D01*
X260519000Y-44849200D02*
X246520000Y-44849200D01*
X260519000Y-43850200D02*
X260519000Y-44849200D01*
X261320000Y-43850200D02*
X260519000Y-43850200D01*
X261320000Y-40749600D02*
X261320000Y-43850200D01*
X260519000Y-40749600D02*
X261320000Y-40749600D01*
X260519000Y-34949600D02*
X260519000Y-40749600D01*
X261320000Y-34949600D02*
X260519000Y-34949600D01*
X261320000Y-31850400D02*
X261320000Y-34949600D01*
X260519000Y-31850400D02*
X261320000Y-31850400D01*
X260519000Y-30849900D02*
X260519000Y-31850400D01*
X246520000Y-30849900D02*
X260519000Y-30849900D01*
X246520000Y-31850400D02*
X246520000Y-30849900D01*
X236194000Y-50900400D02*
X236995000Y-50900400D01*
X236194000Y-53999600D02*
X236194000Y-50900400D01*
X236995000Y-53999600D02*
X236194000Y-53999600D01*
X236995000Y-59799600D02*
X236995000Y-53999600D01*
X236194000Y-59799600D02*
X236995000Y-59799600D01*
X236194000Y-62900200D02*
X236194000Y-59799600D01*
X236995000Y-62900200D02*
X236194000Y-62900200D01*
X236995000Y-63899200D02*
X236995000Y-62900200D01*
X250994000Y-63899200D02*
X236995000Y-63899200D01*
X250994000Y-62900200D02*
X250994000Y-63899200D01*
X251795000Y-62900200D02*
X250994000Y-62900200D01*
X251795000Y-59799600D02*
X251795000Y-62900200D01*
X250994000Y-59799600D02*
X251795000Y-59799600D01*
X250994000Y-53999600D02*
X250994000Y-59799600D01*
X251795000Y-53999600D02*
X250994000Y-53999600D01*
X251795000Y-50900400D02*
X251795000Y-53999600D01*
X250994000Y-50900400D02*
X251795000Y-50900400D01*
X250994000Y-49899900D02*
X250994000Y-50900400D01*
X236995000Y-49899900D02*
X250994000Y-49899900D01*
X236995000Y-50900400D02*
X236995000Y-49899900D01*
X250481000Y-89000300D02*
X251282000Y-89000300D01*
X250481000Y-92098200D02*
X250481000Y-89000300D01*
X251282000Y-92098200D02*
X250481000Y-92098200D01*
X251282000Y-97899700D02*
X251282000Y-92098200D01*
X250481000Y-97899700D02*
X251282000Y-97899700D01*
X250481000Y-101000300D02*
X250481000Y-97899700D01*
X251282000Y-101000300D02*
X250481000Y-101000300D01*
X251282000Y-101999400D02*
X251282000Y-101000300D01*
X265282000Y-101999400D02*
X251282000Y-101999400D01*
X265282000Y-101000300D02*
X265282000Y-101999400D01*
X266081000Y-101000300D02*
X265282000Y-101000300D01*
X266081000Y-97899700D02*
X266081000Y-101000300D01*
X265282000Y-97899700D02*
X266081000Y-97899700D01*
X265282000Y-92098200D02*
X265282000Y-97899700D01*
X266081000Y-92098200D02*
X265282000Y-92098200D01*
X266081000Y-89000300D02*
X266081000Y-92098200D01*
X265282000Y-89000300D02*
X266081000Y-89000300D01*
X265282000Y-88000000D02*
X265282000Y-89000300D01*
X251282000Y-88000000D02*
X265282000Y-88000000D01*
X251282000Y-89000300D02*
X251282000Y-88000000D01*
X202856000Y-69950400D02*
X203657000Y-69950400D01*
X202856000Y-73049600D02*
X202856000Y-69950400D01*
X203657000Y-73049600D02*
X202856000Y-73049600D01*
X203657000Y-78849600D02*
X203657000Y-73049600D01*
X202856000Y-78849600D02*
X203657000Y-78849600D01*
X202856000Y-81950200D02*
X202856000Y-78849600D01*
X203657000Y-81950200D02*
X202856000Y-81950200D01*
X203657000Y-82949200D02*
X203657000Y-81950200D01*
X217657000Y-82949200D02*
X203657000Y-82949200D01*
X217657000Y-81950200D02*
X217657000Y-82949200D01*
X218456000Y-81950200D02*
X217657000Y-81950200D01*
X218456000Y-78849600D02*
X218456000Y-81950200D01*
X217657000Y-78849600D02*
X218456000Y-78849600D01*
X217657000Y-73049600D02*
X217657000Y-78849600D01*
X218456000Y-73049600D02*
X217657000Y-73049600D01*
X218456000Y-69950400D02*
X218456000Y-73049600D01*
X217657000Y-69950400D02*
X218456000Y-69950400D01*
X217657000Y-68949900D02*
X217657000Y-69950400D01*
X203657000Y-68949900D02*
X217657000Y-68949900D01*
X203657000Y-69950400D02*
X203657000Y-68949900D01*
X179044000Y-50900400D02*
X179845000Y-50900400D01*
X179044000Y-53999600D02*
X179044000Y-50900400D01*
X179845000Y-53999600D02*
X179044000Y-53999600D01*
X179845000Y-59799600D02*
X179845000Y-53999600D01*
X179044000Y-59799600D02*
X179845000Y-59799600D01*
X179044000Y-62900200D02*
X179044000Y-59799600D01*
X179845000Y-62900200D02*
X179044000Y-62900200D01*
X179845000Y-63899200D02*
X179845000Y-62900200D01*
X193844000Y-63899200D02*
X179845000Y-63899200D01*
X193844000Y-62900200D02*
X193844000Y-63899200D01*
X194645000Y-62900200D02*
X193844000Y-62900200D01*
X194645000Y-59799600D02*
X194645000Y-62900200D01*
X193844000Y-59799600D02*
X194645000Y-59799600D01*
X193844000Y-53999600D02*
X193844000Y-59799600D01*
X194645000Y-53999600D02*
X193844000Y-53999600D01*
X194645000Y-50900400D02*
X194645000Y-53999600D01*
X193844000Y-50900400D02*
X194645000Y-50900400D01*
X193844000Y-49899900D02*
X193844000Y-50900400D01*
X179845000Y-49899900D02*
X193844000Y-49899900D01*
X179845000Y-50900400D02*
X179845000Y-49899900D01*
X164756000Y-69950400D02*
X165557000Y-69950400D01*
X164756000Y-73049600D02*
X164756000Y-69950400D01*
X165557000Y-73049600D02*
X164756000Y-73049600D01*
X165557000Y-78849600D02*
X165557000Y-73049600D01*
X164756000Y-78849600D02*
X165557000Y-78849600D01*
X164756000Y-81950200D02*
X164756000Y-78849600D01*
X165557000Y-81950200D02*
X164756000Y-81950200D01*
X165557000Y-82949200D02*
X165557000Y-81950200D01*
X179557000Y-82949200D02*
X165557000Y-82949200D01*
X179557000Y-81950200D02*
X179557000Y-82949200D01*
X180356000Y-81950200D02*
X179557000Y-81950200D01*
X180356000Y-78849600D02*
X180356000Y-81950200D01*
X179557000Y-78849600D02*
X180356000Y-78849600D01*
X179557000Y-73049600D02*
X179557000Y-78849600D01*
X180356000Y-73049600D02*
X179557000Y-73049600D01*
X180356000Y-69950400D02*
X180356000Y-73049600D01*
X179557000Y-69950400D02*
X180356000Y-69950400D01*
X179557000Y-68949900D02*
X179557000Y-69950400D01*
X165557000Y-68949900D02*
X179557000Y-68949900D01*
X165557000Y-69950400D02*
X165557000Y-68949900D01*
X140944000Y-50900400D02*
X141745000Y-50900400D01*
X140944000Y-53999600D02*
X140944000Y-50900400D01*
X141745000Y-53999600D02*
X140944000Y-53999600D01*
X141745000Y-59799600D02*
X141745000Y-53999600D01*
X140944000Y-59799600D02*
X141745000Y-59799600D01*
X140944000Y-62900200D02*
X140944000Y-59799600D01*
X141745000Y-62900200D02*
X140944000Y-62900200D01*
X141745000Y-63899200D02*
X141745000Y-62900200D01*
X155744000Y-63899200D02*
X141745000Y-63899200D01*
X155744000Y-62900200D02*
X155744000Y-63899200D01*
X156545000Y-62900200D02*
X155744000Y-62900200D01*
X156545000Y-59799600D02*
X156545000Y-62900200D01*
X155744000Y-59799600D02*
X156545000Y-59799600D01*
X155744000Y-53999600D02*
X155744000Y-59799600D01*
X156545000Y-53999600D02*
X155744000Y-53999600D01*
X156545000Y-50900400D02*
X156545000Y-53999600D01*
X155744000Y-50900400D02*
X156545000Y-50900400D01*
X155744000Y-49899900D02*
X155744000Y-50900400D01*
X141745000Y-49899900D02*
X155744000Y-49899900D01*
X141745000Y-50900400D02*
X141745000Y-49899900D01*
X126656400Y-69950400D02*
X127457200Y-69950400D01*
X126656400Y-73049600D02*
X126656400Y-69950400D01*
X127457200Y-73049600D02*
X126656400Y-73049600D01*
X127457200Y-78849600D02*
X127457200Y-73049600D01*
X126656400Y-78849600D02*
X127457200Y-78849600D01*
X126656400Y-81950200D02*
X126656400Y-78849600D01*
X127457200Y-81950200D02*
X126656400Y-81950200D01*
X127457200Y-82949200D02*
X127457200Y-81950200D01*
X141457000Y-82949200D02*
X127457200Y-82949200D01*
X141457000Y-81950200D02*
X141457000Y-82949200D01*
X142256000Y-81950200D02*
X141457000Y-81950200D01*
X142256000Y-78849600D02*
X142256000Y-81950200D01*
X141457000Y-78849600D02*
X142256000Y-78849600D01*
X141457000Y-73049600D02*
X141457000Y-78849600D01*
X142256000Y-73049600D02*
X141457000Y-73049600D01*
X142256000Y-69950400D02*
X142256000Y-73049600D01*
X141457000Y-69950400D02*
X142256000Y-69950400D01*
X141457000Y-68949900D02*
X141457000Y-69950400D01*
X127457200Y-68949900D02*
X141457000Y-68949900D01*
X127457200Y-69950400D02*
X127457200Y-68949900D01*
X102843900Y-50900400D02*
X103644700Y-50900400D01*
X102843900Y-53999600D02*
X102843900Y-50900400D01*
X103644700Y-53999600D02*
X102843900Y-53999600D01*
X103644700Y-59799600D02*
X103644700Y-53999600D01*
X102843900Y-59799600D02*
X103644700Y-59799600D01*
X102843900Y-62900200D02*
X102843900Y-59799600D01*
X103644700Y-62900200D02*
X102843900Y-62900200D01*
X103644700Y-63899200D02*
X103644700Y-62900200D01*
X117644000Y-63899200D02*
X103644700Y-63899200D01*
X117644000Y-62900200D02*
X117644000Y-63899200D01*
X118444800Y-62900200D02*
X117644000Y-62900200D01*
X118444800Y-59799600D02*
X118444800Y-62900200D01*
X117644000Y-59799600D02*
X118444800Y-59799600D01*
X117644000Y-53999600D02*
X117644000Y-59799600D01*
X118444800Y-53999600D02*
X117644000Y-53999600D01*
X118444800Y-50900400D02*
X118444800Y-53999600D01*
X117644000Y-50900400D02*
X118444800Y-50900400D01*
X117644000Y-49899900D02*
X117644000Y-50900400D01*
X103644700Y-49899900D02*
X117644000Y-49899900D01*
X103644700Y-50900400D02*
X103644700Y-49899900D01*
X98081400Y-89000300D02*
X98882200Y-89000300D01*
X98081400Y-92098200D02*
X98081400Y-89000300D01*
X98882200Y-92098200D02*
X98081400Y-92098200D01*
X98882200Y-97899700D02*
X98882200Y-92098200D01*
X98081400Y-97899700D02*
X98882200Y-97899700D01*
X98081400Y-101000300D02*
X98081400Y-97899700D01*
X98882200Y-101000300D02*
X98081400Y-101000300D01*
X98882200Y-101999400D02*
X98882200Y-101000300D01*
X112881500Y-101999400D02*
X98882200Y-101999400D01*
X112881500Y-101000300D02*
X112881500Y-101999400D01*
X113680900Y-101000300D02*
X112881500Y-101000300D01*
X113680900Y-97899700D02*
X113680900Y-101000300D01*
X112881500Y-97899700D02*
X113680900Y-97899700D01*
X112881500Y-92098200D02*
X112881500Y-97899700D01*
X113680900Y-92098200D02*
X112881500Y-92098200D01*
X113680900Y-89000300D02*
X113680900Y-92098200D01*
X112881500Y-89000300D02*
X113680900Y-89000300D01*
X112881500Y-88000000D02*
X112881500Y-89000300D01*
X98882200Y-88000000D02*
X112881500Y-88000000D01*
X98882200Y-89000300D02*
X98882200Y-88000000D01*
X64744000Y-50900400D02*
X65544700Y-50900400D01*
X64744000Y-53999600D02*
X64744000Y-50900400D01*
X65544700Y-53999600D02*
X64744000Y-53999600D01*
X65544700Y-59799600D02*
X65544700Y-53999600D01*
X64744000Y-59799600D02*
X65544700Y-59799600D01*
X64744000Y-62900200D02*
X64744000Y-59799600D01*
X65544700Y-62900200D02*
X64744000Y-62900200D01*
X65544700Y-63899200D02*
X65544700Y-62900200D01*
X79544000Y-63899200D02*
X65544700Y-63899200D01*
X79544000Y-62900200D02*
X79544000Y-63899200D01*
X80344800Y-62900200D02*
X79544000Y-62900200D01*
X80344800Y-59799600D02*
X80344800Y-62900200D01*
X79544000Y-59799600D02*
X80344800Y-59799600D01*
X79544000Y-53999600D02*
X79544000Y-59799600D01*
X80344800Y-53999600D02*
X79544000Y-53999600D01*
X80344800Y-50900400D02*
X80344800Y-53999600D01*
X79544000Y-50900400D02*
X80344800Y-50900400D01*
X79544000Y-49899900D02*
X79544000Y-50900400D01*
X65544700Y-49899900D02*
X79544000Y-49899900D01*
X65544700Y-50900400D02*
X65544700Y-49899900D01*
X62362800Y-108050300D02*
X63162000Y-108050300D01*
X62362800Y-111148200D02*
X62362800Y-108050300D01*
X63162000Y-111148200D02*
X62362800Y-111148200D01*
X63162000Y-116949710D02*
X63162000Y-111148200D01*
X62362800Y-116949710D02*
X63162000Y-116949710D01*
X62362800Y-120050270D02*
X62362800Y-116949710D01*
X63162000Y-120050270D02*
X62362800Y-120050270D01*
X63162000Y-121049360D02*
X63162000Y-120050270D01*
X77162800Y-121049360D02*
X63162000Y-121049360D01*
X77162800Y-120050270D02*
X77162800Y-121049360D01*
X77962200Y-120050270D02*
X77162800Y-120050270D01*
X77962200Y-116949710D02*
X77962200Y-120050270D01*
X77162800Y-116949710D02*
X77962200Y-116949710D01*
X77162800Y-111148200D02*
X77162800Y-116949710D01*
X77962200Y-111148200D02*
X77162800Y-111148200D01*
X77962200Y-108050300D02*
X77962200Y-111148200D01*
X77162800Y-108050300D02*
X77962200Y-108050300D01*
X77162800Y-107049900D02*
X77162800Y-108050300D01*
X63162000Y-107049900D02*
X77162800Y-107049900D01*
X63162000Y-108050300D02*
X63162000Y-107049900D01*
X55219000Y-31850400D02*
X56019700Y-31850400D01*
X55219000Y-34949600D02*
X55219000Y-31850400D01*
X56019700Y-34949600D02*
X55219000Y-34949600D01*
X56019700Y-40749600D02*
X56019700Y-34949600D01*
X55219000Y-40749600D02*
X56019700Y-40749600D01*
X55219000Y-43850200D02*
X55219000Y-40749600D01*
X56019700Y-43850200D02*
X55219000Y-43850200D01*
X56019700Y-44849200D02*
X56019700Y-43850200D01*
X70019000Y-44849200D02*
X56019700Y-44849200D01*
X70019000Y-43850200D02*
X70019000Y-44849200D01*
X70819800Y-43850200D02*
X70019000Y-43850200D01*
X70819800Y-40749600D02*
X70819800Y-43850200D01*
X70019000Y-40749600D02*
X70819800Y-40749600D01*
X70019000Y-34949600D02*
X70019000Y-40749600D01*
X70819800Y-34949600D02*
X70019000Y-34949600D01*
X70819800Y-31850400D02*
X70819800Y-34949600D01*
X70019000Y-31850400D02*
X70819800Y-31850400D01*
X70019000Y-30849900D02*
X70019000Y-31850400D01*
X56019700Y-30849900D02*
X70019000Y-30849900D01*
X56019700Y-31850400D02*
X56019700Y-30849900D01*
X36169010Y-31850400D02*
X36969650Y-31850400D01*
X36169010Y-34949600D02*
X36169010Y-31850400D01*
X36969650Y-34949600D02*
X36169010Y-34949600D01*
X36969650Y-40749600D02*
X36969650Y-34949600D01*
X36169010Y-40749600D02*
X36969650Y-40749600D01*
X36169010Y-43850200D02*
X36169010Y-40749600D01*
X36969650Y-43850200D02*
X36169010Y-43850200D01*
X36969650Y-44849200D02*
X36969650Y-43850200D01*
X50969200Y-44849200D02*
X36969650Y-44849200D01*
X50969200Y-43850200D02*
X50969200Y-44849200D01*
X51769800Y-43850200D02*
X50969200Y-43850200D01*
X51769800Y-40749600D02*
X51769800Y-43850200D01*
X50969200Y-40749600D02*
X51769800Y-40749600D01*
X50969200Y-34949600D02*
X50969200Y-40749600D01*
X51769800Y-34949600D02*
X50969200Y-34949600D01*
X51769800Y-31850400D02*
X51769800Y-34949600D01*
X50969200Y-31850400D02*
X51769800Y-31850400D01*
X50969200Y-30849900D02*
X50969200Y-31850400D01*
X36969650Y-30849900D02*
X50969200Y-30849900D01*
X36969650Y-31850400D02*
X36969650Y-30849900D01*
X38550280Y-108050300D02*
X39350910Y-108050300D01*
X38550280Y-111148200D02*
X38550280Y-108050300D01*
X39350910Y-111148200D02*
X38550280Y-111148200D01*
X39350910Y-116949710D02*
X39350910Y-111148200D01*
X38550280Y-116949710D02*
X39350910Y-116949710D01*
X38550280Y-120050270D02*
X38550280Y-116949710D01*
X39350910Y-120050270D02*
X38550280Y-120050270D01*
X39350910Y-121049360D02*
X39350910Y-120050270D01*
X53350400Y-121049360D02*
X39350910Y-121049360D01*
X53350400Y-120050270D02*
X53350400Y-121049360D01*
X54151000Y-120050270D02*
X53350400Y-120050270D01*
X54151000Y-116949710D02*
X54151000Y-120050270D01*
X53350400Y-116949710D02*
X54151000Y-116949710D01*
X53350400Y-111148200D02*
X53350400Y-116949710D01*
X54151000Y-111148200D02*
X53350400Y-111148200D01*
X54151000Y-108050300D02*
X54151000Y-111148200D01*
X53350400Y-108050300D02*
X54151000Y-108050300D01*
X53350400Y-107049900D02*
X53350400Y-108050300D01*
X39350910Y-107049900D02*
X53350400Y-107049900D01*
X39350910Y-108050300D02*
X39350910Y-107049900D01*
X69506500Y-69950400D02*
X70307200Y-69950400D01*
X69506500Y-73049600D02*
X69506500Y-69950400D01*
X70307200Y-73049600D02*
X69506500Y-73049600D01*
X70307200Y-78849600D02*
X70307200Y-73049600D01*
X69506500Y-78849600D02*
X70307200Y-78849600D01*
X69506500Y-81950200D02*
X69506500Y-78849600D01*
X70307200Y-81950200D02*
X69506500Y-81950200D01*
X70307200Y-82949200D02*
X70307200Y-81950200D01*
X84306500Y-82949200D02*
X70307200Y-82949200D01*
X84306500Y-81950200D02*
X84306500Y-82949200D01*
X85105900Y-81950200D02*
X84306500Y-81950200D01*
X85105900Y-78849600D02*
X85105900Y-81950200D01*
X84306500Y-78849600D02*
X85105900Y-78849600D01*
X84306500Y-73049600D02*
X84306500Y-78849600D01*
X85105900Y-73049600D02*
X84306500Y-73049600D01*
X85105900Y-69950400D02*
X85105900Y-73049600D01*
X84306500Y-69950400D02*
X85105900Y-69950400D01*
X84306500Y-68949900D02*
X84306500Y-69950400D01*
X70307200Y-68949900D02*
X84306500Y-68949900D01*
X70307200Y-69950400D02*
X70307200Y-68949900D01*
X88556400Y-69950400D02*
X89357200Y-69950400D01*
X88556400Y-73049600D02*
X88556400Y-69950400D01*
X89357200Y-73049600D02*
X88556400Y-73049600D01*
X89357200Y-78849600D02*
X89357200Y-73049600D01*
X88556400Y-78849600D02*
X89357200Y-78849600D01*
X88556400Y-81950200D02*
X88556400Y-78849600D01*
X89357200Y-81950200D02*
X88556400Y-81950200D01*
X89357200Y-82949200D02*
X89357200Y-81950200D01*
X103356500Y-82949200D02*
X89357200Y-82949200D01*
X103356500Y-81950200D02*
X103356500Y-82949200D01*
X104155900Y-81950200D02*
X103356500Y-81950200D01*
X104155900Y-78849600D02*
X104155900Y-81950200D01*
X103356500Y-78849600D02*
X104155900Y-78849600D01*
X103356500Y-73049600D02*
X103356500Y-78849600D01*
X104155900Y-73049600D02*
X103356500Y-73049600D01*
X104155900Y-69950400D02*
X104155900Y-73049600D01*
X103356500Y-69950400D02*
X104155900Y-69950400D01*
X103356500Y-68949900D02*
X103356500Y-69950400D01*
X89357200Y-68949900D02*
X103356500Y-68949900D01*
X89357200Y-69950400D02*
X89357200Y-68949900D01*
X107606400Y-69950400D02*
X108407200Y-69950400D01*
X107606400Y-73049600D02*
X107606400Y-69950400D01*
X108407200Y-73049600D02*
X107606400Y-73049600D01*
X108407200Y-78849600D02*
X108407200Y-73049600D01*
X107606400Y-78849600D02*
X108407200Y-78849600D01*
X107606400Y-81950200D02*
X107606400Y-78849600D01*
X108407200Y-81950200D02*
X107606400Y-81950200D01*
X108407200Y-82949200D02*
X108407200Y-81950200D01*
X122406500Y-82949200D02*
X108407200Y-82949200D01*
X122406500Y-81950200D02*
X122406500Y-82949200D01*
X123205900Y-81950200D02*
X122406500Y-81950200D01*
X123205900Y-78849600D02*
X123205900Y-81950200D01*
X122406500Y-78849600D02*
X123205900Y-78849600D01*
X122406500Y-73049600D02*
X122406500Y-78849600D01*
X123205900Y-73049600D02*
X122406500Y-73049600D01*
X123205900Y-69950400D02*
X123205900Y-73049600D01*
X122406500Y-69950400D02*
X123205900Y-69950400D01*
X122406500Y-68949900D02*
X122406500Y-69950400D01*
X108407200Y-68949900D02*
X122406500Y-68949900D01*
X108407200Y-69950400D02*
X108407200Y-68949900D01*
X121893900Y-50900400D02*
X122694700Y-50900400D01*
X121893900Y-53999600D02*
X121893900Y-50900400D01*
X122694700Y-53999600D02*
X121893900Y-53999600D01*
X122694700Y-59799600D02*
X122694700Y-53999600D01*
X121893900Y-59799600D02*
X122694700Y-59799600D01*
X121893900Y-62900200D02*
X121893900Y-59799600D01*
X122694700Y-62900200D02*
X121893900Y-62900200D01*
X122694700Y-63899200D02*
X122694700Y-62900200D01*
X136694000Y-63899200D02*
X122694700Y-63899200D01*
X136694000Y-62900200D02*
X136694000Y-63899200D01*
X137495000Y-62900200D02*
X136694000Y-62900200D01*
X137495000Y-59799600D02*
X137495000Y-62900200D01*
X136694000Y-59799600D02*
X137495000Y-59799600D01*
X136694000Y-53999600D02*
X136694000Y-59799600D01*
X137495000Y-53999600D02*
X136694000Y-53999600D01*
X137495000Y-50900400D02*
X137495000Y-53999600D01*
X136694000Y-50900400D02*
X137495000Y-50900400D01*
X136694000Y-49899900D02*
X136694000Y-50900400D01*
X122694700Y-49899900D02*
X136694000Y-49899900D01*
X122694700Y-50900400D02*
X122694700Y-49899900D01*
X145706000Y-69950400D02*
X146507000Y-69950400D01*
X145706000Y-73049600D02*
X145706000Y-69950400D01*
X146507000Y-73049600D02*
X145706000Y-73049600D01*
X146507000Y-78849600D02*
X146507000Y-73049600D01*
X145706000Y-78849600D02*
X146507000Y-78849600D01*
X145706000Y-81950200D02*
X145706000Y-78849600D01*
X146507000Y-81950200D02*
X145706000Y-81950200D01*
X146507000Y-82949200D02*
X146507000Y-81950200D01*
X160507000Y-82949200D02*
X146507000Y-82949200D01*
X160507000Y-81950200D02*
X160507000Y-82949200D01*
X161306000Y-81950200D02*
X160507000Y-81950200D01*
X161306000Y-78849600D02*
X161306000Y-81950200D01*
X160507000Y-78849600D02*
X161306000Y-78849600D01*
X160507000Y-73049600D02*
X160507000Y-78849600D01*
X161306000Y-73049600D02*
X160507000Y-73049600D01*
X161306000Y-69950400D02*
X161306000Y-73049600D01*
X160507000Y-69950400D02*
X161306000Y-69950400D01*
X160507000Y-68949900D02*
X160507000Y-69950400D01*
X146507000Y-68949900D02*
X160507000Y-68949900D01*
X146507000Y-69950400D02*
X146507000Y-68949900D01*
X159994000Y-50900400D02*
X160795000Y-50900400D01*
X159994000Y-53999600D02*
X159994000Y-50900400D01*
X160795000Y-53999600D02*
X159994000Y-53999600D01*
X160795000Y-59799600D02*
X160795000Y-53999600D01*
X159994000Y-59799600D02*
X160795000Y-59799600D01*
X159994000Y-62900200D02*
X159994000Y-59799600D01*
X160795000Y-62900200D02*
X159994000Y-62900200D01*
X160795000Y-63899200D02*
X160795000Y-62900200D01*
X174794000Y-63899200D02*
X160795000Y-63899200D01*
X174794000Y-62900200D02*
X174794000Y-63899200D01*
X175595000Y-62900200D02*
X174794000Y-62900200D01*
X175595000Y-59799600D02*
X175595000Y-62900200D01*
X174794000Y-59799600D02*
X175595000Y-59799600D01*
X174794000Y-53999600D02*
X174794000Y-59799600D01*
X175595000Y-53999600D02*
X174794000Y-53999600D01*
X175595000Y-50900400D02*
X175595000Y-53999600D01*
X174794000Y-50900400D02*
X175595000Y-50900400D01*
X174794000Y-49899900D02*
X174794000Y-50900400D01*
X160795000Y-49899900D02*
X174794000Y-49899900D01*
X160795000Y-50900400D02*
X160795000Y-49899900D01*
X183806000Y-69950400D02*
X184607000Y-69950400D01*
X183806000Y-73049600D02*
X183806000Y-69950400D01*
X184607000Y-73049600D02*
X183806000Y-73049600D01*
X184607000Y-78849600D02*
X184607000Y-73049600D01*
X183806000Y-78849600D02*
X184607000Y-78849600D01*
X183806000Y-81950200D02*
X183806000Y-78849600D01*
X184607000Y-81950200D02*
X183806000Y-81950200D01*
X184607000Y-82949200D02*
X184607000Y-81950200D01*
X198607000Y-82949200D02*
X184607000Y-82949200D01*
X198607000Y-81950200D02*
X198607000Y-82949200D01*
X199406000Y-81950200D02*
X198607000Y-81950200D01*
X199406000Y-78849600D02*
X199406000Y-81950200D01*
X198607000Y-78849600D02*
X199406000Y-78849600D01*
X198607000Y-73049600D02*
X198607000Y-78849600D01*
X199406000Y-73049600D02*
X198607000Y-73049600D01*
X199406000Y-69950400D02*
X199406000Y-73049600D01*
X198607000Y-69950400D02*
X199406000Y-69950400D01*
X198607000Y-68949900D02*
X198607000Y-69950400D01*
X184607000Y-68949900D02*
X198607000Y-68949900D01*
X184607000Y-69950400D02*
X184607000Y-68949900D01*
X198094000Y-50900400D02*
X198895000Y-50900400D01*
X198094000Y-53999600D02*
X198094000Y-50900400D01*
X198895000Y-53999600D02*
X198094000Y-53999600D01*
X198895000Y-59799600D02*
X198895000Y-53999600D01*
X198094000Y-59799600D02*
X198895000Y-59799600D01*
X198094000Y-62900200D02*
X198094000Y-59799600D01*
X198895000Y-62900200D02*
X198094000Y-62900200D01*
X198895000Y-63899200D02*
X198895000Y-62900200D01*
X212894000Y-63899200D02*
X198895000Y-63899200D01*
X212894000Y-62900200D02*
X212894000Y-63899200D01*
X213695000Y-62900200D02*
X212894000Y-62900200D01*
X213695000Y-59799600D02*
X213695000Y-62900200D01*
X212894000Y-59799600D02*
X213695000Y-59799600D01*
X212894000Y-53999600D02*
X212894000Y-59799600D01*
X213695000Y-53999600D02*
X212894000Y-53999600D01*
X213695000Y-50900400D02*
X213695000Y-53999600D01*
X212894000Y-50900400D02*
X213695000Y-50900400D01*
X212894000Y-49899900D02*
X212894000Y-50900400D01*
X198895000Y-49899900D02*
X212894000Y-49899900D01*
X198895000Y-50900400D02*
X198895000Y-49899900D01*
X252863000Y-108050300D02*
X253662000Y-108050300D01*
X252863000Y-111148200D02*
X252863000Y-108050300D01*
X253662000Y-111148200D02*
X252863000Y-111148200D01*
X253662000Y-116949710D02*
X253662000Y-111148200D01*
X252863000Y-116949710D02*
X253662000Y-116949710D01*
X252863000Y-120050270D02*
X252863000Y-116949710D01*
X253662000Y-120050270D02*
X252863000Y-120050270D01*
X253662000Y-121049360D02*
X253662000Y-120050270D01*
X267663000Y-121049360D02*
X253662000Y-121049360D01*
X267663000Y-120050270D02*
X267663000Y-121049360D01*
X268462000Y-120050270D02*
X267663000Y-120050270D01*
X268462000Y-116949710D02*
X268462000Y-120050270D01*
X267663000Y-116949710D02*
X268462000Y-116949710D01*
X267663000Y-111148200D02*
X267663000Y-116949710D01*
X268462000Y-111148200D02*
X267663000Y-111148200D01*
X268462000Y-108050300D02*
X268462000Y-111148200D01*
X267663000Y-108050300D02*
X268462000Y-108050300D01*
X267663000Y-107049900D02*
X267663000Y-108050300D01*
X253662000Y-107049900D02*
X267663000Y-107049900D01*
X253662000Y-108050300D02*
X253662000Y-107049900D01*
X240956000Y-69950400D02*
X241757000Y-69950400D01*
X240956000Y-73049600D02*
X240956000Y-69950400D01*
X241757000Y-73049600D02*
X240956000Y-73049600D01*
X241757000Y-78849600D02*
X241757000Y-73049600D01*
X240956000Y-78849600D02*
X241757000Y-78849600D01*
X240956000Y-81950200D02*
X240956000Y-78849600D01*
X241757000Y-81950200D02*
X240956000Y-81950200D01*
X241757000Y-82949200D02*
X241757000Y-81950200D01*
X255757000Y-82949200D02*
X241757000Y-82949200D01*
X255757000Y-81950200D02*
X255757000Y-82949200D01*
X256556000Y-81950200D02*
X255757000Y-81950200D01*
X256556000Y-78849600D02*
X256556000Y-81950200D01*
X255757000Y-78849600D02*
X256556000Y-78849600D01*
X255757000Y-73049600D02*
X255757000Y-78849600D01*
X256556000Y-73049600D02*
X255757000Y-73049600D01*
X256556000Y-69950400D02*
X256556000Y-73049600D01*
X255757000Y-69950400D02*
X256556000Y-69950400D01*
X255757000Y-68949900D02*
X255757000Y-69950400D01*
X241757000Y-68949900D02*
X255757000Y-68949900D01*
X241757000Y-69950400D02*
X241757000Y-68949900D01*
X226669000Y-31850400D02*
X227470000Y-31850400D01*
X226669000Y-34949600D02*
X226669000Y-31850400D01*
X227470000Y-34949600D02*
X226669000Y-34949600D01*
X227470000Y-40749600D02*
X227470000Y-34949600D01*
X226669000Y-40749600D02*
X227470000Y-40749600D01*
X226669000Y-43850200D02*
X226669000Y-40749600D01*
X227470000Y-43850200D02*
X226669000Y-43850200D01*
X227470000Y-44849200D02*
X227470000Y-43850200D01*
X241469000Y-44849200D02*
X227470000Y-44849200D01*
X241469000Y-43850200D02*
X241469000Y-44849200D01*
X242270000Y-43850200D02*
X241469000Y-43850200D01*
X242270000Y-40749600D02*
X242270000Y-43850200D01*
X241469000Y-40749600D02*
X242270000Y-40749600D01*
X241469000Y-34949600D02*
X241469000Y-40749600D01*
X242270000Y-34949600D02*
X241469000Y-34949600D01*
X242270000Y-31850400D02*
X242270000Y-34949600D01*
X241469000Y-31850400D02*
X242270000Y-31850400D01*
X241469000Y-30849900D02*
X241469000Y-31850400D01*
X227470000Y-30849900D02*
X241469000Y-30849900D01*
X227470000Y-31850400D02*
X227470000Y-30849900D01*
X276675000Y-108050300D02*
X277476000Y-108050300D01*
X276675000Y-111148200D02*
X276675000Y-108050300D01*
X277476000Y-111148200D02*
X276675000Y-111148200D01*
X277476000Y-116949710D02*
X277476000Y-111148200D01*
X276675000Y-116949710D02*
X277476000Y-116949710D01*
X276675000Y-120050270D02*
X276675000Y-116949710D01*
X277476000Y-120050270D02*
X276675000Y-120050270D01*
X277476000Y-121049360D02*
X277476000Y-120050270D01*
X291475000Y-121049360D02*
X277476000Y-121049360D01*
X291475000Y-120050270D02*
X291475000Y-121049360D01*
X292276000Y-120050270D02*
X291475000Y-120050270D01*
X292276000Y-116949710D02*
X292276000Y-120050270D01*
X291475000Y-116949710D02*
X292276000Y-116949710D01*
X291475000Y-111148200D02*
X291475000Y-116949710D01*
X292276000Y-111148200D02*
X291475000Y-111148200D01*
X292276000Y-108050300D02*
X292276000Y-111148200D01*
X291475000Y-108050300D02*
X292276000Y-108050300D01*
X291475000Y-107049900D02*
X291475000Y-108050300D01*
X277476000Y-107049900D02*
X291475000Y-107049900D01*
X277476000Y-108050300D02*
X277476000Y-107049900D01*
X292619000Y-35550400D02*
X294145000Y-35550400D01*
X292619000Y-32320300D02*
X292619000Y-35550400D01*
X285870000Y-32320300D02*
X292619000Y-32320300D01*
X285870000Y-35550400D02*
X285870000Y-32320300D01*
X285044000Y-35550400D02*
X285870000Y-35550400D01*
X285044000Y-38349300D02*
X285044000Y-35550400D01*
X285870000Y-38349300D02*
X285044000Y-38349300D01*
X285870000Y-44619200D02*
X285870000Y-38349300D01*
X287593000Y-44619200D02*
X285870000Y-44619200D01*
X287593000Y-45819400D02*
X287593000Y-44619200D01*
X290894000Y-45819400D02*
X287593000Y-45819400D01*
X290894000Y-44619200D02*
X290894000Y-45819400D01*
X292619000Y-44619200D02*
X290894000Y-44619200D01*
X292619000Y-40150200D02*
X292619000Y-44619200D01*
X294145000Y-40150200D02*
X292619000Y-40150200D01*
X294145000Y-44849200D02*
X294145000Y-40150200D01*
X308144000Y-44849200D02*
X294145000Y-44849200D01*
X308144000Y-40150200D02*
X308144000Y-44849200D01*
X309670000Y-40150200D02*
X308144000Y-40150200D01*
X309670000Y-44619200D02*
X309670000Y-40150200D01*
X311395000Y-44619200D02*
X309670000Y-44619200D01*
X311395000Y-45819400D02*
X311395000Y-44619200D01*
X314694000Y-45819400D02*
X311395000Y-45819400D01*
X314694000Y-44619200D02*
X314694000Y-45819400D01*
X316419000Y-44619200D02*
X314694000Y-44619200D01*
X316419000Y-38349300D02*
X316419000Y-44619200D01*
X317245000Y-38349300D02*
X316419000Y-38349300D01*
X317245000Y-35550400D02*
X317245000Y-38349300D01*
X316419000Y-35550400D02*
X317245000Y-35550400D01*
X316419000Y-32320300D02*
X316419000Y-35550400D01*
X309670000Y-32320300D02*
X316419000Y-32320300D01*
X309670000Y-35550400D02*
X309670000Y-32320300D01*
X308144000Y-35550400D02*
X309670000Y-35550400D01*
X308144000Y-30849900D02*
X308144000Y-35550400D01*
X294145000Y-30849900D02*
X308144000Y-30849900D01*
X294145000Y-35550400D02*
X294145000Y-30849900D01*
X307631000Y-108050300D02*
X308432000Y-108050300D01*
X307631000Y-111148200D02*
X307631000Y-108050300D01*
X308432000Y-111148200D02*
X307631000Y-111148200D01*
X308432000Y-116949710D02*
X308432000Y-111148200D01*
X307631000Y-116949710D02*
X308432000Y-116949710D01*
X307631000Y-120050270D02*
X307631000Y-116949710D01*
X308432000Y-120050270D02*
X307631000Y-120050270D01*
X308432000Y-121049360D02*
X308432000Y-120050270D01*
X322432000Y-121049360D02*
X308432000Y-121049360D01*
X322432000Y-120050270D02*
X322432000Y-121049360D01*
X323231000Y-120050270D02*
X322432000Y-120050270D01*
X323231000Y-116949710D02*
X323231000Y-120050270D01*
X322432000Y-116949710D02*
X323231000Y-116949710D01*
X322432000Y-111148200D02*
X322432000Y-116949710D01*
X323231000Y-111148200D02*
X322432000Y-111148200D01*
X323231000Y-108050300D02*
X323231000Y-111148200D01*
X322432000Y-108050300D02*
X323231000Y-108050300D01*
X322432000Y-107049900D02*
X322432000Y-108050300D01*
X308432000Y-107049900D02*
X322432000Y-107049900D01*
X308432000Y-108050300D02*
X308432000Y-107049900D01*
X326681000Y-50900400D02*
X327482000Y-50900400D01*
X326681000Y-53999600D02*
X326681000Y-50900400D01*
X327482000Y-53999600D02*
X326681000Y-53999600D01*
X327482000Y-59799600D02*
X327482000Y-53999600D01*
X326681000Y-59799600D02*
X327482000Y-59799600D01*
X326681000Y-62900200D02*
X326681000Y-59799600D01*
X327482000Y-62900200D02*
X326681000Y-62900200D01*
X327482000Y-63899200D02*
X327482000Y-62900200D01*
X341482000Y-63899200D02*
X327482000Y-63899200D01*
X341482000Y-62900200D02*
X341482000Y-63899200D01*
X342281000Y-62900200D02*
X341482000Y-62900200D01*
X342281000Y-59799600D02*
X342281000Y-62900200D01*
X341482000Y-59799600D02*
X342281000Y-59799600D01*
X341482000Y-53999600D02*
X341482000Y-59799600D01*
X342281000Y-53999600D02*
X341482000Y-53999600D01*
X342281000Y-50900400D02*
X342281000Y-53999600D01*
X341482000Y-50900400D02*
X342281000Y-50900400D01*
X341482000Y-49899900D02*
X341482000Y-50900400D01*
X327482000Y-49899900D02*
X341482000Y-49899900D01*
X327482000Y-50900400D02*
X327482000Y-49899900D01*
X327698160Y-82889340D02*
X327698160Y-68889340D01*
X360698160Y-82889340D02*
X327698160Y-82889340D01*
X360698160Y-68889340D02*
X360698160Y-82889340D01*
X327698160Y-68889340D02*
X360698160Y-68889340D01*
M02*
